<?xml version="1.0" encoding="UTF-8" standalone="no"?>
<!DOCTYPE svg PUBLIC "-//W3C//DTD SVG 1.1//EN"
 "http://www.w3.org/Graphics/SVG/1.1/DTD/svg11.dtd">
<!-- Generated by graphviz version 2.43.0 (0)
 -->
<!-- Title: %3 Pages: 1 -->
<svg width="5862pt" height="336pt"
 viewBox="0.00 0.00 5861.78 336.00" xmlns="http://www.w3.org/2000/svg" xmlns:xlink="http://www.w3.org/1999/xlink">
<g id="graph0" class="graph" transform="scale(1 1) rotate(0) translate(4 332)">
<title>%3</title>
<polygon fill="white" stroke="transparent" points="-4,4 -4,-332 5857.78,-332 5857.78,4 -4,4"/>
<g id="clust1" class="cluster">
<title>cluster_AccumulatedProtonCharge</title>
<polygon fill="#f0f0ff" stroke="#f0f0ff" points="2854.69,-122 2854.69,-228 3188.69,-228 3188.69,-122 2854.69,-122"/>
</g>
<g id="clust6" class="cluster">
<title>cluster_DspacingData</title>
<polygon fill="#f0f0ff" stroke="#f0f0ff" points="4220.84,-122 4220.84,-228 4462.84,-228 4462.84,-122 4220.84,-122"/>
</g>
<g id="clust8" class="cluster">
<title>cluster_Filename</title>
<polygon fill="#f0f0ff" stroke="#f0f0ff" points="8,-122 8,-228 216,-228 216,-122 8,-122"/>
</g>
<g id="clust9" class="cluster">
<title>cluster_FilteredData</title>
<polygon fill="#f0f0ff" stroke="#f0f0ff" points="2905.19,-8 2905.19,-114 3138.19,-114 3138.19,-8 2905.19,-8"/>
</g>
<g id="clust10" class="cluster">
<title>cluster_FocussedData</title>
<polygon fill="#f0f0ff" stroke="#f0f0ff" points="4694.32,-122 4694.32,-228 4936.32,-228 4936.32,-122 4694.32,-122"/>
</g>
<g id="clust11" class="cluster">
<title>cluster_NormalizedByProtonCharge</title>
<polygon fill="#f0f0ff" stroke="#f0f0ff" points="3531.96,-122 3531.96,-228 3874.96,-228 3874.96,-122 3531.96,-122"/>
</g>
<g id="clust14" class="cluster">
<title>cluster_RawDataAndMetadata</title>
<polygon fill="#f0f0ff" stroke="#f0f0ff" points="395.49,-122 395.49,-228 698.49,-228 698.49,-122 395.49,-122"/>
</g>
<g id="clust16" class="cluster">
<title>cluster_RawData</title>
<polygon fill="#f0f0ff" stroke="#f0f0ff" points="1562.75,-122 1562.75,-228 1769.75,-228 1769.75,-122 1562.75,-122"/>
</g>
<g id="clust17" class="cluster">
<title>cluster_TofCroppedData</title>
<polygon fill="#f0f0ff" stroke="#f0f0ff" points="2183.22,-9 2183.22,-115 2441.22,-115 2441.22,-9 2183.22,-9"/>
</g>
<!-- extract_accumulated_proton_charge_AccumulatedProtonCharge[SampleRun] -->
<g id="node1" class="node">
<title>extract_accumulated_proton_charge_AccumulatedProtonCharge[SampleRun]</title>
<ellipse fill="none" stroke="black" cx="2647.95" cy="-202" rx="178.97" ry="18"/>
<text text-anchor="middle" x="2647.95" y="-198.3" font-family="Times,serif" font-size="14.00">extract_accumulated_proton_charge</text>
</g>
<!-- AccumulatedProtonCharge[SampleRun] -->
<g id="node3" class="node">
<title>AccumulatedProtonCharge[SampleRun]</title>
<polygon fill="none" stroke="black" points="3172.19,-220 2871.19,-220 2871.19,-184 3172.19,-184 3172.19,-220"/>
<text text-anchor="middle" x="3021.69" y="-198.3" font-family="Times,serif" font-size="14.00">AccumulatedProtonCharge[SampleRun]</text>
</g>
<!-- extract_accumulated_proton_charge_AccumulatedProtonCharge[SampleRun]&#45;&gt;AccumulatedProtonCharge[SampleRun] -->
<g id="edge2" class="edge">
<title>extract_accumulated_proton_charge_AccumulatedProtonCharge[SampleRun]&#45;&gt;AccumulatedProtonCharge[SampleRun]</title>
<path fill="none" stroke="black" d="M2826.93,-202C2838.21,-202 2849.53,-202 2860.72,-202"/>
<polygon fill="black" stroke="black" points="2860.95,-205.5 2870.95,-202 2860.95,-198.5 2860.95,-205.5"/>
</g>
<!-- RawData[SampleRun] -->
<g id="node2" class="node">
<title>RawData[SampleRun]</title>
<polygon fill="none" stroke="black" points="1752.75,-220 1579.75,-220 1579.75,-184 1752.75,-184 1752.75,-220"/>
<text text-anchor="middle" x="1666.25" y="-198.3" font-family="Times,serif" font-size="14.00">RawData[SampleRun]</text>
</g>
<!-- RawData[SampleRun]&#45;&gt;extract_accumulated_proton_charge_AccumulatedProtonCharge[SampleRun] -->
<g id="edge1" class="edge">
<title>RawData[SampleRun]&#45;&gt;extract_accumulated_proton_charge_AccumulatedProtonCharge[SampleRun]</title>
<path fill="none" stroke="black" d="M1752.91,-202C1909.75,-202 2246.46,-202 2458.96,-202"/>
<polygon fill="black" stroke="black" points="2458.98,-205.5 2468.98,-202 2458.98,-198.5 2458.98,-205.5"/>
</g>
<!-- crop_tof_TofCroppedData[SampleRun] -->
<g id="node47" class="node">
<title>crop_tof_TofCroppedData[SampleRun]</title>
<ellipse fill="none" stroke="black" cx="1976.48" cy="-92" rx="48.19" ry="18"/>
<text text-anchor="middle" x="1976.48" y="-88.3" font-family="Times,serif" font-size="14.00">crop_tof</text>
</g>
<!-- RawData[SampleRun]&#45;&gt;crop_tof_TofCroppedData[SampleRun] -->
<g id="edge49" class="edge">
<title>RawData[SampleRun]&#45;&gt;crop_tof_TofCroppedData[SampleRun]</title>
<path fill="none" stroke="black" d="M1752.78,-185.62C1758.83,-182.65 1764.58,-179.14 1769.75,-175 1790.86,-158.11 1775.86,-136.86 1797.75,-121 1832.58,-95.76 1881.3,-89.27 1918.92,-88.67"/>
<polygon fill="black" stroke="black" points="1919.23,-92.17 1929.22,-88.65 1919.21,-85.17 1919.23,-92.17"/>
</g>
<!-- normalize_by_proton_charge_NormalizedByProtonCharge[SampleRun] -->
<g id="node36" class="node">
<title>normalize_by_proton_charge_NormalizedByProtonCharge[SampleRun]</title>
<ellipse fill="none" stroke="black" cx="3360.32" cy="-202" rx="143.77" ry="18"/>
<text text-anchor="middle" x="3360.32" y="-198.3" font-family="Times,serif" font-size="14.00">normalize_by_proton_charge</text>
</g>
<!-- AccumulatedProtonCharge[SampleRun]&#45;&gt;normalize_by_proton_charge_NormalizedByProtonCharge[SampleRun] -->
<g id="edge28" class="edge">
<title>AccumulatedProtonCharge[SampleRun]&#45;&gt;normalize_by_proton_charge_NormalizedByProtonCharge[SampleRun]</title>
<path fill="none" stroke="black" d="M3172.3,-202C3183.71,-202 3195.23,-202 3206.66,-202"/>
<polygon fill="black" stroke="black" points="3206.67,-205.5 3216.67,-202 3206.67,-198.5 3206.67,-205.5"/>
</g>
<!-- extract_accumulated_proton_charge_AccumulatedProtonCharge[VanadiumRun] -->
<g id="node4" class="node">
<title>extract_accumulated_proton_charge_AccumulatedProtonCharge[VanadiumRun]</title>
<ellipse fill="none" stroke="black" cx="1976.48" cy="-148" rx="178.97" ry="18"/>
<text text-anchor="middle" x="1976.48" y="-144.3" font-family="Times,serif" font-size="14.00">extract_accumulated_proton_charge</text>
</g>
<!-- AccumulatedProtonCharge[VanadiumRun] -->
<g id="node6" class="node">
<title>AccumulatedProtonCharge[VanadiumRun]</title>
<polygon fill="none" stroke="black" points="3180.69,-166 2862.69,-166 2862.69,-130 3180.69,-130 3180.69,-166"/>
<text text-anchor="middle" x="3021.69" y="-144.3" font-family="Times,serif" font-size="14.00">AccumulatedProtonCharge[VanadiumRun]</text>
</g>
<!-- extract_accumulated_proton_charge_AccumulatedProtonCharge[VanadiumRun]&#45;&gt;AccumulatedProtonCharge[VanadiumRun] -->
<g id="edge4" class="edge">
<title>extract_accumulated_proton_charge_AccumulatedProtonCharge[VanadiumRun]&#45;&gt;AccumulatedProtonCharge[VanadiumRun]</title>
<path fill="none" stroke="black" d="M2155.34,-148C2350.38,-148 2661.01,-148 2852.24,-148"/>
<polygon fill="black" stroke="black" points="2852.39,-151.5 2862.39,-148 2852.39,-144.5 2852.39,-151.5"/>
</g>
<!-- RawData[VanadiumRun] -->
<g id="node5" class="node">
<title>RawData[VanadiumRun]</title>
<polygon fill="none" stroke="black" points="1761.75,-166 1570.75,-166 1570.75,-130 1761.75,-130 1761.75,-166"/>
<text text-anchor="middle" x="1666.25" y="-144.3" font-family="Times,serif" font-size="14.00">RawData[VanadiumRun]</text>
</g>
<!-- RawData[VanadiumRun]&#45;&gt;extract_accumulated_proton_charge_AccumulatedProtonCharge[VanadiumRun] -->
<g id="edge3" class="edge">
<title>RawData[VanadiumRun]&#45;&gt;extract_accumulated_proton_charge_AccumulatedProtonCharge[VanadiumRun]</title>
<path fill="none" stroke="black" d="M1761.82,-148C1770.09,-148 1778.63,-148 1787.32,-148"/>
<polygon fill="black" stroke="black" points="1787.58,-151.5 1797.58,-148 1787.58,-144.5 1787.58,-151.5"/>
</g>
<!-- crop_tof_TofCroppedData[VanadiumRun] -->
<g id="node49" class="node">
<title>crop_tof_TofCroppedData[VanadiumRun]</title>
<ellipse fill="none" stroke="black" cx="1976.48" cy="-38" rx="48.19" ry="18"/>
<text text-anchor="middle" x="1976.48" y="-34.3" font-family="Times,serif" font-size="14.00">crop_tof</text>
</g>
<!-- RawData[VanadiumRun]&#45;&gt;crop_tof_TofCroppedData[VanadiumRun] -->
<g id="edge52" class="edge">
<title>RawData[VanadiumRun]&#45;&gt;crop_tof_TofCroppedData[VanadiumRun]</title>
<path fill="none" stroke="black" d="M1706.2,-129.82C1726,-119.83 1749.98,-106.53 1769.75,-92 1783.68,-81.76 1782.25,-72.66 1797.75,-65 1835.06,-46.56 1881.72,-40.01 1917.87,-37.96"/>
<polygon fill="black" stroke="black" points="1918.42,-41.44 1928.25,-37.47 1918.1,-34.44 1918.42,-41.44"/>
</g>
<!-- normalize_by_proton_charge_NormalizedByProtonCharge[VanadiumRun] -->
<g id="node37" class="node">
<title>normalize_by_proton_charge_NormalizedByProtonCharge[VanadiumRun]</title>
<ellipse fill="none" stroke="black" cx="3360.32" cy="-148" rx="143.77" ry="18"/>
<text text-anchor="middle" x="3360.32" y="-144.3" font-family="Times,serif" font-size="14.00">normalize_by_proton_charge</text>
</g>
<!-- AccumulatedProtonCharge[VanadiumRun]&#45;&gt;normalize_by_proton_charge_NormalizedByProtonCharge[VanadiumRun] -->
<g id="edge31" class="edge">
<title>AccumulatedProtonCharge[VanadiumRun]&#45;&gt;normalize_by_proton_charge_NormalizedByProtonCharge[VanadiumRun]</title>
<path fill="none" stroke="black" d="M3181.15,-148C3189.57,-148 3198.03,-148 3206.44,-148"/>
<polygon fill="black" stroke="black" points="3206.66,-151.5 3216.66,-148 3206.66,-144.5 3206.66,-151.5"/>
</g>
<!-- preprocess_calibration_data_CalibrationData -->
<g id="node7" class="node">
<title>preprocess_calibration_data_CalibrationData</title>
<ellipse fill="none" stroke="black" cx="3360.32" cy="-256" rx="141.07" ry="18"/>
<text text-anchor="middle" x="3360.32" y="-252.3" font-family="Times,serif" font-size="14.00">preprocess_calibration_data</text>
</g>
<!-- CalibrationData -->
<g id="node10" class="node">
<title>CalibrationData</title>
<polygon fill="none" stroke="black" points="3768.46,-274 3638.46,-274 3638.46,-238 3768.46,-238 3768.46,-274"/>
<text text-anchor="middle" x="3703.46" y="-252.3" font-family="Times,serif" font-size="14.00">CalibrationData</text>
</g>
<!-- preprocess_calibration_data_CalibrationData&#45;&gt;CalibrationData -->
<g id="edge7" class="edge">
<title>preprocess_calibration_data_CalibrationData&#45;&gt;CalibrationData</title>
<path fill="none" stroke="black" d="M3501.55,-256C3544.89,-256 3590.93,-256 3627.99,-256"/>
<polygon fill="black" stroke="black" points="3628.19,-259.5 3638.19,-256 3628.19,-252.5 3628.19,-259.5"/>
</g>
<!-- RawCalibrationData -->
<g id="node8" class="node">
<title>RawCalibrationData</title>
<polygon fill="none" stroke="black" points="3102.19,-328 2941.19,-328 2941.19,-292 3102.19,-292 3102.19,-328"/>
<text text-anchor="middle" x="3021.69" y="-306.3" font-family="Times,serif" font-size="14.00">RawCalibrationData</text>
</g>
<!-- RawCalibrationData&#45;&gt;preprocess_calibration_data_CalibrationData -->
<g id="edge5" class="edge">
<title>RawCalibrationData&#45;&gt;preprocess_calibration_data_CalibrationData</title>
<path fill="none" stroke="black" d="M3102.46,-297.2C3150.22,-289.54 3211.27,-279.75 3261.87,-271.63"/>
<polygon fill="black" stroke="black" points="3262.52,-275.07 3271.84,-270.03 3261.42,-268.16 3262.52,-275.07"/>
</g>
<!-- DetectorInfo -->
<g id="node9" class="node">
<title>DetectorInfo</title>
<polygon fill="none" stroke="black" points="3075.19,-274 2968.19,-274 2968.19,-238 3075.19,-238 3075.19,-274"/>
<text text-anchor="middle" x="3021.69" y="-252.3" font-family="Times,serif" font-size="14.00">DetectorInfo</text>
</g>
<!-- DetectorInfo&#45;&gt;preprocess_calibration_data_CalibrationData -->
<g id="edge6" class="edge">
<title>DetectorInfo&#45;&gt;preprocess_calibration_data_CalibrationData</title>
<path fill="none" stroke="black" d="M3075.29,-256C3111.37,-256 3161.2,-256 3209.06,-256"/>
<polygon fill="black" stroke="black" points="3209.24,-259.5 3219.24,-256 3209.24,-252.5 3209.24,-259.5"/>
</g>
<!-- to_dspacing_with_calibration_DspacingData[SampleRun] -->
<g id="node15" class="node">
<title>to_dspacing_with_calibration_DspacingData[SampleRun]</title>
<ellipse fill="none" stroke="black" cx="4047.9" cy="-202" rx="144.87" ry="18"/>
<text text-anchor="middle" x="4047.9" y="-198.3" font-family="Times,serif" font-size="14.00">to_dspacing_with_calibration</text>
</g>
<!-- CalibrationData&#45;&gt;to_dspacing_with_calibration_DspacingData[SampleRun] -->
<g id="edge11" class="edge">
<title>CalibrationData&#45;&gt;to_dspacing_with_calibration_DspacingData[SampleRun]</title>
<path fill="none" stroke="black" d="M3768.5,-247.49C3800.51,-243.11 3839.82,-237.54 3874.96,-232 3900.99,-227.9 3929.17,-223.12 3955.04,-218.6"/>
<polygon fill="black" stroke="black" points="3955.97,-221.99 3965.21,-216.82 3954.76,-215.1 3955.97,-221.99"/>
</g>
<!-- to_dspacing_with_calibration_DspacingData[VanadiumRun] -->
<g id="node18" class="node">
<title>to_dspacing_with_calibration_DspacingData[VanadiumRun]</title>
<ellipse fill="none" stroke="black" cx="4047.9" cy="-148" rx="144.87" ry="18"/>
<text text-anchor="middle" x="4047.9" y="-144.3" font-family="Times,serif" font-size="14.00">to_dspacing_with_calibration</text>
</g>
<!-- CalibrationData&#45;&gt;to_dspacing_with_calibration_DspacingData[VanadiumRun] -->
<g id="edge14" class="edge">
<title>CalibrationData&#45;&gt;to_dspacing_with_calibration_DspacingData[VanadiumRun]</title>
<path fill="none" stroke="black" d="M3768.53,-260.81C3803.01,-260.21 3844.58,-254.01 3874.96,-232 3897.82,-215.44 3880.49,-192.08 3902.96,-175 3909.22,-170.24 3916.07,-166.24 3923.28,-162.88"/>
<polygon fill="black" stroke="black" points="3924.73,-166.07 3932.58,-158.96 3922.01,-159.62 3924.73,-166.07"/>
</g>
<!-- CalibrationFilename -->
<g id="node11" class="node">
<title>CalibrationFilename</title>
<polygon fill="none" stroke="black" points="2393.22,-328 2231.22,-328 2231.22,-292 2393.22,-292 2393.22,-328"/>
<text text-anchor="middle" x="2312.22" y="-306.3" font-family="Times,serif" font-size="14.00">CalibrationFilename</text>
</g>
<!-- pooch_load_calibration_RawCalibrationData -->
<g id="node39" class="node">
<title>pooch_load_calibration_RawCalibrationData</title>
<ellipse fill="none" stroke="black" cx="2647.95" cy="-310" rx="116.18" ry="18"/>
<text text-anchor="middle" x="2647.95" y="-306.3" font-family="Times,serif" font-size="14.00">pooch_load_calibration</text>
</g>
<!-- CalibrationFilename&#45;&gt;pooch_load_calibration_RawCalibrationData -->
<g id="edge37" class="edge">
<title>CalibrationFilename&#45;&gt;pooch_load_calibration_RawCalibrationData</title>
<path fill="none" stroke="black" d="M2393.58,-310C2431.79,-310 2478.37,-310 2521.12,-310"/>
<polygon fill="black" stroke="black" points="2521.32,-313.5 2531.32,-310 2521.32,-306.5 2521.32,-313.5"/>
</g>
<!-- DSpacingBins -->
<g id="node12" class="node">
<title>DSpacingBins</title>
<polygon fill="none" stroke="black" points="4873.32,-274 4757.32,-274 4757.32,-238 4873.32,-238 4873.32,-274"/>
<text text-anchor="middle" x="4815.32" y="-252.3" font-family="Times,serif" font-size="14.00">DSpacingBins</text>
</g>
<!-- finalize_histogram_DspacingHistogram -->
<g id="node21" class="node">
<title>finalize_histogram_DspacingHistogram</title>
<ellipse fill="none" stroke="black" cx="5564.24" cy="-231" rx="95.58" ry="18"/>
<text text-anchor="middle" x="5564.24" y="-227.3" font-family="Times,serif" font-size="14.00">finalize_histogram</text>
</g>
<!-- DSpacingBins&#45;&gt;finalize_histogram_DspacingHistogram -->
<g id="edge17" class="edge">
<title>DSpacingBins&#45;&gt;finalize_histogram_DspacingHistogram</title>
<path fill="none" stroke="black" d="M4873.38,-254.09C4998.77,-249.89 5299.83,-239.82 5459.59,-234.47"/>
<polygon fill="black" stroke="black" points="5460.03,-237.96 5469.9,-234.12 5459.79,-230.96 5460.03,-237.96"/>
</g>
<!-- normalize_by_vanadium_NormalizedByVanadium -->
<g id="node38" class="node">
<title>normalize_by_vanadium_NormalizedByVanadium</title>
<ellipse fill="none" stroke="black" cx="5086.51" cy="-206" rx="122.38" ry="18"/>
<text text-anchor="middle" x="5086.51" y="-202.3" font-family="Times,serif" font-size="14.00">normalize_by_vanadium</text>
</g>
<!-- DSpacingBins&#45;&gt;normalize_by_vanadium_NormalizedByVanadium -->
<g id="edge35" class="edge">
<title>DSpacingBins&#45;&gt;normalize_by_vanadium_NormalizedByVanadium</title>
<path fill="none" stroke="black" d="M4873.41,-245.4C4910.12,-238.58 4958.51,-229.59 4999.79,-221.92"/>
<polygon fill="black" stroke="black" points="5000.65,-225.32 5009.85,-220.05 4999.38,-218.44 5000.65,-225.32"/>
</g>
<!-- extract_detector_info_DetectorInfo -->
<g id="node13" class="node">
<title>extract_detector_info_DetectorInfo</title>
<ellipse fill="none" stroke="black" cx="2647.95" cy="-256" rx="109.38" ry="18"/>
<text text-anchor="middle" x="2647.95" y="-252.3" font-family="Times,serif" font-size="14.00">extract_detector_info</text>
</g>
<!-- extract_detector_info_DetectorInfo&#45;&gt;DetectorInfo -->
<g id="edge9" class="edge">
<title>extract_detector_info_DetectorInfo&#45;&gt;DetectorInfo</title>
<path fill="none" stroke="black" d="M2757.47,-256C2822.6,-256 2903.15,-256 2957.87,-256"/>
<polygon fill="black" stroke="black" points="2958.12,-259.5 2968.12,-256 2958.12,-252.5 2958.12,-259.5"/>
</g>
<!-- RawDataAndMetadata[SampleRun] -->
<g id="node14" class="node">
<title>RawDataAndMetadata[SampleRun]</title>
<polygon fill="none" stroke="black" points="681.49,-220 412.49,-220 412.49,-184 681.49,-184 681.49,-220"/>
<text text-anchor="middle" x="546.99" y="-198.3" font-family="Times,serif" font-size="14.00">RawDataAndMetadata[SampleRun]</text>
</g>
<!-- RawDataAndMetadata[SampleRun]&#45;&gt;extract_detector_info_DetectorInfo -->
<g id="edge8" class="edge">
<title>RawDataAndMetadata[SampleRun]&#45;&gt;extract_detector_info_DetectorInfo</title>
<path fill="none" stroke="black" d="M655.37,-220.03C678.76,-223.45 703.41,-226.69 726.49,-229 931.17,-249.52 983.05,-252 1188.76,-252 1188.76,-252 1188.76,-252 1977.48,-252 2170.48,-252 2394.77,-253.68 2528.56,-254.87"/>
<polygon fill="black" stroke="black" points="2528.8,-258.37 2538.83,-254.96 2528.86,-251.37 2528.8,-258.37"/>
</g>
<!-- extract_raw_data_sample_RawData[SampleRun] -->
<g id="node45" class="node">
<title>extract_raw_data_sample_RawData[SampleRun]</title>
<ellipse fill="none" stroke="black" cx="866.88" cy="-202" rx="128.08" ry="18"/>
<text text-anchor="middle" x="866.88" y="-198.3" font-family="Times,serif" font-size="14.00">extract_raw_data_sample</text>
</g>
<!-- RawDataAndMetadata[SampleRun]&#45;&gt;extract_raw_data_sample_RawData[SampleRun] -->
<g id="edge45" class="edge">
<title>RawDataAndMetadata[SampleRun]&#45;&gt;extract_raw_data_sample_RawData[SampleRun]</title>
<path fill="none" stroke="black" d="M681.88,-202C697.33,-202 713.11,-202 728.6,-202"/>
<polygon fill="black" stroke="black" points="728.73,-205.5 738.73,-202 728.73,-198.5 728.73,-205.5"/>
</g>
<!-- DspacingData[SampleRun] -->
<g id="node17" class="node">
<title>DspacingData[SampleRun]</title>
<polygon fill="none" stroke="black" points="4446.34,-220 4237.34,-220 4237.34,-184 4446.34,-184 4446.34,-220"/>
<text text-anchor="middle" x="4341.84" y="-198.3" font-family="Times,serif" font-size="14.00">DspacingData[SampleRun]</text>
</g>
<!-- to_dspacing_with_calibration_DspacingData[SampleRun]&#45;&gt;DspacingData[SampleRun] -->
<g id="edge12" class="edge">
<title>to_dspacing_with_calibration_DspacingData[SampleRun]&#45;&gt;DspacingData[SampleRun]</title>
<path fill="none" stroke="black" d="M4193.16,-202C4204.48,-202 4215.83,-202 4226.91,-202"/>
<polygon fill="black" stroke="black" points="4227.01,-205.5 4237.01,-202 4227.01,-198.5 4227.01,-205.5"/>
</g>
<!-- NormalizedByProtonCharge[SampleRun] -->
<g id="node16" class="node">
<title>NormalizedByProtonCharge[SampleRun]</title>
<polygon fill="none" stroke="black" points="3858.46,-220 3548.46,-220 3548.46,-184 3858.46,-184 3858.46,-220"/>
<text text-anchor="middle" x="3703.46" y="-198.3" font-family="Times,serif" font-size="14.00">NormalizedByProtonCharge[SampleRun]</text>
</g>
<!-- NormalizedByProtonCharge[SampleRun]&#45;&gt;to_dspacing_with_calibration_DspacingData[SampleRun] -->
<g id="edge10" class="edge">
<title>NormalizedByProtonCharge[SampleRun]&#45;&gt;to_dspacing_with_calibration_DspacingData[SampleRun]</title>
<path fill="none" stroke="black" d="M3858.65,-202C3869.93,-202 3881.31,-202 3892.59,-202"/>
<polygon fill="black" stroke="black" points="3892.92,-205.5 3902.92,-202 3892.92,-198.5 3892.92,-205.5"/>
</g>
<!-- merge_all_pixels_FocussedData[SampleRun] -->
<g id="node32" class="node">
<title>merge_all_pixels_FocussedData[SampleRun]</title>
<ellipse fill="none" stroke="black" cx="4578.58" cy="-202" rx="87.99" ry="18"/>
<text text-anchor="middle" x="4578.58" y="-198.3" font-family="Times,serif" font-size="14.00">merge_all_pixels</text>
</g>
<!-- DspacingData[SampleRun]&#45;&gt;merge_all_pixels_FocussedData[SampleRun] -->
<g id="edge23" class="edge">
<title>DspacingData[SampleRun]&#45;&gt;merge_all_pixels_FocussedData[SampleRun]</title>
<path fill="none" stroke="black" d="M4446.48,-202C4457.76,-202 4469.22,-202 4480.42,-202"/>
<polygon fill="black" stroke="black" points="4480.63,-205.5 4490.63,-202 4480.63,-198.5 4480.63,-205.5"/>
</g>
<!-- DspacingData[VanadiumRun] -->
<g id="node20" class="node">
<title>DspacingData[VanadiumRun]</title>
<polygon fill="none" stroke="black" points="4454.84,-166 4228.84,-166 4228.84,-130 4454.84,-130 4454.84,-166"/>
<text text-anchor="middle" x="4341.84" y="-144.3" font-family="Times,serif" font-size="14.00">DspacingData[VanadiumRun]</text>
</g>
<!-- to_dspacing_with_calibration_DspacingData[VanadiumRun]&#45;&gt;DspacingData[VanadiumRun] -->
<g id="edge15" class="edge">
<title>to_dspacing_with_calibration_DspacingData[VanadiumRun]&#45;&gt;DspacingData[VanadiumRun]</title>
<path fill="none" stroke="black" d="M4193.16,-148C4201.63,-148 4210.12,-148 4218.49,-148"/>
<polygon fill="black" stroke="black" points="4218.65,-151.5 4228.65,-148 4218.65,-144.5 4218.65,-151.5"/>
</g>
<!-- NormalizedByProtonCharge[VanadiumRun] -->
<g id="node19" class="node">
<title>NormalizedByProtonCharge[VanadiumRun]</title>
<polygon fill="none" stroke="black" points="3866.96,-166 3539.96,-166 3539.96,-130 3866.96,-130 3866.96,-166"/>
<text text-anchor="middle" x="3703.46" y="-144.3" font-family="Times,serif" font-size="14.00">NormalizedByProtonCharge[VanadiumRun]</text>
</g>
<!-- NormalizedByProtonCharge[VanadiumRun]&#45;&gt;to_dspacing_with_calibration_DspacingData[VanadiumRun] -->
<g id="edge13" class="edge">
<title>NormalizedByProtonCharge[VanadiumRun]&#45;&gt;to_dspacing_with_calibration_DspacingData[VanadiumRun]</title>
<path fill="none" stroke="black" d="M3867.16,-148C3875.62,-148 3884.11,-148 3892.55,-148"/>
<polygon fill="black" stroke="black" points="3892.81,-151.5 3902.81,-148 3892.81,-144.5 3892.81,-151.5"/>
</g>
<!-- merge_all_pixels_FocussedData[VanadiumRun] -->
<g id="node34" class="node">
<title>merge_all_pixels_FocussedData[VanadiumRun]</title>
<ellipse fill="none" stroke="black" cx="4578.58" cy="-148" rx="87.99" ry="18"/>
<text text-anchor="middle" x="4578.58" y="-144.3" font-family="Times,serif" font-size="14.00">merge_all_pixels</text>
</g>
<!-- DspacingData[VanadiumRun]&#45;&gt;merge_all_pixels_FocussedData[VanadiumRun] -->
<g id="edge25" class="edge">
<title>DspacingData[VanadiumRun]&#45;&gt;merge_all_pixels_FocussedData[VanadiumRun]</title>
<path fill="none" stroke="black" d="M4455.05,-148C4463.6,-148 4472.18,-148 4480.62,-148"/>
<polygon fill="black" stroke="black" points="4480.83,-151.5 4490.83,-148 4480.83,-144.5 4480.83,-151.5"/>
</g>
<!-- DspacingHistogram -->
<g id="node23" class="node">
<title>DspacingHistogram</title>
<polygon fill="none" stroke="black" points="5853.78,-249 5695.78,-249 5695.78,-213 5853.78,-213 5853.78,-249"/>
<text text-anchor="middle" x="5774.78" y="-227.3" font-family="Times,serif" font-size="14.00">DspacingHistogram</text>
</g>
<!-- finalize_histogram_DspacingHistogram&#45;&gt;DspacingHistogram -->
<g id="edge18" class="edge">
<title>finalize_histogram_DspacingHistogram&#45;&gt;DspacingHistogram</title>
<path fill="none" stroke="black" d="M5660.05,-231C5668.54,-231 5677.12,-231 5685.55,-231"/>
<polygon fill="black" stroke="black" points="5685.75,-234.5 5695.75,-231 5685.75,-227.5 5685.75,-234.5"/>
</g>
<!-- NormalizedByVanadium -->
<g id="node22" class="node">
<title>NormalizedByVanadium</title>
<polygon fill="none" stroke="black" points="5432.7,-226 5244.7,-226 5244.7,-190 5432.7,-190 5432.7,-226"/>
<text text-anchor="middle" x="5338.7" y="-204.3" font-family="Times,serif" font-size="14.00">NormalizedByVanadium</text>
</g>
<!-- NormalizedByVanadium&#45;&gt;finalize_histogram_DspacingHistogram -->
<g id="edge16" class="edge">
<title>NormalizedByVanadium&#45;&gt;finalize_histogram_DspacingHistogram</title>
<path fill="none" stroke="black" d="M5432.88,-217.59C5445.05,-218.84 5457.52,-220.12 5469.69,-221.37"/>
<polygon fill="black" stroke="black" points="5469.53,-224.88 5479.83,-222.42 5470.24,-217.91 5469.53,-224.88"/>
</g>
<!-- Filename[SampleRun] -->
<g id="node24" class="node">
<title>Filename[SampleRun]</title>
<polygon fill="none" stroke="black" points="199.5,-220 24.5,-220 24.5,-184 199.5,-184 199.5,-220"/>
<text text-anchor="middle" x="112" y="-198.3" font-family="Times,serif" font-size="14.00">Filename[SampleRun]</text>
</g>
<!-- pooch_load_RawDataAndMetadata[SampleRun] -->
<g id="node40" class="node">
<title>pooch_load_RawDataAndMetadata[SampleRun]</title>
<ellipse fill="none" stroke="black" cx="305.74" cy="-202" rx="61.99" ry="18"/>
<text text-anchor="middle" x="305.74" y="-198.3" font-family="Times,serif" font-size="14.00">pooch_load</text>
</g>
<!-- Filename[SampleRun]&#45;&gt;pooch_load_RawDataAndMetadata[SampleRun] -->
<g id="edge39" class="edge">
<title>Filename[SampleRun]&#45;&gt;pooch_load_RawDataAndMetadata[SampleRun]</title>
<path fill="none" stroke="black" d="M199.62,-202C211.01,-202 222.59,-202 233.69,-202"/>
<polygon fill="black" stroke="black" points="233.72,-205.5 243.72,-202 233.72,-198.5 233.72,-205.5"/>
</g>
<!-- Filename[VanadiumRun] -->
<g id="node25" class="node">
<title>Filename[VanadiumRun]</title>
<polygon fill="none" stroke="black" points="208,-166 16,-166 16,-130 208,-130 208,-166"/>
<text text-anchor="middle" x="112" y="-144.3" font-family="Times,serif" font-size="14.00">Filename[VanadiumRun]</text>
</g>
<!-- pooch_load_RawDataAndMetadata[VanadiumRun] -->
<g id="node41" class="node">
<title>pooch_load_RawDataAndMetadata[VanadiumRun]</title>
<ellipse fill="none" stroke="black" cx="305.74" cy="-148" rx="61.99" ry="18"/>
<text text-anchor="middle" x="305.74" y="-144.3" font-family="Times,serif" font-size="14.00">pooch_load</text>
</g>
<!-- Filename[VanadiumRun]&#45;&gt;pooch_load_RawDataAndMetadata[VanadiumRun] -->
<g id="edge41" class="edge">
<title>Filename[VanadiumRun]&#45;&gt;pooch_load_RawDataAndMetadata[VanadiumRun]</title>
<path fill="none" stroke="black" d="M208.03,-148C216.67,-148 225.31,-148 233.69,-148"/>
<polygon fill="black" stroke="black" points="233.75,-151.5 243.75,-148 233.75,-144.5 233.75,-151.5"/>
</g>
<!-- filter_events_FilteredData[SampleRun] -->
<g id="node26" class="node">
<title>filter_events_FilteredData[SampleRun]</title>
<ellipse fill="none" stroke="black" cx="2647.95" cy="-89" rx="68.49" ry="18"/>
<text text-anchor="middle" x="2647.95" y="-85.3" font-family="Times,serif" font-size="14.00">filter_events</text>
</g>
<!-- FilteredData[SampleRun] -->
<g id="node28" class="node">
<title>FilteredData[SampleRun]</title>
<polygon fill="none" stroke="black" points="3121.69,-106 2921.69,-106 2921.69,-70 3121.69,-70 3121.69,-106"/>
<text text-anchor="middle" x="3021.69" y="-84.3" font-family="Times,serif" font-size="14.00">FilteredData[SampleRun]</text>
</g>
<!-- filter_events_FilteredData[SampleRun]&#45;&gt;FilteredData[SampleRun] -->
<g id="edge20" class="edge">
<title>filter_events_FilteredData[SampleRun]&#45;&gt;FilteredData[SampleRun]</title>
<path fill="none" stroke="black" d="M2716.27,-88.82C2770.69,-88.67 2848.37,-88.46 2911.64,-88.29"/>
<polygon fill="black" stroke="black" points="2911.68,-91.79 2921.67,-88.27 2911.66,-84.79 2911.68,-91.79"/>
</g>
<!-- TofCroppedData[SampleRun] -->
<g id="node27" class="node">
<title>TofCroppedData[SampleRun]</title>
<polygon fill="none" stroke="black" points="2424.72,-107 2199.72,-107 2199.72,-71 2424.72,-71 2424.72,-107"/>
<text text-anchor="middle" x="2312.22" y="-85.3" font-family="Times,serif" font-size="14.00">TofCroppedData[SampleRun]</text>
</g>
<!-- TofCroppedData[SampleRun]&#45;&gt;filter_events_FilteredData[SampleRun] -->
<g id="edge19" class="edge">
<title>TofCroppedData[SampleRun]&#45;&gt;filter_events_FilteredData[SampleRun]</title>
<path fill="none" stroke="black" d="M2424.81,-89C2472.18,-89 2526.24,-89 2569.17,-89"/>
<polygon fill="black" stroke="black" points="2569.27,-92.5 2579.27,-89 2569.27,-85.5 2569.27,-92.5"/>
</g>
<!-- FilteredData[SampleRun]&#45;&gt;normalize_by_proton_charge_NormalizedByProtonCharge[SampleRun] -->
<g id="edge27" class="edge">
<title>FilteredData[SampleRun]&#45;&gt;normalize_by_proton_charge_NormalizedByProtonCharge[SampleRun]</title>
<path fill="none" stroke="black" d="M3121.94,-90.69C3145.6,-95.26 3169.52,-103.53 3188.69,-118 3211.22,-135 3194.23,-157.9 3216.69,-175 3222.89,-179.72 3229.68,-183.7 3236.82,-187.04"/>
<polygon fill="black" stroke="black" points="3235.46,-190.26 3246.03,-190.94 3238.19,-183.82 3235.46,-190.26"/>
</g>
<!-- filter_events_FilteredData[VanadiumRun] -->
<g id="node29" class="node">
<title>filter_events_FilteredData[VanadiumRun]</title>
<ellipse fill="none" stroke="black" cx="2647.95" cy="-35" rx="68.49" ry="18"/>
<text text-anchor="middle" x="2647.95" y="-31.3" font-family="Times,serif" font-size="14.00">filter_events</text>
</g>
<!-- FilteredData[VanadiumRun] -->
<g id="node31" class="node">
<title>FilteredData[VanadiumRun]</title>
<polygon fill="none" stroke="black" points="3130.19,-52 2913.19,-52 2913.19,-16 3130.19,-16 3130.19,-52"/>
<text text-anchor="middle" x="3021.69" y="-30.3" font-family="Times,serif" font-size="14.00">FilteredData[VanadiumRun]</text>
</g>
<!-- filter_events_FilteredData[VanadiumRun]&#45;&gt;FilteredData[VanadiumRun] -->
<g id="edge22" class="edge">
<title>filter_events_FilteredData[VanadiumRun]&#45;&gt;FilteredData[VanadiumRun]</title>
<path fill="none" stroke="black" d="M2716.27,-34.82C2768.2,-34.68 2841.31,-34.48 2902.87,-34.32"/>
<polygon fill="black" stroke="black" points="2903.05,-37.82 2913.04,-34.29 2903.03,-30.82 2903.05,-37.82"/>
</g>
<!-- TofCroppedData[VanadiumRun] -->
<g id="node30" class="node">
<title>TofCroppedData[VanadiumRun]</title>
<polygon fill="none" stroke="black" points="2433.22,-53 2191.22,-53 2191.22,-17 2433.22,-17 2433.22,-53"/>
<text text-anchor="middle" x="2312.22" y="-31.3" font-family="Times,serif" font-size="14.00">TofCroppedData[VanadiumRun]</text>
</g>
<!-- TofCroppedData[VanadiumRun]&#45;&gt;filter_events_FilteredData[VanadiumRun] -->
<g id="edge21" class="edge">
<title>TofCroppedData[VanadiumRun]&#45;&gt;filter_events_FilteredData[VanadiumRun]</title>
<path fill="none" stroke="black" d="M2433.23,-35C2478.54,-35 2528.86,-35 2569.29,-35"/>
<polygon fill="black" stroke="black" points="2569.35,-38.5 2579.35,-35 2569.35,-31.5 2569.35,-38.5"/>
</g>
<!-- FilteredData[VanadiumRun]&#45;&gt;normalize_by_proton_charge_NormalizedByProtonCharge[VanadiumRun] -->
<g id="edge30" class="edge">
<title>FilteredData[VanadiumRun]&#45;&gt;normalize_by_proton_charge_NormalizedByProtonCharge[VanadiumRun]</title>
<path fill="none" stroke="black" d="M3130.57,-46.55C3150.17,-50.23 3170.23,-54.96 3188.69,-61 3237.07,-76.84 3288.62,-104.85 3322.23,-124.81"/>
<polygon fill="black" stroke="black" points="3320.85,-128.06 3331.22,-130.21 3324.45,-122.06 3320.85,-128.06"/>
</g>
<!-- FocussedData[SampleRun] -->
<g id="node33" class="node">
<title>FocussedData[SampleRun]</title>
<polygon fill="none" stroke="black" points="4919.82,-220 4710.82,-220 4710.82,-184 4919.82,-184 4919.82,-220"/>
<text text-anchor="middle" x="4815.32" y="-198.3" font-family="Times,serif" font-size="14.00">FocussedData[SampleRun]</text>
</g>
<!-- merge_all_pixels_FocussedData[SampleRun]&#45;&gt;FocussedData[SampleRun] -->
<g id="edge24" class="edge">
<title>merge_all_pixels_FocussedData[SampleRun]&#45;&gt;FocussedData[SampleRun]</title>
<path fill="none" stroke="black" d="M4666.32,-202C4677.43,-202 4688.94,-202 4700.4,-202"/>
<polygon fill="black" stroke="black" points="4700.45,-205.5 4710.45,-202 4700.45,-198.5 4700.45,-205.5"/>
</g>
<!-- FocussedData[SampleRun]&#45;&gt;normalize_by_vanadium_NormalizedByVanadium -->
<g id="edge33" class="edge">
<title>FocussedData[SampleRun]&#45;&gt;normalize_by_vanadium_NormalizedByVanadium</title>
<path fill="none" stroke="black" d="M4920.01,-203.54C4931.35,-203.71 4943,-203.88 4954.61,-204.05"/>
<polygon fill="black" stroke="black" points="4954.75,-207.56 4964.8,-204.21 4954.85,-200.56 4954.75,-207.56"/>
</g>
<!-- FocussedData[VanadiumRun] -->
<g id="node35" class="node">
<title>FocussedData[VanadiumRun]</title>
<polygon fill="none" stroke="black" points="4928.32,-166 4702.32,-166 4702.32,-130 4928.32,-130 4928.32,-166"/>
<text text-anchor="middle" x="4815.32" y="-144.3" font-family="Times,serif" font-size="14.00">FocussedData[VanadiumRun]</text>
</g>
<!-- merge_all_pixels_FocussedData[VanadiumRun]&#45;&gt;FocussedData[VanadiumRun] -->
<g id="edge26" class="edge">
<title>merge_all_pixels_FocussedData[VanadiumRun]&#45;&gt;FocussedData[VanadiumRun]</title>
<path fill="none" stroke="black" d="M4666.32,-148C4674.67,-148 4683.25,-148 4691.87,-148"/>
<polygon fill="black" stroke="black" points="4691.98,-151.5 4701.98,-148 4691.98,-144.5 4691.98,-151.5"/>
</g>
<!-- FocussedData[VanadiumRun]&#45;&gt;normalize_by_vanadium_NormalizedByVanadium -->
<g id="edge34" class="edge">
<title>FocussedData[VanadiumRun]&#45;&gt;normalize_by_vanadium_NormalizedByVanadium</title>
<path fill="none" stroke="black" d="M4900.02,-166.03C4934.01,-173.36 4973.07,-181.77 5006.56,-188.99"/>
<polygon fill="black" stroke="black" points="5006.25,-192.5 5016.76,-191.19 5007.72,-185.66 5006.25,-192.5"/>
</g>
<!-- normalize_by_proton_charge_NormalizedByProtonCharge[SampleRun]&#45;&gt;NormalizedByProtonCharge[SampleRun] -->
<g id="edge29" class="edge">
<title>normalize_by_proton_charge_NormalizedByProtonCharge[SampleRun]&#45;&gt;NormalizedByProtonCharge[SampleRun]</title>
<path fill="none" stroke="black" d="M3504.02,-202C3515.32,-202 3526.78,-202 3538.21,-202"/>
<polygon fill="black" stroke="black" points="3538.24,-205.5 3548.24,-202 3538.24,-198.5 3538.24,-205.5"/>
</g>
<!-- normalize_by_proton_charge_NormalizedByProtonCharge[VanadiumRun]&#45;&gt;NormalizedByProtonCharge[VanadiumRun] -->
<g id="edge32" class="edge">
<title>normalize_by_proton_charge_NormalizedByProtonCharge[VanadiumRun]&#45;&gt;NormalizedByProtonCharge[VanadiumRun]</title>
<path fill="none" stroke="black" d="M3504.02,-148C3512.55,-148 3521.18,-148 3529.81,-148"/>
<polygon fill="black" stroke="black" points="3529.94,-151.5 3539.94,-148 3529.94,-144.5 3529.94,-151.5"/>
</g>
<!-- normalize_by_vanadium_NormalizedByVanadium&#45;&gt;NormalizedByVanadium -->
<g id="edge36" class="edge">
<title>normalize_by_vanadium_NormalizedByVanadium&#45;&gt;NormalizedByVanadium</title>
<path fill="none" stroke="black" d="M5208.57,-206.97C5217.17,-207.04 5225.8,-207.11 5234.29,-207.17"/>
<polygon fill="black" stroke="black" points="5234.54,-210.68 5244.57,-207.26 5234.59,-203.68 5234.54,-210.68"/>
</g>
<!-- pooch_load_calibration_RawCalibrationData&#45;&gt;RawCalibrationData -->
<g id="edge38" class="edge">
<title>pooch_load_calibration_RawCalibrationData&#45;&gt;RawCalibrationData</title>
<path fill="none" stroke="black" d="M2764.53,-310C2818.17,-310 2880.97,-310 2930.96,-310"/>
<polygon fill="black" stroke="black" points="2931.1,-313.5 2941.1,-310 2931.1,-306.5 2931.1,-313.5"/>
</g>
<!-- pooch_load_RawDataAndMetadata[SampleRun]&#45;&gt;RawDataAndMetadata[SampleRun] -->
<g id="edge40" class="edge">
<title>pooch_load_RawDataAndMetadata[SampleRun]&#45;&gt;RawDataAndMetadata[SampleRun]</title>
<path fill="none" stroke="black" d="M367.74,-202C378.55,-202 390.22,-202 402.22,-202"/>
<polygon fill="black" stroke="black" points="402.37,-205.5 412.37,-202 402.37,-198.5 402.37,-205.5"/>
</g>
<!-- RawDataAndMetadata[VanadiumRun] -->
<g id="node42" class="node">
<title>RawDataAndMetadata[VanadiumRun]</title>
<polygon fill="none" stroke="black" points="690.49,-166 403.49,-166 403.49,-130 690.49,-130 690.49,-166"/>
<text text-anchor="middle" x="546.99" y="-144.3" font-family="Times,serif" font-size="14.00">RawDataAndMetadata[VanadiumRun]</text>
</g>
<!-- pooch_load_RawDataAndMetadata[VanadiumRun]&#45;&gt;RawDataAndMetadata[VanadiumRun] -->
<g id="edge42" class="edge">
<title>pooch_load_RawDataAndMetadata[VanadiumRun]&#45;&gt;RawDataAndMetadata[VanadiumRun]</title>
<path fill="none" stroke="black" d="M367.74,-148C375.78,-148 384.3,-148 393.08,-148"/>
<polygon fill="black" stroke="black" points="393.08,-151.5 403.08,-148 393.08,-144.5 393.08,-151.5"/>
</g>
<!-- extract_raw_data_vanadium_RawDataWithVariances[VanadiumRun] -->
<g id="node43" class="node">
<title>extract_raw_data_vanadium_RawDataWithVariances[VanadiumRun]</title>
<ellipse fill="none" stroke="black" cx="866.88" cy="-148" rx="140.28" ry="18"/>
<text text-anchor="middle" x="866.88" y="-144.3" font-family="Times,serif" font-size="14.00">extract_raw_data_vanadium</text>
</g>
<!-- RawDataAndMetadata[VanadiumRun]&#45;&gt;extract_raw_data_vanadium_RawDataWithVariances[VanadiumRun] -->
<g id="edge43" class="edge">
<title>RawDataAndMetadata[VanadiumRun]&#45;&gt;extract_raw_data_vanadium_RawDataWithVariances[VanadiumRun]</title>
<path fill="none" stroke="black" d="M690.66,-148C699.2,-148 707.81,-148 716.37,-148"/>
<polygon fill="black" stroke="black" points="716.41,-151.5 726.41,-148 716.41,-144.5 716.41,-151.5"/>
</g>
<!-- RawDataWithVariances[VanadiumRun] -->
<g id="node44" class="node">
<title>RawDataWithVariances[VanadiumRun]</title>
<polygon fill="none" stroke="black" points="1336.26,-166 1043.26,-166 1043.26,-130 1336.26,-130 1336.26,-166"/>
<text text-anchor="middle" x="1189.76" y="-144.3" font-family="Times,serif" font-size="14.00">RawDataWithVariances[VanadiumRun]</text>
</g>
<!-- extract_raw_data_vanadium_RawDataWithVariances[VanadiumRun]&#45;&gt;RawDataWithVariances[VanadiumRun] -->
<g id="edge44" class="edge">
<title>extract_raw_data_vanadium_RawDataWithVariances[VanadiumRun]&#45;&gt;RawDataWithVariances[VanadiumRun]</title>
<path fill="none" stroke="black" d="M1007.69,-148C1016.03,-148 1024.45,-148 1032.86,-148"/>
<polygon fill="black" stroke="black" points="1033.1,-151.5 1043.1,-148 1033.1,-144.5 1033.1,-151.5"/>
</g>
<!-- drop_variances_RawData[VanadiumRun] -->
<g id="node46" class="node">
<title>drop_variances_RawData[VanadiumRun]</title>
<ellipse fill="none" stroke="black" cx="1453.51" cy="-148" rx="81.49" ry="18"/>
<text text-anchor="middle" x="1453.51" y="-144.3" font-family="Times,serif" font-size="14.00">drop_variances</text>
</g>
<!-- RawDataWithVariances[VanadiumRun]&#45;&gt;drop_variances_RawData[VanadiumRun] -->
<g id="edge47" class="edge">
<title>RawDataWithVariances[VanadiumRun]&#45;&gt;drop_variances_RawData[VanadiumRun]</title>
<path fill="none" stroke="black" d="M1336.56,-148C1345.24,-148 1353.83,-148 1362.18,-148"/>
<polygon fill="black" stroke="black" points="1362.22,-151.5 1372.22,-148 1362.22,-144.5 1362.22,-151.5"/>
</g>
<!-- extract_raw_data_sample_RawData[SampleRun]&#45;&gt;RawData[SampleRun] -->
<g id="edge46" class="edge">
<title>extract_raw_data_sample_RawData[SampleRun]&#45;&gt;RawData[SampleRun]</title>
<path fill="none" stroke="black" d="M995.1,-202C1155.05,-202 1426,-202 1569.48,-202"/>
<polygon fill="black" stroke="black" points="1569.59,-205.5 1579.59,-202 1569.59,-198.5 1569.59,-205.5"/>
</g>
<!-- drop_variances_RawData[VanadiumRun]&#45;&gt;RawData[VanadiumRun] -->
<g id="edge48" class="edge">
<title>drop_variances_RawData[VanadiumRun]&#45;&gt;RawData[VanadiumRun]</title>
<path fill="none" stroke="black" d="M1534.78,-148C1543.23,-148 1551.9,-148 1560.56,-148"/>
<polygon fill="black" stroke="black" points="1560.72,-151.5 1570.72,-148 1560.72,-144.5 1560.72,-151.5"/>
</g>
<!-- crop_tof_TofCroppedData[SampleRun]&#45;&gt;TofCroppedData[SampleRun] -->
<g id="edge51" class="edge">
<title>crop_tof_TofCroppedData[SampleRun]&#45;&gt;TofCroppedData[SampleRun]</title>
<path fill="none" stroke="black" d="M2024.59,-91.58C2067.31,-91.19 2132.15,-90.61 2189.36,-90.1"/>
<polygon fill="black" stroke="black" points="2189.61,-93.59 2199.57,-90 2189.54,-86.59 2189.61,-93.59"/>
</g>
<!-- ValidTofRange -->
<g id="node48" class="node">
<title>ValidTofRange</title>
<polygon fill="none" stroke="black" points="1725.75,-83 1606.75,-83 1606.75,-47 1725.75,-47 1725.75,-83"/>
<text text-anchor="middle" x="1666.25" y="-61.3" font-family="Times,serif" font-size="14.00">ValidTofRange</text>
</g>
<!-- ValidTofRange&#45;&gt;crop_tof_TofCroppedData[SampleRun] -->
<g id="edge50" class="edge">
<title>ValidTofRange&#45;&gt;crop_tof_TofCroppedData[SampleRun]</title>
<path fill="none" stroke="black" d="M1725.95,-70.14C1781.58,-75.01 1864.55,-82.28 1919.33,-87.08"/>
<polygon fill="black" stroke="black" points="1919.28,-90.59 1929.55,-87.98 1919.89,-83.62 1919.28,-90.59"/>
</g>
<!-- ValidTofRange&#45;&gt;crop_tof_TofCroppedData[VanadiumRun] -->
<g id="edge53" class="edge">
<title>ValidTofRange&#45;&gt;crop_tof_TofCroppedData[VanadiumRun]</title>
<path fill="none" stroke="black" d="M1725.95,-59.86C1781.58,-54.99 1864.55,-47.72 1919.33,-42.92"/>
<polygon fill="black" stroke="black" points="1919.89,-46.38 1929.55,-42.02 1919.28,-39.41 1919.89,-46.38"/>
</g>
<!-- crop_tof_TofCroppedData[VanadiumRun]&#45;&gt;TofCroppedData[VanadiumRun] -->
<g id="edge54" class="edge">
<title>crop_tof_TofCroppedData[VanadiumRun]&#45;&gt;TofCroppedData[VanadiumRun]</title>
<path fill="none" stroke="black" d="M2024.59,-37.58C2065.19,-37.21 2125.77,-36.67 2180.79,-36.17"/>
<polygon fill="black" stroke="black" points="2181.03,-39.67 2191,-36.08 2180.97,-32.67 2181.03,-39.67"/>
</g>
</g>
</svg>
