<?xml version="1.0" encoding="utf-8" standalone="no"?>
<!DOCTYPE svg PUBLIC "-//W3C//DTD SVG 1.1//EN"
  "http://www.w3.org/Graphics/SVG/1.1/DTD/svg11.dtd">
<svg xmlns:xlink="http://www.w3.org/1999/xlink" width="424.370625pt" height="280.025804pt" viewBox="0 0 424.370625 280.025804" xmlns="http://www.w3.org/2000/svg" version="1.1">
 <metadata>
  <rdf:RDF xmlns:dc="http://purl.org/dc/elements/1.1/" xmlns:cc="http://creativecommons.org/ns#" xmlns:rdf="http://www.w3.org/1999/02/22-rdf-syntax-ns#">
   <cc:Work>
    <dc:type rdf:resource="http://purl.org/dc/dcmitype/StillImage"/>
    <dc:date>2023-12-14T08:34:56.042574</dc:date>
    <dc:format>image/svg+xml</dc:format>
    <dc:creator>
     <cc:Agent>
      <dc:title>Matplotlib v3.8.2, https://matplotlib.org/</dc:title>
     </cc:Agent>
    </dc:creator>
   </cc:Work>
  </rdf:RDF>
 </metadata>
 <defs>
  <style type="text/css">*{stroke-linejoin: round; stroke-linecap: butt}</style>
 </defs>
 <g id="figure_1">
  <g id="patch_1">
   <path d="M 0 280.025804 
L 424.370625 280.025804 
L 424.370625 0 
L 0 0 
z
" style="fill: #ffffff"/>
  </g>
  <g id="axes_1">
   <g id="patch_2">
    <path d="M 34.240625 240.785179 
L 417.170625 240.785179 
L 417.170625 8.974428 
L 34.240625 8.974428 
z
" style="fill: #ffffff"/>
   </g>
   <g id="matplotlib.axis_1">
    <g id="xtick_1">
     <g id="line2d_1">
      <defs>
       <path id="m10ca529ef6" d="M 0 0 
L 0 3.5 
" style="stroke: #000000; stroke-width: 0.8"/>
      </defs>
      <g>
       <use xlink:href="#m10ca529ef6" x="51.646534" y="240.785179" style="stroke: #000000; stroke-width: 0.8"/>
      </g>
     </g>
     <g id="text_1">
      <!-- 0.0 -->
      <g transform="translate(43.694972 255.383616) scale(0.1 -0.1)">
       <defs>
        <path id="DejaVuSans-30" d="M 2034 4250 
Q 1547 4250 1301 3770 
Q 1056 3291 1056 2328 
Q 1056 1369 1301 889 
Q 1547 409 2034 409 
Q 2525 409 2770 889 
Q 3016 1369 3016 2328 
Q 3016 3291 2770 3770 
Q 2525 4250 2034 4250 
z
M 2034 4750 
Q 2819 4750 3233 4129 
Q 3647 3509 3647 2328 
Q 3647 1150 3233 529 
Q 2819 -91 2034 -91 
Q 1250 -91 836 529 
Q 422 1150 422 2328 
Q 422 3509 836 4129 
Q 1250 4750 2034 4750 
z
" transform="scale(0.015625)"/>
        <path id="DejaVuSans-2e" d="M 684 794 
L 1344 794 
L 1344 0 
L 684 0 
L 684 794 
z
" transform="scale(0.015625)"/>
       </defs>
       <use xlink:href="#DejaVuSans-30"/>
       <use xlink:href="#DejaVuSans-2e" x="63.623047"/>
       <use xlink:href="#DejaVuSans-30" x="95.410156"/>
      </g>
     </g>
    </g>
    <g id="xtick_2">
     <g id="line2d_2">
      <g>
       <use xlink:href="#m10ca529ef6" x="125.922838" y="240.785179" style="stroke: #000000; stroke-width: 0.8"/>
      </g>
     </g>
     <g id="text_2">
      <!-- 0.5 -->
      <g transform="translate(117.971276 255.383616) scale(0.1 -0.1)">
       <defs>
        <path id="DejaVuSans-35" d="M 691 4666 
L 3169 4666 
L 3169 4134 
L 1269 4134 
L 1269 2991 
Q 1406 3038 1543 3061 
Q 1681 3084 1819 3084 
Q 2600 3084 3056 2656 
Q 3513 2228 3513 1497 
Q 3513 744 3044 326 
Q 2575 -91 1722 -91 
Q 1428 -91 1123 -41 
Q 819 9 494 109 
L 494 744 
Q 775 591 1075 516 
Q 1375 441 1709 441 
Q 2250 441 2565 725 
Q 2881 1009 2881 1497 
Q 2881 1984 2565 2268 
Q 2250 2553 1709 2553 
Q 1456 2553 1204 2497 
Q 953 2441 691 2322 
L 691 4666 
z
" transform="scale(0.015625)"/>
       </defs>
       <use xlink:href="#DejaVuSans-30"/>
       <use xlink:href="#DejaVuSans-2e" x="63.623047"/>
       <use xlink:href="#DejaVuSans-35" x="95.410156"/>
      </g>
     </g>
    </g>
    <g id="xtick_3">
     <g id="line2d_3">
      <g>
       <use xlink:href="#m10ca529ef6" x="200.199142" y="240.785179" style="stroke: #000000; stroke-width: 0.8"/>
      </g>
     </g>
     <g id="text_3">
      <!-- 1.0 -->
      <g transform="translate(192.24758 255.383616) scale(0.1 -0.1)">
       <defs>
        <path id="DejaVuSans-31" d="M 794 531 
L 1825 531 
L 1825 4091 
L 703 3866 
L 703 4441 
L 1819 4666 
L 2450 4666 
L 2450 531 
L 3481 531 
L 3481 0 
L 794 0 
L 794 531 
z
" transform="scale(0.015625)"/>
       </defs>
       <use xlink:href="#DejaVuSans-31"/>
       <use xlink:href="#DejaVuSans-2e" x="63.623047"/>
       <use xlink:href="#DejaVuSans-30" x="95.410156"/>
      </g>
     </g>
    </g>
    <g id="xtick_4">
     <g id="line2d_4">
      <g>
       <use xlink:href="#m10ca529ef6" x="274.475446" y="240.785179" style="stroke: #000000; stroke-width: 0.8"/>
      </g>
     </g>
     <g id="text_4">
      <!-- 1.5 -->
      <g transform="translate(266.523884 255.383616) scale(0.1 -0.1)">
       <use xlink:href="#DejaVuSans-31"/>
       <use xlink:href="#DejaVuSans-2e" x="63.623047"/>
       <use xlink:href="#DejaVuSans-35" x="95.410156"/>
      </g>
     </g>
    </g>
    <g id="xtick_5">
     <g id="line2d_5">
      <g>
       <use xlink:href="#m10ca529ef6" x="348.75175" y="240.785179" style="stroke: #000000; stroke-width: 0.8"/>
      </g>
     </g>
     <g id="text_5">
      <!-- 2.0 -->
      <g transform="translate(340.800188 255.383616) scale(0.1 -0.1)">
       <defs>
        <path id="DejaVuSans-32" d="M 1228 531 
L 3431 531 
L 3431 0 
L 469 0 
L 469 531 
Q 828 903 1448 1529 
Q 2069 2156 2228 2338 
Q 2531 2678 2651 2914 
Q 2772 3150 2772 3378 
Q 2772 3750 2511 3984 
Q 2250 4219 1831 4219 
Q 1534 4219 1204 4116 
Q 875 4013 500 3803 
L 500 4441 
Q 881 4594 1212 4672 
Q 1544 4750 1819 4750 
Q 2544 4750 2975 4387 
Q 3406 4025 3406 3419 
Q 3406 3131 3298 2873 
Q 3191 2616 2906 2266 
Q 2828 2175 2409 1742 
Q 1991 1309 1228 531 
z
" transform="scale(0.015625)"/>
       </defs>
       <use xlink:href="#DejaVuSans-32"/>
       <use xlink:href="#DejaVuSans-2e" x="63.623047"/>
       <use xlink:href="#DejaVuSans-30" x="95.410156"/>
      </g>
     </g>
    </g>
    <g id="text_6">
     <!-- dspacing [Å] -->
     <g transform="translate(194.29625 270.746116) scale(0.1 -0.1)">
      <defs>
       <path id="DejaVuSans-64" d="M 2906 2969 
L 2906 4863 
L 3481 4863 
L 3481 0 
L 2906 0 
L 2906 525 
Q 2725 213 2448 61 
Q 2172 -91 1784 -91 
Q 1150 -91 751 415 
Q 353 922 353 1747 
Q 353 2572 751 3078 
Q 1150 3584 1784 3584 
Q 2172 3584 2448 3432 
Q 2725 3281 2906 2969 
z
M 947 1747 
Q 947 1113 1208 752 
Q 1469 391 1925 391 
Q 2381 391 2643 752 
Q 2906 1113 2906 1747 
Q 2906 2381 2643 2742 
Q 2381 3103 1925 3103 
Q 1469 3103 1208 2742 
Q 947 2381 947 1747 
z
" transform="scale(0.015625)"/>
       <path id="DejaVuSans-73" d="M 2834 3397 
L 2834 2853 
Q 2591 2978 2328 3040 
Q 2066 3103 1784 3103 
Q 1356 3103 1142 2972 
Q 928 2841 928 2578 
Q 928 2378 1081 2264 
Q 1234 2150 1697 2047 
L 1894 2003 
Q 2506 1872 2764 1633 
Q 3022 1394 3022 966 
Q 3022 478 2636 193 
Q 2250 -91 1575 -91 
Q 1294 -91 989 -36 
Q 684 19 347 128 
L 347 722 
Q 666 556 975 473 
Q 1284 391 1588 391 
Q 1994 391 2212 530 
Q 2431 669 2431 922 
Q 2431 1156 2273 1281 
Q 2116 1406 1581 1522 
L 1381 1569 
Q 847 1681 609 1914 
Q 372 2147 372 2553 
Q 372 3047 722 3315 
Q 1072 3584 1716 3584 
Q 2034 3584 2315 3537 
Q 2597 3491 2834 3397 
z
" transform="scale(0.015625)"/>
       <path id="DejaVuSans-70" d="M 1159 525 
L 1159 -1331 
L 581 -1331 
L 581 3500 
L 1159 3500 
L 1159 2969 
Q 1341 3281 1617 3432 
Q 1894 3584 2278 3584 
Q 2916 3584 3314 3078 
Q 3713 2572 3713 1747 
Q 3713 922 3314 415 
Q 2916 -91 2278 -91 
Q 1894 -91 1617 61 
Q 1341 213 1159 525 
z
M 3116 1747 
Q 3116 2381 2855 2742 
Q 2594 3103 2138 3103 
Q 1681 3103 1420 2742 
Q 1159 2381 1159 1747 
Q 1159 1113 1420 752 
Q 1681 391 2138 391 
Q 2594 391 2855 752 
Q 3116 1113 3116 1747 
z
" transform="scale(0.015625)"/>
       <path id="DejaVuSans-61" d="M 2194 1759 
Q 1497 1759 1228 1600 
Q 959 1441 959 1056 
Q 959 750 1161 570 
Q 1363 391 1709 391 
Q 2188 391 2477 730 
Q 2766 1069 2766 1631 
L 2766 1759 
L 2194 1759 
z
M 3341 1997 
L 3341 0 
L 2766 0 
L 2766 531 
Q 2569 213 2275 61 
Q 1981 -91 1556 -91 
Q 1019 -91 701 211 
Q 384 513 384 1019 
Q 384 1609 779 1909 
Q 1175 2209 1959 2209 
L 2766 2209 
L 2766 2266 
Q 2766 2663 2505 2880 
Q 2244 3097 1772 3097 
Q 1472 3097 1187 3025 
Q 903 2953 641 2809 
L 641 3341 
Q 956 3463 1253 3523 
Q 1550 3584 1831 3584 
Q 2591 3584 2966 3190 
Q 3341 2797 3341 1997 
z
" transform="scale(0.015625)"/>
       <path id="DejaVuSans-63" d="M 3122 3366 
L 3122 2828 
Q 2878 2963 2633 3030 
Q 2388 3097 2138 3097 
Q 1578 3097 1268 2742 
Q 959 2388 959 1747 
Q 959 1106 1268 751 
Q 1578 397 2138 397 
Q 2388 397 2633 464 
Q 2878 531 3122 666 
L 3122 134 
Q 2881 22 2623 -34 
Q 2366 -91 2075 -91 
Q 1284 -91 818 406 
Q 353 903 353 1747 
Q 353 2603 823 3093 
Q 1294 3584 2113 3584 
Q 2378 3584 2631 3529 
Q 2884 3475 3122 3366 
z
" transform="scale(0.015625)"/>
       <path id="DejaVuSans-69" d="M 603 3500 
L 1178 3500 
L 1178 0 
L 603 0 
L 603 3500 
z
M 603 4863 
L 1178 4863 
L 1178 4134 
L 603 4134 
L 603 4863 
z
" transform="scale(0.015625)"/>
       <path id="DejaVuSans-6e" d="M 3513 2113 
L 3513 0 
L 2938 0 
L 2938 2094 
Q 2938 2591 2744 2837 
Q 2550 3084 2163 3084 
Q 1697 3084 1428 2787 
Q 1159 2491 1159 1978 
L 1159 0 
L 581 0 
L 581 3500 
L 1159 3500 
L 1159 2956 
Q 1366 3272 1645 3428 
Q 1925 3584 2291 3584 
Q 2894 3584 3203 3211 
Q 3513 2838 3513 2113 
z
" transform="scale(0.015625)"/>
       <path id="DejaVuSans-67" d="M 2906 1791 
Q 2906 2416 2648 2759 
Q 2391 3103 1925 3103 
Q 1463 3103 1205 2759 
Q 947 2416 947 1791 
Q 947 1169 1205 825 
Q 1463 481 1925 481 
Q 2391 481 2648 825 
Q 2906 1169 2906 1791 
z
M 3481 434 
Q 3481 -459 3084 -895 
Q 2688 -1331 1869 -1331 
Q 1566 -1331 1297 -1286 
Q 1028 -1241 775 -1147 
L 775 -588 
Q 1028 -725 1275 -790 
Q 1522 -856 1778 -856 
Q 2344 -856 2625 -561 
Q 2906 -266 2906 331 
L 2906 616 
Q 2728 306 2450 153 
Q 2172 0 1784 0 
Q 1141 0 747 490 
Q 353 981 353 1791 
Q 353 2603 747 3093 
Q 1141 3584 1784 3584 
Q 2172 3584 2450 3431 
Q 2728 3278 2906 2969 
L 2906 3500 
L 3481 3500 
L 3481 434 
z
" transform="scale(0.015625)"/>
       <path id="DejaVuSans-20" transform="scale(0.015625)"/>
       <path id="DejaVuSans-5b" d="M 550 4863 
L 1875 4863 
L 1875 4416 
L 1125 4416 
L 1125 -397 
L 1875 -397 
L 1875 -844 
L 550 -844 
L 550 4863 
z
" transform="scale(0.015625)"/>
       <path id="DejaVuSans-c5" d="M 2663 5081 
Q 2663 5278 2523 5417 
Q 2384 5556 2188 5556 
Q 1988 5556 1852 5420 
Q 1716 5284 1716 5081 
Q 1716 4884 1853 4746 
Q 1991 4609 2188 4609 
Q 2384 4609 2523 4746 
Q 2663 4884 2663 5081 
z
M 2188 4044 
L 1338 1722 
L 3041 1722 
L 2188 4044 
z
M 1716 4366 
Q 1525 4494 1428 4673 
Q 1331 4853 1331 5081 
Q 1331 5441 1579 5691 
Q 1828 5941 2188 5941 
Q 2544 5941 2795 5689 
Q 3047 5438 3047 5081 
Q 3047 4863 2948 4678 
Q 2850 4494 2663 4366 
L 4325 0 
L 3669 0 
L 3244 1197 
L 1141 1197 
L 716 0 
L 50 0 
L 1716 4366 
z
" transform="scale(0.015625)"/>
       <path id="DejaVuSans-5d" d="M 1947 4863 
L 1947 -844 
L 622 -844 
L 622 -397 
L 1369 -397 
L 1369 4416 
L 622 4416 
L 622 4863 
L 1947 4863 
z
" transform="scale(0.015625)"/>
      </defs>
      <use xlink:href="#DejaVuSans-64"/>
      <use xlink:href="#DejaVuSans-73" x="63.476562"/>
      <use xlink:href="#DejaVuSans-70" x="115.576172"/>
      <use xlink:href="#DejaVuSans-61" x="179.052734"/>
      <use xlink:href="#DejaVuSans-63" x="240.332031"/>
      <use xlink:href="#DejaVuSans-69" x="295.3125"/>
      <use xlink:href="#DejaVuSans-6e" x="323.095703"/>
      <use xlink:href="#DejaVuSans-67" x="386.474609"/>
      <use xlink:href="#DejaVuSans-20" x="449.951172"/>
      <use xlink:href="#DejaVuSans-5b" x="481.738281"/>
      <use xlink:href="#DejaVuSans-c5" x="520.751953"/>
      <use xlink:href="#DejaVuSans-5d" x="589.160156"/>
     </g>
    </g>
   </g>
   <g id="matplotlib.axis_2">
    <g id="ytick_1">
     <g id="line2d_6">
      <defs>
       <path id="me21edcdfbc" d="M 0 0 
L -3.5 0 
" style="stroke: #000000; stroke-width: 0.8"/>
      </defs>
      <g>
       <use xlink:href="#me21edcdfbc" x="34.240625" y="239.453926" style="stroke: #000000; stroke-width: 0.8"/>
      </g>
     </g>
     <g id="text_7">
      <!-- 0 -->
      <g transform="translate(20.878125 243.253144) scale(0.1 -0.1)">
       <use xlink:href="#DejaVuSans-30"/>
      </g>
     </g>
    </g>
    <g id="ytick_2">
     <g id="line2d_7">
      <g>
       <use xlink:href="#me21edcdfbc" x="34.240625" y="210.897087" style="stroke: #000000; stroke-width: 0.8"/>
      </g>
     </g>
     <g id="text_8">
      <!-- 1 -->
      <g transform="translate(20.878125 214.696306) scale(0.1 -0.1)">
       <use xlink:href="#DejaVuSans-31"/>
      </g>
     </g>
    </g>
    <g id="ytick_3">
     <g id="line2d_8">
      <g>
       <use xlink:href="#me21edcdfbc" x="34.240625" y="182.340249" style="stroke: #000000; stroke-width: 0.8"/>
      </g>
     </g>
     <g id="text_9">
      <!-- 2 -->
      <g transform="translate(20.878125 186.139468) scale(0.1 -0.1)">
       <use xlink:href="#DejaVuSans-32"/>
      </g>
     </g>
    </g>
    <g id="ytick_4">
     <g id="line2d_9">
      <g>
       <use xlink:href="#me21edcdfbc" x="34.240625" y="153.783411" style="stroke: #000000; stroke-width: 0.8"/>
      </g>
     </g>
     <g id="text_10">
      <!-- 3 -->
      <g transform="translate(20.878125 157.582629) scale(0.1 -0.1)">
       <defs>
        <path id="DejaVuSans-33" d="M 2597 2516 
Q 3050 2419 3304 2112 
Q 3559 1806 3559 1356 
Q 3559 666 3084 287 
Q 2609 -91 1734 -91 
Q 1441 -91 1130 -33 
Q 819 25 488 141 
L 488 750 
Q 750 597 1062 519 
Q 1375 441 1716 441 
Q 2309 441 2620 675 
Q 2931 909 2931 1356 
Q 2931 1769 2642 2001 
Q 2353 2234 1838 2234 
L 1294 2234 
L 1294 2753 
L 1863 2753 
Q 2328 2753 2575 2939 
Q 2822 3125 2822 3475 
Q 2822 3834 2567 4026 
Q 2313 4219 1838 4219 
Q 1578 4219 1281 4162 
Q 984 4106 628 3988 
L 628 4550 
Q 988 4650 1302 4700 
Q 1616 4750 1894 4750 
Q 2613 4750 3031 4423 
Q 3450 4097 3450 3541 
Q 3450 3153 3228 2886 
Q 3006 2619 2597 2516 
z
" transform="scale(0.015625)"/>
       </defs>
       <use xlink:href="#DejaVuSans-33"/>
      </g>
     </g>
    </g>
    <g id="ytick_5">
     <g id="line2d_10">
      <g>
       <use xlink:href="#me21edcdfbc" x="34.240625" y="125.226572" style="stroke: #000000; stroke-width: 0.8"/>
      </g>
     </g>
     <g id="text_11">
      <!-- 4 -->
      <g transform="translate(20.878125 129.025791) scale(0.1 -0.1)">
       <defs>
        <path id="DejaVuSans-34" d="M 2419 4116 
L 825 1625 
L 2419 1625 
L 2419 4116 
z
M 2253 4666 
L 3047 4666 
L 3047 1625 
L 3713 1625 
L 3713 1100 
L 3047 1100 
L 3047 0 
L 2419 0 
L 2419 1100 
L 313 1100 
L 313 1709 
L 2253 4666 
z
" transform="scale(0.015625)"/>
       </defs>
       <use xlink:href="#DejaVuSans-34"/>
      </g>
     </g>
    </g>
    <g id="ytick_6">
     <g id="line2d_11">
      <g>
       <use xlink:href="#me21edcdfbc" x="34.240625" y="96.669734" style="stroke: #000000; stroke-width: 0.8"/>
      </g>
     </g>
     <g id="text_12">
      <!-- 5 -->
      <g transform="translate(20.878125 100.468953) scale(0.1 -0.1)">
       <use xlink:href="#DejaVuSans-35"/>
      </g>
     </g>
    </g>
    <g id="ytick_7">
     <g id="line2d_12">
      <g>
       <use xlink:href="#me21edcdfbc" x="34.240625" y="68.112895" style="stroke: #000000; stroke-width: 0.8"/>
      </g>
     </g>
     <g id="text_13">
      <!-- 6 -->
      <g transform="translate(20.878125 71.912114) scale(0.1 -0.1)">
       <defs>
        <path id="DejaVuSans-36" d="M 2113 2584 
Q 1688 2584 1439 2293 
Q 1191 2003 1191 1497 
Q 1191 994 1439 701 
Q 1688 409 2113 409 
Q 2538 409 2786 701 
Q 3034 994 3034 1497 
Q 3034 2003 2786 2293 
Q 2538 2584 2113 2584 
z
M 3366 4563 
L 3366 3988 
Q 3128 4100 2886 4159 
Q 2644 4219 2406 4219 
Q 1781 4219 1451 3797 
Q 1122 3375 1075 2522 
Q 1259 2794 1537 2939 
Q 1816 3084 2150 3084 
Q 2853 3084 3261 2657 
Q 3669 2231 3669 1497 
Q 3669 778 3244 343 
Q 2819 -91 2113 -91 
Q 1303 -91 875 529 
Q 447 1150 447 2328 
Q 447 3434 972 4092 
Q 1497 4750 2381 4750 
Q 2619 4750 2861 4703 
Q 3103 4656 3366 4563 
z
" transform="scale(0.015625)"/>
       </defs>
       <use xlink:href="#DejaVuSans-36"/>
      </g>
     </g>
    </g>
    <g id="ytick_8">
     <g id="line2d_13">
      <g>
       <use xlink:href="#me21edcdfbc" x="34.240625" y="39.556057" style="stroke: #000000; stroke-width: 0.8"/>
      </g>
     </g>
     <g id="text_14">
      <!-- 7 -->
      <g transform="translate(20.878125 43.355276) scale(0.1 -0.1)">
       <defs>
        <path id="DejaVuSans-37" d="M 525 4666 
L 3525 4666 
L 3525 4397 
L 1831 0 
L 1172 0 
L 2766 4134 
L 525 4134 
L 525 4666 
z
" transform="scale(0.015625)"/>
       </defs>
       <use xlink:href="#DejaVuSans-37"/>
      </g>
     </g>
    </g>
    <g id="ytick_9">
     <g id="line2d_14">
      <g>
       <use xlink:href="#me21edcdfbc" x="34.240625" y="10.999219" style="stroke: #000000; stroke-width: 0.8"/>
      </g>
     </g>
     <g id="text_15">
      <!-- 8 -->
      <g transform="translate(20.878125 14.798438) scale(0.1 -0.1)">
       <defs>
        <path id="DejaVuSans-38" d="M 2034 2216 
Q 1584 2216 1326 1975 
Q 1069 1734 1069 1313 
Q 1069 891 1326 650 
Q 1584 409 2034 409 
Q 2484 409 2743 651 
Q 3003 894 3003 1313 
Q 3003 1734 2745 1975 
Q 2488 2216 2034 2216 
z
M 1403 2484 
Q 997 2584 770 2862 
Q 544 3141 544 3541 
Q 544 4100 942 4425 
Q 1341 4750 2034 4750 
Q 2731 4750 3128 4425 
Q 3525 4100 3525 3541 
Q 3525 3141 3298 2862 
Q 3072 2584 2669 2484 
Q 3125 2378 3379 2068 
Q 3634 1759 3634 1313 
Q 3634 634 3220 271 
Q 2806 -91 2034 -91 
Q 1263 -91 848 271 
Q 434 634 434 1313 
Q 434 1759 690 2068 
Q 947 2378 1403 2484 
z
M 1172 3481 
Q 1172 3119 1398 2916 
Q 1625 2713 2034 2713 
Q 2441 2713 2670 2916 
Q 2900 3119 2900 3481 
Q 2900 3844 2670 4047 
Q 2441 4250 2034 4250 
Q 1625 4250 1398 4047 
Q 1172 3844 1172 3481 
z
" transform="scale(0.015625)"/>
       </defs>
       <use xlink:href="#DejaVuSans-38"/>
      </g>
     </g>
    </g>
    <g id="text_16">
     <!-- [dimensionless] -->
     <g transform="translate(14.798438 164.357147) rotate(-90) scale(0.1 -0.1)">
      <defs>
       <path id="DejaVuSans-6d" d="M 3328 2828 
Q 3544 3216 3844 3400 
Q 4144 3584 4550 3584 
Q 5097 3584 5394 3201 
Q 5691 2819 5691 2113 
L 5691 0 
L 5113 0 
L 5113 2094 
Q 5113 2597 4934 2840 
Q 4756 3084 4391 3084 
Q 3944 3084 3684 2787 
Q 3425 2491 3425 1978 
L 3425 0 
L 2847 0 
L 2847 2094 
Q 2847 2600 2669 2842 
Q 2491 3084 2119 3084 
Q 1678 3084 1418 2786 
Q 1159 2488 1159 1978 
L 1159 0 
L 581 0 
L 581 3500 
L 1159 3500 
L 1159 2956 
Q 1356 3278 1631 3431 
Q 1906 3584 2284 3584 
Q 2666 3584 2933 3390 
Q 3200 3197 3328 2828 
z
" transform="scale(0.015625)"/>
       <path id="DejaVuSans-65" d="M 3597 1894 
L 3597 1613 
L 953 1613 
Q 991 1019 1311 708 
Q 1631 397 2203 397 
Q 2534 397 2845 478 
Q 3156 559 3463 722 
L 3463 178 
Q 3153 47 2828 -22 
Q 2503 -91 2169 -91 
Q 1331 -91 842 396 
Q 353 884 353 1716 
Q 353 2575 817 3079 
Q 1281 3584 2069 3584 
Q 2775 3584 3186 3129 
Q 3597 2675 3597 1894 
z
M 3022 2063 
Q 3016 2534 2758 2815 
Q 2500 3097 2075 3097 
Q 1594 3097 1305 2825 
Q 1016 2553 972 2059 
L 3022 2063 
z
" transform="scale(0.015625)"/>
       <path id="DejaVuSans-6f" d="M 1959 3097 
Q 1497 3097 1228 2736 
Q 959 2375 959 1747 
Q 959 1119 1226 758 
Q 1494 397 1959 397 
Q 2419 397 2687 759 
Q 2956 1122 2956 1747 
Q 2956 2369 2687 2733 
Q 2419 3097 1959 3097 
z
M 1959 3584 
Q 2709 3584 3137 3096 
Q 3566 2609 3566 1747 
Q 3566 888 3137 398 
Q 2709 -91 1959 -91 
Q 1206 -91 779 398 
Q 353 888 353 1747 
Q 353 2609 779 3096 
Q 1206 3584 1959 3584 
z
" transform="scale(0.015625)"/>
       <path id="DejaVuSans-6c" d="M 603 4863 
L 1178 4863 
L 1178 0 
L 603 0 
L 603 4863 
z
" transform="scale(0.015625)"/>
      </defs>
      <use xlink:href="#DejaVuSans-5b"/>
      <use xlink:href="#DejaVuSans-64" x="39.013672"/>
      <use xlink:href="#DejaVuSans-69" x="102.490234"/>
      <use xlink:href="#DejaVuSans-6d" x="130.273438"/>
      <use xlink:href="#DejaVuSans-65" x="227.685547"/>
      <use xlink:href="#DejaVuSans-6e" x="289.208984"/>
      <use xlink:href="#DejaVuSans-73" x="352.587891"/>
      <use xlink:href="#DejaVuSans-69" x="404.6875"/>
      <use xlink:href="#DejaVuSans-6f" x="432.470703"/>
      <use xlink:href="#DejaVuSans-6e" x="493.652344"/>
      <use xlink:href="#DejaVuSans-6c" x="557.03125"/>
      <use xlink:href="#DejaVuSans-65" x="584.814453"/>
      <use xlink:href="#DejaVuSans-73" x="646.337891"/>
      <use xlink:href="#DejaVuSans-73" x="698.4375"/>
      <use xlink:href="#DejaVuSans-5d" x="750.537109"/>
     </g>
    </g>
   </g>
   <g id="patch_3">
    <path d="M 34.240625 240.785179 
L 34.240625 8.974428 
" style="fill: none; stroke: #000000; stroke-width: 0.8; stroke-linejoin: miter; stroke-linecap: square"/>
   </g>
   <g id="patch_4">
    <path d="M 417.170625 240.785179 
L 417.170625 8.974428 
" style="fill: none; stroke: #000000; stroke-width: 0.8; stroke-linejoin: miter; stroke-linecap: square"/>
   </g>
   <g id="patch_5">
    <path d="M 34.240625 240.785179 
L 417.170625 240.785179 
" style="fill: none; stroke: #000000; stroke-width: 0.8; stroke-linejoin: miter; stroke-linecap: square"/>
   </g>
   <g id="patch_6">
    <path d="M 34.240625 8.974428 
L 417.170625 8.974428 
" style="fill: none; stroke: #000000; stroke-width: 0.8; stroke-linejoin: miter; stroke-linecap: square"/>
   </g>
   <g id="line2d_15">
    <path d="M 51.646534 207.437725 
L 53.395872 207.437725 
L 53.395872 209.842895 
L 55.145209 209.842895 
L 55.145209 212.873955 
L 56.894547 212.873955 
L 56.894547 214.06004 
L 58.643884 214.06004 
L 58.643884 214.866926 
L 60.393222 214.866926 
L 60.393222 215.052258 
L 62.14256 215.052258 
L 62.14256 214.727189 
L 63.891897 214.727189 
L 63.891897 214.466326 
L 65.641235 214.466326 
L 65.641235 214.078986 
L 69.13991 214.014374 
L 69.13991 213.95524 
L 70.889248 213.95524 
L 70.889248 214.111813 
L 72.638585 214.111813 
L 72.638585 214.253088 
L 74.387923 214.253088 
L 74.387923 214.440695 
L 77.886598 214.474545 
L 77.886598 214.671305 
L 79.635936 214.671305 
L 79.635936 214.948634 
L 81.385273 214.948634 
L 81.385273 215.086585 
L 83.134611 215.086585 
L 83.134611 215.275979 
L 84.883948 215.275979 
L 84.883948 215.477453 
L 88.382624 215.41542 
L 88.382624 215.800765 
L 90.131961 215.800765 
L 90.131961 215.994662 
L 91.881299 215.994662 
L 91.881299 215.566222 
L 93.630636 215.566222 
L 93.630636 215.752244 
L 95.379974 215.752244 
L 95.379974 215.919502 
L 97.129312 215.919502 
L 97.129312 216.096274 
L 98.878649 216.096274 
L 98.878649 215.929408 
L 100.627987 215.929408 
L 100.627987 214.364059 
L 102.377324 214.364059 
L 102.377324 216.49106 
L 104.126662 216.49106 
L 104.126662 215.89445 
L 105.876 215.89445 
L 105.876 215.554003 
L 109.374675 215.602195 
L 109.374675 215.299857 
L 111.124012 215.299857 
L 111.124012 214.875265 
L 112.87335 214.875265 
L 112.87335 215.332737 
L 114.622688 215.332737 
L 114.622688 213.735906 
L 116.372025 213.735906 
L 116.372025 215.328995 
L 118.121363 215.328995 
L 118.121363 216.61587 
L 119.8707 216.61587 
L 119.8707 217.219003 
L 121.620038 217.219003 
L 121.620038 215.809355 
L 123.369376 215.809355 
L 123.369376 213.436974 
L 125.118713 213.436974 
L 125.118713 213.837004 
L 126.868051 213.837004 
L 126.868051 211.474031 
L 128.617388 211.474031 
L 128.617388 217.230155 
L 130.366726 217.230155 
L 130.366726 217.6969 
L 132.116064 217.6969 
L 132.116064 211.059208 
L 133.865401 211.059208 
L 133.865401 218.311118 
L 135.614739 218.311118 
L 135.614739 210.095088 
L 137.364076 210.095088 
L 137.364076 208.032848 
L 139.113414 208.032848 
L 139.113414 215.959969 
L 140.862752 215.959969 
L 140.862752 218.141323 
L 142.612089 218.141323 
L 142.612089 204.592177 
L 144.361427 204.592177 
L 144.361427 217.890625 
L 146.110764 217.890625 
L 146.110764 218.360571 
L 147.860102 218.360571 
L 147.860102 211.755794 
L 149.60944 211.755794 
L 149.60944 218.766205 
L 151.358777 218.766205 
L 151.358777 218.098215 
L 153.108115 218.098215 
L 153.108115 214.72402 
L 154.857452 214.72402 
L 154.857452 213.328561 
L 156.60679 213.328561 
L 156.60679 202.823177 
L 158.356128 202.823177 
L 158.356128 196.470183 
L 160.105465 196.470183 
L 160.105465 212.793585 
L 161.854803 212.793585 
L 161.854803 218.124968 
L 163.60414 218.124968 
L 163.60414 206.355669 
L 165.353478 206.355669 
L 165.353478 211.824124 
L 167.102815 211.824124 
L 167.102815 217.907121 
L 168.852153 217.907121 
L 168.852153 211.074995 
L 170.601491 211.074995 
L 170.601491 204.634354 
L 172.350828 204.634354 
L 172.350828 203.033517 
L 174.100166 203.033517 
L 174.100166 208.949783 
L 175.849503 208.949783 
L 175.849503 217.24465 
L 177.598841 217.24465 
L 177.598841 215.527637 
L 179.348179 215.527637 
L 179.348179 217.518849 
L 182.846854 217.481671 
L 182.846854 206.900645 
L 184.596191 206.900645 
L 184.596191 215.660167 
L 186.345529 215.660167 
L 186.345529 196.13821 
L 188.094867 196.13821 
L 188.094867 214.952909 
L 189.844204 214.952909 
L 189.844204 211.472725 
L 191.593542 211.472725 
L 191.593542 216.524673 
L 193.342879 216.524673 
L 193.342879 213.818264 
L 195.092217 213.818264 
L 195.092217 216.137819 
L 196.841555 216.137819 
L 196.841555 175.850167 
L 198.590892 175.850167 
L 198.590892 215.853233 
L 200.34023 215.853233 
L 200.34023 199.293165 
L 202.089567 199.293165 
L 202.089567 215.504693 
L 203.838905 215.504693 
L 203.838905 215.769703 
L 205.588243 215.769703 
L 205.588243 196.215301 
L 207.33758 196.215301 
L 207.33758 215.457216 
L 209.086918 215.457216 
L 209.086918 215.742589 
L 210.836255 215.742589 
L 210.836255 216.051705 
L 214.334931 216.009701 
L 214.334931 216.300179 
L 216.084268 216.300179 
L 216.084268 213.536863 
L 217.833606 213.536863 
L 217.833606 215.886809 
L 219.582943 215.886809 
L 219.582943 215.470778 
L 221.332281 215.470778 
L 221.332281 214.662716 
L 223.081619 214.662716 
L 223.081619 214.137684 
L 224.830956 214.137684 
L 224.830956 215.583161 
L 228.329631 215.478571 
L 228.329631 208.724561 
L 230.078969 208.724561 
L 230.078969 202.88306 
L 231.828307 202.88306 
L 231.828307 215.239673 
L 233.577644 215.239673 
L 233.577644 216.489013 
L 235.326982 216.489013 
L 235.326982 217.499957 
L 237.076319 217.499957 
L 237.076319 211.994169 
L 238.825657 211.994169 
L 238.825657 214.92874 
L 240.574995 214.92874 
L 240.574995 215.193218 
L 242.324332 215.193218 
L 242.324332 214.705922 
L 244.07367 214.705922 
L 244.07367 213.636803 
L 245.823007 213.636803 
L 245.823007 112.516274 
L 247.572345 112.516274 
L 247.572345 199.282029 
L 249.321683 199.282029 
L 249.321683 213.712592 
L 251.07102 213.712592 
L 251.07102 214.372489 
L 252.820358 214.372489 
L 252.820358 214.012458 
L 254.569695 214.012458 
L 254.569695 212.705708 
L 256.319033 212.705708 
L 256.319033 19.51128 
L 258.068371 19.51128 
L 258.068371 163.590597 
L 259.817708 163.590597 
L 259.817708 213.983968 
L 261.567046 213.983968 
L 261.567046 214.163958 
L 263.316383 214.163958 
L 263.316383 215.505596 
L 265.065721 215.505596 
L 265.065721 215.199189 
L 266.815059 215.199189 
L 266.815059 214.473579 
L 268.564396 214.473579 
L 268.564396 215.156154 
L 270.313734 215.156154 
L 270.313734 215.966307 
L 272.063071 215.966307 
L 272.063071 214.7631 
L 275.561747 214.832142 
L 275.561747 218.222884 
L 277.311084 218.222884 
L 277.311084 215.41379 
L 279.060422 215.41379 
L 279.060422 215.034414 
L 280.809759 215.034414 
L 280.809759 215.772435 
L 282.559097 215.772435 
L 282.559097 215.600439 
L 284.308435 215.600439 
L 284.308435 215.166054 
L 286.057772 215.166054 
L 286.057772 215.808264 
L 287.80711 215.808264 
L 287.80711 215.351209 
L 291.305785 215.372761 
L 291.305785 214.876771 
L 293.055122 214.876771 
L 293.055122 215.856943 
L 294.80446 215.856943 
L 294.80446 215.047843 
L 296.553798 215.047843 
L 296.553798 215.6232 
L 298.303135 215.6232 
L 298.303135 215.497267 
L 300.052473 215.497267 
L 300.052473 215.756516 
L 301.80181 215.756516 
L 301.80181 209.212805 
L 303.551148 209.212805 
L 303.551148 172.951847 
L 305.300486 172.951847 
L 305.300486 214.692681 
L 308.799161 214.789279 
L 308.799161 215.596643 
L 310.548498 215.596643 
L 310.548498 214.914888 
L 312.297836 214.914888 
L 312.297836 215.083213 
L 314.047174 215.083213 
L 314.047174 215.965266 
L 315.796511 215.965266 
L 315.796511 215.635073 
L 317.545849 215.635073 
L 317.545849 213.628668 
L 319.295186 213.628668 
L 319.295186 214.455023 
L 322.793862 214.42978 
L 322.793862 215.449593 
L 324.543199 215.449593 
L 324.543199 214.020949 
L 326.292537 214.020949 
L 326.292537 189.332039 
L 328.041874 189.332039 
L 328.041874 182.35789 
L 329.791212 182.35789 
L 329.791212 214.946561 
L 333.289887 214.918995 
L 333.289887 213.737247 
L 335.039225 213.737247 
L 335.039225 214.390004 
L 336.788562 214.390004 
L 336.788562 214.545105 
L 338.5379 214.545105 
L 338.5379 213.865826 
L 340.287238 213.865826 
L 340.287238 214.919835 
L 342.036575 214.919835 
L 342.036575 214.13022 
L 343.785913 214.13022 
L 343.785913 212.892882 
L 345.53525 212.892882 
L 345.53525 215.279351 
L 347.284588 215.279351 
L 347.284588 213.916492 
L 349.033926 213.916492 
L 349.033926 215.427582 
L 350.783263 215.427582 
L 350.783263 215.594983 
L 352.532601 215.594983 
L 352.532601 216.123255 
L 354.281938 216.123255 
L 354.281938 215.243976 
L 356.031276 215.243976 
L 356.031276 214.449804 
L 357.780614 214.449804 
L 357.780614 209.166346 
L 359.529951 209.166346 
L 359.529951 123.742334 
L 361.279289 123.742334 
L 361.279289 186.141216 
L 363.028626 186.141216 
L 363.028626 213.693939 
L 364.777964 213.693939 
L 364.777964 214.731858 
L 366.527302 214.731858 
L 366.527302 213.738869 
L 368.276639 213.738869 
L 368.276639 215.666162 
L 370.025977 215.666162 
L 370.025977 215.81113 
L 371.775314 215.81113 
L 371.775314 216.733987 
L 373.524652 216.733987 
L 373.524652 214.287539 
L 375.27399 214.287539 
L 375.27399 214.149791 
L 377.023327 214.149791 
L 377.023327 215.156917 
L 378.772665 215.156917 
L 378.772665 217.482071 
L 380.522002 217.482071 
L 380.522002 218.271149 
L 382.27134 218.271149 
L 382.27134 212.693463 
L 384.020678 212.693463 
L 384.020678 212.931696 
L 385.770015 212.931696 
L 385.770015 214.095105 
L 387.519353 214.095105 
L 387.519353 217.865574 
L 389.26869 217.865574 
L 389.26869 213.38988 
L 391.018028 213.38988 
L 391.018028 215.664175 
L 392.767366 215.664175 
L 392.767366 213.064541 
L 394.516703 213.064541 
L 394.516703 214.819224 
L 396.266041 214.819224 
L 396.266041 230.248326 
L 398.015378 230.248326 
L 398.015378 193.42593 
L 399.764716 193.42593 
L 399.764716 193.42593 
" clip-path="url(#p0070f33b5c)" style="fill: none; stroke: #1f77b4; stroke-width: 1.5; stroke-linecap: square"/>
   </g>
   <g id="LineCollection_1">
    <path d="M 52.521203 207.604207 
L 52.521203 207.271242 
" clip-path="url(#p0070f33b5c)" style="fill: none; stroke: #1f77b4; stroke-width: 1.5"/>
    <path d="M 54.27054 210.000954 
L 54.27054 209.684836 
" clip-path="url(#p0070f33b5c)" style="fill: none; stroke: #1f77b4; stroke-width: 1.5"/>
    <path d="M 56.019878 212.996156 
L 56.019878 212.751755 
" clip-path="url(#p0070f33b5c)" style="fill: none; stroke: #1f77b4; stroke-width: 1.5"/>
    <path d="M 57.769216 214.163418 
L 57.769216 213.956662 
" clip-path="url(#p0070f33b5c)" style="fill: none; stroke: #1f77b4; stroke-width: 1.5"/>
    <path d="M 59.518553 214.954541 
L 59.518553 214.779311 
" clip-path="url(#p0070f33b5c)" style="fill: none; stroke: #1f77b4; stroke-width: 1.5"/>
    <path d="M 61.267891 215.129132 
L 61.267891 214.975385 
" clip-path="url(#p0070f33b5c)" style="fill: none; stroke: #1f77b4; stroke-width: 1.5"/>
    <path d="M 63.017228 214.797432 
L 63.017228 214.656946 
" clip-path="url(#p0070f33b5c)" style="fill: none; stroke: #1f77b4; stroke-width: 1.5"/>
    <path d="M 64.766566 214.533604 
L 64.766566 214.399049 
" clip-path="url(#p0070f33b5c)" style="fill: none; stroke: #1f77b4; stroke-width: 1.5"/>
    <path d="M 66.515904 214.14516 
L 66.515904 214.012811 
" clip-path="url(#p0070f33b5c)" style="fill: none; stroke: #1f77b4; stroke-width: 1.5"/>
    <path d="M 68.265241 214.07849 
L 68.265241 213.950257 
" clip-path="url(#p0070f33b5c)" style="fill: none; stroke: #1f77b4; stroke-width: 1.5"/>
    <path d="M 70.014579 214.017317 
L 70.014579 213.893164 
" clip-path="url(#p0070f33b5c)" style="fill: none; stroke: #1f77b4; stroke-width: 1.5"/>
    <path d="M 71.763916 214.171557 
L 71.763916 214.052068 
" clip-path="url(#p0070f33b5c)" style="fill: none; stroke: #1f77b4; stroke-width: 1.5"/>
    <path d="M 73.513254 214.310345 
L 73.513254 214.195831 
" clip-path="url(#p0070f33b5c)" style="fill: none; stroke: #1f77b4; stroke-width: 1.5"/>
    <path d="M 75.262592 214.49545 
L 75.262592 214.385939 
" clip-path="url(#p0070f33b5c)" style="fill: none; stroke: #1f77b4; stroke-width: 1.5"/>
    <path d="M 77.011929 214.527055 
L 77.011929 214.422035 
" clip-path="url(#p0070f33b5c)" style="fill: none; stroke: #1f77b4; stroke-width: 1.5"/>
    <path d="M 78.761267 214.721556 
L 78.761267 214.621055 
" clip-path="url(#p0070f33b5c)" style="fill: none; stroke: #1f77b4; stroke-width: 1.5"/>
    <path d="M 80.510604 214.996785 
L 80.510604 214.900483 
" clip-path="url(#p0070f33b5c)" style="fill: none; stroke: #1f77b4; stroke-width: 1.5"/>
    <path d="M 82.259942 215.133017 
L 82.259942 215.040153 
" clip-path="url(#p0070f33b5c)" style="fill: none; stroke: #1f77b4; stroke-width: 1.5"/>
    <path d="M 84.00928 215.320767 
L 84.00928 215.23119 
" clip-path="url(#p0070f33b5c)" style="fill: none; stroke: #1f77b4; stroke-width: 1.5"/>
    <path d="M 85.758617 215.520808 
L 85.758617 215.434098 
" clip-path="url(#p0070f33b5c)" style="fill: none; stroke: #1f77b4; stroke-width: 1.5"/>
    <path d="M 87.507955 215.45784 
L 87.507955 215.373 
" clip-path="url(#p0070f33b5c)" style="fill: none; stroke: #1f77b4; stroke-width: 1.5"/>
    <path d="M 89.257292 215.842007 
L 89.257292 215.759523 
" clip-path="url(#p0070f33b5c)" style="fill: none; stroke: #1f77b4; stroke-width: 1.5"/>
    <path d="M 91.00663 216.035069 
L 91.00663 215.954256 
" clip-path="url(#p0070f33b5c)" style="fill: none; stroke: #1f77b4; stroke-width: 1.5"/>
    <path d="M 92.755968 215.60646 
L 92.755968 215.525983 
" clip-path="url(#p0070f33b5c)" style="fill: none; stroke: #1f77b4; stroke-width: 1.5"/>
    <path d="M 94.505305 215.791877 
L 94.505305 215.712611 
" clip-path="url(#p0070f33b5c)" style="fill: none; stroke: #1f77b4; stroke-width: 1.5"/>
    <path d="M 96.254643 215.958649 
L 96.254643 215.880354 
" clip-path="url(#p0070f33b5c)" style="fill: none; stroke: #1f77b4; stroke-width: 1.5"/>
    <path d="M 98.00398 216.135013 
L 98.00398 216.057535 
" clip-path="url(#p0070f33b5c)" style="fill: none; stroke: #1f77b4; stroke-width: 1.5"/>
    <path d="M 99.753318 215.968103 
L 99.753318 215.890713 
" clip-path="url(#p0070f33b5c)" style="fill: none; stroke: #1f77b4; stroke-width: 1.5"/>
    <path d="M 101.502656 214.403838 
L 101.502656 214.324279 
" clip-path="url(#p0070f33b5c)" style="fill: none; stroke: #1f77b4; stroke-width: 1.5"/>
    <path d="M 103.251993 216.528952 
L 103.251993 216.453168 
" clip-path="url(#p0070f33b5c)" style="fill: none; stroke: #1f77b4; stroke-width: 1.5"/>
    <path d="M 105.001331 215.932768 
L 105.001331 215.856132 
" clip-path="url(#p0070f33b5c)" style="fill: none; stroke: #1f77b4; stroke-width: 1.5"/>
    <path d="M 106.750668 215.592479 
L 106.750668 215.515527 
" clip-path="url(#p0070f33b5c)" style="fill: none; stroke: #1f77b4; stroke-width: 1.5"/>
    <path d="M 108.500006 215.640597 
L 108.500006 215.563793 
" clip-path="url(#p0070f33b5c)" style="fill: none; stroke: #1f77b4; stroke-width: 1.5"/>
    <path d="M 110.249344 215.338509 
L 110.249344 215.261205 
" clip-path="url(#p0070f33b5c)" style="fill: none; stroke: #1f77b4; stroke-width: 1.5"/>
    <path d="M 111.998681 214.914249 
L 111.998681 214.836281 
" clip-path="url(#p0070f33b5c)" style="fill: none; stroke: #1f77b4; stroke-width: 1.5"/>
    <path d="M 113.748019 215.371367 
L 113.748019 215.294107 
" clip-path="url(#p0070f33b5c)" style="fill: none; stroke: #1f77b4; stroke-width: 1.5"/>
    <path d="M 115.497356 213.77585 
L 115.497356 213.695961 
" clip-path="url(#p0070f33b5c)" style="fill: none; stroke: #1f77b4; stroke-width: 1.5"/>
    <path d="M 117.246694 215.367791 
L 117.246694 215.2902 
" clip-path="url(#p0070f33b5c)" style="fill: none; stroke: #1f77b4; stroke-width: 1.5"/>
    <path d="M 118.996032 216.653756 
L 118.996032 216.577984 
" clip-path="url(#p0070f33b5c)" style="fill: none; stroke: #1f77b4; stroke-width: 1.5"/>
    <path d="M 120.745369 217.256488 
L 120.745369 217.181519 
" clip-path="url(#p0070f33b5c)" style="fill: none; stroke: #1f77b4; stroke-width: 1.5"/>
    <path d="M 122.494707 215.848141 
L 122.494707 215.770568 
" clip-path="url(#p0070f33b5c)" style="fill: none; stroke: #1f77b4; stroke-width: 1.5"/>
    <path d="M 124.244044 213.477852 
L 124.244044 213.396096 
" clip-path="url(#p0070f33b5c)" style="fill: none; stroke: #1f77b4; stroke-width: 1.5"/>
    <path d="M 125.993382 213.877809 
L 125.993382 213.796199 
" clip-path="url(#p0070f33b5c)" style="fill: none; stroke: #1f77b4; stroke-width: 1.5"/>
    <path d="M 127.74272 211.516992 
L 127.74272 211.43107 
" clip-path="url(#p0070f33b5c)" style="fill: none; stroke: #1f77b4; stroke-width: 1.5"/>
    <path d="M 129.492057 217.268689 
L 129.492057 217.19162 
" clip-path="url(#p0070f33b5c)" style="fill: none; stroke: #1f77b4; stroke-width: 1.5"/>
    <path d="M 131.241395 217.736484 
L 131.241395 217.657316 
" clip-path="url(#p0070f33b5c)" style="fill: none; stroke: #1f77b4; stroke-width: 1.5"/>
    <path d="M 132.990732 211.107528 
L 132.990732 211.010889 
" clip-path="url(#p0070f33b5c)" style="fill: none; stroke: #1f77b4; stroke-width: 1.5"/>
    <path d="M 134.74007 218.354863 
L 134.74007 218.267373 
" clip-path="url(#p0070f33b5c)" style="fill: none; stroke: #1f77b4; stroke-width: 1.5"/>
    <path d="M 136.489408 210.149021 
L 136.489408 210.041155 
" clip-path="url(#p0070f33b5c)" style="fill: none; stroke: #1f77b4; stroke-width: 1.5"/>
    <path d="M 138.238745 208.091522 
L 138.238745 207.974173 
" clip-path="url(#p0070f33b5c)" style="fill: none; stroke: #1f77b4; stroke-width: 1.5"/>
    <path d="M 139.988083 216.012992 
L 139.988083 215.906946 
" clip-path="url(#p0070f33b5c)" style="fill: none; stroke: #1f77b4; stroke-width: 1.5"/>
    <path d="M 141.73742 218.193605 
L 141.73742 218.089041 
" clip-path="url(#p0070f33b5c)" style="fill: none; stroke: #1f77b4; stroke-width: 1.5"/>
    <path d="M 143.486758 204.661192 
L 143.486758 204.523162 
" clip-path="url(#p0070f33b5c)" style="fill: none; stroke: #1f77b4; stroke-width: 1.5"/>
    <path d="M 145.236096 217.947608 
L 145.236096 217.833641 
" clip-path="url(#p0070f33b5c)" style="fill: none; stroke: #1f77b4; stroke-width: 1.5"/>
    <path d="M 146.985433 218.419513 
L 146.985433 218.301629 
" clip-path="url(#p0070f33b5c)" style="fill: none; stroke: #1f77b4; stroke-width: 1.5"/>
    <path d="M 148.734771 211.826525 
L 148.734771 211.685062 
" clip-path="url(#p0070f33b5c)" style="fill: none; stroke: #1f77b4; stroke-width: 1.5"/>
    <path d="M 150.484108 218.828735 
L 150.484108 218.703675 
" clip-path="url(#p0070f33b5c)" style="fill: none; stroke: #1f77b4; stroke-width: 1.5"/>
    <path d="M 152.233446 218.163316 
L 152.233446 218.033114 
" clip-path="url(#p0070f33b5c)" style="fill: none; stroke: #1f77b4; stroke-width: 1.5"/>
    <path d="M 153.982784 214.796458 
L 153.982784 214.651582 
" clip-path="url(#p0070f33b5c)" style="fill: none; stroke: #1f77b4; stroke-width: 1.5"/>
    <path d="M 155.732121 213.405529 
L 155.732121 213.251594 
" clip-path="url(#p0070f33b5c)" style="fill: none; stroke: #1f77b4; stroke-width: 1.5"/>
    <path d="M 157.481459 202.916783 
L 157.481459 202.729571 
" clip-path="url(#p0070f33b5c)" style="fill: none; stroke: #1f77b4; stroke-width: 1.5"/>
    <path d="M 159.230796 196.575515 
L 159.230796 196.36485 
" clip-path="url(#p0070f33b5c)" style="fill: none; stroke: #1f77b4; stroke-width: 1.5"/>
    <path d="M 160.980134 212.878882 
L 160.980134 212.708288 
" clip-path="url(#p0070f33b5c)" style="fill: none; stroke: #1f77b4; stroke-width: 1.5"/>
    <path d="M 162.729472 218.202373 
L 162.729472 218.047563 
" clip-path="url(#p0070f33b5c)" style="fill: none; stroke: #1f77b4; stroke-width: 1.5"/>
    <path d="M 164.478809 206.453575 
L 164.478809 206.257763 
" clip-path="url(#p0070f33b5c)" style="fill: none; stroke: #1f77b4; stroke-width: 1.5"/>
    <path d="M 166.228147 211.917852 
L 166.228147 211.730396 
" clip-path="url(#p0070f33b5c)" style="fill: none; stroke: #1f77b4; stroke-width: 1.5"/>
    <path d="M 167.977484 217.99391 
L 167.977484 217.820332 
" clip-path="url(#p0070f33b5c)" style="fill: none; stroke: #1f77b4; stroke-width: 1.5"/>
    <path d="M 169.726822 211.179744 
L 169.726822 210.970247 
" clip-path="url(#p0070f33b5c)" style="fill: none; stroke: #1f77b4; stroke-width: 1.5"/>
    <path d="M 171.476159 204.754496 
L 171.476159 204.514211 
" clip-path="url(#p0070f33b5c)" style="fill: none; stroke: #1f77b4; stroke-width: 1.5"/>
    <path d="M 173.225497 203.165099 
L 173.225497 202.901935 
" clip-path="url(#p0070f33b5c)" style="fill: none; stroke: #1f77b4; stroke-width: 1.5"/>
    <path d="M 174.974835 209.076785 
L 174.974835 208.822782 
" clip-path="url(#p0070f33b5c)" style="fill: none; stroke: #1f77b4; stroke-width: 1.5"/>
    <path d="M 176.724172 217.356436 
L 176.724172 217.132865 
" clip-path="url(#p0070f33b5c)" style="fill: none; stroke: #1f77b4; stroke-width: 1.5"/>
    <path d="M 178.47351 215.644694 
L 178.47351 215.410581 
" clip-path="url(#p0070f33b5c)" style="fill: none; stroke: #1f77b4; stroke-width: 1.5"/>
    <path d="M 180.222847 217.631452 
L 180.222847 217.406246 
" clip-path="url(#p0070f33b5c)" style="fill: none; stroke: #1f77b4; stroke-width: 1.5"/>
    <path d="M 181.972185 217.594445 
L 181.972185 217.368896 
" clip-path="url(#p0070f33b5c)" style="fill: none; stroke: #1f77b4; stroke-width: 1.5"/>
    <path d="M 183.721523 207.041998 
L 183.721523 206.759292 
" clip-path="url(#p0070f33b5c)" style="fill: none; stroke: #1f77b4; stroke-width: 1.5"/>
    <path d="M 185.47086 215.783715 
L 185.47086 215.53662 
" clip-path="url(#p0070f33b5c)" style="fill: none; stroke: #1f77b4; stroke-width: 1.5"/>
    <path d="M 187.220198 196.308962 
L 187.220198 195.967459 
" clip-path="url(#p0070f33b5c)" style="fill: none; stroke: #1f77b4; stroke-width: 1.5"/>
    <path d="M 188.969535 215.084484 
L 188.969535 214.821333 
" clip-path="url(#p0070f33b5c)" style="fill: none; stroke: #1f77b4; stroke-width: 1.5"/>
    <path d="M 190.718873 211.617333 
L 190.718873 211.328116 
" clip-path="url(#p0070f33b5c)" style="fill: none; stroke: #1f77b4; stroke-width: 1.5"/>
    <path d="M 192.468211 216.658652 
L 192.468211 216.390693 
" clip-path="url(#p0070f33b5c)" style="fill: none; stroke: #1f77b4; stroke-width: 1.5"/>
    <path d="M 194.217548 213.962289 
L 194.217548 213.674239 
" clip-path="url(#p0070f33b5c)" style="fill: none; stroke: #1f77b4; stroke-width: 1.5"/>
    <path d="M 195.966886 216.280245 
L 195.966886 215.995393 
" clip-path="url(#p0070f33b5c)" style="fill: none; stroke: #1f77b4; stroke-width: 1.5"/>
    <path d="M 197.716223 176.091931 
L 197.716223 175.608403 
" clip-path="url(#p0070f33b5c)" style="fill: none; stroke: #1f77b4; stroke-width: 1.5"/>
    <path d="M 199.465561 216.004548 
L 199.465561 215.701919 
" clip-path="url(#p0070f33b5c)" style="fill: none; stroke: #1f77b4; stroke-width: 1.5"/>
    <path d="M 201.214899 199.494162 
L 201.214899 199.092168 
" clip-path="url(#p0070f33b5c)" style="fill: none; stroke: #1f77b4; stroke-width: 1.5"/>
    <path d="M 202.964236 215.664277 
L 202.964236 215.34511 
" clip-path="url(#p0070f33b5c)" style="fill: none; stroke: #1f77b4; stroke-width: 1.5"/>
    <path d="M 204.713574 215.931216 
L 204.713574 215.608189 
" clip-path="url(#p0070f33b5c)" style="fill: none; stroke: #1f77b4; stroke-width: 1.5"/>
    <path d="M 206.462911 196.435474 
L 206.462911 195.995129 
" clip-path="url(#p0070f33b5c)" style="fill: none; stroke: #1f77b4; stroke-width: 1.5"/>
    <path d="M 208.212249 215.624025 
L 208.212249 215.290408 
" clip-path="url(#p0070f33b5c)" style="fill: none; stroke: #1f77b4; stroke-width: 1.5"/>
    <path d="M 209.961587 215.911835 
L 209.961587 215.573343 
" clip-path="url(#p0070f33b5c)" style="fill: none; stroke: #1f77b4; stroke-width: 1.5"/>
    <path d="M 211.710924 216.22283 
L 211.710924 215.88058 
" clip-path="url(#p0070f33b5c)" style="fill: none; stroke: #1f77b4; stroke-width: 1.5"/>
    <path d="M 213.460262 216.186208 
L 213.460262 215.833194 
" clip-path="url(#p0070f33b5c)" style="fill: none; stroke: #1f77b4; stroke-width: 1.5"/>
    <path d="M 215.209599 216.479612 
L 215.209599 216.120747 
" clip-path="url(#p0070f33b5c)" style="fill: none; stroke: #1f77b4; stroke-width: 1.5"/>
    <path d="M 216.958937 213.732193 
L 216.958937 213.341534 
" clip-path="url(#p0070f33b5c)" style="fill: none; stroke: #1f77b4; stroke-width: 1.5"/>
    <path d="M 218.708275 216.076571 
L 218.708275 215.697048 
" clip-path="url(#p0070f33b5c)" style="fill: none; stroke: #1f77b4; stroke-width: 1.5"/>
    <path d="M 220.457612 215.66715 
L 220.457612 215.274405 
" clip-path="url(#p0070f33b5c)" style="fill: none; stroke: #1f77b4; stroke-width: 1.5"/>
    <path d="M 222.20695 214.867609 
L 222.20695 214.457823 
" clip-path="url(#p0070f33b5c)" style="fill: none; stroke: #1f77b4; stroke-width: 1.5"/>
    <path d="M 223.956287 214.349731 
L 223.956287 213.925638 
" clip-path="url(#p0070f33b5c)" style="fill: none; stroke: #1f77b4; stroke-width: 1.5"/>
    <path d="M 225.705625 215.795231 
L 225.705625 215.371092 
" clip-path="url(#p0070f33b5c)" style="fill: none; stroke: #1f77b4; stroke-width: 1.5"/>
    <path d="M 227.454963 215.697646 
L 227.454963 215.259497 
" clip-path="url(#p0070f33b5c)" style="fill: none; stroke: #1f77b4; stroke-width: 1.5"/>
    <path d="M 229.2043 208.978402 
L 229.2043 208.470721 
" clip-path="url(#p0070f33b5c)" style="fill: none; stroke: #1f77b4; stroke-width: 1.5"/>
    <path d="M 230.953638 203.169646 
L 230.953638 202.596475 
" clip-path="url(#p0070f33b5c)" style="fill: none; stroke: #1f77b4; stroke-width: 1.5"/>
    <path d="M 232.702975 215.479571 
L 232.702975 214.999775 
" clip-path="url(#p0070f33b5c)" style="fill: none; stroke: #1f77b4; stroke-width: 1.5"/>
    <path d="M 234.452313 216.72209 
L 234.452313 216.255936 
" clip-path="url(#p0070f33b5c)" style="fill: none; stroke: #1f77b4; stroke-width: 1.5"/>
    <path d="M 236.201651 217.727304 
L 236.201651 217.27261 
" clip-path="url(#p0070f33b5c)" style="fill: none; stroke: #1f77b4; stroke-width: 1.5"/>
    <path d="M 237.950988 212.271173 
L 237.950988 211.717165 
" clip-path="url(#p0070f33b5c)" style="fill: none; stroke: #1f77b4; stroke-width: 1.5"/>
    <path d="M 239.700326 215.198117 
L 239.700326 214.659362 
" clip-path="url(#p0070f33b5c)" style="fill: none; stroke: #1f77b4; stroke-width: 1.5"/>
    <path d="M 241.449663 215.465742 
L 241.449663 214.920695 
" clip-path="url(#p0070f33b5c)" style="fill: none; stroke: #1f77b4; stroke-width: 1.5"/>
    <path d="M 243.199001 214.983116 
L 243.199001 214.428728 
" clip-path="url(#p0070f33b5c)" style="fill: none; stroke: #1f77b4; stroke-width: 1.5"/>
    <path d="M 244.948339 213.923695 
L 244.948339 213.349911 
" clip-path="url(#p0070f33b5c)" style="fill: none; stroke: #1f77b4; stroke-width: 1.5"/>
    <path d="M 246.697676 113.152083 
L 246.697676 111.880464 
" clip-path="url(#p0070f33b5c)" style="fill: none; stroke: #1f77b4; stroke-width: 1.5"/>
    <path d="M 248.447014 199.643396 
L 248.447014 198.920662 
" clip-path="url(#p0070f33b5c)" style="fill: none; stroke: #1f77b4; stroke-width: 1.5"/>
    <path d="M 250.196351 214.006995 
L 250.196351 213.418189 
" clip-path="url(#p0070f33b5c)" style="fill: none; stroke: #1f77b4; stroke-width: 1.5"/>
    <path d="M 251.945689 214.668323 
L 251.945689 214.076655 
" clip-path="url(#p0070f33b5c)" style="fill: none; stroke: #1f77b4; stroke-width: 1.5"/>
    <path d="M 253.695027 214.315612 
L 253.695027 213.709304 
" clip-path="url(#p0070f33b5c)" style="fill: none; stroke: #1f77b4; stroke-width: 1.5"/>
    <path d="M 255.444364 213.021752 
L 255.444364 212.389664 
" clip-path="url(#p0070f33b5c)" style="fill: none; stroke: #1f77b4; stroke-width: 1.5"/>
    <path d="M 257.193702 20.432907 
L 257.193702 18.589654 
" clip-path="url(#p0070f33b5c)" style="fill: none; stroke: #1f77b4; stroke-width: 1.5"/>
    <path d="M 258.943039 164.141679 
L 258.943039 163.039516 
" clip-path="url(#p0070f33b5c)" style="fill: none; stroke: #1f77b4; stroke-width: 1.5"/>
    <path d="M 260.692377 214.304987 
L 260.692377 213.66295 
" clip-path="url(#p0070f33b5c)" style="fill: none; stroke: #1f77b4; stroke-width: 1.5"/>
    <path d="M 262.441715 214.491351 
L 262.441715 213.836564 
" clip-path="url(#p0070f33b5c)" style="fill: none; stroke: #1f77b4; stroke-width: 1.5"/>
    <path d="M 264.191052 215.827639 
L 264.191052 215.183554 
" clip-path="url(#p0070f33b5c)" style="fill: none; stroke: #1f77b4; stroke-width: 1.5"/>
    <path d="M 265.94039 215.531508 
L 265.94039 214.86687 
" clip-path="url(#p0070f33b5c)" style="fill: none; stroke: #1f77b4; stroke-width: 1.5"/>
    <path d="M 267.689727 214.815359 
L 267.689727 214.131799 
" clip-path="url(#p0070f33b5c)" style="fill: none; stroke: #1f77b4; stroke-width: 1.5"/>
    <path d="M 269.439065 215.498274 
L 269.439065 214.814033 
" clip-path="url(#p0070f33b5c)" style="fill: none; stroke: #1f77b4; stroke-width: 1.5"/>
    <path d="M 271.188403 216.307605 
L 271.188403 215.62501 
" clip-path="url(#p0070f33b5c)" style="fill: none; stroke: #1f77b4; stroke-width: 1.5"/>
    <path d="M 272.93774 215.121957 
L 272.93774 214.404243 
" clip-path="url(#p0070f33b5c)" style="fill: none; stroke: #1f77b4; stroke-width: 1.5"/>
    <path d="M 274.687078 215.193447 
L 274.687078 214.470838 
" clip-path="url(#p0070f33b5c)" style="fill: none; stroke: #1f77b4; stroke-width: 1.5"/>
    <path d="M 276.436415 218.538712 
L 276.436415 217.907057 
" clip-path="url(#p0070f33b5c)" style="fill: none; stroke: #1f77b4; stroke-width: 1.5"/>
    <path d="M 278.185753 215.782202 
L 278.185753 215.045378 
" clip-path="url(#p0070f33b5c)" style="fill: none; stroke: #1f77b4; stroke-width: 1.5"/>
    <path d="M 279.935091 215.414763 
L 279.935091 214.654064 
" clip-path="url(#p0070f33b5c)" style="fill: none; stroke: #1f77b4; stroke-width: 1.5"/>
    <path d="M 281.684428 216.152814 
L 281.684428 215.392055 
" clip-path="url(#p0070f33b5c)" style="fill: none; stroke: #1f77b4; stroke-width: 1.5"/>
    <path d="M 283.433766 215.988827 
L 283.433766 215.212051 
" clip-path="url(#p0070f33b5c)" style="fill: none; stroke: #1f77b4; stroke-width: 1.5"/>
    <path d="M 285.183103 215.5667 
L 285.183103 214.765408 
" clip-path="url(#p0070f33b5c)" style="fill: none; stroke: #1f77b4; stroke-width: 1.5"/>
    <path d="M 286.932441 216.209557 
L 286.932441 215.406971 
" clip-path="url(#p0070f33b5c)" style="fill: none; stroke: #1f77b4; stroke-width: 1.5"/>
    <path d="M 288.681778 215.767392 
L 288.681778 214.935026 
" clip-path="url(#p0070f33b5c)" style="fill: none; stroke: #1f77b4; stroke-width: 1.5"/>
    <path d="M 290.431116 215.79375 
L 290.431116 214.951772 
" clip-path="url(#p0070f33b5c)" style="fill: none; stroke: #1f77b4; stroke-width: 1.5"/>
    <path d="M 292.180454 215.312876 
L 292.180454 214.440666 
" clip-path="url(#p0070f33b5c)" style="fill: none; stroke: #1f77b4; stroke-width: 1.5"/>
    <path d="M 293.929791 216.28957 
L 293.929791 215.424317 
" clip-path="url(#p0070f33b5c)" style="fill: none; stroke: #1f77b4; stroke-width: 1.5"/>
    <path d="M 295.679129 215.497883 
L 295.679129 214.597804 
" clip-path="url(#p0070f33b5c)" style="fill: none; stroke: #1f77b4; stroke-width: 1.5"/>
    <path d="M 297.428466 216.07172 
L 297.428466 215.17468 
" clip-path="url(#p0070f33b5c)" style="fill: none; stroke: #1f77b4; stroke-width: 1.5"/>
    <path d="M 299.177804 215.946806 
L 299.177804 215.047728 
" clip-path="url(#p0070f33b5c)" style="fill: none; stroke: #1f77b4; stroke-width: 1.5"/>
    <path d="M 300.927142 216.210726 
L 300.927142 215.302306 
" clip-path="url(#p0070f33b5c)" style="fill: none; stroke: #1f77b4; stroke-width: 1.5"/>
    <path d="M 302.676479 209.72603 
L 302.676479 208.69958 
" clip-path="url(#p0070f33b5c)" style="fill: none; stroke: #1f77b4; stroke-width: 1.5"/>
    <path d="M 304.425817 173.729929 
L 304.425817 172.173766 
" clip-path="url(#p0070f33b5c)" style="fill: none; stroke: #1f77b4; stroke-width: 1.5"/>
    <path d="M 306.175154 215.174323 
L 306.175154 214.21104 
" clip-path="url(#p0070f33b5c)" style="fill: none; stroke: #1f77b4; stroke-width: 1.5"/>
    <path d="M 307.924492 215.279735 
L 307.924492 214.298822 
" clip-path="url(#p0070f33b5c)" style="fill: none; stroke: #1f77b4; stroke-width: 1.5"/>
    <path d="M 309.67383 216.090465 
L 309.67383 215.102821 
" clip-path="url(#p0070f33b5c)" style="fill: none; stroke: #1f77b4; stroke-width: 1.5"/>
    <path d="M 311.423167 215.426007 
L 311.423167 214.403769 
" clip-path="url(#p0070f33b5c)" style="fill: none; stroke: #1f77b4; stroke-width: 1.5"/>
    <path d="M 313.172505 215.604341 
L 313.172505 214.562086 
" clip-path="url(#p0070f33b5c)" style="fill: none; stroke: #1f77b4; stroke-width: 1.5"/>
    <path d="M 314.921842 216.482031 
L 314.921842 215.448501 
" clip-path="url(#p0070f33b5c)" style="fill: none; stroke: #1f77b4; stroke-width: 1.5"/>
    <path d="M 316.67118 216.171992 
L 316.67118 215.098155 
" clip-path="url(#p0070f33b5c)" style="fill: none; stroke: #1f77b4; stroke-width: 1.5"/>
    <path d="M 318.420518 214.20313 
L 318.420518 213.054205 
" clip-path="url(#p0070f33b5c)" style="fill: none; stroke: #1f77b4; stroke-width: 1.5"/>
    <path d="M 320.169855 215.021281 
L 320.169855 213.888764 
" clip-path="url(#p0070f33b5c)" style="fill: none; stroke: #1f77b4; stroke-width: 1.5"/>
    <path d="M 321.919193 215.010326 
L 321.919193 213.849235 
" clip-path="url(#p0070f33b5c)" style="fill: none; stroke: #1f77b4; stroke-width: 1.5"/>
    <path d="M 323.66853 216.027214 
L 323.66853 214.871971 
" clip-path="url(#p0070f33b5c)" style="fill: none; stroke: #1f77b4; stroke-width: 1.5"/>
    <path d="M 325.417868 214.638153 
L 325.417868 213.403746 
" clip-path="url(#p0070f33b5c)" style="fill: none; stroke: #1f77b4; stroke-width: 1.5"/>
    <path d="M 327.167206 190.201394 
L 327.167206 188.462685 
" clip-path="url(#p0070f33b5c)" style="fill: none; stroke: #1f77b4; stroke-width: 1.5"/>
    <path d="M 328.916543 183.303988 
L 328.916543 181.411792 
" clip-path="url(#p0070f33b5c)" style="fill: none; stroke: #1f77b4; stroke-width: 1.5"/>
    <path d="M 330.665881 215.575575 
L 330.665881 214.317546 
" clip-path="url(#p0070f33b5c)" style="fill: none; stroke: #1f77b4; stroke-width: 1.5"/>
    <path d="M 332.415218 215.558481 
L 332.415218 214.27951 
" clip-path="url(#p0070f33b5c)" style="fill: none; stroke: #1f77b4; stroke-width: 1.5"/>
    <path d="M 334.164556 214.405269 
L 334.164556 213.069225 
" clip-path="url(#p0070f33b5c)" style="fill: none; stroke: #1f77b4; stroke-width: 1.5"/>
    <path d="M 335.913894 215.072663 
L 335.913894 213.707344 
" clip-path="url(#p0070f33b5c)" style="fill: none; stroke: #1f77b4; stroke-width: 1.5"/>
    <path d="M 337.663231 215.233836 
L 337.663231 213.856375 
" clip-path="url(#p0070f33b5c)" style="fill: none; stroke: #1f77b4; stroke-width: 1.5"/>
    <path d="M 339.412569 214.588124 
L 339.412569 213.143528 
" clip-path="url(#p0070f33b5c)" style="fill: none; stroke: #1f77b4; stroke-width: 1.5"/>
    <path d="M 341.161906 215.64205 
L 341.161906 214.197619 
" clip-path="url(#p0070f33b5c)" style="fill: none; stroke: #1f77b4; stroke-width: 1.5"/>
    <path d="M 342.911244 214.879258 
L 342.911244 213.381181 
" clip-path="url(#p0070f33b5c)" style="fill: none; stroke: #1f77b4; stroke-width: 1.5"/>
    <path d="M 344.660582 213.689395 
L 344.660582 212.096369 
" clip-path="url(#p0070f33b5c)" style="fill: none; stroke: #1f77b4; stroke-width: 1.5"/>
    <path d="M 346.409919 216.051973 
L 346.409919 214.506728 
" clip-path="url(#p0070f33b5c)" style="fill: none; stroke: #1f77b4; stroke-width: 1.5"/>
    <path d="M 348.159257 214.736873 
L 348.159257 213.096111 
" clip-path="url(#p0070f33b5c)" style="fill: none; stroke: #1f77b4; stroke-width: 1.5"/>
    <path d="M 349.908594 216.232947 
L 349.908594 214.622217 
" clip-path="url(#p0070f33b5c)" style="fill: none; stroke: #1f77b4; stroke-width: 1.5"/>
    <path d="M 351.657932 216.421647 
L 351.657932 214.76832 
" clip-path="url(#p0070f33b5c)" style="fill: none; stroke: #1f77b4; stroke-width: 1.5"/>
    <path d="M 353.40727 216.952274 
L 353.40727 215.294236 
" clip-path="url(#p0070f33b5c)" style="fill: none; stroke: #1f77b4; stroke-width: 1.5"/>
    <path d="M 355.156607 216.128588 
L 355.156607 214.359363 
" clip-path="url(#p0070f33b5c)" style="fill: none; stroke: #1f77b4; stroke-width: 1.5"/>
    <path d="M 356.905945 215.372095 
L 356.905945 213.527513 
" clip-path="url(#p0070f33b5c)" style="fill: none; stroke: #1f77b4; stroke-width: 1.5"/>
    <path d="M 358.655282 210.197347 
L 358.655282 208.135345 
" clip-path="url(#p0070f33b5c)" style="fill: none; stroke: #1f77b4; stroke-width: 1.5"/>
    <path d="M 360.40462 125.816898 
L 360.40462 121.66777 
" clip-path="url(#p0070f33b5c)" style="fill: none; stroke: #1f77b4; stroke-width: 1.5"/>
    <path d="M 362.153958 187.61419 
L 362.153958 184.668242 
" clip-path="url(#p0070f33b5c)" style="fill: none; stroke: #1f77b4; stroke-width: 1.5"/>
    <path d="M 363.903295 214.753564 
L 363.903295 212.634315 
" clip-path="url(#p0070f33b5c)" style="fill: none; stroke: #1f77b4; stroke-width: 1.5"/>
    <path d="M 365.652633 215.78601 
L 365.652633 213.677705 
" clip-path="url(#p0070f33b5c)" style="fill: none; stroke: #1f77b4; stroke-width: 1.5"/>
    <path d="M 367.40197 214.860099 
L 367.40197 212.617639 
" clip-path="url(#p0070f33b5c)" style="fill: none; stroke: #1f77b4; stroke-width: 1.5"/>
    <path d="M 369.151308 216.691725 
L 369.151308 214.640599 
" clip-path="url(#p0070f33b5c)" style="fill: none; stroke: #1f77b4; stroke-width: 1.5"/>
    <path d="M 370.900646 216.901691 
L 370.900646 214.720569 
" clip-path="url(#p0070f33b5c)" style="fill: none; stroke: #1f77b4; stroke-width: 1.5"/>
    <path d="M 372.649983 217.919958 
L 372.649983 215.548016 
" clip-path="url(#p0070f33b5c)" style="fill: none; stroke: #1f77b4; stroke-width: 1.5"/>
    <path d="M 374.399321 215.578548 
L 374.399321 212.996531 
" clip-path="url(#p0070f33b5c)" style="fill: none; stroke: #1f77b4; stroke-width: 1.5"/>
    <path d="M 376.148658 215.528195 
L 376.148658 212.771387 
" clip-path="url(#p0070f33b5c)" style="fill: none; stroke: #1f77b4; stroke-width: 1.5"/>
    <path d="M 377.897996 216.552744 
L 377.897996 213.761091 
" clip-path="url(#p0070f33b5c)" style="fill: none; stroke: #1f77b4; stroke-width: 1.5"/>
    <path d="M 379.647334 218.86343 
L 379.647334 216.100712 
" clip-path="url(#p0070f33b5c)" style="fill: none; stroke: #1f77b4; stroke-width: 1.5"/>
    <path d="M 381.396671 219.719174 
L 381.396671 216.823124 
" clip-path="url(#p0070f33b5c)" style="fill: none; stroke: #1f77b4; stroke-width: 1.5"/>
    <path d="M 383.146009 214.477494 
L 383.146009 210.909432 
" clip-path="url(#p0070f33b5c)" style="fill: none; stroke: #1f77b4; stroke-width: 1.5"/>
    <path d="M 384.895346 214.860905 
L 384.895346 211.002488 
" clip-path="url(#p0070f33b5c)" style="fill: none; stroke: #1f77b4; stroke-width: 1.5"/>
    <path d="M 386.644684 216.193816 
L 386.644684 211.996394 
" clip-path="url(#p0070f33b5c)" style="fill: none; stroke: #1f77b4; stroke-width: 1.5"/>
    <path d="M 388.394022 219.96242 
L 388.394022 215.768727 
" clip-path="url(#p0070f33b5c)" style="fill: none; stroke: #1f77b4; stroke-width: 1.5"/>
    <path d="M 390.143359 216.078181 
L 390.143359 210.701579 
" clip-path="url(#p0070f33b5c)" style="fill: none; stroke: #1f77b4; stroke-width: 1.5"/>
    <path d="M 391.892697 218.528124 
L 391.892697 212.800226 
" clip-path="url(#p0070f33b5c)" style="fill: none; stroke: #1f77b4; stroke-width: 1.5"/>
    <path d="M 393.642034 217.088885 
L 393.642034 209.040198 
" clip-path="url(#p0070f33b5c)" style="fill: none; stroke: #1f77b4; stroke-width: 1.5"/>
    <path d="M 395.391372 220.470812 
L 395.391372 209.167635 
" clip-path="url(#p0070f33b5c)" style="fill: none; stroke: #1f77b4; stroke-width: 1.5"/>
    <path d="M 397.14071 236.757668 
L 397.14071 223.738985 
" clip-path="url(#p0070f33b5c)" style="fill: none; stroke: #1f77b4; stroke-width: 1.5"/>
    <path d="M 398.890047 225.972638 
L 398.890047 160.879222 
" clip-path="url(#p0070f33b5c)" style="fill: none; stroke: #1f77b4; stroke-width: 1.5"/>
   </g>
  </g>
 </g>
 <defs>
  <clipPath id="p0070f33b5c">
   <rect x="34.240625" y="8.974428" width="382.93" height="231.810751"/>
  </clipPath>
 </defs>
</svg>
