<?xml version="1.0" encoding="utf-8" standalone="no"?>
<!DOCTYPE svg PUBLIC "-//W3C//DTD SVG 1.1//EN"
  "http://www.w3.org/Graphics/SVG/1.1/DTD/svg11.dtd">
<svg xmlns:xlink="http://www.w3.org/1999/xlink" width="401.690625pt" height="268.200625pt" viewBox="0 0 401.690625 268.200625" xmlns="http://www.w3.org/2000/svg" version="1.1">
 <metadata>
  <rdf:RDF xmlns:dc="http://purl.org/dc/elements/1.1/" xmlns:cc="http://creativecommons.org/ns#" xmlns:rdf="http://www.w3.org/1999/02/22-rdf-syntax-ns#">
   <cc:Work>
    <dc:type rdf:resource="http://purl.org/dc/dcmitype/StillImage"/>
    <dc:date>2025-11-19T13:16:28.679868</dc:date>
    <dc:format>image/svg+xml</dc:format>
    <dc:creator>
     <cc:Agent>
      <dc:title>Matplotlib v3.10.7, https://matplotlib.org/</dc:title>
     </cc:Agent>
    </dc:creator>
   </cc:Work>
  </rdf:RDF>
 </metadata>
 <defs>
  <style type="text/css">*{stroke-linejoin: round; stroke-linecap: butt}</style>
 </defs>
 <g id="figure_1">
  <g id="patch_1">
   <path d="M 0 268.200625 
L 401.690625 268.200625 
L 401.690625 0 
L 0 0 
z
" style="fill: #ffffff"/>
  </g>
  <g id="axes_1">
   <g id="patch_2">
    <path d="M 59.690625 228.96 
L 394.490625 228.96 
L 394.490625 7.2 
L 59.690625 7.2 
z
" style="fill: #ffffff"/>
   </g>
   <g id="matplotlib.axis_1">
    <g id="xtick_1">
     <g id="line2d_1">
      <defs>
       <path id="mf9027e297b" d="M 0 0 
L 0 3.5 
" style="stroke: #000000; stroke-width: 0.8"/>
      </defs>
      <g>
       <use xlink:href="#mf9027e297b" x="74.552621" y="228.96" style="stroke: #000000; stroke-width: 0.8"/>
      </g>
     </g>
     <g id="text_1">
      <!-- 0.0 -->
      <g transform="translate(66.601058 243.558437) scale(0.1 -0.1)">
       <defs>
        <path id="DejaVuSans-30" d="M 2034 4250 
Q 1547 4250 1301 3770 
Q 1056 3291 1056 2328 
Q 1056 1369 1301 889 
Q 1547 409 2034 409 
Q 2525 409 2770 889 
Q 3016 1369 3016 2328 
Q 3016 3291 2770 3770 
Q 2525 4250 2034 4250 
z
M 2034 4750 
Q 2819 4750 3233 4129 
Q 3647 3509 3647 2328 
Q 3647 1150 3233 529 
Q 2819 -91 2034 -91 
Q 1250 -91 836 529 
Q 422 1150 422 2328 
Q 422 3509 836 4129 
Q 1250 4750 2034 4750 
z
" transform="scale(0.015625)"/>
        <path id="DejaVuSans-2e" d="M 684 794 
L 1344 794 
L 1344 0 
L 684 0 
L 684 794 
z
" transform="scale(0.015625)"/>
       </defs>
       <use xlink:href="#DejaVuSans-30"/>
       <use xlink:href="#DejaVuSans-2e" transform="translate(63.623047 0)"/>
       <use xlink:href="#DejaVuSans-30" transform="translate(95.410156 0)"/>
      </g>
     </g>
    </g>
    <g id="xtick_2">
     <g id="line2d_2">
      <g>
       <use xlink:href="#mf9027e297b" x="132.286021" y="228.96" style="stroke: #000000; stroke-width: 0.8"/>
      </g>
     </g>
     <g id="text_2">
      <!-- 0.2 -->
      <g transform="translate(124.334459 243.558437) scale(0.1 -0.1)">
       <defs>
        <path id="DejaVuSans-32" d="M 1228 531 
L 3431 531 
L 3431 0 
L 469 0 
L 469 531 
Q 828 903 1448 1529 
Q 2069 2156 2228 2338 
Q 2531 2678 2651 2914 
Q 2772 3150 2772 3378 
Q 2772 3750 2511 3984 
Q 2250 4219 1831 4219 
Q 1534 4219 1204 4116 
Q 875 4013 500 3803 
L 500 4441 
Q 881 4594 1212 4672 
Q 1544 4750 1819 4750 
Q 2544 4750 2975 4387 
Q 3406 4025 3406 3419 
Q 3406 3131 3298 2873 
Q 3191 2616 2906 2266 
Q 2828 2175 2409 1742 
Q 1991 1309 1228 531 
z
" transform="scale(0.015625)"/>
       </defs>
       <use xlink:href="#DejaVuSans-30"/>
       <use xlink:href="#DejaVuSans-2e" transform="translate(63.623047 0)"/>
       <use xlink:href="#DejaVuSans-32" transform="translate(95.410156 0)"/>
      </g>
     </g>
    </g>
    <g id="xtick_3">
     <g id="line2d_3">
      <g>
       <use xlink:href="#mf9027e297b" x="190.019422" y="228.96" style="stroke: #000000; stroke-width: 0.8"/>
      </g>
     </g>
     <g id="text_3">
      <!-- 0.4 -->
      <g transform="translate(182.067859 243.558437) scale(0.1 -0.1)">
       <defs>
        <path id="DejaVuSans-34" d="M 2419 4116 
L 825 1625 
L 2419 1625 
L 2419 4116 
z
M 2253 4666 
L 3047 4666 
L 3047 1625 
L 3713 1625 
L 3713 1100 
L 3047 1100 
L 3047 0 
L 2419 0 
L 2419 1100 
L 313 1100 
L 313 1709 
L 2253 4666 
z
" transform="scale(0.015625)"/>
       </defs>
       <use xlink:href="#DejaVuSans-30"/>
       <use xlink:href="#DejaVuSans-2e" transform="translate(63.623047 0)"/>
       <use xlink:href="#DejaVuSans-34" transform="translate(95.410156 0)"/>
      </g>
     </g>
    </g>
    <g id="xtick_4">
     <g id="line2d_4">
      <g>
       <use xlink:href="#mf9027e297b" x="247.752822" y="228.96" style="stroke: #000000; stroke-width: 0.8"/>
      </g>
     </g>
     <g id="text_4">
      <!-- 0.6 -->
      <g transform="translate(239.801259 243.558437) scale(0.1 -0.1)">
       <defs>
        <path id="DejaVuSans-36" d="M 2113 2584 
Q 1688 2584 1439 2293 
Q 1191 2003 1191 1497 
Q 1191 994 1439 701 
Q 1688 409 2113 409 
Q 2538 409 2786 701 
Q 3034 994 3034 1497 
Q 3034 2003 2786 2293 
Q 2538 2584 2113 2584 
z
M 3366 4563 
L 3366 3988 
Q 3128 4100 2886 4159 
Q 2644 4219 2406 4219 
Q 1781 4219 1451 3797 
Q 1122 3375 1075 2522 
Q 1259 2794 1537 2939 
Q 1816 3084 2150 3084 
Q 2853 3084 3261 2657 
Q 3669 2231 3669 1497 
Q 3669 778 3244 343 
Q 2819 -91 2113 -91 
Q 1303 -91 875 529 
Q 447 1150 447 2328 
Q 447 3434 972 4092 
Q 1497 4750 2381 4750 
Q 2619 4750 2861 4703 
Q 3103 4656 3366 4563 
z
" transform="scale(0.015625)"/>
       </defs>
       <use xlink:href="#DejaVuSans-30"/>
       <use xlink:href="#DejaVuSans-2e" transform="translate(63.623047 0)"/>
       <use xlink:href="#DejaVuSans-36" transform="translate(95.410156 0)"/>
      </g>
     </g>
    </g>
    <g id="xtick_5">
     <g id="line2d_5">
      <g>
       <use xlink:href="#mf9027e297b" x="305.486222" y="228.96" style="stroke: #000000; stroke-width: 0.8"/>
      </g>
     </g>
     <g id="text_5">
      <!-- 0.8 -->
      <g transform="translate(297.53466 243.558437) scale(0.1 -0.1)">
       <defs>
        <path id="DejaVuSans-38" d="M 2034 2216 
Q 1584 2216 1326 1975 
Q 1069 1734 1069 1313 
Q 1069 891 1326 650 
Q 1584 409 2034 409 
Q 2484 409 2743 651 
Q 3003 894 3003 1313 
Q 3003 1734 2745 1975 
Q 2488 2216 2034 2216 
z
M 1403 2484 
Q 997 2584 770 2862 
Q 544 3141 544 3541 
Q 544 4100 942 4425 
Q 1341 4750 2034 4750 
Q 2731 4750 3128 4425 
Q 3525 4100 3525 3541 
Q 3525 3141 3298 2862 
Q 3072 2584 2669 2484 
Q 3125 2378 3379 2068 
Q 3634 1759 3634 1313 
Q 3634 634 3220 271 
Q 2806 -91 2034 -91 
Q 1263 -91 848 271 
Q 434 634 434 1313 
Q 434 1759 690 2068 
Q 947 2378 1403 2484 
z
M 1172 3481 
Q 1172 3119 1398 2916 
Q 1625 2713 2034 2713 
Q 2441 2713 2670 2916 
Q 2900 3119 2900 3481 
Q 2900 3844 2670 4047 
Q 2441 4250 2034 4250 
Q 1625 4250 1398 4047 
Q 1172 3844 1172 3481 
z
" transform="scale(0.015625)"/>
       </defs>
       <use xlink:href="#DejaVuSans-30"/>
       <use xlink:href="#DejaVuSans-2e" transform="translate(63.623047 0)"/>
       <use xlink:href="#DejaVuSans-38" transform="translate(95.410156 0)"/>
      </g>
     </g>
    </g>
    <g id="xtick_6">
     <g id="line2d_6">
      <g>
       <use xlink:href="#mf9027e297b" x="363.219622" y="228.96" style="stroke: #000000; stroke-width: 0.8"/>
      </g>
     </g>
     <g id="text_6">
      <!-- 1.0 -->
      <g transform="translate(355.26806 243.558437) scale(0.1 -0.1)">
       <defs>
        <path id="DejaVuSans-31" d="M 794 531 
L 1825 531 
L 1825 4091 
L 703 3866 
L 703 4441 
L 1819 4666 
L 2450 4666 
L 2450 531 
L 3481 531 
L 3481 0 
L 794 0 
L 794 531 
z
" transform="scale(0.015625)"/>
       </defs>
       <use xlink:href="#DejaVuSans-31"/>
       <use xlink:href="#DejaVuSans-2e" transform="translate(63.623047 0)"/>
       <use xlink:href="#DejaVuSans-30" transform="translate(95.410156 0)"/>
      </g>
     </g>
    </g>
    <g id="text_7">
     <!-- wavelength [Å] -->
     <g transform="translate(189.053125 258.920937) scale(0.1 -0.1)">
      <defs>
       <path id="DejaVuSans-77" d="M 269 3500 
L 844 3500 
L 1563 769 
L 2278 3500 
L 2956 3500 
L 3675 769 
L 4391 3500 
L 4966 3500 
L 4050 0 
L 3372 0 
L 2619 2869 
L 1863 0 
L 1184 0 
L 269 3500 
z
" transform="scale(0.015625)"/>
       <path id="DejaVuSans-61" d="M 2194 1759 
Q 1497 1759 1228 1600 
Q 959 1441 959 1056 
Q 959 750 1161 570 
Q 1363 391 1709 391 
Q 2188 391 2477 730 
Q 2766 1069 2766 1631 
L 2766 1759 
L 2194 1759 
z
M 3341 1997 
L 3341 0 
L 2766 0 
L 2766 531 
Q 2569 213 2275 61 
Q 1981 -91 1556 -91 
Q 1019 -91 701 211 
Q 384 513 384 1019 
Q 384 1609 779 1909 
Q 1175 2209 1959 2209 
L 2766 2209 
L 2766 2266 
Q 2766 2663 2505 2880 
Q 2244 3097 1772 3097 
Q 1472 3097 1187 3025 
Q 903 2953 641 2809 
L 641 3341 
Q 956 3463 1253 3523 
Q 1550 3584 1831 3584 
Q 2591 3584 2966 3190 
Q 3341 2797 3341 1997 
z
" transform="scale(0.015625)"/>
       <path id="DejaVuSans-76" d="M 191 3500 
L 800 3500 
L 1894 563 
L 2988 3500 
L 3597 3500 
L 2284 0 
L 1503 0 
L 191 3500 
z
" transform="scale(0.015625)"/>
       <path id="DejaVuSans-65" d="M 3597 1894 
L 3597 1613 
L 953 1613 
Q 991 1019 1311 708 
Q 1631 397 2203 397 
Q 2534 397 2845 478 
Q 3156 559 3463 722 
L 3463 178 
Q 3153 47 2828 -22 
Q 2503 -91 2169 -91 
Q 1331 -91 842 396 
Q 353 884 353 1716 
Q 353 2575 817 3079 
Q 1281 3584 2069 3584 
Q 2775 3584 3186 3129 
Q 3597 2675 3597 1894 
z
M 3022 2063 
Q 3016 2534 2758 2815 
Q 2500 3097 2075 3097 
Q 1594 3097 1305 2825 
Q 1016 2553 972 2059 
L 3022 2063 
z
" transform="scale(0.015625)"/>
       <path id="DejaVuSans-6c" d="M 603 4863 
L 1178 4863 
L 1178 0 
L 603 0 
L 603 4863 
z
" transform="scale(0.015625)"/>
       <path id="DejaVuSans-6e" d="M 3513 2113 
L 3513 0 
L 2938 0 
L 2938 2094 
Q 2938 2591 2744 2837 
Q 2550 3084 2163 3084 
Q 1697 3084 1428 2787 
Q 1159 2491 1159 1978 
L 1159 0 
L 581 0 
L 581 3500 
L 1159 3500 
L 1159 2956 
Q 1366 3272 1645 3428 
Q 1925 3584 2291 3584 
Q 2894 3584 3203 3211 
Q 3513 2838 3513 2113 
z
" transform="scale(0.015625)"/>
       <path id="DejaVuSans-67" d="M 2906 1791 
Q 2906 2416 2648 2759 
Q 2391 3103 1925 3103 
Q 1463 3103 1205 2759 
Q 947 2416 947 1791 
Q 947 1169 1205 825 
Q 1463 481 1925 481 
Q 2391 481 2648 825 
Q 2906 1169 2906 1791 
z
M 3481 434 
Q 3481 -459 3084 -895 
Q 2688 -1331 1869 -1331 
Q 1566 -1331 1297 -1286 
Q 1028 -1241 775 -1147 
L 775 -588 
Q 1028 -725 1275 -790 
Q 1522 -856 1778 -856 
Q 2344 -856 2625 -561 
Q 2906 -266 2906 331 
L 2906 616 
Q 2728 306 2450 153 
Q 2172 0 1784 0 
Q 1141 0 747 490 
Q 353 981 353 1791 
Q 353 2603 747 3093 
Q 1141 3584 1784 3584 
Q 2172 3584 2450 3431 
Q 2728 3278 2906 2969 
L 2906 3500 
L 3481 3500 
L 3481 434 
z
" transform="scale(0.015625)"/>
       <path id="DejaVuSans-74" d="M 1172 4494 
L 1172 3500 
L 2356 3500 
L 2356 3053 
L 1172 3053 
L 1172 1153 
Q 1172 725 1289 603 
Q 1406 481 1766 481 
L 2356 481 
L 2356 0 
L 1766 0 
Q 1100 0 847 248 
Q 594 497 594 1153 
L 594 3053 
L 172 3053 
L 172 3500 
L 594 3500 
L 594 4494 
L 1172 4494 
z
" transform="scale(0.015625)"/>
       <path id="DejaVuSans-68" d="M 3513 2113 
L 3513 0 
L 2938 0 
L 2938 2094 
Q 2938 2591 2744 2837 
Q 2550 3084 2163 3084 
Q 1697 3084 1428 2787 
Q 1159 2491 1159 1978 
L 1159 0 
L 581 0 
L 581 4863 
L 1159 4863 
L 1159 2956 
Q 1366 3272 1645 3428 
Q 1925 3584 2291 3584 
Q 2894 3584 3203 3211 
Q 3513 2838 3513 2113 
z
" transform="scale(0.015625)"/>
       <path id="DejaVuSans-20" transform="scale(0.015625)"/>
       <path id="DejaVuSans-5b" d="M 550 4863 
L 1875 4863 
L 1875 4416 
L 1125 4416 
L 1125 -397 
L 1875 -397 
L 1875 -844 
L 550 -844 
L 550 4863 
z
" transform="scale(0.015625)"/>
       <path id="DejaVuSans-c5" d="M 2663 5081 
Q 2663 5278 2523 5417 
Q 2384 5556 2188 5556 
Q 1988 5556 1852 5420 
Q 1716 5284 1716 5081 
Q 1716 4884 1853 4746 
Q 1991 4609 2188 4609 
Q 2384 4609 2523 4746 
Q 2663 4884 2663 5081 
z
M 2188 4044 
L 1338 1722 
L 3041 1722 
L 2188 4044 
z
M 1716 4366 
Q 1525 4494 1428 4673 
Q 1331 4853 1331 5081 
Q 1331 5441 1579 5691 
Q 1828 5941 2188 5941 
Q 2544 5941 2795 5689 
Q 3047 5438 3047 5081 
Q 3047 4863 2948 4678 
Q 2850 4494 2663 4366 
L 4325 0 
L 3669 0 
L 3244 1197 
L 1141 1197 
L 716 0 
L 50 0 
L 1716 4366 
z
" transform="scale(0.015625)"/>
       <path id="DejaVuSans-5d" d="M 1947 4863 
L 1947 -844 
L 622 -844 
L 622 -397 
L 1369 -397 
L 1369 4416 
L 622 4416 
L 622 4863 
L 1947 4863 
z
" transform="scale(0.015625)"/>
      </defs>
      <use xlink:href="#DejaVuSans-77"/>
      <use xlink:href="#DejaVuSans-61" transform="translate(81.787109 0)"/>
      <use xlink:href="#DejaVuSans-76" transform="translate(143.066406 0)"/>
      <use xlink:href="#DejaVuSans-65" transform="translate(202.246094 0)"/>
      <use xlink:href="#DejaVuSans-6c" transform="translate(263.769531 0)"/>
      <use xlink:href="#DejaVuSans-65" transform="translate(291.552734 0)"/>
      <use xlink:href="#DejaVuSans-6e" transform="translate(353.076172 0)"/>
      <use xlink:href="#DejaVuSans-67" transform="translate(416.455078 0)"/>
      <use xlink:href="#DejaVuSans-74" transform="translate(479.931641 0)"/>
      <use xlink:href="#DejaVuSans-68" transform="translate(519.140625 0)"/>
      <use xlink:href="#DejaVuSans-20" transform="translate(582.519531 0)"/>
      <use xlink:href="#DejaVuSans-5b" transform="translate(614.306641 0)"/>
      <use xlink:href="#DejaVuSans-c5" transform="translate(653.320312 0)"/>
      <use xlink:href="#DejaVuSans-5d" transform="translate(721.728516 0)"/>
     </g>
    </g>
   </g>
   <g id="matplotlib.axis_2">
    <g id="ytick_1">
     <g id="line2d_7">
      <defs>
       <path id="mb2c874000a" d="M 0 0 
L -3.5 0 
" style="stroke: #000000; stroke-width: 0.8"/>
      </defs>
      <g>
       <use xlink:href="#mb2c874000a" x="59.690625" y="219.611497" style="stroke: #000000; stroke-width: 0.8"/>
      </g>
     </g>
     <g id="text_8">
      <!-- 0 -->
      <g transform="translate(46.328125 223.410715) scale(0.1 -0.1)">
       <use xlink:href="#DejaVuSans-30"/>
      </g>
     </g>
    </g>
    <g id="ytick_2">
     <g id="line2d_8">
      <g>
       <use xlink:href="#mb2c874000a" x="59.690625" y="171.801275" style="stroke: #000000; stroke-width: 0.8"/>
      </g>
     </g>
     <g id="text_9">
      <!-- 20000 -->
      <g transform="translate(20.878125 175.600494) scale(0.1 -0.1)">
       <use xlink:href="#DejaVuSans-32"/>
       <use xlink:href="#DejaVuSans-30" transform="translate(63.623047 0)"/>
       <use xlink:href="#DejaVuSans-30" transform="translate(127.246094 0)"/>
       <use xlink:href="#DejaVuSans-30" transform="translate(190.869141 0)"/>
       <use xlink:href="#DejaVuSans-30" transform="translate(254.492188 0)"/>
      </g>
     </g>
    </g>
    <g id="ytick_3">
     <g id="line2d_9">
      <g>
       <use xlink:href="#mb2c874000a" x="59.690625" y="123.991053" style="stroke: #000000; stroke-width: 0.8"/>
      </g>
     </g>
     <g id="text_10">
      <!-- 40000 -->
      <g transform="translate(20.878125 127.790272) scale(0.1 -0.1)">
       <use xlink:href="#DejaVuSans-34"/>
       <use xlink:href="#DejaVuSans-30" transform="translate(63.623047 0)"/>
       <use xlink:href="#DejaVuSans-30" transform="translate(127.246094 0)"/>
       <use xlink:href="#DejaVuSans-30" transform="translate(190.869141 0)"/>
       <use xlink:href="#DejaVuSans-30" transform="translate(254.492188 0)"/>
      </g>
     </g>
    </g>
    <g id="ytick_4">
     <g id="line2d_10">
      <g>
       <use xlink:href="#mb2c874000a" x="59.690625" y="76.180831" style="stroke: #000000; stroke-width: 0.8"/>
      </g>
     </g>
     <g id="text_11">
      <!-- 60000 -->
      <g transform="translate(20.878125 79.98005) scale(0.1 -0.1)">
       <use xlink:href="#DejaVuSans-36"/>
       <use xlink:href="#DejaVuSans-30" transform="translate(63.623047 0)"/>
       <use xlink:href="#DejaVuSans-30" transform="translate(127.246094 0)"/>
       <use xlink:href="#DejaVuSans-30" transform="translate(190.869141 0)"/>
       <use xlink:href="#DejaVuSans-30" transform="translate(254.492188 0)"/>
      </g>
     </g>
    </g>
    <g id="ytick_5">
     <g id="line2d_11">
      <g>
       <use xlink:href="#mb2c874000a" x="59.690625" y="28.370609" style="stroke: #000000; stroke-width: 0.8"/>
      </g>
     </g>
     <g id="text_12">
      <!-- 80000 -->
      <g transform="translate(20.878125 32.169828) scale(0.1 -0.1)">
       <use xlink:href="#DejaVuSans-38"/>
       <use xlink:href="#DejaVuSans-30" transform="translate(63.623047 0)"/>
       <use xlink:href="#DejaVuSans-30" transform="translate(127.246094 0)"/>
       <use xlink:href="#DejaVuSans-30" transform="translate(190.869141 0)"/>
       <use xlink:href="#DejaVuSans-30" transform="translate(254.492188 0)"/>
      </g>
     </g>
    </g>
    <g id="text_13">
     <!-- [counts] -->
     <g transform="translate(14.798438 138.6925) rotate(-90) scale(0.1 -0.1)">
      <defs>
       <path id="DejaVuSans-63" d="M 3122 3366 
L 3122 2828 
Q 2878 2963 2633 3030 
Q 2388 3097 2138 3097 
Q 1578 3097 1268 2742 
Q 959 2388 959 1747 
Q 959 1106 1268 751 
Q 1578 397 2138 397 
Q 2388 397 2633 464 
Q 2878 531 3122 666 
L 3122 134 
Q 2881 22 2623 -34 
Q 2366 -91 2075 -91 
Q 1284 -91 818 406 
Q 353 903 353 1747 
Q 353 2603 823 3093 
Q 1294 3584 2113 3584 
Q 2378 3584 2631 3529 
Q 2884 3475 3122 3366 
z
" transform="scale(0.015625)"/>
       <path id="DejaVuSans-6f" d="M 1959 3097 
Q 1497 3097 1228 2736 
Q 959 2375 959 1747 
Q 959 1119 1226 758 
Q 1494 397 1959 397 
Q 2419 397 2687 759 
Q 2956 1122 2956 1747 
Q 2956 2369 2687 2733 
Q 2419 3097 1959 3097 
z
M 1959 3584 
Q 2709 3584 3137 3096 
Q 3566 2609 3566 1747 
Q 3566 888 3137 398 
Q 2709 -91 1959 -91 
Q 1206 -91 779 398 
Q 353 888 353 1747 
Q 353 2609 779 3096 
Q 1206 3584 1959 3584 
z
" transform="scale(0.015625)"/>
       <path id="DejaVuSans-75" d="M 544 1381 
L 544 3500 
L 1119 3500 
L 1119 1403 
Q 1119 906 1312 657 
Q 1506 409 1894 409 
Q 2359 409 2629 706 
Q 2900 1003 2900 1516 
L 2900 3500 
L 3475 3500 
L 3475 0 
L 2900 0 
L 2900 538 
Q 2691 219 2414 64 
Q 2138 -91 1772 -91 
Q 1169 -91 856 284 
Q 544 659 544 1381 
z
M 1991 3584 
L 1991 3584 
z
" transform="scale(0.015625)"/>
       <path id="DejaVuSans-73" d="M 2834 3397 
L 2834 2853 
Q 2591 2978 2328 3040 
Q 2066 3103 1784 3103 
Q 1356 3103 1142 2972 
Q 928 2841 928 2578 
Q 928 2378 1081 2264 
Q 1234 2150 1697 2047 
L 1894 2003 
Q 2506 1872 2764 1633 
Q 3022 1394 3022 966 
Q 3022 478 2636 193 
Q 2250 -91 1575 -91 
Q 1294 -91 989 -36 
Q 684 19 347 128 
L 347 722 
Q 666 556 975 473 
Q 1284 391 1588 391 
Q 1994 391 2212 530 
Q 2431 669 2431 922 
Q 2431 1156 2273 1281 
Q 2116 1406 1581 1522 
L 1381 1569 
Q 847 1681 609 1914 
Q 372 2147 372 2553 
Q 372 3047 722 3315 
Q 1072 3584 1716 3584 
Q 2034 3584 2315 3537 
Q 2597 3491 2834 3397 
z
" transform="scale(0.015625)"/>
      </defs>
      <use xlink:href="#DejaVuSans-5b"/>
      <use xlink:href="#DejaVuSans-63" transform="translate(39.013672 0)"/>
      <use xlink:href="#DejaVuSans-6f" transform="translate(93.994141 0)"/>
      <use xlink:href="#DejaVuSans-75" transform="translate(155.175781 0)"/>
      <use xlink:href="#DejaVuSans-6e" transform="translate(218.554688 0)"/>
      <use xlink:href="#DejaVuSans-74" transform="translate(281.933594 0)"/>
      <use xlink:href="#DejaVuSans-73" transform="translate(321.142578 0)"/>
      <use xlink:href="#DejaVuSans-5d" transform="translate(373.242188 0)"/>
     </g>
    </g>
   </g>
   <g id="line2d_12">
    <path d="M 74.908807 195.357371 
L 75.923352 195.357371 
L 75.923352 200.009306 
L 76.937898 200.009306 
L 76.937898 201.419707 
L 77.952443 201.419707 
L 77.952443 202.815766 
L 78.966989 202.815766 
L 78.966989 203.750456 
L 79.981534 203.750456 
L 79.981534 203.95843 
L 80.99608 203.95843 
L 80.99608 204.620602 
L 82.010625 204.620602 
L 82.010625 205.244525 
L 83.02517 205.244525 
L 83.02517 204.257244 
L 84.039716 204.257244 
L 84.039716 201.598996 
L 85.054261 201.598996 
L 85.054261 198.794926 
L 86.068807 198.794926 
L 86.068807 197.87697 
L 87.083352 197.87697 
L 87.083352 196.347043 
L 88.097898 196.347043 
L 88.097898 196.012371 
L 89.112443 196.012371 
L 89.112443 194.88405 
L 90.126989 194.88405 
L 90.126989 193.540583 
L 91.141534 193.540583 
L 91.141534 192.785181 
L 92.15608 192.785181 
L 92.15608 191.585145 
L 93.170625 191.585145 
L 93.170625 190.342079 
L 94.18517 190.342079 
L 94.18517 188.733265 
L 95.199716 188.733265 
L 95.199716 187.423265 
L 96.214261 187.423265 
L 96.214261 185.539542 
L 97.228807 185.539542 
L 97.228807 184.08133 
L 98.243352 184.08133 
L 98.243352 182.34821 
L 99.257898 182.34821 
L 99.257898 179.943356 
L 100.272443 179.943356 
L 100.272443 177.710618 
L 101.286989 177.710618 
L 101.286989 175.561549 
L 102.301534 175.561549 
L 102.301534 173.249924 
L 103.31608 173.249924 
L 103.31608 170.65861 
L 104.330625 170.65861 
L 104.330625 168.700782 
L 105.34517 168.700782 
L 105.34517 165.824997 
L 106.359716 165.824997 
L 106.359716 163.200216 
L 107.374261 163.200216 
L 107.374261 162.220106 
L 108.388807 162.220106 
L 108.388807 158.648683 
L 109.403352 158.648683 
L 109.403352 156.043026 
L 110.417898 156.043026 
L 110.417898 153.858098 
L 111.432443 153.858098 
L 111.432443 151.818993 
L 112.446989 151.818993 
L 112.446989 149.684266 
L 113.461534 149.684266 
L 113.461534 147.862697 
L 114.47608 147.862697 
L 114.47608 144.922368 
L 115.490625 144.922368 
L 115.490625 144.422751 
L 116.50517 144.422751 
L 116.50517 144.018755 
L 117.519716 144.018755 
L 117.519716 142.292806 
L 118.534261 142.292806 
L 118.534261 142.823499 
L 119.548807 142.823499 
L 119.548807 141.083207 
L 120.563352 141.083207 
L 120.563352 139.885561 
L 121.577898 139.885561 
L 121.577898 140.660087 
L 122.592443 140.660087 
L 122.592443 139.97401 
L 123.606989 139.97401 
L 123.606989 142.204357 
L 125.63608 142.225871 
L 125.63608 144.795671 
L 126.650625 144.795671 
L 126.650625 143.423518 
L 127.66517 143.423518 
L 127.66517 139.959667 
L 128.679716 139.959667 
L 128.679716 138.386711 
L 129.694261 138.386711 
L 129.694261 136.904594 
L 130.708807 136.904594 
L 130.708807 135.601765 
L 131.723352 135.601765 
L 131.723352 136.251984 
L 132.737898 136.251984 
L 132.737898 136.6512 
L 133.752443 136.6512 
L 133.752443 134.0814 
L 134.766989 134.0814 
L 134.766989 132.690123 
L 135.781534 132.690123 
L 135.781534 131.055013 
L 136.79608 131.055013 
L 136.79608 130.787276 
L 137.810625 130.787276 
L 137.810625 129.957769 
L 138.82517 129.957769 
L 138.82517 126.575195 
L 139.839716 126.575195 
L 139.839716 125.927367 
L 140.854261 125.927367 
L 140.854261 125.212604 
L 141.868807 125.212604 
L 141.868807 124.108188 
L 142.883352 124.108188 
L 142.883352 122.587823 
L 143.897898 122.587823 
L 143.897898 122.355943 
L 144.912443 122.355943 
L 144.912443 120.316837 
L 145.926989 120.316837 
L 145.926989 118.949465 
L 146.941534 118.949465 
L 146.941534 117.371728 
L 147.95608 117.371728 
L 147.95608 116.16691 
L 148.970625 116.16691 
L 148.970625 115.655341 
L 149.98517 115.655341 
L 149.98517 113.107056 
L 150.999716 113.107056 
L 150.999716 111.809008 
L 152.014261 111.809008 
L 152.014261 110.530085 
L 153.028807 110.530085 
L 153.028807 108.660705 
L 154.043352 108.660705 
L 154.043352 108.294957 
L 155.057898 108.294957 
L 155.057898 105.201636 
L 156.072443 105.201636 
L 156.072443 102.904354 
L 157.086989 102.904354 
L 157.086989 102.765705 
L 158.101534 102.765705 
L 158.101534 100.066818 
L 159.11608 100.066818 
L 159.11608 98.20461 
L 160.130625 98.20461 
L 160.130625 98.422146 
L 161.14517 98.422146 
L 161.14517 94.970248 
L 162.159716 94.970248 
L 162.159716 93.158241 
L 163.174261 93.158241 
L 163.174261 90.662547 
L 164.188807 90.662547 
L 164.188807 87.856087 
L 165.203352 87.856087 
L 165.203352 86.957255 
L 166.217898 86.957255 
L 166.217898 86.024956 
L 167.232443 86.024956 
L 167.232443 83.569901 
L 168.246989 83.569901 
L 168.246989 82.176233 
L 169.261534 82.176233 
L 169.261534 80.046287 
L 170.27608 80.046287 
L 170.27608 79.188094 
L 171.290625 79.188094 
L 171.290625 76.933842 
L 172.30517 76.933842 
L 172.30517 75.705119 
L 173.319716 75.705119 
L 173.319716 73.785539 
L 174.334261 73.785539 
L 174.334261 73.046871 
L 175.348807 73.046871 
L 175.348807 69.771871 
L 176.363352 69.771871 
L 176.363352 69.480228 
L 177.377898 69.480228 
L 177.377898 68.17979 
L 178.392443 68.17979 
L 178.392443 66.135903 
L 179.406989 66.135903 
L 179.406989 63.491998 
L 180.421534 63.491998 
L 180.421534 62.404316 
L 181.43608 62.404316 
L 181.43608 61.682381 
L 182.450625 61.682381 
L 182.450625 59.561998 
L 183.46517 59.561998 
L 183.46517 57.518111 
L 184.479716 57.518111 
L 184.479716 57.145191 
L 185.494261 57.145191 
L 185.494261 55.675027 
L 186.508807 55.675027 
L 186.508807 54.245501 
L 187.523352 54.245501 
L 187.523352 53.470976 
L 188.537898 53.470976 
L 188.537898 51.460556 
L 189.552443 51.460556 
L 189.552443 49.440574 
L 190.566989 49.440574 
L 190.566989 49.079607 
L 191.581534 49.079607 
L 191.581534 46.433311 
L 192.59608 46.433311 
L 192.59608 44.84123 
L 193.610625 44.84123 
L 193.610625 43.942398 
L 194.62517 43.942398 
L 194.62517 44.255555 
L 195.639716 44.255555 
L 195.639716 42.718457 
L 196.654261 42.718457 
L 196.654261 41.221997 
L 197.668807 41.221997 
L 197.668807 40.935135 
L 198.683352 40.935135 
L 198.683352 39.335883 
L 199.697898 39.335883 
L 199.697898 38.231467 
L 200.712443 38.231467 
L 200.712443 39.130299 
L 201.726989 39.130299 
L 201.726989 37.40196 
L 202.741534 37.40196 
L 202.741534 35.881595 
L 203.75608 35.881595 
L 203.75608 35.319825 
L 204.770625 35.319825 
L 204.770625 34.452069 
L 205.78517 34.452069 
L 205.78517 33.670372 
L 206.799716 33.670372 
L 206.799716 33.33331 
L 207.814261 33.33331 
L 207.814261 34.236923 
L 208.828807 34.236923 
L 208.828807 33.503036 
L 209.843352 33.503036 
L 209.843352 31.903784 
L 210.857898 31.903784 
L 210.857898 32.329295 
L 211.872443 32.329295 
L 211.872443 30.464697 
L 212.886989 30.464697 
L 212.886989 28.635956 
L 213.901534 28.635956 
L 213.901534 29.831211 
L 214.91608 29.831211 
L 214.91608 30.76112 
L 215.930625 30.76112 
L 215.930625 30.543584 
L 216.94517 30.543584 
L 216.94517 28.812854 
L 217.959716 28.812854 
L 217.959716 29.200116 
L 218.974261 29.200116 
L 218.974261 29.446339 
L 219.988807 29.446339 
L 219.988807 28.274989 
L 221.003352 28.274989 
L 221.003352 27.854259 
L 222.017898 27.854259 
L 222.017898 28.427981 
L 223.032443 28.427981 
L 223.032443 27.261412 
L 224.046989 27.261412 
L 224.046989 27.48612 
L 225.061534 27.48612 
L 225.061534 28.043109 
L 226.07608 28.043109 
L 226.07608 27.72039 
L 227.090625 27.72039 
L 227.090625 25.867744 
L 228.10517 25.867744 
L 228.10517 26.018346 
L 229.119716 26.018346 
L 229.119716 26.36258 
L 230.134261 26.36258 
L 230.134261 25.246211 
L 231.148807 25.246211 
L 231.148807 25.078875 
L 232.163352 25.078875 
L 232.163352 24.96174 
L 233.177898 24.96174 
L 233.177898 25.571321 
L 234.192443 25.571321 
L 234.192443 26.910007 
L 235.206989 26.910007 
L 235.206989 27.923583 
L 236.221534 27.923583 
L 236.221534 26.64466 
L 237.23608 26.64466 
L 237.23608 26.168948 
L 238.250625 26.168948 
L 238.250625 27.744295 
L 239.26517 27.744295 
L 239.26517 28.23435 
L 240.279716 28.23435 
L 240.279716 26.047032 
L 241.294261 26.047032 
L 241.294261 25.131467 
L 242.308807 25.131467 
L 242.308807 25.870134 
L 243.323352 25.870134 
L 243.323352 24.935445 
L 244.337898 24.935445 
L 244.337898 24.574477 
L 245.352443 24.574477 
L 245.352443 25.870134 
L 246.366989 25.870134 
L 246.366989 25.1482 
L 247.381534 25.1482 
L 247.381534 23.505919 
L 248.39608 23.505919 
L 248.39608 25.047799 
L 249.410625 25.047799 
L 249.410625 24.799185 
L 250.42517 24.799185 
L 250.42517 23.297945 
L 251.439716 23.297945 
L 251.439716 22.587963 
L 252.454261 22.587963 
L 252.454261 20.491484 
L 253.468807 20.491484 
L 253.468807 23.132999 
L 254.483352 23.132999 
L 254.483352 20.921776 
L 255.497898 20.921776 
L 255.497898 20.65643 
L 256.512443 20.65643 
L 256.512443 19.164751 
L 257.526989 19.164751 
L 257.526989 17.976667 
L 258.541534 17.976667 
L 258.541534 20.670773 
L 259.55608 20.670773 
L 259.55608 19.344039 
L 260.570625 19.344039 
L 260.570625 17.974276 
L 261.58517 17.974276 
L 261.58517 19.059568 
L 262.599716 19.059568 
L 262.599716 20.804641 
L 263.614261 20.804641 
L 263.614261 22.614258 
L 264.628807 22.614258 
L 264.628807 23.611101 
L 265.643352 23.611101 
L 265.643352 21.885152 
L 266.657898 21.885152 
L 266.657898 21.672397 
L 267.672443 21.672397 
L 267.672443 22.272415 
L 268.686989 22.272415 
L 268.686989 20.675554 
L 269.701534 20.675554 
L 269.701534 20.98632 
L 270.71608 20.98632 
L 270.71608 21.471594 
L 271.730625 21.471594 
L 271.730625 21.670006 
L 273.759716 21.68435 
L 273.759716 20.630134 
L 274.774261 20.630134 
L 274.774261 21.015006 
L 275.788807 21.015006 
L 275.788807 21.254058 
L 276.803352 21.254058 
L 276.803352 22.652507 
L 277.817898 22.652507 
L 277.817898 23.345755 
L 278.832443 23.345755 
L 278.832443 21.473985 
L 279.846989 21.473985 
L 279.846989 21.289915 
L 280.861534 21.289915 
L 280.861534 18.980681 
L 281.87608 18.980681 
L 281.87608 19.454003 
L 282.890625 19.454003 
L 282.890625 23.214277 
L 283.90517 23.214277 
L 283.90517 22.083565 
L 284.919716 22.083565 
L 284.919716 21.870809 
L 285.934261 21.870809 
L 285.934261 22.518638 
L 286.948807 22.518638 
L 286.948807 25.75539 
L 287.963352 25.75539 
L 287.963352 24.44539 
L 288.977898 24.44539 
L 288.977898 24.600773 
L 289.992443 24.600773 
L 289.992443 23.109094 
L 291.006989 23.109094 
L 291.006989 23.436594 
L 292.021534 23.436594 
L 292.021534 21.696302 
L 294.050625 21.713036 
L 294.050625 22.226996 
L 295.06517 22.226996 
L 295.06517 24.30674 
L 297.094261 24.318693 
L 297.094261 24.825481 
L 298.108807 24.825481 
L 298.108807 26.828729 
L 299.123352 26.828729 
L 299.123352 28.272598 
L 300.137898 28.272598 
L 300.137898 29.204897 
L 301.152443 29.204897 
L 301.152443 29.723638 
L 302.166989 29.723638 
L 302.166989 30.110901 
L 303.181534 30.110901 
L 303.181534 29.814478 
L 304.19608 29.814478 
L 304.19608 29.63758 
L 305.210625 29.63758 
L 305.210625 30.051138 
L 306.22517 30.051138 
L 306.22517 29.656704 
L 307.239716 29.656704 
L 307.239716 29.479806 
L 308.254261 29.479806 
L 308.254261 31.265518 
L 309.268807 31.265518 
L 309.268807 28.98497 
L 310.283352 28.98497 
L 310.283352 28.09331 
L 312.312443 28.174587 
L 312.312443 28.592927 
L 313.326989 28.592927 
L 313.326989 31.50935 
L 314.341534 31.50935 
L 314.341534 33.780336 
L 315.35608 33.780336 
L 315.35608 35.549314 
L 316.370625 35.549314 
L 316.370625 38.092818 
L 317.38517 38.092818 
L 317.38517 40.662617 
L 318.399716 40.662617 
L 318.399716 41.853092 
L 319.414261 41.853092 
L 319.414261 41.504077 
L 321.443352 41.525592 
L 321.443352 40.179734 
L 322.457898 40.179734 
L 322.457898 39.285683 
L 323.472443 39.285683 
L 323.472443 40.234716 
L 324.486989 40.234716 
L 324.486989 39.775737 
L 325.501534 39.775737 
L 325.501534 40.373365 
L 327.530625 40.308821 
L 327.530625 40.67457 
L 329.559716 40.665008 
L 329.559716 40.134314 
L 330.574261 40.134314 
L 330.574261 41.262635 
L 331.588807 41.262635 
L 331.588807 41.037927 
L 332.603352 41.037927 
L 332.603352 38.386851 
L 333.617898 38.386851 
L 333.617898 36.472051 
L 334.632443 36.472051 
L 334.632443 37.062507 
L 335.646989 37.062507 
L 335.646989 37.437818 
L 336.661534 37.437818 
L 336.661534 38.315135 
L 337.67608 38.315135 
L 337.67608 37.839423 
L 338.690625 37.839423 
L 338.690625 39.97654 
L 339.70517 39.97654 
L 339.70517 41.568621 
L 340.719716 41.568621 
L 340.719716 40.445081 
L 341.734261 40.445081 
L 341.734261 41.406066 
L 342.748807 41.406066 
L 342.748807 40.801267 
L 343.763352 40.801267 
L 343.763352 43.724862 
L 344.777898 43.724862 
L 344.777898 44.300975 
L 345.792443 44.300975 
L 345.792443 45.833293 
L 346.806989 45.833293 
L 346.806989 47.078749 
L 347.821534 47.078749 
L 347.821534 48.230975 
L 348.83608 48.230975 
L 348.83608 48.670829 
L 349.850625 48.670829 
L 349.850625 49.380811 
L 350.86517 49.380811 
L 350.86517 51.166523 
L 351.879716 51.166523 
L 351.879716 52.361778 
L 352.894261 52.361778 
L 352.894261 51.137837 
L 353.908807 51.137837 
L 353.908807 53.470976 
L 354.923352 53.470976 
L 354.923352 54.185738 
L 355.937898 54.185738 
L 355.937898 56.282217 
L 356.952443 56.282217 
L 356.952443 56.143567 
L 357.966989 56.143567 
L 357.966989 55.55072 
L 358.981534 55.55072 
L 358.981534 57.121286 
L 359.99608 57.121286 
L 359.99608 59.655228 
L 361.010625 59.655228 
L 361.010625 59.911012 
L 362.02517 59.911012 
L 362.02517 58.820939 
L 363.039716 58.820939 
L 363.039716 57.769114 
L 364.054261 57.769114 
L 364.054261 60.501469 
L 365.068807 60.501469 
L 365.068807 65.547838 
L 366.083352 65.547838 
L 366.083352 74.254079 
L 367.097898 74.254079 
L 367.097898 103.525887 
L 368.112443 103.525887 
L 368.112443 137.404211 
L 369.126989 137.404211 
L 369.126989 170.646658 
L 370.141534 170.646658 
L 370.141534 188.135637 
L 371.15608 188.135637 
L 371.15608 194.298375 
L 372.170625 194.298375 
L 372.170625 199.449926 
L 373.18517 199.449926 
L 373.18517 202.861185 
L 374.199716 202.861185 
L 374.199716 205.87801 
L 375.214261 205.87801 
L 375.214261 208.689251 
L 376.228807 208.689251 
L 376.228807 212.251113 
L 377.243352 212.251113 
L 377.243352 215.891861 
L 378.257898 215.891861 
L 378.257898 218.836971 
L 379.272443 218.836971 
L 379.272443 218.836971 
" clip-path="url(#p1a961b752d)" style="fill: none; stroke: #1f77b4; stroke-width: 1.5; stroke-linecap: square"/>
   </g>
   <g id="LineCollection_1">
    <path d="M 75.41608 195.598161 
L 75.41608 195.116581 
" clip-path="url(#p1a961b752d)" style="fill: none; stroke: #1f77b4; stroke-width: 1.5"/>
    <path d="M 76.430625 200.225776 
L 76.430625 199.792836 
" clip-path="url(#p1a961b752d)" style="fill: none; stroke: #1f77b4; stroke-width: 1.5"/>
    <path d="M 77.44517 201.628244 
L 77.44517 201.21117 
" clip-path="url(#p1a961b752d)" style="fill: none; stroke: #1f77b4; stroke-width: 1.5"/>
    <path d="M 78.459716 203.016141 
L 78.459716 202.61539 
" clip-path="url(#p1a961b752d)" style="fill: none; stroke: #1f77b4; stroke-width: 1.5"/>
    <path d="M 79.474261 203.945176 
L 79.474261 203.555735 
" clip-path="url(#p1a961b752d)" style="fill: none; stroke: #1f77b4; stroke-width: 1.5"/>
    <path d="M 80.488807 204.151869 
L 80.488807 203.764991 
" clip-path="url(#p1a961b752d)" style="fill: none; stroke: #1f77b4; stroke-width: 1.5"/>
    <path d="M 81.503352 204.809905 
L 81.503352 204.431298 
" clip-path="url(#p1a961b752d)" style="fill: none; stroke: #1f77b4; stroke-width: 1.5"/>
    <path d="M 82.517898 205.429847 
L 82.517898 205.059203 
" clip-path="url(#p1a961b752d)" style="fill: none; stroke: #1f77b4; stroke-width: 1.5"/>
    <path d="M 83.532443 204.448828 
L 83.532443 204.06566 
" clip-path="url(#p1a961b752d)" style="fill: none; stroke: #1f77b4; stroke-width: 1.5"/>
    <path d="M 84.546989 201.806502 
L 84.546989 201.391489 
" clip-path="url(#p1a961b752d)" style="fill: none; stroke: #1f77b4; stroke-width: 1.5"/>
    <path d="M 85.561534 199.018001 
L 85.561534 198.571852 
" clip-path="url(#p1a961b752d)" style="fill: none; stroke: #1f77b4; stroke-width: 1.5"/>
    <path d="M 86.57608 198.10491 
L 86.57608 197.64903 
" clip-path="url(#p1a961b752d)" style="fill: none; stroke: #1f77b4; stroke-width: 1.5"/>
    <path d="M 87.590625 196.582869 
L 87.590625 196.111217 
" clip-path="url(#p1a961b752d)" style="fill: none; stroke: #1f77b4; stroke-width: 1.5"/>
    <path d="M 88.60517 196.249887 
L 88.60517 195.774855 
" clip-path="url(#p1a961b752d)" style="fill: none; stroke: #1f77b4; stroke-width: 1.5"/>
    <path d="M 89.619716 195.127178 
L 89.619716 194.640922 
" clip-path="url(#p1a961b752d)" style="fill: none; stroke: #1f77b4; stroke-width: 1.5"/>
    <path d="M 90.634261 193.790228 
L 90.634261 193.290937 
" clip-path="url(#p1a961b752d)" style="fill: none; stroke: #1f77b4; stroke-width: 1.5"/>
    <path d="M 91.648807 193.038417 
L 91.648807 192.531945 
" clip-path="url(#p1a961b752d)" style="fill: none; stroke: #1f77b4; stroke-width: 1.5"/>
    <path d="M 92.663352 191.843983 
L 92.663352 191.326306 
" clip-path="url(#p1a961b752d)" style="fill: none; stroke: #1f77b4; stroke-width: 1.5"/>
    <path d="M 93.677898 190.606595 
L 93.677898 190.077563 
" clip-path="url(#p1a961b752d)" style="fill: none; stroke: #1f77b4; stroke-width: 1.5"/>
    <path d="M 94.692443 189.004954 
L 94.692443 188.461576 
" clip-path="url(#p1a961b752d)" style="fill: none; stroke: #1f77b4; stroke-width: 1.5"/>
    <path d="M 95.706989 187.700657 
L 95.706989 187.145873 
" clip-path="url(#p1a961b752d)" style="fill: none; stroke: #1f77b4; stroke-width: 1.5"/>
    <path d="M 96.721534 185.824935 
L 96.721534 185.254149 
" clip-path="url(#p1a961b752d)" style="fill: none; stroke: #1f77b4; stroke-width: 1.5"/>
    <path d="M 97.73608 184.372767 
L 97.73608 183.789894 
" clip-path="url(#p1a961b752d)" style="fill: none; stroke: #1f77b4; stroke-width: 1.5"/>
    <path d="M 98.750625 182.64667 
L 98.750625 182.04975 
" clip-path="url(#p1a961b752d)" style="fill: none; stroke: #1f77b4; stroke-width: 1.5"/>
    <path d="M 99.76517 180.251296 
L 99.76517 179.635415 
" clip-path="url(#p1a961b752d)" style="fill: none; stroke: #1f77b4; stroke-width: 1.5"/>
    <path d="M 100.779716 178.027106 
L 100.779716 177.39413 
" clip-path="url(#p1a961b752d)" style="fill: none; stroke: #1f77b4; stroke-width: 1.5"/>
    <path d="M 101.794261 175.886051 
L 101.794261 175.237046 
" clip-path="url(#p1a961b752d)" style="fill: none; stroke: #1f77b4; stroke-width: 1.5"/>
    <path d="M 102.808807 173.582833 
L 102.808807 172.917016 
" clip-path="url(#p1a961b752d)" style="fill: none; stroke: #1f77b4; stroke-width: 1.5"/>
    <path d="M 103.823352 171.000696 
L 103.823352 170.316525 
" clip-path="url(#p1a961b752d)" style="fill: none; stroke: #1f77b4; stroke-width: 1.5"/>
    <path d="M 104.837898 169.049641 
L 104.837898 168.351923 
" clip-path="url(#p1a961b752d)" style="fill: none; stroke: #1f77b4; stroke-width: 1.5"/>
    <path d="M 105.852443 166.183574 
L 105.852443 165.46642 
" clip-path="url(#p1a961b752d)" style="fill: none; stroke: #1f77b4; stroke-width: 1.5"/>
    <path d="M 106.866989 163.567438 
L 106.866989 162.832994 
" clip-path="url(#p1a961b752d)" style="fill: none; stroke: #1f77b4; stroke-width: 1.5"/>
    <path d="M 107.881534 162.590504 
L 107.881534 161.849708 
" clip-path="url(#p1a961b752d)" style="fill: none; stroke: #1f77b4; stroke-width: 1.5"/>
    <path d="M 108.89608 159.030432 
L 108.89608 158.266934 
" clip-path="url(#p1a961b752d)" style="fill: none; stroke: #1f77b4; stroke-width: 1.5"/>
    <path d="M 109.910625 156.432848 
L 109.910625 155.653204 
" clip-path="url(#p1a961b752d)" style="fill: none; stroke: #1f77b4; stroke-width: 1.5"/>
    <path d="M 110.92517 154.254563 
L 110.92517 153.461634 
" clip-path="url(#p1a961b752d)" style="fill: none; stroke: #1f77b4; stroke-width: 1.5"/>
    <path d="M 111.939716 152.221558 
L 111.939716 151.416427 
" clip-path="url(#p1a961b752d)" style="fill: none; stroke: #1f77b4; stroke-width: 1.5"/>
    <path d="M 112.954261 150.09312 
L 112.954261 149.275412 
" clip-path="url(#p1a961b752d)" style="fill: none; stroke: #1f77b4; stroke-width: 1.5"/>
    <path d="M 113.968807 148.276842 
L 113.968807 147.448551 
" clip-path="url(#p1a961b752d)" style="fill: none; stroke: #1f77b4; stroke-width: 1.5"/>
    <path d="M 114.983352 145.344914 
L 114.983352 144.499822 
" clip-path="url(#p1a961b752d)" style="fill: none; stroke: #1f77b4; stroke-width: 1.5"/>
    <path d="M 115.997898 144.846708 
L 115.997898 143.998794 
" clip-path="url(#p1a961b752d)" style="fill: none; stroke: #1f77b4; stroke-width: 1.5"/>
    <path d="M 117.012443 144.443849 
L 117.012443 143.59366 
" clip-path="url(#p1a961b752d)" style="fill: none; stroke: #1f77b4; stroke-width: 1.5"/>
    <path d="M 118.026989 142.722726 
L 118.026989 141.862886 
" clip-path="url(#p1a961b752d)" style="fill: none; stroke: #1f77b4; stroke-width: 1.5"/>
    <path d="M 119.041534 143.251941 
L 119.041534 142.395057 
" clip-path="url(#p1a961b752d)" style="fill: none; stroke: #1f77b4; stroke-width: 1.5"/>
    <path d="M 120.05608 141.516477 
L 120.05608 140.649937 
" clip-path="url(#p1a961b752d)" style="fill: none; stroke: #1f77b4; stroke-width: 1.5"/>
    <path d="M 121.070625 140.322122 
L 121.070625 139.449 
" clip-path="url(#p1a961b752d)" style="fill: none; stroke: #1f77b4; stroke-width: 1.5"/>
    <path d="M 122.08517 141.094522 
L 122.08517 140.225651 
" clip-path="url(#p1a961b752d)" style="fill: none; stroke: #1f77b4; stroke-width: 1.5"/>
    <path d="M 123.099716 140.410329 
L 123.099716 139.537691 
" clip-path="url(#p1a961b752d)" style="fill: none; stroke: #1f77b4; stroke-width: 1.5"/>
    <path d="M 124.114261 142.634523 
L 124.114261 141.774191 
" clip-path="url(#p1a961b752d)" style="fill: none; stroke: #1f77b4; stroke-width: 1.5"/>
    <path d="M 125.128807 142.655978 
L 125.128807 141.795765 
" clip-path="url(#p1a961b752d)" style="fill: none; stroke: #1f77b4; stroke-width: 1.5"/>
    <path d="M 126.143352 145.218575 
L 126.143352 144.372767 
" clip-path="url(#p1a961b752d)" style="fill: none; stroke: #1f77b4; stroke-width: 1.5"/>
    <path d="M 127.157898 143.850282 
L 127.157898 142.996753 
" clip-path="url(#p1a961b752d)" style="fill: none; stroke: #1f77b4; stroke-width: 1.5"/>
    <path d="M 128.172443 140.396025 
L 128.172443 139.523309 
" clip-path="url(#p1a961b752d)" style="fill: none; stroke: #1f77b4; stroke-width: 1.5"/>
    <path d="M 129.186989 138.827357 
L 129.186989 137.946065 
" clip-path="url(#p1a961b752d)" style="fill: none; stroke: #1f77b4; stroke-width: 1.5"/>
    <path d="M 130.201534 137.349242 
L 130.201534 136.459946 
" clip-path="url(#p1a961b752d)" style="fill: none; stroke: #1f77b4; stroke-width: 1.5"/>
    <path d="M 131.21608 136.049902 
L 131.21608 135.153629 
" clip-path="url(#p1a961b752d)" style="fill: none; stroke: #1f77b4; stroke-width: 1.5"/>
    <path d="M 132.230625 136.698383 
L 132.230625 135.805586 
" clip-path="url(#p1a961b752d)" style="fill: none; stroke: #1f77b4; stroke-width: 1.5"/>
    <path d="M 133.24517 137.096528 
L 133.24517 136.205871 
" clip-path="url(#p1a961b752d)" style="fill: none; stroke: #1f77b4; stroke-width: 1.5"/>
    <path d="M 134.259716 134.533573 
L 134.259716 133.629227 
" clip-path="url(#p1a961b752d)" style="fill: none; stroke: #1f77b4; stroke-width: 1.5"/>
    <path d="M 135.274261 133.145959 
L 135.274261 132.234287 
" clip-path="url(#p1a961b752d)" style="fill: none; stroke: #1f77b4; stroke-width: 1.5"/>
    <path d="M 136.288807 131.515117 
L 136.288807 130.59491 
" clip-path="url(#p1a961b752d)" style="fill: none; stroke: #1f77b4; stroke-width: 1.5"/>
    <path d="M 137.303352 131.248074 
L 137.303352 130.326477 
" clip-path="url(#p1a961b752d)" style="fill: none; stroke: #1f77b4; stroke-width: 1.5"/>
    <path d="M 138.317898 130.420714 
L 138.317898 129.494823 
" clip-path="url(#p1a961b752d)" style="fill: none; stroke: #1f77b4; stroke-width: 1.5"/>
    <path d="M 139.332443 127.046793 
L 139.332443 126.103598 
" clip-path="url(#p1a961b752d)" style="fill: none; stroke: #1f77b4; stroke-width: 1.5"/>
    <path d="M 140.346989 126.400604 
L 140.346989 125.45413 
" clip-path="url(#p1a961b752d)" style="fill: none; stroke: #1f77b4; stroke-width: 1.5"/>
    <path d="M 141.361534 125.687643 
L 141.361534 124.737565 
" clip-path="url(#p1a961b752d)" style="fill: none; stroke: #1f77b4; stroke-width: 1.5"/>
    <path d="M 142.37608 124.585997 
L 142.37608 123.630379 
" clip-path="url(#p1a961b752d)" style="fill: none; stroke: #1f77b4; stroke-width: 1.5"/>
    <path d="M 143.390625 123.06942 
L 143.390625 122.106225 
" clip-path="url(#p1a961b752d)" style="fill: none; stroke: #1f77b4; stroke-width: 1.5"/>
    <path d="M 144.40517 122.838116 
L 144.40517 121.873771 
" clip-path="url(#p1a961b752d)" style="fill: none; stroke: #1f77b4; stroke-width: 1.5"/>
    <path d="M 145.419716 120.804038 
L 145.419716 119.829636 
" clip-path="url(#p1a961b752d)" style="fill: none; stroke: #1f77b4; stroke-width: 1.5"/>
    <path d="M 146.434261 119.440009 
L 146.434261 118.458921 
" clip-path="url(#p1a961b752d)" style="fill: none; stroke: #1f77b4; stroke-width: 1.5"/>
    <path d="M 147.448807 117.866101 
L 147.448807 116.877354 
" clip-path="url(#p1a961b752d)" style="fill: none; stroke: #1f77b4; stroke-width: 1.5"/>
    <path d="M 148.463352 116.664188 
L 148.463352 115.669632 
" clip-path="url(#p1a961b752d)" style="fill: none; stroke: #1f77b4; stroke-width: 1.5"/>
    <path d="M 149.477898 116.153847 
L 149.477898 115.156835 
" clip-path="url(#p1a961b752d)" style="fill: none; stroke: #1f77b4; stroke-width: 1.5"/>
    <path d="M 150.492443 113.611635 
L 150.492443 112.602477 
" clip-path="url(#p1a961b752d)" style="fill: none; stroke: #1f77b4; stroke-width: 1.5"/>
    <path d="M 151.506989 112.316653 
L 151.506989 111.301364 
" clip-path="url(#p1a961b752d)" style="fill: none; stroke: #1f77b4; stroke-width: 1.5"/>
    <path d="M 152.521534 111.040732 
L 152.521534 110.019438 
" clip-path="url(#p1a961b752d)" style="fill: none; stroke: #1f77b4; stroke-width: 1.5"/>
    <path d="M 153.53608 109.175709 
L 153.53608 108.145701 
" clip-path="url(#p1a961b752d)" style="fill: none; stroke: #1f77b4; stroke-width: 1.5"/>
    <path d="M 154.550625 108.810809 
L 154.550625 107.779105 
" clip-path="url(#p1a961b752d)" style="fill: none; stroke: #1f77b4; stroke-width: 1.5"/>
    <path d="M 155.56517 105.724606 
L 155.56517 104.678665 
" clip-path="url(#p1a961b752d)" style="fill: none; stroke: #1f77b4; stroke-width: 1.5"/>
    <path d="M 156.579716 103.432549 
L 156.579716 102.37616 
" clip-path="url(#p1a961b752d)" style="fill: none; stroke: #1f77b4; stroke-width: 1.5"/>
    <path d="M 157.594261 103.294213 
L 157.594261 102.237196 
" clip-path="url(#p1a961b752d)" style="fill: none; stroke: #1f77b4; stroke-width: 1.5"/>
    <path d="M 158.608807 100.601395 
L 158.608807 99.532241 
" clip-path="url(#p1a961b752d)" style="fill: none; stroke: #1f77b4; stroke-width: 1.5"/>
    <path d="M 159.623352 98.743335 
L 159.623352 97.665885 
" clip-path="url(#p1a961b752d)" style="fill: none; stroke: #1f77b4; stroke-width: 1.5"/>
    <path d="M 160.637898 98.960388 
L 160.637898 97.883904 
" clip-path="url(#p1a961b752d)" style="fill: none; stroke: #1f77b4; stroke-width: 1.5"/>
    <path d="M 161.652443 95.516102 
L 161.652443 94.424394 
" clip-path="url(#p1a961b752d)" style="fill: none; stroke: #1f77b4; stroke-width: 1.5"/>
    <path d="M 162.666989 93.708048 
L 162.666989 92.608434 
" clip-path="url(#p1a961b752d)" style="fill: none; stroke: #1f77b4; stroke-width: 1.5"/>
    <path d="M 163.681534 91.217753 
L 163.681534 90.107341 
" clip-path="url(#p1a961b752d)" style="fill: none; stroke: #1f77b4; stroke-width: 1.5"/>
    <path d="M 164.69608 88.417303 
L 164.69608 87.294872 
" clip-path="url(#p1a961b752d)" style="fill: none; stroke: #1f77b4; stroke-width: 1.5"/>
    <path d="M 165.710625 87.520381 
L 165.710625 86.394128 
" clip-path="url(#p1a961b752d)" style="fill: none; stroke: #1f77b4; stroke-width: 1.5"/>
    <path d="M 166.72517 86.590057 
L 166.72517 85.459854 
" clip-path="url(#p1a961b752d)" style="fill: none; stroke: #1f77b4; stroke-width: 1.5"/>
    <path d="M 167.739716 84.140172 
L 167.739716 82.99963 
" clip-path="url(#p1a961b752d)" style="fill: none; stroke: #1f77b4; stroke-width: 1.5"/>
    <path d="M 168.754261 82.749417 
L 168.754261 81.603048 
" clip-path="url(#p1a961b752d)" style="fill: none; stroke: #1f77b4; stroke-width: 1.5"/>
    <path d="M 169.768807 80.623896 
L 169.768807 79.468678 
" clip-path="url(#p1a961b752d)" style="fill: none; stroke: #1f77b4; stroke-width: 1.5"/>
    <path d="M 170.783352 79.767476 
L 170.783352 78.608712 
" clip-path="url(#p1a961b752d)" style="fill: none; stroke: #1f77b4; stroke-width: 1.5"/>
    <path d="M 171.797898 77.517856 
L 171.797898 76.349828 
" clip-path="url(#p1a961b752d)" style="fill: none; stroke: #1f77b4; stroke-width: 1.5"/>
    <path d="M 172.812443 76.291643 
L 172.812443 75.118596 
" clip-path="url(#p1a961b752d)" style="fill: none; stroke: #1f77b4; stroke-width: 1.5"/>
    <path d="M 173.826989 74.375961 
L 173.826989 73.195116 
" clip-path="url(#p1a961b752d)" style="fill: none; stroke: #1f77b4; stroke-width: 1.5"/>
    <path d="M 174.841534 73.638787 
L 174.841534 72.454955 
" clip-path="url(#p1a961b752d)" style="fill: none; stroke: #1f77b4; stroke-width: 1.5"/>
    <path d="M 175.85608 70.370363 
L 175.85608 69.173378 
" clip-path="url(#p1a961b752d)" style="fill: none; stroke: #1f77b4; stroke-width: 1.5"/>
    <path d="M 176.870625 70.079303 
L 176.870625 68.881154 
" clip-path="url(#p1a961b752d)" style="fill: none; stroke: #1f77b4; stroke-width: 1.5"/>
    <path d="M 177.88517 68.781454 
L 177.88517 67.578127 
" clip-path="url(#p1a961b752d)" style="fill: none; stroke: #1f77b4; stroke-width: 1.5"/>
    <path d="M 178.899716 66.741614 
L 178.899716 65.530193 
" clip-path="url(#p1a961b752d)" style="fill: none; stroke: #1f77b4; stroke-width: 1.5"/>
    <path d="M 179.914261 64.102903 
L 179.914261 62.881093 
" clip-path="url(#p1a961b752d)" style="fill: none; stroke: #1f77b4; stroke-width: 1.5"/>
    <path d="M 180.928807 63.017345 
L 180.928807 61.791286 
" clip-path="url(#p1a961b752d)" style="fill: none; stroke: #1f77b4; stroke-width: 1.5"/>
    <path d="M 181.943352 62.296817 
L 181.943352 61.067945 
" clip-path="url(#p1a961b752d)" style="fill: none; stroke: #1f77b4; stroke-width: 1.5"/>
    <path d="M 182.957898 60.180545 
L 182.957898 58.943451 
" clip-path="url(#p1a961b752d)" style="fill: none; stroke: #1f77b4; stroke-width: 1.5"/>
    <path d="M 183.972443 58.140595 
L 183.972443 56.895627 
" clip-path="url(#p1a961b752d)" style="fill: none; stroke: #1f77b4; stroke-width: 1.5"/>
    <path d="M 184.986989 57.768391 
L 184.986989 56.521992 
" clip-path="url(#p1a961b752d)" style="fill: none; stroke: #1f77b4; stroke-width: 1.5"/>
    <path d="M 186.001534 56.30104 
L 186.001534 55.049014 
" clip-path="url(#p1a961b752d)" style="fill: none; stroke: #1f77b4; stroke-width: 1.5"/>
    <path d="M 187.01608 54.874237 
L 187.01608 53.616765 
" clip-path="url(#p1a961b752d)" style="fill: none; stroke: #1f77b4; stroke-width: 1.5"/>
    <path d="M 188.030625 54.101182 
L 188.030625 52.840769 
" clip-path="url(#p1a961b752d)" style="fill: none; stroke: #1f77b4; stroke-width: 1.5"/>
    <path d="M 189.04517 52.094564 
L 189.04517 50.826547 
" clip-path="url(#p1a961b752d)" style="fill: none; stroke: #1f77b4; stroke-width: 1.5"/>
    <path d="M 190.059716 50.078379 
L 190.059716 48.802769 
" clip-path="url(#p1a961b752d)" style="fill: none; stroke: #1f77b4; stroke-width: 1.5"/>
    <path d="M 191.074261 49.718088 
L 191.074261 48.441125 
" clip-path="url(#p1a961b752d)" style="fill: none; stroke: #1f77b4; stroke-width: 1.5"/>
    <path d="M 192.088807 47.076727 
L 192.088807 45.789895 
" clip-path="url(#p1a961b752d)" style="fill: none; stroke: #1f77b4; stroke-width: 1.5"/>
    <path d="M 193.103352 45.487597 
L 193.103352 44.194864 
" clip-path="url(#p1a961b752d)" style="fill: none; stroke: #1f77b4; stroke-width: 1.5"/>
    <path d="M 194.117898 44.590425 
L 194.117898 43.294371 
" clip-path="url(#p1a961b752d)" style="fill: none; stroke: #1f77b4; stroke-width: 1.5"/>
    <path d="M 195.132443 44.903004 
L 195.132443 43.608106 
" clip-path="url(#p1a961b752d)" style="fill: none; stroke: #1f77b4; stroke-width: 1.5"/>
    <path d="M 196.146989 43.368737 
L 196.146989 42.068176 
" clip-path="url(#p1a961b752d)" style="fill: none; stroke: #1f77b4; stroke-width: 1.5"/>
    <path d="M 197.161534 41.875022 
L 197.161534 40.568971 
" clip-path="url(#p1a961b752d)" style="fill: none; stroke: #1f77b4; stroke-width: 1.5"/>
    <path d="M 198.17608 41.588686 
L 198.17608 40.281585 
" clip-path="url(#p1a961b752d)" style="fill: none; stroke: #1f77b4; stroke-width: 1.5"/>
    <path d="M 199.190625 39.992352 
L 199.190625 38.679415 
" clip-path="url(#p1a961b752d)" style="fill: none; stroke: #1f77b4; stroke-width: 1.5"/>
    <path d="M 200.20517 38.889944 
L 200.20517 37.572991 
" clip-path="url(#p1a961b752d)" style="fill: none; stroke: #1f77b4; stroke-width: 1.5"/>
    <path d="M 201.219716 39.787142 
L 201.219716 38.473457 
" clip-path="url(#p1a961b752d)" style="fill: none; stroke: #1f77b4; stroke-width: 1.5"/>
    <path d="M 202.234261 38.06194 
L 202.234261 36.74198 
" clip-path="url(#p1a961b752d)" style="fill: none; stroke: #1f77b4; stroke-width: 1.5"/>
    <path d="M 203.248807 36.544323 
L 203.248807 35.218867 
" clip-path="url(#p1a961b752d)" style="fill: none; stroke: #1f77b4; stroke-width: 1.5"/>
    <path d="M 204.263352 35.983565 
L 204.263352 34.656084 
" clip-path="url(#p1a961b752d)" style="fill: none; stroke: #1f77b4; stroke-width: 1.5"/>
    <path d="M 205.277898 35.11737 
L 205.277898 33.786768 
" clip-path="url(#p1a961b752d)" style="fill: none; stroke: #1f77b4; stroke-width: 1.5"/>
    <path d="M 206.292443 34.337076 
L 206.292443 33.003668 
" clip-path="url(#p1a961b752d)" style="fill: none; stroke: #1f77b4; stroke-width: 1.5"/>
    <path d="M 207.306989 34.000618 
L 207.306989 32.666002 
" clip-path="url(#p1a961b752d)" style="fill: none; stroke: #1f77b4; stroke-width: 1.5"/>
    <path d="M 208.321534 34.902611 
L 208.321534 33.571236 
" clip-path="url(#p1a961b752d)" style="fill: none; stroke: #1f77b4; stroke-width: 1.5"/>
    <path d="M 209.33608 34.17004 
L 209.33608 32.836032 
" clip-path="url(#p1a961b752d)" style="fill: none; stroke: #1f77b4; stroke-width: 1.5"/>
    <path d="M 210.350625 32.573648 
L 210.350625 31.233921 
" clip-path="url(#p1a961b752d)" style="fill: none; stroke: #1f77b4; stroke-width: 1.5"/>
    <path d="M 211.36517 32.998399 
L 211.36517 31.660191 
" clip-path="url(#p1a961b752d)" style="fill: none; stroke: #1f77b4; stroke-width: 1.5"/>
    <path d="M 212.379716 31.137123 
L 212.379716 29.79227 
" clip-path="url(#p1a961b752d)" style="fill: none; stroke: #1f77b4; stroke-width: 1.5"/>
    <path d="M 213.394261 29.311625 
L 213.394261 27.960286 
" clip-path="url(#p1a961b752d)" style="fill: none; stroke: #1f77b4; stroke-width: 1.5"/>
    <path d="M 214.408807 30.504763 
L 214.408807 29.15766 
" clip-path="url(#p1a961b752d)" style="fill: none; stroke: #1f77b4; stroke-width: 1.5"/>
    <path d="M 215.423352 31.43302 
L 215.423352 30.089221 
" clip-path="url(#p1a961b752d)" style="fill: none; stroke: #1f77b4; stroke-width: 1.5"/>
    <path d="M 216.437898 31.21587 
L 216.437898 29.871297 
" clip-path="url(#p1a961b752d)" style="fill: none; stroke: #1f77b4; stroke-width: 1.5"/>
    <path d="M 217.452443 29.48821 
L 217.452443 28.137497 
" clip-path="url(#p1a961b752d)" style="fill: none; stroke: #1f77b4; stroke-width: 1.5"/>
    <path d="M 218.466989 29.874787 
L 218.466989 28.525446 
" clip-path="url(#p1a961b752d)" style="fill: none; stroke: #1f77b4; stroke-width: 1.5"/>
    <path d="M 219.481534 30.120573 
L 219.481534 28.772105 
" clip-path="url(#p1a961b752d)" style="fill: none; stroke: #1f77b4; stroke-width: 1.5"/>
    <path d="M 220.49608 28.951296 
L 220.49608 27.598681 
" clip-path="url(#p1a961b752d)" style="fill: none; stroke: #1f77b4; stroke-width: 1.5"/>
    <path d="M 221.510625 28.531309 
L 221.510625 27.177208 
" clip-path="url(#p1a961b752d)" style="fill: none; stroke: #1f77b4; stroke-width: 1.5"/>
    <path d="M 222.52517 29.104019 
L 222.52517 27.751944 
" clip-path="url(#p1a961b752d)" style="fill: none; stroke: #1f77b4; stroke-width: 1.5"/>
    <path d="M 223.539716 27.939509 
L 223.539716 26.583315 
" clip-path="url(#p1a961b752d)" style="fill: none; stroke: #1f77b4; stroke-width: 1.5"/>
    <path d="M 224.554261 28.16382 
L 224.554261 26.80842 
" clip-path="url(#p1a961b752d)" style="fill: none; stroke: #1f77b4; stroke-width: 1.5"/>
    <path d="M 225.568807 28.719826 
L 225.568807 27.366392 
" clip-path="url(#p1a961b752d)" style="fill: none; stroke: #1f77b4; stroke-width: 1.5"/>
    <path d="M 226.583352 28.397677 
L 226.583352 27.043103 
" clip-path="url(#p1a961b752d)" style="fill: none; stroke: #1f77b4; stroke-width: 1.5"/>
    <path d="M 227.597898 26.548293 
L 227.597898 25.187195 
" clip-path="url(#p1a961b752d)" style="fill: none; stroke: #1f77b4; stroke-width: 1.5"/>
    <path d="M 228.612443 26.69863 
L 228.612443 25.338062 
" clip-path="url(#p1a961b752d)" style="fill: none; stroke: #1f77b4; stroke-width: 1.5"/>
    <path d="M 229.626989 27.042259 
L 229.626989 25.682901 
" clip-path="url(#p1a961b752d)" style="fill: none; stroke: #1f77b4; stroke-width: 1.5"/>
    <path d="M 230.641534 25.927851 
L 230.641534 24.564572 
" clip-path="url(#p1a961b752d)" style="fill: none; stroke: #1f77b4; stroke-width: 1.5"/>
    <path d="M 231.65608 25.760808 
L 231.65608 24.396942 
" clip-path="url(#p1a961b752d)" style="fill: none; stroke: #1f77b4; stroke-width: 1.5"/>
    <path d="M 232.670625 25.643878 
L 232.670625 24.279602 
" clip-path="url(#p1a961b752d)" style="fill: none; stroke: #1f77b4; stroke-width: 1.5"/>
    <path d="M 233.68517 26.25239 
L 233.68517 24.890251 
" clip-path="url(#p1a961b752d)" style="fill: none; stroke: #1f77b4; stroke-width: 1.5"/>
    <path d="M 234.699716 27.588723 
L 234.699716 26.231291 
" clip-path="url(#p1a961b752d)" style="fill: none; stroke: #1f77b4; stroke-width: 1.5"/>
    <path d="M 235.714261 28.600512 
L 235.714261 27.246655 
" clip-path="url(#p1a961b752d)" style="fill: none; stroke: #1f77b4; stroke-width: 1.5"/>
    <path d="M 236.728807 27.323843 
L 236.728807 25.965477 
" clip-path="url(#p1a961b752d)" style="fill: none; stroke: #1f77b4; stroke-width: 1.5"/>
    <path d="M 237.743352 26.848968 
L 237.743352 25.488929 
" clip-path="url(#p1a961b752d)" style="fill: none; stroke: #1f77b4; stroke-width: 1.5"/>
    <path d="M 238.757898 28.42154 
L 238.757898 27.06705 
" clip-path="url(#p1a961b752d)" style="fill: none; stroke: #1f77b4; stroke-width: 1.5"/>
    <path d="M 239.772443 28.910729 
L 239.772443 27.55797 
" clip-path="url(#p1a961b752d)" style="fill: none; stroke: #1f77b4; stroke-width: 1.5"/>
    <path d="M 240.786989 26.727266 
L 240.786989 25.366798 
" clip-path="url(#p1a961b752d)" style="fill: none; stroke: #1f77b4; stroke-width: 1.5"/>
    <path d="M 241.801534 25.813307 
L 241.801534 24.449626 
" clip-path="url(#p1a961b752d)" style="fill: none; stroke: #1f77b4; stroke-width: 1.5"/>
    <path d="M 242.81608 26.550679 
L 242.81608 25.18959 
" clip-path="url(#p1a961b752d)" style="fill: none; stroke: #1f77b4; stroke-width: 1.5"/>
    <path d="M 243.830625 25.617629 
L 243.830625 24.25326 
" clip-path="url(#p1a961b752d)" style="fill: none; stroke: #1f77b4; stroke-width: 1.5"/>
    <path d="M 244.84517 25.257294 
L 244.84517 23.891661 
" clip-path="url(#p1a961b752d)" style="fill: none; stroke: #1f77b4; stroke-width: 1.5"/>
    <path d="M 245.859716 26.550679 
L 245.859716 25.18959 
" clip-path="url(#p1a961b752d)" style="fill: none; stroke: #1f77b4; stroke-width: 1.5"/>
    <path d="M 246.874261 25.830011 
L 246.874261 24.466389 
" clip-path="url(#p1a961b752d)" style="fill: none; stroke: #1f77b4; stroke-width: 1.5"/>
    <path d="M 247.888807 24.190603 
L 247.888807 22.821235 
" clip-path="url(#p1a961b752d)" style="fill: none; stroke: #1f77b4; stroke-width: 1.5"/>
    <path d="M 248.903352 25.729786 
L 248.903352 24.365811 
" clip-path="url(#p1a961b752d)" style="fill: none; stroke: #1f77b4; stroke-width: 1.5"/>
    <path d="M 249.917898 25.481608 
L 249.917898 24.116763 
" clip-path="url(#p1a961b752d)" style="fill: none; stroke: #1f77b4; stroke-width: 1.5"/>
    <path d="M 250.932443 23.982992 
L 250.932443 22.612897 
" clip-path="url(#p1a961b752d)" style="fill: none; stroke: #1f77b4; stroke-width: 1.5"/>
    <path d="M 251.946989 23.274248 
L 251.946989 21.901678 
" clip-path="url(#p1a961b752d)" style="fill: none; stroke: #1f77b4; stroke-width: 1.5"/>
    <path d="M 252.961534 21.181411 
L 252.961534 19.801558 
" clip-path="url(#p1a961b752d)" style="fill: none; stroke: #1f77b4; stroke-width: 1.5"/>
    <path d="M 253.97608 23.818334 
L 253.97608 22.447664 
" clip-path="url(#p1a961b752d)" style="fill: none; stroke: #1f77b4; stroke-width: 1.5"/>
    <path d="M 254.990625 21.610957 
L 254.990625 20.232596 
" clip-path="url(#p1a961b752d)" style="fill: none; stroke: #1f77b4; stroke-width: 1.5"/>
    <path d="M 256.00517 21.34607 
L 256.00517 19.966789 
" clip-path="url(#p1a961b752d)" style="fill: none; stroke: #1f77b4; stroke-width: 1.5"/>
    <path d="M 257.019716 19.856972 
L 257.019716 18.47253 
" clip-path="url(#p1a961b752d)" style="fill: none; stroke: #1f77b4; stroke-width: 1.5"/>
    <path d="M 258.034261 18.670936 
L 258.034261 17.282397 
" clip-path="url(#p1a961b752d)" style="fill: none; stroke: #1f77b4; stroke-width: 1.5"/>
    <path d="M 259.048807 21.360389 
L 259.048807 19.981157 
" clip-path="url(#p1a961b752d)" style="fill: none; stroke: #1f77b4; stroke-width: 1.5"/>
    <path d="M 260.063352 20.035951 
L 260.063352 18.652128 
" clip-path="url(#p1a961b752d)" style="fill: none; stroke: #1f77b4; stroke-width: 1.5"/>
    <path d="M 261.077898 18.66855 
L 261.077898 17.280003 
" clip-path="url(#p1a961b752d)" style="fill: none; stroke: #1f77b4; stroke-width: 1.5"/>
    <path d="M 262.092443 19.751971 
L 262.092443 18.367166 
" clip-path="url(#p1a961b752d)" style="fill: none; stroke: #1f77b4; stroke-width: 1.5"/>
    <path d="M 263.106989 21.494025 
L 263.106989 20.115258 
" clip-path="url(#p1a961b752d)" style="fill: none; stroke: #1f77b4; stroke-width: 1.5"/>
    <path d="M 264.121534 23.300497 
L 264.121534 21.928019 
" clip-path="url(#p1a961b752d)" style="fill: none; stroke: #1f77b4; stroke-width: 1.5"/>
    <path d="M 265.13608 24.295602 
L 265.13608 22.926601 
" clip-path="url(#p1a961b752d)" style="fill: none; stroke: #1f77b4; stroke-width: 1.5"/>
    <path d="M 266.150625 22.57266 
L 266.150625 21.197645 
" clip-path="url(#p1a961b752d)" style="fill: none; stroke: #1f77b4; stroke-width: 1.5"/>
    <path d="M 267.16517 22.360275 
L 267.16517 20.984519 
" clip-path="url(#p1a961b752d)" style="fill: none; stroke: #1f77b4; stroke-width: 1.5"/>
    <path d="M 268.179716 22.959249 
L 268.179716 21.585581 
" clip-path="url(#p1a961b752d)" style="fill: none; stroke: #1f77b4; stroke-width: 1.5"/>
    <path d="M 269.194261 21.365161 
L 269.194261 19.985946 
" clip-path="url(#p1a961b752d)" style="fill: none; stroke: #1f77b4; stroke-width: 1.5"/>
    <path d="M 270.208807 21.675389 
L 270.208807 20.297252 
" clip-path="url(#p1a961b752d)" style="fill: none; stroke: #1f77b4; stroke-width: 1.5"/>
    <path d="M 271.223352 22.15982 
L 271.223352 20.783368 
" clip-path="url(#p1a961b752d)" style="fill: none; stroke: #1f77b4; stroke-width: 1.5"/>
    <path d="M 272.237898 22.357888 
L 272.237898 20.982125 
" clip-path="url(#p1a961b752d)" style="fill: none; stroke: #1f77b4; stroke-width: 1.5"/>
    <path d="M 273.252443 22.372206 
L 273.252443 20.996493 
" clip-path="url(#p1a961b752d)" style="fill: none; stroke: #1f77b4; stroke-width: 1.5"/>
    <path d="M 274.266989 21.31982 
L 274.266989 19.940448 
" clip-path="url(#p1a961b752d)" style="fill: none; stroke: #1f77b4; stroke-width: 1.5"/>
    <path d="M 275.281534 21.704025 
L 275.281534 20.325987 
" clip-path="url(#p1a961b752d)" style="fill: none; stroke: #1f77b4; stroke-width: 1.5"/>
    <path d="M 276.29608 21.942662 
L 276.29608 20.565453 
" clip-path="url(#p1a961b752d)" style="fill: none; stroke: #1f77b4; stroke-width: 1.5"/>
    <path d="M 277.310625 23.338679 
L 277.310625 21.966334 
" clip-path="url(#p1a961b752d)" style="fill: none; stroke: #1f77b4; stroke-width: 1.5"/>
    <path d="M 278.32517 24.030719 
L 278.32517 22.660791 
" clip-path="url(#p1a961b752d)" style="fill: none; stroke: #1f77b4; stroke-width: 1.5"/>
    <path d="M 279.339716 22.162207 
L 279.339716 20.785762 
" clip-path="url(#p1a961b752d)" style="fill: none; stroke: #1f77b4; stroke-width: 1.5"/>
    <path d="M 280.354261 21.978457 
L 280.354261 20.601373 
" clip-path="url(#p1a961b752d)" style="fill: none; stroke: #1f77b4; stroke-width: 1.5"/>
    <path d="M 281.368807 19.67322 
L 281.368807 18.288142 
" clip-path="url(#p1a961b752d)" style="fill: none; stroke: #1f77b4; stroke-width: 1.5"/>
    <path d="M 282.383352 20.145724 
L 282.383352 18.762281 
" clip-path="url(#p1a961b752d)" style="fill: none; stroke: #1f77b4; stroke-width: 1.5"/>
    <path d="M 283.397898 23.89947 
L 283.397898 22.529083 
" clip-path="url(#p1a961b752d)" style="fill: none; stroke: #1f77b4; stroke-width: 1.5"/>
    <path d="M 284.412443 22.770728 
L 284.412443 21.396402 
" clip-path="url(#p1a961b752d)" style="fill: none; stroke: #1f77b4; stroke-width: 1.5"/>
    <path d="M 285.426989 22.558342 
L 285.426989 21.183277 
" clip-path="url(#p1a961b752d)" style="fill: none; stroke: #1f77b4; stroke-width: 1.5"/>
    <path d="M 286.441534 23.205044 
L 286.441534 21.832232 
" clip-path="url(#p1a961b752d)" style="fill: none; stroke: #1f77b4; stroke-width: 1.5"/>
    <path d="M 287.45608 26.436136 
L 287.45608 25.074644 
" clip-path="url(#p1a961b752d)" style="fill: none; stroke: #1f77b4; stroke-width: 1.5"/>
    <path d="M 288.470625 25.128432 
L 288.470625 23.762348 
" clip-path="url(#p1a961b752d)" style="fill: none; stroke: #1f77b4; stroke-width: 1.5"/>
    <path d="M 289.48517 25.283543 
L 289.48517 23.918003 
" clip-path="url(#p1a961b752d)" style="fill: none; stroke: #1f77b4; stroke-width: 1.5"/>
    <path d="M 290.499716 23.794471 
L 290.499716 22.423717 
" clip-path="url(#p1a961b752d)" style="fill: none; stroke: #1f77b4; stroke-width: 1.5"/>
    <path d="M 291.514261 24.121399 
L 291.514261 22.751789 
" clip-path="url(#p1a961b752d)" style="fill: none; stroke: #1f77b4; stroke-width: 1.5"/>
    <path d="M 292.528807 22.384138 
L 292.528807 21.008466 
" clip-path="url(#p1a961b752d)" style="fill: none; stroke: #1f77b4; stroke-width: 1.5"/>
    <path d="M 293.543352 22.400843 
L 293.543352 21.025229 
" clip-path="url(#p1a961b752d)" style="fill: none; stroke: #1f77b4; stroke-width: 1.5"/>
    <path d="M 294.557898 22.913909 
L 294.557898 21.540082 
" clip-path="url(#p1a961b752d)" style="fill: none; stroke: #1f77b4; stroke-width: 1.5"/>
    <path d="M 295.572443 24.990025 
L 295.572443 23.623455 
" clip-path="url(#p1a961b752d)" style="fill: none; stroke: #1f77b4; stroke-width: 1.5"/>
    <path d="M 296.586989 25.001957 
L 296.586989 23.635429 
" clip-path="url(#p1a961b752d)" style="fill: none; stroke: #1f77b4; stroke-width: 1.5"/>
    <path d="M 297.601534 25.507858 
L 297.601534 24.143104 
" clip-path="url(#p1a961b752d)" style="fill: none; stroke: #1f77b4; stroke-width: 1.5"/>
    <path d="M 298.61608 27.507588 
L 298.61608 26.149871 
" clip-path="url(#p1a961b752d)" style="fill: none; stroke: #1f77b4; stroke-width: 1.5"/>
    <path d="M 299.630625 28.94891 
L 299.630625 27.596286 
" clip-path="url(#p1a961b752d)" style="fill: none; stroke: #1f77b4; stroke-width: 1.5"/>
    <path d="M 300.64517 29.87956 
L 300.64517 28.530235 
" clip-path="url(#p1a961b752d)" style="fill: none; stroke: #1f77b4; stroke-width: 1.5"/>
    <path d="M 301.659716 30.397381 
L 301.659716 29.049896 
" clip-path="url(#p1a961b752d)" style="fill: none; stroke: #1f77b4; stroke-width: 1.5"/>
    <path d="M 302.674261 30.783956 
L 302.674261 29.437846 
" clip-path="url(#p1a961b752d)" style="fill: none; stroke: #1f77b4; stroke-width: 1.5"/>
    <path d="M 303.688807 30.488059 
L 303.688807 29.140896 
" clip-path="url(#p1a961b752d)" style="fill: none; stroke: #1f77b4; stroke-width: 1.5"/>
    <path d="M 304.703352 30.311475 
L 304.703352 28.963685 
" clip-path="url(#p1a961b752d)" style="fill: none; stroke: #1f77b4; stroke-width: 1.5"/>
    <path d="M 305.717898 30.7243 
L 305.717898 29.377977 
" clip-path="url(#p1a961b752d)" style="fill: none; stroke: #1f77b4; stroke-width: 1.5"/>
    <path d="M 306.732443 30.330565 
L 306.732443 28.982843 
" clip-path="url(#p1a961b752d)" style="fill: none; stroke: #1f77b4; stroke-width: 1.5"/>
    <path d="M 307.746989 30.153981 
L 307.746989 28.805631 
" clip-path="url(#p1a961b752d)" style="fill: none; stroke: #1f77b4; stroke-width: 1.5"/>
    <path d="M 308.761534 31.93652 
L 308.761534 30.594516 
" clip-path="url(#p1a961b752d)" style="fill: none; stroke: #1f77b4; stroke-width: 1.5"/>
    <path d="M 309.77608 29.660022 
L 309.77608 28.309919 
" clip-path="url(#p1a961b752d)" style="fill: none; stroke: #1f77b4; stroke-width: 1.5"/>
    <path d="M 310.790625 28.769938 
L 310.790625 27.416681 
" clip-path="url(#p1a961b752d)" style="fill: none; stroke: #1f77b4; stroke-width: 1.5"/>
    <path d="M 311.80517 28.851072 
L 311.80517 27.498102 
" clip-path="url(#p1a961b752d)" style="fill: none; stroke: #1f77b4; stroke-width: 1.5"/>
    <path d="M 312.819716 29.268672 
L 312.819716 27.917181 
" clip-path="url(#p1a961b752d)" style="fill: none; stroke: #1f77b4; stroke-width: 1.5"/>
    <path d="M 313.834261 32.179917 
L 313.834261 30.838783 
" clip-path="url(#p1a961b752d)" style="fill: none; stroke: #1f77b4; stroke-width: 1.5"/>
    <path d="M 314.848807 34.446843 
L 314.848807 33.113829 
" clip-path="url(#p1a961b752d)" style="fill: none; stroke: #1f77b4; stroke-width: 1.5"/>
    <path d="M 315.863352 36.212641 
L 315.863352 34.885987 
" clip-path="url(#p1a961b752d)" style="fill: none; stroke: #1f77b4; stroke-width: 1.5"/>
    <path d="M 316.877898 38.751546 
L 316.877898 37.43409 
" clip-path="url(#p1a961b752d)" style="fill: none; stroke: #1f77b4; stroke-width: 1.5"/>
    <path d="M 317.892443 41.316665 
L 317.892443 40.008569 
" clip-path="url(#p1a961b752d)" style="fill: none; stroke: #1f77b4; stroke-width: 1.5"/>
    <path d="M 318.906989 42.504961 
L 318.906989 41.201222 
" clip-path="url(#p1a961b752d)" style="fill: none; stroke: #1f77b4; stroke-width: 1.5"/>
    <path d="M 319.921534 42.156586 
L 319.921534 40.851568 
" clip-path="url(#p1a961b752d)" style="fill: none; stroke: #1f77b4; stroke-width: 1.5"/>
    <path d="M 320.93608 42.178061 
L 320.93608 40.873122 
" clip-path="url(#p1a961b752d)" style="fill: none; stroke: #1f77b4; stroke-width: 1.5"/>
    <path d="M 321.950625 40.834664 
L 321.950625 39.524804 
" clip-path="url(#p1a961b752d)" style="fill: none; stroke: #1f77b4; stroke-width: 1.5"/>
    <path d="M 322.96517 39.942243 
L 322.96517 38.629123 
" clip-path="url(#p1a961b752d)" style="fill: none; stroke: #1f77b4; stroke-width: 1.5"/>
    <path d="M 323.979716 40.889546 
L 323.979716 39.579886 
" clip-path="url(#p1a961b752d)" style="fill: none; stroke: #1f77b4; stroke-width: 1.5"/>
    <path d="M 324.994261 40.431405 
L 324.994261 39.12007 
" clip-path="url(#p1a961b752d)" style="fill: none; stroke: #1f77b4; stroke-width: 1.5"/>
    <path d="M 326.008807 41.027942 
L 326.008807 39.718788 
" clip-path="url(#p1a961b752d)" style="fill: none; stroke: #1f77b4; stroke-width: 1.5"/>
    <path d="M 327.023352 40.963516 
L 327.023352 39.654127 
" clip-path="url(#p1a961b752d)" style="fill: none; stroke: #1f77b4; stroke-width: 1.5"/>
    <path d="M 328.037898 41.328596 
L 328.037898 40.020543 
" clip-path="url(#p1a961b752d)" style="fill: none; stroke: #1f77b4; stroke-width: 1.5"/>
    <path d="M 329.052443 41.319052 
L 329.052443 40.010964 
" clip-path="url(#p1a961b752d)" style="fill: none; stroke: #1f77b4; stroke-width: 1.5"/>
    <path d="M 330.066989 40.789327 
L 330.066989 39.479301 
" clip-path="url(#p1a961b752d)" style="fill: none; stroke: #1f77b4; stroke-width: 1.5"/>
    <path d="M 331.081534 41.915586 
L 331.081534 40.609684 
" clip-path="url(#p1a961b752d)" style="fill: none; stroke: #1f77b4; stroke-width: 1.5"/>
    <path d="M 332.09608 41.69129 
L 332.09608 40.384565 
" clip-path="url(#p1a961b752d)" style="fill: none; stroke: #1f77b4; stroke-width: 1.5"/>
    <path d="M 333.110625 39.045045 
L 333.110625 37.728656 
" clip-path="url(#p1a961b752d)" style="fill: none; stroke: #1f77b4; stroke-width: 1.5"/>
    <path d="M 334.12517 37.133713 
L 334.12517 35.810389 
" clip-path="url(#p1a961b752d)" style="fill: none; stroke: #1f77b4; stroke-width: 1.5"/>
    <path d="M 335.139716 37.723102 
L 335.139716 36.401913 
" clip-path="url(#p1a961b752d)" style="fill: none; stroke: #1f77b4; stroke-width: 1.5"/>
    <path d="M 336.154261 38.097733 
L 336.154261 36.777902 
" clip-path="url(#p1a961b752d)" style="fill: none; stroke: #1f77b4; stroke-width: 1.5"/>
    <path d="M 337.168807 38.97346 
L 337.168807 37.656811 
" clip-path="url(#p1a961b752d)" style="fill: none; stroke: #1f77b4; stroke-width: 1.5"/>
    <path d="M 338.183352 38.498611 
L 338.183352 37.180236 
" clip-path="url(#p1a961b752d)" style="fill: none; stroke: #1f77b4; stroke-width: 1.5"/>
    <path d="M 339.197898 40.631841 
L 339.197898 39.321239 
" clip-path="url(#p1a961b752d)" style="fill: none; stroke: #1f77b4; stroke-width: 1.5"/>
    <path d="M 340.212443 42.221011 
L 340.212443 40.91623 
" clip-path="url(#p1a961b752d)" style="fill: none; stroke: #1f77b4; stroke-width: 1.5"/>
    <path d="M 341.226989 41.099526 
L 341.226989 39.790635 
" clip-path="url(#p1a961b752d)" style="fill: none; stroke: #1f77b4; stroke-width: 1.5"/>
    <path d="M 342.241534 42.058754 
L 342.241534 40.753378 
" clip-path="url(#p1a961b752d)" style="fill: none; stroke: #1f77b4; stroke-width: 1.5"/>
    <path d="M 343.25608 41.455062 
L 343.25608 40.147472 
" clip-path="url(#p1a961b752d)" style="fill: none; stroke: #1f77b4; stroke-width: 1.5"/>
    <path d="M 344.270625 44.37329 
L 344.270625 43.076434 
" clip-path="url(#p1a961b752d)" style="fill: none; stroke: #1f77b4; stroke-width: 1.5"/>
    <path d="M 345.28517 44.94834 
L 345.28517 43.65361 
" clip-path="url(#p1a961b752d)" style="fill: none; stroke: #1f77b4; stroke-width: 1.5"/>
    <path d="M 346.299716 46.477822 
L 346.299716 45.188763 
" clip-path="url(#p1a961b752d)" style="fill: none; stroke: #1f77b4; stroke-width: 1.5"/>
    <path d="M 347.314261 47.720965 
L 347.314261 46.436533 
" clip-path="url(#p1a961b752d)" style="fill: none; stroke: #1f77b4; stroke-width: 1.5"/>
    <path d="M 348.328807 48.871043 
L 348.328807 47.590907 
" clip-path="url(#p1a961b752d)" style="fill: none; stroke: #1f77b4; stroke-width: 1.5"/>
    <path d="M 349.343352 49.310075 
L 349.343352 48.031583 
" clip-path="url(#p1a961b752d)" style="fill: none; stroke: #1f77b4; stroke-width: 1.5"/>
    <path d="M 350.357898 50.018728 
L 350.357898 48.742894 
" clip-path="url(#p1a961b752d)" style="fill: none; stroke: #1f77b4; stroke-width: 1.5"/>
    <path d="M 351.372443 51.801085 
L 351.372443 50.53196 
" clip-path="url(#p1a961b752d)" style="fill: none; stroke: #1f77b4; stroke-width: 1.5"/>
    <path d="M 352.386989 52.994086 
L 352.386989 51.729471 
" clip-path="url(#p1a961b752d)" style="fill: none; stroke: #1f77b4; stroke-width: 1.5"/>
    <path d="M 353.401534 51.772453 
L 353.401534 50.50322 
" clip-path="url(#p1a961b752d)" style="fill: none; stroke: #1f77b4; stroke-width: 1.5"/>
    <path d="M 354.41608 54.101182 
L 354.41608 52.840769 
" clip-path="url(#p1a961b752d)" style="fill: none; stroke: #1f77b4; stroke-width: 1.5"/>
    <path d="M 355.430625 54.814588 
L 355.430625 53.556889 
" clip-path="url(#p1a961b752d)" style="fill: none; stroke: #1f77b4; stroke-width: 1.5"/>
    <path d="M 356.44517 56.907069 
L 356.44517 55.657364 
" clip-path="url(#p1a961b752d)" style="fill: none; stroke: #1f77b4; stroke-width: 1.5"/>
    <path d="M 357.459716 56.768684 
L 357.459716 55.518449 
" clip-path="url(#p1a961b752d)" style="fill: none; stroke: #1f77b4; stroke-width: 1.5"/>
    <path d="M 358.474261 56.17697 
L 358.474261 54.92447 
" clip-path="url(#p1a961b752d)" style="fill: none; stroke: #1f77b4; stroke-width: 1.5"/>
    <path d="M 359.488807 57.744531 
L 359.488807 56.498041 
" clip-path="url(#p1a961b752d)" style="fill: none; stroke: #1f77b4; stroke-width: 1.5"/>
    <path d="M 360.503352 60.273594 
L 360.503352 59.036861 
" clip-path="url(#p1a961b752d)" style="fill: none; stroke: #1f77b4; stroke-width: 1.5"/>
    <path d="M 361.517898 60.528884 
L 361.517898 59.29314 
" clip-path="url(#p1a961b752d)" style="fill: none; stroke: #1f77b4; stroke-width: 1.5"/>
    <path d="M 362.532443 59.440916 
L 362.532443 58.200962 
" clip-path="url(#p1a961b752d)" style="fill: none; stroke: #1f77b4; stroke-width: 1.5"/>
    <path d="M 363.546989 58.391116 
L 363.546989 57.147113 
" clip-path="url(#p1a961b752d)" style="fill: none; stroke: #1f77b4; stroke-width: 1.5"/>
    <path d="M 364.561534 61.118197 
L 364.561534 59.88474 
" clip-path="url(#p1a961b752d)" style="fill: none; stroke: #1f77b4; stroke-width: 1.5"/>
    <path d="M 365.57608 66.154707 
L 365.57608 64.940968 
" clip-path="url(#p1a961b752d)" style="fill: none; stroke: #1f77b4; stroke-width: 1.5"/>
    <path d="M 366.590625 74.843552 
L 366.590625 73.664606 
" clip-path="url(#p1a961b752d)" style="fill: none; stroke: #1f77b4; stroke-width: 1.5"/>
    <path d="M 367.60517 104.052674 
L 367.60517 102.999101 
" clip-path="url(#p1a961b752d)" style="fill: none; stroke: #1f77b4; stroke-width: 1.5"/>
    <path d="M 368.619716 137.847513 
L 368.619716 136.960908 
" clip-path="url(#p1a961b752d)" style="fill: none; stroke: #1f77b4; stroke-width: 1.5"/>
    <path d="M 369.634261 170.988785 
L 369.634261 170.304531 
" clip-path="url(#p1a961b752d)" style="fill: none; stroke: #1f77b4; stroke-width: 1.5"/>
    <path d="M 370.648807 188.409942 
L 370.648807 187.861332 
" clip-path="url(#p1a961b752d)" style="fill: none; stroke: #1f77b4; stroke-width: 1.5"/>
    <path d="M 371.663352 194.544365 
L 371.663352 194.052384 
" clip-path="url(#p1a961b752d)" style="fill: none; stroke: #1f77b4; stroke-width: 1.5"/>
    <path d="M 372.677898 199.669463 
L 372.677898 199.230389 
" clip-path="url(#p1a961b752d)" style="fill: none; stroke: #1f77b4; stroke-width: 1.5"/>
    <path d="M 373.692443 203.06129 
L 373.692443 202.661081 
" clip-path="url(#p1a961b752d)" style="fill: none; stroke: #1f77b4; stroke-width: 1.5"/>
    <path d="M 374.706989 206.059201 
L 374.706989 205.69682 
" clip-path="url(#p1a961b752d)" style="fill: none; stroke: #1f77b4; stroke-width: 1.5"/>
    <path d="M 375.721534 208.850837 
L 375.721534 208.527666 
" clip-path="url(#p1a961b752d)" style="fill: none; stroke: #1f77b4; stroke-width: 1.5"/>
    <path d="M 376.73608 212.383759 
L 376.73608 212.118467 
" clip-path="url(#p1a961b752d)" style="fill: none; stroke: #1f77b4; stroke-width: 1.5"/>
    <path d="M 377.750625 215.986158 
L 377.750625 215.797565 
" clip-path="url(#p1a961b752d)" style="fill: none; stroke: #1f77b4; stroke-width: 1.5"/>
    <path d="M 378.76517 218.88 
L 378.76517 218.793942 
" clip-path="url(#p1a961b752d)" style="fill: none; stroke: #1f77b4; stroke-width: 1.5"/>
   </g>
   <g id="patch_3">
    <path d="M 59.690625 228.96 
L 59.690625 7.2 
" style="fill: none; stroke: #000000; stroke-width: 0.8; stroke-linejoin: miter; stroke-linecap: square"/>
   </g>
   <g id="patch_4">
    <path d="M 394.490625 228.96 
L 394.490625 7.2 
" style="fill: none; stroke: #000000; stroke-width: 0.8; stroke-linejoin: miter; stroke-linecap: square"/>
   </g>
   <g id="patch_5">
    <path d="M 59.690625 228.96 
L 394.490625 228.96 
" style="fill: none; stroke: #000000; stroke-width: 0.8; stroke-linejoin: miter; stroke-linecap: square"/>
   </g>
   <g id="patch_6">
    <path d="M 59.690625 7.2 
L 394.490625 7.2 
" style="fill: none; stroke: #000000; stroke-width: 0.8; stroke-linejoin: miter; stroke-linecap: square"/>
   </g>
  </g>
 </g>
 <defs>
  <clipPath id="p1a961b752d">
   <rect x="59.690625" y="7.2" width="334.8" height="221.76"/>
  </clipPath>
 </defs>
</svg>
