<?xml version="1.0" encoding="UTF-8" standalone="no"?>
<!DOCTYPE svg PUBLIC "-//W3C//DTD SVG 1.1//EN"
 "http://www.w3.org/Graphics/SVG/1.1/DTD/svg11.dtd">
<!-- Generated by graphviz version 2.43.0 (0)
 -->
<!-- Title: %3 Pages: 1 -->
<svg width="2771pt" height="278pt"
 viewBox="0.00 0.00 2771.00 278.00" xmlns="http://www.w3.org/2000/svg" xmlns:xlink="http://www.w3.org/1999/xlink">
<g id="graph0" class="graph" transform="scale(1 1) rotate(0) translate(4 274)">
<title>%3</title>
<polygon fill="white" stroke="transparent" points="-4,4 -4,-274 2767,-274 2767,4 -4,4"/>
<g id="clust1" class="cluster">
<title>cluster_AccumulatedProtonCharge</title>
<polygon fill="#f0f0ff" stroke="#f0f0ff" points="1138,-135.5 1138,-231.5 1377,-231.5 1377,-135.5 1138,-135.5"/>
<text text-anchor="start" x="1161" y="-217.3" font-family="Times,serif" font-size="14.00">AccumulatedProtonCharge</text>
<text text-anchor="start" x="1146" y="-205.7" font-family="Times,serif" font-size="11.00">via:</text>
<text text-anchor="start" x="1167" y="-205.7" font-family="Times,serif" font-style="italic" font-size="11.00">extract_accumulated_proton_charge</text>
</g>
<g id="clust5" class="cluster">
<title>cluster_DataWithScatteringCoordinates</title>
<polygon fill="#f0f0ff" stroke="#f0f0ff" points="1118,-31.5 1118,-127.5 1397,-127.5 1397,-31.5 1118,-31.5"/>
<text text-anchor="start" x="1143" y="-113.3" font-family="Times,serif" font-size="14.00">DataWithScatteringCoordinates</text>
<text text-anchor="start" x="1126" y="-101.7" font-family="Times,serif" font-size="11.00">via:</text>
<text text-anchor="start" x="1147" y="-101.7" font-family="Times,serif" font-style="italic" font-size="11.00">add_scattering_coordinates_from_positions</text>
</g>
<g id="clust7" class="cluster">
<title>cluster_DetectorTofData</title>
<polygon fill="#f0f0ff" stroke="#f0f0ff" points="560,-105.5 560,-201.5 694,-201.5 694,-105.5 560,-105.5"/>
<text text-anchor="start" x="568" y="-187.3" font-family="Times,serif" font-size="14.00">DetectorTofData</text>
<text text-anchor="start" x="568" y="-175.7" font-family="Times,serif" font-size="11.00">via:</text>
<text text-anchor="start" x="589" y="-175.7" font-family="Times,serif" font-style="italic" font-size="11.00">extract_raw_data</text>
</g>
<g id="clust10" class="cluster">
<title>cluster_Filename</title>
<polygon fill="#f0f0ff" stroke="#f0f0ff" points="35.5,-105.5 35.5,-191.5 161.5,-191.5 161.5,-105.5 35.5,-105.5"/>
<text text-anchor="middle" x="98.5" y="-176.3" font-family="Times,serif" font-size="14.00">Filename</text>
</g>
<g id="clust8" class="cluster">
<title>cluster_DspacingData</title>
<polygon fill="#f0f0ff" stroke="#f0f0ff" points="1908,-79.5 1908,-175.5 2059,-175.5 2059,-79.5 1908,-79.5"/>
<text text-anchor="start" x="1933.5" y="-161.3" font-family="Times,serif" font-size="14.00">DspacingData</text>
<text text-anchor="start" x="1916" y="-149.7" font-family="Times,serif" font-size="11.00">via:</text>
<text text-anchor="start" x="1937" y="-149.7" font-family="Times,serif" font-style="italic" font-size="11.00">convert_to_dspacing</text>
</g>
<g id="clust11" class="cluster">
<title>cluster_FilteredData</title>
<polygon fill="#f0f0ff" stroke="#f0f0ff" points="855,-43.5 855,-139.5 981,-139.5 981,-43.5 855,-43.5"/>
<text text-anchor="start" x="872.5" y="-125.3" font-family="Times,serif" font-size="14.00">FilteredData</text>
<text text-anchor="start" x="872.5" y="-113.7" font-family="Times,serif" font-size="11.00">via:</text>
<text text-anchor="start" x="893.5" y="-113.7" font-family="Times,serif" font-style="italic" font-size="11.00">filter_events</text>
</g>
<g id="clust12" class="cluster">
<title>cluster_FocussedDataDspacingTwoTheta</title>
<polygon fill="#f0f0ff" stroke="#f0f0ff" points="2127,-124.5 2127,-220.5 2379,-220.5 2379,-124.5 2127,-124.5"/>
<text text-anchor="start" x="2135" y="-206.3" font-family="Times,serif" font-size="14.00">FocussedDataDspacingTwoTheta</text>
<text text-anchor="start" x="2142" y="-194.7" font-family="Times,serif" font-size="11.00">via:</text>
<text text-anchor="start" x="2163" y="-194.7" font-family="Times,serif" font-style="italic" font-size="11.00">focus_data_dspacing_and_two_theta</text>
</g>
<g id="clust14" class="cluster">
<title>cluster_MaskedData</title>
<polygon fill="#f0f0ff" stroke="#f0f0ff" points="1722,-79.5 1722,-175.5 1848,-175.5 1848,-79.5 1722,-79.5"/>
<text text-anchor="start" x="1740" y="-161.3" font-family="Times,serif" font-size="14.00">MaskedData</text>
<text text-anchor="start" x="1738.5" y="-149.7" font-family="Times,serif" font-size="11.00">via:</text>
<text text-anchor="start" x="1759.5" y="-149.7" font-family="Times,serif" font-style="italic" font-size="11.00">apply_masks</text>
</g>
<g id="clust17" class="cluster">
<title>cluster_NormalizedRunData</title>
<polygon fill="#f0f0ff" stroke="#f0f0ff" points="1461,-135.5 1461,-231.5 1658,-231.5 1658,-135.5 1461,-135.5"/>
<text text-anchor="start" x="1487" y="-217.3" font-family="Times,serif" font-size="14.00">NormalizedRunData</text>
<text text-anchor="start" x="1469" y="-205.7" font-family="Times,serif" font-size="11.00">via:</text>
<text text-anchor="start" x="1490" y="-205.7" font-family="Times,serif" font-style="italic" font-size="11.00">normalize_by_proton_charge</text>
</g>
<g id="clust18" class="cluster">
<title>cluster_RawDataAndMetadata</title>
<polygon fill="#f0f0ff" stroke="#f0f0ff" points="282.5,-105.5 282.5,-201.5 459.5,-201.5 459.5,-105.5 282.5,-105.5"/>
<text text-anchor="start" x="290.5" y="-187.3" font-family="Times,serif" font-size="14.00">RawDataAndMetadata</text>
<text text-anchor="start" x="329" y="-175.7" font-family="Times,serif" font-size="11.00">via:</text>
<text text-anchor="start" x="350" y="-175.7" font-family="Times,serif" font-style="italic" font-size="11.00">pooch_load</text>
</g>
<!-- DetectorTofData[SampleRun] -->
<g id="node1" class="node">
<title>DetectorTofData[SampleRun]</title>
<polygon fill="none" stroke="black" points="674.5,-135 579.5,-135 579.5,-114 674.5,-114 674.5,-135"/>
<text text-anchor="start" x="587.5" y="-121.4" font-family="Times,serif" font-size="12.00">[SampleRun]</text>
</g>
<!-- AccumulatedProtonCharge[SampleRun] -->
<g id="node2" class="node">
<title>AccumulatedProtonCharge[SampleRun]</title>
<polygon fill="none" stroke="black" points="1304.5,-165 1209.5,-165 1209.5,-144 1304.5,-144 1304.5,-165"/>
<text text-anchor="start" x="1217.5" y="-151.4" font-family="Times,serif" font-size="12.00">[SampleRun]</text>
</g>
<!-- DetectorTofData[SampleRun]&#45;&gt;AccumulatedProtonCharge[SampleRun] -->
<g id="edge1" class="edge">
<title>DetectorTofData[SampleRun]:e&#45;&gt;AccumulatedProtonCharge[SampleRun]:w</title>
<path fill="none" stroke="black" d="M676,-124.5C723.64,-124.5 734.55,-136.15 782,-140.5 967.24,-157.47 1016.79,-154.61 1197.87,-154.5"/>
<polygon fill="black" stroke="black" points="1198,-158 1208,-154.5 1198,-151 1198,-158"/>
</g>
<!-- FilteredData[SampleRun] -->
<g id="node9" class="node">
<title>FilteredData[SampleRun]</title>
<polygon fill="none" stroke="black" points="965.5,-73 870.5,-73 870.5,-52 965.5,-52 965.5,-73"/>
<text text-anchor="start" x="878.5" y="-59.4" font-family="Times,serif" font-size="12.00">[SampleRun]</text>
</g>
<!-- DetectorTofData[SampleRun]&#45;&gt;FilteredData[SampleRun] -->
<g id="edge16" class="edge">
<title>DetectorTofData[SampleRun]:e&#45;&gt;FilteredData[SampleRun]:w</title>
<path fill="none" stroke="black" d="M676,-124.5C727.53,-124.5 732.68,-92.44 782,-77.5 816.03,-67.19 827.61,-63.25 858.68,-62.6"/>
<polygon fill="black" stroke="black" points="859.03,-66.1 869,-62.5 858.97,-59.1 859.03,-66.1"/>
</g>
<!-- NormalizedRunData[SampleRun] -->
<g id="node28" class="node">
<title>NormalizedRunData[SampleRun]</title>
<polygon fill="none" stroke="black" points="1606.5,-165 1511.5,-165 1511.5,-144 1606.5,-144 1606.5,-165"/>
<text text-anchor="start" x="1519.5" y="-151.4" font-family="Times,serif" font-size="12.00">[SampleRun]</text>
</g>
<!-- AccumulatedProtonCharge[SampleRun]&#45;&gt;NormalizedRunData[SampleRun] -->
<g id="edge32" class="edge">
<title>AccumulatedProtonCharge[SampleRun]:e&#45;&gt;NormalizedRunData[SampleRun]:w</title>
<path fill="none" stroke="black" d="M1306,-154.5C1393.21,-154.5 1417.51,-154.5 1499.93,-154.5"/>
<polygon fill="black" stroke="black" points="1500,-158 1510,-154.5 1500,-151 1500,-158"/>
</g>
<!-- DetectorTofData[VanadiumRun] -->
<g id="node3" class="node">
<title>DetectorTofData[VanadiumRun]</title>
<polygon fill="none" stroke="black" points="682,-160 572,-160 572,-139 682,-139 682,-160"/>
<text text-anchor="start" x="580" y="-146.4" font-family="Times,serif" font-size="12.00">[VanadiumRun]</text>
</g>
<!-- AccumulatedProtonCharge[VanadiumRun] -->
<g id="node4" class="node">
<title>AccumulatedProtonCharge[VanadiumRun]</title>
<polygon fill="none" stroke="black" points="1312,-190 1202,-190 1202,-169 1312,-169 1312,-190"/>
<text text-anchor="start" x="1210" y="-176.4" font-family="Times,serif" font-size="12.00">[VanadiumRun]</text>
</g>
<!-- DetectorTofData[VanadiumRun]&#45;&gt;AccumulatedProtonCharge[VanadiumRun] -->
<g id="edge2" class="edge">
<title>DetectorTofData[VanadiumRun]:e&#45;&gt;AccumulatedProtonCharge[VanadiumRun]:w</title>
<path fill="none" stroke="black" d="M683,-149.5C910.23,-149.5 968.69,-178.63 1190.98,-179.48"/>
<polygon fill="black" stroke="black" points="1190.99,-182.98 1201,-179.5 1191.01,-175.98 1190.99,-182.98"/>
</g>
<!-- FilteredData[VanadiumRun] -->
<g id="node12" class="node">
<title>FilteredData[VanadiumRun]</title>
<polygon fill="none" stroke="black" points="973,-98 863,-98 863,-77 973,-77 973,-98"/>
<text text-anchor="start" x="871" y="-84.4" font-family="Times,serif" font-size="12.00">[VanadiumRun]</text>
</g>
<!-- DetectorTofData[VanadiumRun]&#45;&gt;FilteredData[VanadiumRun] -->
<g id="edge17" class="edge">
<title>DetectorTofData[VanadiumRun]:e&#45;&gt;FilteredData[VanadiumRun]:w</title>
<path fill="none" stroke="black" d="M683,-149.5C763.74,-149.5 776.81,-92.48 852,-87.8"/>
<polygon fill="black" stroke="black" points="852.11,-91.3 862,-87.5 851.9,-84.31 852.11,-91.3"/>
</g>
<!-- NormalizedRunData[VanadiumRun] -->
<g id="node33" class="node">
<title>NormalizedRunData[VanadiumRun]</title>
<polygon fill="none" stroke="black" points="1614,-190 1504,-190 1504,-169 1614,-169 1614,-190"/>
<text text-anchor="start" x="1512" y="-176.4" font-family="Times,serif" font-size="12.00">[VanadiumRun]</text>
</g>
<!-- AccumulatedProtonCharge[VanadiumRun]&#45;&gt;NormalizedRunData[VanadiumRun] -->
<g id="edge34" class="edge">
<title>AccumulatedProtonCharge[VanadiumRun]:e&#45;&gt;NormalizedRunData[VanadiumRun]:w</title>
<path fill="none" stroke="black" d="M1313,-179.5C1393.98,-179.5 1416.72,-179.5 1492.92,-179.5"/>
<polygon fill="black" stroke="black" points="1493,-183 1503,-179.5 1493,-176 1493,-183"/>
</g>
<!-- CalibrationFilename -->
<g id="node5" class="node">
<title>CalibrationFilename</title>
<polygon fill="none" stroke="black" points="451.5,-270 289.5,-270 289.5,-247 451.5,-247 451.5,-270"/>
<text text-anchor="middle" x="370.5" y="-254.8" font-family="Times,serif" font-size="14.00">CalibrationFilename</text>
</g>
<!-- CalibrationData -->
<g id="node6" class="node">
<title>CalibrationData</title>
<polygon fill="none" stroke="black" points="710,-259 544,-259 544,-226 710,-226 710,-259"/>
<text text-anchor="start" x="570" y="-244.8" font-family="Times,serif" font-size="14.00">CalibrationData</text>
<text text-anchor="start" x="552" y="-233.2" font-family="Times,serif" font-size="11.00">via:</text>
<text text-anchor="start" x="573" y="-233.2" font-family="Times,serif" font-style="italic" font-size="11.00">pooch_load_calibration</text>
</g>
<!-- CalibrationFilename&#45;&gt;CalibrationData -->
<g id="edge3" class="edge">
<title>CalibrationFilename:e&#45;&gt;CalibrationData:w</title>
<path fill="none" stroke="black" d="M452.5,-258.5C490.07,-258.5 500.85,-245.25 533.61,-242.86"/>
<polygon fill="black" stroke="black" points="534.13,-246.35 544,-242.5 533.88,-239.35 534.13,-246.35"/>
</g>
<!-- DspacingData[SampleRun] -->
<g id="node18" class="node">
<title>DspacingData[SampleRun]</title>
<polygon fill="none" stroke="black" points="2030.5,-109 1935.5,-109 1935.5,-88 2030.5,-88 2030.5,-109"/>
<text text-anchor="start" x="1943.5" y="-95.4" font-family="Times,serif" font-size="12.00">[SampleRun]</text>
</g>
<!-- CalibrationData&#45;&gt;DspacingData[SampleRun] -->
<g id="edge14" class="edge">
<title>CalibrationData:e&#45;&gt;DspacingData[SampleRun]:w</title>
<path fill="none" stroke="black" stroke-width="2" d="M710,-242.5C952.67,-242.5 1013.33,-242.5 1256,-242.5 1256,-242.5 1256,-242.5 1560,-242.5 1691.32,-242.5 1735.92,-244.94 1848,-176.5 1878.22,-158.04 1883.16,-128.18 1899.97,-111.27"/>
<polygon fill="black" stroke="black" stroke-width="2" points="1902.35,-113.84 1908,-104.88 1898,-108.36 1902.35,-113.84"/>
</g>
<!-- DetectorBankSizes -->
<g id="node7" class="node">
<title>DetectorBankSizes</title>
<polygon fill="none" stroke="black" points="472,-243 269,-243 269,-210 472,-210 472,-243"/>
<text text-anchor="start" x="302.5" y="-228.8" font-family="Times,serif" font-size="14.00">DetectorBankSizes</text>
<text text-anchor="start" x="277" y="-217.2" font-family="Times,serif" font-size="11.00">via:</text>
<text text-anchor="start" x="298" y="-217.2" font-family="Times,serif" font-style="italic" font-size="11.00">powgen_detector_dimensions</text>
</g>
<!-- DetectorBankSizes&#45;&gt;DetectorTofData[SampleRun] -->
<g id="edge10" class="edge">
<title>DetectorBankSizes:e&#45;&gt;DetectorTofData[SampleRun]:w</title>
<path fill="none" stroke="black" stroke-width="2" d="M472,-226.5C525.87,-226.5 518.54,-157.25 550.87,-132.87"/>
<polygon fill="black" stroke="black" stroke-width="2" points="553.02,-135.68 560,-127.71 549.57,-129.58 553.02,-135.68"/>
</g>
<!-- DetectorBankSizes&#45;&gt;CalibrationData -->
<g id="edge4" class="edge">
<title>DetectorBankSizes:e&#45;&gt;CalibrationData:w</title>
<path fill="none" stroke="black" d="M472,-226.5C501.07,-226.5 509.42,-239.08 533.8,-241.93"/>
<polygon fill="black" stroke="black" points="533.82,-245.44 544,-242.5 534.21,-238.45 533.82,-245.44"/>
</g>
<!-- DSpacingBins -->
<g id="node8" class="node">
<title>DSpacingBins</title>
<polygon fill="none" stroke="black" points="2041,-234 1925,-234 1925,-211 2041,-211 2041,-234"/>
<text text-anchor="middle" x="1983" y="-218.8" font-family="Times,serif" font-size="14.00">DSpacingBins</text>
</g>
<!-- FocussedDataDspacingTwoTheta[SampleRun] -->
<g id="node23" class="node">
<title>FocussedDataDspacingTwoTheta[SampleRun]</title>
<polygon fill="none" stroke="black" points="2300.5,-179 2205.5,-179 2205.5,-158 2300.5,-158 2300.5,-179"/>
<text text-anchor="start" x="2213.5" y="-165.4" font-family="Times,serif" font-size="12.00">[SampleRun]</text>
</g>
<!-- DSpacingBins&#45;&gt;FocussedDataDspacingTwoTheta[SampleRun] -->
<g id="edge19" class="edge">
<title>DSpacingBins:e&#45;&gt;FocussedDataDspacingTwoTheta[SampleRun]:w</title>
<path fill="none" stroke="black" stroke-width="2" d="M2042,-222.5C2077.26,-222.5 2098.34,-210.84 2118.42,-198.36"/>
<polygon fill="black" stroke="black" stroke-width="2" points="2120.38,-201.27 2127,-193 2116.67,-195.33 2120.38,-201.27"/>
</g>
<!-- DataWithScatteringCoordinates[SampleRun] -->
<g id="node10" class="node">
<title>DataWithScatteringCoordinates[SampleRun]</title>
<polygon fill="none" stroke="black" points="1304.5,-61 1209.5,-61 1209.5,-40 1304.5,-40 1304.5,-61"/>
<text text-anchor="start" x="1217.5" y="-47.4" font-family="Times,serif" font-size="12.00">[SampleRun]</text>
</g>
<!-- FilteredData[SampleRun]&#45;&gt;DataWithScatteringCoordinates[SampleRun] -->
<g id="edge5" class="edge">
<title>FilteredData[SampleRun]:e&#45;&gt;DataWithScatteringCoordinates[SampleRun]:w</title>
<path fill="none" stroke="black" d="M967,-62.5C1070.79,-62.5 1098.96,-51.26 1197.88,-50.54"/>
<polygon fill="black" stroke="black" points="1198.01,-54.04 1208,-50.5 1197.99,-47.04 1198.01,-54.04"/>
</g>
<!-- DataWithScatteringCoordinates[SampleRun]&#45;&gt;NormalizedRunData[SampleRun] -->
<g id="edge31" class="edge">
<title>DataWithScatteringCoordinates[SampleRun]:e&#45;&gt;NormalizedRunData[SampleRun]:w</title>
<path fill="none" stroke="black" d="M1306,-50.5C1346.99,-50.5 1360.54,-46.78 1397,-65.5 1450.65,-93.05 1446.75,-147.82 1499.8,-153.94"/>
<polygon fill="black" stroke="black" points="1499.82,-157.45 1510,-154.5 1500.21,-150.46 1499.82,-157.45"/>
</g>
<!-- ElasticCoordTransformGraph -->
<g id="node11" class="node">
<title>ElasticCoordTransformGraph</title>
<polygon fill="none" stroke="black" points="1054,-33 782,-33 782,0 1054,0 1054,-33"/>
<text text-anchor="start" x="812.5" y="-18.8" font-family="Times,serif" font-size="14.00">ElasticCoordTransformGraph</text>
<text text-anchor="start" x="790" y="-7.2" font-family="Times,serif" font-size="11.00">via:</text>
<text text-anchor="start" x="811" y="-7.2" font-family="Times,serif" font-style="italic" font-size="11.00">powder_coordinate_transformation_graph</text>
</g>
<!-- ElasticCoordTransformGraph&#45;&gt;DataWithScatteringCoordinates[SampleRun] -->
<g id="edge6" class="edge">
<title>ElasticCoordTransformGraph:e&#45;&gt;DataWithScatteringCoordinates[SampleRun]:w</title>
<path fill="none" stroke="black" stroke-width="2" d="M1054,-16.5C1080.99,-16.5 1099.64,-21.54 1116.37,-27.74"/>
<polygon fill="black" stroke="black" stroke-width="2" points="1115.46,-31.14 1126.05,-31.5 1117.99,-24.62 1115.46,-31.14"/>
</g>
<!-- ElasticCoordTransformGraph&#45;&gt;DspacingData[SampleRun] -->
<g id="edge13" class="edge">
<title>ElasticCoordTransformGraph:e&#45;&gt;DspacingData[SampleRun]:w</title>
<path fill="none" stroke="black" stroke-width="2" d="M1054,-16.5C1322.46,-16.5 1392.14,14.78 1658,-22.5 1683.43,-26.07 1826.96,-73.41 1898.06,-91.52"/>
<polygon fill="black" stroke="black" stroke-width="2" points="1897.45,-94.98 1908,-93.97 1899.13,-88.18 1897.45,-94.98"/>
</g>
<!-- DataWithScatteringCoordinates[VanadiumRun] -->
<g id="node13" class="node">
<title>DataWithScatteringCoordinates[VanadiumRun]</title>
<polygon fill="none" stroke="black" points="1312,-86 1202,-86 1202,-65 1312,-65 1312,-86"/>
<text text-anchor="start" x="1210" y="-72.4" font-family="Times,serif" font-size="12.00">[VanadiumRun]</text>
</g>
<!-- FilteredData[VanadiumRun]&#45;&gt;DataWithScatteringCoordinates[VanadiumRun] -->
<g id="edge7" class="edge">
<title>FilteredData[VanadiumRun]:e&#45;&gt;DataWithScatteringCoordinates[VanadiumRun]:w</title>
<path fill="none" stroke="black" d="M974,-87.5C1071.58,-87.5 1098.18,-76.31 1190.9,-75.54"/>
<polygon fill="black" stroke="black" points="1191.01,-79.04 1201,-75.5 1190.99,-72.04 1191.01,-79.04"/>
</g>
<!-- DataWithScatteringCoordinates[VanadiumRun]&#45;&gt;NormalizedRunData[VanadiumRun] -->
<g id="edge33" class="edge">
<title>DataWithScatteringCoordinates[VanadiumRun]:e&#45;&gt;NormalizedRunData[VanadiumRun]:w</title>
<path fill="none" stroke="black" d="M1313,-75.5C1405.79,-75.5 1406.79,-172.12 1492.94,-179.1"/>
<polygon fill="black" stroke="black" points="1492.87,-182.6 1503,-179.5 1493.15,-175.61 1492.87,-182.6"/>
</g>
<!-- NeXusName[NXdetector] -->
<g id="node14" class="node">
<title>NeXusName[NXdetector]</title>
<polygon fill="none" stroke="black" points="197,-238 0,-238 0,-215 197,-215 197,-238"/>
<text text-anchor="middle" x="98.5" y="-222.8" font-family="Times,serif" font-size="14.00">NeXusName[NXdetector]</text>
</g>
<!-- NeXusName[NXdetector]&#45;&gt;DetectorBankSizes -->
<g id="edge8" class="edge">
<title>NeXusName[NXdetector]:e&#45;&gt;DetectorBankSizes:w</title>
<path fill="none" stroke="black" d="M197,-226.5C225.38,-226.5 234.88,-226.5 258.98,-226.5"/>
<polygon fill="black" stroke="black" points="259,-230 269,-226.5 259,-223 259,-230"/>
</g>
<!-- RawDataAndMetadata[SampleRun] -->
<g id="node15" class="node">
<title>RawDataAndMetadata[SampleRun]</title>
<polygon fill="none" stroke="black" points="418,-135 323,-135 323,-114 418,-114 418,-135"/>
<text text-anchor="start" x="331" y="-121.4" font-family="Times,serif" font-size="12.00">[SampleRun]</text>
</g>
<!-- RawDataAndMetadata[SampleRun]&#45;&gt;DetectorTofData[SampleRun] -->
<g id="edge9" class="edge">
<title>RawDataAndMetadata[SampleRun]:e&#45;&gt;DetectorTofData[SampleRun]:w</title>
<path fill="none" stroke="black" d="M419.5,-124.5C486.37,-124.5 505.63,-124.5 567.66,-124.5"/>
<polygon fill="black" stroke="black" points="568,-128 578,-124.5 568,-121 568,-128"/>
</g>
<!-- RawDataAndMetadata[VanadiumRun] -->
<g id="node16" class="node">
<title>RawDataAndMetadata[VanadiumRun]</title>
<polygon fill="none" stroke="black" points="425.5,-160 315.5,-160 315.5,-139 425.5,-139 425.5,-160"/>
<text text-anchor="start" x="323.5" y="-146.4" font-family="Times,serif" font-size="12.00">[VanadiumRun]</text>
</g>
<!-- RawDataAndMetadata[VanadiumRun]&#45;&gt;DetectorTofData[VanadiumRun] -->
<g id="edge11" class="edge">
<title>RawDataAndMetadata[VanadiumRun]:e&#45;&gt;DetectorTofData[VanadiumRun]:w</title>
<path fill="none" stroke="black" d="M426.5,-149.5C487.21,-149.5 504.88,-149.5 560.88,-149.5"/>
<polygon fill="black" stroke="black" points="561,-153 571,-149.5 561,-146 561,-153"/>
</g>
<!-- MaskedData[SampleRun] -->
<g id="node17" class="node">
<title>MaskedData[SampleRun]</title>
<polygon fill="none" stroke="black" points="1832.5,-109 1737.5,-109 1737.5,-88 1832.5,-88 1832.5,-109"/>
<text text-anchor="start" x="1745.5" y="-95.4" font-family="Times,serif" font-size="12.00">[SampleRun]</text>
</g>
<!-- MaskedData[SampleRun]&#45;&gt;DspacingData[SampleRun] -->
<g id="edge12" class="edge">
<title>MaskedData[SampleRun]:e&#45;&gt;DspacingData[SampleRun]:w</title>
<path fill="none" stroke="black" d="M1834,-98.5C1874.8,-98.5 1887.51,-98.5 1923.7,-98.5"/>
<polygon fill="black" stroke="black" points="1924,-102 1934,-98.5 1924,-95 1924,-102"/>
</g>
<!-- DspacingData[SampleRun]&#45;&gt;FocussedDataDspacingTwoTheta[SampleRun] -->
<g id="edge18" class="edge">
<title>DspacingData[SampleRun]:e&#45;&gt;FocussedDataDspacingTwoTheta[SampleRun]:w</title>
<path fill="none" stroke="black" d="M2032,-98.5C2081.01,-98.5 2081.15,-137.18 2127,-154.5 2156.11,-165.5 2166.92,-168.02 2193.78,-168.43"/>
<polygon fill="black" stroke="black" points="2193.98,-171.93 2204,-168.5 2194.02,-164.93 2193.98,-171.93"/>
</g>
<!-- MaskedData[VanadiumRun] -->
<g id="node19" class="node">
<title>MaskedData[VanadiumRun]</title>
<polygon fill="none" stroke="black" points="1840,-134 1730,-134 1730,-113 1840,-113 1840,-134"/>
<text text-anchor="start" x="1738" y="-120.4" font-family="Times,serif" font-size="12.00">[VanadiumRun]</text>
</g>
<!-- DspacingData[VanadiumRun] -->
<g id="node20" class="node">
<title>DspacingData[VanadiumRun]</title>
<polygon fill="none" stroke="black" points="2038,-134 1928,-134 1928,-113 2038,-113 2038,-134"/>
<text text-anchor="start" x="1936" y="-120.4" font-family="Times,serif" font-size="12.00">[VanadiumRun]</text>
</g>
<!-- MaskedData[VanadiumRun]&#45;&gt;DspacingData[VanadiumRun] -->
<g id="edge15" class="edge">
<title>MaskedData[VanadiumRun]:e&#45;&gt;DspacingData[VanadiumRun]:w</title>
<path fill="none" stroke="black" d="M1841,-123.5C1875.64,-123.5 1886.73,-123.5 1916.96,-123.5"/>
<polygon fill="black" stroke="black" points="1917,-127 1927,-123.5 1917,-120 1917,-127"/>
</g>
<!-- FocussedDataDspacingTwoTheta[VanadiumRun] -->
<g id="node25" class="node">
<title>FocussedDataDspacingTwoTheta[VanadiumRun]</title>
<polygon fill="none" stroke="black" points="2308,-154 2198,-154 2198,-133 2308,-133 2308,-154"/>
<text text-anchor="start" x="2206" y="-140.4" font-family="Times,serif" font-size="12.00">[VanadiumRun]</text>
</g>
<!-- DspacingData[VanadiumRun]&#45;&gt;FocussedDataDspacingTwoTheta[VanadiumRun] -->
<g id="edge21" class="edge">
<title>DspacingData[VanadiumRun]:e&#45;&gt;FocussedDataDspacingTwoTheta[VanadiumRun]:w</title>
<path fill="none" stroke="black" d="M2039,-123.5C2106.19,-123.5 2124.41,-141.52 2186.62,-143.35"/>
<polygon fill="black" stroke="black" points="2186.95,-146.86 2197,-143.5 2187.05,-139.86 2186.95,-146.86"/>
</g>
<!-- Filename[SampleRun] -->
<g id="node21" class="node">
<title>Filename[SampleRun]</title>
<polygon fill="none" stroke="black" points="146,-135 51,-135 51,-114 146,-114 146,-135"/>
<text text-anchor="start" x="59" y="-121.4" font-family="Times,serif" font-size="12.00">[SampleRun]</text>
</g>
<!-- Filename[SampleRun]&#45;&gt;RawDataAndMetadata[SampleRun] -->
<g id="edge35" class="edge">
<title>Filename[SampleRun]:e&#45;&gt;RawDataAndMetadata[SampleRun]:w</title>
<path fill="none" stroke="black" d="M147.5,-124.5C221.36,-124.5 242.31,-124.5 311.42,-124.5"/>
<polygon fill="black" stroke="black" points="311.5,-128 321.5,-124.5 311.5,-121 311.5,-128"/>
</g>
<!-- Filename[VanadiumRun] -->
<g id="node22" class="node">
<title>Filename[VanadiumRun]</title>
<polygon fill="none" stroke="black" points="153.5,-160 43.5,-160 43.5,-139 153.5,-139 153.5,-160"/>
<text text-anchor="start" x="51.5" y="-146.4" font-family="Times,serif" font-size="12.00">[VanadiumRun]</text>
</g>
<!-- Filename[VanadiumRun]&#45;&gt;RawDataAndMetadata[VanadiumRun] -->
<g id="edge36" class="edge">
<title>Filename[VanadiumRun]:e&#45;&gt;RawDataAndMetadata[VanadiumRun]:w</title>
<path fill="none" stroke="black" d="M154.5,-149.5C222.14,-149.5 241.53,-149.5 304.45,-149.5"/>
<polygon fill="black" stroke="black" points="304.5,-153 314.5,-149.5 304.5,-146 304.5,-153"/>
</g>
<!-- IofDspacingTwoTheta -->
<g id="node26" class="node">
<title>IofDspacingTwoTheta</title>
<polygon fill="none" stroke="black" points="2763,-185 2451,-185 2451,-152 2763,-152 2763,-185"/>
<text text-anchor="start" x="2529.5" y="-170.8" font-family="Times,serif" font-size="14.00">IofDspacingTwoTheta</text>
<text text-anchor="start" x="2459" y="-159.2" font-family="Times,serif" font-size="11.00">via:</text>
<text text-anchor="start" x="2480" y="-159.2" font-family="Times,serif" font-style="italic" font-size="11.00">normalize_by_vanadium_dspacing_and_two_theta</text>
</g>
<!-- FocussedDataDspacingTwoTheta[SampleRun]&#45;&gt;IofDspacingTwoTheta -->
<g id="edge22" class="edge">
<title>FocussedDataDspacingTwoTheta[SampleRun]:e&#45;&gt;IofDspacingTwoTheta:w</title>
<path fill="none" stroke="black" d="M2302,-168.5C2364.73,-168.5 2382.89,-168.5 2440.92,-168.5"/>
<polygon fill="black" stroke="black" points="2441,-172 2451,-168.5 2441,-165 2441,-172"/>
</g>
<!-- TwoThetaBins -->
<g id="node24" class="node">
<title>TwoThetaBins</title>
<polygon fill="none" stroke="black" points="2042,-207 1924,-207 1924,-184 2042,-184 2042,-207"/>
<text text-anchor="middle" x="1983" y="-191.8" font-family="Times,serif" font-size="14.00">TwoThetaBins</text>
</g>
<!-- TwoThetaBins&#45;&gt;FocussedDataDspacingTwoTheta[SampleRun] -->
<g id="edge20" class="edge">
<title>TwoThetaBins:e&#45;&gt;FocussedDataDspacingTwoTheta[SampleRun]:w</title>
<path fill="none" stroke="black" stroke-width="2" d="M2043,-195.5C2075.82,-195.5 2097.05,-189.97 2117.17,-183.92"/>
<polygon fill="black" stroke="black" stroke-width="2" points="2118.45,-187.19 2127,-180.93 2116.42,-180.49 2118.45,-187.19"/>
</g>
<!-- FocussedDataDspacingTwoTheta[VanadiumRun]&#45;&gt;IofDspacingTwoTheta -->
<g id="edge23" class="edge">
<title>FocussedDataDspacingTwoTheta[VanadiumRun]:e&#45;&gt;IofDspacingTwoTheta:w</title>
<path fill="none" stroke="black" d="M2309,-143.5C2369.58,-143.5 2385.25,-165.84 2440.92,-168.28"/>
<polygon fill="black" stroke="black" points="2440.93,-171.78 2451,-168.5 2441.08,-164.79 2440.93,-171.78"/>
</g>
<!-- UncertaintyBroadcastMode -->
<g id="node27" class="node">
<title>UncertaintyBroadcastMode</title>
<polygon fill="none" stroke="black" points="2360,-252 2146,-252 2146,-229 2360,-229 2360,-252"/>
<text text-anchor="middle" x="2253" y="-236.8" font-family="Times,serif" font-size="14.00">UncertaintyBroadcastMode</text>
</g>
<!-- UncertaintyBroadcastMode&#45;&gt;IofDspacingTwoTheta -->
<g id="edge24" class="edge">
<title>UncertaintyBroadcastMode:e&#45;&gt;IofDspacingTwoTheta:w</title>
<path fill="none" stroke="black" d="M2361,-240.5C2408.52,-240.5 2401.24,-178.53 2440.84,-169.57"/>
<polygon fill="black" stroke="black" points="2441.42,-173.03 2451,-168.5 2440.69,-166.07 2441.42,-173.03"/>
</g>
<!-- NormalizedRunData[SampleRun]&#45;&gt;MaskedData[SampleRun] -->
<g id="edge25" class="edge">
<title>NormalizedRunData[SampleRun]:e&#45;&gt;MaskedData[SampleRun]:w</title>
<path fill="none" stroke="black" d="M1608,-154.5C1666.58,-154.5 1673.29,-104.66 1725.99,-99.02"/>
<polygon fill="black" stroke="black" points="1726.19,-102.51 1736,-98.5 1725.83,-95.52 1726.19,-102.51"/>
</g>
<!-- MaskedDetectorIDs -->
<g id="node29" class="node">
<title>MaskedDetectorIDs</title>
<polygon fill="none" stroke="black" points="1638,-127 1480,-127 1480,-104 1638,-104 1638,-127"/>
<text text-anchor="middle" x="1559" y="-111.8" font-family="Times,serif" font-size="14.00">MaskedDetectorIDs</text>
</g>
<!-- MaskedDetectorIDs&#45;&gt;MaskedData[SampleRun] -->
<g id="edge26" class="edge">
<title>MaskedDetectorIDs:e&#45;&gt;MaskedData[SampleRun]:w</title>
<path fill="none" stroke="black" stroke-width="2" d="M1639,-115.5C1673.44,-115.5 1686.64,-104.97 1712.04,-100.49"/>
<polygon fill="black" stroke="black" stroke-width="2" points="1712.56,-103.95 1722,-99.14 1711.63,-97.01 1712.56,-103.95"/>
</g>
<!-- TofMask -->
<g id="node30" class="node">
<title>TofMask</title>
<polygon fill="none" stroke="black" points="1597.5,-100 1520.5,-100 1520.5,-77 1597.5,-77 1597.5,-100"/>
<text text-anchor="middle" x="1559" y="-84.8" font-family="Times,serif" font-size="14.00">TofMask</text>
</g>
<!-- TofMask&#45;&gt;MaskedData[SampleRun] -->
<g id="edge27" class="edge">
<title>TofMask:e&#45;&gt;MaskedData[SampleRun]:w</title>
<path fill="none" stroke="black" stroke-width="2" d="M1599,-88.5C1651.15,-88.5 1669.63,-95.8 1711.96,-97.92"/>
<polygon fill="black" stroke="black" stroke-width="2" points="1711.88,-101.42 1722,-98.31 1712.15,-94.43 1711.88,-101.42"/>
</g>
<!-- WavelengthMask -->
<g id="node31" class="node">
<title>WavelengthMask</title>
<polygon fill="none" stroke="black" points="1628.5,-73 1489.5,-73 1489.5,-50 1628.5,-50 1628.5,-73"/>
<text text-anchor="middle" x="1559" y="-57.8" font-family="Times,serif" font-size="14.00">WavelengthMask</text>
</g>
<!-- WavelengthMask&#45;&gt;MaskedData[SampleRun] -->
<g id="edge28" class="edge">
<title>WavelengthMask:e&#45;&gt;MaskedData[SampleRun]:w</title>
<path fill="none" stroke="black" stroke-width="2" d="M1630,-61.5C1670.61,-61.5 1682.28,-86.01 1712.11,-95.13"/>
<polygon fill="black" stroke="black" stroke-width="2" points="1711.47,-98.57 1722,-97.42 1713.05,-91.76 1711.47,-98.57"/>
</g>
<!-- TwoThetaMask -->
<g id="node32" class="node">
<title>TwoThetaMask</title>
<polygon fill="none" stroke="black" points="1621.5,-46 1496.5,-46 1496.5,-23 1621.5,-23 1621.5,-46"/>
<text text-anchor="middle" x="1559" y="-30.8" font-family="Times,serif" font-size="14.00">TwoThetaMask</text>
</g>
<!-- TwoThetaMask&#45;&gt;MaskedData[SampleRun] -->
<g id="edge29" class="edge">
<title>TwoThetaMask:e&#45;&gt;MaskedData[SampleRun]:w</title>
<path fill="none" stroke="black" stroke-width="2" d="M1622,-34.5C1670.86,-34.5 1677.07,-79.75 1712.36,-94.15"/>
<polygon fill="black" stroke="black" stroke-width="2" points="1711.41,-97.53 1722,-97.11 1713.46,-90.83 1711.41,-97.53"/>
</g>
<!-- NormalizedRunData[VanadiumRun]&#45;&gt;MaskedData[VanadiumRun] -->
<g id="edge30" class="edge">
<title>NormalizedRunData[VanadiumRun]:e&#45;&gt;MaskedData[VanadiumRun]:w</title>
<path fill="none" stroke="black" d="M1615,-179.5C1635.1,-179.5 1639.69,-173.78 1658,-165.5 1688.02,-151.93 1691.81,-128.84 1718.86,-124.29"/>
<polygon fill="black" stroke="black" points="1719.3,-127.77 1729,-123.5 1718.76,-120.79 1719.3,-127.77"/>
</g>
</g>
</svg>
