<?xml version="1.0" encoding="UTF-8" standalone="no"?>
<!DOCTYPE svg PUBLIC "-//W3C//DTD SVG 1.1//EN"
 "http://www.w3.org/Graphics/SVG/1.1/DTD/svg11.dtd">
<!-- Generated by graphviz version 2.43.0 (0)
 -->
<!-- Title: %3 Pages: 1 -->
<svg width="2643pt" height="278pt"
 viewBox="0.00 0.00 2643.00 278.00" xmlns="http://www.w3.org/2000/svg" xmlns:xlink="http://www.w3.org/1999/xlink">
<g id="graph0" class="graph" transform="scale(1 1) rotate(0) translate(4 274)">
<title>%3</title>
<polygon fill="white" stroke="transparent" points="-4,4 -4,-274 2639,-274 2639,4 -4,4"/>
<g id="clust1" class="cluster">
<title>cluster_AccumulatedProtonCharge</title>
<polygon fill="#f0f0ff" stroke="#f0f0ff" points="1138,-135.5 1138,-231.5 1377,-231.5 1377,-135.5 1138,-135.5"/>
<text text-anchor="start" x="1161" y="-217.3" font-family="Times,serif" font-size="14.00">AccumulatedProtonCharge</text>
<text text-anchor="start" x="1146" y="-205.7" font-family="Times,serif" font-size="11.00">via:</text>
<text text-anchor="start" x="1167" y="-205.7" font-family="Times,serif" font-style="italic" font-size="11.00">extract_accumulated_proton_charge</text>
</g>
<g id="clust4" class="cluster">
<title>cluster_DataWithScatteringCoordinates</title>
<polygon fill="#f0f0ff" stroke="#f0f0ff" points="1118,-31.5 1118,-127.5 1397,-127.5 1397,-31.5 1118,-31.5"/>
<text text-anchor="start" x="1143" y="-113.3" font-family="Times,serif" font-size="14.00">DataWithScatteringCoordinates</text>
<text text-anchor="start" x="1126" y="-101.7" font-family="Times,serif" font-size="11.00">via:</text>
<text text-anchor="start" x="1147" y="-101.7" font-family="Times,serif" font-style="italic" font-size="11.00">add_scattering_coordinates_from_positions</text>
</g>
<g id="clust6" class="cluster">
<title>cluster_DetectorTofData</title>
<polygon fill="#f0f0ff" stroke="#f0f0ff" points="560,-105.5 560,-201.5 694,-201.5 694,-105.5 560,-105.5"/>
<text text-anchor="start" x="568" y="-187.3" font-family="Times,serif" font-size="14.00">DetectorTofData</text>
<text text-anchor="start" x="568" y="-175.7" font-family="Times,serif" font-size="11.00">via:</text>
<text text-anchor="start" x="589" y="-175.7" font-family="Times,serif" font-style="italic" font-size="11.00">extract_raw_data</text>
</g>
<g id="clust8" class="cluster">
<title>cluster_DspacingData</title>
<polygon fill="#f0f0ff" stroke="#f0f0ff" points="1906,-82.5 1906,-178.5 2057,-178.5 2057,-82.5 1906,-82.5"/>
<text text-anchor="start" x="1931.5" y="-164.3" font-family="Times,serif" font-size="14.00">DspacingData</text>
<text text-anchor="start" x="1914" y="-152.7" font-family="Times,serif" font-size="11.00">via:</text>
<text text-anchor="start" x="1935" y="-152.7" font-family="Times,serif" font-style="italic" font-size="11.00">convert_to_dspacing</text>
</g>
<g id="clust10" class="cluster">
<title>cluster_Filename</title>
<polygon fill="#f0f0ff" stroke="#f0f0ff" points="35.5,-105.5 35.5,-191.5 161.5,-191.5 161.5,-105.5 35.5,-105.5"/>
<text text-anchor="middle" x="98.5" y="-176.3" font-family="Times,serif" font-size="14.00">Filename</text>
</g>
<g id="clust11" class="cluster">
<title>cluster_FilteredData</title>
<polygon fill="#f0f0ff" stroke="#f0f0ff" points="855,-43.5 855,-139.5 981,-139.5 981,-43.5 855,-43.5"/>
<text text-anchor="start" x="872.5" y="-125.3" font-family="Times,serif" font-size="14.00">FilteredData</text>
<text text-anchor="start" x="872.5" y="-113.7" font-family="Times,serif" font-size="11.00">via:</text>
<text text-anchor="start" x="893.5" y="-113.7" font-family="Times,serif" font-style="italic" font-size="11.00">filter_events</text>
</g>
<g id="clust12" class="cluster">
<title>cluster_FocussedDataDspacing</title>
<polygon fill="#f0f0ff" stroke="#f0f0ff" points="2139,-107.5 2139,-203.5 2321,-203.5 2321,-107.5 2139,-107.5"/>
<text text-anchor="start" x="2147" y="-189.3" font-family="Times,serif" font-size="14.00">FocussedDataDspacing</text>
<text text-anchor="start" x="2162" y="-177.7" font-family="Times,serif" font-size="11.00">via:</text>
<text text-anchor="start" x="2183" y="-177.7" font-family="Times,serif" font-style="italic" font-size="11.00">focus_data_dspacing</text>
</g>
<g id="clust14" class="cluster">
<title>cluster_MaskedData</title>
<polygon fill="#f0f0ff" stroke="#f0f0ff" points="1722,-82.5 1722,-178.5 1848,-178.5 1848,-82.5 1722,-82.5"/>
<text text-anchor="start" x="1740" y="-164.3" font-family="Times,serif" font-size="14.00">MaskedData</text>
<text text-anchor="start" x="1738.5" y="-152.7" font-family="Times,serif" font-size="11.00">via:</text>
<text text-anchor="start" x="1759.5" y="-152.7" font-family="Times,serif" font-style="italic" font-size="11.00">apply_masks</text>
</g>
<g id="clust17" class="cluster">
<title>cluster_NormalizedRunData</title>
<polygon fill="#f0f0ff" stroke="#f0f0ff" points="1461,-135.5 1461,-231.5 1658,-231.5 1658,-135.5 1461,-135.5"/>
<text text-anchor="start" x="1487" y="-217.3" font-family="Times,serif" font-size="14.00">NormalizedRunData</text>
<text text-anchor="start" x="1469" y="-205.7" font-family="Times,serif" font-size="11.00">via:</text>
<text text-anchor="start" x="1490" y="-205.7" font-family="Times,serif" font-style="italic" font-size="11.00">normalize_by_proton_charge</text>
</g>
<g id="clust18" class="cluster">
<title>cluster_RawDataAndMetadata</title>
<polygon fill="#f0f0ff" stroke="#f0f0ff" points="282.5,-105.5 282.5,-201.5 459.5,-201.5 459.5,-105.5 282.5,-105.5"/>
<text text-anchor="start" x="290.5" y="-187.3" font-family="Times,serif" font-size="14.00">RawDataAndMetadata</text>
<text text-anchor="start" x="329" y="-175.7" font-family="Times,serif" font-size="11.00">via:</text>
<text text-anchor="start" x="350" y="-175.7" font-family="Times,serif" font-style="italic" font-size="11.00">pooch_load</text>
</g>
<!-- DetectorTofData[SampleRun] -->
<g id="node1" class="node">
<title>DetectorTofData[SampleRun]</title>
<polygon fill="none" stroke="black" points="674.5,-160 579.5,-160 579.5,-139 674.5,-139 674.5,-160"/>
<text text-anchor="start" x="587.5" y="-146.4" font-family="Times,serif" font-size="12.00">[SampleRun]</text>
</g>
<!-- AccumulatedProtonCharge[SampleRun] -->
<g id="node2" class="node">
<title>AccumulatedProtonCharge[SampleRun]</title>
<polygon fill="none" stroke="black" points="1304.5,-190 1209.5,-190 1209.5,-169 1304.5,-169 1304.5,-190"/>
<text text-anchor="start" x="1217.5" y="-176.4" font-family="Times,serif" font-size="12.00">[SampleRun]</text>
</g>
<!-- DetectorTofData[SampleRun]&#45;&gt;AccumulatedProtonCharge[SampleRun] -->
<g id="edge1" class="edge">
<title>DetectorTofData[SampleRun]:e&#45;&gt;AccumulatedProtonCharge[SampleRun]:w</title>
<path fill="none" stroke="black" d="M676,-149.5C723.19,-149.5 734.89,-152.84 782,-155.5 967.91,-166 1016.62,-179.02 1197.86,-179.49"/>
<polygon fill="black" stroke="black" points="1198,-182.99 1208,-179.5 1198,-175.99 1198,-182.99"/>
</g>
<!-- FilteredData[SampleRun] -->
<g id="node8" class="node">
<title>FilteredData[SampleRun]</title>
<polygon fill="none" stroke="black" points="965.5,-98 870.5,-98 870.5,-77 965.5,-77 965.5,-98"/>
<text text-anchor="start" x="878.5" y="-84.4" font-family="Times,serif" font-size="12.00">[SampleRun]</text>
</g>
<!-- DetectorTofData[SampleRun]&#45;&gt;FilteredData[SampleRun] -->
<g id="edge16" class="edge">
<title>DetectorTofData[SampleRun]:e&#45;&gt;FilteredData[SampleRun]:w</title>
<path fill="none" stroke="black" d="M676,-149.5C762.58,-149.5 777.79,-92.25 858.79,-87.78"/>
<polygon fill="black" stroke="black" points="859.1,-91.27 869,-87.5 858.91,-84.27 859.1,-91.27"/>
</g>
<!-- NormalizedRunData[SampleRun] -->
<g id="node27" class="node">
<title>NormalizedRunData[SampleRun]</title>
<polygon fill="none" stroke="black" points="1606.5,-190 1511.5,-190 1511.5,-169 1606.5,-169 1606.5,-190"/>
<text text-anchor="start" x="1519.5" y="-176.4" font-family="Times,serif" font-size="12.00">[SampleRun]</text>
</g>
<!-- AccumulatedProtonCharge[SampleRun]&#45;&gt;NormalizedRunData[SampleRun] -->
<g id="edge31" class="edge">
<title>AccumulatedProtonCharge[SampleRun]:e&#45;&gt;NormalizedRunData[SampleRun]:w</title>
<path fill="none" stroke="black" d="M1306,-179.5C1393.21,-179.5 1417.51,-179.5 1499.93,-179.5"/>
<polygon fill="black" stroke="black" points="1500,-183 1510,-179.5 1500,-176 1500,-183"/>
</g>
<!-- DetectorTofData[VanadiumRun] -->
<g id="node3" class="node">
<title>DetectorTofData[VanadiumRun]</title>
<polygon fill="none" stroke="black" points="682,-135 572,-135 572,-114 682,-114 682,-135"/>
<text text-anchor="start" x="580" y="-121.4" font-family="Times,serif" font-size="12.00">[VanadiumRun]</text>
</g>
<!-- AccumulatedProtonCharge[VanadiumRun] -->
<g id="node4" class="node">
<title>AccumulatedProtonCharge[VanadiumRun]</title>
<polygon fill="none" stroke="black" points="1312,-165 1202,-165 1202,-144 1312,-144 1312,-165"/>
<text text-anchor="start" x="1210" y="-151.4" font-family="Times,serif" font-size="12.00">[VanadiumRun]</text>
</g>
<!-- DetectorTofData[VanadiumRun]&#45;&gt;AccumulatedProtonCharge[VanadiumRun] -->
<g id="edge2" class="edge">
<title>DetectorTofData[VanadiumRun]:e&#45;&gt;AccumulatedProtonCharge[VanadiumRun]:w</title>
<path fill="none" stroke="black" d="M683,-124.5C727.57,-124.5 737.64,-136.19 782,-140.5 964.01,-158.18 1012.87,-154.64 1190.77,-154.5"/>
<polygon fill="black" stroke="black" points="1191,-158 1201,-154.5 1191,-151 1191,-158"/>
</g>
<!-- FilteredData[VanadiumRun] -->
<g id="node11" class="node">
<title>FilteredData[VanadiumRun]</title>
<polygon fill="none" stroke="black" points="973,-73 863,-73 863,-52 973,-52 973,-73"/>
<text text-anchor="start" x="871" y="-59.4" font-family="Times,serif" font-size="12.00">[VanadiumRun]</text>
</g>
<!-- DetectorTofData[VanadiumRun]&#45;&gt;FilteredData[VanadiumRun] -->
<g id="edge17" class="edge">
<title>DetectorTofData[VanadiumRun]:e&#45;&gt;FilteredData[VanadiumRun]:w</title>
<path fill="none" stroke="black" d="M683,-124.5C731.71,-124.5 735.68,-92.56 782,-77.5 812.91,-67.45 823.65,-63.35 851.75,-62.62"/>
<polygon fill="black" stroke="black" points="852.04,-66.12 862,-62.5 851.96,-59.12 852.04,-66.12"/>
</g>
<!-- NormalizedRunData[VanadiumRun] -->
<g id="node32" class="node">
<title>NormalizedRunData[VanadiumRun]</title>
<polygon fill="none" stroke="black" points="1614,-165 1504,-165 1504,-144 1614,-144 1614,-165"/>
<text text-anchor="start" x="1512" y="-151.4" font-family="Times,serif" font-size="12.00">[VanadiumRun]</text>
</g>
<!-- AccumulatedProtonCharge[VanadiumRun]&#45;&gt;NormalizedRunData[VanadiumRun] -->
<g id="edge33" class="edge">
<title>AccumulatedProtonCharge[VanadiumRun]:e&#45;&gt;NormalizedRunData[VanadiumRun]:w</title>
<path fill="none" stroke="black" d="M1313,-154.5C1393.98,-154.5 1416.72,-154.5 1492.92,-154.5"/>
<polygon fill="black" stroke="black" points="1493,-158 1503,-154.5 1493,-151 1493,-158"/>
</g>
<!-- CalibrationFilename -->
<g id="node5" class="node">
<title>CalibrationFilename</title>
<polygon fill="none" stroke="black" points="451.5,-270 289.5,-270 289.5,-247 451.5,-247 451.5,-270"/>
<text text-anchor="middle" x="370.5" y="-254.8" font-family="Times,serif" font-size="14.00">CalibrationFilename</text>
</g>
<!-- CalibrationData -->
<g id="node6" class="node">
<title>CalibrationData</title>
<polygon fill="none" stroke="black" points="710,-259 544,-259 544,-226 710,-226 710,-259"/>
<text text-anchor="start" x="570" y="-244.8" font-family="Times,serif" font-size="14.00">CalibrationData</text>
<text text-anchor="start" x="552" y="-233.2" font-family="Times,serif" font-size="11.00">via:</text>
<text text-anchor="start" x="573" y="-233.2" font-family="Times,serif" font-style="italic" font-size="11.00">pooch_load_calibration</text>
</g>
<!-- CalibrationFilename&#45;&gt;CalibrationData -->
<g id="edge3" class="edge">
<title>CalibrationFilename:e&#45;&gt;CalibrationData:w</title>
<path fill="none" stroke="black" d="M452.5,-258.5C490.07,-258.5 500.85,-245.25 533.61,-242.86"/>
<polygon fill="black" stroke="black" points="534.13,-246.35 544,-242.5 533.88,-239.35 534.13,-246.35"/>
</g>
<!-- DspacingData[SampleRun] -->
<g id="node18" class="node">
<title>DspacingData[SampleRun]</title>
<polygon fill="none" stroke="black" points="2028.5,-112 1933.5,-112 1933.5,-91 2028.5,-91 2028.5,-112"/>
<text text-anchor="start" x="1941.5" y="-98.4" font-family="Times,serif" font-size="12.00">[SampleRun]</text>
</g>
<!-- CalibrationData&#45;&gt;DspacingData[SampleRun] -->
<g id="edge14" class="edge">
<title>CalibrationData:e&#45;&gt;DspacingData[SampleRun]:w</title>
<path fill="none" stroke="black" stroke-width="2" d="M710,-242.5C952.67,-242.5 1013.33,-242.5 1256,-242.5 1256,-242.5 1256,-242.5 1560,-242.5 1691.03,-242.5 1736.25,-247.92 1848,-179.5 1877.63,-161.36 1882.22,-131.69 1898.3,-114.65"/>
<polygon fill="black" stroke="black" stroke-width="2" points="1900.59,-117.29 1906,-108.19 1896.09,-111.93 1900.59,-117.29"/>
</g>
<!-- DetectorBankSizes -->
<g id="node7" class="node">
<title>DetectorBankSizes</title>
<polygon fill="none" stroke="black" points="472,-243 269,-243 269,-210 472,-210 472,-243"/>
<text text-anchor="start" x="302.5" y="-228.8" font-family="Times,serif" font-size="14.00">DetectorBankSizes</text>
<text text-anchor="start" x="277" y="-217.2" font-family="Times,serif" font-size="11.00">via:</text>
<text text-anchor="start" x="298" y="-217.2" font-family="Times,serif" font-style="italic" font-size="11.00">powgen_detector_dimensions</text>
</g>
<!-- DetectorBankSizes&#45;&gt;DetectorTofData[SampleRun] -->
<g id="edge10" class="edge">
<title>DetectorBankSizes:e&#45;&gt;DetectorTofData[SampleRun]:w</title>
<path fill="none" stroke="black" stroke-width="2" d="M472,-226.5C518.93,-226.5 521.24,-176.48 550.86,-157.07"/>
<polygon fill="black" stroke="black" stroke-width="2" points="552.64,-160.09 560,-152.47 549.5,-153.84 552.64,-160.09"/>
</g>
<!-- DetectorBankSizes&#45;&gt;CalibrationData -->
<g id="edge4" class="edge">
<title>DetectorBankSizes:e&#45;&gt;CalibrationData:w</title>
<path fill="none" stroke="black" d="M472,-226.5C501.07,-226.5 509.42,-239.08 533.8,-241.93"/>
<polygon fill="black" stroke="black" points="533.82,-245.44 544,-242.5 534.21,-238.45 533.82,-245.44"/>
</g>
<!-- DataWithScatteringCoordinates[SampleRun] -->
<g id="node9" class="node">
<title>DataWithScatteringCoordinates[SampleRun]</title>
<polygon fill="none" stroke="black" points="1304.5,-86 1209.5,-86 1209.5,-65 1304.5,-65 1304.5,-86"/>
<text text-anchor="start" x="1217.5" y="-72.4" font-family="Times,serif" font-size="12.00">[SampleRun]</text>
</g>
<!-- FilteredData[SampleRun]&#45;&gt;DataWithScatteringCoordinates[SampleRun] -->
<g id="edge5" class="edge">
<title>FilteredData[SampleRun]:e&#45;&gt;DataWithScatteringCoordinates[SampleRun]:w</title>
<path fill="none" stroke="black" d="M967,-87.5C1070.79,-87.5 1098.96,-76.26 1197.88,-75.54"/>
<polygon fill="black" stroke="black" points="1198.01,-79.04 1208,-75.5 1197.99,-72.04 1198.01,-79.04"/>
</g>
<!-- DataWithScatteringCoordinates[SampleRun]&#45;&gt;NormalizedRunData[SampleRun] -->
<g id="edge30" class="edge">
<title>DataWithScatteringCoordinates[SampleRun]:e&#45;&gt;NormalizedRunData[SampleRun]:w</title>
<path fill="none" stroke="black" d="M1306,-75.5C1404.29,-75.5 1408.08,-172.51 1499.91,-179.14"/>
<polygon fill="black" stroke="black" points="1499.88,-182.64 1510,-179.5 1500.13,-175.65 1499.88,-182.64"/>
</g>
<!-- ElasticCoordTransformGraph -->
<g id="node10" class="node">
<title>ElasticCoordTransformGraph</title>
<polygon fill="none" stroke="black" points="1054,-33 782,-33 782,0 1054,0 1054,-33"/>
<text text-anchor="start" x="812.5" y="-18.8" font-family="Times,serif" font-size="14.00">ElasticCoordTransformGraph</text>
<text text-anchor="start" x="790" y="-7.2" font-family="Times,serif" font-size="11.00">via:</text>
<text text-anchor="start" x="811" y="-7.2" font-family="Times,serif" font-style="italic" font-size="11.00">powder_coordinate_transformation_graph</text>
</g>
<!-- ElasticCoordTransformGraph&#45;&gt;DataWithScatteringCoordinates[SampleRun] -->
<g id="edge6" class="edge">
<title>ElasticCoordTransformGraph:e&#45;&gt;DataWithScatteringCoordinates[SampleRun]:w</title>
<path fill="none" stroke="black" stroke-width="2" d="M1054,-16.5C1085.1,-16.5 1085.97,-42.1 1108.89,-56.81"/>
<polygon fill="black" stroke="black" stroke-width="2" points="1107.51,-60.03 1118,-61.5 1110.71,-53.81 1107.51,-60.03"/>
</g>
<!-- ElasticCoordTransformGraph&#45;&gt;DspacingData[SampleRun] -->
<g id="edge13" class="edge">
<title>ElasticCoordTransformGraph:e&#45;&gt;DspacingData[SampleRun]:w</title>
<path fill="none" stroke="black" stroke-width="2" d="M1054,-16.5C1322.46,-16.5 1392.37,16.38 1658,-22.5 1683.29,-26.2 1825.46,-75.34 1896.12,-94.2"/>
<polygon fill="black" stroke="black" stroke-width="2" points="1895.44,-97.64 1906,-96.75 1897.19,-90.86 1895.44,-97.64"/>
</g>
<!-- DataWithScatteringCoordinates[VanadiumRun] -->
<g id="node12" class="node">
<title>DataWithScatteringCoordinates[VanadiumRun]</title>
<polygon fill="none" stroke="black" points="1312,-61 1202,-61 1202,-40 1312,-40 1312,-61"/>
<text text-anchor="start" x="1210" y="-47.4" font-family="Times,serif" font-size="12.00">[VanadiumRun]</text>
</g>
<!-- FilteredData[VanadiumRun]&#45;&gt;DataWithScatteringCoordinates[VanadiumRun] -->
<g id="edge7" class="edge">
<title>FilteredData[VanadiumRun]:e&#45;&gt;DataWithScatteringCoordinates[VanadiumRun]:w</title>
<path fill="none" stroke="black" d="M974,-62.5C1071.58,-62.5 1098.18,-51.31 1190.9,-50.54"/>
<polygon fill="black" stroke="black" points="1191.01,-54.04 1201,-50.5 1190.99,-47.04 1191.01,-54.04"/>
</g>
<!-- DataWithScatteringCoordinates[VanadiumRun]&#45;&gt;NormalizedRunData[VanadiumRun] -->
<g id="edge32" class="edge">
<title>DataWithScatteringCoordinates[VanadiumRun]:e&#45;&gt;NormalizedRunData[VanadiumRun]:w</title>
<path fill="none" stroke="black" d="M1313,-50.5C1350.92,-50.5 1363.38,-47.95 1397,-65.5 1448.34,-92.3 1442.44,-147.52 1492.9,-153.9"/>
<polygon fill="black" stroke="black" points="1492.81,-157.4 1503,-154.5 1493.23,-150.41 1492.81,-157.4"/>
</g>
<!-- NeXusName[NXdetector] -->
<g id="node13" class="node">
<title>NeXusName[NXdetector]</title>
<polygon fill="none" stroke="black" points="197,-238 0,-238 0,-215 197,-215 197,-238"/>
<text text-anchor="middle" x="98.5" y="-222.8" font-family="Times,serif" font-size="14.00">NeXusName[NXdetector]</text>
</g>
<!-- NeXusName[NXdetector]&#45;&gt;DetectorBankSizes -->
<g id="edge8" class="edge">
<title>NeXusName[NXdetector]:e&#45;&gt;DetectorBankSizes:w</title>
<path fill="none" stroke="black" d="M197,-226.5C225.38,-226.5 234.88,-226.5 258.98,-226.5"/>
<polygon fill="black" stroke="black" points="259,-230 269,-226.5 259,-223 259,-230"/>
</g>
<!-- RawDataAndMetadata[SampleRun] -->
<g id="node14" class="node">
<title>RawDataAndMetadata[SampleRun]</title>
<polygon fill="none" stroke="black" points="418,-160 323,-160 323,-139 418,-139 418,-160"/>
<text text-anchor="start" x="331" y="-146.4" font-family="Times,serif" font-size="12.00">[SampleRun]</text>
</g>
<!-- RawDataAndMetadata[SampleRun]&#45;&gt;DetectorTofData[SampleRun] -->
<g id="edge9" class="edge">
<title>RawDataAndMetadata[SampleRun]:e&#45;&gt;DetectorTofData[SampleRun]:w</title>
<path fill="none" stroke="black" d="M419.5,-149.5C486.37,-149.5 505.63,-149.5 567.66,-149.5"/>
<polygon fill="black" stroke="black" points="568,-153 578,-149.5 568,-146 568,-153"/>
</g>
<!-- RawDataAndMetadata[VanadiumRun] -->
<g id="node15" class="node">
<title>RawDataAndMetadata[VanadiumRun]</title>
<polygon fill="none" stroke="black" points="425.5,-135 315.5,-135 315.5,-114 425.5,-114 425.5,-135"/>
<text text-anchor="start" x="323.5" y="-121.4" font-family="Times,serif" font-size="12.00">[VanadiumRun]</text>
</g>
<!-- RawDataAndMetadata[VanadiumRun]&#45;&gt;DetectorTofData[VanadiumRun] -->
<g id="edge11" class="edge">
<title>RawDataAndMetadata[VanadiumRun]:e&#45;&gt;DetectorTofData[VanadiumRun]:w</title>
<path fill="none" stroke="black" d="M426.5,-124.5C487.21,-124.5 504.88,-124.5 560.88,-124.5"/>
<polygon fill="black" stroke="black" points="561,-128 571,-124.5 561,-121 561,-128"/>
</g>
<!-- DspacingBins -->
<g id="node16" class="node">
<title>DspacingBins</title>
<polygon fill="none" stroke="black" points="2038,-210 1924,-210 1924,-187 2038,-187 2038,-210"/>
<text text-anchor="middle" x="1981" y="-194.8" font-family="Times,serif" font-size="14.00">DspacingBins</text>
</g>
<!-- FocussedDataDspacing[SampleRun] -->
<g id="node23" class="node">
<title>FocussedDataDspacing[SampleRun]</title>
<polygon fill="none" stroke="black" points="2277.5,-162 2182.5,-162 2182.5,-141 2277.5,-141 2277.5,-162"/>
<text text-anchor="start" x="2190.5" y="-148.4" font-family="Times,serif" font-size="12.00">[SampleRun]</text>
</g>
<!-- DspacingBins&#45;&gt;FocussedDataDspacing[SampleRun] -->
<g id="edge19" class="edge">
<title>DspacingBins:e&#45;&gt;FocussedDataDspacing[SampleRun]:w</title>
<path fill="none" stroke="black" stroke-width="2" d="M2039,-198.5C2083.49,-198.5 2102.26,-177.45 2129.73,-163.52"/>
<polygon fill="black" stroke="black" stroke-width="2" points="2131.36,-166.63 2139,-159.29 2128.45,-160.26 2131.36,-166.63"/>
</g>
<!-- MaskedData[SampleRun] -->
<g id="node17" class="node">
<title>MaskedData[SampleRun]</title>
<polygon fill="none" stroke="black" points="1832.5,-112 1737.5,-112 1737.5,-91 1832.5,-91 1832.5,-112"/>
<text text-anchor="start" x="1745.5" y="-98.4" font-family="Times,serif" font-size="12.00">[SampleRun]</text>
</g>
<!-- MaskedData[SampleRun]&#45;&gt;DspacingData[SampleRun] -->
<g id="edge12" class="edge">
<title>MaskedData[SampleRun]:e&#45;&gt;DspacingData[SampleRun]:w</title>
<path fill="none" stroke="black" d="M1834,-101.5C1873.98,-101.5 1886.44,-101.5 1921.9,-101.5"/>
<polygon fill="black" stroke="black" points="1922,-105 1932,-101.5 1922,-98 1922,-105"/>
</g>
<!-- DspacingData[SampleRun]&#45;&gt;FocussedDataDspacing[SampleRun] -->
<g id="edge18" class="edge">
<title>DspacingData[SampleRun]:e&#45;&gt;FocussedDataDspacing[SampleRun]:w</title>
<path fill="none" stroke="black" d="M2030,-101.5C2074.32,-101.5 2080.7,-124.27 2123,-137.5 2144.75,-144.3 2152.37,-149.75 2170.91,-151.15"/>
<polygon fill="black" stroke="black" points="2170.88,-154.65 2181,-151.5 2171.13,-147.66 2170.88,-154.65"/>
</g>
<!-- MaskedData[VanadiumRun] -->
<g id="node19" class="node">
<title>MaskedData[VanadiumRun]</title>
<polygon fill="none" stroke="black" points="1840,-137 1730,-137 1730,-116 1840,-116 1840,-137"/>
<text text-anchor="start" x="1738" y="-123.4" font-family="Times,serif" font-size="12.00">[VanadiumRun]</text>
</g>
<!-- DspacingData[VanadiumRun] -->
<g id="node20" class="node">
<title>DspacingData[VanadiumRun]</title>
<polygon fill="none" stroke="black" points="2036,-137 1926,-137 1926,-116 2036,-116 2036,-137"/>
<text text-anchor="start" x="1934" y="-123.4" font-family="Times,serif" font-size="12.00">[VanadiumRun]</text>
</g>
<!-- MaskedData[VanadiumRun]&#45;&gt;DspacingData[VanadiumRun] -->
<g id="edge15" class="edge">
<title>MaskedData[VanadiumRun]:e&#45;&gt;DspacingData[VanadiumRun]:w</title>
<path fill="none" stroke="black" d="M1841,-126.5C1874.69,-126.5 1885.58,-126.5 1914.81,-126.5"/>
<polygon fill="black" stroke="black" points="1915,-130 1925,-126.5 1915,-123 1915,-130"/>
</g>
<!-- FocussedDataDspacing[VanadiumRun] -->
<g id="node24" class="node">
<title>FocussedDataDspacing[VanadiumRun]</title>
<polygon fill="none" stroke="black" points="2285,-137 2175,-137 2175,-116 2285,-116 2285,-137"/>
<text text-anchor="start" x="2183" y="-123.4" font-family="Times,serif" font-size="12.00">[VanadiumRun]</text>
</g>
<!-- DspacingData[VanadiumRun]&#45;&gt;FocussedDataDspacing[VanadiumRun] -->
<g id="edge20" class="edge">
<title>DspacingData[VanadiumRun]:e&#45;&gt;FocussedDataDspacing[VanadiumRun]:w</title>
<path fill="none" stroke="black" d="M2037,-126.5C2094.32,-126.5 2111.17,-126.5 2163.75,-126.5"/>
<polygon fill="black" stroke="black" points="2164,-130 2174,-126.5 2164,-123 2164,-130"/>
</g>
<!-- Filename[SampleRun] -->
<g id="node21" class="node">
<title>Filename[SampleRun]</title>
<polygon fill="none" stroke="black" points="146,-160 51,-160 51,-139 146,-139 146,-160"/>
<text text-anchor="start" x="59" y="-146.4" font-family="Times,serif" font-size="12.00">[SampleRun]</text>
</g>
<!-- Filename[SampleRun]&#45;&gt;RawDataAndMetadata[SampleRun] -->
<g id="edge34" class="edge">
<title>Filename[SampleRun]:e&#45;&gt;RawDataAndMetadata[SampleRun]:w</title>
<path fill="none" stroke="black" d="M147.5,-149.5C221.36,-149.5 242.31,-149.5 311.42,-149.5"/>
<polygon fill="black" stroke="black" points="311.5,-153 321.5,-149.5 311.5,-146 311.5,-153"/>
</g>
<!-- Filename[VanadiumRun] -->
<g id="node22" class="node">
<title>Filename[VanadiumRun]</title>
<polygon fill="none" stroke="black" points="153.5,-135 43.5,-135 43.5,-114 153.5,-114 153.5,-135"/>
<text text-anchor="start" x="51.5" y="-121.4" font-family="Times,serif" font-size="12.00">[VanadiumRun]</text>
</g>
<!-- Filename[VanadiumRun]&#45;&gt;RawDataAndMetadata[VanadiumRun] -->
<g id="edge35" class="edge">
<title>Filename[VanadiumRun]:e&#45;&gt;RawDataAndMetadata[VanadiumRun]:w</title>
<path fill="none" stroke="black" d="M154.5,-124.5C222.14,-124.5 241.53,-124.5 304.45,-124.5"/>
<polygon fill="black" stroke="black" points="304.5,-128 314.5,-124.5 304.5,-121 304.5,-128"/>
</g>
<!-- IofDspacing[SampleRun] -->
<g id="node25" class="node">
<title>IofDspacing[SampleRun]</title>
<polygon fill="none" stroke="black" points="2635,-168 2409,-168 2409,-135 2635,-135 2635,-168"/>
<text text-anchor="start" x="2433" y="-153.8" font-family="Times,serif" font-size="14.00">IofDspacing[SampleRun]</text>
<text text-anchor="start" x="2417" y="-142.2" font-family="Times,serif" font-size="11.00">via:</text>
<text text-anchor="start" x="2438" y="-142.2" font-family="Times,serif" font-style="italic" font-size="11.00">normalize_by_vanadium_dspacing</text>
</g>
<!-- FocussedDataDspacing[SampleRun]&#45;&gt;IofDspacing[SampleRun] -->
<g id="edge21" class="edge">
<title>FocussedDataDspacing[SampleRun]:e&#45;&gt;IofDspacing[SampleRun]:w</title>
<path fill="none" stroke="black" d="M2279,-151.5C2333.28,-151.5 2349.31,-151.5 2398.96,-151.5"/>
<polygon fill="black" stroke="black" points="2399,-155 2409,-151.5 2399,-148 2399,-155"/>
</g>
<!-- FocussedDataDspacing[VanadiumRun]&#45;&gt;IofDspacing[SampleRun] -->
<g id="edge22" class="edge">
<title>FocussedDataDspacing[VanadiumRun]:e&#45;&gt;IofDspacing[SampleRun]:w</title>
<path fill="none" stroke="black" d="M2286,-126.5C2338.19,-126.5 2351.56,-148.38 2398.74,-151.2"/>
<polygon fill="black" stroke="black" points="2398.9,-154.71 2409,-151.5 2399.11,-147.71 2398.9,-154.71"/>
</g>
<!-- UncertaintyBroadcastMode -->
<g id="node26" class="node">
<title>UncertaintyBroadcastMode</title>
<polygon fill="none" stroke="black" points="2337,-235 2123,-235 2123,-212 2337,-212 2337,-235"/>
<text text-anchor="middle" x="2230" y="-219.8" font-family="Times,serif" font-size="14.00">UncertaintyBroadcastMode</text>
</g>
<!-- UncertaintyBroadcastMode&#45;&gt;IofDspacing[SampleRun] -->
<g id="edge23" class="edge">
<title>UncertaintyBroadcastMode:e&#45;&gt;IofDspacing[SampleRun]:w</title>
<path fill="none" stroke="black" d="M2337,-223.5C2378.54,-223.5 2366.35,-162.83 2399.08,-152.87"/>
<polygon fill="black" stroke="black" points="2399.57,-156.34 2409,-151.5 2398.61,-149.41 2399.57,-156.34"/>
</g>
<!-- NormalizedRunData[SampleRun]&#45;&gt;MaskedData[SampleRun] -->
<g id="edge24" class="edge">
<title>NormalizedRunData[SampleRun]:e&#45;&gt;MaskedData[SampleRun]:w</title>
<path fill="none" stroke="black" d="M1608,-179.5C1631.08,-179.5 1637.53,-176.16 1658,-165.5 1694.51,-146.49 1691.93,-108.45 1725.95,-102.34"/>
<polygon fill="black" stroke="black" points="1726.33,-105.82 1736,-101.5 1725.74,-98.84 1726.33,-105.82"/>
</g>
<!-- MaskedDetectorIDs -->
<g id="node28" class="node">
<title>MaskedDetectorIDs</title>
<polygon fill="none" stroke="black" points="1638,-127 1480,-127 1480,-104 1638,-104 1638,-127"/>
<text text-anchor="middle" x="1559" y="-111.8" font-family="Times,serif" font-size="14.00">MaskedDetectorIDs</text>
</g>
<!-- MaskedDetectorIDs&#45;&gt;MaskedData[SampleRun] -->
<g id="edge25" class="edge">
<title>MaskedDetectorIDs:e&#45;&gt;MaskedData[SampleRun]:w</title>
<path fill="none" stroke="black" stroke-width="2" d="M1639,-115.5C1673.26,-115.5 1686.69,-106.84 1712.06,-103.14"/>
<polygon fill="black" stroke="black" stroke-width="2" points="1712.45,-106.62 1722,-102.03 1711.68,-99.66 1712.45,-106.62"/>
</g>
<!-- TofMask -->
<g id="node29" class="node">
<title>TofMask</title>
<polygon fill="none" stroke="black" points="1597.5,-100 1520.5,-100 1520.5,-77 1597.5,-77 1597.5,-100"/>
<text text-anchor="middle" x="1559" y="-84.8" font-family="Times,serif" font-size="14.00">TofMask</text>
</g>
<!-- TofMask&#45;&gt;MaskedData[SampleRun] -->
<g id="edge26" class="edge">
<title>TofMask:e&#45;&gt;MaskedData[SampleRun]:w</title>
<path fill="none" stroke="black" stroke-width="2" d="M1599,-88.5C1651.26,-88.5 1669.58,-97.99 1711.95,-100.75"/>
<polygon fill="black" stroke="black" stroke-width="2" points="1711.84,-104.25 1722,-101.26 1712.19,-97.26 1711.84,-104.25"/>
</g>
<!-- WavelengthMask -->
<g id="node30" class="node">
<title>WavelengthMask</title>
<polygon fill="none" stroke="black" points="1628.5,-73 1489.5,-73 1489.5,-50 1628.5,-50 1628.5,-73"/>
<text text-anchor="middle" x="1559" y="-57.8" font-family="Times,serif" font-size="14.00">WavelengthMask</text>
</g>
<!-- WavelengthMask&#45;&gt;MaskedData[SampleRun] -->
<g id="edge27" class="edge">
<title>WavelengthMask:e&#45;&gt;MaskedData[SampleRun]:w</title>
<path fill="none" stroke="black" stroke-width="2" d="M1630,-61.5C1671.01,-61.5 1682.13,-88.04 1712.06,-97.88"/>
<polygon fill="black" stroke="black" stroke-width="2" points="1711.45,-101.34 1722,-100.35 1713.14,-94.55 1711.45,-101.34"/>
</g>
<!-- TwoThetaMask -->
<g id="node31" class="node">
<title>TwoThetaMask</title>
<polygon fill="none" stroke="black" points="1621.5,-46 1496.5,-46 1496.5,-23 1621.5,-23 1621.5,-46"/>
<text text-anchor="middle" x="1559" y="-30.8" font-family="Times,serif" font-size="14.00">TwoThetaMask</text>
</g>
<!-- TwoThetaMask&#45;&gt;MaskedData[SampleRun] -->
<g id="edge28" class="edge">
<title>TwoThetaMask:e&#45;&gt;MaskedData[SampleRun]:w</title>
<path fill="none" stroke="black" stroke-width="2" d="M1622,-34.5C1671.47,-34.5 1676.79,-81.97 1712.28,-97"/>
<polygon fill="black" stroke="black" stroke-width="2" points="1711.41,-100.39 1722,-100.07 1713.52,-93.72 1711.41,-100.39"/>
</g>
<!-- NormalizedRunData[VanadiumRun]&#45;&gt;MaskedData[VanadiumRun] -->
<g id="edge29" class="edge">
<title>NormalizedRunData[VanadiumRun]:e&#45;&gt;MaskedData[VanadiumRun]:w</title>
<path fill="none" stroke="black" d="M1615,-154.5C1663.61,-154.5 1675.31,-130.2 1718.87,-126.87"/>
<polygon fill="black" stroke="black" points="1719.14,-130.37 1729,-126.5 1718.88,-123.37 1719.14,-130.37"/>
</g>
</g>
</svg>
