<?xml version="1.0" encoding="utf-8" standalone="no"?>
<!DOCTYPE svg PUBLIC "-//W3C//DTD SVG 1.1//EN"
  "http://www.w3.org/Graphics/SVG/1.1/DTD/svg11.dtd">
<svg xmlns:xlink="http://www.w3.org/1999/xlink" width="382.603125pt" height="268.200625pt" viewBox="0 0 382.603125 268.200625" xmlns="http://www.w3.org/2000/svg" version="1.1">
 <metadata>
  <rdf:RDF xmlns:dc="http://purl.org/dc/elements/1.1/" xmlns:cc="http://creativecommons.org/ns#" xmlns:rdf="http://www.w3.org/1999/02/22-rdf-syntax-ns#">
   <cc:Work>
    <dc:type rdf:resource="http://purl.org/dc/dcmitype/StillImage"/>
    <dc:date>2026-02-09T14:44:03.408342</dc:date>
    <dc:format>image/svg+xml</dc:format>
    <dc:creator>
     <cc:Agent>
      <dc:title>Matplotlib v3.10.8, https://matplotlib.org/</dc:title>
     </cc:Agent>
    </dc:creator>
   </cc:Work>
  </rdf:RDF>
 </metadata>
 <defs>
  <style type="text/css">*{stroke-linejoin: round; stroke-linecap: butt}</style>
 </defs>
 <g id="figure_1">
  <g id="patch_1">
   <path d="M 0 268.200625 
L 382.603125 268.200625 
L 382.603125 0 
L 0 0 
z
" style="fill: #ffffff"/>
  </g>
  <g id="axes_1">
   <g id="patch_2">
    <path d="M 40.603125 228.96 
L 375.403125 228.96 
L 375.403125 7.2 
L 40.603125 7.2 
z
" style="fill: #ffffff"/>
   </g>
   <g id="matplotlib.axis_1">
    <g id="xtick_1">
     <g id="line2d_1">
      <defs>
       <path id="m4c97889af8" d="M 0 0 
L 0 3.5 
" style="stroke: #000000; stroke-width: 0.8"/>
      </defs>
      <g>
       <use xlink:href="#m4c97889af8" x="55.821307" y="228.96" style="stroke: #000000; stroke-width: 0.8"/>
      </g>
     </g>
     <g id="text_1">
      <!-- 0.0 -->
      <g transform="translate(47.869744 243.558437) scale(0.1 -0.1)">
       <defs>
        <path id="DejaVuSans-30" d="M 2034 4250 
Q 1547 4250 1301 3770 
Q 1056 3291 1056 2328 
Q 1056 1369 1301 889 
Q 1547 409 2034 409 
Q 2525 409 2770 889 
Q 3016 1369 3016 2328 
Q 3016 3291 2770 3770 
Q 2525 4250 2034 4250 
z
M 2034 4750 
Q 2819 4750 3233 4129 
Q 3647 3509 3647 2328 
Q 3647 1150 3233 529 
Q 2819 -91 2034 -91 
Q 1250 -91 836 529 
Q 422 1150 422 2328 
Q 422 3509 836 4129 
Q 1250 4750 2034 4750 
z
" transform="scale(0.015625)"/>
        <path id="DejaVuSans-2e" d="M 684 794 
L 1344 794 
L 1344 0 
L 684 0 
L 684 794 
z
" transform="scale(0.015625)"/>
       </defs>
       <use xlink:href="#DejaVuSans-30"/>
       <use xlink:href="#DejaVuSans-2e" transform="translate(63.623047 0)"/>
       <use xlink:href="#DejaVuSans-30" transform="translate(95.410156 0)"/>
      </g>
     </g>
    </g>
    <g id="xtick_2">
     <g id="line2d_2">
      <g>
       <use xlink:href="#m4c97889af8" x="120.761914" y="228.96" style="stroke: #000000; stroke-width: 0.8"/>
      </g>
     </g>
     <g id="text_2">
      <!-- 0.5 -->
      <g transform="translate(112.810351 243.558437) scale(0.1 -0.1)">
       <defs>
        <path id="DejaVuSans-35" d="M 691 4666 
L 3169 4666 
L 3169 4134 
L 1269 4134 
L 1269 2991 
Q 1406 3038 1543 3061 
Q 1681 3084 1819 3084 
Q 2600 3084 3056 2656 
Q 3513 2228 3513 1497 
Q 3513 744 3044 326 
Q 2575 -91 1722 -91 
Q 1428 -91 1123 -41 
Q 819 9 494 109 
L 494 744 
Q 775 591 1075 516 
Q 1375 441 1709 441 
Q 2250 441 2565 725 
Q 2881 1009 2881 1497 
Q 2881 1984 2565 2268 
Q 2250 2553 1709 2553 
Q 1456 2553 1204 2497 
Q 953 2441 691 2322 
L 691 4666 
z
" transform="scale(0.015625)"/>
       </defs>
       <use xlink:href="#DejaVuSans-30"/>
       <use xlink:href="#DejaVuSans-2e" transform="translate(63.623047 0)"/>
       <use xlink:href="#DejaVuSans-35" transform="translate(95.410156 0)"/>
      </g>
     </g>
    </g>
    <g id="xtick_3">
     <g id="line2d_3">
      <g>
       <use xlink:href="#m4c97889af8" x="185.702521" y="228.96" style="stroke: #000000; stroke-width: 0.8"/>
      </g>
     </g>
     <g id="text_3">
      <!-- 1.0 -->
      <g transform="translate(177.750958 243.558437) scale(0.1 -0.1)">
       <defs>
        <path id="DejaVuSans-31" d="M 794 531 
L 1825 531 
L 1825 4091 
L 703 3866 
L 703 4441 
L 1819 4666 
L 2450 4666 
L 2450 531 
L 3481 531 
L 3481 0 
L 794 0 
L 794 531 
z
" transform="scale(0.015625)"/>
       </defs>
       <use xlink:href="#DejaVuSans-31"/>
       <use xlink:href="#DejaVuSans-2e" transform="translate(63.623047 0)"/>
       <use xlink:href="#DejaVuSans-30" transform="translate(95.410156 0)"/>
      </g>
     </g>
    </g>
    <g id="xtick_4">
     <g id="line2d_4">
      <g>
       <use xlink:href="#m4c97889af8" x="250.643127" y="228.96" style="stroke: #000000; stroke-width: 0.8"/>
      </g>
     </g>
     <g id="text_4">
      <!-- 1.5 -->
      <g transform="translate(242.691565 243.558437) scale(0.1 -0.1)">
       <use xlink:href="#DejaVuSans-31"/>
       <use xlink:href="#DejaVuSans-2e" transform="translate(63.623047 0)"/>
       <use xlink:href="#DejaVuSans-35" transform="translate(95.410156 0)"/>
      </g>
     </g>
    </g>
    <g id="xtick_5">
     <g id="line2d_5">
      <g>
       <use xlink:href="#m4c97889af8" x="315.583734" y="228.96" style="stroke: #000000; stroke-width: 0.8"/>
      </g>
     </g>
     <g id="text_5">
      <!-- 2.0 -->
      <g transform="translate(307.632172 243.558437) scale(0.1 -0.1)">
       <defs>
        <path id="DejaVuSans-32" d="M 1228 531 
L 3431 531 
L 3431 0 
L 469 0 
L 469 531 
Q 828 903 1448 1529 
Q 2069 2156 2228 2338 
Q 2531 2678 2651 2914 
Q 2772 3150 2772 3378 
Q 2772 3750 2511 3984 
Q 2250 4219 1831 4219 
Q 1534 4219 1204 4116 
Q 875 4013 500 3803 
L 500 4441 
Q 881 4594 1212 4672 
Q 1544 4750 1819 4750 
Q 2544 4750 2975 4387 
Q 3406 4025 3406 3419 
Q 3406 3131 3298 2873 
Q 3191 2616 2906 2266 
Q 2828 2175 2409 1742 
Q 1991 1309 1228 531 
z
" transform="scale(0.015625)"/>
       </defs>
       <use xlink:href="#DejaVuSans-32"/>
       <use xlink:href="#DejaVuSans-2e" transform="translate(63.623047 0)"/>
       <use xlink:href="#DejaVuSans-30" transform="translate(95.410156 0)"/>
      </g>
     </g>
    </g>
    <g id="text_6">
     <!-- dspacing [Å] -->
     <g transform="translate(176.59375 258.920937) scale(0.1 -0.1)">
      <defs>
       <path id="DejaVuSans-64" d="M 2906 2969 
L 2906 4863 
L 3481 4863 
L 3481 0 
L 2906 0 
L 2906 525 
Q 2725 213 2448 61 
Q 2172 -91 1784 -91 
Q 1150 -91 751 415 
Q 353 922 353 1747 
Q 353 2572 751 3078 
Q 1150 3584 1784 3584 
Q 2172 3584 2448 3432 
Q 2725 3281 2906 2969 
z
M 947 1747 
Q 947 1113 1208 752 
Q 1469 391 1925 391 
Q 2381 391 2643 752 
Q 2906 1113 2906 1747 
Q 2906 2381 2643 2742 
Q 2381 3103 1925 3103 
Q 1469 3103 1208 2742 
Q 947 2381 947 1747 
z
" transform="scale(0.015625)"/>
       <path id="DejaVuSans-73" d="M 2834 3397 
L 2834 2853 
Q 2591 2978 2328 3040 
Q 2066 3103 1784 3103 
Q 1356 3103 1142 2972 
Q 928 2841 928 2578 
Q 928 2378 1081 2264 
Q 1234 2150 1697 2047 
L 1894 2003 
Q 2506 1872 2764 1633 
Q 3022 1394 3022 966 
Q 3022 478 2636 193 
Q 2250 -91 1575 -91 
Q 1294 -91 989 -36 
Q 684 19 347 128 
L 347 722 
Q 666 556 975 473 
Q 1284 391 1588 391 
Q 1994 391 2212 530 
Q 2431 669 2431 922 
Q 2431 1156 2273 1281 
Q 2116 1406 1581 1522 
L 1381 1569 
Q 847 1681 609 1914 
Q 372 2147 372 2553 
Q 372 3047 722 3315 
Q 1072 3584 1716 3584 
Q 2034 3584 2315 3537 
Q 2597 3491 2834 3397 
z
" transform="scale(0.015625)"/>
       <path id="DejaVuSans-70" d="M 1159 525 
L 1159 -1331 
L 581 -1331 
L 581 3500 
L 1159 3500 
L 1159 2969 
Q 1341 3281 1617 3432 
Q 1894 3584 2278 3584 
Q 2916 3584 3314 3078 
Q 3713 2572 3713 1747 
Q 3713 922 3314 415 
Q 2916 -91 2278 -91 
Q 1894 -91 1617 61 
Q 1341 213 1159 525 
z
M 3116 1747 
Q 3116 2381 2855 2742 
Q 2594 3103 2138 3103 
Q 1681 3103 1420 2742 
Q 1159 2381 1159 1747 
Q 1159 1113 1420 752 
Q 1681 391 2138 391 
Q 2594 391 2855 752 
Q 3116 1113 3116 1747 
z
" transform="scale(0.015625)"/>
       <path id="DejaVuSans-61" d="M 2194 1759 
Q 1497 1759 1228 1600 
Q 959 1441 959 1056 
Q 959 750 1161 570 
Q 1363 391 1709 391 
Q 2188 391 2477 730 
Q 2766 1069 2766 1631 
L 2766 1759 
L 2194 1759 
z
M 3341 1997 
L 3341 0 
L 2766 0 
L 2766 531 
Q 2569 213 2275 61 
Q 1981 -91 1556 -91 
Q 1019 -91 701 211 
Q 384 513 384 1019 
Q 384 1609 779 1909 
Q 1175 2209 1959 2209 
L 2766 2209 
L 2766 2266 
Q 2766 2663 2505 2880 
Q 2244 3097 1772 3097 
Q 1472 3097 1187 3025 
Q 903 2953 641 2809 
L 641 3341 
Q 956 3463 1253 3523 
Q 1550 3584 1831 3584 
Q 2591 3584 2966 3190 
Q 3341 2797 3341 1997 
z
" transform="scale(0.015625)"/>
       <path id="DejaVuSans-63" d="M 3122 3366 
L 3122 2828 
Q 2878 2963 2633 3030 
Q 2388 3097 2138 3097 
Q 1578 3097 1268 2742 
Q 959 2388 959 1747 
Q 959 1106 1268 751 
Q 1578 397 2138 397 
Q 2388 397 2633 464 
Q 2878 531 3122 666 
L 3122 134 
Q 2881 22 2623 -34 
Q 2366 -91 2075 -91 
Q 1284 -91 818 406 
Q 353 903 353 1747 
Q 353 2603 823 3093 
Q 1294 3584 2113 3584 
Q 2378 3584 2631 3529 
Q 2884 3475 3122 3366 
z
" transform="scale(0.015625)"/>
       <path id="DejaVuSans-69" d="M 603 3500 
L 1178 3500 
L 1178 0 
L 603 0 
L 603 3500 
z
M 603 4863 
L 1178 4863 
L 1178 4134 
L 603 4134 
L 603 4863 
z
" transform="scale(0.015625)"/>
       <path id="DejaVuSans-6e" d="M 3513 2113 
L 3513 0 
L 2938 0 
L 2938 2094 
Q 2938 2591 2744 2837 
Q 2550 3084 2163 3084 
Q 1697 3084 1428 2787 
Q 1159 2491 1159 1978 
L 1159 0 
L 581 0 
L 581 3500 
L 1159 3500 
L 1159 2956 
Q 1366 3272 1645 3428 
Q 1925 3584 2291 3584 
Q 2894 3584 3203 3211 
Q 3513 2838 3513 2113 
z
" transform="scale(0.015625)"/>
       <path id="DejaVuSans-67" d="M 2906 1791 
Q 2906 2416 2648 2759 
Q 2391 3103 1925 3103 
Q 1463 3103 1205 2759 
Q 947 2416 947 1791 
Q 947 1169 1205 825 
Q 1463 481 1925 481 
Q 2391 481 2648 825 
Q 2906 1169 2906 1791 
z
M 3481 434 
Q 3481 -459 3084 -895 
Q 2688 -1331 1869 -1331 
Q 1566 -1331 1297 -1286 
Q 1028 -1241 775 -1147 
L 775 -588 
Q 1028 -725 1275 -790 
Q 1522 -856 1778 -856 
Q 2344 -856 2625 -561 
Q 2906 -266 2906 331 
L 2906 616 
Q 2728 306 2450 153 
Q 2172 0 1784 0 
Q 1141 0 747 490 
Q 353 981 353 1791 
Q 353 2603 747 3093 
Q 1141 3584 1784 3584 
Q 2172 3584 2450 3431 
Q 2728 3278 2906 2969 
L 2906 3500 
L 3481 3500 
L 3481 434 
z
" transform="scale(0.015625)"/>
       <path id="DejaVuSans-20" transform="scale(0.015625)"/>
       <path id="DejaVuSans-5b" d="M 550 4863 
L 1875 4863 
L 1875 4416 
L 1125 4416 
L 1125 -397 
L 1875 -397 
L 1875 -844 
L 550 -844 
L 550 4863 
z
" transform="scale(0.015625)"/>
       <path id="DejaVuSans-c5" d="M 2663 5081 
Q 2663 5278 2523 5417 
Q 2384 5556 2188 5556 
Q 1988 5556 1852 5420 
Q 1716 5284 1716 5081 
Q 1716 4884 1853 4746 
Q 1991 4609 2188 4609 
Q 2384 4609 2523 4746 
Q 2663 4884 2663 5081 
z
M 2188 4044 
L 1338 1722 
L 3041 1722 
L 2188 4044 
z
M 1716 4366 
Q 1525 4494 1428 4673 
Q 1331 4853 1331 5081 
Q 1331 5441 1579 5691 
Q 1828 5941 2188 5941 
Q 2544 5941 2795 5689 
Q 3047 5438 3047 5081 
Q 3047 4863 2948 4678 
Q 2850 4494 2663 4366 
L 4325 0 
L 3669 0 
L 3244 1197 
L 1141 1197 
L 716 0 
L 50 0 
L 1716 4366 
z
" transform="scale(0.015625)"/>
       <path id="DejaVuSans-5d" d="M 1947 4863 
L 1947 -844 
L 622 -844 
L 622 -397 
L 1369 -397 
L 1369 4416 
L 622 4416 
L 622 4863 
L 1947 4863 
z
" transform="scale(0.015625)"/>
      </defs>
      <use xlink:href="#DejaVuSans-64"/>
      <use xlink:href="#DejaVuSans-73" transform="translate(63.476562 0)"/>
      <use xlink:href="#DejaVuSans-70" transform="translate(115.576172 0)"/>
      <use xlink:href="#DejaVuSans-61" transform="translate(179.052734 0)"/>
      <use xlink:href="#DejaVuSans-63" transform="translate(240.332031 0)"/>
      <use xlink:href="#DejaVuSans-69" transform="translate(295.3125 0)"/>
      <use xlink:href="#DejaVuSans-6e" transform="translate(323.095703 0)"/>
      <use xlink:href="#DejaVuSans-67" transform="translate(386.474609 0)"/>
      <use xlink:href="#DejaVuSans-20" transform="translate(449.951172 0)"/>
      <use xlink:href="#DejaVuSans-5b" transform="translate(481.738281 0)"/>
      <use xlink:href="#DejaVuSans-c5" transform="translate(520.751953 0)"/>
      <use xlink:href="#DejaVuSans-5d" transform="translate(589.160156 0)"/>
     </g>
    </g>
   </g>
   <g id="matplotlib.axis_2">
    <g id="ytick_1">
     <g id="line2d_6">
      <defs>
       <path id="mf0a9e197a3" d="M 0 0 
L -3.5 0 
" style="stroke: #000000; stroke-width: 0.8"/>
      </defs>
      <g>
       <use xlink:href="#mf0a9e197a3" x="40.603125" y="218.88" style="stroke: #000000; stroke-width: 0.8"/>
      </g>
     </g>
     <g id="text_7">
      <!-- 0 -->
      <g transform="translate(27.240625 222.679219) scale(0.1 -0.1)">
       <use xlink:href="#DejaVuSans-30"/>
      </g>
     </g>
    </g>
    <g id="ytick_2">
     <g id="line2d_7">
      <g>
       <use xlink:href="#mf0a9e197a3" x="40.603125" y="179.774354" style="stroke: #000000; stroke-width: 0.8"/>
      </g>
     </g>
     <g id="text_8">
      <!-- 10 -->
      <g transform="translate(20.878125 183.573573) scale(0.1 -0.1)">
       <use xlink:href="#DejaVuSans-31"/>
       <use xlink:href="#DejaVuSans-30" transform="translate(63.623047 0)"/>
      </g>
     </g>
    </g>
    <g id="ytick_3">
     <g id="line2d_8">
      <g>
       <use xlink:href="#mf0a9e197a3" x="40.603125" y="140.668708" style="stroke: #000000; stroke-width: 0.8"/>
      </g>
     </g>
     <g id="text_9">
      <!-- 20 -->
      <g transform="translate(20.878125 144.467927) scale(0.1 -0.1)">
       <use xlink:href="#DejaVuSans-32"/>
       <use xlink:href="#DejaVuSans-30" transform="translate(63.623047 0)"/>
      </g>
     </g>
    </g>
    <g id="ytick_4">
     <g id="line2d_9">
      <g>
       <use xlink:href="#mf0a9e197a3" x="40.603125" y="101.563062" style="stroke: #000000; stroke-width: 0.8"/>
      </g>
     </g>
     <g id="text_10">
      <!-- 30 -->
      <g transform="translate(20.878125 105.362281) scale(0.1 -0.1)">
       <defs>
        <path id="DejaVuSans-33" d="M 2597 2516 
Q 3050 2419 3304 2112 
Q 3559 1806 3559 1356 
Q 3559 666 3084 287 
Q 2609 -91 1734 -91 
Q 1441 -91 1130 -33 
Q 819 25 488 141 
L 488 750 
Q 750 597 1062 519 
Q 1375 441 1716 441 
Q 2309 441 2620 675 
Q 2931 909 2931 1356 
Q 2931 1769 2642 2001 
Q 2353 2234 1838 2234 
L 1294 2234 
L 1294 2753 
L 1863 2753 
Q 2328 2753 2575 2939 
Q 2822 3125 2822 3475 
Q 2822 3834 2567 4026 
Q 2313 4219 1838 4219 
Q 1578 4219 1281 4162 
Q 984 4106 628 3988 
L 628 4550 
Q 988 4650 1302 4700 
Q 1616 4750 1894 4750 
Q 2613 4750 3031 4423 
Q 3450 4097 3450 3541 
Q 3450 3153 3228 2886 
Q 3006 2619 2597 2516 
z
" transform="scale(0.015625)"/>
       </defs>
       <use xlink:href="#DejaVuSans-33"/>
       <use xlink:href="#DejaVuSans-30" transform="translate(63.623047 0)"/>
      </g>
     </g>
    </g>
    <g id="ytick_5">
     <g id="line2d_10">
      <g>
       <use xlink:href="#mf0a9e197a3" x="40.603125" y="62.457416" style="stroke: #000000; stroke-width: 0.8"/>
      </g>
     </g>
     <g id="text_11">
      <!-- 40 -->
      <g transform="translate(20.878125 66.256635) scale(0.1 -0.1)">
       <defs>
        <path id="DejaVuSans-34" d="M 2419 4116 
L 825 1625 
L 2419 1625 
L 2419 4116 
z
M 2253 4666 
L 3047 4666 
L 3047 1625 
L 3713 1625 
L 3713 1100 
L 3047 1100 
L 3047 0 
L 2419 0 
L 2419 1100 
L 313 1100 
L 313 1709 
L 2253 4666 
z
" transform="scale(0.015625)"/>
       </defs>
       <use xlink:href="#DejaVuSans-34"/>
       <use xlink:href="#DejaVuSans-30" transform="translate(63.623047 0)"/>
      </g>
     </g>
    </g>
    <g id="ytick_6">
     <g id="line2d_11">
      <g>
       <use xlink:href="#mf0a9e197a3" x="40.603125" y="23.35177" style="stroke: #000000; stroke-width: 0.8"/>
      </g>
     </g>
     <g id="text_12">
      <!-- 50 -->
      <g transform="translate(20.878125 27.150989) scale(0.1 -0.1)">
       <use xlink:href="#DejaVuSans-35"/>
       <use xlink:href="#DejaVuSans-30" transform="translate(63.623047 0)"/>
      </g>
     </g>
    </g>
    <g id="text_13">
     <!-- [dimensionless] -->
     <g transform="translate(14.798438 157.557344) rotate(-90) scale(0.1 -0.1)">
      <defs>
       <path id="DejaVuSans-6d" d="M 3328 2828 
Q 3544 3216 3844 3400 
Q 4144 3584 4550 3584 
Q 5097 3584 5394 3201 
Q 5691 2819 5691 2113 
L 5691 0 
L 5113 0 
L 5113 2094 
Q 5113 2597 4934 2840 
Q 4756 3084 4391 3084 
Q 3944 3084 3684 2787 
Q 3425 2491 3425 1978 
L 3425 0 
L 2847 0 
L 2847 2094 
Q 2847 2600 2669 2842 
Q 2491 3084 2119 3084 
Q 1678 3084 1418 2786 
Q 1159 2488 1159 1978 
L 1159 0 
L 581 0 
L 581 3500 
L 1159 3500 
L 1159 2956 
Q 1356 3278 1631 3431 
Q 1906 3584 2284 3584 
Q 2666 3584 2933 3390 
Q 3200 3197 3328 2828 
z
" transform="scale(0.015625)"/>
       <path id="DejaVuSans-65" d="M 3597 1894 
L 3597 1613 
L 953 1613 
Q 991 1019 1311 708 
Q 1631 397 2203 397 
Q 2534 397 2845 478 
Q 3156 559 3463 722 
L 3463 178 
Q 3153 47 2828 -22 
Q 2503 -91 2169 -91 
Q 1331 -91 842 396 
Q 353 884 353 1716 
Q 353 2575 817 3079 
Q 1281 3584 2069 3584 
Q 2775 3584 3186 3129 
Q 3597 2675 3597 1894 
z
M 3022 2063 
Q 3016 2534 2758 2815 
Q 2500 3097 2075 3097 
Q 1594 3097 1305 2825 
Q 1016 2553 972 2059 
L 3022 2063 
z
" transform="scale(0.015625)"/>
       <path id="DejaVuSans-6f" d="M 1959 3097 
Q 1497 3097 1228 2736 
Q 959 2375 959 1747 
Q 959 1119 1226 758 
Q 1494 397 1959 397 
Q 2419 397 2687 759 
Q 2956 1122 2956 1747 
Q 2956 2369 2687 2733 
Q 2419 3097 1959 3097 
z
M 1959 3584 
Q 2709 3584 3137 3096 
Q 3566 2609 3566 1747 
Q 3566 888 3137 398 
Q 2709 -91 1959 -91 
Q 1206 -91 779 398 
Q 353 888 353 1747 
Q 353 2609 779 3096 
Q 1206 3584 1959 3584 
z
" transform="scale(0.015625)"/>
       <path id="DejaVuSans-6c" d="M 603 4863 
L 1178 4863 
L 1178 0 
L 603 0 
L 603 4863 
z
" transform="scale(0.015625)"/>
      </defs>
      <use xlink:href="#DejaVuSans-5b"/>
      <use xlink:href="#DejaVuSans-64" transform="translate(39.013672 0)"/>
      <use xlink:href="#DejaVuSans-69" transform="translate(102.490234 0)"/>
      <use xlink:href="#DejaVuSans-6d" transform="translate(130.273438 0)"/>
      <use xlink:href="#DejaVuSans-65" transform="translate(227.685547 0)"/>
      <use xlink:href="#DejaVuSans-6e" transform="translate(289.208984 0)"/>
      <use xlink:href="#DejaVuSans-73" transform="translate(352.587891 0)"/>
      <use xlink:href="#DejaVuSans-69" transform="translate(404.6875 0)"/>
      <use xlink:href="#DejaVuSans-6f" transform="translate(432.470703 0)"/>
      <use xlink:href="#DejaVuSans-6e" transform="translate(493.652344 0)"/>
      <use xlink:href="#DejaVuSans-6c" transform="translate(557.03125 0)"/>
      <use xlink:href="#DejaVuSans-65" transform="translate(584.814453 0)"/>
      <use xlink:href="#DejaVuSans-73" transform="translate(646.337891 0)"/>
      <use xlink:href="#DejaVuSans-73" transform="translate(698.4375 0)"/>
      <use xlink:href="#DejaVuSans-5d" transform="translate(750.537109 0)"/>
     </g>
    </g>
   </g>
   <g id="line2d_12">
    <path d="M 55.821307 218.88 
L 95.38858 218.88 
L 95.38858 218.400129 
L 96.910398 218.400129 
L 96.910398 218.671338 
L 98.432216 218.671338 
L 98.432216 218.477801 
L 99.954034 218.477801 
L 99.954034 218.650799 
L 104.519489 218.54403 
L 104.519489 218.501893 
L 106.041307 218.501893 
L 106.041307 218.218054 
L 115.172216 218.108272 
L 115.172216 217.866356 
L 119.73767 217.772881 
L 119.73767 217.563907 
L 121.259489 217.563907 
L 121.259489 213.240237 
L 122.781307 213.240237 
L 122.781307 212.2098 
L 124.303125 212.2098 
L 124.303125 209.503797 
L 125.824943 209.503797 
L 125.824943 207.417257 
L 127.346761 207.417257 
L 127.346761 213.599767 
L 128.86858 213.599767 
L 128.86858 217.052727 
L 130.390398 217.052727 
L 130.390398 217.361601 
L 131.912216 217.361601 
L 131.912216 214.826768 
L 133.434034 214.826768 
L 133.434034 210.119789 
L 134.955852 210.119789 
L 134.955852 212.703807 
L 136.47767 212.703807 
L 136.47767 209.5726 
L 137.999489 209.5726 
L 137.999489 210.87939 
L 139.521307 210.87939 
L 139.521307 216.154192 
L 141.043125 216.154192 
L 141.043125 217.010284 
L 142.564943 217.010284 
L 142.564943 210.910326 
L 144.086761 210.910326 
L 144.086761 197.744517 
L 145.60858 197.744517 
L 145.60858 205.110914 
L 147.130398 205.110914 
L 147.130398 215.677325 
L 148.652216 215.677325 
L 148.652216 216.927954 
L 157.783125 216.866667 
L 157.783125 216.550288 
L 159.304943 216.550288 
L 159.304943 213.312056 
L 160.826761 213.312056 
L 160.826761 201.669029 
L 162.34858 201.669029 
L 162.34858 204.485879 
L 163.870398 204.485879 
L 163.870398 214.669918 
L 165.392216 214.669918 
L 165.392216 216.328707 
L 166.914034 216.328707 
L 166.914034 216.481151 
L 168.435852 216.481151 
L 168.435852 214.836762 
L 169.95767 214.836762 
L 169.95767 202.02792 
L 171.479489 202.02792 
L 171.479489 198.986498 
L 173.001307 198.986498 
L 173.001307 212.555908 
L 174.523125 212.555908 
L 174.523125 216.259283 
L 176.044943 216.259283 
L 176.044943 216.518658 
L 179.08858 216.586342 
L 179.08858 216.640146 
L 182.132216 216.716322 
L 182.132216 216.335241 
L 183.654034 216.335241 
L 183.654034 216.607037 
L 185.175852 216.607037 
L 185.175852 216.430744 
L 186.69767 216.430744 
L 186.69767 210.590878 
L 188.219489 210.590878 
L 188.219489 190.386243 
L 189.741307 190.386243 
L 189.741307 192.648966 
L 191.263125 192.648966 
L 191.263125 212.49088 
L 192.784943 212.49088 
L 192.784943 208.940235 
L 194.306761 208.940235 
L 194.306761 187.01522 
L 195.82858 187.01522 
L 195.82858 192.584898 
L 197.350398 192.584898 
L 197.350398 213.818161 
L 198.872216 213.818161 
L 198.872216 216.551881 
L 200.394034 216.551881 
L 200.394034 216.762251 
L 201.915852 216.762251 
L 201.915852 216.363851 
L 203.43767 216.363851 
L 203.43767 216.816702 
L 206.481307 216.897309 
L 206.481307 216.672865 
L 208.003125 216.672865 
L 208.003125 216.129625 
L 209.524943 216.129625 
L 209.524943 216.831442 
L 211.046761 216.831442 
L 211.046761 216.968116 
L 212.56858 216.968116 
L 212.56858 217.127283 
L 215.612216 217.153069 
L 215.612216 217.333718 
L 220.17767 217.291771 
L 220.17767 217.465051 
L 229.30858 217.536396 
L 229.30858 217.784579 
L 232.352216 217.725744 
L 232.352216 217.614597 
L 241.483125 217.503687 
L 241.483125 217.463583 
L 244.526761 217.417069 
L 244.526761 217.345084 
L 258.223125 217.295785 
L 258.223125 217.219144 
L 259.744943 217.219144 
L 259.744943 217.029211 
L 271.919489 216.976107 
L 271.919489 216.905381 
L 276.484943 216.835615 
L 276.484943 216.661942 
L 287.13767 216.660802 
L 287.13767 216.549743 
L 291.703125 216.446931 
L 291.703125 216.420016 
L 296.26858 216.338228 
L 296.26858 216.10873 
L 303.87767 216.163734 
L 303.87767 216.272326 
L 305.399489 216.272326 
L 305.399489 216.122671 
L 311.486761 216.105984 
L 311.486761 215.999275 
L 316.052216 215.951865 
L 316.052216 215.486267 
L 317.574034 215.486267 
L 317.574034 214.750545 
L 319.095852 214.750545 
L 319.095852 205.704164 
L 320.61767 205.704164 
L 320.61767 136.01498 
L 322.139489 136.01498 
L 322.139489 17.649768 
L 323.661307 17.649768 
L 323.661307 80.904605 
L 325.183125 80.904605 
L 325.183125 189.948556 
L 326.704943 189.948556 
L 326.704943 213.012148 
L 328.226761 213.012148 
L 328.226761 215.42971 
L 329.74858 215.42971 
L 329.74858 215.881319 
L 331.270398 215.881319 
L 331.270398 216.460758 
L 332.792216 216.460758 
L 332.792216 216.902504 
L 334.314034 216.902504 
L 334.314034 216.529077 
L 335.835852 216.529077 
L 335.835852 216.253603 
L 337.35767 216.253603 
L 337.35767 216.136683 
L 338.879489 216.136683 
L 338.879489 215.934084 
L 341.923125 216.045075 
L 341.923125 215.778341 
L 343.444943 215.778341 
L 343.444943 215.477613 
L 344.966761 215.477613 
L 344.966761 215.82032 
L 346.48858 215.82032 
L 346.48858 216.050717 
L 348.010398 216.050717 
L 348.010398 216.189347 
L 352.575852 216.288223 
L 352.575852 216.35182 
L 360.184943 216.349068 
L 360.184943 216.349068 
" clip-path="url(#p53a2023a75)" style="fill: none; stroke: #1f77b4; stroke-width: 1.5; stroke-linecap: square"/>
   </g>
   <g id="LineCollection_1">
    <path d="M 56.582216 218.88 
L 56.582216 218.88 
" clip-path="url(#p53a2023a75)" style="fill: none; stroke: #1f77b4; stroke-width: 1.5"/>
    <path d="M 58.104034 218.88 
L 58.104034 218.88 
" clip-path="url(#p53a2023a75)" style="fill: none; stroke: #1f77b4; stroke-width: 1.5"/>
    <path d="M 59.625852 218.88 
L 59.625852 218.88 
" clip-path="url(#p53a2023a75)" style="fill: none; stroke: #1f77b4; stroke-width: 1.5"/>
    <path d="M 61.14767 218.88 
L 61.14767 218.88 
" clip-path="url(#p53a2023a75)" style="fill: none; stroke: #1f77b4; stroke-width: 1.5"/>
    <path d="M 62.669489 218.88 
L 62.669489 218.88 
" clip-path="url(#p53a2023a75)" style="fill: none; stroke: #1f77b4; stroke-width: 1.5"/>
    <path d="M 64.191307 218.88 
L 64.191307 218.88 
" clip-path="url(#p53a2023a75)" style="fill: none; stroke: #1f77b4; stroke-width: 1.5"/>
    <path d="M 65.713125 218.88 
L 65.713125 218.88 
" clip-path="url(#p53a2023a75)" style="fill: none; stroke: #1f77b4; stroke-width: 1.5"/>
    <path d="M 67.234943 218.88 
L 67.234943 218.88 
" clip-path="url(#p53a2023a75)" style="fill: none; stroke: #1f77b4; stroke-width: 1.5"/>
    <path d="M 68.756761 218.88 
L 68.756761 218.88 
" clip-path="url(#p53a2023a75)" style="fill: none; stroke: #1f77b4; stroke-width: 1.5"/>
    <path d="M 70.27858 218.88 
L 70.27858 218.88 
" clip-path="url(#p53a2023a75)" style="fill: none; stroke: #1f77b4; stroke-width: 1.5"/>
    <path d="M 71.800398 218.88 
L 71.800398 218.88 
" clip-path="url(#p53a2023a75)" style="fill: none; stroke: #1f77b4; stroke-width: 1.5"/>
    <path d="M 73.322216 218.88 
L 73.322216 218.88 
" clip-path="url(#p53a2023a75)" style="fill: none; stroke: #1f77b4; stroke-width: 1.5"/>
    <path d="M 74.844034 218.88 
L 74.844034 218.88 
" clip-path="url(#p53a2023a75)" style="fill: none; stroke: #1f77b4; stroke-width: 1.5"/>
    <path d="M 76.365852 218.88 
L 76.365852 218.88 
" clip-path="url(#p53a2023a75)" style="fill: none; stroke: #1f77b4; stroke-width: 1.5"/>
    <path d="M 77.88767 218.88 
L 77.88767 218.88 
" clip-path="url(#p53a2023a75)" style="fill: none; stroke: #1f77b4; stroke-width: 1.5"/>
    <path d="M 79.409489 218.88 
L 79.409489 218.88 
" clip-path="url(#p53a2023a75)" style="fill: none; stroke: #1f77b4; stroke-width: 1.5"/>
    <path d="M 80.931307 218.88 
L 80.931307 218.88 
" clip-path="url(#p53a2023a75)" style="fill: none; stroke: #1f77b4; stroke-width: 1.5"/>
    <path d="M 82.453125 218.88 
L 82.453125 218.88 
" clip-path="url(#p53a2023a75)" style="fill: none; stroke: #1f77b4; stroke-width: 1.5"/>
    <path d="M 83.974943 218.88 
L 83.974943 218.88 
" clip-path="url(#p53a2023a75)" style="fill: none; stroke: #1f77b4; stroke-width: 1.5"/>
    <path d="M 85.496761 218.88 
L 85.496761 218.88 
" clip-path="url(#p53a2023a75)" style="fill: none; stroke: #1f77b4; stroke-width: 1.5"/>
    <path d="M 87.01858 218.88 
L 87.01858 218.88 
" clip-path="url(#p53a2023a75)" style="fill: none; stroke: #1f77b4; stroke-width: 1.5"/>
    <path d="M 88.540398 218.88 
L 88.540398 218.88 
" clip-path="url(#p53a2023a75)" style="fill: none; stroke: #1f77b4; stroke-width: 1.5"/>
    <path d="M 90.062216 218.88 
L 90.062216 218.88 
" clip-path="url(#p53a2023a75)" style="fill: none; stroke: #1f77b4; stroke-width: 1.5"/>
    <path d="M 91.584034 218.88 
L 91.584034 218.88 
" clip-path="url(#p53a2023a75)" style="fill: none; stroke: #1f77b4; stroke-width: 1.5"/>
    <path d="M 93.105852 218.88 
L 93.105852 218.88 
" clip-path="url(#p53a2023a75)" style="fill: none; stroke: #1f77b4; stroke-width: 1.5"/>
    <path d="M 94.62767 218.88 
L 94.62767 218.88 
" clip-path="url(#p53a2023a75)" style="fill: none; stroke: #1f77b4; stroke-width: 1.5"/>
    <path d="M 96.149489 218.544846 
L 96.149489 218.255412 
" clip-path="url(#p53a2023a75)" style="fill: none; stroke: #1f77b4; stroke-width: 1.5"/>
    <path d="M 97.671307 218.750287 
L 97.671307 218.592389 
" clip-path="url(#p53a2023a75)" style="fill: none; stroke: #1f77b4; stroke-width: 1.5"/>
    <path d="M 99.193125 218.570199 
L 99.193125 218.385404 
" clip-path="url(#p53a2023a75)" style="fill: none; stroke: #1f77b4; stroke-width: 1.5"/>
    <path d="M 100.714943 218.708209 
L 100.714943 218.59339 
" clip-path="url(#p53a2023a75)" style="fill: none; stroke: #1f77b4; stroke-width: 1.5"/>
    <path d="M 102.236761 218.694819 
L 102.236761 218.591183 
" clip-path="url(#p53a2023a75)" style="fill: none; stroke: #1f77b4; stroke-width: 1.5"/>
    <path d="M 103.75858 218.600951 
L 103.75858 218.487108 
" clip-path="url(#p53a2023a75)" style="fill: none; stroke: #1f77b4; stroke-width: 1.5"/>
    <path d="M 105.280398 218.563338 
L 105.280398 218.440447 
" clip-path="url(#p53a2023a75)" style="fill: none; stroke: #1f77b4; stroke-width: 1.5"/>
    <path d="M 106.802216 218.294737 
L 106.802216 218.141372 
" clip-path="url(#p53a2023a75)" style="fill: none; stroke: #1f77b4; stroke-width: 1.5"/>
    <path d="M 108.324034 218.226854 
L 108.324034 218.079549 
" clip-path="url(#p53a2023a75)" style="fill: none; stroke: #1f77b4; stroke-width: 1.5"/>
    <path d="M 109.845852 218.242004 
L 109.845852 218.100494 
" clip-path="url(#p53a2023a75)" style="fill: none; stroke: #1f77b4; stroke-width: 1.5"/>
    <path d="M 111.36767 218.215845 
L 111.36767 218.084155 
" clip-path="url(#p53a2023a75)" style="fill: none; stroke: #1f77b4; stroke-width: 1.5"/>
    <path d="M 112.889489 218.210536 
L 112.889489 218.082279 
" clip-path="url(#p53a2023a75)" style="fill: none; stroke: #1f77b4; stroke-width: 1.5"/>
    <path d="M 114.411307 218.169581 
L 114.411307 218.046963 
" clip-path="url(#p53a2023a75)" style="fill: none; stroke: #1f77b4; stroke-width: 1.5"/>
    <path d="M 115.933125 217.936172 
L 115.933125 217.796541 
" clip-path="url(#p53a2023a75)" style="fill: none; stroke: #1f77b4; stroke-width: 1.5"/>
    <path d="M 117.454943 217.933173 
L 117.454943 217.798468 
" clip-path="url(#p53a2023a75)" style="fill: none; stroke: #1f77b4; stroke-width: 1.5"/>
    <path d="M 118.976761 217.841566 
L 118.976761 217.704197 
" clip-path="url(#p53a2023a75)" style="fill: none; stroke: #1f77b4; stroke-width: 1.5"/>
    <path d="M 120.49858 217.637672 
L 120.49858 217.490141 
" clip-path="url(#p53a2023a75)" style="fill: none; stroke: #1f77b4; stroke-width: 1.5"/>
    <path d="M 122.020398 213.386035 
L 122.020398 213.094439 
" clip-path="url(#p53a2023a75)" style="fill: none; stroke: #1f77b4; stroke-width: 1.5"/>
    <path d="M 123.542216 212.366618 
L 123.542216 212.052983 
" clip-path="url(#p53a2023a75)" style="fill: none; stroke: #1f77b4; stroke-width: 1.5"/>
    <path d="M 125.064034 209.681768 
L 125.064034 209.325827 
" clip-path="url(#p53a2023a75)" style="fill: none; stroke: #1f77b4; stroke-width: 1.5"/>
    <path d="M 126.585852 207.602866 
L 126.585852 207.231647 
" clip-path="url(#p53a2023a75)" style="fill: none; stroke: #1f77b4; stroke-width: 1.5"/>
    <path d="M 128.10767 213.728367 
L 128.10767 213.471167 
" clip-path="url(#p53a2023a75)" style="fill: none; stroke: #1f77b4; stroke-width: 1.5"/>
    <path d="M 129.629489 217.126543 
L 129.629489 216.978911 
" clip-path="url(#p53a2023a75)" style="fill: none; stroke: #1f77b4; stroke-width: 1.5"/>
    <path d="M 131.151307 217.428663 
L 131.151307 217.294538 
" clip-path="url(#p53a2023a75)" style="fill: none; stroke: #1f77b4; stroke-width: 1.5"/>
    <path d="M 132.673125 214.931174 
L 132.673125 214.722363 
" clip-path="url(#p53a2023a75)" style="fill: none; stroke: #1f77b4; stroke-width: 1.5"/>
    <path d="M 134.194943 210.274139 
L 134.194943 209.965439 
" clip-path="url(#p53a2023a75)" style="fill: none; stroke: #1f77b4; stroke-width: 1.5"/>
    <path d="M 135.716761 212.828188 
L 135.716761 212.579426 
" clip-path="url(#p53a2023a75)" style="fill: none; stroke: #1f77b4; stroke-width: 1.5"/>
    <path d="M 137.23858 209.728513 
L 137.23858 209.416686 
" clip-path="url(#p53a2023a75)" style="fill: none; stroke: #1f77b4; stroke-width: 1.5"/>
    <path d="M 138.760398 211.013679 
L 138.760398 210.745101 
" clip-path="url(#p53a2023a75)" style="fill: none; stroke: #1f77b4; stroke-width: 1.5"/>
    <path d="M 140.282216 216.234531 
L 140.282216 216.073852 
" clip-path="url(#p53a2023a75)" style="fill: none; stroke: #1f77b4; stroke-width: 1.5"/>
    <path d="M 141.804034 217.076649 
L 141.804034 216.943918 
" clip-path="url(#p53a2023a75)" style="fill: none; stroke: #1f77b4; stroke-width: 1.5"/>
    <path d="M 143.325852 211.045188 
L 143.325852 210.775464 
" clip-path="url(#p53a2023a75)" style="fill: none; stroke: #1f77b4; stroke-width: 1.5"/>
    <path d="M 144.84767 197.960366 
L 144.84767 197.528668 
" clip-path="url(#p53a2023a75)" style="fill: none; stroke: #1f77b4; stroke-width: 1.5"/>
    <path d="M 146.369489 205.281195 
L 146.369489 204.940632 
" clip-path="url(#p53a2023a75)" style="fill: none; stroke: #1f77b4; stroke-width: 1.5"/>
    <path d="M 147.891307 215.754422 
L 147.891307 215.600229 
" clip-path="url(#p53a2023a75)" style="fill: none; stroke: #1f77b4; stroke-width: 1.5"/>
    <path d="M 149.413125 216.990821 
L 149.413125 216.865086 
" clip-path="url(#p53a2023a75)" style="fill: none; stroke: #1f77b4; stroke-width: 1.5"/>
    <path d="M 150.934943 217.083109 
L 150.934943 216.964125 
" clip-path="url(#p53a2023a75)" style="fill: none; stroke: #1f77b4; stroke-width: 1.5"/>
    <path d="M 152.456761 216.889966 
L 152.456761 216.762634 
" clip-path="url(#p53a2023a75)" style="fill: none; stroke: #1f77b4; stroke-width: 1.5"/>
    <path d="M 153.97858 217.063658 
L 153.97858 216.945347 
" clip-path="url(#p53a2023a75)" style="fill: none; stroke: #1f77b4; stroke-width: 1.5"/>
    <path d="M 155.500398 217.001817 
L 155.500398 216.881172 
" clip-path="url(#p53a2023a75)" style="fill: none; stroke: #1f77b4; stroke-width: 1.5"/>
    <path d="M 157.022216 216.926188 
L 157.022216 216.807146 
" clip-path="url(#p53a2023a75)" style="fill: none; stroke: #1f77b4; stroke-width: 1.5"/>
    <path d="M 158.544034 216.616968 
L 158.544034 216.483608 
" clip-path="url(#p53a2023a75)" style="fill: none; stroke: #1f77b4; stroke-width: 1.5"/>
    <path d="M 160.065852 213.409874 
L 160.065852 213.214238 
" clip-path="url(#p53a2023a75)" style="fill: none; stroke: #1f77b4; stroke-width: 1.5"/>
    <path d="M 161.58767 201.846457 
L 161.58767 201.491601 
" clip-path="url(#p53a2023a75)" style="fill: none; stroke: #1f77b4; stroke-width: 1.5"/>
    <path d="M 163.109489 204.639224 
L 163.109489 204.332534 
" clip-path="url(#p53a2023a75)" style="fill: none; stroke: #1f77b4; stroke-width: 1.5"/>
    <path d="M 164.631307 214.750969 
L 164.631307 214.588867 
" clip-path="url(#p53a2023a75)" style="fill: none; stroke: #1f77b4; stroke-width: 1.5"/>
    <path d="M 166.153125 216.392449 
L 166.153125 216.264965 
" clip-path="url(#p53a2023a75)" style="fill: none; stroke: #1f77b4; stroke-width: 1.5"/>
    <path d="M 167.674943 216.541962 
L 167.674943 216.42034 
" clip-path="url(#p53a2023a75)" style="fill: none; stroke: #1f77b4; stroke-width: 1.5"/>
    <path d="M 169.196761 214.913894 
L 169.196761 214.75963 
" clip-path="url(#p53a2023a75)" style="fill: none; stroke: #1f77b4; stroke-width: 1.5"/>
    <path d="M 170.71858 202.189288 
L 170.71858 201.866552 
" clip-path="url(#p53a2023a75)" style="fill: none; stroke: #1f77b4; stroke-width: 1.5"/>
    <path d="M 172.240398 199.159335 
L 172.240398 198.81366 
" clip-path="url(#p53a2023a75)" style="fill: none; stroke: #1f77b4; stroke-width: 1.5"/>
    <path d="M 173.762216 212.647592 
L 173.762216 212.464225 
" clip-path="url(#p53a2023a75)" style="fill: none; stroke: #1f77b4; stroke-width: 1.5"/>
    <path d="M 175.284034 216.321117 
L 175.284034 216.197449 
" clip-path="url(#p53a2023a75)" style="fill: none; stroke: #1f77b4; stroke-width: 1.5"/>
    <path d="M 176.805852 216.577556 
L 176.805852 216.459761 
" clip-path="url(#p53a2023a75)" style="fill: none; stroke: #1f77b4; stroke-width: 1.5"/>
    <path d="M 178.32767 216.644515 
L 178.32767 216.528168 
" clip-path="url(#p53a2023a75)" style="fill: none; stroke: #1f77b4; stroke-width: 1.5"/>
    <path d="M 179.849489 216.695548 
L 179.849489 216.584743 
" clip-path="url(#p53a2023a75)" style="fill: none; stroke: #1f77b4; stroke-width: 1.5"/>
    <path d="M 181.371307 216.770304 
L 181.371307 216.66234 
" clip-path="url(#p53a2023a75)" style="fill: none; stroke: #1f77b4; stroke-width: 1.5"/>
    <path d="M 182.893125 216.396585 
L 182.893125 216.273896 
" clip-path="url(#p53a2023a75)" style="fill: none; stroke: #1f77b4; stroke-width: 1.5"/>
    <path d="M 184.414943 216.661755 
L 184.414943 216.552319 
" clip-path="url(#p53a2023a75)" style="fill: none; stroke: #1f77b4; stroke-width: 1.5"/>
    <path d="M 185.936761 216.487657 
L 185.936761 216.373832 
" clip-path="url(#p53a2023a75)" style="fill: none; stroke: #1f77b4; stroke-width: 1.5"/>
    <path d="M 187.45858 210.695024 
L 187.45858 210.486732 
" clip-path="url(#p53a2023a75)" style="fill: none; stroke: #1f77b4; stroke-width: 1.5"/>
    <path d="M 188.980398 190.583074 
L 188.980398 190.189413 
" clip-path="url(#p53a2023a75)" style="fill: none; stroke: #1f77b4; stroke-width: 1.5"/>
    <path d="M 190.502216 192.837366 
L 190.502216 192.460567 
" clip-path="url(#p53a2023a75)" style="fill: none; stroke: #1f77b4; stroke-width: 1.5"/>
    <path d="M 192.024034 212.577922 
L 192.024034 212.403839 
" clip-path="url(#p53a2023a75)" style="fill: none; stroke: #1f77b4; stroke-width: 1.5"/>
    <path d="M 193.545852 209.049076 
L 193.545852 208.831394 
" clip-path="url(#p53a2023a75)" style="fill: none; stroke: #1f77b4; stroke-width: 1.5"/>
    <path d="M 195.06767 187.216816 
L 195.06767 186.813624 
" clip-path="url(#p53a2023a75)" style="fill: none; stroke: #1f77b4; stroke-width: 1.5"/>
    <path d="M 196.589489 192.769905 
L 196.589489 192.399892 
" clip-path="url(#p53a2023a75)" style="fill: none; stroke: #1f77b4; stroke-width: 1.5"/>
    <path d="M 198.111307 213.892913 
L 198.111307 213.743409 
" clip-path="url(#p53a2023a75)" style="fill: none; stroke: #1f77b4; stroke-width: 1.5"/>
    <path d="M 199.633125 216.603392 
L 199.633125 216.50037 
" clip-path="url(#p53a2023a75)" style="fill: none; stroke: #1f77b4; stroke-width: 1.5"/>
    <path d="M 201.154943 216.812655 
L 201.154943 216.711848 
" clip-path="url(#p53a2023a75)" style="fill: none; stroke: #1f77b4; stroke-width: 1.5"/>
    <path d="M 202.676761 216.418438 
L 202.676761 216.309265 
" clip-path="url(#p53a2023a75)" style="fill: none; stroke: #1f77b4; stroke-width: 1.5"/>
    <path d="M 204.19858 216.864784 
L 204.19858 216.76862 
" clip-path="url(#p53a2023a75)" style="fill: none; stroke: #1f77b4; stroke-width: 1.5"/>
    <path d="M 205.720398 216.944033 
L 205.720398 216.850585 
" clip-path="url(#p53a2023a75)" style="fill: none; stroke: #1f77b4; stroke-width: 1.5"/>
    <path d="M 207.242216 216.723766 
L 207.242216 216.621963 
" clip-path="url(#p53a2023a75)" style="fill: none; stroke: #1f77b4; stroke-width: 1.5"/>
    <path d="M 208.764034 216.186113 
L 208.764034 216.073138 
" clip-path="url(#p53a2023a75)" style="fill: none; stroke: #1f77b4; stroke-width: 1.5"/>
    <path d="M 210.285852 216.879076 
L 210.285852 216.783809 
" clip-path="url(#p53a2023a75)" style="fill: none; stroke: #1f77b4; stroke-width: 1.5"/>
    <path d="M 211.80767 217.013194 
L 211.80767 216.923038 
" clip-path="url(#p53a2023a75)" style="fill: none; stroke: #1f77b4; stroke-width: 1.5"/>
    <path d="M 213.329489 217.17019 
L 213.329489 217.084376 
" clip-path="url(#p53a2023a75)" style="fill: none; stroke: #1f77b4; stroke-width: 1.5"/>
    <path d="M 214.851307 217.195541 
L 214.851307 217.110597 
" clip-path="url(#p53a2023a75)" style="fill: none; stroke: #1f77b4; stroke-width: 1.5"/>
    <path d="M 216.373125 217.372041 
L 216.373125 217.295396 
" clip-path="url(#p53a2023a75)" style="fill: none; stroke: #1f77b4; stroke-width: 1.5"/>
    <path d="M 217.894943 217.339517 
L 217.894943 217.259602 
" clip-path="url(#p53a2023a75)" style="fill: none; stroke: #1f77b4; stroke-width: 1.5"/>
    <path d="M 219.416761 217.331621 
L 219.416761 217.25192 
" clip-path="url(#p53a2023a75)" style="fill: none; stroke: #1f77b4; stroke-width: 1.5"/>
    <path d="M 220.93858 217.502218 
L 220.93858 217.427883 
" clip-path="url(#p53a2023a75)" style="fill: none; stroke: #1f77b4; stroke-width: 1.5"/>
    <path d="M 222.460398 217.483936 
L 222.460398 217.408104 
" clip-path="url(#p53a2023a75)" style="fill: none; stroke: #1f77b4; stroke-width: 1.5"/>
    <path d="M 223.982216 217.499186 
L 223.982216 217.424553 
" clip-path="url(#p53a2023a75)" style="fill: none; stroke: #1f77b4; stroke-width: 1.5"/>
    <path d="M 225.504034 217.521627 
L 225.504034 217.446935 
" clip-path="url(#p53a2023a75)" style="fill: none; stroke: #1f77b4; stroke-width: 1.5"/>
    <path d="M 227.025852 217.585874 
L 227.025852 217.514366 
" clip-path="url(#p53a2023a75)" style="fill: none; stroke: #1f77b4; stroke-width: 1.5"/>
    <path d="M 228.54767 217.57291 
L 228.54767 217.499882 
" clip-path="url(#p53a2023a75)" style="fill: none; stroke: #1f77b4; stroke-width: 1.5"/>
    <path d="M 230.069489 217.816605 
L 230.069489 217.752553 
" clip-path="url(#p53a2023a75)" style="fill: none; stroke: #1f77b4; stroke-width: 1.5"/>
    <path d="M 231.591307 217.758715 
L 231.591307 217.692772 
" clip-path="url(#p53a2023a75)" style="fill: none; stroke: #1f77b4; stroke-width: 1.5"/>
    <path d="M 233.113125 217.649848 
L 233.113125 217.579346 
" clip-path="url(#p53a2023a75)" style="fill: none; stroke: #1f77b4; stroke-width: 1.5"/>
    <path d="M 234.634943 217.65269 
L 234.634943 217.580454 
" clip-path="url(#p53a2023a75)" style="fill: none; stroke: #1f77b4; stroke-width: 1.5"/>
    <path d="M 236.156761 217.653818 
L 236.156761 217.582674 
" clip-path="url(#p53a2023a75)" style="fill: none; stroke: #1f77b4; stroke-width: 1.5"/>
    <path d="M 237.67858 217.691345 
L 237.67858 217.623222 
" clip-path="url(#p53a2023a75)" style="fill: none; stroke: #1f77b4; stroke-width: 1.5"/>
    <path d="M 239.200398 217.624224 
L 239.200398 217.553252 
" clip-path="url(#p53a2023a75)" style="fill: none; stroke: #1f77b4; stroke-width: 1.5"/>
    <path d="M 240.722216 217.54105 
L 240.722216 217.466323 
" clip-path="url(#p53a2023a75)" style="fill: none; stroke: #1f77b4; stroke-width: 1.5"/>
    <path d="M 242.244034 217.500979 
L 242.244034 217.426187 
" clip-path="url(#p53a2023a75)" style="fill: none; stroke: #1f77b4; stroke-width: 1.5"/>
    <path d="M 243.765852 217.45513 
L 243.765852 217.379009 
" clip-path="url(#p53a2023a75)" style="fill: none; stroke: #1f77b4; stroke-width: 1.5"/>
    <path d="M 245.28767 217.385329 
L 245.28767 217.30484 
" clip-path="url(#p53a2023a75)" style="fill: none; stroke: #1f77b4; stroke-width: 1.5"/>
    <path d="M 246.809489 217.424831 
L 246.809489 217.346866 
" clip-path="url(#p53a2023a75)" style="fill: none; stroke: #1f77b4; stroke-width: 1.5"/>
    <path d="M 248.331307 217.337294 
L 248.331307 217.259261 
" clip-path="url(#p53a2023a75)" style="fill: none; stroke: #1f77b4; stroke-width: 1.5"/>
    <path d="M 249.853125 217.439493 
L 249.853125 217.364882 
" clip-path="url(#p53a2023a75)" style="fill: none; stroke: #1f77b4; stroke-width: 1.5"/>
    <path d="M 251.374943 217.481424 
L 251.374943 217.410555 
" clip-path="url(#p53a2023a75)" style="fill: none; stroke: #1f77b4; stroke-width: 1.5"/>
    <path d="M 252.896761 217.485801 
L 252.896761 217.415346 
" clip-path="url(#p53a2023a75)" style="fill: none; stroke: #1f77b4; stroke-width: 1.5"/>
    <path d="M 254.41858 217.320445 
L 254.41858 217.242006 
" clip-path="url(#p53a2023a75)" style="fill: none; stroke: #1f77b4; stroke-width: 1.5"/>
    <path d="M 255.940398 217.311267 
L 255.940398 217.233973 
" clip-path="url(#p53a2023a75)" style="fill: none; stroke: #1f77b4; stroke-width: 1.5"/>
    <path d="M 257.462216 217.334282 
L 257.462216 217.257288 
" clip-path="url(#p53a2023a75)" style="fill: none; stroke: #1f77b4; stroke-width: 1.5"/>
    <path d="M 258.984034 217.25904 
L 258.984034 217.179248 
" clip-path="url(#p53a2023a75)" style="fill: none; stroke: #1f77b4; stroke-width: 1.5"/>
    <path d="M 260.505852 217.071923 
L 260.505852 216.986498 
" clip-path="url(#p53a2023a75)" style="fill: none; stroke: #1f77b4; stroke-width: 1.5"/>
    <path d="M 262.02767 217.119672 
L 262.02767 217.037327 
" clip-path="url(#p53a2023a75)" style="fill: none; stroke: #1f77b4; stroke-width: 1.5"/>
    <path d="M 263.549489 217.113878 
L 263.549489 217.033046 
" clip-path="url(#p53a2023a75)" style="fill: none; stroke: #1f77b4; stroke-width: 1.5"/>
    <path d="M 265.071307 217.024718 
L 265.071307 216.940374 
" clip-path="url(#p53a2023a75)" style="fill: none; stroke: #1f77b4; stroke-width: 1.5"/>
    <path d="M 266.593125 217.022381 
L 266.593125 216.938883 
" clip-path="url(#p53a2023a75)" style="fill: none; stroke: #1f77b4; stroke-width: 1.5"/>
    <path d="M 268.114943 217.088224 
L 268.114943 217.008596 
" clip-path="url(#p53a2023a75)" style="fill: none; stroke: #1f77b4; stroke-width: 1.5"/>
    <path d="M 269.636761 216.963705 
L 269.636761 216.880904 
" clip-path="url(#p53a2023a75)" style="fill: none; stroke: #1f77b4; stroke-width: 1.5"/>
    <path d="M 271.15858 217.01636 
L 271.15858 216.935855 
" clip-path="url(#p53a2023a75)" style="fill: none; stroke: #1f77b4; stroke-width: 1.5"/>
    <path d="M 272.680398 216.946345 
L 272.680398 216.864418 
" clip-path="url(#p53a2023a75)" style="fill: none; stroke: #1f77b4; stroke-width: 1.5"/>
    <path d="M 274.202216 216.974434 
L 274.202216 216.891797 
" clip-path="url(#p53a2023a75)" style="fill: none; stroke: #1f77b4; stroke-width: 1.5"/>
    <path d="M 275.724034 216.877272 
L 275.724034 216.793959 
" clip-path="url(#p53a2023a75)" style="fill: none; stroke: #1f77b4; stroke-width: 1.5"/>
    <path d="M 277.245852 216.706081 
L 277.245852 216.617803 
" clip-path="url(#p53a2023a75)" style="fill: none; stroke: #1f77b4; stroke-width: 1.5"/>
    <path d="M 278.76767 216.693817 
L 278.76767 216.605919 
" clip-path="url(#p53a2023a75)" style="fill: none; stroke: #1f77b4; stroke-width: 1.5"/>
    <path d="M 280.289489 216.784352 
L 280.289489 216.700013 
" clip-path="url(#p53a2023a75)" style="fill: none; stroke: #1f77b4; stroke-width: 1.5"/>
    <path d="M 281.811307 216.716518 
L 281.811307 216.631047 
" clip-path="url(#p53a2023a75)" style="fill: none; stroke: #1f77b4; stroke-width: 1.5"/>
    <path d="M 283.333125 216.73324 
L 283.333125 216.647956 
" clip-path="url(#p53a2023a75)" style="fill: none; stroke: #1f77b4; stroke-width: 1.5"/>
    <path d="M 284.854943 216.627656 
L 284.854943 216.540753 
" clip-path="url(#p53a2023a75)" style="fill: none; stroke: #1f77b4; stroke-width: 1.5"/>
    <path d="M 286.376761 216.702847 
L 286.376761 216.618756 
" clip-path="url(#p53a2023a75)" style="fill: none; stroke: #1f77b4; stroke-width: 1.5"/>
    <path d="M 287.89858 216.592603 
L 287.89858 216.506883 
" clip-path="url(#p53a2023a75)" style="fill: none; stroke: #1f77b4; stroke-width: 1.5"/>
    <path d="M 289.420398 216.643715 
L 289.420398 216.559721 
" clip-path="url(#p53a2023a75)" style="fill: none; stroke: #1f77b4; stroke-width: 1.5"/>
    <path d="M 290.942216 216.490641 
L 290.942216 216.40322 
" clip-path="url(#p53a2023a75)" style="fill: none; stroke: #1f77b4; stroke-width: 1.5"/>
    <path d="M 292.464034 216.463955 
L 292.464034 216.376077 
" clip-path="url(#p53a2023a75)" style="fill: none; stroke: #1f77b4; stroke-width: 1.5"/>
    <path d="M 293.985852 216.385761 
L 293.985852 216.296619 
" clip-path="url(#p53a2023a75)" style="fill: none; stroke: #1f77b4; stroke-width: 1.5"/>
    <path d="M 295.50767 216.382239 
L 295.50767 216.294217 
" clip-path="url(#p53a2023a75)" style="fill: none; stroke: #1f77b4; stroke-width: 1.5"/>
    <path d="M 297.029489 216.155075 
L 297.029489 216.062385 
" clip-path="url(#p53a2023a75)" style="fill: none; stroke: #1f77b4; stroke-width: 1.5"/>
    <path d="M 298.551307 216.112248 
L 298.551307 216.019201 
" clip-path="url(#p53a2023a75)" style="fill: none; stroke: #1f77b4; stroke-width: 1.5"/>
    <path d="M 300.073125 216.148129 
L 300.073125 216.056363 
" clip-path="url(#p53a2023a75)" style="fill: none; stroke: #1f77b4; stroke-width: 1.5"/>
    <path d="M 301.594943 216.088285 
L 301.594943 215.99529 
" clip-path="url(#p53a2023a75)" style="fill: none; stroke: #1f77b4; stroke-width: 1.5"/>
    <path d="M 303.116761 216.208161 
L 303.116761 216.119307 
" clip-path="url(#p53a2023a75)" style="fill: none; stroke: #1f77b4; stroke-width: 1.5"/>
    <path d="M 304.63858 216.315492 
L 304.63858 216.229159 
" clip-path="url(#p53a2023a75)" style="fill: none; stroke: #1f77b4; stroke-width: 1.5"/>
    <path d="M 306.160398 216.167426 
L 306.160398 216.077916 
" clip-path="url(#p53a2023a75)" style="fill: none; stroke: #1f77b4; stroke-width: 1.5"/>
    <path d="M 307.682216 216.063571 
L 307.682216 215.971286 
" clip-path="url(#p53a2023a75)" style="fill: none; stroke: #1f77b4; stroke-width: 1.5"/>
    <path d="M 309.204034 216.085861 
L 309.204034 215.994644 
" clip-path="url(#p53a2023a75)" style="fill: none; stroke: #1f77b4; stroke-width: 1.5"/>
    <path d="M 310.725852 216.149994 
L 310.725852 216.061974 
" clip-path="url(#p53a2023a75)" style="fill: none; stroke: #1f77b4; stroke-width: 1.5"/>
    <path d="M 312.24767 216.044183 
L 312.24767 215.954368 
" clip-path="url(#p53a2023a75)" style="fill: none; stroke: #1f77b4; stroke-width: 1.5"/>
    <path d="M 313.769489 215.994867 
L 313.769489 215.904805 
" clip-path="url(#p53a2023a75)" style="fill: none; stroke: #1f77b4; stroke-width: 1.5"/>
    <path d="M 315.291307 215.996498 
L 315.291307 215.907231 
" clip-path="url(#p53a2023a75)" style="fill: none; stroke: #1f77b4; stroke-width: 1.5"/>
    <path d="M 316.813125 215.53449 
L 316.813125 215.438044 
" clip-path="url(#p53a2023a75)" style="fill: none; stroke: #1f77b4; stroke-width: 1.5"/>
    <path d="M 318.334943 214.801351 
L 318.334943 214.699738 
" clip-path="url(#p53a2023a75)" style="fill: none; stroke: #1f77b4; stroke-width: 1.5"/>
    <path d="M 319.856761 205.793509 
L 319.856761 205.61482 
" clip-path="url(#p53a2023a75)" style="fill: none; stroke: #1f77b4; stroke-width: 1.5"/>
    <path d="M 321.37858 136.245972 
L 321.37858 135.783987 
" clip-path="url(#p53a2023a75)" style="fill: none; stroke: #1f77b4; stroke-width: 1.5"/>
    <path d="M 322.900398 18.019537 
L 322.900398 17.28 
" clip-path="url(#p53a2023a75)" style="fill: none; stroke: #1f77b4; stroke-width: 1.5"/>
    <path d="M 324.422216 81.204402 
L 324.422216 80.604808 
" clip-path="url(#p53a2023a75)" style="fill: none; stroke: #1f77b4; stroke-width: 1.5"/>
    <path d="M 325.944034 190.077561 
L 325.944034 189.819551 
" clip-path="url(#p53a2023a75)" style="fill: none; stroke: #1f77b4; stroke-width: 1.5"/>
    <path d="M 327.465852 213.069773 
L 327.465852 212.954523 
" clip-path="url(#p53a2023a75)" style="fill: none; stroke: #1f77b4; stroke-width: 1.5"/>
    <path d="M 328.98767 215.476453 
L 328.98767 215.382966 
" clip-path="url(#p53a2023a75)" style="fill: none; stroke: #1f77b4; stroke-width: 1.5"/>
    <path d="M 330.509489 215.924438 
L 330.509489 215.8382 
" clip-path="url(#p53a2023a75)" style="fill: none; stroke: #1f77b4; stroke-width: 1.5"/>
    <path d="M 332.031307 216.495626 
L 332.031307 216.425891 
" clip-path="url(#p53a2023a75)" style="fill: none; stroke: #1f77b4; stroke-width: 1.5"/>
    <path d="M 333.553125 216.931606 
L 333.553125 216.873401 
" clip-path="url(#p53a2023a75)" style="fill: none; stroke: #1f77b4; stroke-width: 1.5"/>
    <path d="M 335.074943 216.563946 
L 335.074943 216.494209 
" clip-path="url(#p53a2023a75)" style="fill: none; stroke: #1f77b4; stroke-width: 1.5"/>
    <path d="M 336.596761 216.293228 
L 336.596761 216.213978 
" clip-path="url(#p53a2023a75)" style="fill: none; stroke: #1f77b4; stroke-width: 1.5"/>
    <path d="M 338.11858 216.178439 
L 338.11858 216.094927 
" clip-path="url(#p53a2023a75)" style="fill: none; stroke: #1f77b4; stroke-width: 1.5"/>
    <path d="M 339.640398 215.97792 
L 339.640398 215.890248 
" clip-path="url(#p53a2023a75)" style="fill: none; stroke: #1f77b4; stroke-width: 1.5"/>
    <path d="M 341.162216 216.087544 
L 341.162216 216.002605 
" clip-path="url(#p53a2023a75)" style="fill: none; stroke: #1f77b4; stroke-width: 1.5"/>
    <path d="M 342.684034 215.821542 
L 342.684034 215.73514 
" clip-path="url(#p53a2023a75)" style="fill: none; stroke: #1f77b4; stroke-width: 1.5"/>
    <path d="M 344.205852 215.524593 
L 344.205852 215.430633 
" clip-path="url(#p53a2023a75)" style="fill: none; stroke: #1f77b4; stroke-width: 1.5"/>
    <path d="M 345.72767 215.864703 
L 345.72767 215.775936 
" clip-path="url(#p53a2023a75)" style="fill: none; stroke: #1f77b4; stroke-width: 1.5"/>
    <path d="M 347.249489 216.093554 
L 347.249489 216.00788 
" clip-path="url(#p53a2023a75)" style="fill: none; stroke: #1f77b4; stroke-width: 1.5"/>
    <path d="M 348.771307 216.232585 
L 348.771307 216.146109 
" clip-path="url(#p53a2023a75)" style="fill: none; stroke: #1f77b4; stroke-width: 1.5"/>
    <path d="M 350.293125 216.208214 
L 350.293125 216.12124 
" clip-path="url(#p53a2023a75)" style="fill: none; stroke: #1f77b4; stroke-width: 1.5"/>
    <path d="M 351.814943 216.331332 
L 351.814943 216.245115 
" clip-path="url(#p53a2023a75)" style="fill: none; stroke: #1f77b4; stroke-width: 1.5"/>
    <path d="M 353.336761 216.394627 
L 353.336761 216.309013 
" clip-path="url(#p53a2023a75)" style="fill: none; stroke: #1f77b4; stroke-width: 1.5"/>
    <path d="M 354.85858 216.415088 
L 354.85858 216.329081 
" clip-path="url(#p53a2023a75)" style="fill: none; stroke: #1f77b4; stroke-width: 1.5"/>
    <path d="M 356.380398 216.317308 
L 356.380398 216.228134 
" clip-path="url(#p53a2023a75)" style="fill: none; stroke: #1f77b4; stroke-width: 1.5"/>
    <path d="M 357.902216 216.292034 
L 357.902216 216.202072 
" clip-path="url(#p53a2023a75)" style="fill: none; stroke: #1f77b4; stroke-width: 1.5"/>
    <path d="M 359.424034 216.393525 
L 359.424034 216.304611 
" clip-path="url(#p53a2023a75)" style="fill: none; stroke: #1f77b4; stroke-width: 1.5"/>
   </g>
   <g id="patch_3">
    <path d="M 40.603125 228.96 
L 40.603125 7.2 
" style="fill: none; stroke: #000000; stroke-width: 0.8; stroke-linejoin: miter; stroke-linecap: square"/>
   </g>
   <g id="patch_4">
    <path d="M 375.403125 228.96 
L 375.403125 7.2 
" style="fill: none; stroke: #000000; stroke-width: 0.8; stroke-linejoin: miter; stroke-linecap: square"/>
   </g>
   <g id="patch_5">
    <path d="M 40.603125 228.96 
L 375.403125 228.96 
" style="fill: none; stroke: #000000; stroke-width: 0.8; stroke-linejoin: miter; stroke-linecap: square"/>
   </g>
   <g id="patch_6">
    <path d="M 40.603125 7.2 
L 375.403125 7.2 
" style="fill: none; stroke: #000000; stroke-width: 0.8; stroke-linejoin: miter; stroke-linecap: square"/>
   </g>
  </g>
 </g>
 <defs>
  <clipPath id="p53a2023a75">
   <rect x="40.603125" y="7.2" width="334.8" height="221.76"/>
  </clipPath>
 </defs>
</svg>
