<?xml version="1.0" encoding="utf-8" standalone="no"?>
<!DOCTYPE svg PUBLIC "-//W3C//DTD SVG 1.1//EN"
  "http://www.w3.org/Graphics/SVG/1.1/DTD/svg11.dtd">
<svg xmlns:xlink="http://www.w3.org/1999/xlink" width="382.603125pt" height="283.31875pt" viewBox="0 0 382.603125 283.31875" xmlns="http://www.w3.org/2000/svg" version="1.1">
 <metadata>
  <rdf:RDF xmlns:dc="http://purl.org/dc/elements/1.1/" xmlns:cc="http://creativecommons.org/ns#" xmlns:rdf="http://www.w3.org/1999/02/22-rdf-syntax-ns#">
   <cc:Work>
    <dc:type rdf:resource="http://purl.org/dc/dcmitype/StillImage"/>
    <dc:date>2025-11-04T08:47:37.812356</dc:date>
    <dc:format>image/svg+xml</dc:format>
    <dc:creator>
     <cc:Agent>
      <dc:title>Matplotlib v3.10.7, https://matplotlib.org/</dc:title>
     </cc:Agent>
    </dc:creator>
   </cc:Work>
  </rdf:RDF>
 </metadata>
 <defs>
  <style type="text/css">*{stroke-linejoin: round; stroke-linecap: butt}</style>
 </defs>
 <g id="figure_1">
  <g id="patch_1">
   <path d="M 0 283.31875 
L 382.603125 283.31875 
L 382.603125 0 
L 0 0 
z
" style="fill: #ffffff"/>
  </g>
  <g id="axes_1">
   <g id="patch_2">
    <path d="M 40.603125 244.078125 
L 375.403125 244.078125 
L 375.403125 22.318125 
L 40.603125 22.318125 
z
" style="fill: #ffffff"/>
   </g>
   <g id="matplotlib.axis_1">
    <g id="xtick_1">
     <g id="line2d_1">
      <defs>
       <path id="m01fa89f3b2" d="M 0 0 
L 0 3.5 
" style="stroke: #000000; stroke-width: 0.8"/>
      </defs>
      <g>
       <use xlink:href="#m01fa89f3b2" x="48.373826" y="244.078125" style="stroke: #000000; stroke-width: 0.8"/>
      </g>
     </g>
     <g id="text_1">
      <!-- 0.25 -->
      <g transform="translate(37.241014 258.676563) scale(0.1 -0.1)">
       <defs>
        <path id="DejaVuSans-30" d="M 2034 4250 
Q 1547 4250 1301 3770 
Q 1056 3291 1056 2328 
Q 1056 1369 1301 889 
Q 1547 409 2034 409 
Q 2525 409 2770 889 
Q 3016 1369 3016 2328 
Q 3016 3291 2770 3770 
Q 2525 4250 2034 4250 
z
M 2034 4750 
Q 2819 4750 3233 4129 
Q 3647 3509 3647 2328 
Q 3647 1150 3233 529 
Q 2819 -91 2034 -91 
Q 1250 -91 836 529 
Q 422 1150 422 2328 
Q 422 3509 836 4129 
Q 1250 4750 2034 4750 
z
" transform="scale(0.015625)"/>
        <path id="DejaVuSans-2e" d="M 684 794 
L 1344 794 
L 1344 0 
L 684 0 
L 684 794 
z
" transform="scale(0.015625)"/>
        <path id="DejaVuSans-32" d="M 1228 531 
L 3431 531 
L 3431 0 
L 469 0 
L 469 531 
Q 828 903 1448 1529 
Q 2069 2156 2228 2338 
Q 2531 2678 2651 2914 
Q 2772 3150 2772 3378 
Q 2772 3750 2511 3984 
Q 2250 4219 1831 4219 
Q 1534 4219 1204 4116 
Q 875 4013 500 3803 
L 500 4441 
Q 881 4594 1212 4672 
Q 1544 4750 1819 4750 
Q 2544 4750 2975 4387 
Q 3406 4025 3406 3419 
Q 3406 3131 3298 2873 
Q 3191 2616 2906 2266 
Q 2828 2175 2409 1742 
Q 1991 1309 1228 531 
z
" transform="scale(0.015625)"/>
        <path id="DejaVuSans-35" d="M 691 4666 
L 3169 4666 
L 3169 4134 
L 1269 4134 
L 1269 2991 
Q 1406 3038 1543 3061 
Q 1681 3084 1819 3084 
Q 2600 3084 3056 2656 
Q 3513 2228 3513 1497 
Q 3513 744 3044 326 
Q 2575 -91 1722 -91 
Q 1428 -91 1123 -41 
Q 819 9 494 109 
L 494 744 
Q 775 591 1075 516 
Q 1375 441 1709 441 
Q 2250 441 2565 725 
Q 2881 1009 2881 1497 
Q 2881 1984 2565 2268 
Q 2250 2553 1709 2553 
Q 1456 2553 1204 2497 
Q 953 2441 691 2322 
L 691 4666 
z
" transform="scale(0.015625)"/>
       </defs>
       <use xlink:href="#DejaVuSans-30"/>
       <use xlink:href="#DejaVuSans-2e" transform="translate(63.623047 0)"/>
       <use xlink:href="#DejaVuSans-32" transform="translate(95.410156 0)"/>
       <use xlink:href="#DejaVuSans-35" transform="translate(159.033203 0)"/>
      </g>
     </g>
    </g>
    <g id="xtick_2">
     <g id="line2d_2">
      <g>
       <use xlink:href="#m01fa89f3b2" x="85.611229" y="244.078125" style="stroke: #000000; stroke-width: 0.8"/>
      </g>
     </g>
     <g id="text_2">
      <!-- 0.50 -->
      <g transform="translate(74.478417 258.676563) scale(0.1 -0.1)">
       <use xlink:href="#DejaVuSans-30"/>
       <use xlink:href="#DejaVuSans-2e" transform="translate(63.623047 0)"/>
       <use xlink:href="#DejaVuSans-35" transform="translate(95.410156 0)"/>
       <use xlink:href="#DejaVuSans-30" transform="translate(159.033203 0)"/>
      </g>
     </g>
    </g>
    <g id="xtick_3">
     <g id="line2d_3">
      <g>
       <use xlink:href="#m01fa89f3b2" x="122.848632" y="244.078125" style="stroke: #000000; stroke-width: 0.8"/>
      </g>
     </g>
     <g id="text_3">
      <!-- 0.75 -->
      <g transform="translate(111.71582 258.676563) scale(0.1 -0.1)">
       <defs>
        <path id="DejaVuSans-37" d="M 525 4666 
L 3525 4666 
L 3525 4397 
L 1831 0 
L 1172 0 
L 2766 4134 
L 525 4134 
L 525 4666 
z
" transform="scale(0.015625)"/>
       </defs>
       <use xlink:href="#DejaVuSans-30"/>
       <use xlink:href="#DejaVuSans-2e" transform="translate(63.623047 0)"/>
       <use xlink:href="#DejaVuSans-37" transform="translate(95.410156 0)"/>
       <use xlink:href="#DejaVuSans-35" transform="translate(159.033203 0)"/>
      </g>
     </g>
    </g>
    <g id="xtick_4">
     <g id="line2d_4">
      <g>
       <use xlink:href="#m01fa89f3b2" x="160.086035" y="244.078125" style="stroke: #000000; stroke-width: 0.8"/>
      </g>
     </g>
     <g id="text_4">
      <!-- 1.00 -->
      <g transform="translate(148.953222 258.676563) scale(0.1 -0.1)">
       <defs>
        <path id="DejaVuSans-31" d="M 794 531 
L 1825 531 
L 1825 4091 
L 703 3866 
L 703 4441 
L 1819 4666 
L 2450 4666 
L 2450 531 
L 3481 531 
L 3481 0 
L 794 0 
L 794 531 
z
" transform="scale(0.015625)"/>
       </defs>
       <use xlink:href="#DejaVuSans-31"/>
       <use xlink:href="#DejaVuSans-2e" transform="translate(63.623047 0)"/>
       <use xlink:href="#DejaVuSans-30" transform="translate(95.410156 0)"/>
       <use xlink:href="#DejaVuSans-30" transform="translate(159.033203 0)"/>
      </g>
     </g>
    </g>
    <g id="xtick_5">
     <g id="line2d_5">
      <g>
       <use xlink:href="#m01fa89f3b2" x="197.323438" y="244.078125" style="stroke: #000000; stroke-width: 0.8"/>
      </g>
     </g>
     <g id="text_5">
      <!-- 1.25 -->
      <g transform="translate(186.190625 258.676563) scale(0.1 -0.1)">
       <use xlink:href="#DejaVuSans-31"/>
       <use xlink:href="#DejaVuSans-2e" transform="translate(63.623047 0)"/>
       <use xlink:href="#DejaVuSans-32" transform="translate(95.410156 0)"/>
       <use xlink:href="#DejaVuSans-35" transform="translate(159.033203 0)"/>
      </g>
     </g>
    </g>
    <g id="xtick_6">
     <g id="line2d_6">
      <g>
       <use xlink:href="#m01fa89f3b2" x="234.560841" y="244.078125" style="stroke: #000000; stroke-width: 0.8"/>
      </g>
     </g>
     <g id="text_6">
      <!-- 1.50 -->
      <g transform="translate(223.428028 258.676563) scale(0.1 -0.1)">
       <use xlink:href="#DejaVuSans-31"/>
       <use xlink:href="#DejaVuSans-2e" transform="translate(63.623047 0)"/>
       <use xlink:href="#DejaVuSans-35" transform="translate(95.410156 0)"/>
       <use xlink:href="#DejaVuSans-30" transform="translate(159.033203 0)"/>
      </g>
     </g>
    </g>
    <g id="xtick_7">
     <g id="line2d_7">
      <g>
       <use xlink:href="#m01fa89f3b2" x="271.798244" y="244.078125" style="stroke: #000000; stroke-width: 0.8"/>
      </g>
     </g>
     <g id="text_7">
      <!-- 1.75 -->
      <g transform="translate(260.665431 258.676563) scale(0.1 -0.1)">
       <use xlink:href="#DejaVuSans-31"/>
       <use xlink:href="#DejaVuSans-2e" transform="translate(63.623047 0)"/>
       <use xlink:href="#DejaVuSans-37" transform="translate(95.410156 0)"/>
       <use xlink:href="#DejaVuSans-35" transform="translate(159.033203 0)"/>
      </g>
     </g>
    </g>
    <g id="xtick_8">
     <g id="line2d_8">
      <g>
       <use xlink:href="#m01fa89f3b2" x="309.035647" y="244.078125" style="stroke: #000000; stroke-width: 0.8"/>
      </g>
     </g>
     <g id="text_8">
      <!-- 2.00 -->
      <g transform="translate(297.902834 258.676563) scale(0.1 -0.1)">
       <use xlink:href="#DejaVuSans-32"/>
       <use xlink:href="#DejaVuSans-2e" transform="translate(63.623047 0)"/>
       <use xlink:href="#DejaVuSans-30" transform="translate(95.410156 0)"/>
       <use xlink:href="#DejaVuSans-30" transform="translate(159.033203 0)"/>
      </g>
     </g>
    </g>
    <g id="xtick_9">
     <g id="line2d_9">
      <g>
       <use xlink:href="#m01fa89f3b2" x="346.273049" y="244.078125" style="stroke: #000000; stroke-width: 0.8"/>
      </g>
     </g>
     <g id="text_9">
      <!-- 2.25 -->
      <g transform="translate(335.140237 258.676563) scale(0.1 -0.1)">
       <use xlink:href="#DejaVuSans-32"/>
       <use xlink:href="#DejaVuSans-2e" transform="translate(63.623047 0)"/>
       <use xlink:href="#DejaVuSans-32" transform="translate(95.410156 0)"/>
       <use xlink:href="#DejaVuSans-35" transform="translate(159.033203 0)"/>
      </g>
     </g>
    </g>
    <g id="text_10">
     <!-- dspacing [Å] -->
     <g transform="translate(176.59375 274.039062) scale(0.1 -0.1)">
      <defs>
       <path id="DejaVuSans-64" d="M 2906 2969 
L 2906 4863 
L 3481 4863 
L 3481 0 
L 2906 0 
L 2906 525 
Q 2725 213 2448 61 
Q 2172 -91 1784 -91 
Q 1150 -91 751 415 
Q 353 922 353 1747 
Q 353 2572 751 3078 
Q 1150 3584 1784 3584 
Q 2172 3584 2448 3432 
Q 2725 3281 2906 2969 
z
M 947 1747 
Q 947 1113 1208 752 
Q 1469 391 1925 391 
Q 2381 391 2643 752 
Q 2906 1113 2906 1747 
Q 2906 2381 2643 2742 
Q 2381 3103 1925 3103 
Q 1469 3103 1208 2742 
Q 947 2381 947 1747 
z
" transform="scale(0.015625)"/>
       <path id="DejaVuSans-73" d="M 2834 3397 
L 2834 2853 
Q 2591 2978 2328 3040 
Q 2066 3103 1784 3103 
Q 1356 3103 1142 2972 
Q 928 2841 928 2578 
Q 928 2378 1081 2264 
Q 1234 2150 1697 2047 
L 1894 2003 
Q 2506 1872 2764 1633 
Q 3022 1394 3022 966 
Q 3022 478 2636 193 
Q 2250 -91 1575 -91 
Q 1294 -91 989 -36 
Q 684 19 347 128 
L 347 722 
Q 666 556 975 473 
Q 1284 391 1588 391 
Q 1994 391 2212 530 
Q 2431 669 2431 922 
Q 2431 1156 2273 1281 
Q 2116 1406 1581 1522 
L 1381 1569 
Q 847 1681 609 1914 
Q 372 2147 372 2553 
Q 372 3047 722 3315 
Q 1072 3584 1716 3584 
Q 2034 3584 2315 3537 
Q 2597 3491 2834 3397 
z
" transform="scale(0.015625)"/>
       <path id="DejaVuSans-70" d="M 1159 525 
L 1159 -1331 
L 581 -1331 
L 581 3500 
L 1159 3500 
L 1159 2969 
Q 1341 3281 1617 3432 
Q 1894 3584 2278 3584 
Q 2916 3584 3314 3078 
Q 3713 2572 3713 1747 
Q 3713 922 3314 415 
Q 2916 -91 2278 -91 
Q 1894 -91 1617 61 
Q 1341 213 1159 525 
z
M 3116 1747 
Q 3116 2381 2855 2742 
Q 2594 3103 2138 3103 
Q 1681 3103 1420 2742 
Q 1159 2381 1159 1747 
Q 1159 1113 1420 752 
Q 1681 391 2138 391 
Q 2594 391 2855 752 
Q 3116 1113 3116 1747 
z
" transform="scale(0.015625)"/>
       <path id="DejaVuSans-61" d="M 2194 1759 
Q 1497 1759 1228 1600 
Q 959 1441 959 1056 
Q 959 750 1161 570 
Q 1363 391 1709 391 
Q 2188 391 2477 730 
Q 2766 1069 2766 1631 
L 2766 1759 
L 2194 1759 
z
M 3341 1997 
L 3341 0 
L 2766 0 
L 2766 531 
Q 2569 213 2275 61 
Q 1981 -91 1556 -91 
Q 1019 -91 701 211 
Q 384 513 384 1019 
Q 384 1609 779 1909 
Q 1175 2209 1959 2209 
L 2766 2209 
L 2766 2266 
Q 2766 2663 2505 2880 
Q 2244 3097 1772 3097 
Q 1472 3097 1187 3025 
Q 903 2953 641 2809 
L 641 3341 
Q 956 3463 1253 3523 
Q 1550 3584 1831 3584 
Q 2591 3584 2966 3190 
Q 3341 2797 3341 1997 
z
" transform="scale(0.015625)"/>
       <path id="DejaVuSans-63" d="M 3122 3366 
L 3122 2828 
Q 2878 2963 2633 3030 
Q 2388 3097 2138 3097 
Q 1578 3097 1268 2742 
Q 959 2388 959 1747 
Q 959 1106 1268 751 
Q 1578 397 2138 397 
Q 2388 397 2633 464 
Q 2878 531 3122 666 
L 3122 134 
Q 2881 22 2623 -34 
Q 2366 -91 2075 -91 
Q 1284 -91 818 406 
Q 353 903 353 1747 
Q 353 2603 823 3093 
Q 1294 3584 2113 3584 
Q 2378 3584 2631 3529 
Q 2884 3475 3122 3366 
z
" transform="scale(0.015625)"/>
       <path id="DejaVuSans-69" d="M 603 3500 
L 1178 3500 
L 1178 0 
L 603 0 
L 603 3500 
z
M 603 4863 
L 1178 4863 
L 1178 4134 
L 603 4134 
L 603 4863 
z
" transform="scale(0.015625)"/>
       <path id="DejaVuSans-6e" d="M 3513 2113 
L 3513 0 
L 2938 0 
L 2938 2094 
Q 2938 2591 2744 2837 
Q 2550 3084 2163 3084 
Q 1697 3084 1428 2787 
Q 1159 2491 1159 1978 
L 1159 0 
L 581 0 
L 581 3500 
L 1159 3500 
L 1159 2956 
Q 1366 3272 1645 3428 
Q 1925 3584 2291 3584 
Q 2894 3584 3203 3211 
Q 3513 2838 3513 2113 
z
" transform="scale(0.015625)"/>
       <path id="DejaVuSans-67" d="M 2906 1791 
Q 2906 2416 2648 2759 
Q 2391 3103 1925 3103 
Q 1463 3103 1205 2759 
Q 947 2416 947 1791 
Q 947 1169 1205 825 
Q 1463 481 1925 481 
Q 2391 481 2648 825 
Q 2906 1169 2906 1791 
z
M 3481 434 
Q 3481 -459 3084 -895 
Q 2688 -1331 1869 -1331 
Q 1566 -1331 1297 -1286 
Q 1028 -1241 775 -1147 
L 775 -588 
Q 1028 -725 1275 -790 
Q 1522 -856 1778 -856 
Q 2344 -856 2625 -561 
Q 2906 -266 2906 331 
L 2906 616 
Q 2728 306 2450 153 
Q 2172 0 1784 0 
Q 1141 0 747 490 
Q 353 981 353 1791 
Q 353 2603 747 3093 
Q 1141 3584 1784 3584 
Q 2172 3584 2450 3431 
Q 2728 3278 2906 2969 
L 2906 3500 
L 3481 3500 
L 3481 434 
z
" transform="scale(0.015625)"/>
       <path id="DejaVuSans-20" transform="scale(0.015625)"/>
       <path id="DejaVuSans-5b" d="M 550 4863 
L 1875 4863 
L 1875 4416 
L 1125 4416 
L 1125 -397 
L 1875 -397 
L 1875 -844 
L 550 -844 
L 550 4863 
z
" transform="scale(0.015625)"/>
       <path id="DejaVuSans-c5" d="M 2663 5081 
Q 2663 5278 2523 5417 
Q 2384 5556 2188 5556 
Q 1988 5556 1852 5420 
Q 1716 5284 1716 5081 
Q 1716 4884 1853 4746 
Q 1991 4609 2188 4609 
Q 2384 4609 2523 4746 
Q 2663 4884 2663 5081 
z
M 2188 4044 
L 1338 1722 
L 3041 1722 
L 2188 4044 
z
M 1716 4366 
Q 1525 4494 1428 4673 
Q 1331 4853 1331 5081 
Q 1331 5441 1579 5691 
Q 1828 5941 2188 5941 
Q 2544 5941 2795 5689 
Q 3047 5438 3047 5081 
Q 3047 4863 2948 4678 
Q 2850 4494 2663 4366 
L 4325 0 
L 3669 0 
L 3244 1197 
L 1141 1197 
L 716 0 
L 50 0 
L 1716 4366 
z
" transform="scale(0.015625)"/>
       <path id="DejaVuSans-5d" d="M 1947 4863 
L 1947 -844 
L 622 -844 
L 622 -397 
L 1369 -397 
L 1369 4416 
L 622 4416 
L 622 4863 
L 1947 4863 
z
" transform="scale(0.015625)"/>
      </defs>
      <use xlink:href="#DejaVuSans-64"/>
      <use xlink:href="#DejaVuSans-73" transform="translate(63.476562 0)"/>
      <use xlink:href="#DejaVuSans-70" transform="translate(115.576172 0)"/>
      <use xlink:href="#DejaVuSans-61" transform="translate(179.052734 0)"/>
      <use xlink:href="#DejaVuSans-63" transform="translate(240.332031 0)"/>
      <use xlink:href="#DejaVuSans-69" transform="translate(295.3125 0)"/>
      <use xlink:href="#DejaVuSans-6e" transform="translate(323.095703 0)"/>
      <use xlink:href="#DejaVuSans-67" transform="translate(386.474609 0)"/>
      <use xlink:href="#DejaVuSans-20" transform="translate(449.951172 0)"/>
      <use xlink:href="#DejaVuSans-5b" transform="translate(481.738281 0)"/>
      <use xlink:href="#DejaVuSans-c5" transform="translate(520.751953 0)"/>
      <use xlink:href="#DejaVuSans-5d" transform="translate(589.160156 0)"/>
     </g>
    </g>
   </g>
   <g id="matplotlib.axis_2">
    <g id="ytick_1">
     <g id="line2d_10">
      <defs>
       <path id="m17d1dd82bf" d="M 0 0 
L -3.5 0 
" style="stroke: #000000; stroke-width: 0.8"/>
      </defs>
      <g>
       <use xlink:href="#m17d1dd82bf" x="40.603125" y="231.546096" style="stroke: #000000; stroke-width: 0.8"/>
      </g>
     </g>
     <g id="text_11">
      <!-- 0 -->
      <g transform="translate(27.240625 235.345315) scale(0.1 -0.1)">
       <use xlink:href="#DejaVuSans-30"/>
      </g>
     </g>
    </g>
    <g id="ytick_2">
     <g id="line2d_11">
      <g>
       <use xlink:href="#m17d1dd82bf" x="40.603125" y="188.625708" style="stroke: #000000; stroke-width: 0.8"/>
      </g>
     </g>
     <g id="text_12">
      <!-- 10 -->
      <g transform="translate(20.878125 192.424927) scale(0.1 -0.1)">
       <use xlink:href="#DejaVuSans-31"/>
       <use xlink:href="#DejaVuSans-30" transform="translate(63.623047 0)"/>
      </g>
     </g>
    </g>
    <g id="ytick_3">
     <g id="line2d_12">
      <g>
       <use xlink:href="#m17d1dd82bf" x="40.603125" y="145.705321" style="stroke: #000000; stroke-width: 0.8"/>
      </g>
     </g>
     <g id="text_13">
      <!-- 20 -->
      <g transform="translate(20.878125 149.50454) scale(0.1 -0.1)">
       <use xlink:href="#DejaVuSans-32"/>
       <use xlink:href="#DejaVuSans-30" transform="translate(63.623047 0)"/>
      </g>
     </g>
    </g>
    <g id="ytick_4">
     <g id="line2d_13">
      <g>
       <use xlink:href="#m17d1dd82bf" x="40.603125" y="102.784933" style="stroke: #000000; stroke-width: 0.8"/>
      </g>
     </g>
     <g id="text_14">
      <!-- 30 -->
      <g transform="translate(20.878125 106.584152) scale(0.1 -0.1)">
       <defs>
        <path id="DejaVuSans-33" d="M 2597 2516 
Q 3050 2419 3304 2112 
Q 3559 1806 3559 1356 
Q 3559 666 3084 287 
Q 2609 -91 1734 -91 
Q 1441 -91 1130 -33 
Q 819 25 488 141 
L 488 750 
Q 750 597 1062 519 
Q 1375 441 1716 441 
Q 2309 441 2620 675 
Q 2931 909 2931 1356 
Q 2931 1769 2642 2001 
Q 2353 2234 1838 2234 
L 1294 2234 
L 1294 2753 
L 1863 2753 
Q 2328 2753 2575 2939 
Q 2822 3125 2822 3475 
Q 2822 3834 2567 4026 
Q 2313 4219 1838 4219 
Q 1578 4219 1281 4162 
Q 984 4106 628 3988 
L 628 4550 
Q 988 4650 1302 4700 
Q 1616 4750 1894 4750 
Q 2613 4750 3031 4423 
Q 3450 4097 3450 3541 
Q 3450 3153 3228 2886 
Q 3006 2619 2597 2516 
z
" transform="scale(0.015625)"/>
       </defs>
       <use xlink:href="#DejaVuSans-33"/>
       <use xlink:href="#DejaVuSans-30" transform="translate(63.623047 0)"/>
      </g>
     </g>
    </g>
    <g id="ytick_5">
     <g id="line2d_14">
      <g>
       <use xlink:href="#m17d1dd82bf" x="40.603125" y="59.864546" style="stroke: #000000; stroke-width: 0.8"/>
      </g>
     </g>
     <g id="text_15">
      <!-- 40 -->
      <g transform="translate(20.878125 63.663764) scale(0.1 -0.1)">
       <defs>
        <path id="DejaVuSans-34" d="M 2419 4116 
L 825 1625 
L 2419 1625 
L 2419 4116 
z
M 2253 4666 
L 3047 4666 
L 3047 1625 
L 3713 1625 
L 3713 1100 
L 3047 1100 
L 3047 0 
L 2419 0 
L 2419 1100 
L 313 1100 
L 313 1709 
L 2253 4666 
z
" transform="scale(0.015625)"/>
       </defs>
       <use xlink:href="#DejaVuSans-34"/>
       <use xlink:href="#DejaVuSans-30" transform="translate(63.623047 0)"/>
      </g>
     </g>
    </g>
    <g id="text_16">
     <!-- I(d) [dimensionless] -->
     <g transform="translate(14.798438 182.815313) rotate(-90) scale(0.1 -0.1)">
      <defs>
       <path id="DejaVuSans-49" d="M 628 4666 
L 1259 4666 
L 1259 0 
L 628 0 
L 628 4666 
z
" transform="scale(0.015625)"/>
       <path id="DejaVuSans-28" d="M 1984 4856 
Q 1566 4138 1362 3434 
Q 1159 2731 1159 2009 
Q 1159 1288 1364 580 
Q 1569 -128 1984 -844 
L 1484 -844 
Q 1016 -109 783 600 
Q 550 1309 550 2009 
Q 550 2706 781 3412 
Q 1013 4119 1484 4856 
L 1984 4856 
z
" transform="scale(0.015625)"/>
       <path id="DejaVuSans-29" d="M 513 4856 
L 1013 4856 
Q 1481 4119 1714 3412 
Q 1947 2706 1947 2009 
Q 1947 1309 1714 600 
Q 1481 -109 1013 -844 
L 513 -844 
Q 928 -128 1133 580 
Q 1338 1288 1338 2009 
Q 1338 2731 1133 3434 
Q 928 4138 513 4856 
z
" transform="scale(0.015625)"/>
       <path id="DejaVuSans-6d" d="M 3328 2828 
Q 3544 3216 3844 3400 
Q 4144 3584 4550 3584 
Q 5097 3584 5394 3201 
Q 5691 2819 5691 2113 
L 5691 0 
L 5113 0 
L 5113 2094 
Q 5113 2597 4934 2840 
Q 4756 3084 4391 3084 
Q 3944 3084 3684 2787 
Q 3425 2491 3425 1978 
L 3425 0 
L 2847 0 
L 2847 2094 
Q 2847 2600 2669 2842 
Q 2491 3084 2119 3084 
Q 1678 3084 1418 2786 
Q 1159 2488 1159 1978 
L 1159 0 
L 581 0 
L 581 3500 
L 1159 3500 
L 1159 2956 
Q 1356 3278 1631 3431 
Q 1906 3584 2284 3584 
Q 2666 3584 2933 3390 
Q 3200 3197 3328 2828 
z
" transform="scale(0.015625)"/>
       <path id="DejaVuSans-65" d="M 3597 1894 
L 3597 1613 
L 953 1613 
Q 991 1019 1311 708 
Q 1631 397 2203 397 
Q 2534 397 2845 478 
Q 3156 559 3463 722 
L 3463 178 
Q 3153 47 2828 -22 
Q 2503 -91 2169 -91 
Q 1331 -91 842 396 
Q 353 884 353 1716 
Q 353 2575 817 3079 
Q 1281 3584 2069 3584 
Q 2775 3584 3186 3129 
Q 3597 2675 3597 1894 
z
M 3022 2063 
Q 3016 2534 2758 2815 
Q 2500 3097 2075 3097 
Q 1594 3097 1305 2825 
Q 1016 2553 972 2059 
L 3022 2063 
z
" transform="scale(0.015625)"/>
       <path id="DejaVuSans-6f" d="M 1959 3097 
Q 1497 3097 1228 2736 
Q 959 2375 959 1747 
Q 959 1119 1226 758 
Q 1494 397 1959 397 
Q 2419 397 2687 759 
Q 2956 1122 2956 1747 
Q 2956 2369 2687 2733 
Q 2419 3097 1959 3097 
z
M 1959 3584 
Q 2709 3584 3137 3096 
Q 3566 2609 3566 1747 
Q 3566 888 3137 398 
Q 2709 -91 1959 -91 
Q 1206 -91 779 398 
Q 353 888 353 1747 
Q 353 2609 779 3096 
Q 1206 3584 1959 3584 
z
" transform="scale(0.015625)"/>
       <path id="DejaVuSans-6c" d="M 603 4863 
L 1178 4863 
L 1178 0 
L 603 0 
L 603 4863 
z
" transform="scale(0.015625)"/>
      </defs>
      <use xlink:href="#DejaVuSans-49"/>
      <use xlink:href="#DejaVuSans-28" transform="translate(29.492188 0)"/>
      <use xlink:href="#DejaVuSans-64" transform="translate(68.505859 0)"/>
      <use xlink:href="#DejaVuSans-29" transform="translate(131.982422 0)"/>
      <use xlink:href="#DejaVuSans-20" transform="translate(170.996094 0)"/>
      <use xlink:href="#DejaVuSans-5b" transform="translate(202.783203 0)"/>
      <use xlink:href="#DejaVuSans-64" transform="translate(241.796875 0)"/>
      <use xlink:href="#DejaVuSans-69" transform="translate(305.273438 0)"/>
      <use xlink:href="#DejaVuSans-6d" transform="translate(333.056641 0)"/>
      <use xlink:href="#DejaVuSans-65" transform="translate(430.46875 0)"/>
      <use xlink:href="#DejaVuSans-6e" transform="translate(491.992188 0)"/>
      <use xlink:href="#DejaVuSans-73" transform="translate(555.371094 0)"/>
      <use xlink:href="#DejaVuSans-69" transform="translate(607.470703 0)"/>
      <use xlink:href="#DejaVuSans-6f" transform="translate(635.253906 0)"/>
      <use xlink:href="#DejaVuSans-6e" transform="translate(696.435547 0)"/>
      <use xlink:href="#DejaVuSans-6c" transform="translate(759.814453 0)"/>
      <use xlink:href="#DejaVuSans-65" transform="translate(787.597656 0)"/>
      <use xlink:href="#DejaVuSans-73" transform="translate(849.121094 0)"/>
      <use xlink:href="#DejaVuSans-73" transform="translate(901.220703 0)"/>
      <use xlink:href="#DejaVuSans-5d" transform="translate(953.320312 0)"/>
     </g>
    </g>
   </g>
   <g id="line2d_15">
    <path d="M 55.821307 231.740938 
L 57.343125 231.740938 
L 57.343125 232.193575 
L 60.386761 232.236845 
L 60.386761 232.753225 
L 61.90858 232.753225 
L 61.90858 232.101142 
L 63.430398 232.101142 
L 63.430398 232.498891 
L 64.952216 232.498891 
L 64.952216 232.687982 
L 67.995852 232.710193 
L 67.995852 232.357746 
L 69.51767 232.357746 
L 69.51767 232.539 
L 71.039489 232.539 
L 71.039489 232.143347 
L 72.561307 232.143347 
L 72.561307 232.982852 
L 74.083125 232.982852 
L 74.083125 231.851823 
L 75.604943 231.851823 
L 75.604943 232.635764 
L 78.64858 232.605316 
L 78.64858 231.77283 
L 80.170398 231.77283 
L 80.170398 233.350714 
L 81.692216 233.350714 
L 81.692216 232.555911 
L 83.214034 232.555911 
L 83.214034 231.995252 
L 84.735852 231.995252 
L 84.735852 230.934526 
L 86.25767 230.934526 
L 86.25767 222.872713 
L 87.779489 222.872713 
L 87.779489 225.11916 
L 89.301307 225.11916 
L 89.301307 225.751166 
L 90.823125 225.751166 
L 90.823125 211.438805 
L 92.344943 211.438805 
L 92.344943 207.280656 
L 93.866761 207.280656 
L 93.866761 226.634249 
L 95.38858 226.634249 
L 95.38858 231.853838 
L 96.910398 231.853838 
L 96.910398 230.622761 
L 98.432216 230.622761 
L 98.432216 228.920921 
L 99.954034 228.920921 
L 99.954034 220.327851 
L 101.475852 220.327851 
L 101.475852 222.28817 
L 102.99767 222.28817 
L 102.99767 222.731849 
L 104.519489 222.731849 
L 104.519489 221.166167 
L 106.041307 221.166167 
L 106.041307 221.459884 
L 107.563125 221.459884 
L 107.563125 229.681501 
L 109.084943 229.681501 
L 109.084943 230.390408 
L 110.606761 230.390408 
L 110.606761 225.176567 
L 112.12858 225.176567 
L 112.12858 205.406797 
L 113.650398 205.406797 
L 113.650398 216.060236 
L 115.172216 216.060236 
L 115.172216 220.515996 
L 116.694034 220.515996 
L 116.694034 228.129956 
L 118.215852 228.129956 
L 118.215852 232.167332 
L 119.73767 232.167332 
L 119.73767 231.677668 
L 121.259489 231.677668 
L 121.259489 232.032734 
L 122.781307 232.032734 
L 122.781307 231.195968 
L 124.303125 231.195968 
L 124.303125 231.475546 
L 125.824943 231.475546 
L 125.824943 231.881802 
L 127.346761 231.881802 
L 127.346761 231.137287 
L 128.86858 231.137287 
L 128.86858 230.593665 
L 130.390398 230.593665 
L 130.390398 224.009973 
L 131.912216 224.009973 
L 131.912216 213.336637 
L 133.434034 213.336637 
L 133.434034 216.189505 
L 134.955852 216.189505 
L 134.955852 226.280177 
L 136.47767 226.280177 
L 136.47767 229.588229 
L 137.999489 229.588229 
L 137.999489 230.341014 
L 139.521307 230.341014 
L 139.521307 230.47335 
L 141.043125 230.47335 
L 141.043125 225.440116 
L 142.564943 225.440116 
L 142.564943 212.021716 
L 144.086761 212.021716 
L 144.086761 212.330799 
L 145.60858 212.330799 
L 145.60858 225.610745 
L 147.130398 225.610745 
L 147.130398 230.045842 
L 148.652216 230.045842 
L 148.652216 230.817653 
L 151.695852 230.921035 
L 151.695852 231.166566 
L 153.21767 231.166566 
L 153.21767 231.029987 
L 159.304943 230.954201 
L 159.304943 230.850253 
L 160.826761 230.850253 
L 160.826761 228.177016 
L 162.34858 228.177016 
L 162.34858 211.481651 
L 163.870398 211.481651 
L 163.870398 198.490027 
L 165.392216 198.490027 
L 165.392216 213.754073 
L 166.914034 213.754073 
L 166.914034 227.820526 
L 168.435852 227.820526 
L 168.435852 221.936786 
L 169.95767 221.936786 
L 169.95767 198.809099 
L 171.479489 198.809099 
L 171.479489 200.697294 
L 173.001307 200.697294 
L 173.001307 223.709249 
L 174.523125 223.709249 
L 174.523125 230.395515 
L 176.044943 230.395515 
L 176.044943 231.186452 
L 177.566761 231.186452 
L 177.566761 230.921153 
L 180.610398 230.869892 
L 180.610398 231.300555 
L 185.175852 231.367869 
L 185.175852 230.241329 
L 186.69767 230.241329 
L 186.69767 231.137734 
L 188.219489 231.137734 
L 188.219489 231.425747 
L 191.263125 231.406432 
L 191.263125 231.797224 
L 194.306761 231.725535 
L 194.306761 231.921392 
L 198.872216 231.847368 
L 198.872216 232.089148 
L 200.394034 232.089148 
L 200.394034 232.507507 
L 201.915852 232.507507 
L 201.915852 231.996785 
L 206.481307 231.963124 
L 206.481307 232.36045 
L 208.003125 232.36045 
L 208.003125 232.554772 
L 209.524943 232.554772 
L 209.524943 232.182782 
L 211.046761 232.182782 
L 211.046761 233.154585 
L 214.090398 233.059489 
L 214.090398 232.478098 
L 215.612216 232.478098 
L 215.612216 232.341011 
L 217.134034 232.341011 
L 217.134034 232.754593 
L 220.17767 232.712081 
L 220.17767 232.92737 
L 221.699489 232.92737 
L 221.699489 232.078024 
L 224.743125 232.066848 
L 224.743125 232.209367 
L 227.786761 232.12749 
L 227.786761 232.348614 
L 230.830398 232.273274 
L 230.830398 232.103781 
L 232.352216 232.103781 
L 232.352216 231.957539 
L 233.874034 231.957539 
L 233.874034 232.145311 
L 236.91767 232.182335 
L 236.91767 232.46216 
L 238.439489 232.46216 
L 238.439489 232.284151 
L 241.483125 232.321339 
L 241.483125 232.408298 
L 244.526761 232.34824 
L 244.526761 231.780188 
L 247.570398 231.807139 
L 247.570398 232.092159 
L 249.092216 232.092159 
L 249.092216 231.909214 
L 253.65767 231.875616 
L 253.65767 232.283474 
L 255.179489 232.283474 
L 255.179489 232.032917 
L 256.701307 232.032917 
L 256.701307 231.684223 
L 258.223125 231.684223 
L 258.223125 231.874807 
L 261.266761 231.901163 
L 261.266761 232.018433 
L 262.78858 232.018433 
L 262.78858 231.566056 
L 264.310398 231.566056 
L 264.310398 231.819822 
L 265.832216 231.819822 
L 265.832216 231.696078 
L 267.354034 231.696078 
L 267.354034 231.924638 
L 268.875852 231.924638 
L 268.875852 231.576921 
L 273.441307 231.498838 
L 273.441307 231.824116 
L 274.963125 231.824116 
L 274.963125 231.454896 
L 281.050398 231.483615 
L 281.050398 231.313041 
L 282.572216 231.313041 
L 282.572216 231.12433 
L 285.615852 231.229999 
L 285.615852 231.274487 
L 287.13767 231.274487 
L 287.13767 230.949434 
L 288.659489 230.949434 
L 288.659489 231.087373 
L 291.703125 231.153872 
L 291.703125 231.241842 
L 293.224943 231.241842 
L 293.224943 230.920474 
L 296.26858 230.911591 
L 296.26858 230.645336 
L 299.312216 230.691392 
L 299.312216 230.992553 
L 302.355852 230.932113 
L 302.355852 230.87304 
L 305.399489 230.972838 
L 305.399489 230.58609 
L 306.921307 230.58609 
L 306.921307 230.882714 
L 308.443125 230.882714 
L 308.443125 230.640308 
L 309.964943 230.640308 
L 309.964943 230.007134 
L 311.486761 230.007134 
L 311.486761 228.915712 
L 313.00858 228.915712 
L 313.00858 220.112986 
L 314.530398 220.112986 
L 314.530398 171.049015 
L 316.052216 171.049015 
L 316.052216 57.991016 
L 317.574034 57.991016 
L 317.574034 32.997551 
L 319.095852 32.997551 
L 319.095852 149.275869 
L 320.61767 149.275869 
L 320.61767 215.935726 
L 322.139489 215.935726 
L 322.139489 228.348758 
L 323.661307 228.348758 
L 323.661307 230.069223 
L 325.183125 230.069223 
L 325.183125 230.753837 
L 326.704943 230.753837 
L 326.704943 231.08996 
L 328.226761 231.08996 
L 328.226761 231.834727 
L 329.74858 231.834727 
L 329.74858 232.096205 
L 331.270398 232.096205 
L 331.270398 231.078167 
L 335.835852 230.993347 
L 335.835852 230.248775 
L 337.35767 230.248775 
L 337.35767 227.615764 
L 338.879489 227.615764 
L 338.879489 226.885484 
L 340.401307 226.885484 
L 340.401307 228.054749 
L 341.923125 228.054749 
L 341.923125 229.330575 
L 343.444943 229.330575 
L 343.444943 230.393246 
L 344.966761 230.393246 
L 344.966761 230.705156 
L 346.48858 230.705156 
L 346.48858 230.904139 
L 349.532216 230.889838 
L 349.532216 231.174734 
L 352.575852 231.269555 
L 352.575852 231.368019 
L 354.09767 231.368019 
L 354.09767 231.155027 
L 360.184943 231.06945 
L 360.184943 231.06945 
" clip-path="url(#pef7aa22f56)" style="fill: none; stroke: #1f77b4; stroke-width: 1.5; stroke-linecap: square"/>
   </g>
   <g id="LineCollection_1">
    <path d="M 56.582216 232.016346 
L 56.582216 231.46553 
" clip-path="url(#pef7aa22f56)" style="fill: none; stroke: #1f77b4; stroke-width: 1.5"/>
    <path d="M 58.104034 232.748787 
L 58.104034 231.638363 
" clip-path="url(#pef7aa22f56)" style="fill: none; stroke: #1f77b4; stroke-width: 1.5"/>
    <path d="M 59.625852 232.449863 
L 59.625852 232.023828 
" clip-path="url(#pef7aa22f56)" style="fill: none; stroke: #1f77b4; stroke-width: 1.5"/>
    <path d="M 61.14767 233.015002 
L 61.14767 232.491448 
" clip-path="url(#pef7aa22f56)" style="fill: none; stroke: #1f77b4; stroke-width: 1.5"/>
    <path d="M 62.669489 232.2978 
L 62.669489 231.904483 
" clip-path="url(#pef7aa22f56)" style="fill: none; stroke: #1f77b4; stroke-width: 1.5"/>
    <path d="M 64.191307 232.708413 
L 64.191307 232.289368 
" clip-path="url(#pef7aa22f56)" style="fill: none; stroke: #1f77b4; stroke-width: 1.5"/>
    <path d="M 65.713125 233.014599 
L 65.713125 232.361364 
" clip-path="url(#pef7aa22f56)" style="fill: none; stroke: #1f77b4; stroke-width: 1.5"/>
    <path d="M 67.234943 232.99873 
L 67.234943 232.421657 
" clip-path="url(#pef7aa22f56)" style="fill: none; stroke: #1f77b4; stroke-width: 1.5"/>
    <path d="M 68.756761 232.655734 
L 68.756761 232.059759 
" clip-path="url(#pef7aa22f56)" style="fill: none; stroke: #1f77b4; stroke-width: 1.5"/>
    <path d="M 70.27858 232.846358 
L 70.27858 232.231641 
" clip-path="url(#pef7aa22f56)" style="fill: none; stroke: #1f77b4; stroke-width: 1.5"/>
    <path d="M 71.800398 232.410852 
L 71.800398 231.875843 
" clip-path="url(#pef7aa22f56)" style="fill: none; stroke: #1f77b4; stroke-width: 1.5"/>
    <path d="M 73.322216 233.445602 
L 73.322216 232.520103 
" clip-path="url(#pef7aa22f56)" style="fill: none; stroke: #1f77b4; stroke-width: 1.5"/>
    <path d="M 74.844034 232.153206 
L 74.844034 231.550439 
" clip-path="url(#pef7aa22f56)" style="fill: none; stroke: #1f77b4; stroke-width: 1.5"/>
    <path d="M 76.365852 233.095045 
L 76.365852 232.176482 
" clip-path="url(#pef7aa22f56)" style="fill: none; stroke: #1f77b4; stroke-width: 1.5"/>
    <path d="M 77.88767 232.866729 
L 77.88767 232.343903 
" clip-path="url(#pef7aa22f56)" style="fill: none; stroke: #1f77b4; stroke-width: 1.5"/>
    <path d="M 79.409489 232.126685 
L 79.409489 231.418975 
" clip-path="url(#pef7aa22f56)" style="fill: none; stroke: #1f77b4; stroke-width: 1.5"/>
    <path d="M 80.931307 233.998125 
L 80.931307 232.703303 
" clip-path="url(#pef7aa22f56)" style="fill: none; stroke: #1f77b4; stroke-width: 1.5"/>
    <path d="M 82.453125 233.004514 
L 82.453125 232.107309 
" clip-path="url(#pef7aa22f56)" style="fill: none; stroke: #1f77b4; stroke-width: 1.5"/>
    <path d="M 83.974943 232.448376 
L 83.974943 231.542128 
" clip-path="url(#pef7aa22f56)" style="fill: none; stroke: #1f77b4; stroke-width: 1.5"/>
    <path d="M 85.496761 232.061183 
L 85.496761 229.807869 
" clip-path="url(#pef7aa22f56)" style="fill: none; stroke: #1f77b4; stroke-width: 1.5"/>
    <path d="M 87.01858 224.262841 
L 87.01858 221.482586 
" clip-path="url(#pef7aa22f56)" style="fill: none; stroke: #1f77b4; stroke-width: 1.5"/>
    <path d="M 88.540398 226.142649 
L 88.540398 224.095671 
" clip-path="url(#pef7aa22f56)" style="fill: none; stroke: #1f77b4; stroke-width: 1.5"/>
    <path d="M 90.062216 226.642626 
L 90.062216 224.859706 
" clip-path="url(#pef7aa22f56)" style="fill: none; stroke: #1f77b4; stroke-width: 1.5"/>
    <path d="M 91.584034 213.735301 
L 91.584034 209.142309 
" clip-path="url(#pef7aa22f56)" style="fill: none; stroke: #1f77b4; stroke-width: 1.5"/>
    <path d="M 93.105852 210.639732 
L 93.105852 203.92158 
" clip-path="url(#pef7aa22f56)" style="fill: none; stroke: #1f77b4; stroke-width: 1.5"/>
    <path d="M 94.62767 227.926018 
L 94.62767 225.342479 
" clip-path="url(#pef7aa22f56)" style="fill: none; stroke: #1f77b4; stroke-width: 1.5"/>
    <path d="M 96.149489 232.273177 
L 96.149489 231.4345 
" clip-path="url(#pef7aa22f56)" style="fill: none; stroke: #1f77b4; stroke-width: 1.5"/>
    <path d="M 97.671307 231.27208 
L 97.671307 229.973442 
" clip-path="url(#pef7aa22f56)" style="fill: none; stroke: #1f77b4; stroke-width: 1.5"/>
    <path d="M 99.193125 230.166675 
L 99.193125 227.675168 
" clip-path="url(#pef7aa22f56)" style="fill: none; stroke: #1f77b4; stroke-width: 1.5"/>
    <path d="M 100.714943 221.862822 
L 100.714943 218.792881 
" clip-path="url(#pef7aa22f56)" style="fill: none; stroke: #1f77b4; stroke-width: 1.5"/>
    <path d="M 102.236761 223.888783 
L 102.236761 220.687557 
" clip-path="url(#pef7aa22f56)" style="fill: none; stroke: #1f77b4; stroke-width: 1.5"/>
    <path d="M 103.75858 224.270479 
L 103.75858 221.193219 
" clip-path="url(#pef7aa22f56)" style="fill: none; stroke: #1f77b4; stroke-width: 1.5"/>
    <path d="M 105.280398 222.583525 
L 105.280398 219.748808 
" clip-path="url(#pef7aa22f56)" style="fill: none; stroke: #1f77b4; stroke-width: 1.5"/>
    <path d="M 106.802216 223.340501 
L 106.802216 219.579266 
" clip-path="url(#pef7aa22f56)" style="fill: none; stroke: #1f77b4; stroke-width: 1.5"/>
    <path d="M 108.324034 230.218655 
L 108.324034 229.144348 
" clip-path="url(#pef7aa22f56)" style="fill: none; stroke: #1f77b4; stroke-width: 1.5"/>
    <path d="M 109.845852 231.308049 
L 109.845852 229.472767 
" clip-path="url(#pef7aa22f56)" style="fill: none; stroke: #1f77b4; stroke-width: 1.5"/>
    <path d="M 111.36767 226.564137 
L 111.36767 223.788998 
" clip-path="url(#pef7aa22f56)" style="fill: none; stroke: #1f77b4; stroke-width: 1.5"/>
    <path d="M 112.889489 208.035802 
L 112.889489 202.777791 
" clip-path="url(#pef7aa22f56)" style="fill: none; stroke: #1f77b4; stroke-width: 1.5"/>
    <path d="M 114.411307 217.512598 
L 114.411307 214.607874 
" clip-path="url(#pef7aa22f56)" style="fill: none; stroke: #1f77b4; stroke-width: 1.5"/>
    <path d="M 115.933125 222.117132 
L 115.933125 218.914859 
" clip-path="url(#pef7aa22f56)" style="fill: none; stroke: #1f77b4; stroke-width: 1.5"/>
    <path d="M 117.454943 228.910032 
L 117.454943 227.349879 
" clip-path="url(#pef7aa22f56)" style="fill: none; stroke: #1f77b4; stroke-width: 1.5"/>
    <path d="M 118.976761 233.597513 
L 118.976761 230.73715 
" clip-path="url(#pef7aa22f56)" style="fill: none; stroke: #1f77b4; stroke-width: 1.5"/>
    <path d="M 120.49858 231.981164 
L 120.49858 231.374172 
" clip-path="url(#pef7aa22f56)" style="fill: none; stroke: #1f77b4; stroke-width: 1.5"/>
    <path d="M 122.020398 232.523229 
L 122.020398 231.542239 
" clip-path="url(#pef7aa22f56)" style="fill: none; stroke: #1f77b4; stroke-width: 1.5"/>
    <path d="M 123.542216 231.464617 
L 123.542216 230.927319 
" clip-path="url(#pef7aa22f56)" style="fill: none; stroke: #1f77b4; stroke-width: 1.5"/>
    <path d="M 125.064034 231.782004 
L 125.064034 231.169087 
" clip-path="url(#pef7aa22f56)" style="fill: none; stroke: #1f77b4; stroke-width: 1.5"/>
    <path d="M 126.585852 232.096638 
L 126.585852 231.666966 
" clip-path="url(#pef7aa22f56)" style="fill: none; stroke: #1f77b4; stroke-width: 1.5"/>
    <path d="M 128.10767 231.448821 
L 128.10767 230.825754 
" clip-path="url(#pef7aa22f56)" style="fill: none; stroke: #1f77b4; stroke-width: 1.5"/>
    <path d="M 129.629489 230.8253 
L 129.629489 230.36203 
" clip-path="url(#pef7aa22f56)" style="fill: none; stroke: #1f77b4; stroke-width: 1.5"/>
    <path d="M 131.151307 224.364404 
L 131.151307 223.655542 
" clip-path="url(#pef7aa22f56)" style="fill: none; stroke: #1f77b4; stroke-width: 1.5"/>
    <path d="M 132.673125 213.791203 
L 132.673125 212.882072 
" clip-path="url(#pef7aa22f56)" style="fill: none; stroke: #1f77b4; stroke-width: 1.5"/>
    <path d="M 134.194943 216.578347 
L 134.194943 215.800663 
" clip-path="url(#pef7aa22f56)" style="fill: none; stroke: #1f77b4; stroke-width: 1.5"/>
    <path d="M 135.716761 226.534441 
L 135.716761 226.025913 
" clip-path="url(#pef7aa22f56)" style="fill: none; stroke: #1f77b4; stroke-width: 1.5"/>
    <path d="M 137.23858 229.778532 
L 137.23858 229.397925 
" clip-path="url(#pef7aa22f56)" style="fill: none; stroke: #1f77b4; stroke-width: 1.5"/>
    <path d="M 138.760398 230.496494 
L 138.760398 230.185535 
" clip-path="url(#pef7aa22f56)" style="fill: none; stroke: #1f77b4; stroke-width: 1.5"/>
    <path d="M 140.282216 230.614671 
L 140.282216 230.332029 
" clip-path="url(#pef7aa22f56)" style="fill: none; stroke: #1f77b4; stroke-width: 1.5"/>
    <path d="M 141.804034 225.622648 
L 141.804034 225.257584 
" clip-path="url(#pef7aa22f56)" style="fill: none; stroke: #1f77b4; stroke-width: 1.5"/>
    <path d="M 143.325852 212.270428 
L 143.325852 211.773003 
" clip-path="url(#pef7aa22f56)" style="fill: none; stroke: #1f77b4; stroke-width: 1.5"/>
    <path d="M 144.84767 212.564404 
L 144.84767 212.097194 
" clip-path="url(#pef7aa22f56)" style="fill: none; stroke: #1f77b4; stroke-width: 1.5"/>
    <path d="M 146.369489 225.764753 
L 146.369489 225.456738 
" clip-path="url(#pef7aa22f56)" style="fill: none; stroke: #1f77b4; stroke-width: 1.5"/>
    <path d="M 147.891307 230.159686 
L 147.891307 229.931998 
" clip-path="url(#pef7aa22f56)" style="fill: none; stroke: #1f77b4; stroke-width: 1.5"/>
    <path d="M 149.413125 230.915997 
L 149.413125 230.719309 
" clip-path="url(#pef7aa22f56)" style="fill: none; stroke: #1f77b4; stroke-width: 1.5"/>
    <path d="M 150.934943 231.01635 
L 150.934943 230.82572 
" clip-path="url(#pef7aa22f56)" style="fill: none; stroke: #1f77b4; stroke-width: 1.5"/>
    <path d="M 152.456761 231.252476 
L 152.456761 231.080655 
" clip-path="url(#pef7aa22f56)" style="fill: none; stroke: #1f77b4; stroke-width: 1.5"/>
    <path d="M 153.97858 231.115523 
L 153.97858 230.944451 
" clip-path="url(#pef7aa22f56)" style="fill: none; stroke: #1f77b4; stroke-width: 1.5"/>
    <path d="M 155.500398 231.008586 
L 155.500398 230.837228 
" clip-path="url(#pef7aa22f56)" style="fill: none; stroke: #1f77b4; stroke-width: 1.5"/>
    <path d="M 157.022216 231.025904 
L 157.022216 230.836933 
" clip-path="url(#pef7aa22f56)" style="fill: none; stroke: #1f77b4; stroke-width: 1.5"/>
    <path d="M 158.544034 231.039819 
L 158.544034 230.868584 
" clip-path="url(#pef7aa22f56)" style="fill: none; stroke: #1f77b4; stroke-width: 1.5"/>
    <path d="M 160.065852 230.937945 
L 160.065852 230.762562 
" clip-path="url(#pef7aa22f56)" style="fill: none; stroke: #1f77b4; stroke-width: 1.5"/>
    <path d="M 161.58767 228.289949 
L 161.58767 228.064082 
" clip-path="url(#pef7aa22f56)" style="fill: none; stroke: #1f77b4; stroke-width: 1.5"/>
    <path d="M 163.109489 211.686326 
L 163.109489 211.276977 
" clip-path="url(#pef7aa22f56)" style="fill: none; stroke: #1f77b4; stroke-width: 1.5"/>
    <path d="M 164.631307 198.745165 
L 164.631307 198.234889 
" clip-path="url(#pef7aa22f56)" style="fill: none; stroke: #1f77b4; stroke-width: 1.5"/>
    <path d="M 166.153125 213.944339 
L 166.153125 213.563806 
" clip-path="url(#pef7aa22f56)" style="fill: none; stroke: #1f77b4; stroke-width: 1.5"/>
    <path d="M 167.674943 227.931586 
L 167.674943 227.709466 
" clip-path="url(#pef7aa22f56)" style="fill: none; stroke: #1f77b4; stroke-width: 1.5"/>
    <path d="M 169.196761 222.080788 
L 169.196761 221.792784 
" clip-path="url(#pef7aa22f56)" style="fill: none; stroke: #1f77b4; stroke-width: 1.5"/>
    <path d="M 170.71858 199.055713 
L 170.71858 198.562485 
" clip-path="url(#pef7aa22f56)" style="fill: none; stroke: #1f77b4; stroke-width: 1.5"/>
    <path d="M 172.240398 200.939563 
L 172.240398 200.455025 
" clip-path="url(#pef7aa22f56)" style="fill: none; stroke: #1f77b4; stroke-width: 1.5"/>
    <path d="M 173.762216 223.845068 
L 173.762216 223.573429 
" clip-path="url(#pef7aa22f56)" style="fill: none; stroke: #1f77b4; stroke-width: 1.5"/>
    <path d="M 175.284034 230.481259 
L 175.284034 230.309772 
" clip-path="url(#pef7aa22f56)" style="fill: none; stroke: #1f77b4; stroke-width: 1.5"/>
    <path d="M 176.805852 231.266606 
L 176.805852 231.106298 
" clip-path="url(#pef7aa22f56)" style="fill: none; stroke: #1f77b4; stroke-width: 1.5"/>
    <path d="M 178.32767 231.005588 
L 178.32767 230.836719 
" clip-path="url(#pef7aa22f56)" style="fill: none; stroke: #1f77b4; stroke-width: 1.5"/>
    <path d="M 179.849489 230.952832 
L 179.849489 230.786952 
" clip-path="url(#pef7aa22f56)" style="fill: none; stroke: #1f77b4; stroke-width: 1.5"/>
    <path d="M 181.371307 231.379227 
L 181.371307 231.221884 
" clip-path="url(#pef7aa22f56)" style="fill: none; stroke: #1f77b4; stroke-width: 1.5"/>
    <path d="M 182.893125 231.357108 
L 182.893125 231.202438 
" clip-path="url(#pef7aa22f56)" style="fill: none; stroke: #1f77b4; stroke-width: 1.5"/>
    <path d="M 184.414943 231.444295 
L 184.414943 231.291444 
" clip-path="url(#pef7aa22f56)" style="fill: none; stroke: #1f77b4; stroke-width: 1.5"/>
    <path d="M 185.936761 230.329882 
L 185.936761 230.152776 
" clip-path="url(#pef7aa22f56)" style="fill: none; stroke: #1f77b4; stroke-width: 1.5"/>
    <path d="M 187.45858 231.220737 
L 187.45858 231.054732 
" clip-path="url(#pef7aa22f56)" style="fill: none; stroke: #1f77b4; stroke-width: 1.5"/>
    <path d="M 188.980398 231.502922 
L 188.980398 231.348572 
" clip-path="url(#pef7aa22f56)" style="fill: none; stroke: #1f77b4; stroke-width: 1.5"/>
    <path d="M 190.502216 231.480534 
L 190.502216 231.33233 
" clip-path="url(#pef7aa22f56)" style="fill: none; stroke: #1f77b4; stroke-width: 1.5"/>
    <path d="M 192.024034 231.871373 
L 192.024034 231.723075 
" clip-path="url(#pef7aa22f56)" style="fill: none; stroke: #1f77b4; stroke-width: 1.5"/>
    <path d="M 193.545852 231.799554 
L 193.545852 231.651515 
" clip-path="url(#pef7aa22f56)" style="fill: none; stroke: #1f77b4; stroke-width: 1.5"/>
    <path d="M 195.06767 231.991545 
L 195.06767 231.851238 
" clip-path="url(#pef7aa22f56)" style="fill: none; stroke: #1f77b4; stroke-width: 1.5"/>
    <path d="M 196.589489 231.970247 
L 196.589489 231.829449 
" clip-path="url(#pef7aa22f56)" style="fill: none; stroke: #1f77b4; stroke-width: 1.5"/>
    <path d="M 198.111307 231.918035 
L 198.111307 231.776702 
" clip-path="url(#pef7aa22f56)" style="fill: none; stroke: #1f77b4; stroke-width: 1.5"/>
    <path d="M 199.633125 232.285639 
L 199.633125 231.892656 
" clip-path="url(#pef7aa22f56)" style="fill: none; stroke: #1f77b4; stroke-width: 1.5"/>
    <path d="M 201.154943 232.734383 
L 201.154943 232.280631 
" clip-path="url(#pef7aa22f56)" style="fill: none; stroke: #1f77b4; stroke-width: 1.5"/>
    <path d="M 202.676761 232.08385 
L 202.676761 231.90972 
" clip-path="url(#pef7aa22f56)" style="fill: none; stroke: #1f77b4; stroke-width: 1.5"/>
    <path d="M 204.19858 232.153288 
L 204.19858 231.919954 
" clip-path="url(#pef7aa22f56)" style="fill: none; stroke: #1f77b4; stroke-width: 1.5"/>
    <path d="M 205.720398 232.177485 
L 205.720398 231.748763 
" clip-path="url(#pef7aa22f56)" style="fill: none; stroke: #1f77b4; stroke-width: 1.5"/>
    <path d="M 207.242216 232.585192 
L 207.242216 232.135709 
" clip-path="url(#pef7aa22f56)" style="fill: none; stroke: #1f77b4; stroke-width: 1.5"/>
    <path d="M 208.764034 232.753711 
L 208.764034 232.355834 
" clip-path="url(#pef7aa22f56)" style="fill: none; stroke: #1f77b4; stroke-width: 1.5"/>
    <path d="M 210.285852 232.266022 
L 210.285852 232.099542 
" clip-path="url(#pef7aa22f56)" style="fill: none; stroke: #1f77b4; stroke-width: 1.5"/>
    <path d="M 211.80767 233.461151 
L 211.80767 232.848018 
" clip-path="url(#pef7aa22f56)" style="fill: none; stroke: #1f77b4; stroke-width: 1.5"/>
    <path d="M 213.329489 233.330534 
L 213.329489 232.788444 
" clip-path="url(#pef7aa22f56)" style="fill: none; stroke: #1f77b4; stroke-width: 1.5"/>
    <path d="M 214.851307 232.776814 
L 214.851307 232.179381 
" clip-path="url(#pef7aa22f56)" style="fill: none; stroke: #1f77b4; stroke-width: 1.5"/>
    <path d="M 216.373125 232.532091 
L 216.373125 232.149932 
" clip-path="url(#pef7aa22f56)" style="fill: none; stroke: #1f77b4; stroke-width: 1.5"/>
    <path d="M 217.894943 232.987079 
L 217.894943 232.522107 
" clip-path="url(#pef7aa22f56)" style="fill: none; stroke: #1f77b4; stroke-width: 1.5"/>
    <path d="M 219.416761 232.983699 
L 219.416761 232.440463 
" clip-path="url(#pef7aa22f56)" style="fill: none; stroke: #1f77b4; stroke-width: 1.5"/>
    <path d="M 220.93858 233.215237 
L 220.93858 232.639503 
" clip-path="url(#pef7aa22f56)" style="fill: none; stroke: #1f77b4; stroke-width: 1.5"/>
    <path d="M 222.460398 232.200762 
L 222.460398 231.955286 
" clip-path="url(#pef7aa22f56)" style="fill: none; stroke: #1f77b4; stroke-width: 1.5"/>
    <path d="M 223.982216 232.172906 
L 223.982216 231.960791 
" clip-path="url(#pef7aa22f56)" style="fill: none; stroke: #1f77b4; stroke-width: 1.5"/>
    <path d="M 225.504034 232.478218 
L 225.504034 231.940516 
" clip-path="url(#pef7aa22f56)" style="fill: none; stroke: #1f77b4; stroke-width: 1.5"/>
    <path d="M 227.025852 232.243691 
L 227.025852 232.011289 
" clip-path="url(#pef7aa22f56)" style="fill: none; stroke: #1f77b4; stroke-width: 1.5"/>
    <path d="M 228.54767 232.571833 
L 228.54767 232.125396 
" clip-path="url(#pef7aa22f56)" style="fill: none; stroke: #1f77b4; stroke-width: 1.5"/>
    <path d="M 230.069489 232.328653 
L 230.069489 232.217894 
" clip-path="url(#pef7aa22f56)" style="fill: none; stroke: #1f77b4; stroke-width: 1.5"/>
    <path d="M 231.591307 232.328106 
L 231.591307 231.879456 
" clip-path="url(#pef7aa22f56)" style="fill: none; stroke: #1f77b4; stroke-width: 1.5"/>
    <path d="M 233.113125 232.136582 
L 233.113125 231.778496 
" clip-path="url(#pef7aa22f56)" style="fill: none; stroke: #1f77b4; stroke-width: 1.5"/>
    <path d="M 234.634943 232.247582 
L 234.634943 232.04304 
" clip-path="url(#pef7aa22f56)" style="fill: none; stroke: #1f77b4; stroke-width: 1.5"/>
    <path d="M 236.156761 232.345532 
L 236.156761 232.019139 
" clip-path="url(#pef7aa22f56)" style="fill: none; stroke: #1f77b4; stroke-width: 1.5"/>
    <path d="M 237.67858 232.572802 
L 237.67858 232.351518 
" clip-path="url(#pef7aa22f56)" style="fill: none; stroke: #1f77b4; stroke-width: 1.5"/>
    <path d="M 239.200398 232.399247 
L 239.200398 232.169056 
" clip-path="url(#pef7aa22f56)" style="fill: none; stroke: #1f77b4; stroke-width: 1.5"/>
    <path d="M 240.722216 232.507 
L 240.722216 232.135678 
" clip-path="url(#pef7aa22f56)" style="fill: none; stroke: #1f77b4; stroke-width: 1.5"/>
    <path d="M 242.244034 232.618389 
L 242.244034 232.198208 
" clip-path="url(#pef7aa22f56)" style="fill: none; stroke: #1f77b4; stroke-width: 1.5"/>
    <path d="M 243.765852 232.527759 
L 243.765852 232.168721 
" clip-path="url(#pef7aa22f56)" style="fill: none; stroke: #1f77b4; stroke-width: 1.5"/>
    <path d="M 245.28767 231.907149 
L 245.28767 231.653227 
" clip-path="url(#pef7aa22f56)" style="fill: none; stroke: #1f77b4; stroke-width: 1.5"/>
    <path d="M 246.809489 231.935236 
L 246.809489 231.679043 
" clip-path="url(#pef7aa22f56)" style="fill: none; stroke: #1f77b4; stroke-width: 1.5"/>
    <path d="M 248.331307 232.216268 
L 248.331307 231.968049 
" clip-path="url(#pef7aa22f56)" style="fill: none; stroke: #1f77b4; stroke-width: 1.5"/>
    <path d="M 249.853125 231.963319 
L 249.853125 231.855108 
" clip-path="url(#pef7aa22f56)" style="fill: none; stroke: #1f77b4; stroke-width: 1.5"/>
    <path d="M 251.374943 231.994836 
L 251.374943 231.873066 
" clip-path="url(#pef7aa22f56)" style="fill: none; stroke: #1f77b4; stroke-width: 1.5"/>
    <path d="M 252.896761 231.977013 
L 252.896761 231.774219 
" clip-path="url(#pef7aa22f56)" style="fill: none; stroke: #1f77b4; stroke-width: 1.5"/>
    <path d="M 254.41858 232.484693 
L 254.41858 232.082254 
" clip-path="url(#pef7aa22f56)" style="fill: none; stroke: #1f77b4; stroke-width: 1.5"/>
    <path d="M 255.940398 232.207007 
L 255.940398 231.858826 
" clip-path="url(#pef7aa22f56)" style="fill: none; stroke: #1f77b4; stroke-width: 1.5"/>
    <path d="M 257.462216 231.82217 
L 257.462216 231.546276 
" clip-path="url(#pef7aa22f56)" style="fill: none; stroke: #1f77b4; stroke-width: 1.5"/>
    <path d="M 258.984034 231.981468 
L 258.984034 231.768145 
" clip-path="url(#pef7aa22f56)" style="fill: none; stroke: #1f77b4; stroke-width: 1.5"/>
    <path d="M 260.505852 232.025275 
L 260.505852 231.777052 
" clip-path="url(#pef7aa22f56)" style="fill: none; stroke: #1f77b4; stroke-width: 1.5"/>
    <path d="M 262.02767 232.137166 
L 262.02767 231.899701 
" clip-path="url(#pef7aa22f56)" style="fill: none; stroke: #1f77b4; stroke-width: 1.5"/>
    <path d="M 263.549489 231.673931 
L 263.549489 231.458181 
" clip-path="url(#pef7aa22f56)" style="fill: none; stroke: #1f77b4; stroke-width: 1.5"/>
    <path d="M 265.071307 231.966777 
L 265.071307 231.672867 
" clip-path="url(#pef7aa22f56)" style="fill: none; stroke: #1f77b4; stroke-width: 1.5"/>
    <path d="M 266.593125 231.763965 
L 266.593125 231.628192 
" clip-path="url(#pef7aa22f56)" style="fill: none; stroke: #1f77b4; stroke-width: 1.5"/>
    <path d="M 268.114943 232.120394 
L 268.114943 231.728883 
" clip-path="url(#pef7aa22f56)" style="fill: none; stroke: #1f77b4; stroke-width: 1.5"/>
    <path d="M 269.636761 231.631205 
L 269.636761 231.522637 
" clip-path="url(#pef7aa22f56)" style="fill: none; stroke: #1f77b4; stroke-width: 1.5"/>
    <path d="M 271.15858 231.623247 
L 271.15858 231.496474 
" clip-path="url(#pef7aa22f56)" style="fill: none; stroke: #1f77b4; stroke-width: 1.5"/>
    <path d="M 272.680398 231.615667 
L 272.680398 231.38201 
" clip-path="url(#pef7aa22f56)" style="fill: none; stroke: #1f77b4; stroke-width: 1.5"/>
    <path d="M 274.202216 231.978272 
L 274.202216 231.669959 
" clip-path="url(#pef7aa22f56)" style="fill: none; stroke: #1f77b4; stroke-width: 1.5"/>
    <path d="M 275.724034 231.510289 
L 275.724034 231.399504 
" clip-path="url(#pef7aa22f56)" style="fill: none; stroke: #1f77b4; stroke-width: 1.5"/>
    <path d="M 277.245852 231.518013 
L 277.245852 231.415085 
" clip-path="url(#pef7aa22f56)" style="fill: none; stroke: #1f77b4; stroke-width: 1.5"/>
    <path d="M 278.76767 231.546944 
L 278.76767 231.338313 
" clip-path="url(#pef7aa22f56)" style="fill: none; stroke: #1f77b4; stroke-width: 1.5"/>
    <path d="M 280.289489 231.545927 
L 280.289489 231.421303 
" clip-path="url(#pef7aa22f56)" style="fill: none; stroke: #1f77b4; stroke-width: 1.5"/>
    <path d="M 281.811307 231.373498 
L 281.811307 231.252584 
" clip-path="url(#pef7aa22f56)" style="fill: none; stroke: #1f77b4; stroke-width: 1.5"/>
    <path d="M 283.333125 231.183783 
L 283.333125 231.064876 
" clip-path="url(#pef7aa22f56)" style="fill: none; stroke: #1f77b4; stroke-width: 1.5"/>
    <path d="M 284.854943 231.378367 
L 284.854943 231.081631 
" clip-path="url(#pef7aa22f56)" style="fill: none; stroke: #1f77b4; stroke-width: 1.5"/>
    <path d="M 286.376761 231.412492 
L 286.376761 231.136481 
" clip-path="url(#pef7aa22f56)" style="fill: none; stroke: #1f77b4; stroke-width: 1.5"/>
    <path d="M 287.89858 231.069207 
L 287.89858 230.829661 
" clip-path="url(#pef7aa22f56)" style="fill: none; stroke: #1f77b4; stroke-width: 1.5"/>
    <path d="M 289.420398 231.221298 
L 289.420398 230.953448 
" clip-path="url(#pef7aa22f56)" style="fill: none; stroke: #1f77b4; stroke-width: 1.5"/>
    <path d="M 290.942216 231.259106 
L 290.942216 231.048638 
" clip-path="url(#pef7aa22f56)" style="fill: none; stroke: #1f77b4; stroke-width: 1.5"/>
    <path d="M 292.464034 231.45423 
L 292.464034 231.029454 
" clip-path="url(#pef7aa22f56)" style="fill: none; stroke: #1f77b4; stroke-width: 1.5"/>
    <path d="M 293.985852 230.987275 
L 293.985852 230.853672 
" clip-path="url(#pef7aa22f56)" style="fill: none; stroke: #1f77b4; stroke-width: 1.5"/>
    <path d="M 295.50767 230.973504 
L 295.50767 230.849677 
" clip-path="url(#pef7aa22f56)" style="fill: none; stroke: #1f77b4; stroke-width: 1.5"/>
    <path d="M 297.029489 230.715259 
L 297.029489 230.575413 
" clip-path="url(#pef7aa22f56)" style="fill: none; stroke: #1f77b4; stroke-width: 1.5"/>
    <path d="M 298.551307 230.760502 
L 298.551307 230.622282 
" clip-path="url(#pef7aa22f56)" style="fill: none; stroke: #1f77b4; stroke-width: 1.5"/>
    <path d="M 300.073125 231.12701 
L 300.073125 230.858096 
" clip-path="url(#pef7aa22f56)" style="fill: none; stroke: #1f77b4; stroke-width: 1.5"/>
    <path d="M 301.594943 231.073112 
L 301.594943 230.791113 
" clip-path="url(#pef7aa22f56)" style="fill: none; stroke: #1f77b4; stroke-width: 1.5"/>
    <path d="M 303.116761 230.979651 
L 303.116761 230.76643 
" clip-path="url(#pef7aa22f56)" style="fill: none; stroke: #1f77b4; stroke-width: 1.5"/>
    <path d="M 304.63858 231.127988 
L 304.63858 230.817688 
" clip-path="url(#pef7aa22f56)" style="fill: none; stroke: #1f77b4; stroke-width: 1.5"/>
    <path d="M 306.160398 230.736401 
L 306.160398 230.435778 
" clip-path="url(#pef7aa22f56)" style="fill: none; stroke: #1f77b4; stroke-width: 1.5"/>
    <path d="M 307.682216 231.05325 
L 307.682216 230.712178 
" clip-path="url(#pef7aa22f56)" style="fill: none; stroke: #1f77b4; stroke-width: 1.5"/>
    <path d="M 309.204034 230.701443 
L 309.204034 230.579172 
" clip-path="url(#pef7aa22f56)" style="fill: none; stroke: #1f77b4; stroke-width: 1.5"/>
    <path d="M 310.725852 230.135253 
L 310.725852 229.879015 
" clip-path="url(#pef7aa22f56)" style="fill: none; stroke: #1f77b4; stroke-width: 1.5"/>
    <path d="M 312.24767 229.055144 
L 312.24767 228.776279 
" clip-path="url(#pef7aa22f56)" style="fill: none; stroke: #1f77b4; stroke-width: 1.5"/>
    <path d="M 313.769489 220.544194 
L 313.769489 219.681778 
" clip-path="url(#pef7aa22f56)" style="fill: none; stroke: #1f77b4; stroke-width: 1.5"/>
    <path d="M 315.291307 171.715956 
L 315.291307 170.382073 
" clip-path="url(#pef7aa22f56)" style="fill: none; stroke: #1f77b4; stroke-width: 1.5"/>
    <path d="M 316.813125 58.687078 
L 316.813125 57.294955 
" clip-path="url(#pef7aa22f56)" style="fill: none; stroke: #1f77b4; stroke-width: 1.5"/>
    <path d="M 318.334943 33.596977 
L 318.334943 32.398125 
" clip-path="url(#pef7aa22f56)" style="fill: none; stroke: #1f77b4; stroke-width: 1.5"/>
    <path d="M 319.856761 149.646338 
L 319.856761 148.905399 
" clip-path="url(#pef7aa22f56)" style="fill: none; stroke: #1f77b4; stroke-width: 1.5"/>
    <path d="M 321.37858 216.089233 
L 321.37858 215.782219 
" clip-path="url(#pef7aa22f56)" style="fill: none; stroke: #1f77b4; stroke-width: 1.5"/>
    <path d="M 322.900398 228.465523 
L 322.900398 228.231994 
" clip-path="url(#pef7aa22f56)" style="fill: none; stroke: #1f77b4; stroke-width: 1.5"/>
    <path d="M 324.422216 230.137346 
L 324.422216 230.001099 
" clip-path="url(#pef7aa22f56)" style="fill: none; stroke: #1f77b4; stroke-width: 1.5"/>
    <path d="M 325.944034 230.810088 
L 325.944034 230.697587 
" clip-path="url(#pef7aa22f56)" style="fill: none; stroke: #1f77b4; stroke-width: 1.5"/>
    <path d="M 327.465852 231.168018 
L 327.465852 231.011903 
" clip-path="url(#pef7aa22f56)" style="fill: none; stroke: #1f77b4; stroke-width: 1.5"/>
    <path d="M 328.98767 231.92332 
L 328.98767 231.746133 
" clip-path="url(#pef7aa22f56)" style="fill: none; stroke: #1f77b4; stroke-width: 1.5"/>
    <path d="M 330.509489 232.236515 
L 330.509489 231.955895 
" clip-path="url(#pef7aa22f56)" style="fill: none; stroke: #1f77b4; stroke-width: 1.5"/>
    <path d="M 332.031307 231.162304 
L 332.031307 230.994029 
" clip-path="url(#pef7aa22f56)" style="fill: none; stroke: #1f77b4; stroke-width: 1.5"/>
    <path d="M 333.553125 231.234544 
L 333.553125 231.001367 
" clip-path="url(#pef7aa22f56)" style="fill: none; stroke: #1f77b4; stroke-width: 1.5"/>
    <path d="M 335.074943 231.093888 
L 335.074943 230.892806 
" clip-path="url(#pef7aa22f56)" style="fill: none; stroke: #1f77b4; stroke-width: 1.5"/>
    <path d="M 336.596761 230.457548 
L 336.596761 230.040003 
" clip-path="url(#pef7aa22f56)" style="fill: none; stroke: #1f77b4; stroke-width: 1.5"/>
    <path d="M 338.11858 228.043204 
L 338.11858 227.188325 
" clip-path="url(#pef7aa22f56)" style="fill: none; stroke: #1f77b4; stroke-width: 1.5"/>
    <path d="M 339.640398 227.357877 
L 339.640398 226.413092 
" clip-path="url(#pef7aa22f56)" style="fill: none; stroke: #1f77b4; stroke-width: 1.5"/>
    <path d="M 341.162216 228.422786 
L 341.162216 227.686712 
" clip-path="url(#pef7aa22f56)" style="fill: none; stroke: #1f77b4; stroke-width: 1.5"/>
    <path d="M 342.684034 229.528104 
L 342.684034 229.133047 
" clip-path="url(#pef7aa22f56)" style="fill: none; stroke: #1f77b4; stroke-width: 1.5"/>
    <path d="M 344.205852 230.51586 
L 344.205852 230.270631 
" clip-path="url(#pef7aa22f56)" style="fill: none; stroke: #1f77b4; stroke-width: 1.5"/>
    <path d="M 345.72767 230.798262 
L 345.72767 230.612049 
" clip-path="url(#pef7aa22f56)" style="fill: none; stroke: #1f77b4; stroke-width: 1.5"/>
    <path d="M 347.249489 230.970546 
L 347.249489 230.837731 
" clip-path="url(#pef7aa22f56)" style="fill: none; stroke: #1f77b4; stroke-width: 1.5"/>
    <path d="M 348.771307 231.001489 
L 348.771307 230.778187 
" clip-path="url(#pef7aa22f56)" style="fill: none; stroke: #1f77b4; stroke-width: 1.5"/>
    <path d="M 350.293125 231.305785 
L 350.293125 231.043683 
" clip-path="url(#pef7aa22f56)" style="fill: none; stroke: #1f77b4; stroke-width: 1.5"/>
    <path d="M 351.814943 231.387605 
L 351.814943 231.151505 
" clip-path="url(#pef7aa22f56)" style="fill: none; stroke: #1f77b4; stroke-width: 1.5"/>
    <path d="M 353.336761 231.499768 
L 353.336761 231.236271 
" clip-path="url(#pef7aa22f56)" style="fill: none; stroke: #1f77b4; stroke-width: 1.5"/>
    <path d="M 354.85858 231.222115 
L 354.85858 231.087939 
" clip-path="url(#pef7aa22f56)" style="fill: none; stroke: #1f77b4; stroke-width: 1.5"/>
    <path d="M 356.380398 231.242339 
L 356.380398 231.044071 
" clip-path="url(#pef7aa22f56)" style="fill: none; stroke: #1f77b4; stroke-width: 1.5"/>
    <path d="M 357.902216 231.212862 
L 357.902216 231.068553 
" clip-path="url(#pef7aa22f56)" style="fill: none; stroke: #1f77b4; stroke-width: 1.5"/>
    <path d="M 359.424034 231.140142 
L 359.424034 230.998758 
" clip-path="url(#pef7aa22f56)" style="fill: none; stroke: #1f77b4; stroke-width: 1.5"/>
   </g>
   <g id="patch_3">
    <path d="M 40.603125 244.078125 
L 40.603125 22.318125 
" style="fill: none; stroke: #000000; stroke-width: 0.8; stroke-linejoin: miter; stroke-linecap: square"/>
   </g>
   <g id="patch_4">
    <path d="M 375.403125 244.078125 
L 375.403125 22.318125 
" style="fill: none; stroke: #000000; stroke-width: 0.8; stroke-linejoin: miter; stroke-linecap: square"/>
   </g>
   <g id="patch_5">
    <path d="M 40.603125 244.078125 
L 375.403125 244.078125 
" style="fill: none; stroke: #000000; stroke-width: 0.8; stroke-linejoin: miter; stroke-linecap: square"/>
   </g>
   <g id="patch_6">
    <path d="M 40.603125 22.318125 
L 375.403125 22.318125 
" style="fill: none; stroke: #000000; stroke-width: 0.8; stroke-linejoin: miter; stroke-linecap: square"/>
   </g>
   <g id="text_17">
    <!-- Mantle -->
    <g transform="translate(187.635938 16.318125) scale(0.12 -0.12)">
     <defs>
      <path id="DejaVuSans-4d" d="M 628 4666 
L 1569 4666 
L 2759 1491 
L 3956 4666 
L 4897 4666 
L 4897 0 
L 4281 0 
L 4281 4097 
L 3078 897 
L 2444 897 
L 1241 4097 
L 1241 0 
L 628 0 
L 628 4666 
z
" transform="scale(0.015625)"/>
      <path id="DejaVuSans-74" d="M 1172 4494 
L 1172 3500 
L 2356 3500 
L 2356 3053 
L 1172 3053 
L 1172 1153 
Q 1172 725 1289 603 
Q 1406 481 1766 481 
L 2356 481 
L 2356 0 
L 1766 0 
Q 1100 0 847 248 
Q 594 497 594 1153 
L 594 3053 
L 172 3053 
L 172 3500 
L 594 3500 
L 594 4494 
L 1172 4494 
z
" transform="scale(0.015625)"/>
     </defs>
     <use xlink:href="#DejaVuSans-4d"/>
     <use xlink:href="#DejaVuSans-61" transform="translate(86.279297 0)"/>
     <use xlink:href="#DejaVuSans-6e" transform="translate(147.558594 0)"/>
     <use xlink:href="#DejaVuSans-74" transform="translate(210.9375 0)"/>
     <use xlink:href="#DejaVuSans-6c" transform="translate(250.146484 0)"/>
     <use xlink:href="#DejaVuSans-65" transform="translate(277.929688 0)"/>
    </g>
   </g>
  </g>
 </g>
 <defs>
  <clipPath id="pef7aa22f56">
   <rect x="40.603125" y="22.318125" width="334.8" height="221.76"/>
  </clipPath>
 </defs>
</svg>
