<?xml version="1.0" encoding="utf-8" standalone="no"?>
<!DOCTYPE svg PUBLIC "-//W3C//DTD SVG 1.1//EN"
  "http://www.w3.org/Graphics/SVG/1.1/DTD/svg11.dtd">
<svg xmlns:xlink="http://www.w3.org/1999/xlink" width="424.433125pt" height="280.274375pt" viewBox="0 0 424.433125 280.274375" xmlns="http://www.w3.org/2000/svg" version="1.1">
 <metadata>
  <rdf:RDF xmlns:dc="http://purl.org/dc/elements/1.1/" xmlns:cc="http://creativecommons.org/ns#" xmlns:rdf="http://www.w3.org/1999/02/22-rdf-syntax-ns#">
   <cc:Work>
    <dc:type rdf:resource="http://purl.org/dc/dcmitype/StillImage"/>
    <dc:date>2024-06-17T06:18:08.281304</dc:date>
    <dc:format>image/svg+xml</dc:format>
    <dc:creator>
     <cc:Agent>
      <dc:title>Matplotlib v3.9.0, https://matplotlib.org/</dc:title>
     </cc:Agent>
    </dc:creator>
   </cc:Work>
  </rdf:RDF>
 </metadata>
 <defs>
  <style type="text/css">*{stroke-linejoin: round; stroke-linecap: butt}</style>
 </defs>
 <g id="figure_1">
  <g id="patch_1">
   <path d="M 0 280.274375 
L 424.433125 280.274375 
L 424.433125 0 
L 0 0 
z
" style="fill: #ffffff"/>
  </g>
  <g id="axes_1">
   <g id="patch_2">
    <path d="M 40.603125 241.03375 
L 417.233125 241.03375 
L 417.233125 7.2 
L 40.603125 7.2 
z
" style="fill: #ffffff"/>
   </g>
   <g id="matplotlib.axis_1">
    <g id="xtick_1">
     <g id="line2d_1">
      <defs>
       <path id="m631dd25248" d="M 0 0 
L 0 3.5 
" style="stroke: #000000; stroke-width: 0.8"/>
      </defs>
      <g>
       <use xlink:href="#m631dd25248" x="57.321983" y="241.03375" style="stroke: #000000; stroke-width: 0.8"/>
      </g>
     </g>
     <g id="text_1">
      <!-- 0.0 -->
      <g transform="translate(49.37042 255.632187) scale(0.1 -0.1)">
       <defs>
        <path id="DejaVuSans-30" d="M 2034 4250 
Q 1547 4250 1301 3770 
Q 1056 3291 1056 2328 
Q 1056 1369 1301 889 
Q 1547 409 2034 409 
Q 2525 409 2770 889 
Q 3016 1369 3016 2328 
Q 3016 3291 2770 3770 
Q 2525 4250 2034 4250 
z
M 2034 4750 
Q 2819 4750 3233 4129 
Q 3647 3509 3647 2328 
Q 3647 1150 3233 529 
Q 2819 -91 2034 -91 
Q 1250 -91 836 529 
Q 422 1150 422 2328 
Q 422 3509 836 4129 
Q 1250 4750 2034 4750 
z
" transform="scale(0.015625)"/>
        <path id="DejaVuSans-2e" d="M 684 794 
L 1344 794 
L 1344 0 
L 684 0 
L 684 794 
z
" transform="scale(0.015625)"/>
       </defs>
       <use xlink:href="#DejaVuSans-30"/>
       <use xlink:href="#DejaVuSans-2e" x="63.623047"/>
       <use xlink:href="#DejaVuSans-30" x="95.410156"/>
      </g>
     </g>
    </g>
    <g id="xtick_2">
     <g id="line2d_2">
      <g>
       <use xlink:href="#m631dd25248" x="122.268609" y="241.03375" style="stroke: #000000; stroke-width: 0.8"/>
      </g>
     </g>
     <g id="text_2">
      <!-- 0.2 -->
      <g transform="translate(114.317047 255.632187) scale(0.1 -0.1)">
       <defs>
        <path id="DejaVuSans-32" d="M 1228 531 
L 3431 531 
L 3431 0 
L 469 0 
L 469 531 
Q 828 903 1448 1529 
Q 2069 2156 2228 2338 
Q 2531 2678 2651 2914 
Q 2772 3150 2772 3378 
Q 2772 3750 2511 3984 
Q 2250 4219 1831 4219 
Q 1534 4219 1204 4116 
Q 875 4013 500 3803 
L 500 4441 
Q 881 4594 1212 4672 
Q 1544 4750 1819 4750 
Q 2544 4750 2975 4387 
Q 3406 4025 3406 3419 
Q 3406 3131 3298 2873 
Q 3191 2616 2906 2266 
Q 2828 2175 2409 1742 
Q 1991 1309 1228 531 
z
" transform="scale(0.015625)"/>
       </defs>
       <use xlink:href="#DejaVuSans-30"/>
       <use xlink:href="#DejaVuSans-2e" x="63.623047"/>
       <use xlink:href="#DejaVuSans-32" x="95.410156"/>
      </g>
     </g>
    </g>
    <g id="xtick_3">
     <g id="line2d_3">
      <g>
       <use xlink:href="#m631dd25248" x="187.215235" y="241.03375" style="stroke: #000000; stroke-width: 0.8"/>
      </g>
     </g>
     <g id="text_3">
      <!-- 0.4 -->
      <g transform="translate(179.263673 255.632187) scale(0.1 -0.1)">
       <defs>
        <path id="DejaVuSans-34" d="M 2419 4116 
L 825 1625 
L 2419 1625 
L 2419 4116 
z
M 2253 4666 
L 3047 4666 
L 3047 1625 
L 3713 1625 
L 3713 1100 
L 3047 1100 
L 3047 0 
L 2419 0 
L 2419 1100 
L 313 1100 
L 313 1709 
L 2253 4666 
z
" transform="scale(0.015625)"/>
       </defs>
       <use xlink:href="#DejaVuSans-30"/>
       <use xlink:href="#DejaVuSans-2e" x="63.623047"/>
       <use xlink:href="#DejaVuSans-34" x="95.410156"/>
      </g>
     </g>
    </g>
    <g id="xtick_4">
     <g id="line2d_4">
      <g>
       <use xlink:href="#m631dd25248" x="252.161862" y="241.03375" style="stroke: #000000; stroke-width: 0.8"/>
      </g>
     </g>
     <g id="text_4">
      <!-- 0.6 -->
      <g transform="translate(244.210299 255.632187) scale(0.1 -0.1)">
       <defs>
        <path id="DejaVuSans-36" d="M 2113 2584 
Q 1688 2584 1439 2293 
Q 1191 2003 1191 1497 
Q 1191 994 1439 701 
Q 1688 409 2113 409 
Q 2538 409 2786 701 
Q 3034 994 3034 1497 
Q 3034 2003 2786 2293 
Q 2538 2584 2113 2584 
z
M 3366 4563 
L 3366 3988 
Q 3128 4100 2886 4159 
Q 2644 4219 2406 4219 
Q 1781 4219 1451 3797 
Q 1122 3375 1075 2522 
Q 1259 2794 1537 2939 
Q 1816 3084 2150 3084 
Q 2853 3084 3261 2657 
Q 3669 2231 3669 1497 
Q 3669 778 3244 343 
Q 2819 -91 2113 -91 
Q 1303 -91 875 529 
Q 447 1150 447 2328 
Q 447 3434 972 4092 
Q 1497 4750 2381 4750 
Q 2619 4750 2861 4703 
Q 3103 4656 3366 4563 
z
" transform="scale(0.015625)"/>
       </defs>
       <use xlink:href="#DejaVuSans-30"/>
       <use xlink:href="#DejaVuSans-2e" x="63.623047"/>
       <use xlink:href="#DejaVuSans-36" x="95.410156"/>
      </g>
     </g>
    </g>
    <g id="xtick_5">
     <g id="line2d_5">
      <g>
       <use xlink:href="#m631dd25248" x="317.108488" y="241.03375" style="stroke: #000000; stroke-width: 0.8"/>
      </g>
     </g>
     <g id="text_5">
      <!-- 0.8 -->
      <g transform="translate(309.156926 255.632187) scale(0.1 -0.1)">
       <defs>
        <path id="DejaVuSans-38" d="M 2034 2216 
Q 1584 2216 1326 1975 
Q 1069 1734 1069 1313 
Q 1069 891 1326 650 
Q 1584 409 2034 409 
Q 2484 409 2743 651 
Q 3003 894 3003 1313 
Q 3003 1734 2745 1975 
Q 2488 2216 2034 2216 
z
M 1403 2484 
Q 997 2584 770 2862 
Q 544 3141 544 3541 
Q 544 4100 942 4425 
Q 1341 4750 2034 4750 
Q 2731 4750 3128 4425 
Q 3525 4100 3525 3541 
Q 3525 3141 3298 2862 
Q 3072 2584 2669 2484 
Q 3125 2378 3379 2068 
Q 3634 1759 3634 1313 
Q 3634 634 3220 271 
Q 2806 -91 2034 -91 
Q 1263 -91 848 271 
Q 434 634 434 1313 
Q 434 1759 690 2068 
Q 947 2378 1403 2484 
z
M 1172 3481 
Q 1172 3119 1398 2916 
Q 1625 2713 2034 2713 
Q 2441 2713 2670 2916 
Q 2900 3119 2900 3481 
Q 2900 3844 2670 4047 
Q 2441 4250 2034 4250 
Q 1625 4250 1398 4047 
Q 1172 3844 1172 3481 
z
" transform="scale(0.015625)"/>
       </defs>
       <use xlink:href="#DejaVuSans-30"/>
       <use xlink:href="#DejaVuSans-2e" x="63.623047"/>
       <use xlink:href="#DejaVuSans-38" x="95.410156"/>
      </g>
     </g>
    </g>
    <g id="xtick_6">
     <g id="line2d_6">
      <g>
       <use xlink:href="#m631dd25248" x="382.055115" y="241.03375" style="stroke: #000000; stroke-width: 0.8"/>
      </g>
     </g>
     <g id="text_6">
      <!-- 1.0 -->
      <g transform="translate(374.103552 255.632187) scale(0.1 -0.1)">
       <defs>
        <path id="DejaVuSans-31" d="M 794 531 
L 1825 531 
L 1825 4091 
L 703 3866 
L 703 4441 
L 1819 4666 
L 2450 4666 
L 2450 531 
L 3481 531 
L 3481 0 
L 794 0 
L 794 531 
z
" transform="scale(0.015625)"/>
       </defs>
       <use xlink:href="#DejaVuSans-31"/>
       <use xlink:href="#DejaVuSans-2e" x="63.623047"/>
       <use xlink:href="#DejaVuSans-30" x="95.410156"/>
      </g>
     </g>
    </g>
    <g id="text_7">
     <!-- wavelength [Å] -->
     <g transform="translate(190.880625 270.994687) scale(0.1 -0.1)">
      <defs>
       <path id="DejaVuSans-77" d="M 269 3500 
L 844 3500 
L 1563 769 
L 2278 3500 
L 2956 3500 
L 3675 769 
L 4391 3500 
L 4966 3500 
L 4050 0 
L 3372 0 
L 2619 2869 
L 1863 0 
L 1184 0 
L 269 3500 
z
" transform="scale(0.015625)"/>
       <path id="DejaVuSans-61" d="M 2194 1759 
Q 1497 1759 1228 1600 
Q 959 1441 959 1056 
Q 959 750 1161 570 
Q 1363 391 1709 391 
Q 2188 391 2477 730 
Q 2766 1069 2766 1631 
L 2766 1759 
L 2194 1759 
z
M 3341 1997 
L 3341 0 
L 2766 0 
L 2766 531 
Q 2569 213 2275 61 
Q 1981 -91 1556 -91 
Q 1019 -91 701 211 
Q 384 513 384 1019 
Q 384 1609 779 1909 
Q 1175 2209 1959 2209 
L 2766 2209 
L 2766 2266 
Q 2766 2663 2505 2880 
Q 2244 3097 1772 3097 
Q 1472 3097 1187 3025 
Q 903 2953 641 2809 
L 641 3341 
Q 956 3463 1253 3523 
Q 1550 3584 1831 3584 
Q 2591 3584 2966 3190 
Q 3341 2797 3341 1997 
z
" transform="scale(0.015625)"/>
       <path id="DejaVuSans-76" d="M 191 3500 
L 800 3500 
L 1894 563 
L 2988 3500 
L 3597 3500 
L 2284 0 
L 1503 0 
L 191 3500 
z
" transform="scale(0.015625)"/>
       <path id="DejaVuSans-65" d="M 3597 1894 
L 3597 1613 
L 953 1613 
Q 991 1019 1311 708 
Q 1631 397 2203 397 
Q 2534 397 2845 478 
Q 3156 559 3463 722 
L 3463 178 
Q 3153 47 2828 -22 
Q 2503 -91 2169 -91 
Q 1331 -91 842 396 
Q 353 884 353 1716 
Q 353 2575 817 3079 
Q 1281 3584 2069 3584 
Q 2775 3584 3186 3129 
Q 3597 2675 3597 1894 
z
M 3022 2063 
Q 3016 2534 2758 2815 
Q 2500 3097 2075 3097 
Q 1594 3097 1305 2825 
Q 1016 2553 972 2059 
L 3022 2063 
z
" transform="scale(0.015625)"/>
       <path id="DejaVuSans-6c" d="M 603 4863 
L 1178 4863 
L 1178 0 
L 603 0 
L 603 4863 
z
" transform="scale(0.015625)"/>
       <path id="DejaVuSans-6e" d="M 3513 2113 
L 3513 0 
L 2938 0 
L 2938 2094 
Q 2938 2591 2744 2837 
Q 2550 3084 2163 3084 
Q 1697 3084 1428 2787 
Q 1159 2491 1159 1978 
L 1159 0 
L 581 0 
L 581 3500 
L 1159 3500 
L 1159 2956 
Q 1366 3272 1645 3428 
Q 1925 3584 2291 3584 
Q 2894 3584 3203 3211 
Q 3513 2838 3513 2113 
z
" transform="scale(0.015625)"/>
       <path id="DejaVuSans-67" d="M 2906 1791 
Q 2906 2416 2648 2759 
Q 2391 3103 1925 3103 
Q 1463 3103 1205 2759 
Q 947 2416 947 1791 
Q 947 1169 1205 825 
Q 1463 481 1925 481 
Q 2391 481 2648 825 
Q 2906 1169 2906 1791 
z
M 3481 434 
Q 3481 -459 3084 -895 
Q 2688 -1331 1869 -1331 
Q 1566 -1331 1297 -1286 
Q 1028 -1241 775 -1147 
L 775 -588 
Q 1028 -725 1275 -790 
Q 1522 -856 1778 -856 
Q 2344 -856 2625 -561 
Q 2906 -266 2906 331 
L 2906 616 
Q 2728 306 2450 153 
Q 2172 0 1784 0 
Q 1141 0 747 490 
Q 353 981 353 1791 
Q 353 2603 747 3093 
Q 1141 3584 1784 3584 
Q 2172 3584 2450 3431 
Q 2728 3278 2906 2969 
L 2906 3500 
L 3481 3500 
L 3481 434 
z
" transform="scale(0.015625)"/>
       <path id="DejaVuSans-74" d="M 1172 4494 
L 1172 3500 
L 2356 3500 
L 2356 3053 
L 1172 3053 
L 1172 1153 
Q 1172 725 1289 603 
Q 1406 481 1766 481 
L 2356 481 
L 2356 0 
L 1766 0 
Q 1100 0 847 248 
Q 594 497 594 1153 
L 594 3053 
L 172 3053 
L 172 3500 
L 594 3500 
L 594 4494 
L 1172 4494 
z
" transform="scale(0.015625)"/>
       <path id="DejaVuSans-68" d="M 3513 2113 
L 3513 0 
L 2938 0 
L 2938 2094 
Q 2938 2591 2744 2837 
Q 2550 3084 2163 3084 
Q 1697 3084 1428 2787 
Q 1159 2491 1159 1978 
L 1159 0 
L 581 0 
L 581 4863 
L 1159 4863 
L 1159 2956 
Q 1366 3272 1645 3428 
Q 1925 3584 2291 3584 
Q 2894 3584 3203 3211 
Q 3513 2838 3513 2113 
z
" transform="scale(0.015625)"/>
       <path id="DejaVuSans-20" transform="scale(0.015625)"/>
       <path id="DejaVuSans-5b" d="M 550 4863 
L 1875 4863 
L 1875 4416 
L 1125 4416 
L 1125 -397 
L 1875 -397 
L 1875 -844 
L 550 -844 
L 550 4863 
z
" transform="scale(0.015625)"/>
       <path id="DejaVuSans-c5" d="M 2663 5081 
Q 2663 5278 2523 5417 
Q 2384 5556 2188 5556 
Q 1988 5556 1852 5420 
Q 1716 5284 1716 5081 
Q 1716 4884 1853 4746 
Q 1991 4609 2188 4609 
Q 2384 4609 2523 4746 
Q 2663 4884 2663 5081 
z
M 2188 4044 
L 1338 1722 
L 3041 1722 
L 2188 4044 
z
M 1716 4366 
Q 1525 4494 1428 4673 
Q 1331 4853 1331 5081 
Q 1331 5441 1579 5691 
Q 1828 5941 2188 5941 
Q 2544 5941 2795 5689 
Q 3047 5438 3047 5081 
Q 3047 4863 2948 4678 
Q 2850 4494 2663 4366 
L 4325 0 
L 3669 0 
L 3244 1197 
L 1141 1197 
L 716 0 
L 50 0 
L 1716 4366 
z
" transform="scale(0.015625)"/>
       <path id="DejaVuSans-5d" d="M 1947 4863 
L 1947 -844 
L 622 -844 
L 622 -397 
L 1369 -397 
L 1369 4416 
L 622 4416 
L 622 4863 
L 1947 4863 
z
" transform="scale(0.015625)"/>
      </defs>
      <use xlink:href="#DejaVuSans-77"/>
      <use xlink:href="#DejaVuSans-61" x="81.787109"/>
      <use xlink:href="#DejaVuSans-76" x="143.066406"/>
      <use xlink:href="#DejaVuSans-65" x="202.246094"/>
      <use xlink:href="#DejaVuSans-6c" x="263.769531"/>
      <use xlink:href="#DejaVuSans-65" x="291.552734"/>
      <use xlink:href="#DejaVuSans-6e" x="353.076172"/>
      <use xlink:href="#DejaVuSans-67" x="416.455078"/>
      <use xlink:href="#DejaVuSans-74" x="479.931641"/>
      <use xlink:href="#DejaVuSans-68" x="519.140625"/>
      <use xlink:href="#DejaVuSans-20" x="582.519531"/>
      <use xlink:href="#DejaVuSans-5b" x="614.306641"/>
      <use xlink:href="#DejaVuSans-c5" x="653.320312"/>
      <use xlink:href="#DejaVuSans-5d" x="721.728516"/>
     </g>
    </g>
   </g>
   <g id="matplotlib.axis_2">
    <g id="ytick_1">
     <g id="line2d_7">
      <defs>
       <path id="mf33cec70ce" d="M 0 0 
L -3.5 0 
" style="stroke: #000000; stroke-width: 0.8"/>
      </defs>
      <g>
       <use xlink:href="#mf33cec70ce" x="40.603125" y="231.176266" style="stroke: #000000; stroke-width: 0.8"/>
      </g>
     </g>
     <g id="text_8">
      <!-- 0 -->
      <g transform="translate(27.240625 234.975485) scale(0.1 -0.1)">
       <use xlink:href="#DejaVuSans-30"/>
      </g>
     </g>
    </g>
    <g id="ytick_2">
     <g id="line2d_8">
      <g>
       <use xlink:href="#mf33cec70ce" x="40.603125" y="201.63526" style="stroke: #000000; stroke-width: 0.8"/>
      </g>
     </g>
     <g id="text_9">
      <!-- 10 -->
      <g transform="translate(20.878125 205.434479) scale(0.1 -0.1)">
       <use xlink:href="#DejaVuSans-31"/>
       <use xlink:href="#DejaVuSans-30" x="63.623047"/>
      </g>
     </g>
    </g>
    <g id="ytick_3">
     <g id="line2d_9">
      <g>
       <use xlink:href="#mf33cec70ce" x="40.603125" y="172.094254" style="stroke: #000000; stroke-width: 0.8"/>
      </g>
     </g>
     <g id="text_10">
      <!-- 20 -->
      <g transform="translate(20.878125 175.893473) scale(0.1 -0.1)">
       <use xlink:href="#DejaVuSans-32"/>
       <use xlink:href="#DejaVuSans-30" x="63.623047"/>
      </g>
     </g>
    </g>
    <g id="ytick_4">
     <g id="line2d_10">
      <g>
       <use xlink:href="#mf33cec70ce" x="40.603125" y="142.553248" style="stroke: #000000; stroke-width: 0.8"/>
      </g>
     </g>
     <g id="text_11">
      <!-- 30 -->
      <g transform="translate(20.878125 146.352467) scale(0.1 -0.1)">
       <defs>
        <path id="DejaVuSans-33" d="M 2597 2516 
Q 3050 2419 3304 2112 
Q 3559 1806 3559 1356 
Q 3559 666 3084 287 
Q 2609 -91 1734 -91 
Q 1441 -91 1130 -33 
Q 819 25 488 141 
L 488 750 
Q 750 597 1062 519 
Q 1375 441 1716 441 
Q 2309 441 2620 675 
Q 2931 909 2931 1356 
Q 2931 1769 2642 2001 
Q 2353 2234 1838 2234 
L 1294 2234 
L 1294 2753 
L 1863 2753 
Q 2328 2753 2575 2939 
Q 2822 3125 2822 3475 
Q 2822 3834 2567 4026 
Q 2313 4219 1838 4219 
Q 1578 4219 1281 4162 
Q 984 4106 628 3988 
L 628 4550 
Q 988 4650 1302 4700 
Q 1616 4750 1894 4750 
Q 2613 4750 3031 4423 
Q 3450 4097 3450 3541 
Q 3450 3153 3228 2886 
Q 3006 2619 2597 2516 
z
" transform="scale(0.015625)"/>
       </defs>
       <use xlink:href="#DejaVuSans-33"/>
       <use xlink:href="#DejaVuSans-30" x="63.623047"/>
      </g>
     </g>
    </g>
    <g id="ytick_5">
     <g id="line2d_11">
      <g>
       <use xlink:href="#mf33cec70ce" x="40.603125" y="113.012242" style="stroke: #000000; stroke-width: 0.8"/>
      </g>
     </g>
     <g id="text_12">
      <!-- 40 -->
      <g transform="translate(20.878125 116.811461) scale(0.1 -0.1)">
       <use xlink:href="#DejaVuSans-34"/>
       <use xlink:href="#DejaVuSans-30" x="63.623047"/>
      </g>
     </g>
    </g>
    <g id="ytick_6">
     <g id="line2d_12">
      <g>
       <use xlink:href="#mf33cec70ce" x="40.603125" y="83.471236" style="stroke: #000000; stroke-width: 0.8"/>
      </g>
     </g>
     <g id="text_13">
      <!-- 50 -->
      <g transform="translate(20.878125 87.270455) scale(0.1 -0.1)">
       <defs>
        <path id="DejaVuSans-35" d="M 691 4666 
L 3169 4666 
L 3169 4134 
L 1269 4134 
L 1269 2991 
Q 1406 3038 1543 3061 
Q 1681 3084 1819 3084 
Q 2600 3084 3056 2656 
Q 3513 2228 3513 1497 
Q 3513 744 3044 326 
Q 2575 -91 1722 -91 
Q 1428 -91 1123 -41 
Q 819 9 494 109 
L 494 744 
Q 775 591 1075 516 
Q 1375 441 1709 441 
Q 2250 441 2565 725 
Q 2881 1009 2881 1497 
Q 2881 1984 2565 2268 
Q 2250 2553 1709 2553 
Q 1456 2553 1204 2497 
Q 953 2441 691 2322 
L 691 4666 
z
" transform="scale(0.015625)"/>
       </defs>
       <use xlink:href="#DejaVuSans-35"/>
       <use xlink:href="#DejaVuSans-30" x="63.623047"/>
      </g>
     </g>
    </g>
    <g id="ytick_7">
     <g id="line2d_13">
      <g>
       <use xlink:href="#mf33cec70ce" x="40.603125" y="53.93023" style="stroke: #000000; stroke-width: 0.8"/>
      </g>
     </g>
     <g id="text_14">
      <!-- 60 -->
      <g transform="translate(20.878125 57.729449) scale(0.1 -0.1)">
       <use xlink:href="#DejaVuSans-36"/>
       <use xlink:href="#DejaVuSans-30" x="63.623047"/>
      </g>
     </g>
    </g>
    <g id="ytick_8">
     <g id="line2d_14">
      <g>
       <use xlink:href="#mf33cec70ce" x="40.603125" y="24.389224" style="stroke: #000000; stroke-width: 0.8"/>
      </g>
     </g>
     <g id="text_15">
      <!-- 70 -->
      <g transform="translate(20.878125 28.188443) scale(0.1 -0.1)">
       <defs>
        <path id="DejaVuSans-37" d="M 525 4666 
L 3525 4666 
L 3525 4397 
L 1831 0 
L 1172 0 
L 2766 4134 
L 525 4134 
L 525 4666 
z
" transform="scale(0.015625)"/>
       </defs>
       <use xlink:href="#DejaVuSans-37"/>
       <use xlink:href="#DejaVuSans-30" x="63.623047"/>
      </g>
     </g>
    </g>
    <g id="text_16">
     <!-- [counts/uAh] -->
     <g transform="translate(14.798438 156.171562) rotate(-90) scale(0.1 -0.1)">
      <defs>
       <path id="DejaVuSans-63" d="M 3122 3366 
L 3122 2828 
Q 2878 2963 2633 3030 
Q 2388 3097 2138 3097 
Q 1578 3097 1268 2742 
Q 959 2388 959 1747 
Q 959 1106 1268 751 
Q 1578 397 2138 397 
Q 2388 397 2633 464 
Q 2878 531 3122 666 
L 3122 134 
Q 2881 22 2623 -34 
Q 2366 -91 2075 -91 
Q 1284 -91 818 406 
Q 353 903 353 1747 
Q 353 2603 823 3093 
Q 1294 3584 2113 3584 
Q 2378 3584 2631 3529 
Q 2884 3475 3122 3366 
z
" transform="scale(0.015625)"/>
       <path id="DejaVuSans-6f" d="M 1959 3097 
Q 1497 3097 1228 2736 
Q 959 2375 959 1747 
Q 959 1119 1226 758 
Q 1494 397 1959 397 
Q 2419 397 2687 759 
Q 2956 1122 2956 1747 
Q 2956 2369 2687 2733 
Q 2419 3097 1959 3097 
z
M 1959 3584 
Q 2709 3584 3137 3096 
Q 3566 2609 3566 1747 
Q 3566 888 3137 398 
Q 2709 -91 1959 -91 
Q 1206 -91 779 398 
Q 353 888 353 1747 
Q 353 2609 779 3096 
Q 1206 3584 1959 3584 
z
" transform="scale(0.015625)"/>
       <path id="DejaVuSans-75" d="M 544 1381 
L 544 3500 
L 1119 3500 
L 1119 1403 
Q 1119 906 1312 657 
Q 1506 409 1894 409 
Q 2359 409 2629 706 
Q 2900 1003 2900 1516 
L 2900 3500 
L 3475 3500 
L 3475 0 
L 2900 0 
L 2900 538 
Q 2691 219 2414 64 
Q 2138 -91 1772 -91 
Q 1169 -91 856 284 
Q 544 659 544 1381 
z
M 1991 3584 
L 1991 3584 
z
" transform="scale(0.015625)"/>
       <path id="DejaVuSans-73" d="M 2834 3397 
L 2834 2853 
Q 2591 2978 2328 3040 
Q 2066 3103 1784 3103 
Q 1356 3103 1142 2972 
Q 928 2841 928 2578 
Q 928 2378 1081 2264 
Q 1234 2150 1697 2047 
L 1894 2003 
Q 2506 1872 2764 1633 
Q 3022 1394 3022 966 
Q 3022 478 2636 193 
Q 2250 -91 1575 -91 
Q 1294 -91 989 -36 
Q 684 19 347 128 
L 347 722 
Q 666 556 975 473 
Q 1284 391 1588 391 
Q 1994 391 2212 530 
Q 2431 669 2431 922 
Q 2431 1156 2273 1281 
Q 2116 1406 1581 1522 
L 1381 1569 
Q 847 1681 609 1914 
Q 372 2147 372 2553 
Q 372 3047 722 3315 
Q 1072 3584 1716 3584 
Q 2034 3584 2315 3537 
Q 2597 3491 2834 3397 
z
" transform="scale(0.015625)"/>
       <path id="DejaVuSans-2f" d="M 1625 4666 
L 2156 4666 
L 531 -594 
L 0 -594 
L 1625 4666 
z
" transform="scale(0.015625)"/>
       <path id="DejaVuSans-41" d="M 2188 4044 
L 1331 1722 
L 3047 1722 
L 2188 4044 
z
M 1831 4666 
L 2547 4666 
L 4325 0 
L 3669 0 
L 3244 1197 
L 1141 1197 
L 716 0 
L 50 0 
L 1831 4666 
z
" transform="scale(0.015625)"/>
      </defs>
      <use xlink:href="#DejaVuSans-5b"/>
      <use xlink:href="#DejaVuSans-63" x="39.013672"/>
      <use xlink:href="#DejaVuSans-6f" x="93.994141"/>
      <use xlink:href="#DejaVuSans-75" x="155.175781"/>
      <use xlink:href="#DejaVuSans-6e" x="218.554688"/>
      <use xlink:href="#DejaVuSans-74" x="281.933594"/>
      <use xlink:href="#DejaVuSans-73" x="321.142578"/>
      <use xlink:href="#DejaVuSans-2f" x="373.242188"/>
      <use xlink:href="#DejaVuSans-75" x="406.933594"/>
      <use xlink:href="#DejaVuSans-41" x="470.3125"/>
      <use xlink:href="#DejaVuSans-68" x="538.720703"/>
      <use xlink:href="#DejaVuSans-5d" x="602.099609"/>
     </g>
    </g>
   </g>
   <g id="patch_3">
    <path d="M 40.603125 241.03375 
L 40.603125 7.2 
" style="fill: none; stroke: #000000; stroke-width: 0.8; stroke-linejoin: miter; stroke-linecap: square"/>
   </g>
   <g id="patch_4">
    <path d="M 417.233125 241.03375 
L 417.233125 7.2 
" style="fill: none; stroke: #000000; stroke-width: 0.8; stroke-linejoin: miter; stroke-linecap: square"/>
   </g>
   <g id="patch_5">
    <path d="M 40.603125 241.03375 
L 417.233125 241.03375 
" style="fill: none; stroke: #000000; stroke-width: 0.8; stroke-linejoin: miter; stroke-linecap: square"/>
   </g>
   <g id="patch_6">
    <path d="M 40.603125 7.2 
L 417.233125 7.2 
" style="fill: none; stroke: #000000; stroke-width: 0.8; stroke-linejoin: miter; stroke-linecap: square"/>
   </g>
   <g id="line2d_15">
    <path d="M 57.72267 205.601621 
L 58.863973 205.601621 
L 58.863973 210.506831 
L 60.005277 210.506831 
L 60.005277 211.994022 
L 61.14658 211.994022 
L 61.14658 213.466089 
L 62.287883 213.466089 
L 62.287883 214.451668 
L 63.429186 214.451668 
L 63.429186 214.670966 
L 64.570489 214.670966 
L 64.570489 215.36919 
L 65.711792 215.36919 
L 65.711792 216.027083 
L 66.853095 216.027083 
L 66.853095 214.986049 
L 67.994398 214.986049 
L 67.994398 212.183072 
L 69.135701 212.183072 
L 69.135701 209.226334 
L 70.277004 209.226334 
L 70.277004 208.2584 
L 71.418307 208.2584 
L 71.418307 206.645176 
L 72.55961 206.645176 
L 72.55961 206.292283 
L 73.700913 206.292283 
L 73.700913 205.10253 
L 74.842216 205.10253 
L 74.842216 203.685918 
L 75.983519 203.685918 
L 75.983519 202.889388 
L 77.124822 202.889388 
L 77.124822 201.624015 
L 78.266125 201.624015 
L 78.266125 200.313271 
L 79.407428 200.313271 
L 79.407428 198.616865 
L 80.548731 198.616865 
L 80.548731 197.235542 
L 81.690034 197.235542 
L 81.690034 195.249259 
L 82.831337 195.249259 
L 82.831337 193.711655 
L 83.97264 193.711655 
L 83.97264 191.884174 
L 85.113943 191.884174 
L 85.113943 189.348388 
L 86.255246 189.348388 
L 86.255246 186.994089 
L 87.396549 186.994089 
L 87.396549 184.728013 
L 88.537852 184.728013 
L 88.537852 182.290532 
L 89.679155 182.290532 
L 89.679155 179.558133 
L 90.820458 179.558133 
L 90.820458 177.493711 
L 91.961761 177.493711 
L 91.961761 174.461353 
L 93.103064 174.461353 
L 93.103064 171.693665 
L 94.244367 171.693665 
L 94.244367 170.660194 
L 95.38567 170.660194 
L 95.38567 166.894324 
L 96.526973 166.894324 
L 96.526973 164.146801 
L 97.668277 164.146801 
L 97.668277 161.842915 
L 98.80958 161.842915 
L 98.80958 159.69279 
L 99.950883 159.69279 
L 99.950883 157.441838 
L 101.092186 157.441838 
L 101.092186 155.521093 
L 102.233489 155.521093 
L 102.233489 152.420678 
L 103.374792 152.420678 
L 103.374792 151.893859 
L 104.516095 151.893859 
L 104.516095 151.467867 
L 105.657398 151.467867 
L 105.657398 149.647949 
L 106.798701 149.647949 
L 106.798701 150.207536 
L 107.940004 150.207536 
L 107.940004 148.372493 
L 109.081307 148.372493 
L 109.081307 147.109641 
L 110.22261 147.109641 
L 110.22261 147.926336 
L 111.363913 147.926336 
L 111.363913 147.202906 
L 112.505216 147.202906 
L 112.505216 149.554684 
L 114.787822 149.57737 
L 114.787822 152.287083 
L 115.929125 152.287083 
L 115.929125 150.840222 
L 117.070428 150.840222 
L 117.070428 147.187782 
L 118.211731 147.187782 
L 118.211731 145.529186 
L 119.353034 145.529186 
L 119.353034 143.966375 
L 120.494337 143.966375 
L 120.494337 142.592614 
L 121.63564 142.592614 
L 121.63564 143.278234 
L 122.776943 143.278234 
L 122.776943 143.699185 
L 123.918246 143.699185 
L 123.918246 140.989472 
L 125.059549 140.989472 
L 125.059549 139.522446 
L 126.200852 139.522446 
L 126.200852 137.798313 
L 127.342155 137.798313 
L 127.342155 137.515999 
L 128.483458 137.515999 
L 128.483458 136.641329 
L 129.624761 136.641329 
L 129.624761 133.074591 
L 130.766064 133.074591 
L 130.766064 132.391491 
L 131.907367 132.391491 
L 131.907367 131.637813 
L 133.04867 131.637813 
L 133.04867 130.473267 
L 134.189973 130.473267 
L 134.189973 128.870125 
L 135.331277 128.870125 
L 135.331277 128.625621 
L 136.47258 128.625621 
L 136.47258 126.475496 
L 137.613883 126.475496 
L 137.613883 125.033677 
L 138.755186 125.033677 
L 138.755186 123.370039 
L 139.896489 123.370039 
L 139.896489 122.099625 
L 141.037792 122.099625 
L 141.037792 121.560203 
L 142.179095 121.560203 
L 142.179095 118.873177 
L 143.320398 118.873177 
L 143.320398 117.504457 
L 144.461701 117.504457 
L 144.461701 116.155902 
L 145.603004 116.155902 
L 145.603004 114.184744 
L 146.744307 114.184744 
L 146.744307 113.799083 
L 147.88561 113.799083 
L 147.88561 110.537345 
L 149.026913 110.537345 
L 149.026913 108.114988 
L 150.168216 108.114988 
L 150.168216 107.96879 
L 151.309519 107.96879 
L 151.309519 105.122961 
L 152.450822 105.122961 
L 152.450822 103.159365 
L 153.592125 103.159365 
L 153.592125 103.388745 
L 154.733428 103.388745 
L 154.733428 99.748908 
L 155.874731 99.748908 
L 155.874731 97.838246 
L 157.016034 97.838246 
L 157.016034 95.206674 
L 158.157337 95.206674 
L 158.157337 92.247416 
L 159.29864 92.247416 
L 159.29864 91.299646 
L 160.439943 91.299646 
L 160.439943 90.316588 
L 161.581246 90.316588 
L 161.581246 87.727867 
L 162.722549 87.727867 
L 162.722549 86.258321 
L 163.863852 86.258321 
L 163.863852 84.01241 
L 165.005155 84.01241 
L 165.005155 83.107492 
L 166.146458 83.107492 
L 166.146458 80.730507 
L 167.287761 80.730507 
L 167.287761 79.434887 
L 168.429064 79.434887 
L 168.429064 77.410795 
L 169.570367 77.410795 
L 169.570367 76.63191 
L 170.71167 76.63191 
L 170.71167 73.178602 
L 171.852973 73.178602 
L 171.852973 72.871081 
L 172.994277 72.871081 
L 172.994277 71.49984 
L 174.13558 71.49984 
L 174.13558 69.344674 
L 175.276883 69.344674 
L 175.276883 66.556821 
L 176.418186 66.556821 
L 176.418186 65.409919 
L 177.559489 65.409919 
L 177.559489 64.648679 
L 178.700792 64.648679 
L 178.700792 62.412851 
L 179.842095 62.412851 
L 179.842095 60.257684 
L 180.983398 60.257684 
L 180.983398 59.864461 
L 182.124701 59.864461 
L 182.124701 58.314253 
L 183.266004 58.314253 
L 183.266004 56.806897 
L 184.407307 56.806897 
L 184.407307 55.990202 
L 185.54861 55.990202 
L 185.54861 53.870325 
L 186.689913 53.870325 
L 186.689913 51.740365 
L 187.831216 51.740365 
L 187.831216 51.359745 
L 188.972519 51.359745 
L 188.972519 48.569371 
L 190.113822 48.569371 
L 190.113822 46.890609 
L 191.255125 46.890609 
L 191.255125 45.94284 
L 192.396428 45.94284 
L 192.396428 46.273047 
L 193.537731 46.273047 
L 193.537731 44.652261 
L 194.679034 44.652261 
L 194.679034 43.074326 
L 195.820337 43.074326 
L 195.820337 42.771846 
L 196.96164 42.771846 
L 196.96164 41.085523 
L 198.102943 41.085523 
L 198.102943 39.920977 
L 199.244246 39.920977 
L 199.244246 40.868746 
L 200.385549 40.868746 
L 200.385549 39.046307 
L 201.526852 39.046307 
L 201.526852 37.443165 
L 202.668155 37.443165 
L 202.668155 36.85081 
L 203.809458 36.85081 
L 203.809458 35.935809 
L 204.950761 35.935809 
L 204.950761 35.111552 
L 206.092064 35.111552 
L 206.092064 34.756139 
L 207.233367 34.756139 
L 207.233367 35.708949 
L 208.37467 35.708949 
L 208.37467 34.935106 
L 209.515973 34.935106 
L 209.515973 33.248782 
L 210.657277 33.248782 
L 210.657277 33.69746 
L 211.79858 33.69746 
L 211.79858 31.731343 
L 212.939883 31.731343 
L 212.939883 29.803036 
L 214.081186 29.803036 
L 214.081186 31.063368 
L 215.222489 31.063368 
L 215.222489 32.043906 
L 216.363792 32.043906 
L 216.363792 31.814525 
L 217.505095 31.814525 
L 217.505095 29.989565 
L 218.646398 29.989565 
L 218.646398 30.397913 
L 219.787701 30.397913 
L 219.787701 30.657541 
L 220.929004 30.657541 
L 220.929004 29.422416 
L 222.070307 29.422416 
L 222.070307 28.97878 
L 223.21161 28.97878 
L 223.21161 29.583739 
L 224.352913 29.583739 
L 224.352913 28.353655 
L 225.494216 28.353655 
L 225.494216 28.590598 
L 226.635519 28.590598 
L 226.635519 29.177912 
L 227.776822 29.177912 
L 227.776822 28.837623 
L 228.918125 28.837623 
L 228.918125 26.884109 
L 230.059428 26.884109 
L 230.059428 27.042911 
L 231.200731 27.042911 
L 231.200731 27.405886 
L 232.342034 27.405886 
L 232.342034 26.228737 
L 233.483337 26.228737 
L 233.483337 26.05229 
L 234.62464 26.05229 
L 234.62464 25.928778 
L 235.765943 25.928778 
L 235.765943 26.571547 
L 236.907246 26.571547 
L 236.907246 27.983118 
L 238.048549 27.983118 
L 238.048549 29.051879 
L 239.189852 29.051879 
L 239.189852 27.703324 
L 240.331155 27.703324 
L 240.331155 27.201712 
L 241.472458 27.201712 
L 241.472458 28.862829 
L 242.613761 28.862829 
L 242.613761 29.379565 
L 243.755064 29.379565 
L 243.755064 27.073159 
L 244.896367 27.073159 
L 244.896367 26.107745 
L 246.03767 26.107745 
L 246.03767 26.88663 
L 247.178973 26.88663 
L 247.178973 25.90105 
L 248.320277 25.90105 
L 248.320277 25.52043 
L 249.46158 25.52043 
L 249.46158 26.88663 
L 250.602883 26.88663 
L 250.602883 26.125389 
L 251.744186 26.125389 
L 251.744186 24.393694 
L 252.885489 24.393694 
L 252.885489 26.019522 
L 254.026792 26.019522 
L 254.026792 25.757373 
L 255.168095 25.757373 
L 255.168095 24.174396 
L 256.309398 24.174396 
L 256.309398 23.42576 
L 257.450701 23.42576 
L 257.450701 21.215138 
L 258.592004 21.215138 
L 258.592004 24.000471 
L 259.733307 24.000471 
L 259.733307 21.668858 
L 260.87461 21.668858 
L 260.87461 21.389064 
L 262.015913 21.389064 
L 262.015913 19.81617 
L 263.157216 19.81617 
L 263.157216 18.563401 
L 264.298519 18.563401 
L 264.298519 21.404188 
L 265.439822 21.404188 
L 265.439822 20.00522 
L 266.581125 20.00522 
L 266.581125 18.56088 
L 267.722428 18.56088 
L 267.722428 19.705261 
L 268.863731 19.705261 
L 268.863731 21.545345 
L 270.005034 21.545345 
L 270.005034 23.453487 
L 271.146337 23.453487 
L 271.146337 24.504603 
L 272.28764 24.504603 
L 272.28764 22.684685 
L 273.428943 22.684685 
L 273.428943 22.460346 
L 274.570246 22.460346 
L 274.570246 23.093032 
L 275.711549 23.093032 
L 275.711549 21.409229 
L 276.852852 21.409229 
L 276.852852 21.736915 
L 277.994155 21.736915 
L 277.994155 22.24861 
L 279.135458 22.24861 
L 279.135458 22.457825 
L 281.418064 22.472949 
L 281.418064 21.361337 
L 282.559367 21.361337 
L 282.559367 21.767163 
L 283.70067 21.767163 
L 283.70067 22.01923 
L 284.841973 22.01923 
L 284.841973 23.493817 
L 285.983277 23.493817 
L 285.983277 24.22481 
L 287.12458 24.22481 
L 287.12458 22.251131 
L 288.265883 22.251131 
L 288.265883 22.05704 
L 289.407186 22.05704 
L 289.407186 19.622079 
L 290.548489 19.622079 
L 290.548489 20.121171 
L 291.689792 20.121171 
L 291.689792 24.086173 
L 292.831095 24.086173 
L 292.831095 22.8939 
L 293.972398 22.8939 
L 293.972398 22.669561 
L 295.113701 22.669561 
L 295.113701 23.35266 
L 296.255004 23.35266 
L 296.255004 26.765638 
L 297.396307 26.765638 
L 297.396307 25.384315 
L 298.53761 25.384315 
L 298.53761 25.548158 
L 299.678913 25.548158 
L 299.678913 23.975264 
L 300.820216 23.975264 
L 300.820216 24.320595 
L 301.961519 24.320595 
L 301.961519 22.485552 
L 304.244125 22.503197 
L 304.244125 23.045139 
L 305.385428 23.045139 
L 305.385428 25.238116 
L 307.668034 25.250719 
L 307.668034 25.7851 
L 308.809337 25.7851 
L 308.809337 27.897415 
L 309.95064 27.897415 
L 309.95064 29.419896 
L 311.091943 29.419896 
L 311.091943 30.402954 
L 312.233246 30.402954 
L 312.233246 30.949938 
L 313.374549 30.949938 
L 313.374549 31.358285 
L 314.515852 31.358285 
L 314.515852 31.045723 
L 315.657155 31.045723 
L 315.657155 30.859194 
L 316.798458 30.859194 
L 316.798458 31.295269 
L 317.939761 31.295269 
L 317.939761 30.879359 
L 319.081064 30.879359 
L 319.081064 30.69283 
L 320.222367 30.69283 
L 320.222367 32.575765 
L 321.36367 32.575765 
L 321.36367 30.171053 
L 322.504973 30.171053 
L 322.504973 29.230846 
L 324.78758 29.316548 
L 324.78758 29.757664 
L 325.928883 29.757664 
L 325.928883 32.832873 
L 327.070186 32.832873 
L 327.070186 35.227503 
L 328.211489 35.227503 
L 328.211489 37.092793 
L 329.352792 37.092793 
L 329.352792 39.774778 
L 330.494095 39.774778 
L 330.494095 42.484491 
L 331.635398 42.484491 
L 331.635398 43.739781 
L 332.776701 43.739781 
L 332.776701 43.371764 
L 335.059307 43.39445 
L 335.059307 41.975317 
L 336.20061 41.975317 
L 336.20061 41.032589 
L 337.341913 41.032589 
L 337.341913 42.033292 
L 338.483216 42.033292 
L 338.483216 41.549325 
L 339.624519 41.549325 
L 339.624519 42.179491 
L 341.907125 42.111433 
L 341.907125 42.497094 
L 344.189731 42.487012 
L 344.189731 41.927424 
L 345.331034 41.927424 
L 345.331034 43.117177 
L 346.472337 43.117177 
L 346.472337 42.880235 
L 347.61364 42.880235 
L 347.61364 40.08482 
L 348.754943 40.08482 
L 348.754943 38.065769 
L 349.896246 38.065769 
L 349.896246 38.688373 
L 351.037549 38.688373 
L 351.037549 39.084117 
L 352.178852 39.084117 
L 352.178852 40.0092 
L 353.320155 40.0092 
L 353.320155 39.507588 
L 354.461458 39.507588 
L 354.461458 41.761061 
L 355.602761 41.761061 
L 355.602761 43.439822 
L 356.744064 43.439822 
L 356.744064 42.255111 
L 357.885367 42.255111 
L 357.885367 43.268417 
L 359.02667 43.268417 
L 359.02667 42.630689 
L 360.167973 42.630689 
L 360.167973 45.71346 
L 361.309277 45.71346 
L 361.309277 46.32094 
L 362.45058 46.32094 
L 362.45058 47.936685 
L 363.591883 47.936685 
L 363.591883 49.24995 
L 364.733186 49.24995 
L 364.733186 50.464909 
L 365.874489 50.464909 
L 365.874489 50.928711 
L 367.015792 50.928711 
L 367.015792 51.677348 
L 368.157095 51.677348 
L 368.157095 53.560283 
L 369.298398 53.560283 
L 369.298398 54.820615 
L 370.439701 54.820615 
L 370.439701 53.530035 
L 371.581004 53.530035 
L 371.581004 55.990202 
L 372.722307 55.990202 
L 372.722307 56.74388 
L 373.86361 56.74388 
L 373.86361 58.954502 
L 375.004913 58.954502 
L 375.004913 58.808303 
L 376.146216 58.808303 
L 376.146216 58.183179 
L 377.287519 58.183179 
L 377.287519 59.839254 
L 378.428822 59.839254 
L 378.428822 62.511157 
L 379.570125 62.511157 
L 379.570125 62.780868 
L 380.711428 62.780868 
L 380.711428 61.631445 
L 381.852731 61.631445 
L 381.852731 60.522354 
L 382.994034 60.522354 
L 382.994034 63.403471 
L 384.135337 63.403471 
L 384.135337 68.724591 
L 385.27664 68.724591 
L 385.27664 77.904844 
L 386.417943 77.904844 
L 386.417943 108.77036 
L 387.559246 108.77036 
L 387.559246 144.493193 
L 388.700549 144.493193 
L 388.700549 179.54553 
L 389.841852 179.54553 
L 389.841852 197.986699 
L 390.983155 197.986699 
L 390.983155 204.484968 
L 392.124458 204.484968 
L 392.124458 209.916996 
L 393.265761 209.916996 
L 393.265761 213.513982 
L 394.407064 213.513982 
L 394.407064 216.695058 
L 395.548367 216.695058 
L 395.548367 219.659358 
L 396.68967 219.659358 
L 396.68967 223.415145 
L 397.830973 223.415145 
L 397.830973 227.254115 
L 398.972277 227.254115 
L 398.972277 230.359571 
L 400.11358 230.359571 
L 400.11358 230.359571 
" clip-path="url(#p2fb4b09fa0)" style="fill: none; stroke: #1f77b4; stroke-width: 1.5; stroke-linecap: square"/>
   </g>
   <g id="LineCollection_1">
    <path d="M 58.293322 205.855521 
L 58.293322 205.347722 
" clip-path="url(#p2fb4b09fa0)" style="fill: none; stroke: #1f77b4; stroke-width: 1.5"/>
    <path d="M 59.434625 210.735087 
L 59.434625 210.278575 
" clip-path="url(#p2fb4b09fa0)" style="fill: none; stroke: #1f77b4; stroke-width: 1.5"/>
    <path d="M 60.575928 212.213913 
L 60.575928 211.774131 
" clip-path="url(#p2fb4b09fa0)" style="fill: none; stroke: #1f77b4; stroke-width: 1.5"/>
    <path d="M 61.717231 213.677374 
L 61.717231 213.254804 
" clip-path="url(#p2fb4b09fa0)" style="fill: none; stroke: #1f77b4; stroke-width: 1.5"/>
    <path d="M 62.858534 214.65699 
L 62.858534 214.246347 
" clip-path="url(#p2fb4b09fa0)" style="fill: none; stroke: #1f77b4; stroke-width: 1.5"/>
    <path d="M 63.999837 214.874937 
L 63.999837 214.466995 
" clip-path="url(#p2fb4b09fa0)" style="fill: none; stroke: #1f77b4; stroke-width: 1.5"/>
    <path d="M 65.14114 215.5688 
L 65.14114 215.169579 
" clip-path="url(#p2fb4b09fa0)" style="fill: none; stroke: #1f77b4; stroke-width: 1.5"/>
    <path d="M 66.282443 216.222495 
L 66.282443 215.83167 
" clip-path="url(#p2fb4b09fa0)" style="fill: none; stroke: #1f77b4; stroke-width: 1.5"/>
    <path d="M 67.423746 215.188064 
L 67.423746 214.784034 
" clip-path="url(#p2fb4b09fa0)" style="fill: none; stroke: #1f77b4; stroke-width: 1.5"/>
    <path d="M 68.565049 212.401876 
L 68.565049 211.964267 
" clip-path="url(#p2fb4b09fa0)" style="fill: none; stroke: #1f77b4; stroke-width: 1.5"/>
    <path d="M 69.706352 209.461554 
L 69.706352 208.991115 
" clip-path="url(#p2fb4b09fa0)" style="fill: none; stroke: #1f77b4; stroke-width: 1.5"/>
    <path d="M 70.847655 208.49875 
L 70.847655 208.01805 
" clip-path="url(#p2fb4b09fa0)" style="fill: none; stroke: #1f77b4; stroke-width: 1.5"/>
    <path d="M 71.988958 206.893841 
L 71.988958 206.39651 
" clip-path="url(#p2fb4b09fa0)" style="fill: none; stroke: #1f77b4; stroke-width: 1.5"/>
    <path d="M 73.130261 206.542731 
L 73.130261 206.041835 
" clip-path="url(#p2fb4b09fa0)" style="fill: none; stroke: #1f77b4; stroke-width: 1.5"/>
    <path d="M 74.271564 205.358895 
L 74.271564 204.846165 
" clip-path="url(#p2fb4b09fa0)" style="fill: none; stroke: #1f77b4; stroke-width: 1.5"/>
    <path d="M 75.412867 203.949155 
L 75.412867 203.42268 
" clip-path="url(#p2fb4b09fa0)" style="fill: none; stroke: #1f77b4; stroke-width: 1.5"/>
    <path d="M 76.55417 203.156412 
L 76.55417 202.622364 
" clip-path="url(#p2fb4b09fa0)" style="fill: none; stroke: #1f77b4; stroke-width: 1.5"/>
    <path d="M 77.695473 201.896946 
L 77.695473 201.351085 
" clip-path="url(#p2fb4b09fa0)" style="fill: none; stroke: #1f77b4; stroke-width: 1.5"/>
    <path d="M 78.836777 200.592189 
L 78.836777 200.034353 
" clip-path="url(#p2fb4b09fa0)" style="fill: none; stroke: #1f77b4; stroke-width: 1.5"/>
    <path d="M 79.97808 198.903346 
L 79.97808 198.330384 
" clip-path="url(#p2fb4b09fa0)" style="fill: none; stroke: #1f77b4; stroke-width: 1.5"/>
    <path d="M 81.119383 197.528036 
L 81.119383 196.943047 
" clip-path="url(#p2fb4b09fa0)" style="fill: none; stroke: #1f77b4; stroke-width: 1.5"/>
    <path d="M 82.260686 195.550191 
L 82.260686 194.948328 
" clip-path="url(#p2fb4b09fa0)" style="fill: none; stroke: #1f77b4; stroke-width: 1.5"/>
    <path d="M 83.401989 194.018959 
L 83.401989 193.404351 
" clip-path="url(#p2fb4b09fa0)" style="fill: none; stroke: #1f77b4; stroke-width: 1.5"/>
    <path d="M 84.543292 192.198884 
L 84.543292 191.569465 
" clip-path="url(#p2fb4b09fa0)" style="fill: none; stroke: #1f77b4; stroke-width: 1.5"/>
    <path d="M 85.684595 189.673094 
L 85.684595 189.023682 
" clip-path="url(#p2fb4b09fa0)" style="fill: none; stroke: #1f77b4; stroke-width: 1.5"/>
    <path d="M 86.825898 187.327808 
L 86.825898 186.66037 
" clip-path="url(#p2fb4b09fa0)" style="fill: none; stroke: #1f77b4; stroke-width: 1.5"/>
    <path d="M 87.967201 185.070183 
L 87.967201 184.385843 
" clip-path="url(#p2fb4b09fa0)" style="fill: none; stroke: #1f77b4; stroke-width: 1.5"/>
    <path d="M 89.108504 182.641565 
L 89.108504 181.939498 
" clip-path="url(#p2fb4b09fa0)" style="fill: none; stroke: #1f77b4; stroke-width: 1.5"/>
    <path d="M 90.249807 179.918844 
L 90.249807 179.197423 
" clip-path="url(#p2fb4b09fa0)" style="fill: none; stroke: #1f77b4; stroke-width: 1.5"/>
    <path d="M 91.39111 177.861563 
L 91.39111 177.125858 
" clip-path="url(#p2fb4b09fa0)" style="fill: none; stroke: #1f77b4; stroke-width: 1.5"/>
    <path d="M 92.532413 174.839453 
L 92.532413 174.083254 
" clip-path="url(#p2fb4b09fa0)" style="fill: none; stroke: #1f77b4; stroke-width: 1.5"/>
    <path d="M 93.673716 172.080881 
L 93.673716 171.30645 
" clip-path="url(#p2fb4b09fa0)" style="fill: none; stroke: #1f77b4; stroke-width: 1.5"/>
    <path d="M 94.815019 171.050758 
L 94.815019 170.269629 
" clip-path="url(#p2fb4b09fa0)" style="fill: none; stroke: #1f77b4; stroke-width: 1.5"/>
    <path d="M 95.956322 167.296857 
L 95.956322 166.49179 
" clip-path="url(#p2fb4b09fa0)" style="fill: none; stroke: #1f77b4; stroke-width: 1.5"/>
    <path d="M 97.097625 164.557847 
L 97.097625 163.735755 
" clip-path="url(#p2fb4b09fa0)" style="fill: none; stroke: #1f77b4; stroke-width: 1.5"/>
    <path d="M 98.238928 162.260966 
L 98.238928 161.424865 
" clip-path="url(#p2fb4b09fa0)" style="fill: none; stroke: #1f77b4; stroke-width: 1.5"/>
    <path d="M 99.380231 160.117273 
L 99.380231 159.268307 
" clip-path="url(#p2fb4b09fa0)" style="fill: none; stroke: #1f77b4; stroke-width: 1.5"/>
    <path d="M 100.521534 157.872952 
L 100.521534 157.010724 
" clip-path="url(#p2fb4b09fa0)" style="fill: none; stroke: #1f77b4; stroke-width: 1.5"/>
    <path d="M 101.662837 155.957786 
L 101.662837 155.0844 
" clip-path="url(#p2fb4b09fa0)" style="fill: none; stroke: #1f77b4; stroke-width: 1.5"/>
    <path d="M 102.80414 152.866229 
L 102.80414 151.975126 
" clip-path="url(#p2fb4b09fa0)" style="fill: none; stroke: #1f77b4; stroke-width: 1.5"/>
    <path d="M 103.945443 152.340899 
L 103.945443 151.44682 
" clip-path="url(#p2fb4b09fa0)" style="fill: none; stroke: #1f77b4; stroke-width: 1.5"/>
    <path d="M 105.086746 151.916106 
L 105.086746 151.019628 
" clip-path="url(#p2fb4b09fa0)" style="fill: none; stroke: #1f77b4; stroke-width: 1.5"/>
    <path d="M 106.228049 150.101276 
L 106.228049 149.194622 
" clip-path="url(#p2fb4b09fa0)" style="fill: none; stroke: #1f77b4; stroke-width: 1.5"/>
    <path d="M 107.369352 150.659304 
L 107.369352 149.755767 
" clip-path="url(#p2fb4b09fa0)" style="fill: none; stroke: #1f77b4; stroke-width: 1.5"/>
    <path d="M 108.510655 148.829353 
L 108.510655 147.915634 
" clip-path="url(#p2fb4b09fa0)" style="fill: none; stroke: #1f77b4; stroke-width: 1.5"/>
    <path d="M 109.651958 147.569971 
L 109.651958 146.649311 
" clip-path="url(#p2fb4b09fa0)" style="fill: none; stroke: #1f77b4; stroke-width: 1.5"/>
    <path d="M 110.793261 148.384424 
L 110.793261 147.468248 
" clip-path="url(#p2fb4b09fa0)" style="fill: none; stroke: #1f77b4; stroke-width: 1.5"/>
    <path d="M 111.934564 147.66298 
L 111.934564 146.742831 
" clip-path="url(#p2fb4b09fa0)" style="fill: none; stroke: #1f77b4; stroke-width: 1.5"/>
    <path d="M 113.075867 150.00827 
L 113.075867 149.101098 
" clip-path="url(#p2fb4b09fa0)" style="fill: none; stroke: #1f77b4; stroke-width: 1.5"/>
    <path d="M 114.21717 150.030893 
L 114.21717 149.123847 
" clip-path="url(#p2fb4b09fa0)" style="fill: none; stroke: #1f77b4; stroke-width: 1.5"/>
    <path d="M 115.358473 152.733012 
L 115.358473 151.841153 
" clip-path="url(#p2fb4b09fa0)" style="fill: none; stroke: #1f77b4; stroke-width: 1.5"/>
    <path d="M 116.499777 151.290222 
L 116.499777 150.390222 
" clip-path="url(#p2fb4b09fa0)" style="fill: none; stroke: #1f77b4; stroke-width: 1.5"/>
    <path d="M 117.64108 147.647898 
L 117.64108 146.727666 
" clip-path="url(#p2fb4b09fa0)" style="fill: none; stroke: #1f77b4; stroke-width: 1.5"/>
    <path d="M 118.782383 145.993823 
L 118.782383 145.064549 
" clip-path="url(#p2fb4b09fa0)" style="fill: none; stroke: #1f77b4; stroke-width: 1.5"/>
    <path d="M 119.923686 144.435232 
L 119.923686 143.497518 
" clip-path="url(#p2fb4b09fa0)" style="fill: none; stroke: #1f77b4; stroke-width: 1.5"/>
    <path d="M 121.064989 143.065149 
L 121.064989 142.120078 
" clip-path="url(#p2fb4b09fa0)" style="fill: none; stroke: #1f77b4; stroke-width: 1.5"/>
    <path d="M 122.206292 143.748937 
L 122.206292 142.807531 
" clip-path="url(#p2fb4b09fa0)" style="fill: none; stroke: #1f77b4; stroke-width: 1.5"/>
    <path d="M 123.347595 144.168759 
L 123.347595 143.22961 
" clip-path="url(#p2fb4b09fa0)" style="fill: none; stroke: #1f77b4; stroke-width: 1.5"/>
    <path d="M 124.488898 141.466264 
L 124.488898 140.51268 
" clip-path="url(#p2fb4b09fa0)" style="fill: none; stroke: #1f77b4; stroke-width: 1.5"/>
    <path d="M 125.630201 140.0031 
L 125.630201 139.041792 
" clip-path="url(#p2fb4b09fa0)" style="fill: none; stroke: #1f77b4; stroke-width: 1.5"/>
    <path d="M 126.771504 138.283467 
L 126.771504 137.313159 
" clip-path="url(#p2fb4b09fa0)" style="fill: none; stroke: #1f77b4; stroke-width: 1.5"/>
    <path d="M 127.912807 138.001885 
L 127.912807 137.030112 
" clip-path="url(#p2fb4b09fa0)" style="fill: none; stroke: #1f77b4; stroke-width: 1.5"/>
    <path d="M 129.05411 137.129479 
L 129.05411 136.153178 
" clip-path="url(#p2fb4b09fa0)" style="fill: none; stroke: #1f77b4; stroke-width: 1.5"/>
    <path d="M 130.195413 133.571865 
L 130.195413 132.577317 
" clip-path="url(#p2fb4b09fa0)" style="fill: none; stroke: #1f77b4; stroke-width: 1.5"/>
    <path d="M 131.336716 132.890493 
L 131.336716 131.892489 
" clip-path="url(#p2fb4b09fa0)" style="fill: none; stroke: #1f77b4; stroke-width: 1.5"/>
    <path d="M 132.478019 132.138715 
L 132.478019 131.136911 
" clip-path="url(#p2fb4b09fa0)" style="fill: none; stroke: #1f77b4; stroke-width: 1.5"/>
    <path d="M 133.619322 130.977091 
L 133.619322 129.969443 
" clip-path="url(#p2fb4b09fa0)" style="fill: none; stroke: #1f77b4; stroke-width: 1.5"/>
    <path d="M 134.760625 129.377944 
L 134.760625 128.362307 
" clip-path="url(#p2fb4b09fa0)" style="fill: none; stroke: #1f77b4; stroke-width: 1.5"/>
    <path d="M 135.901928 129.134046 
L 135.901928 128.117196 
" clip-path="url(#p2fb4b09fa0)" style="fill: none; stroke: #1f77b4; stroke-width: 1.5"/>
    <path d="M 137.043231 126.989223 
L 137.043231 125.961769 
" clip-path="url(#p2fb4b09fa0)" style="fill: none; stroke: #1f77b4; stroke-width: 1.5"/>
    <path d="M 138.184534 125.550929 
L 138.184534 124.516425 
" clip-path="url(#p2fb4b09fa0)" style="fill: none; stroke: #1f77b4; stroke-width: 1.5"/>
    <path d="M 139.325837 123.891329 
L 139.325837 122.848749 
" clip-path="url(#p2fb4b09fa0)" style="fill: none; stroke: #1f77b4; stroke-width: 1.5"/>
    <path d="M 140.46714 122.623978 
L 140.46714 121.575273 
" clip-path="url(#p2fb4b09fa0)" style="fill: none; stroke: #1f77b4; stroke-width: 1.5"/>
    <path d="M 141.608443 122.085851 
L 141.608443 121.034556 
" clip-path="url(#p2fb4b09fa0)" style="fill: none; stroke: #1f77b4; stroke-width: 1.5"/>
    <path d="M 142.749746 119.405228 
L 142.749746 118.341126 
" clip-path="url(#p2fb4b09fa0)" style="fill: none; stroke: #1f77b4; stroke-width: 1.5"/>
    <path d="M 143.891049 118.03974 
L 143.891049 116.969173 
" clip-path="url(#p2fb4b09fa0)" style="fill: none; stroke: #1f77b4; stroke-width: 1.5"/>
    <path d="M 145.032352 116.694351 
L 145.032352 115.617453 
" clip-path="url(#p2fb4b09fa0)" style="fill: none; stroke: #1f77b4; stroke-width: 1.5"/>
    <path d="M 146.173655 114.727787 
L 146.173655 113.641701 
" clip-path="url(#p2fb4b09fa0)" style="fill: none; stroke: #1f77b4; stroke-width: 1.5"/>
    <path d="M 147.314958 114.34302 
L 147.314958 113.255145 
" clip-path="url(#p2fb4b09fa0)" style="fill: none; stroke: #1f77b4; stroke-width: 1.5"/>
    <path d="M 148.456261 111.088788 
L 148.456261 109.985901 
" clip-path="url(#p2fb4b09fa0)" style="fill: none; stroke: #1f77b4; stroke-width: 1.5"/>
    <path d="M 149.597564 108.67194 
L 149.597564 107.558036 
" clip-path="url(#p2fb4b09fa0)" style="fill: none; stroke: #1f77b4; stroke-width: 1.5"/>
    <path d="M 150.738867 108.526073 
L 150.738867 107.411506 
" clip-path="url(#p2fb4b09fa0)" style="fill: none; stroke: #1f77b4; stroke-width: 1.5"/>
    <path d="M 151.88017 105.686644 
L 151.88017 104.559279 
" clip-path="url(#p2fb4b09fa0)" style="fill: none; stroke: #1f77b4; stroke-width: 1.5"/>
    <path d="M 153.021473 103.727421 
L 153.021473 102.591309 
" clip-path="url(#p2fb4b09fa0)" style="fill: none; stroke: #1f77b4; stroke-width: 1.5"/>
    <path d="M 154.162777 103.956292 
L 154.162777 102.821199 
" clip-path="url(#p2fb4b09fa0)" style="fill: none; stroke: #1f77b4; stroke-width: 1.5"/>
    <path d="M 155.30408 100.324481 
L 155.30408 99.173335 
" clip-path="url(#p2fb4b09fa0)" style="fill: none; stroke: #1f77b4; stroke-width: 1.5"/>
    <path d="M 156.445383 98.417987 
L 156.445383 97.258504 
" clip-path="url(#p2fb4b09fa0)" style="fill: none; stroke: #1f77b4; stroke-width: 1.5"/>
    <path d="M 157.586686 95.792108 
L 157.586686 94.621239 
" clip-path="url(#p2fb4b09fa0)" style="fill: none; stroke: #1f77b4; stroke-width: 1.5"/>
    <path d="M 158.727989 92.839187 
L 158.727989 91.655645 
" clip-path="url(#p2fb4b09fa0)" style="fill: none; stroke: #1f77b4; stroke-width: 1.5"/>
    <path d="M 159.869292 91.893432 
L 159.869292 90.705861 
" clip-path="url(#p2fb4b09fa0)" style="fill: none; stroke: #1f77b4; stroke-width: 1.5"/>
    <path d="M 161.010595 90.912457 
L 161.010595 89.720719 
" clip-path="url(#p2fb4b09fa0)" style="fill: none; stroke: #1f77b4; stroke-width: 1.5"/>
    <path d="M 162.151898 88.329187 
L 162.151898 87.126548 
" clip-path="url(#p2fb4b09fa0)" style="fill: none; stroke: #1f77b4; stroke-width: 1.5"/>
    <path d="M 163.293201 86.862713 
L 163.293201 85.653929 
" clip-path="url(#p2fb4b09fa0)" style="fill: none; stroke: #1f77b4; stroke-width: 1.5"/>
    <path d="M 164.434504 84.621467 
L 164.434504 83.403353 
" clip-path="url(#p2fb4b09fa0)" style="fill: none; stroke: #1f77b4; stroke-width: 1.5"/>
    <path d="M 165.575807 83.718419 
L 165.575807 82.496566 
" clip-path="url(#p2fb4b09fa0)" style="fill: none; stroke: #1f77b4; stroke-width: 1.5"/>
    <path d="M 166.71711 81.346318 
L 166.71711 80.114697 
" clip-path="url(#p2fb4b09fa0)" style="fill: none; stroke: #1f77b4; stroke-width: 1.5"/>
    <path d="M 167.858413 80.053344 
L 167.858413 78.81643 
" clip-path="url(#p2fb4b09fa0)" style="fill: none; stroke: #1f77b4; stroke-width: 1.5"/>
    <path d="M 168.999716 78.033363 
L 168.999716 76.788227 
" clip-path="url(#p2fb4b09fa0)" style="fill: none; stroke: #1f77b4; stroke-width: 1.5"/>
    <path d="M 170.141019 77.256052 
L 170.141019 76.007767 
" clip-path="url(#p2fb4b09fa0)" style="fill: none; stroke: #1f77b4; stroke-width: 1.5"/>
    <path d="M 171.282322 73.809679 
L 171.282322 72.547524 
" clip-path="url(#p2fb4b09fa0)" style="fill: none; stroke: #1f77b4; stroke-width: 1.5"/>
    <path d="M 172.423625 73.502772 
L 172.423625 72.239389 
" clip-path="url(#p2fb4b09fa0)" style="fill: none; stroke: #1f77b4; stroke-width: 1.5"/>
    <path d="M 173.564928 72.134262 
L 173.564928 70.865419 
" clip-path="url(#p2fb4b09fa0)" style="fill: none; stroke: #1f77b4; stroke-width: 1.5"/>
    <path d="M 174.706231 69.983362 
L 174.706231 68.705985 
" clip-path="url(#p2fb4b09fa0)" style="fill: none; stroke: #1f77b4; stroke-width: 1.5"/>
    <path d="M 175.847534 67.200987 
L 175.847534 65.912654 
" clip-path="url(#p2fb4b09fa0)" style="fill: none; stroke: #1f77b4; stroke-width: 1.5"/>
    <path d="M 176.988837 66.056325 
L 176.988837 64.763513 
" clip-path="url(#p2fb4b09fa0)" style="fill: none; stroke: #1f77b4; stroke-width: 1.5"/>
    <path d="M 178.13014 65.296568 
L 178.13014 64.00079 
" clip-path="url(#p2fb4b09fa0)" style="fill: none; stroke: #1f77b4; stroke-width: 1.5"/>
    <path d="M 179.271443 63.065075 
L 179.271443 61.760627 
" clip-path="url(#p2fb4b09fa0)" style="fill: none; stroke: #1f77b4; stroke-width: 1.5"/>
    <path d="M 180.412746 60.914059 
L 180.412746 59.601309 
" clip-path="url(#p2fb4b09fa0)" style="fill: none; stroke: #1f77b4; stroke-width: 1.5"/>
    <path d="M 181.554049 60.52159 
L 181.554049 59.207331 
" clip-path="url(#p2fb4b09fa0)" style="fill: none; stroke: #1f77b4; stroke-width: 1.5"/>
    <path d="M 182.695352 58.974349 
L 182.695352 57.654157 
" clip-path="url(#p2fb4b09fa0)" style="fill: none; stroke: #1f77b4; stroke-width: 1.5"/>
    <path d="M 183.836655 57.469865 
L 183.836655 56.143929 
" clip-path="url(#p2fb4b09fa0)" style="fill: none; stroke: #1f77b4; stroke-width: 1.5"/>
    <path d="M 184.977958 56.654721 
L 184.977958 55.325684 
" clip-path="url(#p2fb4b09fa0)" style="fill: none; stroke: #1f77b4; stroke-width: 1.5"/>
    <path d="M 186.119261 54.538852 
L 186.119261 53.201798 
" clip-path="url(#p2fb4b09fa0)" style="fill: none; stroke: #1f77b4; stroke-width: 1.5"/>
    <path d="M 187.260564 52.412895 
L 187.260564 51.067834 
" clip-path="url(#p2fb4b09fa0)" style="fill: none; stroke: #1f77b4; stroke-width: 1.5"/>
    <path d="M 188.401867 52.032988 
L 188.401867 50.686501 
" clip-path="url(#p2fb4b09fa0)" style="fill: none; stroke: #1f77b4; stroke-width: 1.5"/>
    <path d="M 189.54317 49.247818 
L 189.54317 47.890924 
" clip-path="url(#p2fb4b09fa0)" style="fill: none; stroke: #1f77b4; stroke-width: 1.5"/>
    <path d="M 190.684473 47.572168 
L 190.684473 46.209051 
" clip-path="url(#p2fb4b09fa0)" style="fill: none; stroke: #1f77b4; stroke-width: 1.5"/>
    <path d="M 191.825777 46.626149 
L 191.825777 45.259531 
" clip-path="url(#p2fb4b09fa0)" style="fill: none; stroke: #1f77b4; stroke-width: 1.5"/>
    <path d="M 192.96708 46.955747 
L 192.96708 45.590348 
" clip-path="url(#p2fb4b09fa0)" style="fill: none; stroke: #1f77b4; stroke-width: 1.5"/>
    <path d="M 194.108383 45.337946 
L 194.108383 43.966576 
" clip-path="url(#p2fb4b09fa0)" style="fill: none; stroke: #1f77b4; stroke-width: 1.5"/>
    <path d="M 195.249686 43.762905 
L 195.249686 42.385747 
" clip-path="url(#p2fb4b09fa0)" style="fill: none; stroke: #1f77b4; stroke-width: 1.5"/>
    <path d="M 196.390989 43.460979 
L 196.390989 42.082714 
" clip-path="url(#p2fb4b09fa0)" style="fill: none; stroke: #1f77b4; stroke-width: 1.5"/>
    <path d="M 197.532292 41.777733 
L 197.532292 40.393313 
" clip-path="url(#p2fb4b09fa0)" style="fill: none; stroke: #1f77b4; stroke-width: 1.5"/>
    <path d="M 198.673595 40.615304 
L 198.673595 39.22665 
" clip-path="url(#p2fb4b09fa0)" style="fill: none; stroke: #1f77b4; stroke-width: 1.5"/>
    <path d="M 199.814898 41.561351 
L 199.814898 40.176141 
" clip-path="url(#p2fb4b09fa0)" style="fill: none; stroke: #1f77b4; stroke-width: 1.5"/>
    <path d="M 200.956201 39.74222 
L 200.956201 38.350394 
" clip-path="url(#p2fb4b09fa0)" style="fill: none; stroke: #1f77b4; stroke-width: 1.5"/>
    <path d="M 202.097504 38.141976 
L 202.097504 36.744355 
" clip-path="url(#p2fb4b09fa0)" style="fill: none; stroke: #1f77b4; stroke-width: 1.5"/>
    <path d="M 203.238807 37.550687 
L 203.238807 36.150932 
" clip-path="url(#p2fb4b09fa0)" style="fill: none; stroke: #1f77b4; stroke-width: 1.5"/>
    <path d="M 204.38011 36.637333 
L 204.38011 35.234285 
" clip-path="url(#p2fb4b09fa0)" style="fill: none; stroke: #1f77b4; stroke-width: 1.5"/>
    <path d="M 205.521413 35.814555 
L 205.521413 34.408549 
" clip-path="url(#p2fb4b09fa0)" style="fill: none; stroke: #1f77b4; stroke-width: 1.5"/>
    <path d="M 206.662716 35.459779 
L 206.662716 34.052499 
" clip-path="url(#p2fb4b09fa0)" style="fill: none; stroke: #1f77b4; stroke-width: 1.5"/>
    <path d="M 207.804019 36.41088 
L 207.804019 35.007018 
" clip-path="url(#p2fb4b09fa0)" style="fill: none; stroke: #1f77b4; stroke-width: 1.5"/>
    <path d="M 208.945322 35.638425 
L 208.945322 34.231787 
" clip-path="url(#p2fb4b09fa0)" style="fill: none; stroke: #1f77b4; stroke-width: 1.5"/>
    <path d="M 210.086625 33.955117 
L 210.086625 32.542448 
" clip-path="url(#p2fb4b09fa0)" style="fill: none; stroke: #1f77b4; stroke-width: 1.5"/>
    <path d="M 211.227928 34.402994 
L 211.227928 32.991927 
" clip-path="url(#p2fb4b09fa0)" style="fill: none; stroke: #1f77b4; stroke-width: 1.5"/>
    <path d="M 212.369231 32.44038 
L 212.369231 31.022306 
" clip-path="url(#p2fb4b09fa0)" style="fill: none; stroke: #1f77b4; stroke-width: 1.5"/>
    <path d="M 213.510534 30.515493 
L 213.510534 29.09058 
" clip-path="url(#p2fb4b09fa0)" style="fill: none; stroke: #1f77b4; stroke-width: 1.5"/>
    <path d="M 214.651837 31.773591 
L 214.651837 30.353145 
" clip-path="url(#p2fb4b09fa0)" style="fill: none; stroke: #1f77b4; stroke-width: 1.5"/>
    <path d="M 215.79314 32.752387 
L 215.79314 31.335424 
" clip-path="url(#p2fb4b09fa0)" style="fill: none; stroke: #1f77b4; stroke-width: 1.5"/>
    <path d="M 216.934443 32.523414 
L 216.934443 31.105636 
" clip-path="url(#p2fb4b09fa0)" style="fill: none; stroke: #1f77b4; stroke-width: 1.5"/>
    <path d="M 218.075746 30.701692 
L 218.075746 29.277439 
" clip-path="url(#p2fb4b09fa0)" style="fill: none; stroke: #1f77b4; stroke-width: 1.5"/>
    <path d="M 219.217049 31.109316 
L 219.217049 29.68651 
" clip-path="url(#p2fb4b09fa0)" style="fill: none; stroke: #1f77b4; stroke-width: 1.5"/>
    <path d="M 220.358352 31.368484 
L 220.358352 29.946598 
" clip-path="url(#p2fb4b09fa0)" style="fill: none; stroke: #1f77b4; stroke-width: 1.5"/>
    <path d="M 221.499655 30.135546 
L 221.499655 28.709287 
" clip-path="url(#p2fb4b09fa0)" style="fill: none; stroke: #1f77b4; stroke-width: 1.5"/>
    <path d="M 222.640958 29.692693 
L 222.640958 28.264867 
" clip-path="url(#p2fb4b09fa0)" style="fill: none; stroke: #1f77b4; stroke-width: 1.5"/>
    <path d="M 223.782261 30.296583 
L 223.782261 28.870895 
" clip-path="url(#p2fb4b09fa0)" style="fill: none; stroke: #1f77b4; stroke-width: 1.5"/>
    <path d="M 224.923564 29.068671 
L 224.923564 27.63864 
" clip-path="url(#p2fb4b09fa0)" style="fill: none; stroke: #1f77b4; stroke-width: 1.5"/>
    <path d="M 226.064867 29.305196 
L 226.064867 27.876 
" clip-path="url(#p2fb4b09fa0)" style="fill: none; stroke: #1f77b4; stroke-width: 1.5"/>
    <path d="M 227.20617 29.891473 
L 227.20617 28.464351 
" clip-path="url(#p2fb4b09fa0)" style="fill: none; stroke: #1f77b4; stroke-width: 1.5"/>
    <path d="M 228.347473 29.551785 
L 228.347473 28.12346 
" clip-path="url(#p2fb4b09fa0)" style="fill: none; stroke: #1f77b4; stroke-width: 1.5"/>
    <path d="M 229.488777 27.60171 
L 229.488777 26.166508 
" clip-path="url(#p2fb4b09fa0)" style="fill: none; stroke: #1f77b4; stroke-width: 1.5"/>
    <path d="M 230.63008 27.760233 
L 230.63008 26.325588 
" clip-path="url(#p2fb4b09fa0)" style="fill: none; stroke: #1f77b4; stroke-width: 1.5"/>
    <path d="M 231.771383 28.12257 
L 231.771383 26.689202 
" clip-path="url(#p2fb4b09fa0)" style="fill: none; stroke: #1f77b4; stroke-width: 1.5"/>
    <path d="M 232.912686 26.947488 
L 232.912686 25.509985 
" clip-path="url(#p2fb4b09fa0)" style="fill: none; stroke: #1f77b4; stroke-width: 1.5"/>
    <path d="M 234.053989 26.771351 
L 234.053989 25.333229 
" clip-path="url(#p2fb4b09fa0)" style="fill: none; stroke: #1f77b4; stroke-width: 1.5"/>
    <path d="M 235.195292 26.648055 
L 235.195292 25.2095 
" clip-path="url(#p2fb4b09fa0)" style="fill: none; stroke: #1f77b4; stroke-width: 1.5"/>
    <path d="M 236.336595 27.289697 
L 236.336595 25.853397 
" clip-path="url(#p2fb4b09fa0)" style="fill: none; stroke: #1f77b4; stroke-width: 1.5"/>
    <path d="M 237.477898 28.698786 
L 237.477898 27.267449 
" clip-path="url(#p2fb4b09fa0)" style="fill: none; stroke: #1f77b4; stroke-width: 1.5"/>
    <path d="M 238.619201 29.765663 
L 238.619201 28.338095 
" clip-path="url(#p2fb4b09fa0)" style="fill: none; stroke: #1f77b4; stroke-width: 1.5"/>
    <path d="M 239.760504 28.419485 
L 239.760504 26.987163 
" clip-path="url(#p2fb4b09fa0)" style="fill: none; stroke: #1f77b4; stroke-width: 1.5"/>
    <path d="M 240.901807 27.918756 
L 240.901807 26.484669 
" clip-path="url(#p2fb4b09fa0)" style="fill: none; stroke: #1f77b4; stroke-width: 1.5"/>
    <path d="M 242.04311 29.576947 
L 242.04311 28.148712 
" clip-path="url(#p2fb4b09fa0)" style="fill: none; stroke: #1f77b4; stroke-width: 1.5"/>
    <path d="M 243.184413 30.09277 
L 243.184413 28.66636 
" clip-path="url(#p2fb4b09fa0)" style="fill: none; stroke: #1f77b4; stroke-width: 1.5"/>
    <path d="M 244.325716 27.790428 
L 244.325716 26.355889 
" clip-path="url(#p2fb4b09fa0)" style="fill: none; stroke: #1f77b4; stroke-width: 1.5"/>
    <path d="M 245.467019 26.826708 
L 245.467019 25.388781 
" clip-path="url(#p2fb4b09fa0)" style="fill: none; stroke: #1f77b4; stroke-width: 1.5"/>
    <path d="M 246.608322 27.604226 
L 246.608322 26.169033 
" clip-path="url(#p2fb4b09fa0)" style="fill: none; stroke: #1f77b4; stroke-width: 1.5"/>
    <path d="M 247.749625 26.620376 
L 247.749625 25.181725 
" clip-path="url(#p2fb4b09fa0)" style="fill: none; stroke: #1f77b4; stroke-width: 1.5"/>
    <path d="M 248.890928 26.240423 
L 248.890928 24.800438 
" clip-path="url(#p2fb4b09fa0)" style="fill: none; stroke: #1f77b4; stroke-width: 1.5"/>
    <path d="M 250.032231 27.604226 
L 250.032231 26.169033 
" clip-path="url(#p2fb4b09fa0)" style="fill: none; stroke: #1f77b4; stroke-width: 1.5"/>
    <path d="M 251.173534 26.844322 
L 251.173534 25.406457 
" clip-path="url(#p2fb4b09fa0)" style="fill: none; stroke: #1f77b4; stroke-width: 1.5"/>
    <path d="M 252.314837 25.115656 
L 252.314837 23.671732 
" clip-path="url(#p2fb4b09fa0)" style="fill: none; stroke: #1f77b4; stroke-width: 1.5"/>
    <path d="M 253.45614 26.73864 
L 253.45614 25.300403 
" clip-path="url(#p2fb4b09fa0)" style="fill: none; stroke: #1f77b4; stroke-width: 1.5"/>
    <path d="M 254.597443 26.47695 
L 254.597443 25.037795 
" clip-path="url(#p2fb4b09fa0)" style="fill: none; stroke: #1f77b4; stroke-width: 1.5"/>
    <path d="M 255.738746 24.896741 
L 255.738746 23.452052 
" clip-path="url(#p2fb4b09fa0)" style="fill: none; stroke: #1f77b4; stroke-width: 1.5"/>
    <path d="M 256.880049 24.149409 
L 256.880049 22.70211 
" clip-path="url(#p2fb4b09fa0)" style="fill: none; stroke: #1f77b4; stroke-width: 1.5"/>
    <path d="M 258.021352 21.942628 
L 258.021352 20.487649 
" clip-path="url(#p2fb4b09fa0)" style="fill: none; stroke: #1f77b4; stroke-width: 1.5"/>
    <path d="M 259.162655 24.723119 
L 259.162655 23.277823 
" clip-path="url(#p2fb4b09fa0)" style="fill: none; stroke: #1f77b4; stroke-width: 1.5"/>
    <path d="M 260.303958 22.395561 
L 260.303958 20.942154 
" clip-path="url(#p2fb4b09fa0)" style="fill: none; stroke: #1f77b4; stroke-width: 1.5"/>
    <path d="M 261.445261 22.116252 
L 261.445261 20.661876 
" clip-path="url(#p2fb4b09fa0)" style="fill: none; stroke: #1f77b4; stroke-width: 1.5"/>
    <path d="M 262.586564 20.54608 
L 262.586564 19.086261 
" clip-path="url(#p2fb4b09fa0)" style="fill: none; stroke: #1f77b4; stroke-width: 1.5"/>
    <path d="M 263.727867 19.29547 
L 263.727867 17.831332 
" clip-path="url(#p2fb4b09fa0)" style="fill: none; stroke: #1f77b4; stroke-width: 1.5"/>
    <path d="M 264.86917 22.13135 
L 264.86917 20.677026 
" clip-path="url(#p2fb4b09fa0)" style="fill: none; stroke: #1f77b4; stroke-width: 1.5"/>
    <path d="M 266.010473 20.734803 
L 266.010473 19.275637 
" clip-path="url(#p2fb4b09fa0)" style="fill: none; stroke: #1f77b4; stroke-width: 1.5"/>
    <path d="M 267.151777 19.292954 
L 267.151777 17.828807 
" clip-path="url(#p2fb4b09fa0)" style="fill: none; stroke: #1f77b4; stroke-width: 1.5"/>
    <path d="M 268.29308 20.435362 
L 268.29308 18.975161 
" clip-path="url(#p2fb4b09fa0)" style="fill: none; stroke: #1f77b4; stroke-width: 1.5"/>
    <path d="M 269.434383 22.272262 
L 269.434383 20.818428 
" clip-path="url(#p2fb4b09fa0)" style="fill: none; stroke: #1f77b4; stroke-width: 1.5"/>
    <path d="M 270.575686 24.177088 
L 270.575686 22.729885 
" clip-path="url(#p2fb4b09fa0)" style="fill: none; stroke: #1f77b4; stroke-width: 1.5"/>
    <path d="M 271.716989 25.226372 
L 271.716989 23.782835 
" clip-path="url(#p2fb4b09fa0)" style="fill: none; stroke: #1f77b4; stroke-width: 1.5"/>
    <path d="M 272.858292 23.409624 
L 272.858292 21.959745 
" clip-path="url(#p2fb4b09fa0)" style="fill: none; stroke: #1f77b4; stroke-width: 1.5"/>
    <path d="M 273.999595 23.185675 
L 273.999595 21.735017 
" clip-path="url(#p2fb4b09fa0)" style="fill: none; stroke: #1f77b4; stroke-width: 1.5"/>
    <path d="M 275.140898 23.817261 
L 275.140898 22.368803 
" clip-path="url(#p2fb4b09fa0)" style="fill: none; stroke: #1f77b4; stroke-width: 1.5"/>
    <path d="M 276.282201 22.136383 
L 276.282201 20.682076 
" clip-path="url(#p2fb4b09fa0)" style="fill: none; stroke: #1f77b4; stroke-width: 1.5"/>
    <path d="M 277.423504 22.463501 
L 277.423504 21.01033 
" clip-path="url(#p2fb4b09fa0)" style="fill: none; stroke: #1f77b4; stroke-width: 1.5"/>
    <path d="M 278.564807 22.974307 
L 278.564807 21.522913 
" clip-path="url(#p2fb4b09fa0)" style="fill: none; stroke: #1f77b4; stroke-width: 1.5"/>
    <path d="M 279.70611 23.183159 
L 279.70611 21.732491 
" clip-path="url(#p2fb4b09fa0)" style="fill: none; stroke: #1f77b4; stroke-width: 1.5"/>
    <path d="M 280.847413 23.198256 
L 280.847413 21.747642 
" clip-path="url(#p2fb4b09fa0)" style="fill: none; stroke: #1f77b4; stroke-width: 1.5"/>
    <path d="M 281.988716 22.088573 
L 281.988716 20.6341 
" clip-path="url(#p2fb4b09fa0)" style="fill: none; stroke: #1f77b4; stroke-width: 1.5"/>
    <path d="M 283.130019 22.493696 
L 283.130019 21.040631 
" clip-path="url(#p2fb4b09fa0)" style="fill: none; stroke: #1f77b4; stroke-width: 1.5"/>
    <path d="M 284.271322 22.745325 
L 284.271322 21.293134 
" clip-path="url(#p2fb4b09fa0)" style="fill: none; stroke: #1f77b4; stroke-width: 1.5"/>
    <path d="M 285.412625 24.217349 
L 285.412625 22.770286 
" clip-path="url(#p2fb4b09fa0)" style="fill: none; stroke: #1f77b4; stroke-width: 1.5"/>
    <path d="M 286.553928 24.947066 
L 286.553928 23.502553 
" clip-path="url(#p2fb4b09fa0)" style="fill: none; stroke: #1f77b4; stroke-width: 1.5"/>
    <path d="M 287.695231 22.976823 
L 287.695231 21.525438 
" clip-path="url(#p2fb4b09fa0)" style="fill: none; stroke: #1f77b4; stroke-width: 1.5"/>
    <path d="M 288.836534 22.783069 
L 288.836534 21.33101 
" clip-path="url(#p2fb4b09fa0)" style="fill: none; stroke: #1f77b4; stroke-width: 1.5"/>
    <path d="M 289.977837 20.352324 
L 289.977837 18.891835 
" clip-path="url(#p2fb4b09fa0)" style="fill: none; stroke: #1f77b4; stroke-width: 1.5"/>
    <path d="M 291.11914 20.850553 
L 291.11914 19.391788 
" clip-path="url(#p2fb4b09fa0)" style="fill: none; stroke: #1f77b4; stroke-width: 1.5"/>
    <path d="M 292.260443 24.808672 
L 292.260443 23.363675 
" clip-path="url(#p2fb4b09fa0)" style="fill: none; stroke: #1f77b4; stroke-width: 1.5"/>
    <path d="M 293.401746 23.618475 
L 293.401746 22.169324 
" clip-path="url(#p2fb4b09fa0)" style="fill: none; stroke: #1f77b4; stroke-width: 1.5"/>
    <path d="M 294.543049 23.394526 
L 294.543049 21.944595 
" clip-path="url(#p2fb4b09fa0)" style="fill: none; stroke: #1f77b4; stroke-width: 1.5"/>
    <path d="M 295.684352 24.076437 
L 295.684352 22.628883 
" clip-path="url(#p2fb4b09fa0)" style="fill: none; stroke: #1f77b4; stroke-width: 1.5"/>
    <path d="M 296.825655 27.483447 
L 296.825655 26.047828 
" clip-path="url(#p2fb4b09fa0)" style="fill: none; stroke: #1f77b4; stroke-width: 1.5"/>
    <path d="M 297.966958 26.104545 
L 297.966958 24.664084 
" clip-path="url(#p2fb4b09fa0)" style="fill: none; stroke: #1f77b4; stroke-width: 1.5"/>
    <path d="M 299.108261 26.268101 
L 299.108261 24.828214 
" clip-path="url(#p2fb4b09fa0)" style="fill: none; stroke: #1f77b4; stroke-width: 1.5"/>
    <path d="M 300.249564 24.697956 
L 300.249564 23.252572 
" clip-path="url(#p2fb4b09fa0)" style="fill: none; stroke: #1f77b4; stroke-width: 1.5"/>
    <path d="M 301.390867 25.042684 
L 301.390867 23.598505 
" clip-path="url(#p2fb4b09fa0)" style="fill: none; stroke: #1f77b4; stroke-width: 1.5"/>
    <path d="M 302.53217 23.210838 
L 302.53217 21.760267 
" clip-path="url(#p2fb4b09fa0)" style="fill: none; stroke: #1f77b4; stroke-width: 1.5"/>
    <path d="M 303.673473 23.228452 
L 303.673473 21.777942 
" clip-path="url(#p2fb4b09fa0)" style="fill: none; stroke: #1f77b4; stroke-width: 1.5"/>
    <path d="M 304.814777 23.769452 
L 304.814777 22.320827 
" clip-path="url(#p2fb4b09fa0)" style="fill: none; stroke: #1f77b4; stroke-width: 1.5"/>
    <path d="M 305.95608 25.958602 
L 305.95608 24.51763 
" clip-path="url(#p2fb4b09fa0)" style="fill: none; stroke: #1f77b4; stroke-width: 1.5"/>
    <path d="M 307.097383 25.971184 
L 307.097383 24.530255 
" clip-path="url(#p2fb4b09fa0)" style="fill: none; stroke: #1f77b4; stroke-width: 1.5"/>
    <path d="M 308.238686 26.504629 
L 308.238686 25.065571 
" clip-path="url(#p2fb4b09fa0)" style="fill: none; stroke: #1f77b4; stroke-width: 1.5"/>
    <path d="M 309.379989 28.613235 
L 309.379989 27.181596 
" clip-path="url(#p2fb4b09fa0)" style="fill: none; stroke: #1f77b4; stroke-width: 1.5"/>
    <path d="M 310.521292 30.133029 
L 310.521292 28.706762 
" clip-path="url(#p2fb4b09fa0)" style="fill: none; stroke: #1f77b4; stroke-width: 1.5"/>
    <path d="M 311.662595 31.114348 
L 311.662595 29.69156 
" clip-path="url(#p2fb4b09fa0)" style="fill: none; stroke: #1f77b4; stroke-width: 1.5"/>
    <path d="M 312.803898 31.660363 
L 312.803898 30.239513 
" clip-path="url(#p2fb4b09fa0)" style="fill: none; stroke: #1f77b4; stroke-width: 1.5"/>
    <path d="M 313.945201 32.067985 
L 313.945201 30.648586 
" clip-path="url(#p2fb4b09fa0)" style="fill: none; stroke: #1f77b4; stroke-width: 1.5"/>
    <path d="M 315.086504 31.755978 
L 315.086504 30.335469 
" clip-path="url(#p2fb4b09fa0)" style="fill: none; stroke: #1f77b4; stroke-width: 1.5"/>
    <path d="M 316.227807 31.56978 
L 316.227807 30.148609 
" clip-path="url(#p2fb4b09fa0)" style="fill: none; stroke: #1f77b4; stroke-width: 1.5"/>
    <path d="M 317.36911 32.00508 
L 317.36911 30.585457 
" clip-path="url(#p2fb4b09fa0)" style="fill: none; stroke: #1f77b4; stroke-width: 1.5"/>
    <path d="M 318.510413 31.589909 
L 318.510413 30.16881 
" clip-path="url(#p2fb4b09fa0)" style="fill: none; stroke: #1f77b4; stroke-width: 1.5"/>
    <path d="M 319.651716 31.403711 
L 319.651716 29.98195 
" clip-path="url(#p2fb4b09fa0)" style="fill: none; stroke: #1f77b4; stroke-width: 1.5"/>
    <path d="M 320.793019 33.2833 
L 320.793019 31.868231 
" clip-path="url(#p2fb4b09fa0)" style="fill: none; stroke: #1f77b4; stroke-width: 1.5"/>
    <path d="M 321.934322 30.882858 
L 321.934322 29.459248 
" clip-path="url(#p2fb4b09fa0)" style="fill: none; stroke: #1f77b4; stroke-width: 1.5"/>
    <path d="M 323.075625 29.944314 
L 323.075625 28.517378 
" clip-path="url(#p2fb4b09fa0)" style="fill: none; stroke: #1f77b4; stroke-width: 1.5"/>
    <path d="M 324.216928 30.029865 
L 324.216928 28.603232 
" clip-path="url(#p2fb4b09fa0)" style="fill: none; stroke: #1f77b4; stroke-width: 1.5"/>
    <path d="M 325.358231 30.470201 
L 325.358231 29.045128 
" clip-path="url(#p2fb4b09fa0)" style="fill: none; stroke: #1f77b4; stroke-width: 1.5"/>
    <path d="M 326.499534 33.539949 
L 326.499534 32.125797 
" clip-path="url(#p2fb4b09fa0)" style="fill: none; stroke: #1f77b4; stroke-width: 1.5"/>
    <path d="M 327.640837 35.930298 
L 327.640837 34.524708 
" clip-path="url(#p2fb4b09fa0)" style="fill: none; stroke: #1f77b4; stroke-width: 1.5"/>
    <path d="M 328.78214 37.792235 
L 328.78214 36.393351 
" clip-path="url(#p2fb4b09fa0)" style="fill: none; stroke: #1f77b4; stroke-width: 1.5"/>
    <path d="M 329.923443 40.469371 
L 329.923443 39.080186 
" clip-path="url(#p2fb4b09fa0)" style="fill: none; stroke: #1f77b4; stroke-width: 1.5"/>
    <path d="M 331.064746 43.174149 
L 331.064746 41.794833 
" clip-path="url(#p2fb4b09fa0)" style="fill: none; stroke: #1f77b4; stroke-width: 1.5"/>
    <path d="M 332.206049 44.427141 
L 332.206049 43.052421 
" clip-path="url(#p2fb4b09fa0)" style="fill: none; stroke: #1f77b4; stroke-width: 1.5"/>
    <path d="M 333.347352 44.059799 
L 333.347352 42.683729 
" clip-path="url(#p2fb4b09fa0)" style="fill: none; stroke: #1f77b4; stroke-width: 1.5"/>
    <path d="M 334.488655 44.082443 
L 334.488655 42.706457 
" clip-path="url(#p2fb4b09fa0)" style="fill: none; stroke: #1f77b4; stroke-width: 1.5"/>
    <path d="M 335.629958 42.665905 
L 335.629958 41.284729 
" clip-path="url(#p2fb4b09fa0)" style="fill: none; stroke: #1f77b4; stroke-width: 1.5"/>
    <path d="M 336.771261 41.724895 
L 336.771261 40.340283 
" clip-path="url(#p2fb4b09fa0)" style="fill: none; stroke: #1f77b4; stroke-width: 1.5"/>
    <path d="M 337.912564 42.723774 
L 337.912564 41.34281 
" clip-path="url(#p2fb4b09fa0)" style="fill: none; stroke: #1f77b4; stroke-width: 1.5"/>
    <path d="M 339.053867 42.24069 
L 339.053867 40.85796 
" clip-path="url(#p2fb4b09fa0)" style="fill: none; stroke: #1f77b4; stroke-width: 1.5"/>
    <path d="M 340.19517 42.869706 
L 340.19517 41.489275 
" clip-path="url(#p2fb4b09fa0)" style="fill: none; stroke: #1f77b4; stroke-width: 1.5"/>
    <path d="M 341.336473 42.801772 
L 341.336473 41.421093 
" clip-path="url(#p2fb4b09fa0)" style="fill: none; stroke: #1f77b4; stroke-width: 1.5"/>
    <path d="M 342.477777 43.186729 
L 342.477777 41.807459 
" clip-path="url(#p2fb4b09fa0)" style="fill: none; stroke: #1f77b4; stroke-width: 1.5"/>
    <path d="M 343.61908 43.176665 
L 343.61908 41.797358 
" clip-path="url(#p2fb4b09fa0)" style="fill: none; stroke: #1f77b4; stroke-width: 1.5"/>
    <path d="M 344.760383 42.6181 
L 344.760383 41.236749 
" clip-path="url(#p2fb4b09fa0)" style="fill: none; stroke: #1f77b4; stroke-width: 1.5"/>
    <path d="M 345.901686 43.805678 
L 345.901686 42.428676 
" clip-path="url(#p2fb4b09fa0)" style="fill: none; stroke: #1f77b4; stroke-width: 1.5"/>
    <path d="M 347.042989 43.56917 
L 347.042989 42.1913 
" clip-path="url(#p2fb4b09fa0)" style="fill: none; stroke: #1f77b4; stroke-width: 1.5"/>
    <path d="M 348.184292 40.77885 
L 348.184292 39.39079 
" clip-path="url(#p2fb4b09fa0)" style="fill: none; stroke: #1f77b4; stroke-width: 1.5"/>
    <path d="M 349.325595 38.763456 
L 349.325595 37.368083 
" clip-path="url(#p2fb4b09fa0)" style="fill: none; stroke: #1f77b4; stroke-width: 1.5"/>
    <path d="M 350.466898 39.384934 
L 350.466898 37.991812 
" clip-path="url(#p2fb4b09fa0)" style="fill: none; stroke: #1f77b4; stroke-width: 1.5"/>
    <path d="M 351.608201 39.779961 
L 351.608201 38.388272 
" clip-path="url(#p2fb4b09fa0)" style="fill: none; stroke: #1f77b4; stroke-width: 1.5"/>
    <path d="M 352.749504 40.703367 
L 352.749504 39.315033 
" clip-path="url(#p2fb4b09fa0)" style="fill: none; stroke: #1f77b4; stroke-width: 1.5"/>
    <path d="M 353.890807 40.202665 
L 353.890807 38.812511 
" clip-path="url(#p2fb4b09fa0)" style="fill: none; stroke: #1f77b4; stroke-width: 1.5"/>
    <path d="M 355.03211 42.45204 
L 355.03211 41.070082 
" clip-path="url(#p2fb4b09fa0)" style="fill: none; stroke: #1f77b4; stroke-width: 1.5"/>
    <path d="M 356.173413 44.127732 
L 356.173413 42.751912 
" clip-path="url(#p2fb4b09fa0)" style="fill: none; stroke: #1f77b4; stroke-width: 1.5"/>
    <path d="M 357.314716 42.945188 
L 357.314716 41.565033 
" clip-path="url(#p2fb4b09fa0)" style="fill: none; stroke: #1f77b4; stroke-width: 1.5"/>
    <path d="M 358.456019 43.956641 
L 358.456019 42.580193 
" clip-path="url(#p2fb4b09fa0)" style="fill: none; stroke: #1f77b4; stroke-width: 1.5"/>
    <path d="M 359.597322 43.32008 
L 359.597322 41.941298 
" clip-path="url(#p2fb4b09fa0)" style="fill: none; stroke: #1f77b4; stroke-width: 1.5"/>
    <path d="M 360.738625 46.397192 
L 360.738625 45.029728 
" clip-path="url(#p2fb4b09fa0)" style="fill: none; stroke: #1f77b4; stroke-width: 1.5"/>
    <path d="M 361.879928 47.003551 
L 361.879928 45.638329 
" clip-path="url(#p2fb4b09fa0)" style="fill: none; stroke: #1f77b4; stroke-width: 1.5"/>
    <path d="M 363.021231 48.616306 
L 363.021231 47.257063 
" clip-path="url(#p2fb4b09fa0)" style="fill: none; stroke: #1f77b4; stroke-width: 1.5"/>
    <path d="M 364.162534 49.927131 
L 364.162534 48.572768 
" clip-path="url(#p2fb4b09fa0)" style="fill: none; stroke: #1f77b4; stroke-width: 1.5"/>
    <path d="M 365.303837 51.139826 
L 365.303837 49.789993 
" clip-path="url(#p2fb4b09fa0)" style="fill: none; stroke: #1f77b4; stroke-width: 1.5"/>
    <path d="M 366.44514 51.602761 
L 366.44514 50.254661 
" clip-path="url(#p2fb4b09fa0)" style="fill: none; stroke: #1f77b4; stroke-width: 1.5"/>
    <path d="M 367.586443 52.349997 
L 367.586443 51.004699 
" clip-path="url(#p2fb4b09fa0)" style="fill: none; stroke: #1f77b4; stroke-width: 1.5"/>
    <path d="M 368.727746 54.229395 
L 368.727746 52.891172 
" clip-path="url(#p2fb4b09fa0)" style="fill: none; stroke: #1f77b4; stroke-width: 1.5"/>
    <path d="M 369.869049 55.487348 
L 369.869049 54.153881 
" clip-path="url(#p2fb4b09fa0)" style="fill: none; stroke: #1f77b4; stroke-width: 1.5"/>
    <path d="M 371.010352 54.199204 
L 371.010352 52.860867 
" clip-path="url(#p2fb4b09fa0)" style="fill: none; stroke: #1f77b4; stroke-width: 1.5"/>
    <path d="M 372.151655 56.654721 
L 372.151655 55.325684 
" clip-path="url(#p2fb4b09fa0)" style="fill: none; stroke: #1f77b4; stroke-width: 1.5"/>
    <path d="M 373.292958 57.406968 
L 373.292958 56.080793 
" clip-path="url(#p2fb4b09fa0)" style="fill: none; stroke: #1f77b4; stroke-width: 1.5"/>
    <path d="M 374.434261 59.613374 
L 374.434261 58.295629 
" clip-path="url(#p2fb4b09fa0)" style="fill: none; stroke: #1f77b4; stroke-width: 1.5"/>
    <path d="M 375.575564 59.467455 
L 375.575564 58.149151 
" clip-path="url(#p2fb4b09fa0)" style="fill: none; stroke: #1f77b4; stroke-width: 1.5"/>
    <path d="M 376.716867 58.843525 
L 376.716867 57.522832 
" clip-path="url(#p2fb4b09fa0)" style="fill: none; stroke: #1f77b4; stroke-width: 1.5"/>
    <path d="M 377.85817 60.496432 
L 377.85817 59.182076 
" clip-path="url(#p2fb4b09fa0)" style="fill: none; stroke: #1f77b4; stroke-width: 1.5"/>
    <path d="M 378.999473 63.16319 
L 378.999473 61.859123 
" clip-path="url(#p2fb4b09fa0)" style="fill: none; stroke: #1f77b4; stroke-width: 1.5"/>
    <path d="M 380.140777 63.43238 
L 380.140777 62.129356 
" clip-path="url(#p2fb4b09fa0)" style="fill: none; stroke: #1f77b4; stroke-width: 1.5"/>
    <path d="M 381.28208 62.285177 
L 381.28208 60.977714 
" clip-path="url(#p2fb4b09fa0)" style="fill: none; stroke: #1f77b4; stroke-width: 1.5"/>
    <path d="M 382.423383 61.17822 
L 382.423383 59.866487 
" clip-path="url(#p2fb4b09fa0)" style="fill: none; stroke: #1f77b4; stroke-width: 1.5"/>
    <path d="M 383.564686 64.053778 
L 383.564686 62.753165 
" clip-path="url(#p2fb4b09fa0)" style="fill: none; stroke: #1f77b4; stroke-width: 1.5"/>
    <path d="M 384.705989 69.364501 
L 384.705989 68.08468 
" clip-path="url(#p2fb4b09fa0)" style="fill: none; stroke: #1f77b4; stroke-width: 1.5"/>
    <path d="M 385.847292 78.526411 
L 385.847292 77.283277 
" clip-path="url(#p2fb4b09fa0)" style="fill: none; stroke: #1f77b4; stroke-width: 1.5"/>
    <path d="M 386.988595 109.325828 
L 386.988595 108.214893 
" clip-path="url(#p2fb4b09fa0)" style="fill: none; stroke: #1f77b4; stroke-width: 1.5"/>
    <path d="M 388.129898 144.960632 
L 388.129898 144.025755 
" clip-path="url(#p2fb4b09fa0)" style="fill: none; stroke: #1f77b4; stroke-width: 1.5"/>
    <path d="M 389.271201 179.906284 
L 389.271201 179.184776 
" clip-path="url(#p2fb4b09fa0)" style="fill: none; stroke: #1f77b4; stroke-width: 1.5"/>
    <path d="M 390.412504 198.275939 
L 390.412504 197.697459 
" clip-path="url(#p2fb4b09fa0)" style="fill: none; stroke: #1f77b4; stroke-width: 1.5"/>
    <path d="M 391.553807 204.744351 
L 391.553807 204.225584 
" clip-path="url(#p2fb4b09fa0)" style="fill: none; stroke: #1f77b4; stroke-width: 1.5"/>
    <path d="M 392.69511 210.148486 
L 392.69511 209.685506 
" clip-path="url(#p2fb4b09fa0)" style="fill: none; stroke: #1f77b4; stroke-width: 1.5"/>
    <path d="M 393.836413 213.724981 
L 393.836413 213.302983 
" clip-path="url(#p2fb4b09fa0)" style="fill: none; stroke: #1f77b4; stroke-width: 1.5"/>
    <path d="M 394.977716 216.886114 
L 394.977716 216.504003 
" clip-path="url(#p2fb4b09fa0)" style="fill: none; stroke: #1f77b4; stroke-width: 1.5"/>
    <path d="M 396.119019 219.82974 
L 396.119019 219.488975 
" clip-path="url(#p2fb4b09fa0)" style="fill: none; stroke: #1f77b4; stroke-width: 1.5"/>
    <path d="M 397.260322 223.555014 
L 397.260322 223.275277 
" clip-path="url(#p2fb4b09fa0)" style="fill: none; stroke: #1f77b4; stroke-width: 1.5"/>
    <path d="M 398.401625 227.353545 
L 398.401625 227.154684 
" clip-path="url(#p2fb4b09fa0)" style="fill: none; stroke: #1f77b4; stroke-width: 1.5"/>
    <path d="M 399.542928 230.404943 
L 399.542928 230.314199 
" clip-path="url(#p2fb4b09fa0)" style="fill: none; stroke: #1f77b4; stroke-width: 1.5"/>
   </g>
  </g>
 </g>
 <defs>
  <clipPath id="p2fb4b09fa0">
   <rect x="40.603125" y="7.2" width="376.63" height="233.83375"/>
  </clipPath>
 </defs>
</svg>
