<?xml version="1.0" encoding="UTF-8" standalone="no"?>
<!DOCTYPE svg PUBLIC "-//W3C//DTD SVG 1.1//EN"
 "http://www.w3.org/Graphics/SVG/1.1/DTD/svg11.dtd">
<!-- Generated by graphviz version 2.43.0 (0)
 -->
<!-- Title: %3 Pages: 1 -->
<svg width="3943pt" height="399pt"
 viewBox="0.00 0.00 3943.00 398.50" xmlns="http://www.w3.org/2000/svg" xmlns:xlink="http://www.w3.org/1999/xlink">
<g id="graph0" class="graph" transform="scale(1 1) rotate(0) translate(4 394.5)">
<title>%3</title>
<polygon fill="white" stroke="transparent" points="-4,4 -4,-394.5 3939,-394.5 3939,4 -4,4"/>
<g id="clust1" class="cluster">
<title>cluster_AccumulatedProtonCharge</title>
<polygon fill="#f0f0ff" stroke="#f0f0ff" points="2390,-172.5 2390,-258.5 2599,-258.5 2599,-172.5 2390,-172.5"/>
<text text-anchor="middle" x="2494.5" y="-243.3" font-family="Times,serif" font-size="14.00">AccumulatedProtonCharge</text>
</g>
<g id="clust2" class="cluster">
<title>cluster_AllRawDetectors</title>
<polygon fill="#f0f0ff" stroke="#f0f0ff" points="228.5,-286.5 228.5,-382.5 364.5,-382.5 364.5,-286.5 228.5,-286.5"/>
<text text-anchor="start" x="236.5" y="-368.3" font-family="Times,serif" font-size="14.00">AllRawDetectors</text>
<text text-anchor="start" x="240.5" y="-356.7" font-family="Times,serif" font-size="11.00">via:</text>
<text text-anchor="start" x="261.5" y="-356.7" font-family="Times,serif" font-style="italic" font-size="11.00">load_geant4_csv</text>
</g>
<g id="clust3" class="cluster">
<title>cluster_CalibratedBeamline</title>
<polygon fill="#f0f0ff" stroke="#f0f0ff" points="1080,-148.5 1080,-244.5 1238,-244.5 1238,-148.5 1080,-148.5"/>
<text text-anchor="start" x="1088" y="-230.3" font-family="Times,serif" font-size="14.00">CalibratedBeamline</text>
<text text-anchor="start" x="1093" y="-218.7" font-family="Times,serif" font-size="11.00">via:</text>
<text text-anchor="start" x="1114" y="-218.7" font-family="Times,serif" font-style="italic" font-size="11.00">assemble_beamline</text>
</g>
<g id="clust4" class="cluster">
<title>cluster_CalibratedDetector</title>
<polygon fill="#f0f0ff" stroke="#f0f0ff" points="723,-267.5 723,-363.5 937,-363.5 937,-267.5 723,-267.5"/>
<text text-anchor="start" x="761" y="-349.3" font-family="Times,serif" font-size="14.00">CalibratedDetector</text>
<text text-anchor="start" x="731" y="-337.7" font-family="Times,serif" font-size="11.00">via:</text>
<text text-anchor="start" x="752" y="-337.7" font-family="Times,serif" font-style="italic" font-size="11.00">get_calibrated_geant4_detector</text>
</g>
<g id="clust8" class="cluster">
<title>cluster_DataWithScatteringCoordinates</title>
<polygon fill="#f0f0ff" stroke="#f0f0ff" points="2355,-68.5 2355,-164.5 2634,-164.5 2634,-68.5 2355,-68.5"/>
<text text-anchor="start" x="2380" y="-150.3" font-family="Times,serif" font-size="14.00">DataWithScatteringCoordinates</text>
<text text-anchor="start" x="2363" y="-138.7" font-family="Times,serif" font-size="11.00">via:</text>
<text text-anchor="start" x="2384" y="-138.7" font-family="Times,serif" font-style="italic" font-size="11.00">add_scattering_coordinates_from_positions</text>
</g>
<g id="clust9" class="cluster">
<title>cluster_DetectorData</title>
<polygon fill="#f0f0ff" stroke="#f0f0ff" points="1452.5,-172.5 1452.5,-268.5 1625.5,-268.5 1625.5,-172.5 1452.5,-172.5"/>
<text text-anchor="start" x="1490.5" y="-254.3" font-family="Times,serif" font-size="14.00">DetectorData</text>
<text text-anchor="start" x="1460.5" y="-242.7" font-family="Times,serif" font-size="11.00">via:</text>
<text text-anchor="start" x="1481.5" y="-242.7" font-family="Times,serif" font-style="italic" font-size="11.00">assemble_detector_data</text>
</g>
<g id="clust14" class="cluster">
<title>cluster_Filename</title>
<polygon fill="#f0f0ff" stroke="#f0f0ff" points="8,-286.5 8,-372.5 134,-372.5 134,-286.5 8,-286.5"/>
<text text-anchor="middle" x="71" y="-357.3" font-family="Times,serif" font-size="14.00">Filename</text>
</g>
<g id="clust10" class="cluster">
<title>cluster_DetectorLtotal</title>
<polygon fill="#f0f0ff" stroke="#f0f0ff" points="1381.5,-68.5 1381.5,-164.5 1695.5,-164.5 1695.5,-68.5 1381.5,-68.5"/>
<text text-anchor="start" x="1486" y="-150.3" font-family="Times,serif" font-size="14.00">DetectorLtotal</text>
<text text-anchor="start" x="1389.5" y="-138.7" font-family="Times,serif" font-size="11.00">via:</text>
<text text-anchor="start" x="1410.5" y="-138.7" font-family="Times,serif" font-style="italic" font-size="11.00">detector_ltotal_from_straight_line_approximation</text>
</g>
<g id="clust11" class="cluster">
<title>cluster_DetectorTofData</title>
<polygon fill="#f0f0ff" stroke="#f0f0ff" points="1759,-68.5 1759,-164.5 1955,-164.5 1955,-68.5 1759,-68.5"/>
<text text-anchor="start" x="1798" y="-150.3" font-family="Times,serif" font-size="14.00">DetectorTofData</text>
<text text-anchor="start" x="1767" y="-138.7" font-family="Times,serif" font-size="11.00">via:</text>
<text text-anchor="start" x="1788" y="-138.7" font-family="Times,serif" font-style="italic" font-size="11.00">detector_time_of_flight_data</text>
</g>
<g id="clust12" class="cluster">
<title>cluster_DspacingData</title>
<polygon fill="#f0f0ff" stroke="#f0f0ff" points="3205,-53.5 3205,-149.5 3356,-149.5 3356,-53.5 3205,-53.5"/>
<text text-anchor="start" x="3230.5" y="-135.3" font-family="Times,serif" font-size="14.00">DspacingData</text>
<text text-anchor="start" x="3213" y="-123.7" font-family="Times,serif" font-size="11.00">via:</text>
<text text-anchor="start" x="3234" y="-123.7" font-family="Times,serif" font-style="italic" font-size="11.00">convert_to_dspacing</text>
</g>
<g id="clust15" class="cluster">
<title>cluster_FilteredData</title>
<polygon fill="#f0f0ff" stroke="#f0f0ff" points="2092,-68.5 2092,-164.5 2218,-164.5 2218,-68.5 2092,-68.5"/>
<text text-anchor="start" x="2109.5" y="-150.3" font-family="Times,serif" font-size="14.00">FilteredData</text>
<text text-anchor="start" x="2109.5" y="-138.7" font-family="Times,serif" font-size="11.00">via:</text>
<text text-anchor="start" x="2130.5" y="-138.7" font-family="Times,serif" font-style="italic" font-size="11.00">filter_events</text>
</g>
<g id="clust16" class="cluster">
<title>cluster_FocussedDataDspacing</title>
<polygon fill="#f0f0ff" stroke="#f0f0ff" points="3439,-53.5 3439,-149.5 3621,-149.5 3621,-53.5 3439,-53.5"/>
<text text-anchor="start" x="3447" y="-135.3" font-family="Times,serif" font-size="14.00">FocussedDataDspacing</text>
<text text-anchor="start" x="3462" y="-123.7" font-family="Times,serif" font-size="11.00">via:</text>
<text text-anchor="start" x="3483" y="-123.7" font-family="Times,serif" font-style="italic" font-size="11.00">focus_data_dspacing</text>
</g>
<g id="clust20" class="cluster">
<title>cluster_MaskedData</title>
<polygon fill="#f0f0ff" stroke="#f0f0ff" points="2989.5,-89.5 2989.5,-185.5 3115.5,-185.5 3115.5,-89.5 2989.5,-89.5"/>
<text text-anchor="start" x="3007.5" y="-171.3" font-family="Times,serif" font-size="14.00">MaskedData</text>
<text text-anchor="start" x="3006" y="-159.7" font-family="Times,serif" font-size="11.00">via:</text>
<text text-anchor="start" x="3027" y="-159.7" font-family="Times,serif" font-style="italic" font-size="11.00">apply_masks</text>
</g>
<g id="clust25" class="cluster">
<title>cluster_Position</title>
<polygon fill="#f0f0ff" stroke="#f0f0ff" points="732.5,-123.5 732.5,-259.5 927.5,-259.5 927.5,-123.5 732.5,-123.5"/>
<text text-anchor="middle" x="830" y="-244.3" font-family="Times,serif" font-size="14.00">Position</text>
</g>
<g id="clust22" class="cluster">
<title>cluster_NeXusComponent</title>
<polygon fill="#f0f0ff" stroke="#f0f0ff" points="459,-267.5 459,-363.5 660,-363.5 660,-267.5 459,-267.5"/>
<text text-anchor="start" x="495" y="-349.3" font-family="Times,serif" font-size="14.00">NeXusComponent</text>
<text text-anchor="start" x="481" y="-337.7" font-family="Times,serif" font-size="11.00">via:</text>
<text text-anchor="start" x="502" y="-337.7" font-family="Times,serif" font-style="italic" font-size="11.00">extract_geant4_detector</text>
</g>
<g id="clust24" class="cluster">
<title>cluster_NormalizedRunData</title>
<polygon fill="#f0f0ff" stroke="#f0f0ff" points="2698,-172.5 2698,-268.5 2895,-268.5 2895,-172.5 2698,-172.5"/>
<text text-anchor="start" x="2724" y="-254.3" font-family="Times,serif" font-size="14.00">NormalizedRunData</text>
<text text-anchor="start" x="2706" y="-242.7" font-family="Times,serif" font-size="11.00">via:</text>
<text text-anchor="start" x="2727" y="-242.7" font-family="Times,serif" font-style="italic" font-size="11.00">normalize_by_proton_charge</text>
</g>
<!-- AccumulatedProtonCharge[SampleRun] -->
<g id="node1" class="node">
<title>AccumulatedProtonCharge[SampleRun]</title>
<polygon fill="none" stroke="black" points="2541.5,-202 2446.5,-202 2446.5,-181 2541.5,-181 2541.5,-202"/>
<text text-anchor="start" x="2454.5" y="-188.4" font-family="Times,serif" font-size="12.00">[SampleRun]</text>
</g>
<!-- NormalizedRunData[SampleRun] -->
<g id="node43" class="node">
<title>NormalizedRunData[SampleRun]</title>
<polygon fill="none" stroke="black" points="2843.5,-202 2748.5,-202 2748.5,-181 2843.5,-181 2843.5,-202"/>
<text text-anchor="start" x="2756.5" y="-188.4" font-family="Times,serif" font-size="12.00">[SampleRun]</text>
</g>
<!-- AccumulatedProtonCharge[SampleRun]&#45;&gt;NormalizedRunData[SampleRun] -->
<g id="edge49" class="edge">
<title>AccumulatedProtonCharge[SampleRun]:e&#45;&gt;NormalizedRunData[SampleRun]:w</title>
<path fill="none" stroke="black" d="M2543,-191.5C2630.21,-191.5 2654.51,-191.5 2736.93,-191.5"/>
<polygon fill="black" stroke="black" points="2737,-195 2747,-191.5 2737,-188 2737,-195"/>
</g>
<!-- AccumulatedProtonCharge[VanadiumRun] -->
<g id="node2" class="node">
<title>AccumulatedProtonCharge[VanadiumRun]</title>
<polygon fill="none" stroke="black" points="2549,-227 2439,-227 2439,-206 2549,-206 2549,-227"/>
<text text-anchor="start" x="2447" y="-213.4" font-family="Times,serif" font-size="12.00">[VanadiumRun]</text>
</g>
<!-- NormalizedRunData[VanadiumRun] -->
<g id="node48" class="node">
<title>NormalizedRunData[VanadiumRun]</title>
<polygon fill="none" stroke="black" points="2851,-227 2741,-227 2741,-206 2851,-206 2851,-227"/>
<text text-anchor="start" x="2749" y="-213.4" font-family="Times,serif" font-size="12.00">[VanadiumRun]</text>
</g>
<!-- AccumulatedProtonCharge[VanadiumRun]&#45;&gt;NormalizedRunData[VanadiumRun] -->
<g id="edge51" class="edge">
<title>AccumulatedProtonCharge[VanadiumRun]:e&#45;&gt;NormalizedRunData[VanadiumRun]:w</title>
<path fill="none" stroke="black" d="M2550,-216.5C2630.98,-216.5 2653.72,-216.5 2729.92,-216.5"/>
<polygon fill="black" stroke="black" points="2730,-220 2740,-216.5 2730,-213 2730,-220"/>
</g>
<!-- Filename[SampleRun] -->
<g id="node3" class="node">
<title>Filename[SampleRun]</title>
<polygon fill="none" stroke="black" points="118.5,-316 23.5,-316 23.5,-295 118.5,-295 118.5,-316"/>
<text text-anchor="start" x="31.5" y="-302.4" font-family="Times,serif" font-size="12.00">[SampleRun]</text>
</g>
<!-- AllRawDetectors[SampleRun] -->
<g id="node4" class="node">
<title>AllRawDetectors[SampleRun]</title>
<polygon fill="none" stroke="black" points="344,-316 249,-316 249,-295 344,-295 344,-316"/>
<text text-anchor="start" x="257" y="-302.4" font-family="Times,serif" font-size="12.00">[SampleRun]</text>
</g>
<!-- Filename[SampleRun]&#45;&gt;AllRawDetectors[SampleRun] -->
<g id="edge1" class="edge">
<title>Filename[SampleRun]:e&#45;&gt;AllRawDetectors[SampleRun]:w</title>
<path fill="none" stroke="black" d="M120,-305.5C173.12,-305.5 188.9,-305.5 237.35,-305.5"/>
<polygon fill="black" stroke="black" points="237.5,-309 247.5,-305.5 237.5,-302 237.5,-309"/>
</g>
<!-- NeXusComponent[NXdetector, SampleRun] -->
<g id="node16" class="node">
<title>NeXusComponent[NXdetector, SampleRun]</title>
<polygon fill="none" stroke="black" points="644.5,-297 474.5,-297 474.5,-276 644.5,-276 644.5,-297"/>
<text text-anchor="start" x="482.5" y="-283.4" font-family="Times,serif" font-size="12.00">[NXdetector, SampleRun]</text>
</g>
<!-- AllRawDetectors[SampleRun]&#45;&gt;NeXusComponent[NXdetector, SampleRun] -->
<g id="edge44" class="edge">
<title>AllRawDetectors[SampleRun]:e&#45;&gt;NeXusComponent[NXdetector, SampleRun]:w</title>
<path fill="none" stroke="black" d="M345.5,-305.5C399.42,-305.5 414.19,-288.8 463.22,-286.71"/>
<polygon fill="black" stroke="black" points="463.57,-290.21 473.5,-286.5 463.43,-283.21 463.57,-290.21"/>
</g>
<!-- Filename[VanadiumRun] -->
<g id="node5" class="node">
<title>Filename[VanadiumRun]</title>
<polygon fill="none" stroke="black" points="126,-341 16,-341 16,-320 126,-320 126,-341"/>
<text text-anchor="start" x="24" y="-327.4" font-family="Times,serif" font-size="12.00">[VanadiumRun]</text>
</g>
<!-- AllRawDetectors[VanadiumRun] -->
<g id="node6" class="node">
<title>AllRawDetectors[VanadiumRun]</title>
<polygon fill="none" stroke="black" points="351.5,-341 241.5,-341 241.5,-320 351.5,-320 351.5,-341"/>
<text text-anchor="start" x="249.5" y="-327.4" font-family="Times,serif" font-size="12.00">[VanadiumRun]</text>
</g>
<!-- Filename[VanadiumRun]&#45;&gt;AllRawDetectors[VanadiumRun] -->
<g id="edge2" class="edge">
<title>Filename[VanadiumRun]:e&#45;&gt;AllRawDetectors[VanadiumRun]:w</title>
<path fill="none" stroke="black" d="M127,-330.5C173.9,-330.5 188.1,-330.5 230.39,-330.5"/>
<polygon fill="black" stroke="black" points="230.5,-334 240.5,-330.5 230.5,-327 230.5,-334"/>
</g>
<!-- NeXusComponent[NXdetector, VanadiumRun] -->
<g id="node17" class="node">
<title>NeXusComponent[NXdetector, VanadiumRun]</title>
<polygon fill="none" stroke="black" points="652,-322 467,-322 467,-301 652,-301 652,-322"/>
<text text-anchor="start" x="475" y="-308.4" font-family="Times,serif" font-size="12.00">[NXdetector, VanadiumRun]</text>
</g>
<!-- AllRawDetectors[VanadiumRun]&#45;&gt;NeXusComponent[NXdetector, VanadiumRun] -->
<g id="edge46" class="edge">
<title>AllRawDetectors[VanadiumRun]:e&#45;&gt;NeXusComponent[NXdetector, VanadiumRun]:w</title>
<path fill="none" stroke="black" d="M352.5,-330.5C400.35,-330.5 413.41,-314.01 456.5,-311.75"/>
<polygon fill="black" stroke="black" points="456.59,-315.25 466.5,-311.5 456.41,-308.26 456.59,-315.25"/>
</g>
<!-- CalibratedDetector[SampleRun] -->
<g id="node7" class="node">
<title>CalibratedDetector[SampleRun]</title>
<polygon fill="none" stroke="black" points="877.5,-297 782.5,-297 782.5,-276 877.5,-276 877.5,-297"/>
<text text-anchor="start" x="790.5" y="-283.4" font-family="Times,serif" font-size="12.00">[SampleRun]</text>
</g>
<!-- CalibratedBeamline[SampleRun] -->
<g id="node8" class="node">
<title>CalibratedBeamline[SampleRun]</title>
<polygon fill="none" stroke="black" points="1206.5,-178 1111.5,-178 1111.5,-157 1206.5,-157 1206.5,-178"/>
<text text-anchor="start" x="1119.5" y="-164.4" font-family="Times,serif" font-size="12.00">[SampleRun]</text>
</g>
<!-- CalibratedDetector[SampleRun]&#45;&gt;CalibratedBeamline[SampleRun] -->
<g id="edge3" class="edge">
<title>CalibratedDetector[SampleRun]:e&#45;&gt;CalibratedBeamline[SampleRun]:w</title>
<path fill="none" stroke="black" d="M879,-286.5C907.25,-286.5 914.12,-277.07 937,-260.5 974.96,-233 966.62,-204.53 1008,-182.5 1045.29,-162.65 1061.57,-166.65 1099.79,-167.4"/>
<polygon fill="black" stroke="black" points="1099.97,-170.9 1110,-167.5 1100.04,-163.9 1099.97,-170.9"/>
</g>
<!-- DetectorData[SampleRun] -->
<g id="node26" class="node">
<title>DetectorData[SampleRun]</title>
<polygon fill="none" stroke="black" points="1586,-202 1491,-202 1491,-181 1586,-181 1586,-202"/>
<text text-anchor="start" x="1499" y="-188.4" font-family="Times,serif" font-size="12.00">[SampleRun]</text>
</g>
<!-- CalibratedBeamline[SampleRun]&#45;&gt;DetectorData[SampleRun] -->
<g id="edge16" class="edge">
<title>CalibratedBeamline[SampleRun]:e&#45;&gt;DetectorData[SampleRun]:w</title>
<path fill="none" stroke="black" d="M1208,-167.5C1330.13,-167.5 1362.2,-190.21 1479.41,-191.45"/>
<polygon fill="black" stroke="black" points="1479.48,-194.95 1489.5,-191.5 1479.52,-187.95 1479.48,-194.95"/>
</g>
<!-- DetectorLtotal[SampleRun] -->
<g id="node28" class="node">
<title>DetectorLtotal[SampleRun]</title>
<polygon fill="none" stroke="black" points="1586,-98 1491,-98 1491,-77 1586,-77 1586,-98"/>
<text text-anchor="start" x="1499" y="-84.4" font-family="Times,serif" font-size="12.00">[SampleRun]</text>
</g>
<!-- CalibratedBeamline[SampleRun]&#45;&gt;DetectorLtotal[SampleRun] -->
<g id="edge18" class="edge">
<title>CalibratedBeamline[SampleRun]:e&#45;&gt;DetectorLtotal[SampleRun]:w</title>
<path fill="none" stroke="black" d="M1208,-167.5C1290.5,-167.5 1301.49,-121.61 1381.5,-101.5 1424.96,-90.58 1439.03,-87.88 1479.29,-87.54"/>
<polygon fill="black" stroke="black" points="1479.51,-91.04 1489.5,-87.5 1479.49,-84.04 1479.51,-91.04"/>
</g>
<!-- Position[NXsource, SampleRun] -->
<g id="node9" class="node">
<title>Position[NXsource, SampleRun]</title>
<polygon fill="none" stroke="black" points="910.5,-178 749.5,-178 749.5,-157 910.5,-157 910.5,-178"/>
<text text-anchor="start" x="757.5" y="-164.4" font-family="Times,serif" font-size="12.00">[NXsource, SampleRun]</text>
</g>
<!-- Position[NXsource, SampleRun]&#45;&gt;CalibratedBeamline[SampleRun] -->
<g id="edge4" class="edge">
<title>Position[NXsource, SampleRun]:e&#45;&gt;CalibratedBeamline[SampleRun]:w</title>
<path fill="none" stroke="black" d="M912,-167.5C996.56,-167.5 1020.18,-167.5 1099.98,-167.5"/>
<polygon fill="black" stroke="black" points="1100,-171 1110,-167.5 1100,-164 1100,-171"/>
</g>
<!-- Position[NXsample, SampleRun] -->
<g id="node10" class="node">
<title>Position[NXsample, SampleRun]</title>
<polygon fill="none" stroke="black" points="912,-153 748,-153 748,-132 912,-132 912,-153"/>
<text text-anchor="start" x="756" y="-139.4" font-family="Times,serif" font-size="12.00">[NXsample, SampleRun]</text>
</g>
<!-- Position[NXsample, SampleRun]&#45;&gt;CalibratedBeamline[SampleRun] -->
<g id="edge5" class="edge">
<title>Position[NXsample, SampleRun]:e&#45;&gt;CalibratedBeamline[SampleRun]:w</title>
<path fill="none" stroke="black" d="M913,-142.5C997.81,-142.5 1020.04,-165.59 1099.96,-167.39"/>
<polygon fill="black" stroke="black" points="1099.96,-170.89 1110,-167.5 1100.04,-163.89 1099.96,-170.89"/>
</g>
<!-- GravityVector -->
<g id="node11" class="node">
<title>GravityVector</title>
<polygon fill="none" stroke="black" points="907,-115 753,-115 753,-82 907,-82 907,-115"/>
<text text-anchor="start" x="780" y="-100.8" font-family="Times,serif" font-size="14.00">GravityVector</text>
<text text-anchor="start" x="761" y="-89.2" font-family="Times,serif" font-size="11.00">via:</text>
<text text-anchor="start" x="782" y="-89.2" font-family="Times,serif" font-style="italic" font-size="11.00">gravity_vector_neg_y</text>
</g>
<!-- GravityVector&#45;&gt;CalibratedBeamline[SampleRun] -->
<g id="edge6" class="edge">
<title>GravityVector:e&#45;&gt;CalibratedBeamline[SampleRun]:w</title>
<path fill="none" stroke="black" stroke-width="2" d="M908,-98.5C987.58,-98.5 1009.03,-147.05 1069.88,-162.7"/>
<polygon fill="black" stroke="black" stroke-width="2" points="1069.48,-166.2 1080,-164.92 1070.98,-159.36 1069.48,-166.2"/>
</g>
<!-- CalibratedDetector[VanadiumRun] -->
<g id="node12" class="node">
<title>CalibratedDetector[VanadiumRun]</title>
<polygon fill="none" stroke="black" points="885,-322 775,-322 775,-301 885,-301 885,-322"/>
<text text-anchor="start" x="783" y="-308.4" font-family="Times,serif" font-size="12.00">[VanadiumRun]</text>
</g>
<!-- CalibratedBeamline[VanadiumRun] -->
<g id="node13" class="node">
<title>CalibratedBeamline[VanadiumRun]</title>
<polygon fill="none" stroke="black" points="1214,-203 1104,-203 1104,-182 1214,-182 1214,-203"/>
<text text-anchor="start" x="1112" y="-189.4" font-family="Times,serif" font-size="12.00">[VanadiumRun]</text>
</g>
<!-- CalibratedDetector[VanadiumRun]&#45;&gt;CalibratedBeamline[VanadiumRun] -->
<g id="edge7" class="edge">
<title>CalibratedDetector[VanadiumRun]:e&#45;&gt;CalibratedBeamline[VanadiumRun]:w</title>
<path fill="none" stroke="black" d="M886,-311.5C992.45,-311.5 993.08,-200.05 1092.71,-192.86"/>
<polygon fill="black" stroke="black" points="1093.13,-196.35 1103,-192.5 1092.88,-189.35 1093.13,-196.35"/>
</g>
<!-- DetectorData[VanadiumRun] -->
<g id="node27" class="node">
<title>DetectorData[VanadiumRun]</title>
<polygon fill="none" stroke="black" points="1593.5,-227 1483.5,-227 1483.5,-206 1593.5,-206 1593.5,-227"/>
<text text-anchor="start" x="1491.5" y="-213.4" font-family="Times,serif" font-size="12.00">[VanadiumRun]</text>
</g>
<!-- CalibratedBeamline[VanadiumRun]&#45;&gt;DetectorData[VanadiumRun] -->
<g id="edge17" class="edge">
<title>CalibratedBeamline[VanadiumRun]:e&#45;&gt;DetectorData[VanadiumRun]:w</title>
<path fill="none" stroke="black" d="M1215,-192.5C1330.87,-192.5 1361.37,-215.11 1472.24,-216.44"/>
<polygon fill="black" stroke="black" points="1472.48,-219.94 1482.5,-216.5 1472.52,-212.94 1472.48,-219.94"/>
</g>
<!-- DetectorLtotal[VanadiumRun] -->
<g id="node29" class="node">
<title>DetectorLtotal[VanadiumRun]</title>
<polygon fill="none" stroke="black" points="1593.5,-123 1483.5,-123 1483.5,-102 1593.5,-102 1593.5,-123"/>
<text text-anchor="start" x="1491.5" y="-109.4" font-family="Times,serif" font-size="12.00">[VanadiumRun]</text>
</g>
<!-- CalibratedBeamline[VanadiumRun]&#45;&gt;DetectorLtotal[VanadiumRun] -->
<g id="edge19" class="edge">
<title>CalibratedBeamline[VanadiumRun]:e&#45;&gt;DetectorLtotal[VanadiumRun]:w</title>
<path fill="none" stroke="black" d="M1215,-192.5C1257.68,-192.5 1268.71,-189.3 1310,-178.5 1386,-158.62 1399.34,-116.34 1472.3,-112.74"/>
<polygon fill="black" stroke="black" points="1472.59,-116.24 1482.5,-112.5 1472.42,-109.24 1472.59,-116.24"/>
</g>
<!-- Position[NXsource, VanadiumRun] -->
<g id="node14" class="node">
<title>Position[NXsource, VanadiumRun]</title>
<polygon fill="none" stroke="black" points="918,-228 742,-228 742,-207 918,-207 918,-228"/>
<text text-anchor="start" x="750" y="-214.4" font-family="Times,serif" font-size="12.00">[NXsource, VanadiumRun]</text>
</g>
<!-- Position[NXsource, VanadiumRun]&#45;&gt;CalibratedBeamline[VanadiumRun] -->
<g id="edge8" class="edge">
<title>Position[NXsource, VanadiumRun]:e&#45;&gt;CalibratedBeamline[VanadiumRun]:w</title>
<path fill="none" stroke="black" d="M919,-217.5C997.98,-217.5 1018.73,-194.6 1092.7,-192.63"/>
<polygon fill="black" stroke="black" points="1093.05,-196.13 1103,-192.5 1092.96,-189.13 1093.05,-196.13"/>
</g>
<!-- Position[NXsample, VanadiumRun] -->
<g id="node15" class="node">
<title>Position[NXsample, VanadiumRun]</title>
<polygon fill="none" stroke="black" points="919.5,-203 740.5,-203 740.5,-182 919.5,-182 919.5,-203"/>
<text text-anchor="start" x="748.5" y="-189.4" font-family="Times,serif" font-size="12.00">[NXsample, VanadiumRun]</text>
</g>
<!-- Position[NXsample, VanadiumRun]&#45;&gt;CalibratedBeamline[VanadiumRun] -->
<g id="edge9" class="edge">
<title>Position[NXsample, VanadiumRun]:e&#45;&gt;CalibratedBeamline[VanadiumRun]:w</title>
<path fill="none" stroke="black" d="M921,-192.5C998.41,-192.5 1020.26,-192.5 1092.9,-192.5"/>
<polygon fill="black" stroke="black" points="1093,-196 1103,-192.5 1093,-189 1093,-196"/>
</g>
<!-- NeXusComponent[NXdetector, SampleRun]&#45;&gt;CalibratedDetector[SampleRun] -->
<g id="edge10" class="edge">
<title>NeXusComponent[NXdetector, SampleRun]:e&#45;&gt;CalibratedDetector[SampleRun]:w</title>
<path fill="none" stroke="black" d="M645.5,-286.5C702.19,-286.5 718.86,-286.5 770.86,-286.5"/>
<polygon fill="black" stroke="black" points="771,-290 781,-286.5 771,-283 771,-290"/>
</g>
<!-- NeXusComponent[NXdetector, VanadiumRun]&#45;&gt;CalibratedDetector[VanadiumRun] -->
<g id="edge11" class="edge">
<title>NeXusComponent[NXdetector, VanadiumRun]:e&#45;&gt;CalibratedDetector[VanadiumRun]:w</title>
<path fill="none" stroke="black" d="M652.5,-311.5C702.91,-311.5 718.03,-311.5 763.75,-311.5"/>
<polygon fill="black" stroke="black" points="764,-315 774,-311.5 764,-308 764,-315"/>
</g>
<!-- CalibrationFilename -->
<g id="node18" class="node">
<title>CalibrationFilename</title>
<polygon fill="none" stroke="black" points="2877,-56 2715,-56 2715,-33 2877,-33 2877,-56"/>
<text text-anchor="middle" x="2796" y="-40.8" font-family="Times,serif" font-size="14.00">CalibrationFilename</text>
</g>
<!-- CalibrationData -->
<g id="node19" class="node">
<title>CalibrationData</title>
<polygon fill="none" stroke="black" points="3138,-79 2967,-79 2967,-46 3138,-46 3138,-79"/>
<text text-anchor="start" x="2995.5" y="-64.8" font-family="Times,serif" font-size="14.00">CalibrationData</text>
<text text-anchor="start" x="2975" y="-53.2" font-family="Times,serif" font-size="11.00">via:</text>
<text text-anchor="start" x="2996" y="-53.2" font-family="Times,serif" font-style="italic" font-size="11.00">geant4_load_calibration</text>
</g>
<!-- CalibrationFilename&#45;&gt;CalibrationData -->
<g id="edge12" class="edge">
<title>CalibrationFilename:e&#45;&gt;CalibrationData:w</title>
<path fill="none" stroke="black" d="M2878,-44.5C2914.73,-44.5 2924.9,-59.41 2956.85,-62.09"/>
<polygon fill="black" stroke="black" points="2956.87,-65.59 2967,-62.5 2957.15,-58.6 2956.87,-65.59"/>
</g>
<!-- DspacingData[SampleRun] -->
<g id="node35" class="node">
<title>DspacingData[SampleRun]</title>
<polygon fill="none" stroke="black" points="3327.5,-83 3232.5,-83 3232.5,-62 3327.5,-62 3327.5,-83"/>
<text text-anchor="start" x="3240.5" y="-69.4" font-family="Times,serif" font-size="12.00">[SampleRun]</text>
</g>
<!-- CalibrationData&#45;&gt;DspacingData[SampleRun] -->
<g id="edge28" class="edge">
<title>CalibrationData:e&#45;&gt;DspacingData[SampleRun]:w</title>
<path fill="none" stroke="black" stroke-width="2" d="M3138,-62.5C3164.4,-62.5 3178.01,-66.53 3195.07,-69.48"/>
<polygon fill="black" stroke="black" stroke-width="2" points="3194.6,-72.94 3205,-70.97 3195.63,-66.02 3194.6,-72.94"/>
</g>
<!-- DSpacingBins -->
<g id="node20" class="node">
<title>DSpacingBins</title>
<polygon fill="none" stroke="black" points="3338,-45 3222,-45 3222,-22 3338,-22 3338,-45"/>
<text text-anchor="middle" x="3280" y="-29.8" font-family="Times,serif" font-size="14.00">DSpacingBins</text>
</g>
<!-- FocussedDataDspacing[SampleRun] -->
<g id="node38" class="node">
<title>FocussedDataDspacing[SampleRun]</title>
<polygon fill="none" stroke="black" points="3577.5,-83 3482.5,-83 3482.5,-62 3577.5,-62 3577.5,-83"/>
<text text-anchor="start" x="3490.5" y="-69.4" font-family="Times,serif" font-size="12.00">[SampleRun]</text>
</g>
<!-- DSpacingBins&#45;&gt;FocussedDataDspacing[SampleRun] -->
<g id="edge33" class="edge">
<title>DSpacingBins:e&#45;&gt;FocussedDataDspacing[SampleRun]:w</title>
<path fill="none" stroke="black" stroke-width="2" d="M3339,-33.5C3382.49,-33.5 3401.98,-50.72 3429.37,-62.27"/>
<polygon fill="black" stroke="black" stroke-width="2" points="3428.41,-65.65 3439,-65.94 3430.9,-59.11 3428.41,-65.65"/>
</g>
<!-- FilteredData[SampleRun] -->
<g id="node21" class="node">
<title>FilteredData[SampleRun]</title>
<polygon fill="none" stroke="black" points="2202.5,-98 2107.5,-98 2107.5,-77 2202.5,-77 2202.5,-98"/>
<text text-anchor="start" x="2115.5" y="-84.4" font-family="Times,serif" font-size="12.00">[SampleRun]</text>
</g>
<!-- DataWithScatteringCoordinates[SampleRun] -->
<g id="node22" class="node">
<title>DataWithScatteringCoordinates[SampleRun]</title>
<polygon fill="none" stroke="black" points="2541.5,-98 2446.5,-98 2446.5,-77 2541.5,-77 2541.5,-98"/>
<text text-anchor="start" x="2454.5" y="-84.4" font-family="Times,serif" font-size="12.00">[SampleRun]</text>
</g>
<!-- FilteredData[SampleRun]&#45;&gt;DataWithScatteringCoordinates[SampleRun] -->
<g id="edge13" class="edge">
<title>FilteredData[SampleRun]:e&#45;&gt;DataWithScatteringCoordinates[SampleRun]:w</title>
<path fill="none" stroke="black" d="M2204,-87.5C2307.66,-87.5 2336.08,-87.5 2434.89,-87.5"/>
<polygon fill="black" stroke="black" points="2435,-91 2445,-87.5 2435,-84 2435,-91"/>
</g>
<!-- DataWithScatteringCoordinates[SampleRun]&#45;&gt;NormalizedRunData[SampleRun] -->
<g id="edge48" class="edge">
<title>DataWithScatteringCoordinates[SampleRun]:e&#45;&gt;NormalizedRunData[SampleRun]:w</title>
<path fill="none" stroke="black" d="M2543,-87.5C2583.92,-87.5 2597.57,-82.86 2634,-101.5 2687.92,-129.09 2683.53,-184.72 2736.76,-190.93"/>
<polygon fill="black" stroke="black" points="2736.82,-194.44 2747,-191.5 2737.21,-187.45 2736.82,-194.44"/>
</g>
<!-- ElasticCoordTransformGraph -->
<g id="node23" class="node">
<title>ElasticCoordTransformGraph</title>
<polygon fill="none" stroke="black" points="2291,-51 2019,-51 2019,-18 2291,-18 2291,-51"/>
<text text-anchor="start" x="2049.5" y="-36.8" font-family="Times,serif" font-size="14.00">ElasticCoordTransformGraph</text>
<text text-anchor="start" x="2027" y="-25.2" font-family="Times,serif" font-size="11.00">via:</text>
<text text-anchor="start" x="2048" y="-25.2" font-family="Times,serif" font-style="italic" font-size="11.00">powder_coordinate_transformation_graph</text>
</g>
<!-- ElasticCoordTransformGraph&#45;&gt;DataWithScatteringCoordinates[SampleRun] -->
<g id="edge14" class="edge">
<title>ElasticCoordTransformGraph:e&#45;&gt;DataWithScatteringCoordinates[SampleRun]:w</title>
<path fill="none" stroke="black" stroke-width="2" d="M2291,-34.5C2329.06,-34.5 2349.65,-49.15 2371.15,-63.04"/>
<polygon fill="black" stroke="black" stroke-width="2" points="2369.48,-66.13 2379.8,-68.5 2373.21,-60.21 2369.48,-66.13"/>
</g>
<!-- ElasticCoordTransformGraph&#45;&gt;DspacingData[SampleRun] -->
<g id="edge27" class="edge">
<title>ElasticCoordTransformGraph:e&#45;&gt;DspacingData[SampleRun]:w</title>
<path fill="none" stroke="black" stroke-width="2" d="M2291,-34.5C2667.47,-34.5 2767.2,21.58 3138,-43.5 3165.56,-48.34 3178.26,-59.04 3195.48,-66"/>
<polygon fill="black" stroke="black" stroke-width="2" points="3194.41,-69.33 3205,-69.25 3196.67,-62.71 3194.41,-69.33"/>
</g>
<!-- FilteredData[VanadiumRun] -->
<g id="node24" class="node">
<title>FilteredData[VanadiumRun]</title>
<polygon fill="none" stroke="black" points="2210,-123 2100,-123 2100,-102 2210,-102 2210,-123"/>
<text text-anchor="start" x="2108" y="-109.4" font-family="Times,serif" font-size="12.00">[VanadiumRun]</text>
</g>
<!-- DataWithScatteringCoordinates[VanadiumRun] -->
<g id="node25" class="node">
<title>DataWithScatteringCoordinates[VanadiumRun]</title>
<polygon fill="none" stroke="black" points="2549,-123 2439,-123 2439,-102 2549,-102 2549,-123"/>
<text text-anchor="start" x="2447" y="-109.4" font-family="Times,serif" font-size="12.00">[VanadiumRun]</text>
</g>
<!-- FilteredData[VanadiumRun]&#45;&gt;DataWithScatteringCoordinates[VanadiumRun] -->
<g id="edge15" class="edge">
<title>FilteredData[VanadiumRun]:e&#45;&gt;DataWithScatteringCoordinates[VanadiumRun]:w</title>
<path fill="none" stroke="black" d="M2211,-112.5C2308.44,-112.5 2335.3,-112.5 2427.91,-112.5"/>
<polygon fill="black" stroke="black" points="2428,-116 2438,-112.5 2428,-109 2428,-116"/>
</g>
<!-- DataWithScatteringCoordinates[VanadiumRun]&#45;&gt;NormalizedRunData[VanadiumRun] -->
<g id="edge50" class="edge">
<title>DataWithScatteringCoordinates[VanadiumRun]:e&#45;&gt;NormalizedRunData[VanadiumRun]:w</title>
<path fill="none" stroke="black" d="M2550,-112.5C2642.79,-112.5 2643.79,-209.12 2729.94,-216.1"/>
<polygon fill="black" stroke="black" points="2729.87,-219.6 2740,-216.5 2730.15,-212.61 2729.87,-219.6"/>
</g>
<!-- DetectorTofData[SampleRun] -->
<g id="node30" class="node">
<title>DetectorTofData[SampleRun]</title>
<polygon fill="none" stroke="black" points="1904.5,-98 1809.5,-98 1809.5,-77 1904.5,-77 1904.5,-98"/>
<text text-anchor="start" x="1817.5" y="-84.4" font-family="Times,serif" font-size="12.00">[SampleRun]</text>
</g>
<!-- DetectorData[SampleRun]&#45;&gt;DetectorTofData[SampleRun] -->
<g id="edge20" class="edge">
<title>DetectorData[SampleRun]:e&#45;&gt;DetectorTofData[SampleRun]:w</title>
<path fill="none" stroke="black" d="M1587.5,-191.5C1636.87,-191.5 1652.48,-189.72 1695.5,-165.5 1730.42,-145.84 1724.51,-121.89 1759,-101.5 1775.3,-91.87 1782.76,-88.56 1798,-87.73"/>
<polygon fill="black" stroke="black" points="1798.08,-91.23 1808,-87.5 1797.92,-84.23 1798.08,-91.23"/>
</g>
<!-- DetectorTofData[VanadiumRun] -->
<g id="node33" class="node">
<title>DetectorTofData[VanadiumRun]</title>
<polygon fill="none" stroke="black" points="1912,-123 1802,-123 1802,-102 1912,-102 1912,-123"/>
<text text-anchor="start" x="1810" y="-109.4" font-family="Times,serif" font-size="12.00">[VanadiumRun]</text>
</g>
<!-- DetectorData[VanadiumRun]&#45;&gt;DetectorTofData[VanadiumRun] -->
<g id="edge24" class="edge">
<title>DetectorData[VanadiumRun]:e&#45;&gt;DetectorTofData[VanadiumRun]:w</title>
<path fill="none" stroke="black" d="M1594.5,-216.5C1639.82,-216.5 1654.16,-221.06 1695.5,-202.5 1748.43,-178.73 1740.58,-119.95 1790.9,-113.15"/>
<polygon fill="black" stroke="black" points="1791.24,-116.63 1801,-112.5 1790.8,-109.65 1791.24,-116.63"/>
</g>
<!-- DetectorLtotal[SampleRun]&#45;&gt;DetectorTofData[SampleRun] -->
<g id="edge22" class="edge">
<title>DetectorLtotal[SampleRun]:e&#45;&gt;DetectorTofData[SampleRun]:w</title>
<path fill="none" stroke="black" d="M1587.5,-87.5C1682.05,-87.5 1708.19,-87.5 1797.93,-87.5"/>
<polygon fill="black" stroke="black" points="1798,-91 1808,-87.5 1798,-84 1798,-91"/>
</g>
<!-- DetectorLtotal[VanadiumRun]&#45;&gt;DetectorTofData[VanadiumRun] -->
<g id="edge25" class="edge">
<title>DetectorLtotal[VanadiumRun]:e&#45;&gt;DetectorTofData[VanadiumRun]:w</title>
<path fill="none" stroke="black" d="M1594.5,-112.5C1682.78,-112.5 1707.37,-112.5 1790.81,-112.5"/>
<polygon fill="black" stroke="black" points="1791,-116 1801,-112.5 1791,-109 1791,-116"/>
</g>
<!-- DetectorTofData[SampleRun]&#45;&gt;FilteredData[SampleRun] -->
<g id="edge30" class="edge">
<title>DetectorTofData[SampleRun]:e&#45;&gt;FilteredData[SampleRun]:w</title>
<path fill="none" stroke="black" d="M1906,-87.5C1991.42,-87.5 2015.27,-87.5 2095.88,-87.5"/>
<polygon fill="black" stroke="black" points="2096,-91 2106,-87.5 2096,-84 2096,-91"/>
</g>
<!-- TimeOfFlightLookupTable -->
<g id="node31" class="node">
<title>TimeOfFlightLookupTable</title>
<polygon fill="none" stroke="black" points="1639,-60 1438,-60 1438,-27 1639,-27 1639,-60"/>
<text text-anchor="start" x="1446" y="-45.8" font-family="Times,serif" font-size="14.00">TimeOfFlightLookupTable</text>
<text text-anchor="start" x="1467.5" y="-34.2" font-family="Times,serif" font-size="11.00">via:</text>
<text text-anchor="start" x="1488.5" y="-34.2" font-family="Times,serif" font-style="italic" font-size="11.00">load_tof_lookup_table</text>
</g>
<!-- TimeOfFlightLookupTable&#45;&gt;DetectorTofData[SampleRun] -->
<g id="edge21" class="edge">
<title>TimeOfFlightLookupTable:e&#45;&gt;DetectorTofData[SampleRun]:w</title>
<path fill="none" stroke="black" stroke-width="2" d="M1640.5,-43.5C1692.75,-43.5 1715.78,-63.77 1749.25,-76.8"/>
<polygon fill="black" stroke="black" stroke-width="2" points="1748.41,-80.21 1759,-80.26 1750.75,-73.61 1748.41,-80.21"/>
</g>
<!-- PulseStrideOffset -->
<g id="node32" class="node">
<title>PulseStrideOffset</title>
<polygon fill="none" stroke="black" points="1610,-23 1467,-23 1467,0 1610,0 1610,-23"/>
<text text-anchor="middle" x="1538.5" y="-7.8" font-family="Times,serif" font-size="14.00">PulseStrideOffset</text>
</g>
<!-- PulseStrideOffset&#45;&gt;DetectorTofData[SampleRun] -->
<g id="edge23" class="edge">
<title>PulseStrideOffset:e&#45;&gt;DetectorTofData[SampleRun]:w</title>
<path fill="none" stroke="black" stroke-width="2" d="M1611.5,-11.5C1649.42,-11.5 1659.71,-13.97 1695.5,-26.5 1722.78,-36.05 1736.7,-51.65 1751.26,-64.68"/>
<polygon fill="black" stroke="black" stroke-width="2" points="1749.1,-67.44 1759,-71.22 1753.62,-62.09 1749.1,-67.44"/>
</g>
<!-- DetectorTofData[VanadiumRun]&#45;&gt;FilteredData[VanadiumRun] -->
<g id="edge31" class="edge">
<title>DetectorTofData[VanadiumRun]:e&#45;&gt;FilteredData[VanadiumRun]:w</title>
<path fill="none" stroke="black" d="M1913,-112.5C1992.11,-112.5 2014.44,-112.5 2088.68,-112.5"/>
<polygon fill="black" stroke="black" points="2089,-116 2099,-112.5 2089,-109 2089,-116"/>
</g>
<!-- MaskedData[SampleRun] -->
<g id="node34" class="node">
<title>MaskedData[SampleRun]</title>
<polygon fill="none" stroke="black" points="3100,-119 3005,-119 3005,-98 3100,-98 3100,-119"/>
<text text-anchor="start" x="3013" y="-105.4" font-family="Times,serif" font-size="12.00">[SampleRun]</text>
</g>
<!-- MaskedData[SampleRun]&#45;&gt;DspacingData[SampleRun] -->
<g id="edge26" class="edge">
<title>MaskedData[SampleRun]:e&#45;&gt;DspacingData[SampleRun]:w</title>
<path fill="none" stroke="black" d="M3101.5,-108.5C3157.74,-108.5 3169.92,-76.6 3220.99,-72.86"/>
<polygon fill="black" stroke="black" points="3221.13,-76.35 3231,-72.5 3220.88,-69.36 3221.13,-76.35"/>
</g>
<!-- DspacingData[SampleRun]&#45;&gt;FocussedDataDspacing[SampleRun] -->
<g id="edge32" class="edge">
<title>DspacingData[SampleRun]:e&#45;&gt;FocussedDataDspacing[SampleRun]:w</title>
<path fill="none" stroke="black" d="M3329,-72.5C3392.99,-72.5 3411.52,-72.5 3470.72,-72.5"/>
<polygon fill="black" stroke="black" points="3471,-76 3481,-72.5 3471,-69 3471,-76"/>
</g>
<!-- MaskedData[VanadiumRun] -->
<g id="node36" class="node">
<title>MaskedData[VanadiumRun]</title>
<polygon fill="none" stroke="black" points="3107.5,-144 2997.5,-144 2997.5,-123 3107.5,-123 3107.5,-144"/>
<text text-anchor="start" x="3005.5" y="-130.4" font-family="Times,serif" font-size="12.00">[VanadiumRun]</text>
</g>
<!-- DspacingData[VanadiumRun] -->
<g id="node37" class="node">
<title>DspacingData[VanadiumRun]</title>
<polygon fill="none" stroke="black" points="3335,-108 3225,-108 3225,-87 3335,-87 3335,-108"/>
<text text-anchor="start" x="3233" y="-94.4" font-family="Times,serif" font-size="12.00">[VanadiumRun]</text>
</g>
<!-- MaskedData[VanadiumRun]&#45;&gt;DspacingData[VanadiumRun] -->
<g id="edge29" class="edge">
<title>MaskedData[VanadiumRun]:e&#45;&gt;DspacingData[VanadiumRun]:w</title>
<path fill="none" stroke="black" d="M3108.5,-133.5C3158.7,-133.5 3168.97,-102.12 3213.87,-97.96"/>
<polygon fill="black" stroke="black" points="3214.17,-101.45 3224,-97.5 3213.85,-94.45 3214.17,-101.45"/>
</g>
<!-- FocussedDataDspacing[VanadiumRun] -->
<g id="node39" class="node">
<title>FocussedDataDspacing[VanadiumRun]</title>
<polygon fill="none" stroke="black" points="3585,-108 3475,-108 3475,-87 3585,-87 3585,-108"/>
<text text-anchor="start" x="3483" y="-94.4" font-family="Times,serif" font-size="12.00">[VanadiumRun]</text>
</g>
<!-- DspacingData[VanadiumRun]&#45;&gt;FocussedDataDspacing[VanadiumRun] -->
<g id="edge34" class="edge">
<title>DspacingData[VanadiumRun]:e&#45;&gt;FocussedDataDspacing[VanadiumRun]:w</title>
<path fill="none" stroke="black" d="M3336,-97.5C3393.74,-97.5 3410.71,-97.5 3463.67,-97.5"/>
<polygon fill="black" stroke="black" points="3464,-101 3474,-97.5 3464,-94 3464,-101"/>
</g>
<!-- IofDspacing -->
<g id="node41" class="node">
<title>IofDspacing</title>
<polygon fill="none" stroke="black" points="3935,-89 3709,-89 3709,-56 3935,-56 3935,-89"/>
<text text-anchor="start" x="3779.5" y="-74.8" font-family="Times,serif" font-size="14.00">IofDspacing</text>
<text text-anchor="start" x="3717" y="-63.2" font-family="Times,serif" font-size="11.00">via:</text>
<text text-anchor="start" x="3738" y="-63.2" font-family="Times,serif" font-style="italic" font-size="11.00">normalize_by_vanadium_dspacing</text>
</g>
<!-- FocussedDataDspacing[SampleRun]&#45;&gt;IofDspacing -->
<g id="edge35" class="edge">
<title>FocussedDataDspacing[SampleRun]:e&#45;&gt;IofDspacing:w</title>
<path fill="none" stroke="black" d="M3579,-72.5C3633.28,-72.5 3649.31,-72.5 3698.96,-72.5"/>
<polygon fill="black" stroke="black" points="3699,-76 3709,-72.5 3699,-69 3699,-76"/>
</g>
<!-- FocussedDataDspacing[VanadiumRun]&#45;&gt;IofDspacing -->
<g id="edge36" class="edge">
<title>FocussedDataDspacing[VanadiumRun]:e&#45;&gt;IofDspacing:w</title>
<path fill="none" stroke="black" d="M3586,-97.5C3638.19,-97.5 3651.56,-75.62 3698.74,-72.8"/>
<polygon fill="black" stroke="black" points="3699.11,-76.29 3709,-72.5 3698.9,-69.29 3699.11,-76.29"/>
</g>
<!-- InstrumentConfiguration -->
<g id="node40" class="node">
<title>InstrumentConfiguration</title>
<polygon fill="none" stroke="black" points="927,-55 733,-55 733,-32 927,-32 927,-55"/>
<text text-anchor="middle" x="830" y="-39.8" font-family="Times,serif" font-size="14.00">InstrumentConfiguration</text>
</g>
<!-- TimeOfFlightLookupTableFilename -->
<g id="node50" class="node">
<title>TimeOfFlightLookupTableFilename</title>
<polygon fill="none" stroke="black" points="1310,-60 1008,-60 1008,-27 1310,-27 1310,-60"/>
<text text-anchor="start" x="1033.5" y="-45.8" font-family="Times,serif" font-size="14.00">TimeOfFlightLookupTableFilename</text>
<text text-anchor="start" x="1016" y="-34.2" font-family="Times,serif" font-size="11.00">via:</text>
<text text-anchor="start" x="1037" y="-34.2" font-family="Times,serif" font-style="italic" font-size="11.00">_get_lookup_table_filename_from_configuration</text>
</g>
<!-- InstrumentConfiguration&#45;&gt;TimeOfFlightLookupTableFilename -->
<g id="edge53" class="edge">
<title>InstrumentConfiguration:e&#45;&gt;TimeOfFlightLookupTableFilename:w</title>
<path fill="none" stroke="black" d="M928,-43.5C959.94,-43.5 970.36,-43.5 997.94,-43.5"/>
<polygon fill="black" stroke="black" points="998,-47 1008,-43.5 998,-40 998,-47"/>
</g>
<!-- UncertaintyBroadcastMode -->
<g id="node42" class="node">
<title>UncertaintyBroadcastMode</title>
<polygon fill="none" stroke="black" points="3637,-45 3423,-45 3423,-22 3637,-22 3637,-45"/>
<text text-anchor="middle" x="3530" y="-29.8" font-family="Times,serif" font-size="14.00">UncertaintyBroadcastMode</text>
</g>
<!-- UncertaintyBroadcastMode&#45;&gt;IofDspacing -->
<g id="edge37" class="edge">
<title>UncertaintyBroadcastMode:e&#45;&gt;IofDspacing:w</title>
<path fill="none" stroke="black" d="M3637,-33.5C3669.7,-33.5 3672.38,-64.98 3698.98,-71.37"/>
<polygon fill="black" stroke="black" points="3698.67,-74.86 3709,-72.5 3699.45,-67.91 3698.67,-74.86"/>
</g>
<!-- NormalizedRunData[SampleRun]&#45;&gt;MaskedData[SampleRun] -->
<g id="edge38" class="edge">
<title>NormalizedRunData[SampleRun]:e&#45;&gt;MaskedData[SampleRun]:w</title>
<path fill="none" stroke="black" d="M2845,-191.5C2920.95,-191.5 2923.87,-115.79 2993.25,-108.99"/>
<polygon fill="black" stroke="black" points="2993.68,-112.47 3003.5,-108.5 2993.34,-105.48 2993.68,-112.47"/>
</g>
<!-- MaskedDetectorIDs -->
<g id="node44" class="node">
<title>MaskedDetectorIDs</title>
<polygon fill="none" stroke="black" points="2875,-164 2717,-164 2717,-141 2875,-141 2875,-164"/>
<text text-anchor="middle" x="2796" y="-148.8" font-family="Times,serif" font-size="14.00">MaskedDetectorIDs</text>
</g>
<!-- MaskedDetectorIDs&#45;&gt;MaskedData[SampleRun] -->
<g id="edge39" class="edge">
<title>MaskedDetectorIDs:e&#45;&gt;MaskedData[SampleRun]:w</title>
<path fill="none" stroke="black" stroke-width="2" d="M2876,-152.5C2926.86,-152.5 2940.04,-120.83 2979.48,-111.23"/>
<polygon fill="black" stroke="black" stroke-width="2" points="2980.31,-114.63 2989.5,-109.37 2979.03,-107.75 2980.31,-114.63"/>
</g>
<!-- TofMask -->
<g id="node45" class="node">
<title>TofMask</title>
<polygon fill="none" stroke="black" points="2834.5,-137 2757.5,-137 2757.5,-114 2834.5,-114 2834.5,-137"/>
<text text-anchor="middle" x="2796" y="-121.8" font-family="Times,serif" font-size="14.00">TofMask</text>
</g>
<!-- TofMask&#45;&gt;MaskedData[SampleRun] -->
<g id="edge40" class="edge">
<title>TofMask:e&#45;&gt;MaskedData[SampleRun]:w</title>
<path fill="none" stroke="black" stroke-width="2" d="M2836,-125.5C2902.1,-125.5 2923.74,-112.23 2979.47,-109.14"/>
<polygon fill="black" stroke="black" stroke-width="2" points="2979.66,-112.63 2989.5,-108.71 2979.36,-105.64 2979.66,-112.63"/>
</g>
<!-- WavelengthMask -->
<g id="node46" class="node">
<title>WavelengthMask</title>
<polygon fill="none" stroke="black" points="2865.5,-110 2726.5,-110 2726.5,-87 2865.5,-87 2865.5,-110"/>
<text text-anchor="middle" x="2796" y="-94.8" font-family="Times,serif" font-size="14.00">WavelengthMask</text>
</g>
<!-- WavelengthMask&#45;&gt;MaskedData[SampleRun] -->
<g id="edge41" class="edge">
<title>WavelengthMask:e&#45;&gt;MaskedData[SampleRun]:w</title>
<path fill="none" stroke="black" stroke-width="2" d="M2867,-98.5C2918.95,-98.5 2937.36,-105.79 2979.51,-107.92"/>
<polygon fill="black" stroke="black" stroke-width="2" points="2979.38,-111.42 2989.5,-108.31 2979.65,-104.43 2979.38,-111.42"/>
</g>
<!-- TwoThetaMask -->
<g id="node47" class="node">
<title>TwoThetaMask</title>
<polygon fill="none" stroke="black" points="2858.5,-83 2733.5,-83 2733.5,-60 2858.5,-60 2858.5,-83"/>
<text text-anchor="middle" x="2796" y="-67.8" font-family="Times,serif" font-size="14.00">TwoThetaMask</text>
</g>
<!-- TwoThetaMask&#45;&gt;MaskedData[SampleRun] -->
<g id="edge42" class="edge">
<title>TwoThetaMask:e&#45;&gt;MaskedData[SampleRun]:w</title>
<path fill="none" stroke="black" stroke-width="2" d="M2859,-71.5C2916.39,-71.5 2933.02,-99.22 2979.46,-106.68"/>
<polygon fill="black" stroke="black" stroke-width="2" points="2979.15,-110.16 2989.5,-107.91 2980,-103.22 2979.15,-110.16"/>
</g>
<!-- NormalizedRunData[VanadiumRun]&#45;&gt;MaskedData[VanadiumRun] -->
<g id="edge43" class="edge">
<title>NormalizedRunData[VanadiumRun]:e&#45;&gt;MaskedData[VanadiumRun]:w</title>
<path fill="none" stroke="black" d="M2852,-216.5C2922.45,-216.5 2922.61,-141.41 2986.19,-134.07"/>
<polygon fill="black" stroke="black" points="2986.71,-137.55 2996.5,-133.5 2986.32,-130.56 2986.71,-137.55"/>
</g>
<!-- NeXusName[NXdetector] -->
<g id="node49" class="node">
<title>NeXusName[NXdetector]</title>
<polygon fill="none" stroke="black" points="395,-278 198,-278 198,-255 395,-255 395,-278"/>
<text text-anchor="middle" x="296.5" y="-262.8" font-family="Times,serif" font-size="14.00">NeXusName[NXdetector]</text>
</g>
<!-- NeXusName[NXdetector]&#45;&gt;NeXusComponent[NXdetector, SampleRun] -->
<g id="edge45" class="edge">
<title>NeXusName[NXdetector]:e&#45;&gt;NeXusComponent[NXdetector, SampleRun]:w</title>
<path fill="none" stroke="black" d="M395,-266.5C427.35,-266.5 435.87,-282.64 463.38,-285.92"/>
<polygon fill="black" stroke="black" points="463.32,-289.42 473.5,-286.5 463.72,-282.44 463.32,-289.42"/>
</g>
<!-- NeXusName[NXdetector]&#45;&gt;NeXusComponent[NXdetector, VanadiumRun] -->
<g id="edge47" class="edge">
<title>NeXusName[NXdetector]:e&#45;&gt;NeXusComponent[NXdetector, VanadiumRun]:w</title>
<path fill="none" stroke="black" d="M395,-266.5C428.73,-266.5 429.26,-302.82 456.25,-310.2"/>
<polygon fill="black" stroke="black" points="456.14,-313.72 466.5,-311.5 457.02,-306.77 456.14,-313.72"/>
</g>
<!-- TimeOfFlightLookupTableFilename&#45;&gt;TimeOfFlightLookupTable -->
<g id="edge52" class="edge">
<title>TimeOfFlightLookupTableFilename:e&#45;&gt;TimeOfFlightLookupTable:w</title>
<path fill="none" stroke="black" d="M1310,-43.5C1362.71,-43.5 1378.36,-43.5 1426.43,-43.5"/>
<polygon fill="black" stroke="black" points="1426.5,-47 1436.5,-43.5 1426.5,-40 1426.5,-47"/>
</g>
</g>
</svg>
