<?xml version="1.0" encoding="utf-8" standalone="no"?>
<!DOCTYPE svg PUBLIC "-//W3C//DTD SVG 1.1//EN"
  "http://www.w3.org/Graphics/SVG/1.1/DTD/svg11.dtd">
<svg xmlns:xlink="http://www.w3.org/1999/xlink" width="382.603125pt" height="283.31875pt" viewBox="0 0 382.603125 283.31875" xmlns="http://www.w3.org/2000/svg" version="1.1">
 <metadata>
  <rdf:RDF xmlns:dc="http://purl.org/dc/elements/1.1/" xmlns:cc="http://creativecommons.org/ns#" xmlns:rdf="http://www.w3.org/1999/02/22-rdf-syntax-ns#">
   <cc:Work>
    <dc:type rdf:resource="http://purl.org/dc/dcmitype/StillImage"/>
    <dc:date>2025-05-23T07:46:42.966833</dc:date>
    <dc:format>image/svg+xml</dc:format>
    <dc:creator>
     <cc:Agent>
      <dc:title>Matplotlib v3.10.3, https://matplotlib.org/</dc:title>
     </cc:Agent>
    </dc:creator>
   </cc:Work>
  </rdf:RDF>
 </metadata>
 <defs>
  <style type="text/css">*{stroke-linejoin: round; stroke-linecap: butt}</style>
 </defs>
 <g id="figure_1">
  <g id="patch_1">
   <path d="M 0 283.31875 
L 382.603125 283.31875 
L 382.603125 0 
L 0 0 
z
" style="fill: #ffffff"/>
  </g>
  <g id="axes_1">
   <g id="patch_2">
    <path d="M 40.603125 244.078125 
L 375.403125 244.078125 
L 375.403125 22.318125 
L 40.603125 22.318125 
z
" style="fill: #ffffff"/>
   </g>
   <g id="matplotlib.axis_1">
    <g id="xtick_1">
     <g id="line2d_1">
      <defs>
       <path id="mf00bab05f2" d="M 0 0 
L 0 3.5 
" style="stroke: #000000; stroke-width: 0.8"/>
      </defs>
      <g>
       <use xlink:href="#mf00bab05f2" x="48.373826" y="244.078125" style="stroke: #000000; stroke-width: 0.8"/>
      </g>
     </g>
     <g id="text_1">
      <!-- 0.25 -->
      <g transform="translate(37.241014 258.676563) scale(0.1 -0.1)">
       <defs>
        <path id="DejaVuSans-30" d="M 2034 4250 
Q 1547 4250 1301 3770 
Q 1056 3291 1056 2328 
Q 1056 1369 1301 889 
Q 1547 409 2034 409 
Q 2525 409 2770 889 
Q 3016 1369 3016 2328 
Q 3016 3291 2770 3770 
Q 2525 4250 2034 4250 
z
M 2034 4750 
Q 2819 4750 3233 4129 
Q 3647 3509 3647 2328 
Q 3647 1150 3233 529 
Q 2819 -91 2034 -91 
Q 1250 -91 836 529 
Q 422 1150 422 2328 
Q 422 3509 836 4129 
Q 1250 4750 2034 4750 
z
" transform="scale(0.015625)"/>
        <path id="DejaVuSans-2e" d="M 684 794 
L 1344 794 
L 1344 0 
L 684 0 
L 684 794 
z
" transform="scale(0.015625)"/>
        <path id="DejaVuSans-32" d="M 1228 531 
L 3431 531 
L 3431 0 
L 469 0 
L 469 531 
Q 828 903 1448 1529 
Q 2069 2156 2228 2338 
Q 2531 2678 2651 2914 
Q 2772 3150 2772 3378 
Q 2772 3750 2511 3984 
Q 2250 4219 1831 4219 
Q 1534 4219 1204 4116 
Q 875 4013 500 3803 
L 500 4441 
Q 881 4594 1212 4672 
Q 1544 4750 1819 4750 
Q 2544 4750 2975 4387 
Q 3406 4025 3406 3419 
Q 3406 3131 3298 2873 
Q 3191 2616 2906 2266 
Q 2828 2175 2409 1742 
Q 1991 1309 1228 531 
z
" transform="scale(0.015625)"/>
        <path id="DejaVuSans-35" d="M 691 4666 
L 3169 4666 
L 3169 4134 
L 1269 4134 
L 1269 2991 
Q 1406 3038 1543 3061 
Q 1681 3084 1819 3084 
Q 2600 3084 3056 2656 
Q 3513 2228 3513 1497 
Q 3513 744 3044 326 
Q 2575 -91 1722 -91 
Q 1428 -91 1123 -41 
Q 819 9 494 109 
L 494 744 
Q 775 591 1075 516 
Q 1375 441 1709 441 
Q 2250 441 2565 725 
Q 2881 1009 2881 1497 
Q 2881 1984 2565 2268 
Q 2250 2553 1709 2553 
Q 1456 2553 1204 2497 
Q 953 2441 691 2322 
L 691 4666 
z
" transform="scale(0.015625)"/>
       </defs>
       <use xlink:href="#DejaVuSans-30"/>
       <use xlink:href="#DejaVuSans-2e" transform="translate(63.623047 0)"/>
       <use xlink:href="#DejaVuSans-32" transform="translate(95.410156 0)"/>
       <use xlink:href="#DejaVuSans-35" transform="translate(159.033203 0)"/>
      </g>
     </g>
    </g>
    <g id="xtick_2">
     <g id="line2d_2">
      <g>
       <use xlink:href="#mf00bab05f2" x="85.611229" y="244.078125" style="stroke: #000000; stroke-width: 0.8"/>
      </g>
     </g>
     <g id="text_2">
      <!-- 0.50 -->
      <g transform="translate(74.478417 258.676563) scale(0.1 -0.1)">
       <use xlink:href="#DejaVuSans-30"/>
       <use xlink:href="#DejaVuSans-2e" transform="translate(63.623047 0)"/>
       <use xlink:href="#DejaVuSans-35" transform="translate(95.410156 0)"/>
       <use xlink:href="#DejaVuSans-30" transform="translate(159.033203 0)"/>
      </g>
     </g>
    </g>
    <g id="xtick_3">
     <g id="line2d_3">
      <g>
       <use xlink:href="#mf00bab05f2" x="122.848632" y="244.078125" style="stroke: #000000; stroke-width: 0.8"/>
      </g>
     </g>
     <g id="text_3">
      <!-- 0.75 -->
      <g transform="translate(111.71582 258.676563) scale(0.1 -0.1)">
       <defs>
        <path id="DejaVuSans-37" d="M 525 4666 
L 3525 4666 
L 3525 4397 
L 1831 0 
L 1172 0 
L 2766 4134 
L 525 4134 
L 525 4666 
z
" transform="scale(0.015625)"/>
       </defs>
       <use xlink:href="#DejaVuSans-30"/>
       <use xlink:href="#DejaVuSans-2e" transform="translate(63.623047 0)"/>
       <use xlink:href="#DejaVuSans-37" transform="translate(95.410156 0)"/>
       <use xlink:href="#DejaVuSans-35" transform="translate(159.033203 0)"/>
      </g>
     </g>
    </g>
    <g id="xtick_4">
     <g id="line2d_4">
      <g>
       <use xlink:href="#mf00bab05f2" x="160.086035" y="244.078125" style="stroke: #000000; stroke-width: 0.8"/>
      </g>
     </g>
     <g id="text_4">
      <!-- 1.00 -->
      <g transform="translate(148.953222 258.676563) scale(0.1 -0.1)">
       <defs>
        <path id="DejaVuSans-31" d="M 794 531 
L 1825 531 
L 1825 4091 
L 703 3866 
L 703 4441 
L 1819 4666 
L 2450 4666 
L 2450 531 
L 3481 531 
L 3481 0 
L 794 0 
L 794 531 
z
" transform="scale(0.015625)"/>
       </defs>
       <use xlink:href="#DejaVuSans-31"/>
       <use xlink:href="#DejaVuSans-2e" transform="translate(63.623047 0)"/>
       <use xlink:href="#DejaVuSans-30" transform="translate(95.410156 0)"/>
       <use xlink:href="#DejaVuSans-30" transform="translate(159.033203 0)"/>
      </g>
     </g>
    </g>
    <g id="xtick_5">
     <g id="line2d_5">
      <g>
       <use xlink:href="#mf00bab05f2" x="197.323438" y="244.078125" style="stroke: #000000; stroke-width: 0.8"/>
      </g>
     </g>
     <g id="text_5">
      <!-- 1.25 -->
      <g transform="translate(186.190625 258.676563) scale(0.1 -0.1)">
       <use xlink:href="#DejaVuSans-31"/>
       <use xlink:href="#DejaVuSans-2e" transform="translate(63.623047 0)"/>
       <use xlink:href="#DejaVuSans-32" transform="translate(95.410156 0)"/>
       <use xlink:href="#DejaVuSans-35" transform="translate(159.033203 0)"/>
      </g>
     </g>
    </g>
    <g id="xtick_6">
     <g id="line2d_6">
      <g>
       <use xlink:href="#mf00bab05f2" x="234.560841" y="244.078125" style="stroke: #000000; stroke-width: 0.8"/>
      </g>
     </g>
     <g id="text_6">
      <!-- 1.50 -->
      <g transform="translate(223.428028 258.676563) scale(0.1 -0.1)">
       <use xlink:href="#DejaVuSans-31"/>
       <use xlink:href="#DejaVuSans-2e" transform="translate(63.623047 0)"/>
       <use xlink:href="#DejaVuSans-35" transform="translate(95.410156 0)"/>
       <use xlink:href="#DejaVuSans-30" transform="translate(159.033203 0)"/>
      </g>
     </g>
    </g>
    <g id="xtick_7">
     <g id="line2d_7">
      <g>
       <use xlink:href="#mf00bab05f2" x="271.798244" y="244.078125" style="stroke: #000000; stroke-width: 0.8"/>
      </g>
     </g>
     <g id="text_7">
      <!-- 1.75 -->
      <g transform="translate(260.665431 258.676563) scale(0.1 -0.1)">
       <use xlink:href="#DejaVuSans-31"/>
       <use xlink:href="#DejaVuSans-2e" transform="translate(63.623047 0)"/>
       <use xlink:href="#DejaVuSans-37" transform="translate(95.410156 0)"/>
       <use xlink:href="#DejaVuSans-35" transform="translate(159.033203 0)"/>
      </g>
     </g>
    </g>
    <g id="xtick_8">
     <g id="line2d_8">
      <g>
       <use xlink:href="#mf00bab05f2" x="309.035647" y="244.078125" style="stroke: #000000; stroke-width: 0.8"/>
      </g>
     </g>
     <g id="text_8">
      <!-- 2.00 -->
      <g transform="translate(297.902834 258.676563) scale(0.1 -0.1)">
       <use xlink:href="#DejaVuSans-32"/>
       <use xlink:href="#DejaVuSans-2e" transform="translate(63.623047 0)"/>
       <use xlink:href="#DejaVuSans-30" transform="translate(95.410156 0)"/>
       <use xlink:href="#DejaVuSans-30" transform="translate(159.033203 0)"/>
      </g>
     </g>
    </g>
    <g id="xtick_9">
     <g id="line2d_9">
      <g>
       <use xlink:href="#mf00bab05f2" x="346.273049" y="244.078125" style="stroke: #000000; stroke-width: 0.8"/>
      </g>
     </g>
     <g id="text_9">
      <!-- 2.25 -->
      <g transform="translate(335.140237 258.676563) scale(0.1 -0.1)">
       <use xlink:href="#DejaVuSans-32"/>
       <use xlink:href="#DejaVuSans-2e" transform="translate(63.623047 0)"/>
       <use xlink:href="#DejaVuSans-32" transform="translate(95.410156 0)"/>
       <use xlink:href="#DejaVuSans-35" transform="translate(159.033203 0)"/>
      </g>
     </g>
    </g>
    <g id="text_10">
     <!-- dspacing [Å] -->
     <g transform="translate(176.59375 274.039062) scale(0.1 -0.1)">
      <defs>
       <path id="DejaVuSans-64" d="M 2906 2969 
L 2906 4863 
L 3481 4863 
L 3481 0 
L 2906 0 
L 2906 525 
Q 2725 213 2448 61 
Q 2172 -91 1784 -91 
Q 1150 -91 751 415 
Q 353 922 353 1747 
Q 353 2572 751 3078 
Q 1150 3584 1784 3584 
Q 2172 3584 2448 3432 
Q 2725 3281 2906 2969 
z
M 947 1747 
Q 947 1113 1208 752 
Q 1469 391 1925 391 
Q 2381 391 2643 752 
Q 2906 1113 2906 1747 
Q 2906 2381 2643 2742 
Q 2381 3103 1925 3103 
Q 1469 3103 1208 2742 
Q 947 2381 947 1747 
z
" transform="scale(0.015625)"/>
       <path id="DejaVuSans-73" d="M 2834 3397 
L 2834 2853 
Q 2591 2978 2328 3040 
Q 2066 3103 1784 3103 
Q 1356 3103 1142 2972 
Q 928 2841 928 2578 
Q 928 2378 1081 2264 
Q 1234 2150 1697 2047 
L 1894 2003 
Q 2506 1872 2764 1633 
Q 3022 1394 3022 966 
Q 3022 478 2636 193 
Q 2250 -91 1575 -91 
Q 1294 -91 989 -36 
Q 684 19 347 128 
L 347 722 
Q 666 556 975 473 
Q 1284 391 1588 391 
Q 1994 391 2212 530 
Q 2431 669 2431 922 
Q 2431 1156 2273 1281 
Q 2116 1406 1581 1522 
L 1381 1569 
Q 847 1681 609 1914 
Q 372 2147 372 2553 
Q 372 3047 722 3315 
Q 1072 3584 1716 3584 
Q 2034 3584 2315 3537 
Q 2597 3491 2834 3397 
z
" transform="scale(0.015625)"/>
       <path id="DejaVuSans-70" d="M 1159 525 
L 1159 -1331 
L 581 -1331 
L 581 3500 
L 1159 3500 
L 1159 2969 
Q 1341 3281 1617 3432 
Q 1894 3584 2278 3584 
Q 2916 3584 3314 3078 
Q 3713 2572 3713 1747 
Q 3713 922 3314 415 
Q 2916 -91 2278 -91 
Q 1894 -91 1617 61 
Q 1341 213 1159 525 
z
M 3116 1747 
Q 3116 2381 2855 2742 
Q 2594 3103 2138 3103 
Q 1681 3103 1420 2742 
Q 1159 2381 1159 1747 
Q 1159 1113 1420 752 
Q 1681 391 2138 391 
Q 2594 391 2855 752 
Q 3116 1113 3116 1747 
z
" transform="scale(0.015625)"/>
       <path id="DejaVuSans-61" d="M 2194 1759 
Q 1497 1759 1228 1600 
Q 959 1441 959 1056 
Q 959 750 1161 570 
Q 1363 391 1709 391 
Q 2188 391 2477 730 
Q 2766 1069 2766 1631 
L 2766 1759 
L 2194 1759 
z
M 3341 1997 
L 3341 0 
L 2766 0 
L 2766 531 
Q 2569 213 2275 61 
Q 1981 -91 1556 -91 
Q 1019 -91 701 211 
Q 384 513 384 1019 
Q 384 1609 779 1909 
Q 1175 2209 1959 2209 
L 2766 2209 
L 2766 2266 
Q 2766 2663 2505 2880 
Q 2244 3097 1772 3097 
Q 1472 3097 1187 3025 
Q 903 2953 641 2809 
L 641 3341 
Q 956 3463 1253 3523 
Q 1550 3584 1831 3584 
Q 2591 3584 2966 3190 
Q 3341 2797 3341 1997 
z
" transform="scale(0.015625)"/>
       <path id="DejaVuSans-63" d="M 3122 3366 
L 3122 2828 
Q 2878 2963 2633 3030 
Q 2388 3097 2138 3097 
Q 1578 3097 1268 2742 
Q 959 2388 959 1747 
Q 959 1106 1268 751 
Q 1578 397 2138 397 
Q 2388 397 2633 464 
Q 2878 531 3122 666 
L 3122 134 
Q 2881 22 2623 -34 
Q 2366 -91 2075 -91 
Q 1284 -91 818 406 
Q 353 903 353 1747 
Q 353 2603 823 3093 
Q 1294 3584 2113 3584 
Q 2378 3584 2631 3529 
Q 2884 3475 3122 3366 
z
" transform="scale(0.015625)"/>
       <path id="DejaVuSans-69" d="M 603 3500 
L 1178 3500 
L 1178 0 
L 603 0 
L 603 3500 
z
M 603 4863 
L 1178 4863 
L 1178 4134 
L 603 4134 
L 603 4863 
z
" transform="scale(0.015625)"/>
       <path id="DejaVuSans-6e" d="M 3513 2113 
L 3513 0 
L 2938 0 
L 2938 2094 
Q 2938 2591 2744 2837 
Q 2550 3084 2163 3084 
Q 1697 3084 1428 2787 
Q 1159 2491 1159 1978 
L 1159 0 
L 581 0 
L 581 3500 
L 1159 3500 
L 1159 2956 
Q 1366 3272 1645 3428 
Q 1925 3584 2291 3584 
Q 2894 3584 3203 3211 
Q 3513 2838 3513 2113 
z
" transform="scale(0.015625)"/>
       <path id="DejaVuSans-67" d="M 2906 1791 
Q 2906 2416 2648 2759 
Q 2391 3103 1925 3103 
Q 1463 3103 1205 2759 
Q 947 2416 947 1791 
Q 947 1169 1205 825 
Q 1463 481 1925 481 
Q 2391 481 2648 825 
Q 2906 1169 2906 1791 
z
M 3481 434 
Q 3481 -459 3084 -895 
Q 2688 -1331 1869 -1331 
Q 1566 -1331 1297 -1286 
Q 1028 -1241 775 -1147 
L 775 -588 
Q 1028 -725 1275 -790 
Q 1522 -856 1778 -856 
Q 2344 -856 2625 -561 
Q 2906 -266 2906 331 
L 2906 616 
Q 2728 306 2450 153 
Q 2172 0 1784 0 
Q 1141 0 747 490 
Q 353 981 353 1791 
Q 353 2603 747 3093 
Q 1141 3584 1784 3584 
Q 2172 3584 2450 3431 
Q 2728 3278 2906 2969 
L 2906 3500 
L 3481 3500 
L 3481 434 
z
" transform="scale(0.015625)"/>
       <path id="DejaVuSans-20" transform="scale(0.015625)"/>
       <path id="DejaVuSans-5b" d="M 550 4863 
L 1875 4863 
L 1875 4416 
L 1125 4416 
L 1125 -397 
L 1875 -397 
L 1875 -844 
L 550 -844 
L 550 4863 
z
" transform="scale(0.015625)"/>
       <path id="DejaVuSans-c5" d="M 2663 5081 
Q 2663 5278 2523 5417 
Q 2384 5556 2188 5556 
Q 1988 5556 1852 5420 
Q 1716 5284 1716 5081 
Q 1716 4884 1853 4746 
Q 1991 4609 2188 4609 
Q 2384 4609 2523 4746 
Q 2663 4884 2663 5081 
z
M 2188 4044 
L 1338 1722 
L 3041 1722 
L 2188 4044 
z
M 1716 4366 
Q 1525 4494 1428 4673 
Q 1331 4853 1331 5081 
Q 1331 5441 1579 5691 
Q 1828 5941 2188 5941 
Q 2544 5941 2795 5689 
Q 3047 5438 3047 5081 
Q 3047 4863 2948 4678 
Q 2850 4494 2663 4366 
L 4325 0 
L 3669 0 
L 3244 1197 
L 1141 1197 
L 716 0 
L 50 0 
L 1716 4366 
z
" transform="scale(0.015625)"/>
       <path id="DejaVuSans-5d" d="M 1947 4863 
L 1947 -844 
L 622 -844 
L 622 -397 
L 1369 -397 
L 1369 4416 
L 622 4416 
L 622 4863 
L 1947 4863 
z
" transform="scale(0.015625)"/>
      </defs>
      <use xlink:href="#DejaVuSans-64"/>
      <use xlink:href="#DejaVuSans-73" transform="translate(63.476562 0)"/>
      <use xlink:href="#DejaVuSans-70" transform="translate(115.576172 0)"/>
      <use xlink:href="#DejaVuSans-61" transform="translate(179.052734 0)"/>
      <use xlink:href="#DejaVuSans-63" transform="translate(240.332031 0)"/>
      <use xlink:href="#DejaVuSans-69" transform="translate(295.3125 0)"/>
      <use xlink:href="#DejaVuSans-6e" transform="translate(323.095703 0)"/>
      <use xlink:href="#DejaVuSans-67" transform="translate(386.474609 0)"/>
      <use xlink:href="#DejaVuSans-20" transform="translate(449.951172 0)"/>
      <use xlink:href="#DejaVuSans-5b" transform="translate(481.738281 0)"/>
      <use xlink:href="#DejaVuSans-c5" transform="translate(520.751953 0)"/>
      <use xlink:href="#DejaVuSans-5d" transform="translate(589.160156 0)"/>
     </g>
    </g>
   </g>
   <g id="matplotlib.axis_2">
    <g id="ytick_1">
     <g id="line2d_10">
      <defs>
       <path id="mb7babacd06" d="M 0 0 
L -3.5 0 
" style="stroke: #000000; stroke-width: 0.8"/>
      </defs>
      <g>
       <use xlink:href="#mb7babacd06" x="40.603125" y="231.802307" style="stroke: #000000; stroke-width: 0.8"/>
      </g>
     </g>
     <g id="text_11">
      <!-- 0 -->
      <g transform="translate(27.240625 235.601525) scale(0.1 -0.1)">
       <use xlink:href="#DejaVuSans-30"/>
      </g>
     </g>
    </g>
    <g id="ytick_2">
     <g id="line2d_11">
      <g>
       <use xlink:href="#mb7babacd06" x="40.603125" y="189.235152" style="stroke: #000000; stroke-width: 0.8"/>
      </g>
     </g>
     <g id="text_12">
      <!-- 10 -->
      <g transform="translate(20.878125 193.034371) scale(0.1 -0.1)">
       <use xlink:href="#DejaVuSans-31"/>
       <use xlink:href="#DejaVuSans-30" transform="translate(63.623047 0)"/>
      </g>
     </g>
    </g>
    <g id="ytick_3">
     <g id="line2d_12">
      <g>
       <use xlink:href="#mb7babacd06" x="40.603125" y="146.667998" style="stroke: #000000; stroke-width: 0.8"/>
      </g>
     </g>
     <g id="text_13">
      <!-- 20 -->
      <g transform="translate(20.878125 150.467217) scale(0.1 -0.1)">
       <use xlink:href="#DejaVuSans-32"/>
       <use xlink:href="#DejaVuSans-30" transform="translate(63.623047 0)"/>
      </g>
     </g>
    </g>
    <g id="ytick_4">
     <g id="line2d_13">
      <g>
       <use xlink:href="#mb7babacd06" x="40.603125" y="104.100844" style="stroke: #000000; stroke-width: 0.8"/>
      </g>
     </g>
     <g id="text_14">
      <!-- 30 -->
      <g transform="translate(20.878125 107.900063) scale(0.1 -0.1)">
       <defs>
        <path id="DejaVuSans-33" d="M 2597 2516 
Q 3050 2419 3304 2112 
Q 3559 1806 3559 1356 
Q 3559 666 3084 287 
Q 2609 -91 1734 -91 
Q 1441 -91 1130 -33 
Q 819 25 488 141 
L 488 750 
Q 750 597 1062 519 
Q 1375 441 1716 441 
Q 2309 441 2620 675 
Q 2931 909 2931 1356 
Q 2931 1769 2642 2001 
Q 2353 2234 1838 2234 
L 1294 2234 
L 1294 2753 
L 1863 2753 
Q 2328 2753 2575 2939 
Q 2822 3125 2822 3475 
Q 2822 3834 2567 4026 
Q 2313 4219 1838 4219 
Q 1578 4219 1281 4162 
Q 984 4106 628 3988 
L 628 4550 
Q 988 4650 1302 4700 
Q 1616 4750 1894 4750 
Q 2613 4750 3031 4423 
Q 3450 4097 3450 3541 
Q 3450 3153 3228 2886 
Q 3006 2619 2597 2516 
z
" transform="scale(0.015625)"/>
       </defs>
       <use xlink:href="#DejaVuSans-33"/>
       <use xlink:href="#DejaVuSans-30" transform="translate(63.623047 0)"/>
      </g>
     </g>
    </g>
    <g id="ytick_5">
     <g id="line2d_14">
      <g>
       <use xlink:href="#mb7babacd06" x="40.603125" y="61.53369" style="stroke: #000000; stroke-width: 0.8"/>
      </g>
     </g>
     <g id="text_15">
      <!-- 40 -->
      <g transform="translate(20.878125 65.332909) scale(0.1 -0.1)">
       <defs>
        <path id="DejaVuSans-34" d="M 2419 4116 
L 825 1625 
L 2419 1625 
L 2419 4116 
z
M 2253 4666 
L 3047 4666 
L 3047 1625 
L 3713 1625 
L 3713 1100 
L 3047 1100 
L 3047 0 
L 2419 0 
L 2419 1100 
L 313 1100 
L 313 1709 
L 2253 4666 
z
" transform="scale(0.015625)"/>
       </defs>
       <use xlink:href="#DejaVuSans-34"/>
       <use xlink:href="#DejaVuSans-30" transform="translate(63.623047 0)"/>
      </g>
     </g>
    </g>
    <g id="text_16">
     <!-- I(d) [dimensionless] -->
     <g transform="translate(14.798438 182.815313) rotate(-90) scale(0.1 -0.1)">
      <defs>
       <path id="DejaVuSans-49" d="M 628 4666 
L 1259 4666 
L 1259 0 
L 628 0 
L 628 4666 
z
" transform="scale(0.015625)"/>
       <path id="DejaVuSans-28" d="M 1984 4856 
Q 1566 4138 1362 3434 
Q 1159 2731 1159 2009 
Q 1159 1288 1364 580 
Q 1569 -128 1984 -844 
L 1484 -844 
Q 1016 -109 783 600 
Q 550 1309 550 2009 
Q 550 2706 781 3412 
Q 1013 4119 1484 4856 
L 1984 4856 
z
" transform="scale(0.015625)"/>
       <path id="DejaVuSans-29" d="M 513 4856 
L 1013 4856 
Q 1481 4119 1714 3412 
Q 1947 2706 1947 2009 
Q 1947 1309 1714 600 
Q 1481 -109 1013 -844 
L 513 -844 
Q 928 -128 1133 580 
Q 1338 1288 1338 2009 
Q 1338 2731 1133 3434 
Q 928 4138 513 4856 
z
" transform="scale(0.015625)"/>
       <path id="DejaVuSans-6d" d="M 3328 2828 
Q 3544 3216 3844 3400 
Q 4144 3584 4550 3584 
Q 5097 3584 5394 3201 
Q 5691 2819 5691 2113 
L 5691 0 
L 5113 0 
L 5113 2094 
Q 5113 2597 4934 2840 
Q 4756 3084 4391 3084 
Q 3944 3084 3684 2787 
Q 3425 2491 3425 1978 
L 3425 0 
L 2847 0 
L 2847 2094 
Q 2847 2600 2669 2842 
Q 2491 3084 2119 3084 
Q 1678 3084 1418 2786 
Q 1159 2488 1159 1978 
L 1159 0 
L 581 0 
L 581 3500 
L 1159 3500 
L 1159 2956 
Q 1356 3278 1631 3431 
Q 1906 3584 2284 3584 
Q 2666 3584 2933 3390 
Q 3200 3197 3328 2828 
z
" transform="scale(0.015625)"/>
       <path id="DejaVuSans-65" d="M 3597 1894 
L 3597 1613 
L 953 1613 
Q 991 1019 1311 708 
Q 1631 397 2203 397 
Q 2534 397 2845 478 
Q 3156 559 3463 722 
L 3463 178 
Q 3153 47 2828 -22 
Q 2503 -91 2169 -91 
Q 1331 -91 842 396 
Q 353 884 353 1716 
Q 353 2575 817 3079 
Q 1281 3584 2069 3584 
Q 2775 3584 3186 3129 
Q 3597 2675 3597 1894 
z
M 3022 2063 
Q 3016 2534 2758 2815 
Q 2500 3097 2075 3097 
Q 1594 3097 1305 2825 
Q 1016 2553 972 2059 
L 3022 2063 
z
" transform="scale(0.015625)"/>
       <path id="DejaVuSans-6f" d="M 1959 3097 
Q 1497 3097 1228 2736 
Q 959 2375 959 1747 
Q 959 1119 1226 758 
Q 1494 397 1959 397 
Q 2419 397 2687 759 
Q 2956 1122 2956 1747 
Q 2956 2369 2687 2733 
Q 2419 3097 1959 3097 
z
M 1959 3584 
Q 2709 3584 3137 3096 
Q 3566 2609 3566 1747 
Q 3566 888 3137 398 
Q 2709 -91 1959 -91 
Q 1206 -91 779 398 
Q 353 888 353 1747 
Q 353 2609 779 3096 
Q 1206 3584 1959 3584 
z
" transform="scale(0.015625)"/>
       <path id="DejaVuSans-6c" d="M 603 4863 
L 1178 4863 
L 1178 0 
L 603 0 
L 603 4863 
z
" transform="scale(0.015625)"/>
      </defs>
      <use xlink:href="#DejaVuSans-49"/>
      <use xlink:href="#DejaVuSans-28" transform="translate(29.492188 0)"/>
      <use xlink:href="#DejaVuSans-64" transform="translate(68.505859 0)"/>
      <use xlink:href="#DejaVuSans-29" transform="translate(131.982422 0)"/>
      <use xlink:href="#DejaVuSans-20" transform="translate(170.996094 0)"/>
      <use xlink:href="#DejaVuSans-5b" transform="translate(202.783203 0)"/>
      <use xlink:href="#DejaVuSans-64" transform="translate(241.796875 0)"/>
      <use xlink:href="#DejaVuSans-69" transform="translate(305.273438 0)"/>
      <use xlink:href="#DejaVuSans-6d" transform="translate(333.056641 0)"/>
      <use xlink:href="#DejaVuSans-65" transform="translate(430.46875 0)"/>
      <use xlink:href="#DejaVuSans-6e" transform="translate(491.992188 0)"/>
      <use xlink:href="#DejaVuSans-73" transform="translate(555.371094 0)"/>
      <use xlink:href="#DejaVuSans-69" transform="translate(607.470703 0)"/>
      <use xlink:href="#DejaVuSans-6f" transform="translate(635.253906 0)"/>
      <use xlink:href="#DejaVuSans-6e" transform="translate(696.435547 0)"/>
      <use xlink:href="#DejaVuSans-6c" transform="translate(759.814453 0)"/>
      <use xlink:href="#DejaVuSans-65" transform="translate(787.597656 0)"/>
      <use xlink:href="#DejaVuSans-73" transform="translate(849.121094 0)"/>
      <use xlink:href="#DejaVuSans-73" transform="translate(901.220703 0)"/>
      <use xlink:href="#DejaVuSans-5d" transform="translate(953.320312 0)"/>
     </g>
    </g>
   </g>
   <g id="line2d_15">
    <path d="M 55.821307 232.017999 
L 57.343125 232.017999 
L 57.343125 232.303153 
L 58.864943 232.303153 
L 58.864943 232.662737 
L 60.386761 232.662737 
L 60.386761 233.033917 
L 61.90858 233.033917 
L 61.90858 232.488043 
L 63.430398 232.488043 
L 63.430398 232.897763 
L 67.995852 232.98341 
L 67.995852 232.610571 
L 69.51767 232.610571 
L 69.51767 233.012456 
L 71.039489 233.012456 
L 71.039489 232.395303 
L 72.561307 232.395303 
L 72.561307 233.362208 
L 74.083125 233.362208 
L 74.083125 232.051661 
L 75.604943 232.051661 
L 75.604943 232.870604 
L 78.64858 232.914746 
L 78.64858 231.976477 
L 80.170398 231.976477 
L 80.170398 233.415104 
L 81.692216 233.415104 
L 81.692216 232.977759 
L 83.214034 232.977759 
L 83.214034 232.353079 
L 84.735852 232.353079 
L 84.735852 231.26066 
L 86.25767 231.26066 
L 86.25767 223.030984 
L 87.779489 223.030984 
L 87.779489 225.656345 
L 89.301307 225.656345 
L 89.301307 226.252356 
L 90.823125 226.252356 
L 90.823125 211.096575 
L 92.344943 211.096575 
L 92.344943 206.300235 
L 93.866761 206.300235 
L 93.866761 226.760742 
L 95.38858 226.760742 
L 95.38858 232.100119 
L 96.910398 232.100119 
L 96.910398 230.875387 
L 98.432216 230.875387 
L 98.432216 229.062338 
L 99.954034 229.062338 
L 99.954034 220.367374 
L 101.475852 220.367374 
L 101.475852 221.684468 
L 102.99767 221.684468 
L 102.99767 222.976511 
L 104.519489 222.976511 
L 104.519489 221.151278 
L 106.041307 221.151278 
L 106.041307 221.943448 
L 107.563125 221.943448 
L 107.563125 230.015773 
L 109.084943 230.015773 
L 109.084943 230.840009 
L 110.606761 230.840009 
L 110.606761 225.376514 
L 112.12858 225.376514 
L 112.12858 203.77896 
L 113.650398 203.77896 
L 113.650398 217.048003 
L 115.172216 217.048003 
L 115.172216 220.623415 
L 116.694034 220.623415 
L 116.694034 228.317416 
L 118.215852 228.317416 
L 118.215852 232.419623 
L 119.73767 232.419623 
L 119.73767 231.865006 
L 121.259489 231.865006 
L 121.259489 232.279093 
L 122.781307 232.279093 
L 122.781307 231.520411 
L 124.303125 231.520411 
L 124.303125 231.741641 
L 125.824943 231.741641 
L 125.824943 232.149144 
L 127.346761 232.149144 
L 127.346761 231.400258 
L 128.86858 231.400258 
L 128.86858 230.867253 
L 130.390398 230.867253 
L 130.390398 224.320524 
L 131.912216 224.320524 
L 131.912216 213.68247 
L 133.434034 213.68247 
L 133.434034 216.557897 
L 134.955852 216.557897 
L 134.955852 226.570963 
L 136.47767 226.570963 
L 136.47767 229.848547 
L 137.999489 229.848547 
L 137.999489 230.608408 
L 139.521307 230.608408 
L 139.521307 230.743503 
L 141.043125 230.743503 
L 141.043125 225.736747 
L 142.564943 225.736747 
L 142.564943 212.474362 
L 144.086761 212.474362 
L 144.086761 212.777419 
L 145.60858 212.777419 
L 145.60858 225.902397 
L 147.130398 225.902397 
L 147.130398 230.320815 
L 148.652216 230.320815 
L 148.652216 231.079691 
L 150.174034 231.079691 
L 150.174034 231.190891 
L 151.695852 231.190891 
L 151.695852 231.426084 
L 153.21767 231.426084 
L 153.21767 231.299028 
L 154.739489 231.299028 
L 154.739489 231.184476 
L 160.826761 231.110078 
L 160.826761 228.461988 
L 162.34858 228.461988 
L 162.34858 211.873672 
L 163.870398 211.873672 
L 163.870398 198.986241 
L 165.392216 198.986241 
L 165.392216 214.15015 
L 166.914034 214.15015 
L 166.914034 228.099949 
L 168.435852 228.099949 
L 168.435852 222.248071 
L 169.95767 222.248071 
L 169.95767 199.299522 
L 171.479489 199.299522 
L 171.479489 201.123344 
L 173.001307 201.123344 
L 173.001307 224.055479 
L 174.523125 224.055479 
L 174.523125 230.655356 
L 176.044943 230.655356 
L 176.044943 231.448175 
L 177.566761 231.448175 
L 177.566761 231.179788 
L 180.610398 231.133974 
L 180.610398 231.559514 
L 185.175852 231.62657 
L 185.175852 230.505244 
L 186.69767 230.505244 
L 186.69767 231.388293 
L 188.219489 231.388293 
L 188.219489 231.688734 
L 191.263125 231.663549 
L 191.263125 232.051799 
L 194.306761 231.976863 
L 194.306761 232.176733 
L 198.872216 232.098709 
L 198.872216 232.297202 
L 200.394034 232.297202 
L 200.394034 232.422862 
L 206.481307 232.500582 
L 206.481307 232.593422 
L 212.56858 232.685822 
L 212.56858 232.752815 
L 214.090398 232.752815 
L 214.090398 232.61009 
L 224.743125 232.571274 
L 224.743125 232.408561 
L 226.264943 232.408561 
L 226.264943 232.600599 
L 227.786761 232.600599 
L 227.786761 232.445022 
L 229.30858 232.445022 
L 229.30858 232.711214 
L 230.830398 232.711214 
L 230.830398 232.347518 
L 235.395852 232.4512 
L 235.395852 232.604416 
L 239.961307 232.539244 
L 239.961307 232.347256 
L 241.483125 232.347256 
L 241.483125 232.531202 
L 243.004943 232.531202 
L 243.004943 232.404535 
L 244.526761 232.404535 
L 244.526761 232.190803 
L 247.570398 232.245625 
L 247.570398 232.312275 
L 252.135852 232.245693 
L 252.135852 232.109922 
L 253.65767 232.109922 
L 253.65767 232.223012 
L 255.179489 232.223012 
L 255.179489 232.073077 
L 259.744943 232.092975 
L 259.744943 232.281229 
L 262.78858 232.211224 
L 262.78858 231.962884 
L 270.39767 231.8587 
L 270.39767 231.818244 
L 271.919489 231.818244 
L 271.919489 231.677127 
L 273.441307 231.677127 
L 273.441307 231.935045 
L 274.963125 231.935045 
L 274.963125 231.732157 
L 278.006761 231.711796 
L 278.006761 231.605254 
L 279.52858 231.605254 
L 279.52858 231.75489 
L 281.050398 231.75489 
L 281.050398 231.557555 
L 282.572216 231.557555 
L 282.572216 231.347942 
L 284.094034 231.347942 
L 284.094034 231.49278 
L 285.615852 231.49278 
L 285.615852 231.339927 
L 287.13767 231.339927 
L 287.13767 231.142612 
L 290.181307 231.162649 
L 290.181307 231.323646 
L 291.703125 231.323646 
L 291.703125 231.066198 
L 293.224943 231.066198 
L 293.224943 231.189773 
L 296.26858 231.169822 
L 296.26858 230.920768 
L 299.312216 230.924755 
L 299.312216 231.050816 
L 308.443125 230.980909 
L 308.443125 230.823648 
L 309.964943 230.823648 
L 309.964943 230.325516 
L 311.486761 230.325516 
L 311.486761 228.940356 
L 313.00858 228.940356 
L 313.00858 221.032165 
L 314.530398 221.032165 
L 314.530398 172.908733 
L 316.052216 172.908733 
L 316.052216 53.229549 
L 317.574034 53.229549 
L 317.574034 32.82256 
L 319.095852 32.82256 
L 319.095852 146.125823 
L 320.61767 146.125823 
L 320.61767 215.571598 
L 322.139489 215.571598 
L 322.139489 215.571598 
" clip-path="url(#p1106f6b30c)" style="fill: none; stroke: #1f77b4; stroke-width: 1.5; stroke-linecap: square"/>
   </g>
   <g id="LineCollection_1">
    <path d="M 56.582216 232.353737 
L 56.582216 231.68226 
" clip-path="url(#p1106f6b30c)" style="fill: none; stroke: #1f77b4; stroke-width: 1.5"/>
    <path d="M 58.104034 232.790871 
L 58.104034 231.815434 
" clip-path="url(#p1106f6b30c)" style="fill: none; stroke: #1f77b4; stroke-width: 1.5"/>
    <path d="M 59.625852 232.934255 
L 59.625852 232.391219 
" clip-path="url(#p1106f6b30c)" style="fill: none; stroke: #1f77b4; stroke-width: 1.5"/>
    <path d="M 61.14767 233.298981 
L 61.14767 232.768854 
" clip-path="url(#p1106f6b30c)" style="fill: none; stroke: #1f77b4; stroke-width: 1.5"/>
    <path d="M 62.669489 232.707223 
L 62.669489 232.268864 
" clip-path="url(#p1106f6b30c)" style="fill: none; stroke: #1f77b4; stroke-width: 1.5"/>
    <path d="M 64.191307 233.1629 
L 64.191307 232.632626 
" clip-path="url(#p1106f6b30c)" style="fill: none; stroke: #1f77b4; stroke-width: 1.5"/>
    <path d="M 65.713125 233.349108 
L 65.713125 232.658303 
" clip-path="url(#p1106f6b30c)" style="fill: none; stroke: #1f77b4; stroke-width: 1.5"/>
    <path d="M 67.234943 233.274535 
L 67.234943 232.692285 
" clip-path="url(#p1106f6b30c)" style="fill: none; stroke: #1f77b4; stroke-width: 1.5"/>
    <path d="M 68.756761 232.90812 
L 68.756761 232.313022 
" clip-path="url(#p1106f6b30c)" style="fill: none; stroke: #1f77b4; stroke-width: 1.5"/>
    <path d="M 70.27858 233.399749 
L 70.27858 232.625162 
" clip-path="url(#p1106f6b30c)" style="fill: none; stroke: #1f77b4; stroke-width: 1.5"/>
    <path d="M 71.800398 232.659114 
L 71.800398 232.131492 
" clip-path="url(#p1106f6b30c)" style="fill: none; stroke: #1f77b4; stroke-width: 1.5"/>
    <path d="M 73.322216 233.871717 
L 73.322216 232.8527 
" clip-path="url(#p1106f6b30c)" style="fill: none; stroke: #1f77b4; stroke-width: 1.5"/>
    <path d="M 74.844034 232.365316 
L 74.844034 231.738005 
" clip-path="url(#p1106f6b30c)" style="fill: none; stroke: #1f77b4; stroke-width: 1.5"/>
    <path d="M 76.365852 233.298922 
L 76.365852 232.442286 
" clip-path="url(#p1106f6b30c)" style="fill: none; stroke: #1f77b4; stroke-width: 1.5"/>
    <path d="M 77.88767 233.187683 
L 77.88767 232.641809 
" clip-path="url(#p1106f6b30c)" style="fill: none; stroke: #1f77b4; stroke-width: 1.5"/>
    <path d="M 79.409489 232.414089 
L 79.409489 231.538864 
" clip-path="url(#p1106f6b30c)" style="fill: none; stroke: #1f77b4; stroke-width: 1.5"/>
    <path d="M 80.931307 233.998125 
L 80.931307 232.832083 
" clip-path="url(#p1106f6b30c)" style="fill: none; stroke: #1f77b4; stroke-width: 1.5"/>
    <path d="M 82.453125 233.4765 
L 82.453125 232.479017 
" clip-path="url(#p1106f6b30c)" style="fill: none; stroke: #1f77b4; stroke-width: 1.5"/>
    <path d="M 83.974943 232.82178 
L 83.974943 231.884377 
" clip-path="url(#p1106f6b30c)" style="fill: none; stroke: #1f77b4; stroke-width: 1.5"/>
    <path d="M 85.496761 232.355047 
L 85.496761 230.166273 
" clip-path="url(#p1106f6b30c)" style="fill: none; stroke: #1f77b4; stroke-width: 1.5"/>
    <path d="M 87.01858 224.451739 
L 87.01858 221.61023 
" clip-path="url(#p1106f6b30c)" style="fill: none; stroke: #1f77b4; stroke-width: 1.5"/>
    <path d="M 88.540398 226.625381 
L 88.540398 224.687309 
" clip-path="url(#p1106f6b30c)" style="fill: none; stroke: #1f77b4; stroke-width: 1.5"/>
    <path d="M 90.062216 227.16951 
L 90.062216 225.335201 
" clip-path="url(#p1106f6b30c)" style="fill: none; stroke: #1f77b4; stroke-width: 1.5"/>
    <path d="M 91.584034 213.524384 
L 91.584034 208.668767 
" clip-path="url(#p1106f6b30c)" style="fill: none; stroke: #1f77b4; stroke-width: 1.5"/>
    <path d="M 93.105852 209.85773 
L 93.105852 202.74274 
" clip-path="url(#p1106f6b30c)" style="fill: none; stroke: #1f77b4; stroke-width: 1.5"/>
    <path d="M 94.62767 228.153585 
L 94.62767 225.367899 
" clip-path="url(#p1106f6b30c)" style="fill: none; stroke: #1f77b4; stroke-width: 1.5"/>
    <path d="M 96.149489 232.504395 
L 96.149489 231.695843 
" clip-path="url(#p1106f6b30c)" style="fill: none; stroke: #1f77b4; stroke-width: 1.5"/>
    <path d="M 97.671307 231.511997 
L 97.671307 230.238778 
" clip-path="url(#p1106f6b30c)" style="fill: none; stroke: #1f77b4; stroke-width: 1.5"/>
    <path d="M 99.193125 230.322321 
L 99.193125 227.802354 
" clip-path="url(#p1106f6b30c)" style="fill: none; stroke: #1f77b4; stroke-width: 1.5"/>
    <path d="M 100.714943 221.994155 
L 100.714943 218.740593 
" clip-path="url(#p1106f6b30c)" style="fill: none; stroke: #1f77b4; stroke-width: 1.5"/>
    <path d="M 102.236761 223.465785 
L 102.236761 219.90315 
" clip-path="url(#p1106f6b30c)" style="fill: none; stroke: #1f77b4; stroke-width: 1.5"/>
    <path d="M 103.75858 224.517308 
L 103.75858 221.435715 
" clip-path="url(#p1106f6b30c)" style="fill: none; stroke: #1f77b4; stroke-width: 1.5"/>
    <path d="M 105.280398 222.640892 
L 105.280398 219.661664 
" clip-path="url(#p1106f6b30c)" style="fill: none; stroke: #1f77b4; stroke-width: 1.5"/>
    <path d="M 106.802216 223.7452 
L 106.802216 220.141696 
" clip-path="url(#p1106f6b30c)" style="fill: none; stroke: #1f77b4; stroke-width: 1.5"/>
    <path d="M 108.324034 230.52113 
L 108.324034 229.510416 
" clip-path="url(#p1106f6b30c)" style="fill: none; stroke: #1f77b4; stroke-width: 1.5"/>
    <path d="M 109.845852 231.731963 
L 109.845852 229.948055 
" clip-path="url(#p1106f6b30c)" style="fill: none; stroke: #1f77b4; stroke-width: 1.5"/>
    <path d="M 111.36767 226.794315 
L 111.36767 223.958713 
" clip-path="url(#p1106f6b30c)" style="fill: none; stroke: #1f77b4; stroke-width: 1.5"/>
    <path d="M 112.889489 206.526928 
L 112.889489 201.030991 
" clip-path="url(#p1106f6b30c)" style="fill: none; stroke: #1f77b4; stroke-width: 1.5"/>
    <path d="M 114.411307 218.480507 
L 114.411307 215.615499 
" clip-path="url(#p1106f6b30c)" style="fill: none; stroke: #1f77b4; stroke-width: 1.5"/>
    <path d="M 115.933125 222.369251 
L 115.933125 218.87758 
" clip-path="url(#p1106f6b30c)" style="fill: none; stroke: #1f77b4; stroke-width: 1.5"/>
    <path d="M 117.454943 229.150645 
L 117.454943 227.484187 
" clip-path="url(#p1106f6b30c)" style="fill: none; stroke: #1f77b4; stroke-width: 1.5"/>
    <path d="M 118.976761 233.690112 
L 118.976761 231.149135 
" clip-path="url(#p1106f6b30c)" style="fill: none; stroke: #1f77b4; stroke-width: 1.5"/>
    <path d="M 120.49858 232.140635 
L 120.49858 231.589376 
" clip-path="url(#p1106f6b30c)" style="fill: none; stroke: #1f77b4; stroke-width: 1.5"/>
    <path d="M 122.020398 232.759667 
L 122.020398 231.798519 
" clip-path="url(#p1106f6b30c)" style="fill: none; stroke: #1f77b4; stroke-width: 1.5"/>
    <path d="M 123.542216 231.771843 
L 123.542216 231.268978 
" clip-path="url(#p1106f6b30c)" style="fill: none; stroke: #1f77b4; stroke-width: 1.5"/>
    <path d="M 125.064034 232.038026 
L 125.064034 231.445257 
" clip-path="url(#p1106f6b30c)" style="fill: none; stroke: #1f77b4; stroke-width: 1.5"/>
    <path d="M 126.585852 232.362035 
L 126.585852 231.936253 
" clip-path="url(#p1106f6b30c)" style="fill: none; stroke: #1f77b4; stroke-width: 1.5"/>
    <path d="M 128.10767 231.703592 
L 128.10767 231.096924 
" clip-path="url(#p1106f6b30c)" style="fill: none; stroke: #1f77b4; stroke-width: 1.5"/>
    <path d="M 129.629489 231.089888 
L 129.629489 230.644618 
" clip-path="url(#p1106f6b30c)" style="fill: none; stroke: #1f77b4; stroke-width: 1.5"/>
    <path d="M 131.151307 224.675568 
L 131.151307 223.965479 
" clip-path="url(#p1106f6b30c)" style="fill: none; stroke: #1f77b4; stroke-width: 1.5"/>
    <path d="M 132.673125 214.137322 
L 132.673125 213.227618 
" clip-path="url(#p1106f6b30c)" style="fill: none; stroke: #1f77b4; stroke-width: 1.5"/>
    <path d="M 134.194943 216.949149 
L 134.194943 216.166646 
" clip-path="url(#p1106f6b30c)" style="fill: none; stroke: #1f77b4; stroke-width: 1.5"/>
    <path d="M 135.716761 226.822746 
L 135.716761 226.31918 
" clip-path="url(#p1106f6b30c)" style="fill: none; stroke: #1f77b4; stroke-width: 1.5"/>
    <path d="M 137.23858 230.041445 
L 137.23858 229.655648 
" clip-path="url(#p1106f6b30c)" style="fill: none; stroke: #1f77b4; stroke-width: 1.5"/>
    <path d="M 138.760398 230.75945 
L 138.760398 230.457366 
" clip-path="url(#p1106f6b30c)" style="fill: none; stroke: #1f77b4; stroke-width: 1.5"/>
    <path d="M 140.282216 230.885158 
L 140.282216 230.601847 
" clip-path="url(#p1106f6b30c)" style="fill: none; stroke: #1f77b4; stroke-width: 1.5"/>
    <path d="M 141.804034 225.916378 
L 141.804034 225.557116 
" clip-path="url(#p1106f6b30c)" style="fill: none; stroke: #1f77b4; stroke-width: 1.5"/>
    <path d="M 143.325852 212.72052 
L 143.325852 212.228203 
" clip-path="url(#p1106f6b30c)" style="fill: none; stroke: #1f77b4; stroke-width: 1.5"/>
    <path d="M 144.84767 213.008943 
L 144.84767 212.545895 
" clip-path="url(#p1106f6b30c)" style="fill: none; stroke: #1f77b4; stroke-width: 1.5"/>
    <path d="M 146.369489 226.056413 
L 146.369489 225.748382 
" clip-path="url(#p1106f6b30c)" style="fill: none; stroke: #1f77b4; stroke-width: 1.5"/>
    <path d="M 147.891307 230.433373 
L 147.891307 230.208256 
" clip-path="url(#p1106f6b30c)" style="fill: none; stroke: #1f77b4; stroke-width: 1.5"/>
    <path d="M 149.413125 231.177129 
L 149.413125 230.982253 
" clip-path="url(#p1106f6b30c)" style="fill: none; stroke: #1f77b4; stroke-width: 1.5"/>
    <path d="M 150.934943 231.285427 
L 150.934943 231.096355 
" clip-path="url(#p1106f6b30c)" style="fill: none; stroke: #1f77b4; stroke-width: 1.5"/>
    <path d="M 152.456761 231.511234 
L 152.456761 231.340934 
" clip-path="url(#p1106f6b30c)" style="fill: none; stroke: #1f77b4; stroke-width: 1.5"/>
    <path d="M 153.97858 231.383734 
L 153.97858 231.214322 
" clip-path="url(#p1106f6b30c)" style="fill: none; stroke: #1f77b4; stroke-width: 1.5"/>
    <path d="M 155.500398 231.269445 
L 155.500398 231.099507 
" clip-path="url(#p1106f6b30c)" style="fill: none; stroke: #1f77b4; stroke-width: 1.5"/>
    <path d="M 157.022216 231.293662 
L 157.022216 231.106411 
" clip-path="url(#p1106f6b30c)" style="fill: none; stroke: #1f77b4; stroke-width: 1.5"/>
    <path d="M 158.544034 231.293457 
L 158.544034 231.123481 
" clip-path="url(#p1106f6b30c)" style="fill: none; stroke: #1f77b4; stroke-width: 1.5"/>
    <path d="M 160.065852 231.196952 
L 160.065852 231.023204 
" clip-path="url(#p1106f6b30c)" style="fill: none; stroke: #1f77b4; stroke-width: 1.5"/>
    <path d="M 161.58767 228.573907 
L 161.58767 228.350069 
" clip-path="url(#p1106f6b30c)" style="fill: none; stroke: #1f77b4; stroke-width: 1.5"/>
    <path d="M 163.109489 212.076985 
L 163.109489 211.67036 
" clip-path="url(#p1106f6b30c)" style="fill: none; stroke: #1f77b4; stroke-width: 1.5"/>
    <path d="M 164.631307 199.239678 
L 164.631307 198.732805 
" clip-path="url(#p1106f6b30c)" style="fill: none; stroke: #1f77b4; stroke-width: 1.5"/>
    <path d="M 166.153125 214.339053 
L 166.153125 213.961247 
" clip-path="url(#p1106f6b30c)" style="fill: none; stroke: #1f77b4; stroke-width: 1.5"/>
    <path d="M 167.674943 228.210333 
L 167.674943 227.989564 
" clip-path="url(#p1106f6b30c)" style="fill: none; stroke: #1f77b4; stroke-width: 1.5"/>
    <path d="M 169.196761 222.391251 
L 169.196761 222.104891 
" clip-path="url(#p1106f6b30c)" style="fill: none; stroke: #1f77b4; stroke-width: 1.5"/>
    <path d="M 170.71858 199.544461 
L 170.71858 199.054584 
" clip-path="url(#p1106f6b30c)" style="fill: none; stroke: #1f77b4; stroke-width: 1.5"/>
    <path d="M 172.240398 201.364439 
L 172.240398 200.882248 
" clip-path="url(#p1106f6b30c)" style="fill: none; stroke: #1f77b4; stroke-width: 1.5"/>
    <path d="M 173.762216 224.190037 
L 173.762216 223.920921 
" clip-path="url(#p1106f6b30c)" style="fill: none; stroke: #1f77b4; stroke-width: 1.5"/>
    <path d="M 175.284034 230.740541 
L 175.284034 230.570172 
" clip-path="url(#p1106f6b30c)" style="fill: none; stroke: #1f77b4; stroke-width: 1.5"/>
    <path d="M 176.805852 231.527742 
L 176.805852 231.368607 
" clip-path="url(#p1106f6b30c)" style="fill: none; stroke: #1f77b4; stroke-width: 1.5"/>
    <path d="M 178.32767 231.263497 
L 178.32767 231.09608 
" clip-path="url(#p1106f6b30c)" style="fill: none; stroke: #1f77b4; stroke-width: 1.5"/>
    <path d="M 179.849489 231.216326 
L 179.849489 231.051622 
" clip-path="url(#p1106f6b30c)" style="fill: none; stroke: #1f77b4; stroke-width: 1.5"/>
    <path d="M 181.371307 231.637679 
L 181.371307 231.481349 
" clip-path="url(#p1106f6b30c)" style="fill: none; stroke: #1f77b4; stroke-width: 1.5"/>
    <path d="M 182.893125 231.618412 
L 182.893125 231.465189 
" clip-path="url(#p1106f6b30c)" style="fill: none; stroke: #1f77b4; stroke-width: 1.5"/>
    <path d="M 184.414943 231.702267 
L 184.414943 231.550874 
" clip-path="url(#p1106f6b30c)" style="fill: none; stroke: #1f77b4; stroke-width: 1.5"/>
    <path d="M 185.936761 230.593314 
L 185.936761 230.417174 
" clip-path="url(#p1106f6b30c)" style="fill: none; stroke: #1f77b4; stroke-width: 1.5"/>
    <path d="M 187.45858 231.470615 
L 187.45858 231.305972 
" clip-path="url(#p1106f6b30c)" style="fill: none; stroke: #1f77b4; stroke-width: 1.5"/>
    <path d="M 188.980398 231.76521 
L 188.980398 231.612259 
" clip-path="url(#p1106f6b30c)" style="fill: none; stroke: #1f77b4; stroke-width: 1.5"/>
    <path d="M 190.502216 231.737375 
L 190.502216 231.589722 
" clip-path="url(#p1106f6b30c)" style="fill: none; stroke: #1f77b4; stroke-width: 1.5"/>
    <path d="M 192.024034 232.125295 
L 192.024034 231.978303 
" clip-path="url(#p1106f6b30c)" style="fill: none; stroke: #1f77b4; stroke-width: 1.5"/>
    <path d="M 193.545852 232.050449 
L 193.545852 231.903277 
" clip-path="url(#p1106f6b30c)" style="fill: none; stroke: #1f77b4; stroke-width: 1.5"/>
    <path d="M 195.06767 232.246259 
L 195.06767 232.107207 
" clip-path="url(#p1106f6b30c)" style="fill: none; stroke: #1f77b4; stroke-width: 1.5"/>
    <path d="M 196.589489 232.223972 
L 196.589489 232.084263 
" clip-path="url(#p1106f6b30c)" style="fill: none; stroke: #1f77b4; stroke-width: 1.5"/>
    <path d="M 198.111307 232.16879 
L 198.111307 232.028627 
" clip-path="url(#p1106f6b30c)" style="fill: none; stroke: #1f77b4; stroke-width: 1.5"/>
    <path d="M 199.633125 232.366479 
L 199.633125 232.227926 
" clip-path="url(#p1106f6b30c)" style="fill: none; stroke: #1f77b4; stroke-width: 1.5"/>
    <path d="M 201.154943 232.497864 
L 201.154943 232.34786 
" clip-path="url(#p1106f6b30c)" style="fill: none; stroke: #1f77b4; stroke-width: 1.5"/>
    <path d="M 202.676761 232.533385 
L 202.676761 232.382294 
" clip-path="url(#p1106f6b30c)" style="fill: none; stroke: #1f77b4; stroke-width: 1.5"/>
    <path d="M 204.19858 232.394119 
L 204.19858 232.256519 
" clip-path="url(#p1106f6b30c)" style="fill: none; stroke: #1f77b4; stroke-width: 1.5"/>
    <path d="M 205.720398 232.581445 
L 205.720398 232.419718 
" clip-path="url(#p1106f6b30c)" style="fill: none; stroke: #1f77b4; stroke-width: 1.5"/>
    <path d="M 207.242216 232.667759 
L 207.242216 232.519086 
" clip-path="url(#p1106f6b30c)" style="fill: none; stroke: #1f77b4; stroke-width: 1.5"/>
    <path d="M 208.764034 232.73546 
L 208.764034 232.577731 
" clip-path="url(#p1106f6b30c)" style="fill: none; stroke: #1f77b4; stroke-width: 1.5"/>
    <path d="M 210.285852 232.728319 
L 210.285852 232.593045 
" clip-path="url(#p1106f6b30c)" style="fill: none; stroke: #1f77b4; stroke-width: 1.5"/>
    <path d="M 211.80767 232.761723 
L 211.80767 232.609921 
" clip-path="url(#p1106f6b30c)" style="fill: none; stroke: #1f77b4; stroke-width: 1.5"/>
    <path d="M 213.329489 232.827326 
L 213.329489 232.678304 
" clip-path="url(#p1106f6b30c)" style="fill: none; stroke: #1f77b4; stroke-width: 1.5"/>
    <path d="M 214.851307 232.682885 
L 214.851307 232.537296 
" clip-path="url(#p1106f6b30c)" style="fill: none; stroke: #1f77b4; stroke-width: 1.5"/>
    <path d="M 216.373125 232.715909 
L 216.373125 232.560006 
" clip-path="url(#p1106f6b30c)" style="fill: none; stroke: #1f77b4; stroke-width: 1.5"/>
    <path d="M 217.894943 232.698391 
L 217.894943 232.540219 
" clip-path="url(#p1106f6b30c)" style="fill: none; stroke: #1f77b4; stroke-width: 1.5"/>
    <path d="M 219.416761 232.647663 
L 219.416761 232.494483 
" clip-path="url(#p1106f6b30c)" style="fill: none; stroke: #1f77b4; stroke-width: 1.5"/>
    <path d="M 220.93858 232.716272 
L 220.93858 232.567753 
" clip-path="url(#p1106f6b30c)" style="fill: none; stroke: #1f77b4; stroke-width: 1.5"/>
    <path d="M 222.460398 232.570757 
L 222.460398 232.437347 
" clip-path="url(#p1106f6b30c)" style="fill: none; stroke: #1f77b4; stroke-width: 1.5"/>
    <path d="M 223.982216 232.643327 
L 223.982216 232.499221 
" clip-path="url(#p1106f6b30c)" style="fill: none; stroke: #1f77b4; stroke-width: 1.5"/>
    <path d="M 225.504034 232.480094 
L 225.504034 232.337028 
" clip-path="url(#p1106f6b30c)" style="fill: none; stroke: #1f77b4; stroke-width: 1.5"/>
    <path d="M 227.025852 232.675591 
L 227.025852 232.525607 
" clip-path="url(#p1106f6b30c)" style="fill: none; stroke: #1f77b4; stroke-width: 1.5"/>
    <path d="M 228.54767 232.519224 
L 228.54767 232.370821 
" clip-path="url(#p1106f6b30c)" style="fill: none; stroke: #1f77b4; stroke-width: 1.5"/>
    <path d="M 230.069489 232.78651 
L 230.069489 232.635919 
" clip-path="url(#p1106f6b30c)" style="fill: none; stroke: #1f77b4; stroke-width: 1.5"/>
    <path d="M 231.591307 232.417496 
L 231.591307 232.27754 
" clip-path="url(#p1106f6b30c)" style="fill: none; stroke: #1f77b4; stroke-width: 1.5"/>
    <path d="M 233.113125 232.491897 
L 233.113125 232.346458 
" clip-path="url(#p1106f6b30c)" style="fill: none; stroke: #1f77b4; stroke-width: 1.5"/>
    <path d="M 234.634943 232.518075 
L 234.634943 232.384324 
" clip-path="url(#p1106f6b30c)" style="fill: none; stroke: #1f77b4; stroke-width: 1.5"/>
    <path d="M 236.156761 232.671748 
L 236.156761 232.537084 
" clip-path="url(#p1106f6b30c)" style="fill: none; stroke: #1f77b4; stroke-width: 1.5"/>
    <path d="M 237.67858 232.774972 
L 237.67858 232.645971 
" clip-path="url(#p1106f6b30c)" style="fill: none; stroke: #1f77b4; stroke-width: 1.5"/>
    <path d="M 239.200398 232.606675 
L 239.200398 232.471813 
" clip-path="url(#p1106f6b30c)" style="fill: none; stroke: #1f77b4; stroke-width: 1.5"/>
    <path d="M 240.722216 232.414535 
L 240.722216 232.279978 
" clip-path="url(#p1106f6b30c)" style="fill: none; stroke: #1f77b4; stroke-width: 1.5"/>
    <path d="M 242.244034 232.604533 
L 242.244034 232.457871 
" clip-path="url(#p1106f6b30c)" style="fill: none; stroke: #1f77b4; stroke-width: 1.5"/>
    <path d="M 243.765852 232.472021 
L 243.765852 232.33705 
" clip-path="url(#p1106f6b30c)" style="fill: none; stroke: #1f77b4; stroke-width: 1.5"/>
    <path d="M 245.28767 232.262909 
L 245.28767 232.118698 
" clip-path="url(#p1106f6b30c)" style="fill: none; stroke: #1f77b4; stroke-width: 1.5"/>
    <path d="M 246.809489 232.320309 
L 246.809489 232.170941 
" clip-path="url(#p1106f6b30c)" style="fill: none; stroke: #1f77b4; stroke-width: 1.5"/>
    <path d="M 248.331307 232.382138 
L 248.331307 232.242412 
" clip-path="url(#p1106f6b30c)" style="fill: none; stroke: #1f77b4; stroke-width: 1.5"/>
    <path d="M 249.853125 232.322011 
L 249.853125 232.190475 
" clip-path="url(#p1106f6b30c)" style="fill: none; stroke: #1f77b4; stroke-width: 1.5"/>
    <path d="M 251.374943 232.314158 
L 251.374943 232.177229 
" clip-path="url(#p1106f6b30c)" style="fill: none; stroke: #1f77b4; stroke-width: 1.5"/>
    <path d="M 252.896761 232.173168 
L 252.896761 232.046677 
" clip-path="url(#p1106f6b30c)" style="fill: none; stroke: #1f77b4; stroke-width: 1.5"/>
    <path d="M 254.41858 232.290572 
L 254.41858 232.155452 
" clip-path="url(#p1106f6b30c)" style="fill: none; stroke: #1f77b4; stroke-width: 1.5"/>
    <path d="M 255.940398 232.137355 
L 255.940398 232.0088 
" clip-path="url(#p1106f6b30c)" style="fill: none; stroke: #1f77b4; stroke-width: 1.5"/>
    <path d="M 257.462216 232.035368 
L 257.462216 231.903378 
" clip-path="url(#p1106f6b30c)" style="fill: none; stroke: #1f77b4; stroke-width: 1.5"/>
    <path d="M 258.984034 232.155848 
L 258.984034 232.030103 
" clip-path="url(#p1106f6b30c)" style="fill: none; stroke: #1f77b4; stroke-width: 1.5"/>
    <path d="M 260.505852 232.349611 
L 260.505852 232.212847 
" clip-path="url(#p1106f6b30c)" style="fill: none; stroke: #1f77b4; stroke-width: 1.5"/>
    <path d="M 262.02767 232.27747 
L 262.02767 232.144978 
" clip-path="url(#p1106f6b30c)" style="fill: none; stroke: #1f77b4; stroke-width: 1.5"/>
    <path d="M 263.549489 232.03036 
L 263.549489 231.895408 
" clip-path="url(#p1106f6b30c)" style="fill: none; stroke: #1f77b4; stroke-width: 1.5"/>
    <path d="M 265.071307 231.987385 
L 265.071307 231.847857 
" clip-path="url(#p1106f6b30c)" style="fill: none; stroke: #1f77b4; stroke-width: 1.5"/>
    <path d="M 266.593125 232.01062 
L 266.593125 231.873133 
" clip-path="url(#p1106f6b30c)" style="fill: none; stroke: #1f77b4; stroke-width: 1.5"/>
    <path d="M 268.114943 231.962414 
L 268.114943 231.827659 
" clip-path="url(#p1106f6b30c)" style="fill: none; stroke: #1f77b4; stroke-width: 1.5"/>
    <path d="M 269.636761 231.924829 
L 269.636761 231.792571 
" clip-path="url(#p1106f6b30c)" style="fill: none; stroke: #1f77b4; stroke-width: 1.5"/>
    <path d="M 271.15858 231.885217 
L 271.15858 231.751271 
" clip-path="url(#p1106f6b30c)" style="fill: none; stroke: #1f77b4; stroke-width: 1.5"/>
    <path d="M 272.680398 231.743013 
L 272.680398 231.61124 
" clip-path="url(#p1106f6b30c)" style="fill: none; stroke: #1f77b4; stroke-width: 1.5"/>
    <path d="M 274.202216 232.00468 
L 274.202216 231.865409 
" clip-path="url(#p1106f6b30c)" style="fill: none; stroke: #1f77b4; stroke-width: 1.5"/>
    <path d="M 275.724034 231.79473 
L 275.724034 231.669583 
" clip-path="url(#p1106f6b30c)" style="fill: none; stroke: #1f77b4; stroke-width: 1.5"/>
    <path d="M 277.245852 231.775008 
L 277.245852 231.648585 
" clip-path="url(#p1106f6b30c)" style="fill: none; stroke: #1f77b4; stroke-width: 1.5"/>
    <path d="M 278.76767 231.666354 
L 278.76767 231.544154 
" clip-path="url(#p1106f6b30c)" style="fill: none; stroke: #1f77b4; stroke-width: 1.5"/>
    <path d="M 280.289489 231.821495 
L 280.289489 231.688286 
" clip-path="url(#p1106f6b30c)" style="fill: none; stroke: #1f77b4; stroke-width: 1.5"/>
    <path d="M 281.811307 231.624183 
L 281.811307 231.490926 
" clip-path="url(#p1106f6b30c)" style="fill: none; stroke: #1f77b4; stroke-width: 1.5"/>
    <path d="M 283.333125 231.413706 
L 283.333125 231.282178 
" clip-path="url(#p1106f6b30c)" style="fill: none; stroke: #1f77b4; stroke-width: 1.5"/>
    <path d="M 284.854943 231.560364 
L 284.854943 231.425196 
" clip-path="url(#p1106f6b30c)" style="fill: none; stroke: #1f77b4; stroke-width: 1.5"/>
    <path d="M 286.376761 231.406249 
L 286.376761 231.273604 
" clip-path="url(#p1106f6b30c)" style="fill: none; stroke: #1f77b4; stroke-width: 1.5"/>
    <path d="M 287.89858 231.211369 
L 287.89858 231.073855 
" clip-path="url(#p1106f6b30c)" style="fill: none; stroke: #1f77b4; stroke-width: 1.5"/>
    <path d="M 289.420398 231.232326 
L 289.420398 231.092971 
" clip-path="url(#p1106f6b30c)" style="fill: none; stroke: #1f77b4; stroke-width: 1.5"/>
    <path d="M 290.942216 231.390536 
L 290.942216 231.256756 
" clip-path="url(#p1106f6b30c)" style="fill: none; stroke: #1f77b4; stroke-width: 1.5"/>
    <path d="M 292.464034 231.138486 
L 292.464034 230.99391 
" clip-path="url(#p1106f6b30c)" style="fill: none; stroke: #1f77b4; stroke-width: 1.5"/>
    <path d="M 293.985852 231.257076 
L 293.985852 231.12247 
" clip-path="url(#p1106f6b30c)" style="fill: none; stroke: #1f77b4; stroke-width: 1.5"/>
    <path d="M 295.50767 231.235007 
L 295.50767 231.104637 
" clip-path="url(#p1106f6b30c)" style="fill: none; stroke: #1f77b4; stroke-width: 1.5"/>
    <path d="M 297.029489 230.992335 
L 297.029489 230.849202 
" clip-path="url(#p1106f6b30c)" style="fill: none; stroke: #1f77b4; stroke-width: 1.5"/>
    <path d="M 298.551307 230.995861 
L 298.551307 230.853649 
" clip-path="url(#p1106f6b30c)" style="fill: none; stroke: #1f77b4; stroke-width: 1.5"/>
    <path d="M 300.073125 231.126333 
L 300.073125 230.975299 
" clip-path="url(#p1106f6b30c)" style="fill: none; stroke: #1f77b4; stroke-width: 1.5"/>
    <path d="M 301.594943 231.11778 
L 301.594943 230.97713 
" clip-path="url(#p1106f6b30c)" style="fill: none; stroke: #1f77b4; stroke-width: 1.5"/>
    <path d="M 303.116761 231.110798 
L 303.116761 230.976399 
" clip-path="url(#p1106f6b30c)" style="fill: none; stroke: #1f77b4; stroke-width: 1.5"/>
    <path d="M 304.63858 231.058012 
L 304.63858 230.92095 
" clip-path="url(#p1106f6b30c)" style="fill: none; stroke: #1f77b4; stroke-width: 1.5"/>
    <path d="M 306.160398 231.030322 
L 306.160398 230.889109 
" clip-path="url(#p1106f6b30c)" style="fill: none; stroke: #1f77b4; stroke-width: 1.5"/>
    <path d="M 307.682216 231.049533 
L 307.682216 230.912284 
" clip-path="url(#p1106f6b30c)" style="fill: none; stroke: #1f77b4; stroke-width: 1.5"/>
    <path d="M 309.204034 230.891325 
L 309.204034 230.755971 
" clip-path="url(#p1106f6b30c)" style="fill: none; stroke: #1f77b4; stroke-width: 1.5"/>
    <path d="M 310.725852 230.398673 
L 310.725852 230.252358 
" clip-path="url(#p1106f6b30c)" style="fill: none; stroke: #1f77b4; stroke-width: 1.5"/>
    <path d="M 312.24767 229.023917 
L 312.24767 228.856795 
" clip-path="url(#p1106f6b30c)" style="fill: none; stroke: #1f77b4; stroke-width: 1.5"/>
    <path d="M 313.769489 221.167427 
L 313.769489 220.896904 
" clip-path="url(#p1106f6b30c)" style="fill: none; stroke: #1f77b4; stroke-width: 1.5"/>
    <path d="M 315.291307 173.159919 
L 315.291307 172.657547 
" clip-path="url(#p1106f6b30c)" style="fill: none; stroke: #1f77b4; stroke-width: 1.5"/>
    <path d="M 316.813125 53.633052 
L 316.813125 52.826045 
" clip-path="url(#p1106f6b30c)" style="fill: none; stroke: #1f77b4; stroke-width: 1.5"/>
    <path d="M 318.334943 33.246996 
L 318.334943 32.398125 
" clip-path="url(#p1106f6b30c)" style="fill: none; stroke: #1f77b4; stroke-width: 1.5"/>
    <path d="M 319.856761 146.400877 
L 319.856761 145.850769 
" clip-path="url(#p1106f6b30c)" style="fill: none; stroke: #1f77b4; stroke-width: 1.5"/>
    <path d="M 321.37858 215.700592 
L 321.37858 215.442604 
" clip-path="url(#p1106f6b30c)" style="fill: none; stroke: #1f77b4; stroke-width: 1.5"/>
    <path clip-path="url(#p1106f6b30c)" style="fill: none; stroke: #1f77b4; stroke-width: 1.5"/>
    <path clip-path="url(#p1106f6b30c)" style="fill: none; stroke: #1f77b4; stroke-width: 1.5"/>
    <path clip-path="url(#p1106f6b30c)" style="fill: none; stroke: #1f77b4; stroke-width: 1.5"/>
    <path clip-path="url(#p1106f6b30c)" style="fill: none; stroke: #1f77b4; stroke-width: 1.5"/>
    <path clip-path="url(#p1106f6b30c)" style="fill: none; stroke: #1f77b4; stroke-width: 1.5"/>
    <path clip-path="url(#p1106f6b30c)" style="fill: none; stroke: #1f77b4; stroke-width: 1.5"/>
    <path clip-path="url(#p1106f6b30c)" style="fill: none; stroke: #1f77b4; stroke-width: 1.5"/>
    <path clip-path="url(#p1106f6b30c)" style="fill: none; stroke: #1f77b4; stroke-width: 1.5"/>
    <path clip-path="url(#p1106f6b30c)" style="fill: none; stroke: #1f77b4; stroke-width: 1.5"/>
    <path clip-path="url(#p1106f6b30c)" style="fill: none; stroke: #1f77b4; stroke-width: 1.5"/>
    <path clip-path="url(#p1106f6b30c)" style="fill: none; stroke: #1f77b4; stroke-width: 1.5"/>
    <path clip-path="url(#p1106f6b30c)" style="fill: none; stroke: #1f77b4; stroke-width: 1.5"/>
    <path clip-path="url(#p1106f6b30c)" style="fill: none; stroke: #1f77b4; stroke-width: 1.5"/>
    <path clip-path="url(#p1106f6b30c)" style="fill: none; stroke: #1f77b4; stroke-width: 1.5"/>
    <path clip-path="url(#p1106f6b30c)" style="fill: none; stroke: #1f77b4; stroke-width: 1.5"/>
    <path clip-path="url(#p1106f6b30c)" style="fill: none; stroke: #1f77b4; stroke-width: 1.5"/>
    <path clip-path="url(#p1106f6b30c)" style="fill: none; stroke: #1f77b4; stroke-width: 1.5"/>
    <path clip-path="url(#p1106f6b30c)" style="fill: none; stroke: #1f77b4; stroke-width: 1.5"/>
    <path clip-path="url(#p1106f6b30c)" style="fill: none; stroke: #1f77b4; stroke-width: 1.5"/>
    <path clip-path="url(#p1106f6b30c)" style="fill: none; stroke: #1f77b4; stroke-width: 1.5"/>
    <path clip-path="url(#p1106f6b30c)" style="fill: none; stroke: #1f77b4; stroke-width: 1.5"/>
    <path clip-path="url(#p1106f6b30c)" style="fill: none; stroke: #1f77b4; stroke-width: 1.5"/>
    <path clip-path="url(#p1106f6b30c)" style="fill: none; stroke: #1f77b4; stroke-width: 1.5"/>
    <path clip-path="url(#p1106f6b30c)" style="fill: none; stroke: #1f77b4; stroke-width: 1.5"/>
    <path clip-path="url(#p1106f6b30c)" style="fill: none; stroke: #1f77b4; stroke-width: 1.5"/>
   </g>
   <g id="patch_3">
    <path d="M 40.603125 244.078125 
L 40.603125 22.318125 
" style="fill: none; stroke: #000000; stroke-width: 0.8; stroke-linejoin: miter; stroke-linecap: square"/>
   </g>
   <g id="patch_4">
    <path d="M 375.403125 244.078125 
L 375.403125 22.318125 
" style="fill: none; stroke: #000000; stroke-width: 0.8; stroke-linejoin: miter; stroke-linecap: square"/>
   </g>
   <g id="patch_5">
    <path d="M 40.603125 244.078125 
L 375.403125 244.078125 
" style="fill: none; stroke: #000000; stroke-width: 0.8; stroke-linejoin: miter; stroke-linecap: square"/>
   </g>
   <g id="patch_6">
    <path d="M 40.603125 22.318125 
L 375.403125 22.318125 
" style="fill: none; stroke: #000000; stroke-width: 0.8; stroke-linejoin: miter; stroke-linecap: square"/>
   </g>
   <g id="text_17">
    <!-- Mantle -->
    <g transform="translate(187.635938 16.318125) scale(0.12 -0.12)">
     <defs>
      <path id="DejaVuSans-4d" d="M 628 4666 
L 1569 4666 
L 2759 1491 
L 3956 4666 
L 4897 4666 
L 4897 0 
L 4281 0 
L 4281 4097 
L 3078 897 
L 2444 897 
L 1241 4097 
L 1241 0 
L 628 0 
L 628 4666 
z
" transform="scale(0.015625)"/>
      <path id="DejaVuSans-74" d="M 1172 4494 
L 1172 3500 
L 2356 3500 
L 2356 3053 
L 1172 3053 
L 1172 1153 
Q 1172 725 1289 603 
Q 1406 481 1766 481 
L 2356 481 
L 2356 0 
L 1766 0 
Q 1100 0 847 248 
Q 594 497 594 1153 
L 594 3053 
L 172 3053 
L 172 3500 
L 594 3500 
L 594 4494 
L 1172 4494 
z
" transform="scale(0.015625)"/>
     </defs>
     <use xlink:href="#DejaVuSans-4d"/>
     <use xlink:href="#DejaVuSans-61" transform="translate(86.279297 0)"/>
     <use xlink:href="#DejaVuSans-6e" transform="translate(147.558594 0)"/>
     <use xlink:href="#DejaVuSans-74" transform="translate(210.9375 0)"/>
     <use xlink:href="#DejaVuSans-6c" transform="translate(250.146484 0)"/>
     <use xlink:href="#DejaVuSans-65" transform="translate(277.929688 0)"/>
    </g>
   </g>
  </g>
 </g>
 <defs>
  <clipPath id="p1106f6b30c">
   <rect x="40.603125" y="22.318125" width="334.8" height="221.76"/>
  </clipPath>
 </defs>
</svg>
