<?xml version="1.0" encoding="UTF-8" standalone="no"?>
<!DOCTYPE svg PUBLIC "-//W3C//DTD SVG 1.1//EN"
 "http://www.w3.org/Graphics/SVG/1.1/DTD/svg11.dtd">
<!-- Generated by graphviz version 2.43.0 (0)
 -->
<!-- Title: %3 Pages: 1 -->
<svg width="2935pt" height="391pt"
 viewBox="0.00 0.00 2935.00 390.50" xmlns="http://www.w3.org/2000/svg" xmlns:xlink="http://www.w3.org/1999/xlink">
<g id="graph0" class="graph" transform="scale(1 1) rotate(0) translate(4 386.5)">
<title>%3</title>
<polygon fill="white" stroke="transparent" points="-4,4 -4,-386.5 2931,-386.5 2931,4 -4,4"/>
<g id="clust1" class="cluster">
<title>cluster_AccumulatedProtonCharge</title>
<polygon fill="#f0f0ff" stroke="#f0f0ff" points="1846,-278.5 1846,-374.5 2085,-374.5 2085,-278.5 1846,-278.5"/>
<text text-anchor="start" x="1869" y="-360.3" font-family="Times,serif" font-size="14.00">AccumulatedProtonCharge</text>
<text text-anchor="start" x="1854" y="-348.7" font-family="Times,serif" font-size="11.00">via:</text>
<text text-anchor="start" x="1875" y="-348.7" font-family="Times,serif" font-style="italic" font-size="11.00">extract_accumulated_proton_charge</text>
</g>
<g id="clust4" class="cluster">
<title>cluster_CorrectedDetector</title>
<polygon fill="#f0f0ff" stroke="#f0f0ff" points="1429,-165.5 1429,-261.5 1579,-261.5 1579,-165.5 1429,-165.5"/>
<text text-anchor="start" x="1437" y="-247.3" font-family="Times,serif" font-size="14.00">CorrectedDetector</text>
<text text-anchor="start" x="1457.5" y="-235.7" font-family="Times,serif" font-size="11.00">via:</text>
<text text-anchor="start" x="1478.5" y="-235.7" font-family="Times,serif" font-style="italic" font-size="11.00">apply_masks</text>
</g>
<g id="clust5" class="cluster">
<title>cluster_CorrectedDspacing</title>
<polygon fill="#f0f0ff" stroke="#f0f0ff" points="1846,-165.5 1846,-261.5 2084,-261.5 2084,-165.5 1846,-165.5"/>
<text text-anchor="start" x="1896" y="-247.3" font-family="Times,serif" font-size="14.00">CorrectedDspacing</text>
<text text-anchor="start" x="1854" y="-235.7" font-family="Times,serif" font-size="11.00">via:</text>
<text text-anchor="start" x="1875" y="-235.7" font-family="Times,serif" font-style="italic" font-size="11.00">focus_data_dspacing_and_two_theta</text>
</g>
<g id="clust8" class="cluster">
<title>cluster_DspacingDetector</title>
<polygon fill="#f0f0ff" stroke="#f0f0ff" points="1637,-165.5 1637,-261.5 1788,-261.5 1788,-165.5 1637,-165.5"/>
<text text-anchor="start" x="1648" y="-247.3" font-family="Times,serif" font-size="14.00">DspacingDetector</text>
<text text-anchor="start" x="1645" y="-235.7" font-family="Times,serif" font-size="11.00">via:</text>
<text text-anchor="start" x="1666" y="-235.7" font-family="Times,serif" font-style="italic" font-size="11.00">convert_to_dspacing</text>
</g>
<g id="clust9" class="cluster">
<title>cluster_ElasticCoordTransformGraph</title>
<polygon fill="#f0f0ff" stroke="#f0f0ff" points="742,-81.5 742,-177.5 1014,-177.5 1014,-81.5 742,-81.5"/>
<text text-anchor="start" x="772.5" y="-163.3" font-family="Times,serif" font-size="14.00">ElasticCoordTransformGraph</text>
<text text-anchor="start" x="750" y="-151.7" font-family="Times,serif" font-size="11.00">via:</text>
<text text-anchor="start" x="771" y="-151.7" font-family="Times,serif" font-style="italic" font-size="11.00">powder_coordinate_transformation_graph</text>
</g>
<g id="clust10" class="cluster">
<title>cluster_Filename</title>
<polygon fill="#f0f0ff" stroke="#f0f0ff" points="8,-108.5 8,-194.5 134,-194.5 134,-108.5 8,-108.5"/>
<text text-anchor="middle" x="71" y="-179.3" font-family="Times,serif" font-size="14.00">Filename</text>
</g>
<g id="clust11" class="cluster">
<title>cluster_FocussedDataDspacing</title>
<polygon fill="#f0f0ff" stroke="#f0f0ff" points="2418,-217.5 2418,-313.5 2600,-313.5 2600,-217.5 2418,-217.5"/>
<text text-anchor="start" x="2426" y="-299.3" font-family="Times,serif" font-size="14.00">FocussedDataDspacing</text>
<text text-anchor="start" x="2442" y="-287.7" font-family="Times,serif" font-size="11.00">via:</text>
<text text-anchor="start" x="2463" y="-287.7" font-family="Times,serif" font-style="italic" font-size="11.00">integrate_two_theta</text>
</g>
<g id="clust14" class="cluster">
<title>cluster_KeepEvents</title>
<polygon fill="#f0f0ff" stroke="#f0f0ff" points="1649,-39.5 1649,-125.5 1775,-125.5 1775,-39.5 1649,-39.5"/>
<text text-anchor="middle" x="1712" y="-110.3" font-family="Times,serif" font-size="14.00">KeepEvents</text>
</g>
<g id="clust17" class="cluster">
<title>cluster_NormalizedDspacing</title>
<polygon fill="#f0f0ff" stroke="#f0f0ff" points="2141,-217.5 2141,-313.5 2338,-313.5 2338,-217.5 2141,-217.5"/>
<text text-anchor="start" x="2165" y="-299.3" font-family="Times,serif" font-size="14.00">NormalizedDspacing</text>
<text text-anchor="start" x="2149" y="-287.7" font-family="Times,serif" font-size="11.00">via:</text>
<text text-anchor="start" x="2170" y="-287.7" font-family="Times,serif" font-style="italic" font-size="11.00">normalize_by_proton_charge</text>
</g>
<g id="clust18" class="cluster">
<title>cluster_Position</title>
<polygon fill="#f0f0ff" stroke="#f0f0ff" points="471,-41.5 471,-217.5 666,-217.5 666,-41.5 471,-41.5"/>
<text text-anchor="middle" x="568.5" y="-202.3" font-family="Times,serif" font-size="14.00">Position</text>
</g>
<g id="clust19" class="cluster">
<title>cluster_RawDataAndMetadata</title>
<polygon fill="#f0f0ff" stroke="#f0f0ff" points="208.5,-108.5 208.5,-204.5 385.5,-204.5 385.5,-108.5 208.5,-108.5"/>
<text text-anchor="start" x="216.5" y="-190.3" font-family="Times,serif" font-size="14.00">RawDataAndMetadata</text>
<text text-anchor="start" x="255" y="-178.7" font-family="Times,serif" font-size="11.00">via:</text>
<text text-anchor="start" x="276" y="-178.7" font-family="Times,serif" font-style="italic" font-size="11.00">pooch_load</text>
</g>
<g id="clust20" class="cluster">
<title>cluster_TofDetector</title>
<polygon fill="#f0f0ff" stroke="#f0f0ff" points="811,-204.5 811,-300.5 945,-300.5 945,-204.5 811,-204.5"/>
<text text-anchor="start" x="835.5" y="-286.3" font-family="Times,serif" font-size="14.00">TofDetector</text>
<text text-anchor="start" x="819" y="-274.7" font-family="Times,serif" font-size="11.00">via:</text>
<text text-anchor="start" x="840" y="-274.7" font-family="Times,serif" font-style="italic" font-size="11.00">extract_raw_data</text>
</g>
<g id="clust24" class="cluster">
<title>cluster_WavelengthDetector</title>
<polygon fill="#f0f0ff" stroke="#f0f0ff" points="1086,-204.5 1086,-300.5 1365,-300.5 1365,-204.5 1086,-204.5"/>
<text text-anchor="start" x="1152" y="-286.3" font-family="Times,serif" font-size="14.00">WavelengthDetector</text>
<text text-anchor="start" x="1094" y="-274.7" font-family="Times,serif" font-size="11.00">via:</text>
<text text-anchor="start" x="1115" y="-274.7" font-family="Times,serif" font-style="italic" font-size="11.00">add_scattering_coordinates_from_positions</text>
</g>
<!-- TofDetector[SampleRun] -->
<g id="node1" class="node">
<title>TofDetector[SampleRun]</title>
<polygon fill="none" stroke="black" points="925.5,-234 830.5,-234 830.5,-213 925.5,-213 925.5,-234"/>
<text text-anchor="start" x="838.5" y="-220.4" font-family="Times,serif" font-size="12.00">[SampleRun]</text>
</g>
<!-- AccumulatedProtonCharge[SampleRun] -->
<g id="node2" class="node">
<title>AccumulatedProtonCharge[SampleRun]</title>
<polygon fill="none" stroke="black" points="2012.5,-308 1917.5,-308 1917.5,-287 2012.5,-287 2012.5,-308"/>
<text text-anchor="start" x="1925.5" y="-294.4" font-family="Times,serif" font-size="12.00">[SampleRun]</text>
</g>
<!-- TofDetector[SampleRun]&#45;&gt;AccumulatedProtonCharge[SampleRun] -->
<g id="edge1" class="edge">
<title>TofDetector[SampleRun]:e&#45;&gt;AccumulatedProtonCharge[SampleRun]:w</title>
<path fill="none" stroke="black" d="M927,-223.5C966.16,-223.5 978.62,-220.71 1014,-237.5 1052.68,-255.86 1045.98,-286.28 1086,-301.5 1201.91,-345.57 1241,-301.95 1365,-301.5 1606.43,-300.62 1669.33,-297.59 1905.71,-297.5"/>
<polygon fill="black" stroke="black" points="1906,-301 1916,-297.5 1906,-294 1906,-301"/>
</g>
<!-- WavelengthDetector[SampleRun] -->
<g id="node8" class="node">
<title>WavelengthDetector[SampleRun]</title>
<polygon fill="none" stroke="black" points="1272.5,-234 1177.5,-234 1177.5,-213 1272.5,-213 1272.5,-234"/>
<text text-anchor="start" x="1185.5" y="-220.4" font-family="Times,serif" font-size="12.00">[SampleRun]</text>
</g>
<!-- TofDetector[SampleRun]&#45;&gt;WavelengthDetector[SampleRun] -->
<g id="edge45" class="edge">
<title>TofDetector[SampleRun]:e&#45;&gt;WavelengthDetector[SampleRun]:w</title>
<path fill="none" stroke="black" d="M927,-223.5C1034.21,-223.5 1063.52,-223.5 1165.86,-223.5"/>
<polygon fill="black" stroke="black" points="1166,-227 1176,-223.5 1166,-220 1166,-227"/>
</g>
<!-- NormalizedDspacing[SampleRun] -->
<g id="node33" class="node">
<title>NormalizedDspacing[SampleRun]</title>
<polygon fill="none" stroke="black" points="2286.5,-247 2191.5,-247 2191.5,-226 2286.5,-226 2286.5,-247"/>
<text text-anchor="start" x="2199.5" y="-233.4" font-family="Times,serif" font-size="12.00">[SampleRun]</text>
</g>
<!-- AccumulatedProtonCharge[SampleRun]&#45;&gt;NormalizedDspacing[SampleRun] -->
<g id="edge33" class="edge">
<title>AccumulatedProtonCharge[SampleRun]:e&#45;&gt;NormalizedDspacing[SampleRun]:w</title>
<path fill="none" stroke="black" d="M2014,-297.5C2093.23,-297.5 2106.18,-241.63 2179.72,-236.83"/>
<polygon fill="black" stroke="black" points="2180.12,-240.32 2190,-236.5 2179.89,-233.32 2180.12,-240.32"/>
</g>
<!-- TofDetector[VanadiumRun] -->
<g id="node3" class="node">
<title>TofDetector[VanadiumRun]</title>
<polygon fill="none" stroke="black" points="933,-259 823,-259 823,-238 933,-238 933,-259"/>
<text text-anchor="start" x="831" y="-245.4" font-family="Times,serif" font-size="12.00">[VanadiumRun]</text>
</g>
<!-- AccumulatedProtonCharge[VanadiumRun] -->
<g id="node4" class="node">
<title>AccumulatedProtonCharge[VanadiumRun]</title>
<polygon fill="none" stroke="black" points="2020,-333 1910,-333 1910,-312 2020,-312 2020,-333"/>
<text text-anchor="start" x="1918" y="-319.4" font-family="Times,serif" font-size="12.00">[VanadiumRun]</text>
</g>
<!-- TofDetector[VanadiumRun]&#45;&gt;AccumulatedProtonCharge[VanadiumRun] -->
<g id="edge2" class="edge">
<title>TofDetector[VanadiumRun]:e&#45;&gt;AccumulatedProtonCharge[VanadiumRun]:w</title>
<path fill="none" stroke="black" d="M934,-248.5C1007.65,-248.5 1013.96,-299.17 1086,-314.5 1440.46,-389.93 1541.34,-323.75 1898.89,-322.52"/>
<polygon fill="black" stroke="black" points="1899.01,-326.02 1909,-322.5 1898.99,-319.02 1899.01,-326.02"/>
</g>
<!-- WavelengthDetector[VanadiumRun] -->
<g id="node14" class="node">
<title>WavelengthDetector[VanadiumRun]</title>
<polygon fill="none" stroke="black" points="1280,-259 1170,-259 1170,-238 1280,-238 1280,-259"/>
<text text-anchor="start" x="1178" y="-245.4" font-family="Times,serif" font-size="12.00">[VanadiumRun]</text>
</g>
<!-- TofDetector[VanadiumRun]&#45;&gt;WavelengthDetector[VanadiumRun] -->
<g id="edge47" class="edge">
<title>TofDetector[VanadiumRun]:e&#45;&gt;WavelengthDetector[VanadiumRun]:w</title>
<path fill="none" stroke="black" d="M934,-248.5C1034.98,-248.5 1062.74,-248.5 1158.85,-248.5"/>
<polygon fill="black" stroke="black" points="1159,-252 1169,-248.5 1159,-245 1159,-252"/>
</g>
<!-- NormalizedDspacing[VanadiumRun] -->
<g id="node35" class="node">
<title>NormalizedDspacing[VanadiumRun]</title>
<polygon fill="none" stroke="black" points="2294,-272 2184,-272 2184,-251 2294,-251 2294,-272"/>
<text text-anchor="start" x="2192" y="-258.4" font-family="Times,serif" font-size="12.00">[VanadiumRun]</text>
</g>
<!-- AccumulatedProtonCharge[VanadiumRun]&#45;&gt;NormalizedDspacing[VanadiumRun] -->
<g id="edge35" class="edge">
<title>AccumulatedProtonCharge[VanadiumRun]:e&#45;&gt;NormalizedDspacing[VanadiumRun]:w</title>
<path fill="none" stroke="black" d="M2021,-322.5C2050.12,-322.5 2057.47,-317.97 2085,-308.5 2127.29,-293.95 2133.87,-266.06 2172.94,-262"/>
<polygon fill="black" stroke="black" points="2173.19,-265.49 2183,-261.5 2172.84,-258.5 2173.19,-265.49"/>
</g>
<!-- CalibrationFilename -->
<g id="node5" class="node">
<title>CalibrationFilename</title>
<polygon fill="none" stroke="black" points="649.5,-337 487.5,-337 487.5,-314 649.5,-314 649.5,-337"/>
<text text-anchor="middle" x="568.5" y="-321.8" font-family="Times,serif" font-size="14.00">CalibrationFilename</text>
</g>
<!-- CalibrationData -->
<g id="node6" class="node">
<title>CalibrationData</title>
<polygon fill="none" stroke="black" points="961,-342 795,-342 795,-309 961,-309 961,-342"/>
<text text-anchor="start" x="821" y="-327.8" font-family="Times,serif" font-size="14.00">CalibrationData</text>
<text text-anchor="start" x="803" y="-316.2" font-family="Times,serif" font-size="11.00">via:</text>
<text text-anchor="start" x="824" y="-316.2" font-family="Times,serif" font-style="italic" font-size="11.00">pooch_load_calibration</text>
</g>
<!-- CalibrationFilename&#45;&gt;CalibrationData -->
<g id="edge3" class="edge">
<title>CalibrationFilename:e&#45;&gt;CalibrationData:w</title>
<path fill="none" stroke="black" d="M650.5,-325.5C710.79,-325.5 728.34,-325.5 783.95,-325.5"/>
<polygon fill="black" stroke="black" points="784,-329 794,-325.5 784,-322 784,-329"/>
</g>
<!-- DspacingDetector[SampleRun] -->
<g id="node16" class="node">
<title>DspacingDetector[SampleRun]</title>
<polygon fill="none" stroke="black" points="1759.5,-195 1664.5,-195 1664.5,-174 1759.5,-174 1759.5,-195"/>
<text text-anchor="start" x="1672.5" y="-181.4" font-family="Times,serif" font-size="12.00">[SampleRun]</text>
</g>
<!-- CalibrationData&#45;&gt;DspacingDetector[SampleRun] -->
<g id="edge19" class="edge">
<title>CalibrationData:e&#45;&gt;DspacingDetector[SampleRun]:w</title>
<path fill="none" stroke="black" stroke-width="2" d="M962,-325.5C1237.65,-325.5 1338.08,-396.44 1579,-262.5 1609.31,-245.65 1613.67,-215.59 1629.44,-198.12"/>
<polygon fill="black" stroke="black" stroke-width="2" points="1631.8,-200.71 1637,-191.48 1627.18,-195.44 1631.8,-200.71"/>
</g>
<!-- DetectorBankSizes -->
<g id="node7" class="node">
<title>DetectorBankSizes</title>
<polygon fill="none" stroke="black" points="670,-299 467,-299 467,-266 670,-266 670,-299"/>
<text text-anchor="start" x="500.5" y="-284.8" font-family="Times,serif" font-size="14.00">DetectorBankSizes</text>
<text text-anchor="start" x="475" y="-273.2" font-family="Times,serif" font-size="11.00">via:</text>
<text text-anchor="start" x="496" y="-273.2" font-family="Times,serif" font-style="italic" font-size="11.00">powgen_detector_dimensions</text>
</g>
<!-- DetectorBankSizes&#45;&gt;TofDetector[SampleRun] -->
<g id="edge43" class="edge">
<title>DetectorBankSizes:e&#45;&gt;TofDetector[SampleRun]:w</title>
<path fill="none" stroke="black" stroke-width="2" d="M670,-282.5C707.74,-282.5 706.67,-250.76 742,-237.5 768.09,-227.71 781.27,-224.76 800.81,-223.88"/>
<polygon fill="black" stroke="black" stroke-width="2" points="801.11,-227.37 811,-223.59 800.91,-220.37 801.11,-227.37"/>
</g>
<!-- DetectorBankSizes&#45;&gt;CalibrationData -->
<g id="edge4" class="edge">
<title>DetectorBankSizes:e&#45;&gt;CalibrationData:w</title>
<path fill="none" stroke="black" d="M670,-282.5C724.8,-282.5 734.59,-320.45 783.94,-325.05"/>
<polygon fill="black" stroke="black" points="783.85,-328.55 794,-325.5 784.17,-321.55 783.85,-328.55"/>
</g>
<!-- CorrectedDetector[SampleRun] -->
<g id="node9" class="node">
<title>CorrectedDetector[SampleRun]</title>
<polygon fill="none" stroke="black" points="1551.5,-195 1456.5,-195 1456.5,-174 1551.5,-174 1551.5,-195"/>
<text text-anchor="start" x="1464.5" y="-181.4" font-family="Times,serif" font-size="12.00">[SampleRun]</text>
</g>
<!-- WavelengthDetector[SampleRun]&#45;&gt;CorrectedDetector[SampleRun] -->
<g id="edge5" class="edge">
<title>WavelengthDetector[SampleRun]:e&#45;&gt;CorrectedDetector[SampleRun]:w</title>
<path fill="none" stroke="black" d="M1274,-223.5C1352.75,-223.5 1371.18,-187.78 1444.75,-184.71"/>
<polygon fill="black" stroke="black" points="1445.07,-188.2 1455,-184.5 1444.93,-181.21 1445.07,-188.2"/>
</g>
<!-- CorrectedDetector[SampleRun]&#45;&gt;DspacingDetector[SampleRun] -->
<g id="edge17" class="edge">
<title>CorrectedDetector[SampleRun]:e&#45;&gt;DspacingDetector[SampleRun]:w</title>
<path fill="none" stroke="black" d="M1553,-184.5C1598.36,-184.5 1612.15,-184.5 1652.95,-184.5"/>
<polygon fill="black" stroke="black" points="1653,-188 1663,-184.5 1653,-181 1653,-188"/>
</g>
<!-- MaskedDetectorIDs -->
<g id="node10" class="node">
<title>MaskedDetectorIDs</title>
<polygon fill="none" stroke="black" points="1304,-169 1146,-169 1146,-146 1304,-146 1304,-169"/>
<text text-anchor="middle" x="1225" y="-153.8" font-family="Times,serif" font-size="14.00">MaskedDetectorIDs</text>
</g>
<!-- MaskedDetectorIDs&#45;&gt;CorrectedDetector[SampleRun] -->
<g id="edge6" class="edge">
<title>MaskedDetectorIDs:e&#45;&gt;CorrectedDetector[SampleRun]:w</title>
<path fill="none" stroke="black" stroke-width="2" d="M1305,-157.5C1358.78,-157.5 1379.02,-174.52 1418.98,-181.53"/>
<polygon fill="black" stroke="black" stroke-width="2" points="1418.6,-185.02 1429,-183.01 1419.62,-178.09 1418.6,-185.02"/>
</g>
<!-- TofMask -->
<g id="node11" class="node">
<title>TofMask</title>
<polygon fill="none" stroke="black" points="1263.5,-142 1186.5,-142 1186.5,-119 1263.5,-119 1263.5,-142"/>
<text text-anchor="middle" x="1225" y="-126.8" font-family="Times,serif" font-size="14.00">TofMask</text>
</g>
<!-- TofMask&#45;&gt;CorrectedDetector[SampleRun] -->
<g id="edge7" class="edge">
<title>TofMask:e&#45;&gt;CorrectedDetector[SampleRun]:w</title>
<path fill="none" stroke="black" stroke-width="2" d="M1265,-130.5C1309.94,-130.5 1321.79,-133.13 1365,-145.5 1392,-153.23 1403.47,-167.18 1419.87,-176.14"/>
<polygon fill="black" stroke="black" stroke-width="2" points="1418.45,-179.34 1429,-180.3 1421.35,-172.97 1418.45,-179.34"/>
</g>
<!-- WavelengthMask -->
<g id="node12" class="node">
<title>WavelengthMask</title>
<polygon fill="none" stroke="black" points="1294.5,-115 1155.5,-115 1155.5,-92 1294.5,-92 1294.5,-115"/>
<text text-anchor="middle" x="1225" y="-99.8" font-family="Times,serif" font-size="14.00">WavelengthMask</text>
</g>
<!-- WavelengthMask&#45;&gt;CorrectedDetector[SampleRun] -->
<g id="edge8" class="edge">
<title>WavelengthMask:e&#45;&gt;CorrectedDetector[SampleRun]:w</title>
<path fill="none" stroke="black" stroke-width="2" d="M1296,-103.5C1327.38,-103.5 1336.39,-105.61 1365,-118.5 1395.57,-132.28 1403.27,-157.58 1420.37,-172.54"/>
<polygon fill="black" stroke="black" stroke-width="2" points="1418.81,-175.72 1429,-178.6 1422.83,-169.99 1418.81,-175.72"/>
</g>
<!-- TwoThetaMask -->
<g id="node13" class="node">
<title>TwoThetaMask</title>
<polygon fill="none" stroke="black" points="1287.5,-196 1162.5,-196 1162.5,-173 1287.5,-173 1287.5,-196"/>
<text text-anchor="middle" x="1225" y="-180.8" font-family="Times,serif" font-size="14.00">TwoThetaMask</text>
</g>
<!-- TwoThetaMask&#45;&gt;CorrectedDetector[SampleRun] -->
<g id="edge9" class="edge">
<title>TwoThetaMask:e&#45;&gt;CorrectedDetector[SampleRun]:w</title>
<path fill="none" stroke="black" stroke-width="2" d="M1288,-184.5C1348.55,-184.5 1372.05,-184.5 1418.95,-184.5"/>
<polygon fill="black" stroke="black" stroke-width="2" points="1419,-188 1429,-184.5 1419,-181 1419,-188"/>
</g>
<!-- CorrectedDetector[VanadiumRun] -->
<g id="node15" class="node">
<title>CorrectedDetector[VanadiumRun]</title>
<polygon fill="none" stroke="black" points="1559,-220 1449,-220 1449,-199 1559,-199 1559,-220"/>
<text text-anchor="start" x="1457" y="-206.4" font-family="Times,serif" font-size="12.00">[VanadiumRun]</text>
</g>
<!-- WavelengthDetector[VanadiumRun]&#45;&gt;CorrectedDetector[VanadiumRun] -->
<g id="edge10" class="edge">
<title>WavelengthDetector[VanadiumRun]:e&#45;&gt;CorrectedDetector[VanadiumRun]:w</title>
<path fill="none" stroke="black" d="M1281,-248.5C1318.92,-248.5 1328.07,-242.11 1365,-233.5 1398.89,-225.6 1407.98,-212.31 1437.97,-209.88"/>
<polygon fill="black" stroke="black" points="1438.14,-213.38 1448,-209.5 1437.87,-206.39 1438.14,-213.38"/>
</g>
<!-- DspacingDetector[VanadiumRun] -->
<g id="node20" class="node">
<title>DspacingDetector[VanadiumRun]</title>
<polygon fill="none" stroke="black" points="1767,-220 1657,-220 1657,-199 1767,-199 1767,-220"/>
<text text-anchor="start" x="1665" y="-206.4" font-family="Times,serif" font-size="12.00">[VanadiumRun]</text>
</g>
<!-- CorrectedDetector[VanadiumRun]&#45;&gt;DspacingDetector[VanadiumRun] -->
<g id="edge20" class="edge">
<title>CorrectedDetector[VanadiumRun]:e&#45;&gt;DspacingDetector[VanadiumRun]:w</title>
<path fill="none" stroke="black" d="M1560,-209.5C1599,-209.5 1611.26,-209.5 1645.67,-209.5"/>
<polygon fill="black" stroke="black" points="1646,-213 1656,-209.5 1646,-206 1646,-213"/>
</g>
<!-- CorrectedDspacing[SampleRun] -->
<g id="node17" class="node">
<title>CorrectedDspacing[SampleRun]</title>
<polygon fill="none" stroke="black" points="2012.5,-195 1917.5,-195 1917.5,-174 2012.5,-174 2012.5,-195"/>
<text text-anchor="start" x="1925.5" y="-181.4" font-family="Times,serif" font-size="12.00">[SampleRun]</text>
</g>
<!-- DspacingDetector[SampleRun]&#45;&gt;CorrectedDspacing[SampleRun] -->
<g id="edge11" class="edge">
<title>DspacingDetector[SampleRun]:e&#45;&gt;CorrectedDspacing[SampleRun]:w</title>
<path fill="none" stroke="black" d="M1761,-184.5C1826.39,-184.5 1845.23,-184.5 1905.89,-184.5"/>
<polygon fill="black" stroke="black" points="1906,-188 1916,-184.5 1906,-181 1906,-188"/>
</g>
<!-- CorrectedDspacing[SampleRun]&#45;&gt;NormalizedDspacing[SampleRun] -->
<g id="edge32" class="edge">
<title>CorrectedDspacing[SampleRun]:e&#45;&gt;NormalizedDspacing[SampleRun]:w</title>
<path fill="none" stroke="black" d="M2014,-184.5C2046.16,-184.5 2054.01,-189.89 2085,-198.5 2129.36,-210.82 2139.07,-232.99 2179.87,-236.13"/>
<polygon fill="black" stroke="black" points="2179.88,-239.63 2190,-236.5 2180.14,-232.63 2179.88,-239.63"/>
</g>
<!-- DspacingBins -->
<g id="node18" class="node">
<title>DspacingBins</title>
<polygon fill="none" stroke="black" points="1769,-157 1655,-157 1655,-134 1769,-134 1769,-157"/>
<text text-anchor="middle" x="1712" y="-141.8" font-family="Times,serif" font-size="14.00">DspacingBins</text>
</g>
<!-- DspacingBins&#45;&gt;CorrectedDspacing[SampleRun] -->
<g id="edge12" class="edge">
<title>DspacingBins:e&#45;&gt;CorrectedDspacing[SampleRun]:w</title>
<path fill="none" stroke="black" stroke-width="2" d="M1770,-145.5C1800.05,-145.5 1818.99,-153.31 1836.76,-161.93"/>
<polygon fill="black" stroke="black" stroke-width="2" points="1835.49,-165.21 1846,-166.48 1838.58,-158.93 1835.49,-165.21"/>
</g>
<!-- KeepEvents[SampleRun] -->
<g id="node19" class="node">
<title>KeepEvents[SampleRun]</title>
<polygon fill="none" stroke="black" points="1759.5,-69 1664.5,-69 1664.5,-48 1759.5,-48 1759.5,-69"/>
<text text-anchor="start" x="1672.5" y="-55.4" font-family="Times,serif" font-size="12.00">[SampleRun]</text>
</g>
<!-- KeepEvents[SampleRun]&#45;&gt;CorrectedDspacing[SampleRun] -->
<g id="edge13" class="edge">
<title>KeepEvents[SampleRun]:e&#45;&gt;CorrectedDspacing[SampleRun]:w</title>
<path fill="none" stroke="black" d="M1761,-58.5C1846.14,-58.5 1828.88,-174.38 1905.62,-183.88"/>
<polygon fill="black" stroke="black" points="1905.81,-187.4 1916,-184.5 1906.23,-180.41 1905.81,-187.4"/>
</g>
<!-- CorrectedDspacing[VanadiumRun] -->
<g id="node21" class="node">
<title>CorrectedDspacing[VanadiumRun]</title>
<polygon fill="none" stroke="black" points="2020,-220 1910,-220 1910,-199 2020,-199 2020,-220"/>
<text text-anchor="start" x="1918" y="-206.4" font-family="Times,serif" font-size="12.00">[VanadiumRun]</text>
</g>
<!-- DspacingDetector[VanadiumRun]&#45;&gt;CorrectedDspacing[VanadiumRun] -->
<g id="edge14" class="edge">
<title>DspacingDetector[VanadiumRun]:e&#45;&gt;CorrectedDspacing[VanadiumRun]:w</title>
<path fill="none" stroke="black" d="M1768,-209.5C1827.12,-209.5 1844.41,-209.5 1898.79,-209.5"/>
<polygon fill="black" stroke="black" points="1899,-213 1909,-209.5 1899,-206 1899,-213"/>
</g>
<!-- CorrectedDspacing[VanadiumRun]&#45;&gt;NormalizedDspacing[VanadiumRun] -->
<g id="edge34" class="edge">
<title>CorrectedDspacing[VanadiumRun]:e&#45;&gt;NormalizedDspacing[VanadiumRun]:w</title>
<path fill="none" stroke="black" d="M2021,-209.5C2093.07,-209.5 2106.23,-256.74 2172.78,-261.17"/>
<polygon fill="black" stroke="black" points="2172.89,-264.67 2183,-261.5 2173.12,-257.68 2172.89,-264.67"/>
</g>
<!-- KeepEvents[VanadiumRun] -->
<g id="node22" class="node">
<title>KeepEvents[VanadiumRun]</title>
<polygon fill="none" stroke="black" points="1767,-94 1657,-94 1657,-73 1767,-73 1767,-94"/>
<text text-anchor="start" x="1665" y="-80.4" font-family="Times,serif" font-size="12.00">[VanadiumRun]</text>
</g>
<!-- KeepEvents[VanadiumRun]&#45;&gt;CorrectedDspacing[VanadiumRun] -->
<g id="edge15" class="edge">
<title>KeepEvents[VanadiumRun]:e&#45;&gt;CorrectedDspacing[VanadiumRun]:w</title>
<path fill="none" stroke="black" d="M1768,-83.5C1828.3,-83.5 1796.1,-160.65 1846,-194.5 1866.75,-208.57 1877.31,-209.51 1898.72,-209.52"/>
<polygon fill="black" stroke="black" points="1899.01,-213.02 1909,-209.5 1898.99,-206.02 1899.01,-213.02"/>
</g>
<!-- NeXusName[NXdetector] -->
<g id="node23" class="node">
<title>NeXusName[NXdetector]</title>
<polygon fill="none" stroke="black" points="395,-294 198,-294 198,-271 395,-271 395,-294"/>
<text text-anchor="middle" x="296.5" y="-278.8" font-family="Times,serif" font-size="14.00">NeXusName[NXdetector]</text>
</g>
<!-- NeXusName[NXdetector]&#45;&gt;DetectorBankSizes -->
<g id="edge16" class="edge">
<title>NeXusName[NXdetector]:e&#45;&gt;DetectorBankSizes:w</title>
<path fill="none" stroke="black" d="M395,-282.5C423.38,-282.5 432.88,-282.5 456.98,-282.5"/>
<polygon fill="black" stroke="black" points="457,-286 467,-282.5 457,-279 457,-286"/>
</g>
<!-- ElasticCoordTransformGraph[SampleRun] -->
<g id="node24" class="node">
<title>ElasticCoordTransformGraph[SampleRun]</title>
<polygon fill="none" stroke="black" points="925.5,-111 830.5,-111 830.5,-90 925.5,-90 925.5,-111"/>
<text text-anchor="start" x="838.5" y="-97.4" font-family="Times,serif" font-size="12.00">[SampleRun]</text>
</g>
<!-- ElasticCoordTransformGraph[SampleRun]&#45;&gt;WavelengthDetector[SampleRun] -->
<g id="edge46" class="edge">
<title>ElasticCoordTransformGraph[SampleRun]:e&#45;&gt;WavelengthDetector[SampleRun]:w</title>
<path fill="none" stroke="black" d="M927,-100.5C966.16,-100.5 979.78,-95.45 1014,-114.5 1056.67,-138.25 1044.85,-171.2 1086,-197.5 1118.07,-218 1131.92,-222.75 1165.86,-223.41"/>
<polygon fill="black" stroke="black" points="1165.97,-226.91 1176,-223.5 1166.03,-219.91 1165.97,-226.91"/>
</g>
<!-- ElasticCoordTransformGraph[SampleRun]&#45;&gt;DspacingDetector[SampleRun] -->
<g id="edge18" class="edge">
<title>ElasticCoordTransformGraph[SampleRun]:e&#45;&gt;DspacingDetector[SampleRun]:w</title>
<path fill="none" stroke="black" d="M927,-100.5C998.17,-100.5 1014.96,-85.73 1086,-81.5 1304.72,-68.48 1382.92,16.29 1579,-81.5 1628.56,-106.21 1607.11,-175.12 1652.9,-183.63"/>
<polygon fill="black" stroke="black" points="1652.74,-187.13 1663,-184.5 1653.34,-180.16 1652.74,-187.13"/>
</g>
<!-- ElasticCoordTransformGraph[VanadiumRun] -->
<g id="node25" class="node">
<title>ElasticCoordTransformGraph[VanadiumRun]</title>
<polygon fill="none" stroke="black" points="933,-136 823,-136 823,-115 933,-115 933,-136"/>
<text text-anchor="start" x="831" y="-122.4" font-family="Times,serif" font-size="12.00">[VanadiumRun]</text>
</g>
<!-- ElasticCoordTransformGraph[VanadiumRun]&#45;&gt;WavelengthDetector[VanadiumRun] -->
<g id="edge48" class="edge">
<title>ElasticCoordTransformGraph[VanadiumRun]:e&#45;&gt;WavelengthDetector[VanadiumRun]:w</title>
<path fill="none" stroke="black" d="M934,-125.5C1016.87,-125.5 1009.61,-201.36 1086,-233.5 1117.18,-246.62 1129.15,-248.28 1158.73,-248.47"/>
<polygon fill="black" stroke="black" points="1158.99,-251.97 1169,-248.5 1159.01,-244.97 1158.99,-251.97"/>
</g>
<!-- ElasticCoordTransformGraph[VanadiumRun]&#45;&gt;DspacingDetector[VanadiumRun] -->
<g id="edge21" class="edge">
<title>ElasticCoordTransformGraph[VanadiumRun]:e&#45;&gt;DspacingDetector[VanadiumRun]:w</title>
<path fill="none" stroke="black" d="M934,-125.5C970.18,-125.5 978.71,-118.45 1014,-110.5 1046.29,-103.22 1053.18,-95.76 1086,-91.5 1208.97,-75.55 1242.67,-71.21 1365,-91.5 1464.14,-107.94 1487.61,-122.72 1579,-164.5 1611.67,-179.44 1615.81,-204.26 1645.8,-208.78"/>
<polygon fill="black" stroke="black" points="1645.78,-212.29 1656,-209.5 1646.27,-205.31 1645.78,-212.29"/>
</g>
<!-- Position[NXsource, SampleRun] -->
<g id="node26" class="node">
<title>Position[NXsource, SampleRun]</title>
<polygon fill="none" stroke="black" points="649,-116 488,-116 488,-85 649,-85 649,-116"/>
<text text-anchor="start" x="496" y="-103.4" font-family="Times,serif" font-size="12.00">[NXsource, SampleRun]</text>
<text text-anchor="start" x="514" y="-92.2" font-family="Times,serif" font-size="11.00">via:</text>
<text text-anchor="start" x="535" y="-92.2" font-family="Times,serif" font-style="italic" font-size="11.00">source_position</text>
</g>
<!-- Position[NXsource, SampleRun]&#45;&gt;ElasticCoordTransformGraph[SampleRun] -->
<g id="edge22" class="edge">
<title>Position[NXsource, SampleRun]:e&#45;&gt;ElasticCoordTransformGraph[SampleRun]:w</title>
<path fill="none" stroke="black" d="M650.5,-100.5C726.27,-100.5 747.76,-100.5 818.66,-100.5"/>
<polygon fill="black" stroke="black" points="819,-104 829,-100.5 819,-97 819,-104"/>
</g>
<!-- Position[NXsample, SampleRun] -->
<g id="node27" class="node">
<title>Position[NXsample, SampleRun]</title>
<polygon fill="none" stroke="black" points="650.5,-81 486.5,-81 486.5,-50 650.5,-50 650.5,-81"/>
<text text-anchor="start" x="494.5" y="-68.4" font-family="Times,serif" font-size="12.00">[NXsample, SampleRun]</text>
<text text-anchor="start" x="512.5" y="-57.2" font-family="Times,serif" font-size="11.00">via:</text>
<text text-anchor="start" x="533.5" y="-57.2" font-family="Times,serif" font-style="italic" font-size="11.00">sample_position</text>
</g>
<!-- Position[NXsample, SampleRun]&#45;&gt;ElasticCoordTransformGraph[SampleRun] -->
<g id="edge23" class="edge">
<title>Position[NXsample, SampleRun]:e&#45;&gt;ElasticCoordTransformGraph[SampleRun]:w</title>
<path fill="none" stroke="black" d="M651.5,-65.5C728.45,-65.5 747.04,-97.56 818.98,-100.31"/>
<polygon fill="black" stroke="black" points="818.94,-103.81 829,-100.5 819.07,-96.81 818.94,-103.81"/>
</g>
<!-- GravityVector -->
<g id="node28" class="node">
<title>GravityVector</title>
<polygon fill="none" stroke="black" points="645.5,-33 491.5,-33 491.5,0 645.5,0 645.5,-33"/>
<text text-anchor="start" x="518.5" y="-18.8" font-family="Times,serif" font-size="14.00">GravityVector</text>
<text text-anchor="start" x="499.5" y="-7.2" font-family="Times,serif" font-size="11.00">via:</text>
<text text-anchor="start" x="520.5" y="-7.2" font-family="Times,serif" font-style="italic" font-size="11.00">gravity_vector_neg_y</text>
</g>
<!-- GravityVector&#45;&gt;ElasticCoordTransformGraph[SampleRun] -->
<g id="edge24" class="edge">
<title>GravityVector:e&#45;&gt;ElasticCoordTransformGraph[SampleRun]:w</title>
<path fill="none" stroke="black" stroke-width="2" d="M646.5,-16.5C703.46,-16.5 725.68,-50.68 757.48,-75.44"/>
<polygon fill="black" stroke="black" stroke-width="2" points="755.66,-78.44 765.8,-81.5 759.78,-72.78 755.66,-78.44"/>
</g>
<!-- Position[NXsource, VanadiumRun] -->
<g id="node29" class="node">
<title>Position[NXsource, VanadiumRun]</title>
<polygon fill="none" stroke="black" points="656.5,-186 480.5,-186 480.5,-155 656.5,-155 656.5,-186"/>
<text text-anchor="start" x="488.5" y="-173.4" font-family="Times,serif" font-size="12.00">[NXsource, VanadiumRun]</text>
<text text-anchor="start" x="514" y="-162.2" font-family="Times,serif" font-size="11.00">via:</text>
<text text-anchor="start" x="535" y="-162.2" font-family="Times,serif" font-style="italic" font-size="11.00">source_position</text>
</g>
<!-- Position[NXsource, VanadiumRun]&#45;&gt;ElasticCoordTransformGraph[VanadiumRun] -->
<g id="edge25" class="edge">
<title>Position[NXsource, VanadiumRun]:e&#45;&gt;ElasticCoordTransformGraph[VanadiumRun]:w</title>
<path fill="none" stroke="black" d="M657.5,-170.5C729.74,-170.5 744.85,-129.62 811.74,-125.79"/>
<polygon fill="black" stroke="black" points="812.1,-129.28 822,-125.5 811.91,-122.28 812.1,-129.28"/>
</g>
<!-- Position[NXsample, VanadiumRun] -->
<g id="node30" class="node">
<title>Position[NXsample, VanadiumRun]</title>
<polygon fill="none" stroke="black" points="658,-151 479,-151 479,-120 658,-120 658,-151"/>
<text text-anchor="start" x="487" y="-138.4" font-family="Times,serif" font-size="12.00">[NXsample, VanadiumRun]</text>
<text text-anchor="start" x="512.5" y="-127.2" font-family="Times,serif" font-size="11.00">via:</text>
<text text-anchor="start" x="533.5" y="-127.2" font-family="Times,serif" font-style="italic" font-size="11.00">sample_position</text>
</g>
<!-- Position[NXsample, VanadiumRun]&#45;&gt;ElasticCoordTransformGraph[VanadiumRun] -->
<g id="edge26" class="edge">
<title>Position[NXsample, VanadiumRun]:e&#45;&gt;ElasticCoordTransformGraph[VanadiumRun]:w</title>
<path fill="none" stroke="black" d="M659.5,-135.5C728.33,-135.5 747.77,-126.45 811.78,-125.57"/>
<polygon fill="black" stroke="black" points="812.02,-129.07 822,-125.5 811.98,-122.07 812.02,-129.07"/>
</g>
<!-- Filename[SampleRun] -->
<g id="node31" class="node">
<title>Filename[SampleRun]</title>
<polygon fill="none" stroke="black" points="118.5,-138 23.5,-138 23.5,-117 118.5,-117 118.5,-138"/>
<text text-anchor="start" x="31.5" y="-124.4" font-family="Times,serif" font-size="12.00">[SampleRun]</text>
</g>
<!-- RawDataAndMetadata[SampleRun] -->
<g id="node39" class="node">
<title>RawDataAndMetadata[SampleRun]</title>
<polygon fill="none" stroke="black" points="344,-138 249,-138 249,-117 344,-117 344,-138"/>
<text text-anchor="start" x="257" y="-124.4" font-family="Times,serif" font-size="12.00">[SampleRun]</text>
</g>
<!-- Filename[SampleRun]&#45;&gt;RawDataAndMetadata[SampleRun] -->
<g id="edge40" class="edge">
<title>Filename[SampleRun]:e&#45;&gt;RawDataAndMetadata[SampleRun]:w</title>
<path fill="none" stroke="black" d="M120,-127.5C173.12,-127.5 188.9,-127.5 237.35,-127.5"/>
<polygon fill="black" stroke="black" points="237.5,-131 247.5,-127.5 237.5,-124 237.5,-131"/>
</g>
<!-- Filename[VanadiumRun] -->
<g id="node32" class="node">
<title>Filename[VanadiumRun]</title>
<polygon fill="none" stroke="black" points="126,-163 16,-163 16,-142 126,-142 126,-163"/>
<text text-anchor="start" x="24" y="-149.4" font-family="Times,serif" font-size="12.00">[VanadiumRun]</text>
</g>
<!-- RawDataAndMetadata[VanadiumRun] -->
<g id="node40" class="node">
<title>RawDataAndMetadata[VanadiumRun]</title>
<polygon fill="none" stroke="black" points="351.5,-163 241.5,-163 241.5,-142 351.5,-142 351.5,-163"/>
<text text-anchor="start" x="249.5" y="-149.4" font-family="Times,serif" font-size="12.00">[VanadiumRun]</text>
</g>
<!-- Filename[VanadiumRun]&#45;&gt;RawDataAndMetadata[VanadiumRun] -->
<g id="edge41" class="edge">
<title>Filename[VanadiumRun]:e&#45;&gt;RawDataAndMetadata[VanadiumRun]:w</title>
<path fill="none" stroke="black" d="M127,-152.5C173.9,-152.5 188.1,-152.5 230.39,-152.5"/>
<polygon fill="black" stroke="black" points="230.5,-156 240.5,-152.5 230.5,-149 230.5,-156"/>
</g>
<!-- FocussedDataDspacing[SampleRun] -->
<g id="node34" class="node">
<title>FocussedDataDspacing[SampleRun]</title>
<polygon fill="none" stroke="black" points="2556.5,-247 2461.5,-247 2461.5,-226 2556.5,-226 2556.5,-247"/>
<text text-anchor="start" x="2469.5" y="-233.4" font-family="Times,serif" font-size="12.00">[SampleRun]</text>
</g>
<!-- NormalizedDspacing[SampleRun]&#45;&gt;FocussedDataDspacing[SampleRun] -->
<g id="edge27" class="edge">
<title>NormalizedDspacing[SampleRun]:e&#45;&gt;FocussedDataDspacing[SampleRun]:w</title>
<path fill="none" stroke="black" d="M2288,-236.5C2360.86,-236.5 2381.64,-236.5 2449.62,-236.5"/>
<polygon fill="black" stroke="black" points="2450,-240 2460,-236.5 2450,-233 2450,-240"/>
</g>
<!-- IntensityDspacing[SampleRun] -->
<g id="node37" class="node">
<title>IntensityDspacing[SampleRun]</title>
<polygon fill="none" stroke="black" points="2927,-253 2688,-253 2688,-220 2927,-220 2927,-253"/>
<text text-anchor="start" x="2696" y="-238.8" font-family="Times,serif" font-size="14.00">IntensityDspacing[SampleRun]</text>
<text text-anchor="start" x="2702.5" y="-227.2" font-family="Times,serif" font-size="11.00">via:</text>
<text text-anchor="start" x="2723.5" y="-227.2" font-family="Times,serif" font-style="italic" font-size="11.00">normalize_by_vanadium_dspacing</text>
</g>
<!-- FocussedDataDspacing[SampleRun]&#45;&gt;IntensityDspacing[SampleRun] -->
<g id="edge29" class="edge">
<title>FocussedDataDspacing[SampleRun]:e&#45;&gt;IntensityDspacing[SampleRun]:w</title>
<path fill="none" stroke="black" d="M2558,-236.5C2612.28,-236.5 2628.31,-236.5 2677.96,-236.5"/>
<polygon fill="black" stroke="black" points="2678,-240 2688,-236.5 2678,-233 2678,-240"/>
</g>
<!-- FocussedDataDspacing[VanadiumRun] -->
<g id="node36" class="node">
<title>FocussedDataDspacing[VanadiumRun]</title>
<polygon fill="none" stroke="black" points="2564,-272 2454,-272 2454,-251 2564,-251 2564,-272"/>
<text text-anchor="start" x="2462" y="-258.4" font-family="Times,serif" font-size="12.00">[VanadiumRun]</text>
</g>
<!-- NormalizedDspacing[VanadiumRun]&#45;&gt;FocussedDataDspacing[VanadiumRun] -->
<g id="edge28" class="edge">
<title>NormalizedDspacing[VanadiumRun]:e&#45;&gt;FocussedDataDspacing[VanadiumRun]:w</title>
<path fill="none" stroke="black" d="M2295,-261.5C2361.66,-261.5 2380.86,-261.5 2442.7,-261.5"/>
<polygon fill="black" stroke="black" points="2443,-265 2453,-261.5 2443,-258 2443,-265"/>
</g>
<!-- FocussedDataDspacing[VanadiumRun]&#45;&gt;IntensityDspacing[SampleRun] -->
<g id="edge30" class="edge">
<title>FocussedDataDspacing[VanadiumRun]:e&#45;&gt;IntensityDspacing[SampleRun]:w</title>
<path fill="none" stroke="black" d="M2565,-261.5C2617.19,-261.5 2630.56,-239.62 2677.74,-236.8"/>
<polygon fill="black" stroke="black" points="2678.11,-240.29 2688,-236.5 2677.9,-233.29 2678.11,-240.29"/>
</g>
<!-- UncertaintyBroadcastMode -->
<g id="node38" class="node">
<title>UncertaintyBroadcastMode</title>
<polygon fill="none" stroke="black" points="2616,-209 2402,-209 2402,-186 2616,-186 2616,-209"/>
<text text-anchor="middle" x="2509" y="-193.8" font-family="Times,serif" font-size="14.00">UncertaintyBroadcastMode</text>
</g>
<!-- UncertaintyBroadcastMode&#45;&gt;IntensityDspacing[SampleRun] -->
<g id="edge31" class="edge">
<title>UncertaintyBroadcastMode:e&#45;&gt;IntensityDspacing[SampleRun]:w</title>
<path fill="none" stroke="black" d="M2616,-197.5C2648.7,-197.5 2651.38,-228.98 2677.98,-235.37"/>
<polygon fill="black" stroke="black" points="2677.67,-238.86 2688,-236.5 2678.45,-231.91 2677.67,-238.86"/>
</g>
<!-- RawDataAndMetadata[SampleRun]&#45;&gt;TofDetector[SampleRun] -->
<g id="edge42" class="edge">
<title>RawDataAndMetadata[SampleRun]:e&#45;&gt;TofDetector[SampleRun]:w</title>
<path fill="none" stroke="black" d="M345.5,-127.5C368.36,-127.5 375.48,-129.6 395,-141.5 435.01,-165.88 424.15,-199.55 467,-218.5 537.63,-249.74 732.11,-225.61 818.74,-223.63"/>
<polygon fill="black" stroke="black" points="819.04,-227.12 829,-223.5 818.96,-220.12 819.04,-227.12"/>
</g>
<!-- RawDataAndMetadata[SampleRun]&#45;&gt;Position[NXsource, SampleRun] -->
<g id="edge38" class="edge">
<title>RawDataAndMetadata[SampleRun]:e&#45;&gt;Position[NXsource, SampleRun]:w</title>
<path fill="none" stroke="black" d="M345.5,-127.5C405.82,-127.5 421.08,-103.37 476.47,-100.73"/>
<polygon fill="black" stroke="black" points="476.58,-104.23 486.5,-100.5 476.42,-97.23 476.58,-104.23"/>
</g>
<!-- RawDataAndMetadata[SampleRun]&#45;&gt;Position[NXsample, SampleRun] -->
<g id="edge36" class="edge">
<title>RawDataAndMetadata[SampleRun]:e&#45;&gt;Position[NXsample, SampleRun]:w</title>
<path fill="none" stroke="black" d="M345.5,-127.5C409.96,-127.5 416.86,-71.87 475.25,-66"/>
<polygon fill="black" stroke="black" points="475.68,-69.48 485.5,-65.5 475.34,-62.49 475.68,-69.48"/>
</g>
<!-- RawDataAndMetadata[VanadiumRun]&#45;&gt;TofDetector[VanadiumRun] -->
<g id="edge44" class="edge">
<title>RawDataAndMetadata[VanadiumRun]:e&#45;&gt;TofDetector[VanadiumRun]:w</title>
<path fill="none" stroke="black" d="M352.5,-152.5C414.07,-152.5 408.64,-210.88 467,-230.5 613.53,-279.76 661.94,-249.85 811.97,-248.54"/>
<polygon fill="black" stroke="black" points="812.02,-252.04 822,-248.5 811.98,-245.04 812.02,-252.04"/>
</g>
<!-- RawDataAndMetadata[VanadiumRun]&#45;&gt;Position[NXsource, VanadiumRun] -->
<g id="edge39" class="edge">
<title>RawDataAndMetadata[VanadiumRun]:e&#45;&gt;Position[NXsource, VanadiumRun]:w</title>
<path fill="none" stroke="black" d="M352.5,-152.5C405.95,-152.5 420.7,-168.32 469.31,-170.3"/>
<polygon fill="black" stroke="black" points="469.43,-173.8 479.5,-170.5 469.57,-166.8 469.43,-173.8"/>
</g>
<!-- RawDataAndMetadata[VanadiumRun]&#45;&gt;Position[NXsample, VanadiumRun] -->
<g id="edge37" class="edge">
<title>RawDataAndMetadata[VanadiumRun]:e&#45;&gt;Position[NXsample, VanadiumRun]:w</title>
<path fill="none" stroke="black" d="M352.5,-152.5C405.06,-152.5 419.66,-137.56 467.47,-135.69"/>
<polygon fill="black" stroke="black" points="467.57,-139.19 477.5,-135.5 467.44,-132.19 467.57,-139.19"/>
</g>
</g>
</svg>
