<?xml version="1.0" encoding="utf-8" standalone="no"?>
<!DOCTYPE svg PUBLIC "-//W3C//DTD SVG 1.1//EN"
  "http://www.w3.org/Graphics/SVG/1.1/DTD/svg11.dtd">
<svg xmlns:xlink="http://www.w3.org/1999/xlink" width="401.690625pt" height="268.200625pt" viewBox="0 0 401.690625 268.200625" xmlns="http://www.w3.org/2000/svg" version="1.1">
 <metadata>
  <rdf:RDF xmlns:dc="http://purl.org/dc/elements/1.1/" xmlns:cc="http://creativecommons.org/ns#" xmlns:rdf="http://www.w3.org/1999/02/22-rdf-syntax-ns#">
   <cc:Work>
    <dc:type rdf:resource="http://purl.org/dc/dcmitype/StillImage"/>
    <dc:date>2026-03-02T09:55:10.501612</dc:date>
    <dc:format>image/svg+xml</dc:format>
    <dc:creator>
     <cc:Agent>
      <dc:title>Matplotlib v3.10.8, https://matplotlib.org/</dc:title>
     </cc:Agent>
    </dc:creator>
   </cc:Work>
  </rdf:RDF>
 </metadata>
 <defs>
  <style type="text/css">*{stroke-linejoin: round; stroke-linecap: butt}</style>
 </defs>
 <g id="figure_1">
  <g id="patch_1">
   <path d="M 0 268.200625 
L 401.690625 268.200625 
L 401.690625 0 
L 0 0 
z
" style="fill: #ffffff"/>
  </g>
  <g id="axes_1">
   <g id="patch_2">
    <path d="M 59.690625 228.96 
L 394.490625 228.96 
L 394.490625 7.2 
L 59.690625 7.2 
z
" style="fill: #ffffff"/>
   </g>
   <g id="matplotlib.axis_1">
    <g id="xtick_1">
     <g id="line2d_1">
      <defs>
       <path id="md2b9946ae5" d="M 0 0 
L 0 3.5 
" style="stroke: #000000; stroke-width: 0.8"/>
      </defs>
      <g>
       <use xlink:href="#md2b9946ae5" x="67.461326" y="228.96" style="stroke: #000000; stroke-width: 0.8"/>
      </g>
     </g>
     <g id="text_1">
      <!-- 0.25 -->
      <g transform="translate(56.328514 243.558437) scale(0.1 -0.1)">
       <defs>
        <path id="DejaVuSans-30" d="M 2034 4250 
Q 1547 4250 1301 3770 
Q 1056 3291 1056 2328 
Q 1056 1369 1301 889 
Q 1547 409 2034 409 
Q 2525 409 2770 889 
Q 3016 1369 3016 2328 
Q 3016 3291 2770 3770 
Q 2525 4250 2034 4250 
z
M 2034 4750 
Q 2819 4750 3233 4129 
Q 3647 3509 3647 2328 
Q 3647 1150 3233 529 
Q 2819 -91 2034 -91 
Q 1250 -91 836 529 
Q 422 1150 422 2328 
Q 422 3509 836 4129 
Q 1250 4750 2034 4750 
z
" transform="scale(0.015625)"/>
        <path id="DejaVuSans-2e" d="M 684 794 
L 1344 794 
L 1344 0 
L 684 0 
L 684 794 
z
" transform="scale(0.015625)"/>
        <path id="DejaVuSans-32" d="M 1228 531 
L 3431 531 
L 3431 0 
L 469 0 
L 469 531 
Q 828 903 1448 1529 
Q 2069 2156 2228 2338 
Q 2531 2678 2651 2914 
Q 2772 3150 2772 3378 
Q 2772 3750 2511 3984 
Q 2250 4219 1831 4219 
Q 1534 4219 1204 4116 
Q 875 4013 500 3803 
L 500 4441 
Q 881 4594 1212 4672 
Q 1544 4750 1819 4750 
Q 2544 4750 2975 4387 
Q 3406 4025 3406 3419 
Q 3406 3131 3298 2873 
Q 3191 2616 2906 2266 
Q 2828 2175 2409 1742 
Q 1991 1309 1228 531 
z
" transform="scale(0.015625)"/>
        <path id="DejaVuSans-35" d="M 691 4666 
L 3169 4666 
L 3169 4134 
L 1269 4134 
L 1269 2991 
Q 1406 3038 1543 3061 
Q 1681 3084 1819 3084 
Q 2600 3084 3056 2656 
Q 3513 2228 3513 1497 
Q 3513 744 3044 326 
Q 2575 -91 1722 -91 
Q 1428 -91 1123 -41 
Q 819 9 494 109 
L 494 744 
Q 775 591 1075 516 
Q 1375 441 1709 441 
Q 2250 441 2565 725 
Q 2881 1009 2881 1497 
Q 2881 1984 2565 2268 
Q 2250 2553 1709 2553 
Q 1456 2553 1204 2497 
Q 953 2441 691 2322 
L 691 4666 
z
" transform="scale(0.015625)"/>
       </defs>
       <use xlink:href="#DejaVuSans-30"/>
       <use xlink:href="#DejaVuSans-2e" transform="translate(63.623047 0)"/>
       <use xlink:href="#DejaVuSans-32" transform="translate(95.410156 0)"/>
       <use xlink:href="#DejaVuSans-35" transform="translate(159.033203 0)"/>
      </g>
     </g>
    </g>
    <g id="xtick_2">
     <g id="line2d_2">
      <g>
       <use xlink:href="#md2b9946ae5" x="104.698729" y="228.96" style="stroke: #000000; stroke-width: 0.8"/>
      </g>
     </g>
     <g id="text_2">
      <!-- 0.50 -->
      <g transform="translate(93.565917 243.558437) scale(0.1 -0.1)">
       <use xlink:href="#DejaVuSans-30"/>
       <use xlink:href="#DejaVuSans-2e" transform="translate(63.623047 0)"/>
       <use xlink:href="#DejaVuSans-35" transform="translate(95.410156 0)"/>
       <use xlink:href="#DejaVuSans-30" transform="translate(159.033203 0)"/>
      </g>
     </g>
    </g>
    <g id="xtick_3">
     <g id="line2d_3">
      <g>
       <use xlink:href="#md2b9946ae5" x="141.936132" y="228.96" style="stroke: #000000; stroke-width: 0.8"/>
      </g>
     </g>
     <g id="text_3">
      <!-- 0.75 -->
      <g transform="translate(130.80332 243.558437) scale(0.1 -0.1)">
       <defs>
        <path id="DejaVuSans-37" d="M 525 4666 
L 3525 4666 
L 3525 4397 
L 1831 0 
L 1172 0 
L 2766 4134 
L 525 4134 
L 525 4666 
z
" transform="scale(0.015625)"/>
       </defs>
       <use xlink:href="#DejaVuSans-30"/>
       <use xlink:href="#DejaVuSans-2e" transform="translate(63.623047 0)"/>
       <use xlink:href="#DejaVuSans-37" transform="translate(95.410156 0)"/>
       <use xlink:href="#DejaVuSans-35" transform="translate(159.033203 0)"/>
      </g>
     </g>
    </g>
    <g id="xtick_4">
     <g id="line2d_4">
      <g>
       <use xlink:href="#md2b9946ae5" x="179.173535" y="228.96" style="stroke: #000000; stroke-width: 0.8"/>
      </g>
     </g>
     <g id="text_4">
      <!-- 1.00 -->
      <g transform="translate(168.040722 243.558437) scale(0.1 -0.1)">
       <defs>
        <path id="DejaVuSans-31" d="M 794 531 
L 1825 531 
L 1825 4091 
L 703 3866 
L 703 4441 
L 1819 4666 
L 2450 4666 
L 2450 531 
L 3481 531 
L 3481 0 
L 794 0 
L 794 531 
z
" transform="scale(0.015625)"/>
       </defs>
       <use xlink:href="#DejaVuSans-31"/>
       <use xlink:href="#DejaVuSans-2e" transform="translate(63.623047 0)"/>
       <use xlink:href="#DejaVuSans-30" transform="translate(95.410156 0)"/>
       <use xlink:href="#DejaVuSans-30" transform="translate(159.033203 0)"/>
      </g>
     </g>
    </g>
    <g id="xtick_5">
     <g id="line2d_5">
      <g>
       <use xlink:href="#md2b9946ae5" x="216.410938" y="228.96" style="stroke: #000000; stroke-width: 0.8"/>
      </g>
     </g>
     <g id="text_5">
      <!-- 1.25 -->
      <g transform="translate(205.278125 243.558437) scale(0.1 -0.1)">
       <use xlink:href="#DejaVuSans-31"/>
       <use xlink:href="#DejaVuSans-2e" transform="translate(63.623047 0)"/>
       <use xlink:href="#DejaVuSans-32" transform="translate(95.410156 0)"/>
       <use xlink:href="#DejaVuSans-35" transform="translate(159.033203 0)"/>
      </g>
     </g>
    </g>
    <g id="xtick_6">
     <g id="line2d_6">
      <g>
       <use xlink:href="#md2b9946ae5" x="253.648341" y="228.96" style="stroke: #000000; stroke-width: 0.8"/>
      </g>
     </g>
     <g id="text_6">
      <!-- 1.50 -->
      <g transform="translate(242.515528 243.558437) scale(0.1 -0.1)">
       <use xlink:href="#DejaVuSans-31"/>
       <use xlink:href="#DejaVuSans-2e" transform="translate(63.623047 0)"/>
       <use xlink:href="#DejaVuSans-35" transform="translate(95.410156 0)"/>
       <use xlink:href="#DejaVuSans-30" transform="translate(159.033203 0)"/>
      </g>
     </g>
    </g>
    <g id="xtick_7">
     <g id="line2d_7">
      <g>
       <use xlink:href="#md2b9946ae5" x="290.885744" y="228.96" style="stroke: #000000; stroke-width: 0.8"/>
      </g>
     </g>
     <g id="text_7">
      <!-- 1.75 -->
      <g transform="translate(279.752931 243.558437) scale(0.1 -0.1)">
       <use xlink:href="#DejaVuSans-31"/>
       <use xlink:href="#DejaVuSans-2e" transform="translate(63.623047 0)"/>
       <use xlink:href="#DejaVuSans-37" transform="translate(95.410156 0)"/>
       <use xlink:href="#DejaVuSans-35" transform="translate(159.033203 0)"/>
      </g>
     </g>
    </g>
    <g id="xtick_8">
     <g id="line2d_8">
      <g>
       <use xlink:href="#md2b9946ae5" x="328.123147" y="228.96" style="stroke: #000000; stroke-width: 0.8"/>
      </g>
     </g>
     <g id="text_8">
      <!-- 2.00 -->
      <g transform="translate(316.990334 243.558437) scale(0.1 -0.1)">
       <use xlink:href="#DejaVuSans-32"/>
       <use xlink:href="#DejaVuSans-2e" transform="translate(63.623047 0)"/>
       <use xlink:href="#DejaVuSans-30" transform="translate(95.410156 0)"/>
       <use xlink:href="#DejaVuSans-30" transform="translate(159.033203 0)"/>
      </g>
     </g>
    </g>
    <g id="xtick_9">
     <g id="line2d_9">
      <g>
       <use xlink:href="#md2b9946ae5" x="365.360549" y="228.96" style="stroke: #000000; stroke-width: 0.8"/>
      </g>
     </g>
     <g id="text_9">
      <!-- 2.25 -->
      <g transform="translate(354.227737 243.558437) scale(0.1 -0.1)">
       <use xlink:href="#DejaVuSans-32"/>
       <use xlink:href="#DejaVuSans-2e" transform="translate(63.623047 0)"/>
       <use xlink:href="#DejaVuSans-32" transform="translate(95.410156 0)"/>
       <use xlink:href="#DejaVuSans-35" transform="translate(159.033203 0)"/>
      </g>
     </g>
    </g>
    <g id="text_10">
     <!-- dspacing [Å] -->
     <g transform="translate(195.68125 258.920937) scale(0.1 -0.1)">
      <defs>
       <path id="DejaVuSans-64" d="M 2906 2969 
L 2906 4863 
L 3481 4863 
L 3481 0 
L 2906 0 
L 2906 525 
Q 2725 213 2448 61 
Q 2172 -91 1784 -91 
Q 1150 -91 751 415 
Q 353 922 353 1747 
Q 353 2572 751 3078 
Q 1150 3584 1784 3584 
Q 2172 3584 2448 3432 
Q 2725 3281 2906 2969 
z
M 947 1747 
Q 947 1113 1208 752 
Q 1469 391 1925 391 
Q 2381 391 2643 752 
Q 2906 1113 2906 1747 
Q 2906 2381 2643 2742 
Q 2381 3103 1925 3103 
Q 1469 3103 1208 2742 
Q 947 2381 947 1747 
z
" transform="scale(0.015625)"/>
       <path id="DejaVuSans-73" d="M 2834 3397 
L 2834 2853 
Q 2591 2978 2328 3040 
Q 2066 3103 1784 3103 
Q 1356 3103 1142 2972 
Q 928 2841 928 2578 
Q 928 2378 1081 2264 
Q 1234 2150 1697 2047 
L 1894 2003 
Q 2506 1872 2764 1633 
Q 3022 1394 3022 966 
Q 3022 478 2636 193 
Q 2250 -91 1575 -91 
Q 1294 -91 989 -36 
Q 684 19 347 128 
L 347 722 
Q 666 556 975 473 
Q 1284 391 1588 391 
Q 1994 391 2212 530 
Q 2431 669 2431 922 
Q 2431 1156 2273 1281 
Q 2116 1406 1581 1522 
L 1381 1569 
Q 847 1681 609 1914 
Q 372 2147 372 2553 
Q 372 3047 722 3315 
Q 1072 3584 1716 3584 
Q 2034 3584 2315 3537 
Q 2597 3491 2834 3397 
z
" transform="scale(0.015625)"/>
       <path id="DejaVuSans-70" d="M 1159 525 
L 1159 -1331 
L 581 -1331 
L 581 3500 
L 1159 3500 
L 1159 2969 
Q 1341 3281 1617 3432 
Q 1894 3584 2278 3584 
Q 2916 3584 3314 3078 
Q 3713 2572 3713 1747 
Q 3713 922 3314 415 
Q 2916 -91 2278 -91 
Q 1894 -91 1617 61 
Q 1341 213 1159 525 
z
M 3116 1747 
Q 3116 2381 2855 2742 
Q 2594 3103 2138 3103 
Q 1681 3103 1420 2742 
Q 1159 2381 1159 1747 
Q 1159 1113 1420 752 
Q 1681 391 2138 391 
Q 2594 391 2855 752 
Q 3116 1113 3116 1747 
z
" transform="scale(0.015625)"/>
       <path id="DejaVuSans-61" d="M 2194 1759 
Q 1497 1759 1228 1600 
Q 959 1441 959 1056 
Q 959 750 1161 570 
Q 1363 391 1709 391 
Q 2188 391 2477 730 
Q 2766 1069 2766 1631 
L 2766 1759 
L 2194 1759 
z
M 3341 1997 
L 3341 0 
L 2766 0 
L 2766 531 
Q 2569 213 2275 61 
Q 1981 -91 1556 -91 
Q 1019 -91 701 211 
Q 384 513 384 1019 
Q 384 1609 779 1909 
Q 1175 2209 1959 2209 
L 2766 2209 
L 2766 2266 
Q 2766 2663 2505 2880 
Q 2244 3097 1772 3097 
Q 1472 3097 1187 3025 
Q 903 2953 641 2809 
L 641 3341 
Q 956 3463 1253 3523 
Q 1550 3584 1831 3584 
Q 2591 3584 2966 3190 
Q 3341 2797 3341 1997 
z
" transform="scale(0.015625)"/>
       <path id="DejaVuSans-63" d="M 3122 3366 
L 3122 2828 
Q 2878 2963 2633 3030 
Q 2388 3097 2138 3097 
Q 1578 3097 1268 2742 
Q 959 2388 959 1747 
Q 959 1106 1268 751 
Q 1578 397 2138 397 
Q 2388 397 2633 464 
Q 2878 531 3122 666 
L 3122 134 
Q 2881 22 2623 -34 
Q 2366 -91 2075 -91 
Q 1284 -91 818 406 
Q 353 903 353 1747 
Q 353 2603 823 3093 
Q 1294 3584 2113 3584 
Q 2378 3584 2631 3529 
Q 2884 3475 3122 3366 
z
" transform="scale(0.015625)"/>
       <path id="DejaVuSans-69" d="M 603 3500 
L 1178 3500 
L 1178 0 
L 603 0 
L 603 3500 
z
M 603 4863 
L 1178 4863 
L 1178 4134 
L 603 4134 
L 603 4863 
z
" transform="scale(0.015625)"/>
       <path id="DejaVuSans-6e" d="M 3513 2113 
L 3513 0 
L 2938 0 
L 2938 2094 
Q 2938 2591 2744 2837 
Q 2550 3084 2163 3084 
Q 1697 3084 1428 2787 
Q 1159 2491 1159 1978 
L 1159 0 
L 581 0 
L 581 3500 
L 1159 3500 
L 1159 2956 
Q 1366 3272 1645 3428 
Q 1925 3584 2291 3584 
Q 2894 3584 3203 3211 
Q 3513 2838 3513 2113 
z
" transform="scale(0.015625)"/>
       <path id="DejaVuSans-67" d="M 2906 1791 
Q 2906 2416 2648 2759 
Q 2391 3103 1925 3103 
Q 1463 3103 1205 2759 
Q 947 2416 947 1791 
Q 947 1169 1205 825 
Q 1463 481 1925 481 
Q 2391 481 2648 825 
Q 2906 1169 2906 1791 
z
M 3481 434 
Q 3481 -459 3084 -895 
Q 2688 -1331 1869 -1331 
Q 1566 -1331 1297 -1286 
Q 1028 -1241 775 -1147 
L 775 -588 
Q 1028 -725 1275 -790 
Q 1522 -856 1778 -856 
Q 2344 -856 2625 -561 
Q 2906 -266 2906 331 
L 2906 616 
Q 2728 306 2450 153 
Q 2172 0 1784 0 
Q 1141 0 747 490 
Q 353 981 353 1791 
Q 353 2603 747 3093 
Q 1141 3584 1784 3584 
Q 2172 3584 2450 3431 
Q 2728 3278 2906 2969 
L 2906 3500 
L 3481 3500 
L 3481 434 
z
" transform="scale(0.015625)"/>
       <path id="DejaVuSans-20" transform="scale(0.015625)"/>
       <path id="DejaVuSans-5b" d="M 550 4863 
L 1875 4863 
L 1875 4416 
L 1125 4416 
L 1125 -397 
L 1875 -397 
L 1875 -844 
L 550 -844 
L 550 4863 
z
" transform="scale(0.015625)"/>
       <path id="DejaVuSans-c5" d="M 2663 5081 
Q 2663 5278 2523 5417 
Q 2384 5556 2188 5556 
Q 1988 5556 1852 5420 
Q 1716 5284 1716 5081 
Q 1716 4884 1853 4746 
Q 1991 4609 2188 4609 
Q 2384 4609 2523 4746 
Q 2663 4884 2663 5081 
z
M 2188 4044 
L 1338 1722 
L 3041 1722 
L 2188 4044 
z
M 1716 4366 
Q 1525 4494 1428 4673 
Q 1331 4853 1331 5081 
Q 1331 5441 1579 5691 
Q 1828 5941 2188 5941 
Q 2544 5941 2795 5689 
Q 3047 5438 3047 5081 
Q 3047 4863 2948 4678 
Q 2850 4494 2663 4366 
L 4325 0 
L 3669 0 
L 3244 1197 
L 1141 1197 
L 716 0 
L 50 0 
L 1716 4366 
z
" transform="scale(0.015625)"/>
       <path id="DejaVuSans-5d" d="M 1947 4863 
L 1947 -844 
L 622 -844 
L 622 -397 
L 1369 -397 
L 1369 4416 
L 622 4416 
L 622 4863 
L 1947 4863 
z
" transform="scale(0.015625)"/>
      </defs>
      <use xlink:href="#DejaVuSans-64"/>
      <use xlink:href="#DejaVuSans-73" transform="translate(63.476562 0)"/>
      <use xlink:href="#DejaVuSans-70" transform="translate(115.576172 0)"/>
      <use xlink:href="#DejaVuSans-61" transform="translate(179.052734 0)"/>
      <use xlink:href="#DejaVuSans-63" transform="translate(240.332031 0)"/>
      <use xlink:href="#DejaVuSans-69" transform="translate(295.3125 0)"/>
      <use xlink:href="#DejaVuSans-6e" transform="translate(323.095703 0)"/>
      <use xlink:href="#DejaVuSans-67" transform="translate(386.474609 0)"/>
      <use xlink:href="#DejaVuSans-20" transform="translate(449.951172 0)"/>
      <use xlink:href="#DejaVuSans-5b" transform="translate(481.738281 0)"/>
      <use xlink:href="#DejaVuSans-c5" transform="translate(520.751953 0)"/>
      <use xlink:href="#DejaVuSans-5d" transform="translate(589.160156 0)"/>
     </g>
    </g>
   </g>
   <g id="matplotlib.axis_2">
    <g id="ytick_1">
     <g id="line2d_10">
      <defs>
       <path id="mde04217258" d="M 0 0 
L -3.5 0 
" style="stroke: #000000; stroke-width: 0.8"/>
      </defs>
      <g>
       <use xlink:href="#mde04217258" x="59.690625" y="217.220029" style="stroke: #000000; stroke-width: 0.8"/>
      </g>
     </g>
     <g id="text_11">
      <!-- 0 -->
      <g transform="translate(46.328125 221.019248) scale(0.1 -0.1)">
       <use xlink:href="#DejaVuSans-30"/>
      </g>
     </g>
    </g>
    <g id="ytick_2">
     <g id="line2d_11">
      <g>
       <use xlink:href="#mde04217258" x="59.690625" y="191.761548" style="stroke: #000000; stroke-width: 0.8"/>
      </g>
     </g>
     <g id="text_12">
      <!-- 2000 -->
      <g transform="translate(27.240625 195.560767) scale(0.1 -0.1)">
       <use xlink:href="#DejaVuSans-32"/>
       <use xlink:href="#DejaVuSans-30" transform="translate(63.623047 0)"/>
       <use xlink:href="#DejaVuSans-30" transform="translate(127.246094 0)"/>
       <use xlink:href="#DejaVuSans-30" transform="translate(190.869141 0)"/>
      </g>
     </g>
    </g>
    <g id="ytick_3">
     <g id="line2d_12">
      <g>
       <use xlink:href="#mde04217258" x="59.690625" y="166.303068" style="stroke: #000000; stroke-width: 0.8"/>
      </g>
     </g>
     <g id="text_13">
      <!-- 4000 -->
      <g transform="translate(27.240625 170.102286) scale(0.1 -0.1)">
       <defs>
        <path id="DejaVuSans-34" d="M 2419 4116 
L 825 1625 
L 2419 1625 
L 2419 4116 
z
M 2253 4666 
L 3047 4666 
L 3047 1625 
L 3713 1625 
L 3713 1100 
L 3047 1100 
L 3047 0 
L 2419 0 
L 2419 1100 
L 313 1100 
L 313 1709 
L 2253 4666 
z
" transform="scale(0.015625)"/>
       </defs>
       <use xlink:href="#DejaVuSans-34"/>
       <use xlink:href="#DejaVuSans-30" transform="translate(63.623047 0)"/>
       <use xlink:href="#DejaVuSans-30" transform="translate(127.246094 0)"/>
       <use xlink:href="#DejaVuSans-30" transform="translate(190.869141 0)"/>
      </g>
     </g>
    </g>
    <g id="ytick_4">
     <g id="line2d_13">
      <g>
       <use xlink:href="#mde04217258" x="59.690625" y="140.844587" style="stroke: #000000; stroke-width: 0.8"/>
      </g>
     </g>
     <g id="text_14">
      <!-- 6000 -->
      <g transform="translate(27.240625 144.643805) scale(0.1 -0.1)">
       <defs>
        <path id="DejaVuSans-36" d="M 2113 2584 
Q 1688 2584 1439 2293 
Q 1191 2003 1191 1497 
Q 1191 994 1439 701 
Q 1688 409 2113 409 
Q 2538 409 2786 701 
Q 3034 994 3034 1497 
Q 3034 2003 2786 2293 
Q 2538 2584 2113 2584 
z
M 3366 4563 
L 3366 3988 
Q 3128 4100 2886 4159 
Q 2644 4219 2406 4219 
Q 1781 4219 1451 3797 
Q 1122 3375 1075 2522 
Q 1259 2794 1537 2939 
Q 1816 3084 2150 3084 
Q 2853 3084 3261 2657 
Q 3669 2231 3669 1497 
Q 3669 778 3244 343 
Q 2819 -91 2113 -91 
Q 1303 -91 875 529 
Q 447 1150 447 2328 
Q 447 3434 972 4092 
Q 1497 4750 2381 4750 
Q 2619 4750 2861 4703 
Q 3103 4656 3366 4563 
z
" transform="scale(0.015625)"/>
       </defs>
       <use xlink:href="#DejaVuSans-36"/>
       <use xlink:href="#DejaVuSans-30" transform="translate(63.623047 0)"/>
       <use xlink:href="#DejaVuSans-30" transform="translate(127.246094 0)"/>
       <use xlink:href="#DejaVuSans-30" transform="translate(190.869141 0)"/>
      </g>
     </g>
    </g>
    <g id="ytick_5">
     <g id="line2d_14">
      <g>
       <use xlink:href="#mde04217258" x="59.690625" y="115.386106" style="stroke: #000000; stroke-width: 0.8"/>
      </g>
     </g>
     <g id="text_15">
      <!-- 8000 -->
      <g transform="translate(27.240625 119.185325) scale(0.1 -0.1)">
       <defs>
        <path id="DejaVuSans-38" d="M 2034 2216 
Q 1584 2216 1326 1975 
Q 1069 1734 1069 1313 
Q 1069 891 1326 650 
Q 1584 409 2034 409 
Q 2484 409 2743 651 
Q 3003 894 3003 1313 
Q 3003 1734 2745 1975 
Q 2488 2216 2034 2216 
z
M 1403 2484 
Q 997 2584 770 2862 
Q 544 3141 544 3541 
Q 544 4100 942 4425 
Q 1341 4750 2034 4750 
Q 2731 4750 3128 4425 
Q 3525 4100 3525 3541 
Q 3525 3141 3298 2862 
Q 3072 2584 2669 2484 
Q 3125 2378 3379 2068 
Q 3634 1759 3634 1313 
Q 3634 634 3220 271 
Q 2806 -91 2034 -91 
Q 1263 -91 848 271 
Q 434 634 434 1313 
Q 434 1759 690 2068 
Q 947 2378 1403 2484 
z
M 1172 3481 
Q 1172 3119 1398 2916 
Q 1625 2713 2034 2713 
Q 2441 2713 2670 2916 
Q 2900 3119 2900 3481 
Q 2900 3844 2670 4047 
Q 2441 4250 2034 4250 
Q 1625 4250 1398 4047 
Q 1172 3844 1172 3481 
z
" transform="scale(0.015625)"/>
       </defs>
       <use xlink:href="#DejaVuSans-38"/>
       <use xlink:href="#DejaVuSans-30" transform="translate(63.623047 0)"/>
       <use xlink:href="#DejaVuSans-30" transform="translate(127.246094 0)"/>
       <use xlink:href="#DejaVuSans-30" transform="translate(190.869141 0)"/>
      </g>
     </g>
    </g>
    <g id="ytick_6">
     <g id="line2d_15">
      <g>
       <use xlink:href="#mde04217258" x="59.690625" y="89.927625" style="stroke: #000000; stroke-width: 0.8"/>
      </g>
     </g>
     <g id="text_16">
      <!-- 10000 -->
      <g transform="translate(20.878125 93.726844) scale(0.1 -0.1)">
       <use xlink:href="#DejaVuSans-31"/>
       <use xlink:href="#DejaVuSans-30" transform="translate(63.623047 0)"/>
       <use xlink:href="#DejaVuSans-30" transform="translate(127.246094 0)"/>
       <use xlink:href="#DejaVuSans-30" transform="translate(190.869141 0)"/>
       <use xlink:href="#DejaVuSans-30" transform="translate(254.492188 0)"/>
      </g>
     </g>
    </g>
    <g id="ytick_7">
     <g id="line2d_16">
      <g>
       <use xlink:href="#mde04217258" x="59.690625" y="64.469144" style="stroke: #000000; stroke-width: 0.8"/>
      </g>
     </g>
     <g id="text_17">
      <!-- 12000 -->
      <g transform="translate(20.878125 68.268363) scale(0.1 -0.1)">
       <use xlink:href="#DejaVuSans-31"/>
       <use xlink:href="#DejaVuSans-32" transform="translate(63.623047 0)"/>
       <use xlink:href="#DejaVuSans-30" transform="translate(127.246094 0)"/>
       <use xlink:href="#DejaVuSans-30" transform="translate(190.869141 0)"/>
       <use xlink:href="#DejaVuSans-30" transform="translate(254.492188 0)"/>
      </g>
     </g>
    </g>
    <g id="ytick_8">
     <g id="line2d_17">
      <g>
       <use xlink:href="#mde04217258" x="59.690625" y="39.010663" style="stroke: #000000; stroke-width: 0.8"/>
      </g>
     </g>
     <g id="text_18">
      <!-- 14000 -->
      <g transform="translate(20.878125 42.809882) scale(0.1 -0.1)">
       <use xlink:href="#DejaVuSans-31"/>
       <use xlink:href="#DejaVuSans-34" transform="translate(63.623047 0)"/>
       <use xlink:href="#DejaVuSans-30" transform="translate(127.246094 0)"/>
       <use xlink:href="#DejaVuSans-30" transform="translate(190.869141 0)"/>
       <use xlink:href="#DejaVuSans-30" transform="translate(254.492188 0)"/>
      </g>
     </g>
    </g>
    <g id="ytick_9">
     <g id="line2d_18">
      <g>
       <use xlink:href="#mde04217258" x="59.690625" y="13.552183" style="stroke: #000000; stroke-width: 0.8"/>
      </g>
     </g>
     <g id="text_19">
      <!-- 16000 -->
      <g transform="translate(20.878125 17.351401) scale(0.1 -0.1)">
       <use xlink:href="#DejaVuSans-31"/>
       <use xlink:href="#DejaVuSans-36" transform="translate(63.623047 0)"/>
       <use xlink:href="#DejaVuSans-30" transform="translate(127.246094 0)"/>
       <use xlink:href="#DejaVuSans-30" transform="translate(190.869141 0)"/>
       <use xlink:href="#DejaVuSans-30" transform="translate(254.492188 0)"/>
      </g>
     </g>
    </g>
    <g id="text_20">
     <!-- [dimensionless] -->
     <g transform="translate(14.798438 157.557344) rotate(-90) scale(0.1 -0.1)">
      <defs>
       <path id="DejaVuSans-6d" d="M 3328 2828 
Q 3544 3216 3844 3400 
Q 4144 3584 4550 3584 
Q 5097 3584 5394 3201 
Q 5691 2819 5691 2113 
L 5691 0 
L 5113 0 
L 5113 2094 
Q 5113 2597 4934 2840 
Q 4756 3084 4391 3084 
Q 3944 3084 3684 2787 
Q 3425 2491 3425 1978 
L 3425 0 
L 2847 0 
L 2847 2094 
Q 2847 2600 2669 2842 
Q 2491 3084 2119 3084 
Q 1678 3084 1418 2786 
Q 1159 2488 1159 1978 
L 1159 0 
L 581 0 
L 581 3500 
L 1159 3500 
L 1159 2956 
Q 1356 3278 1631 3431 
Q 1906 3584 2284 3584 
Q 2666 3584 2933 3390 
Q 3200 3197 3328 2828 
z
" transform="scale(0.015625)"/>
       <path id="DejaVuSans-65" d="M 3597 1894 
L 3597 1613 
L 953 1613 
Q 991 1019 1311 708 
Q 1631 397 2203 397 
Q 2534 397 2845 478 
Q 3156 559 3463 722 
L 3463 178 
Q 3153 47 2828 -22 
Q 2503 -91 2169 -91 
Q 1331 -91 842 396 
Q 353 884 353 1716 
Q 353 2575 817 3079 
Q 1281 3584 2069 3584 
Q 2775 3584 3186 3129 
Q 3597 2675 3597 1894 
z
M 3022 2063 
Q 3016 2534 2758 2815 
Q 2500 3097 2075 3097 
Q 1594 3097 1305 2825 
Q 1016 2553 972 2059 
L 3022 2063 
z
" transform="scale(0.015625)"/>
       <path id="DejaVuSans-6f" d="M 1959 3097 
Q 1497 3097 1228 2736 
Q 959 2375 959 1747 
Q 959 1119 1226 758 
Q 1494 397 1959 397 
Q 2419 397 2687 759 
Q 2956 1122 2956 1747 
Q 2956 2369 2687 2733 
Q 2419 3097 1959 3097 
z
M 1959 3584 
Q 2709 3584 3137 3096 
Q 3566 2609 3566 1747 
Q 3566 888 3137 398 
Q 2709 -91 1959 -91 
Q 1206 -91 779 398 
Q 353 888 353 1747 
Q 353 2609 779 3096 
Q 1206 3584 1959 3584 
z
" transform="scale(0.015625)"/>
       <path id="DejaVuSans-6c" d="M 603 4863 
L 1178 4863 
L 1178 0 
L 603 0 
L 603 4863 
z
" transform="scale(0.015625)"/>
      </defs>
      <use xlink:href="#DejaVuSans-5b"/>
      <use xlink:href="#DejaVuSans-64" transform="translate(39.013672 0)"/>
      <use xlink:href="#DejaVuSans-69" transform="translate(102.490234 0)"/>
      <use xlink:href="#DejaVuSans-6d" transform="translate(130.273438 0)"/>
      <use xlink:href="#DejaVuSans-65" transform="translate(227.685547 0)"/>
      <use xlink:href="#DejaVuSans-6e" transform="translate(289.208984 0)"/>
      <use xlink:href="#DejaVuSans-73" transform="translate(352.587891 0)"/>
      <use xlink:href="#DejaVuSans-69" transform="translate(404.6875 0)"/>
      <use xlink:href="#DejaVuSans-6f" transform="translate(432.470703 0)"/>
      <use xlink:href="#DejaVuSans-6e" transform="translate(493.652344 0)"/>
      <use xlink:href="#DejaVuSans-6c" transform="translate(557.03125 0)"/>
      <use xlink:href="#DejaVuSans-65" transform="translate(584.814453 0)"/>
      <use xlink:href="#DejaVuSans-73" transform="translate(646.337891 0)"/>
      <use xlink:href="#DejaVuSans-73" transform="translate(698.4375 0)"/>
      <use xlink:href="#DejaVuSans-5d" transform="translate(750.537109 0)"/>
     </g>
    </g>
   </g>
   <g id="line2d_19">
    <path d="M 74.908807 217.657811 
L 76.430625 217.657811 
L 76.430625 218.09304 
L 80.99608 218.145974 
L 80.99608 218.373694 
L 82.517898 218.373694 
L 82.517898 218.15665 
L 84.039716 218.15665 
L 84.039716 218.038256 
L 85.561534 218.038256 
L 85.561534 218.178803 
L 93.170625 218.235118 
L 93.170625 217.746042 
L 97.73608 217.714487 
L 97.73608 217.512148 
L 99.257898 217.512148 
L 99.257898 217.633198 
L 102.301534 217.636256 
L 102.301534 217.384843 
L 103.823352 217.384843 
L 103.823352 217.087309 
L 105.34517 217.087309 
L 105.34517 211.380424 
L 106.866989 211.380424 
L 106.866989 209.994244 
L 108.388807 209.994244 
L 108.388807 210.515153 
L 109.910625 210.515153 
L 109.910625 202.390756 
L 111.432443 202.390756 
L 111.432443 207.144977 
L 112.954261 207.144977 
L 112.954261 215.843349 
L 114.47608 215.843349 
L 114.47608 217.005249 
L 117.519716 217.022492 
L 117.519716 214.22738 
L 119.041534 214.22738 
L 119.041534 205.820329 
L 120.563352 205.820329 
L 120.563352 209.173402 
L 122.08517 209.173402 
L 122.08517 209.395353 
L 123.606989 209.395353 
L 123.606989 201.644341 
L 125.128807 201.644341 
L 125.128807 210.114135 
L 126.650625 210.114135 
L 126.650625 215.98597 
L 128.172443 215.98597 
L 128.172443 216.265886 
L 129.694261 216.265886 
L 129.694261 210.752898 
L 131.21608 210.752898 
L 131.21608 188.73935 
L 132.737898 188.73935 
L 132.737898 192.358212 
L 134.259716 192.358212 
L 134.259716 211.486223 
L 135.781534 211.486223 
L 135.781534 215.545176 
L 137.303352 215.545176 
L 137.303352 216.654312 
L 138.82517 216.654312 
L 138.82517 215.7995 
L 140.346989 215.7995 
L 140.346989 216.289699 
L 141.868807 216.289699 
L 141.868807 216.068724 
L 143.390625 216.068724 
L 143.390625 215.738834 
L 144.912443 215.738834 
L 144.912443 216.126811 
L 147.95608 216.084751 
L 147.95608 215.757581 
L 149.477898 215.757581 
L 149.477898 208.144903 
L 150.999716 208.144903 
L 150.999716 191.963084 
L 152.521534 191.963084 
L 152.521534 196.786626 
L 154.043352 196.786626 
L 154.043352 212.72913 
L 155.56517 212.72913 
L 155.56517 215.733632 
L 157.086989 215.733632 
L 157.086989 216.177433 
L 160.130625 216.165769 
L 160.130625 210.475267 
L 161.652443 210.475267 
L 161.652443 188.388002 
L 163.174261 188.388002 
L 163.174261 187.092823 
L 164.69608 187.092823 
L 164.69608 209.885042 
L 166.217898 209.885042 
L 166.217898 215.275223 
L 167.739716 215.275223 
L 167.739716 216.010818 
L 170.783352 216.044673 
L 170.783352 216.21901 
L 172.30517 216.21901 
L 172.30517 216.649273 
L 175.348807 216.66425 
L 175.348807 216.476694 
L 178.392443 216.457683 
L 178.392443 216.318282 
L 179.914261 216.318282 
L 179.914261 213.173698 
L 181.43608 213.173698 
L 181.43608 189.971772 
L 182.957898 189.971772 
L 182.957898 165.473099 
L 184.479716 165.473099 
L 184.479716 192.977054 
L 186.001534 192.977054 
L 186.001534 211.866868 
L 187.523352 211.866868 
L 187.523352 204.68335 
L 189.04517 204.68335 
L 189.04517 170.695354 
L 190.566989 170.695354 
L 190.566989 173.6471 
L 192.088807 173.6471 
L 192.088807 207.845771 
L 193.610625 207.845771 
L 193.610625 214.301045 
L 195.132443 214.301045 
L 195.132443 213.790077 
L 196.654261 213.790077 
L 196.654261 215.171429 
L 198.17608 215.171429 
L 198.17608 217.684852 
L 199.697898 217.684852 
L 199.697898 217.877967 
L 201.219716 217.877967 
L 201.219716 214.04181 
L 202.741534 214.04181 
L 202.741534 210.984441 
L 204.263352 210.984441 
L 204.263352 217.380013 
L 205.78517 217.380013 
L 205.78517 218.036681 
L 207.306989 218.036681 
L 207.306989 218.254491 
L 210.350625 218.332213 
L 210.350625 218.754836 
L 211.872443 218.754836 
L 211.872443 218.317016 
L 213.394261 218.317016 
L 213.394261 218.511875 
L 216.437898 218.467603 
L 216.437898 218.25384 
L 217.959716 218.25384 
L 217.959716 218.431664 
L 221.003352 218.342925 
L 221.003352 218.189454 
L 222.52517 218.189454 
L 222.52517 217.949913 
L 224.046989 217.949913 
L 224.046989 217.647511 
L 225.568807 217.647511 
L 225.568807 217.236127 
L 227.090625 217.236127 
L 227.090625 217.017066 
L 228.612443 217.017066 
L 228.612443 216.637024 
L 231.65608 216.694681 
L 231.65608 216.279765 
L 233.177898 216.279765 
L 233.177898 215.974423 
L 236.221534 215.891186 
L 236.221534 215.634681 
L 237.743352 215.634681 
L 237.743352 215.464834 
L 239.26517 215.464834 
L 239.26517 214.993934 
L 242.308807 214.904474 
L 242.308807 214.639242 
L 243.830625 214.639242 
L 243.830625 214.260945 
L 245.352443 214.260945 
L 245.352443 213.691521 
L 246.874261 213.691521 
L 246.874261 214.687619 
L 248.39608 214.687619 
L 248.39608 213.722243 
L 249.917898 213.722243 
L 249.917898 214.270448 
L 251.439716 214.270448 
L 251.439716 214.79145 
L 252.961534 214.79145 
L 252.961534 215.15363 
L 254.483352 215.15363 
L 254.483352 215.555489 
L 256.00517 215.555489 
L 256.00517 215.826664 
L 259.048807 215.81283 
L 259.048807 215.662609 
L 260.570625 215.662609 
L 260.570625 215.534502 
L 262.092443 215.534502 
L 262.092443 216.117963 
L 263.614261 216.117963 
L 263.614261 215.885769 
L 265.13608 215.885769 
L 265.13608 216.217049 
L 266.657898 216.217049 
L 266.657898 216.356723 
L 268.179716 216.356723 
L 268.179716 216.526945 
L 269.701534 216.526945 
L 269.701534 216.403825 
L 274.266989 216.370143 
L 274.266989 216.516436 
L 275.788807 216.516436 
L 275.788807 216.780362 
L 278.832443 216.711774 
L 278.832443 216.6616 
L 281.87608 216.611831 
L 281.87608 216.497255 
L 286.441534 216.500749 
L 286.441534 216.684607 
L 292.528807 216.608736 
L 292.528807 216.48275 
L 294.050625 216.48275 
L 294.050625 216.744313 
L 297.094261 216.773464 
L 297.094261 216.936691 
L 298.61608 216.936691 
L 298.61608 217.147886 
L 301.659716 217.114298 
L 301.659716 216.859813 
L 306.22517 216.76128 
L 306.22517 216.692063 
L 307.746989 216.692063 
L 307.746989 216.547302 
L 309.268807 216.547302 
L 309.268807 216.793458 
L 310.790625 216.793458 
L 310.790625 216.647388 
L 312.312443 216.647388 
L 312.312443 216.464949 
L 315.35608 216.540215 
L 315.35608 216.720467 
L 316.877898 216.720467 
L 316.877898 216.267548 
L 321.443352 216.21356 
L 321.443352 216.565238 
L 322.96517 216.565238 
L 322.96517 216.106877 
L 324.486989 216.106877 
L 324.486989 215.091771 
L 326.008807 215.091771 
L 326.008807 214.928565 
L 327.530625 214.928565 
L 327.530625 213.546507 
L 329.052443 213.546507 
L 329.052443 211.289388 
L 330.574261 211.289388 
L 330.574261 206.04512 
L 332.09608 206.04512 
L 332.09608 192.593633 
L 333.617898 192.593633 
L 333.617898 151.20014 
L 335.139716 151.20014 
L 335.139716 33.968916 
L 336.661534 33.968916 
L 336.661534 17.86913 
L 338.183352 17.86913 
L 338.183352 136.608332 
L 339.70517 136.608332 
L 339.70517 186.873993 
L 341.226989 186.873993 
L 341.226989 200.133381 
L 342.748807 200.133381 
L 342.748807 208.028387 
L 344.270625 208.028387 
L 344.270625 212.335315 
L 345.792443 212.335315 
L 345.792443 213.809544 
L 347.314261 213.809544 
L 347.314261 215.661121 
L 348.83608 215.661121 
L 348.83608 216.146139 
L 350.357898 216.146139 
L 350.357898 216.423293 
L 351.879716 216.423293 
L 351.879716 216.733211 
L 357.966989 216.658149 
L 357.966989 216.531658 
L 359.488807 216.531658 
L 359.488807 215.842038 
L 361.010625 215.842038 
L 361.010625 215.622377 
L 362.532443 215.622377 
L 362.532443 215.952554 
L 364.054261 215.952554 
L 364.054261 216.593028 
L 365.57608 216.593028 
L 365.57608 216.87288 
L 368.619716 216.831778 
L 368.619716 217.123782 
L 370.141534 217.123782 
L 370.141534 216.834871 
L 371.663352 216.834871 
L 371.663352 217.018463 
L 379.272443 217.078394 
L 379.272443 217.078394 
" clip-path="url(#pc10efb8d92)" style="fill: none; stroke: #1f77b4; stroke-width: 1.5; stroke-linecap: square"/>
   </g>
   <g id="LineCollection_1">
    <path d="M 75.669716 217.726278 
L 75.669716 217.589345 
" clip-path="url(#pc10efb8d92)" style="fill: none; stroke: #1f77b4; stroke-width: 1.5"/>
    <path d="M 77.191534 218.202705 
L 77.191534 217.983376 
" clip-path="url(#pc10efb8d92)" style="fill: none; stroke: #1f77b4; stroke-width: 1.5"/>
    <path d="M 78.713352 218.158918 
L 78.713352 217.940364 
" clip-path="url(#pc10efb8d92)" style="fill: none; stroke: #1f77b4; stroke-width: 1.5"/>
    <path d="M 80.23517 218.254908 
L 80.23517 218.03704 
" clip-path="url(#pc10efb8d92)" style="fill: none; stroke: #1f77b4; stroke-width: 1.5"/>
    <path d="M 81.756989 218.495885 
L 81.756989 218.251503 
" clip-path="url(#pc10efb8d92)" style="fill: none; stroke: #1f77b4; stroke-width: 1.5"/>
    <path d="M 83.278807 218.261787 
L 83.278807 218.051513 
" clip-path="url(#pc10efb8d92)" style="fill: none; stroke: #1f77b4; stroke-width: 1.5"/>
    <path d="M 84.800625 218.14468 
L 84.800625 217.931833 
" clip-path="url(#pc10efb8d92)" style="fill: none; stroke: #1f77b4; stroke-width: 1.5"/>
    <path d="M 86.322443 218.308943 
L 86.322443 218.048664 
" clip-path="url(#pc10efb8d92)" style="fill: none; stroke: #1f77b4; stroke-width: 1.5"/>
    <path d="M 87.844261 218.276737 
L 87.844261 218.001757 
" clip-path="url(#pc10efb8d92)" style="fill: none; stroke: #1f77b4; stroke-width: 1.5"/>
    <path d="M 89.36608 218.297204 
L 89.36608 218.023856 
" clip-path="url(#pc10efb8d92)" style="fill: none; stroke: #1f77b4; stroke-width: 1.5"/>
    <path d="M 90.887898 218.27026 
L 90.887898 217.989108 
" clip-path="url(#pc10efb8d92)" style="fill: none; stroke: #1f77b4; stroke-width: 1.5"/>
    <path d="M 92.409716 218.369436 
L 92.409716 218.1008 
" clip-path="url(#pc10efb8d92)" style="fill: none; stroke: #1f77b4; stroke-width: 1.5"/>
    <path d="M 93.931534 217.878508 
L 93.931534 217.613575 
" clip-path="url(#pc10efb8d92)" style="fill: none; stroke: #1f77b4; stroke-width: 1.5"/>
    <path d="M 95.453352 217.924533 
L 95.453352 217.619143 
" clip-path="url(#pc10efb8d92)" style="fill: none; stroke: #1f77b4; stroke-width: 1.5"/>
    <path d="M 96.97517 217.854036 
L 96.97517 217.574937 
" clip-path="url(#pc10efb8d92)" style="fill: none; stroke: #1f77b4; stroke-width: 1.5"/>
    <path d="M 98.496989 217.671434 
L 98.496989 217.352862 
" clip-path="url(#pc10efb8d92)" style="fill: none; stroke: #1f77b4; stroke-width: 1.5"/>
    <path d="M 100.018807 217.790047 
L 100.018807 217.476349 
" clip-path="url(#pc10efb8d92)" style="fill: none; stroke: #1f77b4; stroke-width: 1.5"/>
    <path d="M 101.540625 217.789485 
L 101.540625 217.483027 
" clip-path="url(#pc10efb8d92)" style="fill: none; stroke: #1f77b4; stroke-width: 1.5"/>
    <path d="M 103.062443 217.525206 
L 103.062443 217.24448 
" clip-path="url(#pc10efb8d92)" style="fill: none; stroke: #1f77b4; stroke-width: 1.5"/>
    <path d="M 104.584261 217.232128 
L 104.584261 216.94249 
" clip-path="url(#pc10efb8d92)" style="fill: none; stroke: #1f77b4; stroke-width: 1.5"/>
    <path d="M 106.10608 211.620677 
L 106.10608 211.14017 
" clip-path="url(#pc10efb8d92)" style="fill: none; stroke: #1f77b4; stroke-width: 1.5"/>
    <path d="M 107.627898 210.24709 
L 107.627898 209.741398 
" clip-path="url(#pc10efb8d92)" style="fill: none; stroke: #1f77b4; stroke-width: 1.5"/>
    <path d="M 109.149716 210.754525 
L 109.149716 210.275781 
" clip-path="url(#pc10efb8d92)" style="fill: none; stroke: #1f77b4; stroke-width: 1.5"/>
    <path d="M 110.671534 202.695621 
L 110.671534 202.08589 
" clip-path="url(#pc10efb8d92)" style="fill: none; stroke: #1f77b4; stroke-width: 1.5"/>
    <path d="M 112.193352 207.416313 
L 112.193352 206.873642 
" clip-path="url(#pc10efb8d92)" style="fill: none; stroke: #1f77b4; stroke-width: 1.5"/>
    <path d="M 113.71517 216.024636 
L 113.71517 215.662061 
" clip-path="url(#pc10efb8d92)" style="fill: none; stroke: #1f77b4; stroke-width: 1.5"/>
    <path d="M 115.236989 217.15351 
L 115.236989 216.856988 
" clip-path="url(#pc10efb8d92)" style="fill: none; stroke: #1f77b4; stroke-width: 1.5"/>
    <path d="M 116.758807 217.167008 
L 116.758807 216.877976 
" clip-path="url(#pc10efb8d92)" style="fill: none; stroke: #1f77b4; stroke-width: 1.5"/>
    <path d="M 118.280625 214.407027 
L 118.280625 214.047733 
" clip-path="url(#pc10efb8d92)" style="fill: none; stroke: #1f77b4; stroke-width: 1.5"/>
    <path d="M 119.802443 206.103876 
L 119.802443 205.536782 
" clip-path="url(#pc10efb8d92)" style="fill: none; stroke: #1f77b4; stroke-width: 1.5"/>
    <path d="M 121.324261 209.417441 
L 121.324261 208.929364 
" clip-path="url(#pc10efb8d92)" style="fill: none; stroke: #1f77b4; stroke-width: 1.5"/>
    <path d="M 122.84608 209.631141 
L 122.84608 209.159565 
" clip-path="url(#pc10efb8d92)" style="fill: none; stroke: #1f77b4; stroke-width: 1.5"/>
    <path d="M 124.367898 201.9608 
L 124.367898 201.327882 
" clip-path="url(#pc10efb8d92)" style="fill: none; stroke: #1f77b4; stroke-width: 1.5"/>
    <path d="M 125.889716 210.362211 
L 125.889716 209.866058 
" clip-path="url(#pc10efb8d92)" style="fill: none; stroke: #1f77b4; stroke-width: 1.5"/>
    <path d="M 127.411534 216.168689 
L 127.411534 215.803251 
" clip-path="url(#pc10efb8d92)" style="fill: none; stroke: #1f77b4; stroke-width: 1.5"/>
    <path d="M 128.933352 216.414593 
L 128.933352 216.11718 
" clip-path="url(#pc10efb8d92)" style="fill: none; stroke: #1f77b4; stroke-width: 1.5"/>
    <path d="M 130.45517 210.971462 
L 130.45517 210.534334 
" clip-path="url(#pc10efb8d92)" style="fill: none; stroke: #1f77b4; stroke-width: 1.5"/>
    <path d="M 131.976989 189.128325 
L 131.976989 188.350375 
" clip-path="url(#pc10efb8d92)" style="fill: none; stroke: #1f77b4; stroke-width: 1.5"/>
    <path d="M 133.498807 192.701832 
L 133.498807 192.014592 
" clip-path="url(#pc10efb8d92)" style="fill: none; stroke: #1f77b4; stroke-width: 1.5"/>
    <path d="M 135.020625 211.70068 
L 135.020625 211.271766 
" clip-path="url(#pc10efb8d92)" style="fill: none; stroke: #1f77b4; stroke-width: 1.5"/>
    <path d="M 136.542443 215.71801 
L 136.542443 215.372341 
" clip-path="url(#pc10efb8d92)" style="fill: none; stroke: #1f77b4; stroke-width: 1.5"/>
    <path d="M 138.064261 216.808113 
L 138.064261 216.500511 
" clip-path="url(#pc10efb8d92)" style="fill: none; stroke: #1f77b4; stroke-width: 1.5"/>
    <path d="M 139.58608 215.956613 
L 139.58608 215.642388 
" clip-path="url(#pc10efb8d92)" style="fill: none; stroke: #1f77b4; stroke-width: 1.5"/>
    <path d="M 141.107898 216.445551 
L 141.107898 216.133846 
" clip-path="url(#pc10efb8d92)" style="fill: none; stroke: #1f77b4; stroke-width: 1.5"/>
    <path d="M 142.629716 216.224644 
L 142.629716 215.912804 
" clip-path="url(#pc10efb8d92)" style="fill: none; stroke: #1f77b4; stroke-width: 1.5"/>
    <path d="M 144.151534 215.884487 
L 144.151534 215.59318 
" clip-path="url(#pc10efb8d92)" style="fill: none; stroke: #1f77b4; stroke-width: 1.5"/>
    <path d="M 145.673352 216.273182 
L 145.673352 215.980441 
" clip-path="url(#pc10efb8d92)" style="fill: none; stroke: #1f77b4; stroke-width: 1.5"/>
    <path d="M 147.19517 216.232348 
L 147.19517 215.937155 
" clip-path="url(#pc10efb8d92)" style="fill: none; stroke: #1f77b4; stroke-width: 1.5"/>
    <path d="M 148.716989 215.911181 
L 148.716989 215.603981 
" clip-path="url(#pc10efb8d92)" style="fill: none; stroke: #1f77b4; stroke-width: 1.5"/>
    <path d="M 150.238807 208.381332 
L 150.238807 207.908475 
" clip-path="url(#pc10efb8d92)" style="fill: none; stroke: #1f77b4; stroke-width: 1.5"/>
    <path d="M 151.760625 192.278757 
L 151.760625 191.647412 
" clip-path="url(#pc10efb8d92)" style="fill: none; stroke: #1f77b4; stroke-width: 1.5"/>
    <path d="M 153.282443 197.080859 
L 153.282443 196.492393 
" clip-path="url(#pc10efb8d92)" style="fill: none; stroke: #1f77b4; stroke-width: 1.5"/>
    <path d="M 154.804261 212.924901 
L 154.804261 212.533359 
" clip-path="url(#pc10efb8d92)" style="fill: none; stroke: #1f77b4; stroke-width: 1.5"/>
    <path d="M 156.32608 215.882421 
L 156.32608 215.584842 
" clip-path="url(#pc10efb8d92)" style="fill: none; stroke: #1f77b4; stroke-width: 1.5"/>
    <path d="M 157.847898 216.311718 
L 157.847898 216.043148 
" clip-path="url(#pc10efb8d92)" style="fill: none; stroke: #1f77b4; stroke-width: 1.5"/>
    <path d="M 159.369716 216.314601 
L 159.369716 216.016938 
" clip-path="url(#pc10efb8d92)" style="fill: none; stroke: #1f77b4; stroke-width: 1.5"/>
    <path d="M 160.891534 210.675877 
L 160.891534 210.274657 
" clip-path="url(#pc10efb8d92)" style="fill: none; stroke: #1f77b4; stroke-width: 1.5"/>
    <path d="M 162.413352 188.68687 
L 162.413352 188.089133 
" clip-path="url(#pc10efb8d92)" style="fill: none; stroke: #1f77b4; stroke-width: 1.5"/>
    <path d="M 163.93517 187.440197 
L 163.93517 186.745449 
" clip-path="url(#pc10efb8d92)" style="fill: none; stroke: #1f77b4; stroke-width: 1.5"/>
    <path d="M 165.456989 210.101345 
L 165.456989 209.66874 
" clip-path="url(#pc10efb8d92)" style="fill: none; stroke: #1f77b4; stroke-width: 1.5"/>
    <path d="M 166.978807 215.424243 
L 166.978807 215.126204 
" clip-path="url(#pc10efb8d92)" style="fill: none; stroke: #1f77b4; stroke-width: 1.5"/>
    <path d="M 168.500625 216.164242 
L 168.500625 215.857395 
" clip-path="url(#pc10efb8d92)" style="fill: none; stroke: #1f77b4; stroke-width: 1.5"/>
    <path d="M 170.022443 216.202235 
L 170.022443 215.887112 
" clip-path="url(#pc10efb8d92)" style="fill: none; stroke: #1f77b4; stroke-width: 1.5"/>
    <path d="M 171.544261 216.369161 
L 171.544261 216.068859 
" clip-path="url(#pc10efb8d92)" style="fill: none; stroke: #1f77b4; stroke-width: 1.5"/>
    <path d="M 173.06608 216.789792 
L 173.06608 216.508754 
" clip-path="url(#pc10efb8d92)" style="fill: none; stroke: #1f77b4; stroke-width: 1.5"/>
    <path d="M 174.587898 216.807741 
L 174.587898 216.520759 
" clip-path="url(#pc10efb8d92)" style="fill: none; stroke: #1f77b4; stroke-width: 1.5"/>
    <path d="M 176.109716 216.609834 
L 176.109716 216.343554 
" clip-path="url(#pc10efb8d92)" style="fill: none; stroke: #1f77b4; stroke-width: 1.5"/>
    <path d="M 177.631534 216.580173 
L 177.631534 216.335194 
" clip-path="url(#pc10efb8d92)" style="fill: none; stroke: #1f77b4; stroke-width: 1.5"/>
    <path d="M 179.153352 216.466527 
L 179.153352 216.170036 
" clip-path="url(#pc10efb8d92)" style="fill: none; stroke: #1f77b4; stroke-width: 1.5"/>
    <path d="M 180.67517 213.353475 
L 180.67517 212.993921 
" clip-path="url(#pc10efb8d92)" style="fill: none; stroke: #1f77b4; stroke-width: 1.5"/>
    <path d="M 182.196989 190.30333 
L 182.196989 189.640213 
" clip-path="url(#pc10efb8d92)" style="fill: none; stroke: #1f77b4; stroke-width: 1.5"/>
    <path d="M 183.718807 165.933695 
L 183.718807 165.012503 
" clip-path="url(#pc10efb8d92)" style="fill: none; stroke: #1f77b4; stroke-width: 1.5"/>
    <path d="M 185.240625 193.270936 
L 185.240625 192.683172 
" clip-path="url(#pc10efb8d92)" style="fill: none; stroke: #1f77b4; stroke-width: 1.5"/>
    <path d="M 186.762443 212.076018 
L 186.762443 211.657718 
" clip-path="url(#pc10efb8d92)" style="fill: none; stroke: #1f77b4; stroke-width: 1.5"/>
    <path d="M 188.284261 204.922428 
L 188.284261 204.444271 
" clip-path="url(#pc10efb8d92)" style="fill: none; stroke: #1f77b4; stroke-width: 1.5"/>
    <path d="M 189.80608 171.084565 
L 189.80608 170.306142 
" clip-path="url(#pc10efb8d92)" style="fill: none; stroke: #1f77b4; stroke-width: 1.5"/>
    <path d="M 191.327898 173.995735 
L 191.327898 173.298465 
" clip-path="url(#pc10efb8d92)" style="fill: none; stroke: #1f77b4; stroke-width: 1.5"/>
    <path d="M 192.849716 208.081622 
L 192.849716 207.60992 
" clip-path="url(#pc10efb8d92)" style="fill: none; stroke: #1f77b4; stroke-width: 1.5"/>
    <path d="M 194.371534 214.508227 
L 194.371534 214.093863 
" clip-path="url(#pc10efb8d92)" style="fill: none; stroke: #1f77b4; stroke-width: 1.5"/>
    <path d="M 195.893352 213.992487 
L 195.893352 213.587667 
" clip-path="url(#pc10efb8d92)" style="fill: none; stroke: #1f77b4; stroke-width: 1.5"/>
    <path d="M 197.41517 215.33455 
L 197.41517 215.008308 
" clip-path="url(#pc10efb8d92)" style="fill: none; stroke: #1f77b4; stroke-width: 1.5"/>
    <path d="M 198.936989 217.801506 
L 198.936989 217.568199 
" clip-path="url(#pc10efb8d92)" style="fill: none; stroke: #1f77b4; stroke-width: 1.5"/>
    <path d="M 200.458807 217.987825 
L 200.458807 217.768109 
" clip-path="url(#pc10efb8d92)" style="fill: none; stroke: #1f77b4; stroke-width: 1.5"/>
    <path d="M 201.980625 214.22754 
L 201.980625 213.856079 
" clip-path="url(#pc10efb8d92)" style="fill: none; stroke: #1f77b4; stroke-width: 1.5"/>
    <path d="M 203.502443 211.147256 
L 203.502443 210.821627 
" clip-path="url(#pc10efb8d92)" style="fill: none; stroke: #1f77b4; stroke-width: 1.5"/>
    <path d="M 205.024261 217.502115 
L 205.024261 217.257912 
" clip-path="url(#pc10efb8d92)" style="fill: none; stroke: #1f77b4; stroke-width: 1.5"/>
    <path d="M 206.54608 218.160205 
L 206.54608 217.913157 
" clip-path="url(#pc10efb8d92)" style="fill: none; stroke: #1f77b4; stroke-width: 1.5"/>
    <path d="M 208.067898 218.37572 
L 208.067898 218.133261 
" clip-path="url(#pc10efb8d92)" style="fill: none; stroke: #1f77b4; stroke-width: 1.5"/>
    <path d="M 209.589716 218.4558 
L 209.589716 218.208626 
" clip-path="url(#pc10efb8d92)" style="fill: none; stroke: #1f77b4; stroke-width: 1.5"/>
    <path d="M 211.111534 218.88 
L 211.111534 218.629671 
" clip-path="url(#pc10efb8d92)" style="fill: none; stroke: #1f77b4; stroke-width: 1.5"/>
    <path d="M 212.633352 218.443795 
L 212.633352 218.190237 
" clip-path="url(#pc10efb8d92)" style="fill: none; stroke: #1f77b4; stroke-width: 1.5"/>
    <path d="M 214.15517 218.618069 
L 214.15517 218.405681 
" clip-path="url(#pc10efb8d92)" style="fill: none; stroke: #1f77b4; stroke-width: 1.5"/>
    <path d="M 215.676989 218.57612 
L 215.676989 218.359085 
" clip-path="url(#pc10efb8d92)" style="fill: none; stroke: #1f77b4; stroke-width: 1.5"/>
    <path d="M 217.198807 218.377131 
L 217.198807 218.13055 
" clip-path="url(#pc10efb8d92)" style="fill: none; stroke: #1f77b4; stroke-width: 1.5"/>
    <path d="M 218.720625 218.552436 
L 218.720625 218.310892 
" clip-path="url(#pc10efb8d92)" style="fill: none; stroke: #1f77b4; stroke-width: 1.5"/>
    <path d="M 220.242443 218.473734 
L 220.242443 218.212116 
" clip-path="url(#pc10efb8d92)" style="fill: none; stroke: #1f77b4; stroke-width: 1.5"/>
    <path d="M 221.764261 218.305039 
L 221.764261 218.07387 
" clip-path="url(#pc10efb8d92)" style="fill: none; stroke: #1f77b4; stroke-width: 1.5"/>
    <path d="M 223.28608 218.068984 
L 223.28608 217.830841 
" clip-path="url(#pc10efb8d92)" style="fill: none; stroke: #1f77b4; stroke-width: 1.5"/>
    <path d="M 224.807898 217.753529 
L 224.807898 217.541493 
" clip-path="url(#pc10efb8d92)" style="fill: none; stroke: #1f77b4; stroke-width: 1.5"/>
    <path d="M 226.329716 217.363004 
L 226.329716 217.109249 
" clip-path="url(#pc10efb8d92)" style="fill: none; stroke: #1f77b4; stroke-width: 1.5"/>
    <path d="M 227.851534 217.151686 
L 227.851534 216.882446 
" clip-path="url(#pc10efb8d92)" style="fill: none; stroke: #1f77b4; stroke-width: 1.5"/>
    <path d="M 229.373352 216.762356 
L 229.373352 216.511693 
" clip-path="url(#pc10efb8d92)" style="fill: none; stroke: #1f77b4; stroke-width: 1.5"/>
    <path d="M 230.89517 216.822387 
L 230.89517 216.566975 
" clip-path="url(#pc10efb8d92)" style="fill: none; stroke: #1f77b4; stroke-width: 1.5"/>
    <path d="M 232.416989 216.402114 
L 232.416989 216.157417 
" clip-path="url(#pc10efb8d92)" style="fill: none; stroke: #1f77b4; stroke-width: 1.5"/>
    <path d="M 233.938807 216.102303 
L 233.938807 215.846544 
" clip-path="url(#pc10efb8d92)" style="fill: none; stroke: #1f77b4; stroke-width: 1.5"/>
    <path d="M 235.460625 216.037493 
L 235.460625 215.744878 
" clip-path="url(#pc10efb8d92)" style="fill: none; stroke: #1f77b4; stroke-width: 1.5"/>
    <path d="M 236.982443 215.775728 
L 236.982443 215.493634 
" clip-path="url(#pc10efb8d92)" style="fill: none; stroke: #1f77b4; stroke-width: 1.5"/>
    <path d="M 238.504261 215.593321 
L 238.504261 215.336346 
" clip-path="url(#pc10efb8d92)" style="fill: none; stroke: #1f77b4; stroke-width: 1.5"/>
    <path d="M 240.02608 215.140969 
L 240.02608 214.846899 
" clip-path="url(#pc10efb8d92)" style="fill: none; stroke: #1f77b4; stroke-width: 1.5"/>
    <path d="M 241.547898 215.061369 
L 241.547898 214.747578 
" clip-path="url(#pc10efb8d92)" style="fill: none; stroke: #1f77b4; stroke-width: 1.5"/>
    <path d="M 243.069716 214.781013 
L 243.069716 214.497472 
" clip-path="url(#pc10efb8d92)" style="fill: none; stroke: #1f77b4; stroke-width: 1.5"/>
    <path d="M 244.591534 214.431349 
L 244.591534 214.09054 
" clip-path="url(#pc10efb8d92)" style="fill: none; stroke: #1f77b4; stroke-width: 1.5"/>
    <path d="M 246.113352 213.883686 
L 246.113352 213.499355 
" clip-path="url(#pc10efb8d92)" style="fill: none; stroke: #1f77b4; stroke-width: 1.5"/>
    <path d="M 247.63517 214.846221 
L 247.63517 214.529017 
" clip-path="url(#pc10efb8d92)" style="fill: none; stroke: #1f77b4; stroke-width: 1.5"/>
    <path d="M 249.156989 213.902396 
L 249.156989 213.542089 
" clip-path="url(#pc10efb8d92)" style="fill: none; stroke: #1f77b4; stroke-width: 1.5"/>
    <path d="M 250.678807 214.439292 
L 250.678807 214.101605 
" clip-path="url(#pc10efb8d92)" style="fill: none; stroke: #1f77b4; stroke-width: 1.5"/>
    <path d="M 252.200625 214.927192 
L 252.200625 214.655708 
" clip-path="url(#pc10efb8d92)" style="fill: none; stroke: #1f77b4; stroke-width: 1.5"/>
    <path d="M 253.722443 215.293246 
L 253.722443 215.014015 
" clip-path="url(#pc10efb8d92)" style="fill: none; stroke: #1f77b4; stroke-width: 1.5"/>
    <path d="M 255.244261 215.678934 
L 255.244261 215.432044 
" clip-path="url(#pc10efb8d92)" style="fill: none; stroke: #1f77b4; stroke-width: 1.5"/>
    <path d="M 256.76608 215.955206 
L 256.76608 215.698122 
" clip-path="url(#pc10efb8d92)" style="fill: none; stroke: #1f77b4; stroke-width: 1.5"/>
    <path d="M 258.287898 215.933338 
L 258.287898 215.692323 
" clip-path="url(#pc10efb8d92)" style="fill: none; stroke: #1f77b4; stroke-width: 1.5"/>
    <path d="M 259.809716 215.78583 
L 259.809716 215.539389 
" clip-path="url(#pc10efb8d92)" style="fill: none; stroke: #1f77b4; stroke-width: 1.5"/>
    <path d="M 261.331534 215.688105 
L 261.331534 215.380899 
" clip-path="url(#pc10efb8d92)" style="fill: none; stroke: #1f77b4; stroke-width: 1.5"/>
    <path d="M 262.853352 216.250899 
L 262.853352 215.985027 
" clip-path="url(#pc10efb8d92)" style="fill: none; stroke: #1f77b4; stroke-width: 1.5"/>
    <path d="M 264.37517 216.022689 
L 264.37517 215.74885 
" clip-path="url(#pc10efb8d92)" style="fill: none; stroke: #1f77b4; stroke-width: 1.5"/>
    <path d="M 265.896989 216.328923 
L 265.896989 216.105176 
" clip-path="url(#pc10efb8d92)" style="fill: none; stroke: #1f77b4; stroke-width: 1.5"/>
    <path d="M 267.418807 216.473695 
L 267.418807 216.239752 
" clip-path="url(#pc10efb8d92)" style="fill: none; stroke: #1f77b4; stroke-width: 1.5"/>
    <path d="M 268.940625 216.651909 
L 268.940625 216.40198 
" clip-path="url(#pc10efb8d92)" style="fill: none; stroke: #1f77b4; stroke-width: 1.5"/>
    <path d="M 270.462443 216.53106 
L 270.462443 216.276589 
" clip-path="url(#pc10efb8d92)" style="fill: none; stroke: #1f77b4; stroke-width: 1.5"/>
    <path d="M 271.984261 216.552958 
L 271.984261 216.306979 
" clip-path="url(#pc10efb8d92)" style="fill: none; stroke: #1f77b4; stroke-width: 1.5"/>
    <path d="M 273.50608 216.482531 
L 273.50608 216.257755 
" clip-path="url(#pc10efb8d92)" style="fill: none; stroke: #1f77b4; stroke-width: 1.5"/>
    <path d="M 275.027898 216.63157 
L 275.027898 216.401302 
" clip-path="url(#pc10efb8d92)" style="fill: none; stroke: #1f77b4; stroke-width: 1.5"/>
    <path d="M 276.549716 216.890285 
L 276.549716 216.670439 
" clip-path="url(#pc10efb8d92)" style="fill: none; stroke: #1f77b4; stroke-width: 1.5"/>
    <path d="M 278.071534 216.833857 
L 278.071534 216.589691 
" clip-path="url(#pc10efb8d92)" style="fill: none; stroke: #1f77b4; stroke-width: 1.5"/>
    <path d="M 279.593352 216.780186 
L 279.593352 216.543014 
" clip-path="url(#pc10efb8d92)" style="fill: none; stroke: #1f77b4; stroke-width: 1.5"/>
    <path d="M 281.11517 216.744614 
L 281.11517 216.479047 
" clip-path="url(#pc10efb8d92)" style="fill: none; stroke: #1f77b4; stroke-width: 1.5"/>
    <path d="M 282.636989 216.62895 
L 282.636989 216.36556 
" clip-path="url(#pc10efb8d92)" style="fill: none; stroke: #1f77b4; stroke-width: 1.5"/>
    <path d="M 284.158807 216.638303 
L 284.158807 216.390095 
" clip-path="url(#pc10efb8d92)" style="fill: none; stroke: #1f77b4; stroke-width: 1.5"/>
    <path d="M 285.680625 216.617284 
L 285.680625 216.384215 
" clip-path="url(#pc10efb8d92)" style="fill: none; stroke: #1f77b4; stroke-width: 1.5"/>
    <path d="M 287.202443 216.800828 
L 287.202443 216.568387 
" clip-path="url(#pc10efb8d92)" style="fill: none; stroke: #1f77b4; stroke-width: 1.5"/>
    <path d="M 288.724261 216.863412 
L 288.724261 216.629381 
" clip-path="url(#pc10efb8d92)" style="fill: none; stroke: #1f77b4; stroke-width: 1.5"/>
    <path d="M 290.24608 216.920101 
L 290.24608 216.669759 
" clip-path="url(#pc10efb8d92)" style="fill: none; stroke: #1f77b4; stroke-width: 1.5"/>
    <path d="M 291.767898 216.725904 
L 291.767898 216.491567 
" clip-path="url(#pc10efb8d92)" style="fill: none; stroke: #1f77b4; stroke-width: 1.5"/>
    <path d="M 293.289716 216.608962 
L 293.289716 216.356538 
" clip-path="url(#pc10efb8d92)" style="fill: none; stroke: #1f77b4; stroke-width: 1.5"/>
    <path d="M 294.811534 216.864519 
L 294.811534 216.624108 
" clip-path="url(#pc10efb8d92)" style="fill: none; stroke: #1f77b4; stroke-width: 1.5"/>
    <path d="M 296.333352 216.908651 
L 296.333352 216.638278 
" clip-path="url(#pc10efb8d92)" style="fill: none; stroke: #1f77b4; stroke-width: 1.5"/>
    <path d="M 297.85517 217.052465 
L 297.85517 216.820917 
" clip-path="url(#pc10efb8d92)" style="fill: none; stroke: #1f77b4; stroke-width: 1.5"/>
    <path d="M 299.376989 217.27657 
L 299.376989 217.019201 
" clip-path="url(#pc10efb8d92)" style="fill: none; stroke: #1f77b4; stroke-width: 1.5"/>
    <path d="M 300.898807 217.229859 
L 300.898807 216.998738 
" clip-path="url(#pc10efb8d92)" style="fill: none; stroke: #1f77b4; stroke-width: 1.5"/>
    <path d="M 302.420625 216.968349 
L 302.420625 216.751278 
" clip-path="url(#pc10efb8d92)" style="fill: none; stroke: #1f77b4; stroke-width: 1.5"/>
    <path d="M 303.942443 216.904636 
L 303.942443 216.640692 
" clip-path="url(#pc10efb8d92)" style="fill: none; stroke: #1f77b4; stroke-width: 1.5"/>
    <path d="M 305.464261 216.866692 
L 305.464261 216.655867 
" clip-path="url(#pc10efb8d92)" style="fill: none; stroke: #1f77b4; stroke-width: 1.5"/>
    <path d="M 306.98608 216.808089 
L 306.98608 216.576037 
" clip-path="url(#pc10efb8d92)" style="fill: none; stroke: #1f77b4; stroke-width: 1.5"/>
    <path d="M 308.507898 216.665278 
L 308.507898 216.429327 
" clip-path="url(#pc10efb8d92)" style="fill: none; stroke: #1f77b4; stroke-width: 1.5"/>
    <path d="M 310.029716 216.913966 
L 310.029716 216.67295 
" clip-path="url(#pc10efb8d92)" style="fill: none; stroke: #1f77b4; stroke-width: 1.5"/>
    <path d="M 311.551534 216.75942 
L 311.551534 216.535356 
" clip-path="url(#pc10efb8d92)" style="fill: none; stroke: #1f77b4; stroke-width: 1.5"/>
    <path d="M 313.073352 216.601434 
L 313.073352 216.328464 
" clip-path="url(#pc10efb8d92)" style="fill: none; stroke: #1f77b4; stroke-width: 1.5"/>
    <path d="M 314.59517 216.668272 
L 314.59517 216.412158 
" clip-path="url(#pc10efb8d92)" style="fill: none; stroke: #1f77b4; stroke-width: 1.5"/>
    <path d="M 316.116989 216.849114 
L 316.116989 216.59182 
" clip-path="url(#pc10efb8d92)" style="fill: none; stroke: #1f77b4; stroke-width: 1.5"/>
    <path d="M 317.638807 216.38623 
L 317.638807 216.148867 
" clip-path="url(#pc10efb8d92)" style="fill: none; stroke: #1f77b4; stroke-width: 1.5"/>
    <path d="M 319.160625 216.446448 
L 319.160625 216.203496 
" clip-path="url(#pc10efb8d92)" style="fill: none; stroke: #1f77b4; stroke-width: 1.5"/>
    <path d="M 320.682443 216.328231 
L 320.682443 216.098889 
" clip-path="url(#pc10efb8d92)" style="fill: none; stroke: #1f77b4; stroke-width: 1.5"/>
    <path d="M 322.204261 216.688237 
L 322.204261 216.442239 
" clip-path="url(#pc10efb8d92)" style="fill: none; stroke: #1f77b4; stroke-width: 1.5"/>
    <path d="M 323.72608 216.249452 
L 323.72608 215.964301 
" clip-path="url(#pc10efb8d92)" style="fill: none; stroke: #1f77b4; stroke-width: 1.5"/>
    <path d="M 325.247898 215.253079 
L 325.247898 214.930463 
" clip-path="url(#pc10efb8d92)" style="fill: none; stroke: #1f77b4; stroke-width: 1.5"/>
    <path d="M 326.769716 215.083863 
L 326.769716 214.773267 
" clip-path="url(#pc10efb8d92)" style="fill: none; stroke: #1f77b4; stroke-width: 1.5"/>
    <path d="M 328.291534 213.73069 
L 328.291534 213.362324 
" clip-path="url(#pc10efb8d92)" style="fill: none; stroke: #1f77b4; stroke-width: 1.5"/>
    <path d="M 329.813352 211.497946 
L 329.813352 211.080831 
" clip-path="url(#pc10efb8d92)" style="fill: none; stroke: #1f77b4; stroke-width: 1.5"/>
    <path d="M 331.33517 206.299826 
L 331.33517 205.790413 
" clip-path="url(#pc10efb8d92)" style="fill: none; stroke: #1f77b4; stroke-width: 1.5"/>
    <path d="M 332.856989 192.967019 
L 332.856989 192.220248 
" clip-path="url(#pc10efb8d92)" style="fill: none; stroke: #1f77b4; stroke-width: 1.5"/>
    <path d="M 334.378807 151.64789 
L 334.378807 150.75239 
" clip-path="url(#pc10efb8d92)" style="fill: none; stroke: #1f77b4; stroke-width: 1.5"/>
    <path d="M 335.900625 34.507046 
L 335.900625 33.430787 
" clip-path="url(#pc10efb8d92)" style="fill: none; stroke: #1f77b4; stroke-width: 1.5"/>
    <path d="M 337.422443 18.458259 
L 337.422443 17.28 
" clip-path="url(#pc10efb8d92)" style="fill: none; stroke: #1f77b4; stroke-width: 1.5"/>
    <path d="M 338.944261 137.030064 
L 338.944261 136.1866 
" clip-path="url(#pc10efb8d92)" style="fill: none; stroke: #1f77b4; stroke-width: 1.5"/>
    <path d="M 340.46608 187.233894 
L 340.46608 186.514093 
" clip-path="url(#pc10efb8d92)" style="fill: none; stroke: #1f77b4; stroke-width: 1.5"/>
    <path d="M 341.987898 200.476445 
L 341.987898 199.790317 
" clip-path="url(#pc10efb8d92)" style="fill: none; stroke: #1f77b4; stroke-width: 1.5"/>
    <path d="M 343.509716 208.298694 
L 343.509716 207.75808 
" clip-path="url(#pc10efb8d92)" style="fill: none; stroke: #1f77b4; stroke-width: 1.5"/>
    <path d="M 345.031534 212.540781 
L 345.031534 212.129849 
" clip-path="url(#pc10efb8d92)" style="fill: none; stroke: #1f77b4; stroke-width: 1.5"/>
    <path d="M 346.553352 214.005441 
L 346.553352 213.613646 
" clip-path="url(#pc10efb8d92)" style="fill: none; stroke: #1f77b4; stroke-width: 1.5"/>
    <path d="M 348.07517 215.813428 
L 348.07517 215.508813 
" clip-path="url(#pc10efb8d92)" style="fill: none; stroke: #1f77b4; stroke-width: 1.5"/>
    <path d="M 349.596989 216.290453 
L 349.596989 216.001824 
" clip-path="url(#pc10efb8d92)" style="fill: none; stroke: #1f77b4; stroke-width: 1.5"/>
    <path d="M 351.118807 216.543302 
L 351.118807 216.303283 
" clip-path="url(#pc10efb8d92)" style="fill: none; stroke: #1f77b4; stroke-width: 1.5"/>
    <path d="M 352.640625 216.857557 
L 352.640625 216.608864 
" clip-path="url(#pc10efb8d92)" style="fill: none; stroke: #1f77b4; stroke-width: 1.5"/>
    <path d="M 354.162443 216.749651 
L 354.162443 216.555153 
" clip-path="url(#pc10efb8d92)" style="fill: none; stroke: #1f77b4; stroke-width: 1.5"/>
    <path d="M 355.684261 216.805347 
L 355.684261 216.635386 
" clip-path="url(#pc10efb8d92)" style="fill: none; stroke: #1f77b4; stroke-width: 1.5"/>
    <path d="M 357.20608 216.768305 
L 357.20608 216.547994 
" clip-path="url(#pc10efb8d92)" style="fill: none; stroke: #1f77b4; stroke-width: 1.5"/>
    <path d="M 358.727898 216.63364 
L 358.727898 216.429676 
" clip-path="url(#pc10efb8d92)" style="fill: none; stroke: #1f77b4; stroke-width: 1.5"/>
    <path d="M 360.249716 215.940506 
L 360.249716 215.74357 
" clip-path="url(#pc10efb8d92)" style="fill: none; stroke: #1f77b4; stroke-width: 1.5"/>
    <path d="M 361.771534 215.740618 
L 361.771534 215.504136 
" clip-path="url(#pc10efb8d92)" style="fill: none; stroke: #1f77b4; stroke-width: 1.5"/>
    <path d="M 363.293352 216.064523 
L 363.293352 215.840585 
" clip-path="url(#pc10efb8d92)" style="fill: none; stroke: #1f77b4; stroke-width: 1.5"/>
    <path d="M 364.81517 216.691248 
L 364.81517 216.494809 
" clip-path="url(#pc10efb8d92)" style="fill: none; stroke: #1f77b4; stroke-width: 1.5"/>
    <path d="M 366.336989 216.97797 
L 366.336989 216.76779 
" clip-path="url(#pc10efb8d92)" style="fill: none; stroke: #1f77b4; stroke-width: 1.5"/>
    <path d="M 367.858807 216.92562 
L 367.858807 216.737935 
" clip-path="url(#pc10efb8d92)" style="fill: none; stroke: #1f77b4; stroke-width: 1.5"/>
    <path d="M 369.380625 217.21718 
L 369.380625 217.030385 
" clip-path="url(#pc10efb8d92)" style="fill: none; stroke: #1f77b4; stroke-width: 1.5"/>
    <path d="M 370.902443 216.934865 
L 370.902443 216.734877 
" clip-path="url(#pc10efb8d92)" style="fill: none; stroke: #1f77b4; stroke-width: 1.5"/>
    <path d="M 372.424261 217.118232 
L 372.424261 216.918695 
" clip-path="url(#pc10efb8d92)" style="fill: none; stroke: #1f77b4; stroke-width: 1.5"/>
    <path d="M 373.94608 217.185815 
L 373.94608 217.01206 
" clip-path="url(#pc10efb8d92)" style="fill: none; stroke: #1f77b4; stroke-width: 1.5"/>
    <path d="M 375.467898 217.088761 
L 375.467898 216.924549 
" clip-path="url(#pc10efb8d92)" style="fill: none; stroke: #1f77b4; stroke-width: 1.5"/>
    <path d="M 376.989716 217.147463 
L 376.989716 216.977979 
" clip-path="url(#pc10efb8d92)" style="fill: none; stroke: #1f77b4; stroke-width: 1.5"/>
    <path d="M 378.511534 217.172468 
L 378.511534 216.98432 
" clip-path="url(#pc10efb8d92)" style="fill: none; stroke: #1f77b4; stroke-width: 1.5"/>
   </g>
   <g id="patch_3">
    <path d="M 59.690625 228.96 
L 59.690625 7.2 
" style="fill: none; stroke: #000000; stroke-width: 0.8; stroke-linejoin: miter; stroke-linecap: square"/>
   </g>
   <g id="patch_4">
    <path d="M 394.490625 228.96 
L 394.490625 7.2 
" style="fill: none; stroke: #000000; stroke-width: 0.8; stroke-linejoin: miter; stroke-linecap: square"/>
   </g>
   <g id="patch_5">
    <path d="M 59.690625 228.96 
L 394.490625 228.96 
" style="fill: none; stroke: #000000; stroke-width: 0.8; stroke-linejoin: miter; stroke-linecap: square"/>
   </g>
   <g id="patch_6">
    <path d="M 59.690625 7.2 
L 394.490625 7.2 
" style="fill: none; stroke: #000000; stroke-width: 0.8; stroke-linejoin: miter; stroke-linecap: square"/>
   </g>
  </g>
 </g>
 <defs>
  <clipPath id="pc10efb8d92">
   <rect x="59.690625" y="7.2" width="334.8" height="221.76"/>
  </clipPath>
 </defs>
</svg>
