<?xml version="1.0" encoding="UTF-8" standalone="no"?>
<!DOCTYPE svg PUBLIC "-//W3C//DTD SVG 1.1//EN"
 "http://www.w3.org/Graphics/SVG/1.1/DTD/svg11.dtd">
<!-- Generated by graphviz version 2.43.0 (0)
 -->
<!-- Title: %3 Pages: 1 -->
<svg width="2772pt" height="350pt"
 viewBox="0.00 0.00 2772.00 349.93" xmlns="http://www.w3.org/2000/svg" xmlns:xlink="http://www.w3.org/1999/xlink">
<g id="graph0" class="graph" transform="scale(1 1) rotate(0) translate(4 345.93)">
<title>%3</title>
<polygon fill="white" stroke="transparent" points="-4,4 -4,-345.93 2768,-345.93 2768,4 -4,4"/>
<g id="clust1" class="cluster">
<title>cluster_AccumulatedProtonCharge</title>
<polygon fill="#f0f0ff" stroke="#f0f0ff" points="1683,-17.43 1683,-113.43 1922,-113.43 1922,-17.43 1683,-17.43"/>
<text text-anchor="start" x="1706" y="-99.23" font-family="Times,serif" font-size="14.00">AccumulatedProtonCharge</text>
<text text-anchor="start" x="1691" y="-87.63" font-family="Times,serif" font-size="11.00">via:</text>
<text text-anchor="start" x="1712" y="-87.63" font-family="Times,serif" font-style="italic" font-size="11.00">extract_accumulated_proton_charge</text>
</g>
<g id="clust4" class="cluster">
<title>cluster_CorrectedDetector</title>
<polygon fill="#f0f0ff" stroke="#f0f0ff" points="1431,-120.43 1431,-216.43 1625,-216.43 1625,-120.43 1431,-120.43"/>
<text text-anchor="start" x="1461" y="-202.23" font-family="Times,serif" font-size="14.00">CorrectedDetector</text>
<text text-anchor="start" x="1439" y="-190.63" font-family="Times,serif" font-size="11.00">via:</text>
<text text-anchor="start" x="1460" y="-190.63" font-family="Times,serif" font-style="italic" font-size="11.00">add_masks_and_corrections</text>
</g>
<g id="clust5" class="cluster">
<title>cluster_CorrectedDspacing</title>
<polygon fill="#f0f0ff" stroke="#f0f0ff" points="1683,-121.43 1683,-217.43 1921,-217.43 1921,-121.43 1683,-121.43"/>
<text text-anchor="start" x="1733" y="-203.23" font-family="Times,serif" font-size="14.00">CorrectedDspacing</text>
<text text-anchor="start" x="1691" y="-191.63" font-family="Times,serif" font-size="11.00">via:</text>
<text text-anchor="start" x="1712" y="-191.63" font-family="Times,serif" font-style="italic" font-size="11.00">focus_data_dspacing_and_two_theta</text>
</g>
<g id="clust8" class="cluster">
<title>cluster_ElasticCoordTransformGraph</title>
<polygon fill="#f0f0ff" stroke="#f0f0ff" points="742,-163.43 742,-259.43 1014,-259.43 1014,-163.43 742,-163.43"/>
<text text-anchor="start" x="772.5" y="-245.23" font-family="Times,serif" font-size="14.00">ElasticCoordTransformGraph</text>
<text text-anchor="start" x="750" y="-233.63" font-family="Times,serif" font-size="11.00">via:</text>
<text text-anchor="start" x="771" y="-233.63" font-family="Times,serif" font-style="italic" font-size="11.00">powder_coordinate_transformation_graph</text>
</g>
<g id="clust9" class="cluster">
<title>cluster_Filename</title>
<polygon fill="#f0f0ff" stroke="#f0f0ff" points="8,-169.43 8,-255.43 134,-255.43 134,-169.43 8,-169.43"/>
<text text-anchor="middle" x="71" y="-240.23" font-family="Times,serif" font-size="14.00">Filename</text>
</g>
<g id="clust10" class="cluster">
<title>cluster_FocussedDataDspacing</title>
<polygon fill="#f0f0ff" stroke="#f0f0ff" points="2255,-69.43 2255,-165.43 2437,-165.43 2437,-69.43 2255,-69.43"/>
<text text-anchor="start" x="2263" y="-151.23" font-family="Times,serif" font-size="14.00">FocussedDataDspacing</text>
<text text-anchor="start" x="2279" y="-139.63" font-family="Times,serif" font-size="11.00">via:</text>
<text text-anchor="start" x="2300" y="-139.63" font-family="Times,serif" font-style="italic" font-size="11.00">integrate_two_theta</text>
</g>
<g id="clust13" class="cluster">
<title>cluster_KeepEvents</title>
<polygon fill="#f0f0ff" stroke="#f0f0ff" points="1465,-224.43 1465,-310.43 1591,-310.43 1591,-224.43 1465,-224.43"/>
<text text-anchor="middle" x="1528" y="-295.23" font-family="Times,serif" font-size="14.00">KeepEvents</text>
</g>
<g id="clust16" class="cluster">
<title>cluster_NormalizedDspacing</title>
<polygon fill="#f0f0ff" stroke="#f0f0ff" points="1978,-69.43 1978,-165.43 2175,-165.43 2175,-69.43 1978,-69.43"/>
<text text-anchor="start" x="2002" y="-151.23" font-family="Times,serif" font-size="14.00">NormalizedDspacing</text>
<text text-anchor="start" x="1986" y="-139.63" font-family="Times,serif" font-size="11.00">via:</text>
<text text-anchor="start" x="2007" y="-139.63" font-family="Times,serif" font-style="italic" font-size="11.00">normalize_by_proton_charge</text>
</g>
<g id="clust17" class="cluster">
<title>cluster_Position</title>
<polygon fill="#f0f0ff" stroke="#f0f0ff" points="471,-147.43 471,-323.43 666,-323.43 666,-147.43 471,-147.43"/>
<text text-anchor="middle" x="568.5" y="-308.23" font-family="Times,serif" font-size="14.00">Position</text>
</g>
<g id="clust18" class="cluster">
<title>cluster_RawDataAndMetadata</title>
<polygon fill="#f0f0ff" stroke="#f0f0ff" points="208.5,-169.43 208.5,-265.43 385.5,-265.43 385.5,-169.43 208.5,-169.43"/>
<text text-anchor="start" x="216.5" y="-251.23" font-family="Times,serif" font-size="14.00">RawDataAndMetadata</text>
<text text-anchor="start" x="255" y="-239.63" font-family="Times,serif" font-size="11.00">via:</text>
<text text-anchor="start" x="276" y="-239.63" font-family="Times,serif" font-style="italic" font-size="11.00">pooch_load</text>
</g>
<g id="clust19" class="cluster">
<title>cluster_TofDetector</title>
<polygon fill="#f0f0ff" stroke="#f0f0ff" points="811,-17.43 811,-113.43 945,-113.43 945,-17.43 811,-17.43"/>
<text text-anchor="start" x="835.5" y="-99.23" font-family="Times,serif" font-size="14.00">TofDetector</text>
<text text-anchor="start" x="819" y="-87.63" font-family="Times,serif" font-size="11.00">via:</text>
<text text-anchor="start" x="840" y="-87.63" font-family="Times,serif" font-style="italic" font-size="11.00">extract_raw_data</text>
</g>
<g id="clust23" class="cluster">
<title>cluster_WavelengthDetector</title>
<polygon fill="#f0f0ff" stroke="#f0f0ff" points="1086,-120.43 1086,-216.43 1365,-216.43 1365,-120.43 1086,-120.43"/>
<text text-anchor="start" x="1152" y="-202.23" font-family="Times,serif" font-size="14.00">WavelengthDetector</text>
<text text-anchor="start" x="1094" y="-190.63" font-family="Times,serif" font-size="11.00">via:</text>
<text text-anchor="start" x="1115" y="-190.63" font-family="Times,serif" font-style="italic" font-size="11.00">add_scattering_coordinates_from_positions</text>
</g>
<!-- TofDetector[SampleRun] -->
<g id="node1" class="node">
<title>TofDetector[SampleRun]</title>
<polygon fill="none" stroke="black" points="925.5,-46.93 830.5,-46.93 830.5,-25.93 925.5,-25.93 925.5,-46.93"/>
<text text-anchor="start" x="838.5" y="-33.33" font-family="Times,serif" font-size="12.00">[SampleRun]</text>
</g>
<!-- AccumulatedProtonCharge[SampleRun] -->
<g id="node2" class="node">
<title>AccumulatedProtonCharge[SampleRun]</title>
<polygon fill="none" stroke="black" points="1849.5,-46.93 1754.5,-46.93 1754.5,-25.93 1849.5,-25.93 1849.5,-46.93"/>
<text text-anchor="start" x="1762.5" y="-33.33" font-family="Times,serif" font-size="12.00">[SampleRun]</text>
</g>
<!-- TofDetector[SampleRun]&#45;&gt;AccumulatedProtonCharge[SampleRun] -->
<g id="edge1" class="edge">
<title>TofDetector[SampleRun]:e&#45;&gt;AccumulatedProtonCharge[SampleRun]:w</title>
<path fill="none" stroke="black" d="M927,-36.43C1290.71,-36.43 1384.16,-36.43 1742.85,-36.43"/>
<polygon fill="black" stroke="black" points="1743,-39.93 1753,-36.43 1743,-32.93 1743,-39.93"/>
</g>
<!-- WavelengthDetector[SampleRun] -->
<g id="node8" class="node">
<title>WavelengthDetector[SampleRun]</title>
<polygon fill="none" stroke="black" points="1272.5,-149.93 1177.5,-149.93 1177.5,-128.93 1272.5,-128.93 1272.5,-149.93"/>
<text text-anchor="start" x="1185.5" y="-136.33" font-family="Times,serif" font-size="12.00">[SampleRun]</text>
</g>
<!-- TofDetector[SampleRun]&#45;&gt;WavelengthDetector[SampleRun] -->
<g id="edge40" class="edge">
<title>TofDetector[SampleRun]:e&#45;&gt;WavelengthDetector[SampleRun]:w</title>
<path fill="none" stroke="black" d="M927,-36.43C966.24,-36.43 978.58,-34.55 1014,-51.43 1052.38,-69.72 1048.58,-94.24 1086,-114.43 1119.39,-132.45 1132.25,-138.41 1165.92,-139.31"/>
<polygon fill="black" stroke="black" points="1165.96,-142.81 1176,-139.43 1166.04,-135.81 1165.96,-142.81"/>
</g>
<!-- NormalizedDspacing[SampleRun] -->
<g id="node31" class="node">
<title>NormalizedDspacing[SampleRun]</title>
<polygon fill="none" stroke="black" points="2123.5,-98.93 2028.5,-98.93 2028.5,-77.93 2123.5,-77.93 2123.5,-98.93"/>
<text text-anchor="start" x="2036.5" y="-85.33" font-family="Times,serif" font-size="12.00">[SampleRun]</text>
</g>
<!-- AccumulatedProtonCharge[SampleRun]&#45;&gt;NormalizedDspacing[SampleRun] -->
<g id="edge28" class="edge">
<title>AccumulatedProtonCharge[SampleRun]:e&#45;&gt;NormalizedDspacing[SampleRun]:w</title>
<path fill="none" stroke="black" d="M1851,-36.43C1883.25,-36.43 1890.95,-42.72 1922,-51.43 1966.2,-63.83 1976.17,-85.07 2016.89,-88.07"/>
<polygon fill="black" stroke="black" points="2016.88,-91.57 2027,-88.43 2017.13,-84.58 2016.88,-91.57"/>
</g>
<!-- TofDetector[VanadiumRun] -->
<g id="node3" class="node">
<title>TofDetector[VanadiumRun]</title>
<polygon fill="none" stroke="black" points="933,-71.93 823,-71.93 823,-50.93 933,-50.93 933,-71.93"/>
<text text-anchor="start" x="831" y="-58.33" font-family="Times,serif" font-size="12.00">[VanadiumRun]</text>
</g>
<!-- AccumulatedProtonCharge[VanadiumRun] -->
<g id="node4" class="node">
<title>AccumulatedProtonCharge[VanadiumRun]</title>
<polygon fill="none" stroke="black" points="1857,-71.93 1747,-71.93 1747,-50.93 1857,-50.93 1857,-71.93"/>
<text text-anchor="start" x="1755" y="-58.33" font-family="Times,serif" font-size="12.00">[VanadiumRun]</text>
</g>
<!-- TofDetector[VanadiumRun]&#45;&gt;AccumulatedProtonCharge[VanadiumRun] -->
<g id="edge2" class="edge">
<title>TofDetector[VanadiumRun]:e&#45;&gt;AccumulatedProtonCharge[VanadiumRun]:w</title>
<path fill="none" stroke="black" d="M934,-61.43C1291.45,-61.43 1383.37,-61.43 1735.76,-61.43"/>
<polygon fill="black" stroke="black" points="1736,-64.93 1746,-61.43 1736,-57.93 1736,-64.93"/>
</g>
<!-- WavelengthDetector[VanadiumRun] -->
<g id="node14" class="node">
<title>WavelengthDetector[VanadiumRun]</title>
<polygon fill="none" stroke="black" points="1280,-174.93 1170,-174.93 1170,-153.93 1280,-153.93 1280,-174.93"/>
<text text-anchor="start" x="1178" y="-161.33" font-family="Times,serif" font-size="12.00">[VanadiumRun]</text>
</g>
<!-- TofDetector[VanadiumRun]&#45;&gt;WavelengthDetector[VanadiumRun] -->
<g id="edge43" class="edge">
<title>TofDetector[VanadiumRun]:e&#45;&gt;WavelengthDetector[VanadiumRun]:w</title>
<path fill="none" stroke="black" d="M934,-61.43C1012.28,-61.43 1012.42,-123.7 1086,-150.43 1117.73,-161.95 1129.32,-164.08 1158.76,-164.38"/>
<polygon fill="black" stroke="black" points="1158.98,-167.89 1169,-164.43 1159.02,-160.89 1158.98,-167.89"/>
</g>
<!-- NormalizedDspacing[VanadiumRun] -->
<g id="node33" class="node">
<title>NormalizedDspacing[VanadiumRun]</title>
<polygon fill="none" stroke="black" points="2131,-123.93 2021,-123.93 2021,-102.93 2131,-102.93 2131,-123.93"/>
<text text-anchor="start" x="2029" y="-110.33" font-family="Times,serif" font-size="12.00">[VanadiumRun]</text>
</g>
<!-- AccumulatedProtonCharge[VanadiumRun]&#45;&gt;NormalizedDspacing[VanadiumRun] -->
<g id="edge30" class="edge">
<title>AccumulatedProtonCharge[VanadiumRun]:e&#45;&gt;NormalizedDspacing[VanadiumRun]:w</title>
<path fill="none" stroke="black" d="M1858,-61.43C1930.07,-61.43 1943.23,-108.67 2009.78,-113.1"/>
<polygon fill="black" stroke="black" points="2009.89,-116.6 2020,-113.43 2010.12,-109.61 2009.89,-116.6"/>
</g>
<!-- CalibrationFilename -->
<g id="node5" class="node">
<title>CalibrationFilename</title>
<polygon fill="none" stroke="black" points="649.5,-101.93 487.5,-101.93 487.5,-78.93 649.5,-78.93 649.5,-101.93"/>
<text text-anchor="middle" x="568.5" y="-86.73" font-family="Times,serif" font-size="14.00">CalibrationFilename</text>
</g>
<!-- CalibrationData -->
<g id="node6" class="node">
<title>CalibrationData</title>
<polygon fill="none" stroke="black" points="961,-154.93 795,-154.93 795,-121.93 961,-121.93 961,-154.93"/>
<text text-anchor="start" x="821" y="-140.73" font-family="Times,serif" font-size="14.00">CalibrationData</text>
<text text-anchor="start" x="803" y="-129.13" font-family="Times,serif" font-size="11.00">via:</text>
<text text-anchor="start" x="824" y="-129.13" font-family="Times,serif" font-style="italic" font-size="11.00">pooch_load_calibration</text>
</g>
<!-- CalibrationFilename&#45;&gt;CalibrationData -->
<g id="edge3" class="edge">
<title>CalibrationFilename:e&#45;&gt;CalibrationData:w</title>
<path fill="none" stroke="black" d="M650.5,-90.43C714.2,-90.43 725.64,-133.5 783.83,-138.04"/>
<polygon fill="black" stroke="black" points="783.87,-141.55 794,-138.43 784.14,-134.55 783.87,-141.55"/>
</g>
<!-- CalibrationData&#45;&gt;WavelengthDetector[SampleRun] -->
<g id="edge42" class="edge">
<title>CalibrationData:e&#45;&gt;WavelengthDetector[SampleRun]:w</title>
<path fill="none" stroke="black" stroke-width="2" d="M962,-138.43C1013.26,-138.43 1043.8,-138.72 1075.95,-138.99"/>
<polygon fill="black" stroke="black" stroke-width="2" points="1075.97,-142.49 1086,-139.07 1076.03,-135.49 1075.97,-142.49"/>
</g>
<!-- DetectorBankSizes -->
<g id="node7" class="node">
<title>DetectorBankSizes</title>
<polygon fill="none" stroke="black" points="670,-63.93 467,-63.93 467,-30.93 670,-30.93 670,-63.93"/>
<text text-anchor="start" x="500.5" y="-49.73" font-family="Times,serif" font-size="14.00">DetectorBankSizes</text>
<text text-anchor="start" x="475" y="-38.13" font-family="Times,serif" font-size="11.00">via:</text>
<text text-anchor="start" x="496" y="-38.13" font-family="Times,serif" font-style="italic" font-size="11.00">powgen_detector_dimensions</text>
</g>
<!-- DetectorBankSizes&#45;&gt;TofDetector[SampleRun] -->
<g id="edge38" class="edge">
<title>DetectorBankSizes:e&#45;&gt;TofDetector[SampleRun]:w</title>
<path fill="none" stroke="black" stroke-width="2" d="M670,-47.43C730.4,-47.43 751.9,-39.43 800.83,-37.08"/>
<polygon fill="black" stroke="black" stroke-width="2" points="801.14,-40.57 811,-36.68 800.87,-33.57 801.14,-40.57"/>
</g>
<!-- DetectorBankSizes&#45;&gt;CalibrationData -->
<g id="edge4" class="edge">
<title>DetectorBankSizes:e&#45;&gt;CalibrationData:w</title>
<path fill="none" stroke="black" d="M670,-47.43C713.71,-47.43 705.7,-90.08 742,-114.43 760,-126.51 766.59,-135.42 783.87,-137.8"/>
<polygon fill="black" stroke="black" points="783.8,-141.3 794,-138.43 784.24,-134.31 783.8,-141.3"/>
</g>
<!-- CorrectedDetector[SampleRun] -->
<g id="node9" class="node">
<title>CorrectedDetector[SampleRun]</title>
<polygon fill="none" stroke="black" points="1575.5,-149.93 1480.5,-149.93 1480.5,-128.93 1575.5,-128.93 1575.5,-149.93"/>
<text text-anchor="start" x="1488.5" y="-136.33" font-family="Times,serif" font-size="12.00">[SampleRun]</text>
</g>
<!-- WavelengthDetector[SampleRun]&#45;&gt;CorrectedDetector[SampleRun] -->
<g id="edge5" class="edge">
<title>WavelengthDetector[SampleRun]:e&#45;&gt;CorrectedDetector[SampleRun]:w</title>
<path fill="none" stroke="black" d="M1274,-139.43C1361.64,-139.43 1386.05,-139.43 1468.88,-139.43"/>
<polygon fill="black" stroke="black" points="1469,-142.93 1479,-139.43 1469,-135.93 1469,-142.93"/>
</g>
<!-- CorrectedDspacing[SampleRun] -->
<g id="node16" class="node">
<title>CorrectedDspacing[SampleRun]</title>
<polygon fill="none" stroke="black" points="1849.5,-150.93 1754.5,-150.93 1754.5,-129.93 1849.5,-129.93 1849.5,-150.93"/>
<text text-anchor="start" x="1762.5" y="-137.33" font-family="Times,serif" font-size="12.00">[SampleRun]</text>
</g>
<!-- CorrectedDetector[SampleRun]&#45;&gt;CorrectedDspacing[SampleRun] -->
<g id="edge11" class="edge">
<title>CorrectedDetector[SampleRun]:e&#45;&gt;CorrectedDspacing[SampleRun]:w</title>
<path fill="none" stroke="black" d="M1577,-139.43C1651.71,-139.43 1672.9,-140.34 1742.8,-140.42"/>
<polygon fill="black" stroke="black" points="1743,-143.92 1753,-140.43 1743,-136.92 1743,-143.92"/>
</g>
<!-- MaskedDetectorIDs -->
<g id="node10" class="node">
<title>MaskedDetectorIDs</title>
<polygon fill="none" stroke="black" points="1304,-274.93 1146,-274.93 1146,-251.93 1304,-251.93 1304,-274.93"/>
<text text-anchor="middle" x="1225" y="-259.73" font-family="Times,serif" font-size="14.00">MaskedDetectorIDs</text>
</g>
<!-- MaskedDetectorIDs&#45;&gt;CorrectedDetector[SampleRun] -->
<g id="edge6" class="edge">
<title>MaskedDetectorIDs:e&#45;&gt;CorrectedDetector[SampleRun]:w</title>
<path fill="none" stroke="black" stroke-width="2" d="M1305,-263.43C1332.49,-263.43 1342.34,-263.99 1365,-248.43 1404.12,-221.56 1391.92,-189.43 1423.13,-160.85"/>
<polygon fill="black" stroke="black" stroke-width="2" points="1425.46,-163.46 1431,-154.43 1421.04,-158.04 1425.46,-163.46"/>
</g>
<!-- TofMask -->
<g id="node11" class="node">
<title>TofMask</title>
<polygon fill="none" stroke="black" points="1263.5,-247.93 1186.5,-247.93 1186.5,-224.93 1263.5,-224.93 1263.5,-247.93"/>
<text text-anchor="middle" x="1225" y="-232.73" font-family="Times,serif" font-size="14.00">TofMask</text>
</g>
<!-- TofMask&#45;&gt;CorrectedDetector[SampleRun] -->
<g id="edge7" class="edge">
<title>TofMask:e&#45;&gt;CorrectedDetector[SampleRun]:w</title>
<path fill="none" stroke="black" stroke-width="2" d="M1265,-236.43C1310.24,-236.43 1324.77,-238.12 1365,-217.43 1397.82,-200.55 1396.63,-179.26 1422.49,-160.05"/>
<polygon fill="black" stroke="black" stroke-width="2" points="1424.59,-162.86 1431,-154.43 1420.73,-157.02 1424.59,-162.86"/>
</g>
<!-- WavelengthMask -->
<g id="node12" class="node">
<title>WavelengthMask</title>
<polygon fill="none" stroke="black" points="1294.5,-111.93 1155.5,-111.93 1155.5,-88.93 1294.5,-88.93 1294.5,-111.93"/>
<text text-anchor="middle" x="1225" y="-96.73" font-family="Times,serif" font-size="14.00">WavelengthMask</text>
</g>
<!-- WavelengthMask&#45;&gt;CorrectedDetector[SampleRun] -->
<g id="edge8" class="edge">
<title>WavelengthMask:e&#45;&gt;CorrectedDetector[SampleRun]:w</title>
<path fill="none" stroke="black" stroke-width="2" d="M1296,-100.43C1355.6,-100.43 1381.05,-120.46 1421.3,-131.81"/>
<polygon fill="black" stroke="black" stroke-width="2" points="1420.45,-135.21 1431,-134.29 1422.18,-128.42 1420.45,-135.21"/>
</g>
<!-- TwoThetaMask -->
<g id="node13" class="node">
<title>TwoThetaMask</title>
<polygon fill="none" stroke="black" points="1287.5,-84.93 1162.5,-84.93 1162.5,-61.93 1287.5,-61.93 1287.5,-84.93"/>
<text text-anchor="middle" x="1225" y="-69.73" font-family="Times,serif" font-size="14.00">TwoThetaMask</text>
</g>
<!-- TwoThetaMask&#45;&gt;CorrectedDetector[SampleRun] -->
<g id="edge9" class="edge">
<title>TwoThetaMask:e&#45;&gt;CorrectedDetector[SampleRun]:w</title>
<path fill="none" stroke="black" stroke-width="2" d="M1288,-73.43C1322.95,-73.43 1331.7,-78.8 1365,-89.43 1392.09,-98.08 1406.83,-111.04 1422.27,-121.6"/>
<polygon fill="black" stroke="black" stroke-width="2" points="1420.69,-124.75 1431,-127.18 1424.46,-118.85 1420.69,-124.75"/>
</g>
<!-- CorrectedDetector[VanadiumRun] -->
<g id="node15" class="node">
<title>CorrectedDetector[VanadiumRun]</title>
<polygon fill="none" stroke="black" points="1583,-174.93 1473,-174.93 1473,-153.93 1583,-153.93 1583,-174.93"/>
<text text-anchor="start" x="1481" y="-161.33" font-family="Times,serif" font-size="12.00">[VanadiumRun]</text>
</g>
<!-- WavelengthDetector[VanadiumRun]&#45;&gt;CorrectedDetector[VanadiumRun] -->
<g id="edge10" class="edge">
<title>WavelengthDetector[VanadiumRun]:e&#45;&gt;CorrectedDetector[VanadiumRun]:w</title>
<path fill="none" stroke="black" d="M1281,-164.43C1362.41,-164.43 1385.26,-164.43 1461.87,-164.43"/>
<polygon fill="black" stroke="black" points="1462,-167.93 1472,-164.43 1462,-160.93 1462,-167.93"/>
</g>
<!-- CorrectedDspacing[VanadiumRun] -->
<g id="node19" class="node">
<title>CorrectedDspacing[VanadiumRun]</title>
<polygon fill="none" stroke="black" points="1857,-175.93 1747,-175.93 1747,-154.93 1857,-154.93 1857,-175.93"/>
<text text-anchor="start" x="1755" y="-162.33" font-family="Times,serif" font-size="12.00">[VanadiumRun]</text>
</g>
<!-- CorrectedDetector[VanadiumRun]&#45;&gt;CorrectedDspacing[VanadiumRun] -->
<g id="edge14" class="edge">
<title>CorrectedDetector[VanadiumRun]:e&#45;&gt;CorrectedDspacing[VanadiumRun]:w</title>
<path fill="none" stroke="black" d="M1584,-164.43C1652.49,-164.43 1672.11,-165.33 1735.83,-165.42"/>
<polygon fill="black" stroke="black" points="1736,-168.92 1746,-165.43 1736,-161.92 1736,-168.92"/>
</g>
<!-- CorrectedDspacing[SampleRun]&#45;&gt;NormalizedDspacing[SampleRun] -->
<g id="edge27" class="edge">
<title>CorrectedDspacing[SampleRun]:e&#45;&gt;NormalizedDspacing[SampleRun]:w</title>
<path fill="none" stroke="black" d="M1851,-140.43C1929.06,-140.43 1944.2,-92.8 2016.86,-88.71"/>
<polygon fill="black" stroke="black" points="2017.1,-92.2 2027,-88.43 2016.91,-85.21 2017.1,-92.2"/>
</g>
<!-- DspacingBins -->
<g id="node17" class="node">
<title>DspacingBins</title>
<polygon fill="none" stroke="black" points="1585,-341.93 1471,-341.93 1471,-318.93 1585,-318.93 1585,-341.93"/>
<text text-anchor="middle" x="1528" y="-326.73" font-family="Times,serif" font-size="14.00">DspacingBins</text>
</g>
<!-- DspacingBins&#45;&gt;CorrectedDspacing[SampleRun] -->
<g id="edge12" class="edge">
<title>DspacingBins:e&#45;&gt;CorrectedDspacing[SampleRun]:w</title>
<path fill="none" stroke="black" stroke-width="2" d="M1586,-330.43C1671.45,-330.43 1620.13,-222.54 1675.68,-162.5"/>
<polygon fill="black" stroke="black" stroke-width="2" points="1678.24,-164.9 1683,-155.43 1673.38,-159.86 1678.24,-164.9"/>
</g>
<!-- KeepEvents[SampleRun] -->
<g id="node18" class="node">
<title>KeepEvents[SampleRun]</title>
<polygon fill="none" stroke="black" points="1575.5,-253.93 1480.5,-253.93 1480.5,-232.93 1575.5,-232.93 1575.5,-253.93"/>
<text text-anchor="start" x="1488.5" y="-240.33" font-family="Times,serif" font-size="12.00">[SampleRun]</text>
</g>
<!-- KeepEvents[SampleRun]&#45;&gt;CorrectedDspacing[SampleRun] -->
<g id="edge13" class="edge">
<title>KeepEvents[SampleRun]:e&#45;&gt;CorrectedDspacing[SampleRun]:w</title>
<path fill="none" stroke="black" d="M1577,-243.43C1638.23,-243.43 1629.71,-185.58 1683,-155.43 1707.55,-141.54 1718.59,-140.49 1742.95,-140.43"/>
<polygon fill="black" stroke="black" points="1743,-143.93 1753,-140.43 1743,-136.93 1743,-143.93"/>
</g>
<!-- CorrectedDspacing[VanadiumRun]&#45;&gt;NormalizedDspacing[VanadiumRun] -->
<g id="edge29" class="edge">
<title>CorrectedDspacing[VanadiumRun]:e&#45;&gt;NormalizedDspacing[VanadiumRun]:w</title>
<path fill="none" stroke="black" d="M1858,-165.43C1887.12,-165.43 1894.12,-159.83 1922,-151.43 1963.23,-139.01 1972.03,-117.19 2009.75,-113.86"/>
<polygon fill="black" stroke="black" points="2010.16,-117.35 2020,-113.43 2009.86,-110.35 2010.16,-117.35"/>
</g>
<!-- KeepEvents[VanadiumRun] -->
<g id="node20" class="node">
<title>KeepEvents[VanadiumRun]</title>
<polygon fill="none" stroke="black" points="1583,-278.93 1473,-278.93 1473,-257.93 1583,-257.93 1583,-278.93"/>
<text text-anchor="start" x="1481" y="-265.33" font-family="Times,serif" font-size="12.00">[VanadiumRun]</text>
</g>
<!-- KeepEvents[VanadiumRun]&#45;&gt;CorrectedDspacing[VanadiumRun] -->
<g id="edge15" class="edge">
<title>KeepEvents[VanadiumRun]:e&#45;&gt;CorrectedDspacing[VanadiumRun]:w</title>
<path fill="none" stroke="black" d="M1584,-268.43C1665.82,-268.43 1661.23,-173.71 1735.96,-165.94"/>
<polygon fill="black" stroke="black" points="1736.19,-169.43 1746,-165.43 1735.84,-162.44 1736.19,-169.43"/>
</g>
<!-- NeXusName[NXdetector] -->
<g id="node21" class="node">
<title>NeXusName[NXdetector]</title>
<polygon fill="none" stroke="black" points="395,-58.93 198,-58.93 198,-35.93 395,-35.93 395,-58.93"/>
<text text-anchor="middle" x="296.5" y="-43.73" font-family="Times,serif" font-size="14.00">NeXusName[NXdetector]</text>
</g>
<!-- NeXusName[NXdetector]&#45;&gt;DetectorBankSizes -->
<g id="edge16" class="edge">
<title>NeXusName[NXdetector]:e&#45;&gt;DetectorBankSizes:w</title>
<path fill="none" stroke="black" d="M395,-47.43C423.38,-47.43 432.88,-47.43 456.98,-47.43"/>
<polygon fill="black" stroke="black" points="457,-50.93 467,-47.43 457,-43.93 457,-50.93"/>
</g>
<!-- Position[NXsource, SampleRun] -->
<g id="node22" class="node">
<title>Position[NXsource, SampleRun]</title>
<polygon fill="none" stroke="black" points="649,-186.93 488,-186.93 488,-155.93 649,-155.93 649,-186.93"/>
<text text-anchor="start" x="496" y="-174.33" font-family="Times,serif" font-size="12.00">[NXsource, SampleRun]</text>
<text text-anchor="start" x="514" y="-163.13" font-family="Times,serif" font-size="11.00">via:</text>
<text text-anchor="start" x="535" y="-163.13" font-family="Times,serif" font-style="italic" font-size="11.00">source_position</text>
</g>
<!-- ElasticCoordTransformGraph[SampleRun] -->
<g id="node23" class="node">
<title>ElasticCoordTransformGraph[SampleRun]</title>
<polygon fill="none" stroke="black" points="925.5,-192.93 830.5,-192.93 830.5,-171.93 925.5,-171.93 925.5,-192.93"/>
<text text-anchor="start" x="838.5" y="-179.33" font-family="Times,serif" font-size="12.00">[SampleRun]</text>
</g>
<!-- Position[NXsource, SampleRun]&#45;&gt;ElasticCoordTransformGraph[SampleRun] -->
<g id="edge17" class="edge">
<title>Position[NXsource, SampleRun]:e&#45;&gt;ElasticCoordTransformGraph[SampleRun]:w</title>
<path fill="none" stroke="black" d="M650.5,-171.43C726.41,-171.43 747.64,-181.46 818.64,-182.37"/>
<polygon fill="black" stroke="black" points="818.98,-185.87 829,-182.43 819.02,-178.87 818.98,-185.87"/>
</g>
<!-- ElasticCoordTransformGraph[SampleRun]&#45;&gt;WavelengthDetector[SampleRun] -->
<g id="edge41" class="edge">
<title>ElasticCoordTransformGraph[SampleRun]:e&#45;&gt;WavelengthDetector[SampleRun]:w</title>
<path fill="none" stroke="black" d="M927,-182.43C1035.8,-182.43 1062.09,-142.08 1165.72,-139.55"/>
<polygon fill="black" stroke="black" points="1166.04,-143.05 1176,-139.43 1165.96,-136.05 1166.04,-143.05"/>
</g>
<!-- Position[NXsample, SampleRun] -->
<g id="node24" class="node">
<title>Position[NXsample, SampleRun]</title>
<polygon fill="none" stroke="black" points="650.5,-221.93 486.5,-221.93 486.5,-190.93 650.5,-190.93 650.5,-221.93"/>
<text text-anchor="start" x="494.5" y="-209.33" font-family="Times,serif" font-size="12.00">[NXsample, SampleRun]</text>
<text text-anchor="start" x="512.5" y="-198.13" font-family="Times,serif" font-size="11.00">via:</text>
<text text-anchor="start" x="533.5" y="-198.13" font-family="Times,serif" font-style="italic" font-size="11.00">sample_position</text>
</g>
<!-- Position[NXsample, SampleRun]&#45;&gt;ElasticCoordTransformGraph[SampleRun] -->
<g id="edge18" class="edge">
<title>Position[NXsample, SampleRun]:e&#45;&gt;ElasticCoordTransformGraph[SampleRun]:w</title>
<path fill="none" stroke="black" d="M651.5,-206.43C727.53,-206.43 747.63,-184.54 818.63,-182.57"/>
<polygon fill="black" stroke="black" points="819.05,-186.07 829,-182.43 818.95,-179.07 819.05,-186.07"/>
</g>
<!-- GravityVector -->
<g id="node25" class="node">
<title>GravityVector</title>
<polygon fill="none" stroke="black" points="645.5,-138.93 491.5,-138.93 491.5,-105.93 645.5,-105.93 645.5,-138.93"/>
<text text-anchor="start" x="518.5" y="-124.73" font-family="Times,serif" font-size="14.00">GravityVector</text>
<text text-anchor="start" x="499.5" y="-113.13" font-family="Times,serif" font-size="11.00">via:</text>
<text text-anchor="start" x="520.5" y="-113.13" font-family="Times,serif" font-style="italic" font-size="11.00">gravity_vector_neg_y</text>
</g>
<!-- GravityVector&#45;&gt;ElasticCoordTransformGraph[SampleRun] -->
<g id="edge19" class="edge">
<title>GravityVector:e&#45;&gt;ElasticCoordTransformGraph[SampleRun]:w</title>
<path fill="none" stroke="black" stroke-width="2" d="M646.5,-122.43C691.71,-122.43 699.03,-143.4 742,-157.43 744.41,-158.22 746.71,-159.01 748.9,-159.79"/>
<polygon fill="black" stroke="black" stroke-width="2" points="747.88,-163.15 758.47,-163.43 750.36,-156.6 747.88,-163.15"/>
</g>
<!-- Position[NXsource, VanadiumRun] -->
<g id="node26" class="node">
<title>Position[NXsource, VanadiumRun]</title>
<polygon fill="none" stroke="black" points="656.5,-256.93 480.5,-256.93 480.5,-225.93 656.5,-225.93 656.5,-256.93"/>
<text text-anchor="start" x="488.5" y="-244.33" font-family="Times,serif" font-size="12.00">[NXsource, VanadiumRun]</text>
<text text-anchor="start" x="514" y="-233.13" font-family="Times,serif" font-size="11.00">via:</text>
<text text-anchor="start" x="535" y="-233.13" font-family="Times,serif" font-style="italic" font-size="11.00">source_position</text>
</g>
<!-- ElasticCoordTransformGraph[VanadiumRun] -->
<g id="node27" class="node">
<title>ElasticCoordTransformGraph[VanadiumRun]</title>
<polygon fill="none" stroke="black" points="933,-217.93 823,-217.93 823,-196.93 933,-196.93 933,-217.93"/>
<text text-anchor="start" x="831" y="-204.33" font-family="Times,serif" font-size="12.00">[VanadiumRun]</text>
</g>
<!-- Position[NXsource, VanadiumRun]&#45;&gt;ElasticCoordTransformGraph[VanadiumRun] -->
<g id="edge20" class="edge">
<title>Position[NXsource, VanadiumRun]:e&#45;&gt;ElasticCoordTransformGraph[VanadiumRun]:w</title>
<path fill="none" stroke="black" d="M657.5,-241.43C728.66,-241.43 745.79,-210.54 811.88,-207.65"/>
<polygon fill="black" stroke="black" points="812.08,-211.14 822,-207.43 811.93,-204.15 812.08,-211.14"/>
</g>
<!-- ElasticCoordTransformGraph[VanadiumRun]&#45;&gt;WavelengthDetector[VanadiumRun] -->
<g id="edge44" class="edge">
<title>ElasticCoordTransformGraph[VanadiumRun]:e&#45;&gt;WavelengthDetector[VanadiumRun]:w</title>
<path fill="none" stroke="black" d="M934,-207.43C1036.76,-207.43 1061.28,-167.16 1158.99,-164.56"/>
<polygon fill="black" stroke="black" points="1159.05,-168.06 1169,-164.43 1158.95,-161.06 1159.05,-168.06"/>
</g>
<!-- Position[NXsample, VanadiumRun] -->
<g id="node28" class="node">
<title>Position[NXsample, VanadiumRun]</title>
<polygon fill="none" stroke="black" points="658,-291.93 479,-291.93 479,-260.93 658,-260.93 658,-291.93"/>
<text text-anchor="start" x="487" y="-279.33" font-family="Times,serif" font-size="12.00">[NXsample, VanadiumRun]</text>
<text text-anchor="start" x="512.5" y="-268.13" font-family="Times,serif" font-size="11.00">via:</text>
<text text-anchor="start" x="533.5" y="-268.13" font-family="Times,serif" font-style="italic" font-size="11.00">sample_position</text>
</g>
<!-- Position[NXsample, VanadiumRun]&#45;&gt;ElasticCoordTransformGraph[VanadiumRun] -->
<g id="edge21" class="edge">
<title>Position[NXsample, VanadiumRun]:e&#45;&gt;ElasticCoordTransformGraph[VanadiumRun]:w</title>
<path fill="none" stroke="black" d="M659.5,-276.43C734.44,-276.43 742.89,-213.49 811.85,-207.83"/>
<polygon fill="black" stroke="black" points="812.15,-211.33 822,-207.43 811.87,-204.33 812.15,-211.33"/>
</g>
<!-- Filename[SampleRun] -->
<g id="node29" class="node">
<title>Filename[SampleRun]</title>
<polygon fill="none" stroke="black" points="118.5,-198.93 23.5,-198.93 23.5,-177.93 118.5,-177.93 118.5,-198.93"/>
<text text-anchor="start" x="31.5" y="-185.33" font-family="Times,serif" font-size="12.00">[SampleRun]</text>
</g>
<!-- RawDataAndMetadata[SampleRun] -->
<g id="node37" class="node">
<title>RawDataAndMetadata[SampleRun]</title>
<polygon fill="none" stroke="black" points="344,-198.93 249,-198.93 249,-177.93 344,-177.93 344,-198.93"/>
<text text-anchor="start" x="257" y="-185.33" font-family="Times,serif" font-size="12.00">[SampleRun]</text>
</g>
<!-- Filename[SampleRun]&#45;&gt;RawDataAndMetadata[SampleRun] -->
<g id="edge35" class="edge">
<title>Filename[SampleRun]:e&#45;&gt;RawDataAndMetadata[SampleRun]:w</title>
<path fill="none" stroke="black" d="M120,-188.43C173.12,-188.43 188.9,-188.43 237.35,-188.43"/>
<polygon fill="black" stroke="black" points="237.5,-191.93 247.5,-188.43 237.5,-184.93 237.5,-191.93"/>
</g>
<!-- Filename[VanadiumRun] -->
<g id="node30" class="node">
<title>Filename[VanadiumRun]</title>
<polygon fill="none" stroke="black" points="126,-223.93 16,-223.93 16,-202.93 126,-202.93 126,-223.93"/>
<text text-anchor="start" x="24" y="-210.33" font-family="Times,serif" font-size="12.00">[VanadiumRun]</text>
</g>
<!-- RawDataAndMetadata[VanadiumRun] -->
<g id="node38" class="node">
<title>RawDataAndMetadata[VanadiumRun]</title>
<polygon fill="none" stroke="black" points="351.5,-223.93 241.5,-223.93 241.5,-202.93 351.5,-202.93 351.5,-223.93"/>
<text text-anchor="start" x="249.5" y="-210.33" font-family="Times,serif" font-size="12.00">[VanadiumRun]</text>
</g>
<!-- Filename[VanadiumRun]&#45;&gt;RawDataAndMetadata[VanadiumRun] -->
<g id="edge36" class="edge">
<title>Filename[VanadiumRun]:e&#45;&gt;RawDataAndMetadata[VanadiumRun]:w</title>
<path fill="none" stroke="black" d="M127,-213.43C173.9,-213.43 188.1,-213.43 230.39,-213.43"/>
<polygon fill="black" stroke="black" points="230.5,-216.93 240.5,-213.43 230.5,-209.93 230.5,-216.93"/>
</g>
<!-- FocussedDataDspacing[SampleRun] -->
<g id="node32" class="node">
<title>FocussedDataDspacing[SampleRun]</title>
<polygon fill="none" stroke="black" points="2393.5,-98.93 2298.5,-98.93 2298.5,-77.93 2393.5,-77.93 2393.5,-98.93"/>
<text text-anchor="start" x="2306.5" y="-85.33" font-family="Times,serif" font-size="12.00">[SampleRun]</text>
</g>
<!-- NormalizedDspacing[SampleRun]&#45;&gt;FocussedDataDspacing[SampleRun] -->
<g id="edge22" class="edge">
<title>NormalizedDspacing[SampleRun]:e&#45;&gt;FocussedDataDspacing[SampleRun]:w</title>
<path fill="none" stroke="black" d="M2125,-88.43C2197.86,-88.43 2218.64,-88.43 2286.62,-88.43"/>
<polygon fill="black" stroke="black" points="2287,-91.93 2297,-88.43 2287,-84.93 2287,-91.93"/>
</g>
<!-- IntensityDspacing[SampleRun] -->
<g id="node35" class="node">
<title>IntensityDspacing[SampleRun]</title>
<polygon fill="none" stroke="black" points="2764,-104.93 2525,-104.93 2525,-71.93 2764,-71.93 2764,-104.93"/>
<text text-anchor="start" x="2533" y="-90.73" font-family="Times,serif" font-size="14.00">IntensityDspacing[SampleRun]</text>
<text text-anchor="start" x="2539.5" y="-79.13" font-family="Times,serif" font-size="11.00">via:</text>
<text text-anchor="start" x="2560.5" y="-79.13" font-family="Times,serif" font-style="italic" font-size="11.00">normalize_by_vanadium_dspacing</text>
</g>
<!-- FocussedDataDspacing[SampleRun]&#45;&gt;IntensityDspacing[SampleRun] -->
<g id="edge24" class="edge">
<title>FocussedDataDspacing[SampleRun]:e&#45;&gt;IntensityDspacing[SampleRun]:w</title>
<path fill="none" stroke="black" d="M2395,-88.43C2449.28,-88.43 2465.31,-88.43 2514.96,-88.43"/>
<polygon fill="black" stroke="black" points="2515,-91.93 2525,-88.43 2515,-84.93 2515,-91.93"/>
</g>
<!-- FocussedDataDspacing[VanadiumRun] -->
<g id="node34" class="node">
<title>FocussedDataDspacing[VanadiumRun]</title>
<polygon fill="none" stroke="black" points="2401,-123.93 2291,-123.93 2291,-102.93 2401,-102.93 2401,-123.93"/>
<text text-anchor="start" x="2299" y="-110.33" font-family="Times,serif" font-size="12.00">[VanadiumRun]</text>
</g>
<!-- NormalizedDspacing[VanadiumRun]&#45;&gt;FocussedDataDspacing[VanadiumRun] -->
<g id="edge23" class="edge">
<title>NormalizedDspacing[VanadiumRun]:e&#45;&gt;FocussedDataDspacing[VanadiumRun]:w</title>
<path fill="none" stroke="black" d="M2132,-113.43C2198.66,-113.43 2217.86,-113.43 2279.7,-113.43"/>
<polygon fill="black" stroke="black" points="2280,-116.93 2290,-113.43 2280,-109.93 2280,-116.93"/>
</g>
<!-- FocussedDataDspacing[VanadiumRun]&#45;&gt;IntensityDspacing[SampleRun] -->
<g id="edge25" class="edge">
<title>FocussedDataDspacing[VanadiumRun]:e&#45;&gt;IntensityDspacing[SampleRun]:w</title>
<path fill="none" stroke="black" d="M2402,-113.43C2454.19,-113.43 2467.56,-91.55 2514.74,-88.73"/>
<polygon fill="black" stroke="black" points="2515.11,-92.22 2525,-88.43 2514.9,-85.22 2515.11,-92.22"/>
</g>
<!-- UncertaintyBroadcastMode -->
<g id="node36" class="node">
<title>UncertaintyBroadcastMode</title>
<polygon fill="none" stroke="black" points="2453,-60.93 2239,-60.93 2239,-37.93 2453,-37.93 2453,-60.93"/>
<text text-anchor="middle" x="2346" y="-45.73" font-family="Times,serif" font-size="14.00">UncertaintyBroadcastMode</text>
</g>
<!-- UncertaintyBroadcastMode&#45;&gt;IntensityDspacing[SampleRun] -->
<g id="edge26" class="edge">
<title>UncertaintyBroadcastMode:e&#45;&gt;IntensityDspacing[SampleRun]:w</title>
<path fill="none" stroke="black" d="M2453,-49.43C2485.7,-49.43 2488.38,-80.91 2514.98,-87.3"/>
<polygon fill="black" stroke="black" points="2514.67,-90.79 2525,-88.43 2515.45,-83.84 2514.67,-90.79"/>
</g>
<!-- RawDataAndMetadata[SampleRun]&#45;&gt;TofDetector[SampleRun] -->
<g id="edge37" class="edge">
<title>RawDataAndMetadata[SampleRun]:e&#45;&gt;TofDetector[SampleRun]:w</title>
<path fill="none" stroke="black" d="M345.5,-188.43C434.08,-188.43 387.53,-69.57 467,-30.43 608.25,39.14 665.61,-33.19 818.77,-36.33"/>
<polygon fill="black" stroke="black" points="818.96,-39.83 829,-36.43 819.04,-32.83 818.96,-39.83"/>
</g>
<!-- RawDataAndMetadata[SampleRun]&#45;&gt;Position[NXsource, SampleRun] -->
<g id="edge33" class="edge">
<title>RawDataAndMetadata[SampleRun]:e&#45;&gt;Position[NXsource, SampleRun]:w</title>
<path fill="none" stroke="black" d="M345.5,-188.43C405.05,-188.43 421.55,-173.3 476.22,-171.59"/>
<polygon fill="black" stroke="black" points="476.55,-175.08 486.5,-171.43 476.45,-168.08 476.55,-175.08"/>
</g>
<!-- RawDataAndMetadata[SampleRun]&#45;&gt;Position[NXsample, SampleRun] -->
<g id="edge31" class="edge">
<title>RawDataAndMetadata[SampleRun]:e&#45;&gt;Position[NXsample, SampleRun]:w</title>
<path fill="none" stroke="black" d="M345.5,-188.43C404.68,-188.43 420.96,-204.45 475.29,-206.26"/>
<polygon fill="black" stroke="black" points="475.44,-209.77 485.5,-206.43 475.56,-202.77 475.44,-209.77"/>
</g>
<!-- RawDataAndMetadata[VanadiumRun]&#45;&gt;TofDetector[VanadiumRun] -->
<g id="edge39" class="edge">
<title>RawDataAndMetadata[VanadiumRun]:e&#45;&gt;TofDetector[VanadiumRun]:w</title>
<path fill="none" stroke="black" d="M352.5,-213.43C372.39,-213.43 379.49,-211.87 395,-199.43 443.81,-160.27 413.36,-110.65 467,-78.43 482.57,-69.08 753.21,-62.55 811.82,-61.56"/>
<polygon fill="black" stroke="black" points="812.05,-65.06 822,-61.43 811.96,-58.06 812.05,-65.06"/>
</g>
<!-- RawDataAndMetadata[VanadiumRun]&#45;&gt;Position[NXsource, VanadiumRun] -->
<g id="edge34" class="edge">
<title>RawDataAndMetadata[VanadiumRun]:e&#45;&gt;Position[NXsource, VanadiumRun]:w</title>
<path fill="none" stroke="black" d="M352.5,-213.43C406.8,-213.43 420.15,-238.14 469.49,-241.13"/>
<polygon fill="black" stroke="black" points="469.4,-244.63 479.5,-241.43 469.61,-237.64 469.4,-244.63"/>
</g>
<!-- RawDataAndMetadata[VanadiumRun]&#45;&gt;Position[NXsample, VanadiumRun] -->
<g id="edge32" class="edge">
<title>RawDataAndMetadata[VanadiumRun]:e&#45;&gt;Position[NXsample, VanadiumRun]:w</title>
<path fill="none" stroke="black" d="M352.5,-213.43C411.19,-213.43 415.02,-269.5 467.5,-275.85"/>
<polygon fill="black" stroke="black" points="467.31,-279.34 477.5,-276.43 467.72,-272.35 467.31,-279.34"/>
</g>
</g>
</svg>
