<?xml version="1.0" encoding="utf-8" standalone="no"?>
<!DOCTYPE svg PUBLIC "-//W3C//DTD SVG 1.1//EN"
  "http://www.w3.org/Graphics/SVG/1.1/DTD/svg11.dtd">
<svg xmlns:xlink="http://www.w3.org/1999/xlink" width="382.603125pt" height="283.31875pt" viewBox="0 0 382.603125 283.31875" xmlns="http://www.w3.org/2000/svg" version="1.1">
 <metadata>
  <rdf:RDF xmlns:dc="http://purl.org/dc/elements/1.1/" xmlns:cc="http://creativecommons.org/ns#" xmlns:rdf="http://www.w3.org/1999/02/22-rdf-syntax-ns#">
   <cc:Work>
    <dc:type rdf:resource="http://purl.org/dc/dcmitype/StillImage"/>
    <dc:date>2025-09-23T11:21:30.064312</dc:date>
    <dc:format>image/svg+xml</dc:format>
    <dc:creator>
     <cc:Agent>
      <dc:title>Matplotlib v3.10.5, https://matplotlib.org/</dc:title>
     </cc:Agent>
    </dc:creator>
   </cc:Work>
  </rdf:RDF>
 </metadata>
 <defs>
  <style type="text/css">*{stroke-linejoin: round; stroke-linecap: butt}</style>
 </defs>
 <g id="figure_1">
  <g id="patch_1">
   <path d="M 0 283.31875 
L 382.603125 283.31875 
L 382.603125 0 
L 0 0 
z
" style="fill: #ffffff"/>
  </g>
  <g id="axes_1">
   <g id="patch_2">
    <path d="M 40.603125 244.078125 
L 375.403125 244.078125 
L 375.403125 22.318125 
L 40.603125 22.318125 
z
" style="fill: #ffffff"/>
   </g>
   <g id="matplotlib.axis_1">
    <g id="xtick_1">
     <g id="line2d_1">
      <defs>
       <path id="m7abe56ac4b" d="M 0 0 
L 0 3.5 
" style="stroke: #000000; stroke-width: 0.8"/>
      </defs>
      <g>
       <use xlink:href="#m7abe56ac4b" x="48.373826" y="244.078125" style="stroke: #000000; stroke-width: 0.8"/>
      </g>
     </g>
     <g id="text_1">
      <!-- 0.25 -->
      <g transform="translate(37.241014 258.676563) scale(0.1 -0.1)">
       <defs>
        <path id="DejaVuSans-30" d="M 2034 4250 
Q 1547 4250 1301 3770 
Q 1056 3291 1056 2328 
Q 1056 1369 1301 889 
Q 1547 409 2034 409 
Q 2525 409 2770 889 
Q 3016 1369 3016 2328 
Q 3016 3291 2770 3770 
Q 2525 4250 2034 4250 
z
M 2034 4750 
Q 2819 4750 3233 4129 
Q 3647 3509 3647 2328 
Q 3647 1150 3233 529 
Q 2819 -91 2034 -91 
Q 1250 -91 836 529 
Q 422 1150 422 2328 
Q 422 3509 836 4129 
Q 1250 4750 2034 4750 
z
" transform="scale(0.015625)"/>
        <path id="DejaVuSans-2e" d="M 684 794 
L 1344 794 
L 1344 0 
L 684 0 
L 684 794 
z
" transform="scale(0.015625)"/>
        <path id="DejaVuSans-32" d="M 1228 531 
L 3431 531 
L 3431 0 
L 469 0 
L 469 531 
Q 828 903 1448 1529 
Q 2069 2156 2228 2338 
Q 2531 2678 2651 2914 
Q 2772 3150 2772 3378 
Q 2772 3750 2511 3984 
Q 2250 4219 1831 4219 
Q 1534 4219 1204 4116 
Q 875 4013 500 3803 
L 500 4441 
Q 881 4594 1212 4672 
Q 1544 4750 1819 4750 
Q 2544 4750 2975 4387 
Q 3406 4025 3406 3419 
Q 3406 3131 3298 2873 
Q 3191 2616 2906 2266 
Q 2828 2175 2409 1742 
Q 1991 1309 1228 531 
z
" transform="scale(0.015625)"/>
        <path id="DejaVuSans-35" d="M 691 4666 
L 3169 4666 
L 3169 4134 
L 1269 4134 
L 1269 2991 
Q 1406 3038 1543 3061 
Q 1681 3084 1819 3084 
Q 2600 3084 3056 2656 
Q 3513 2228 3513 1497 
Q 3513 744 3044 326 
Q 2575 -91 1722 -91 
Q 1428 -91 1123 -41 
Q 819 9 494 109 
L 494 744 
Q 775 591 1075 516 
Q 1375 441 1709 441 
Q 2250 441 2565 725 
Q 2881 1009 2881 1497 
Q 2881 1984 2565 2268 
Q 2250 2553 1709 2553 
Q 1456 2553 1204 2497 
Q 953 2441 691 2322 
L 691 4666 
z
" transform="scale(0.015625)"/>
       </defs>
       <use xlink:href="#DejaVuSans-30"/>
       <use xlink:href="#DejaVuSans-2e" transform="translate(63.623047 0)"/>
       <use xlink:href="#DejaVuSans-32" transform="translate(95.410156 0)"/>
       <use xlink:href="#DejaVuSans-35" transform="translate(159.033203 0)"/>
      </g>
     </g>
    </g>
    <g id="xtick_2">
     <g id="line2d_2">
      <g>
       <use xlink:href="#m7abe56ac4b" x="85.611229" y="244.078125" style="stroke: #000000; stroke-width: 0.8"/>
      </g>
     </g>
     <g id="text_2">
      <!-- 0.50 -->
      <g transform="translate(74.478417 258.676563) scale(0.1 -0.1)">
       <use xlink:href="#DejaVuSans-30"/>
       <use xlink:href="#DejaVuSans-2e" transform="translate(63.623047 0)"/>
       <use xlink:href="#DejaVuSans-35" transform="translate(95.410156 0)"/>
       <use xlink:href="#DejaVuSans-30" transform="translate(159.033203 0)"/>
      </g>
     </g>
    </g>
    <g id="xtick_3">
     <g id="line2d_3">
      <g>
       <use xlink:href="#m7abe56ac4b" x="122.848632" y="244.078125" style="stroke: #000000; stroke-width: 0.8"/>
      </g>
     </g>
     <g id="text_3">
      <!-- 0.75 -->
      <g transform="translate(111.71582 258.676563) scale(0.1 -0.1)">
       <defs>
        <path id="DejaVuSans-37" d="M 525 4666 
L 3525 4666 
L 3525 4397 
L 1831 0 
L 1172 0 
L 2766 4134 
L 525 4134 
L 525 4666 
z
" transform="scale(0.015625)"/>
       </defs>
       <use xlink:href="#DejaVuSans-30"/>
       <use xlink:href="#DejaVuSans-2e" transform="translate(63.623047 0)"/>
       <use xlink:href="#DejaVuSans-37" transform="translate(95.410156 0)"/>
       <use xlink:href="#DejaVuSans-35" transform="translate(159.033203 0)"/>
      </g>
     </g>
    </g>
    <g id="xtick_4">
     <g id="line2d_4">
      <g>
       <use xlink:href="#m7abe56ac4b" x="160.086035" y="244.078125" style="stroke: #000000; stroke-width: 0.8"/>
      </g>
     </g>
     <g id="text_4">
      <!-- 1.00 -->
      <g transform="translate(148.953222 258.676563) scale(0.1 -0.1)">
       <defs>
        <path id="DejaVuSans-31" d="M 794 531 
L 1825 531 
L 1825 4091 
L 703 3866 
L 703 4441 
L 1819 4666 
L 2450 4666 
L 2450 531 
L 3481 531 
L 3481 0 
L 794 0 
L 794 531 
z
" transform="scale(0.015625)"/>
       </defs>
       <use xlink:href="#DejaVuSans-31"/>
       <use xlink:href="#DejaVuSans-2e" transform="translate(63.623047 0)"/>
       <use xlink:href="#DejaVuSans-30" transform="translate(95.410156 0)"/>
       <use xlink:href="#DejaVuSans-30" transform="translate(159.033203 0)"/>
      </g>
     </g>
    </g>
    <g id="xtick_5">
     <g id="line2d_5">
      <g>
       <use xlink:href="#m7abe56ac4b" x="197.323438" y="244.078125" style="stroke: #000000; stroke-width: 0.8"/>
      </g>
     </g>
     <g id="text_5">
      <!-- 1.25 -->
      <g transform="translate(186.190625 258.676563) scale(0.1 -0.1)">
       <use xlink:href="#DejaVuSans-31"/>
       <use xlink:href="#DejaVuSans-2e" transform="translate(63.623047 0)"/>
       <use xlink:href="#DejaVuSans-32" transform="translate(95.410156 0)"/>
       <use xlink:href="#DejaVuSans-35" transform="translate(159.033203 0)"/>
      </g>
     </g>
    </g>
    <g id="xtick_6">
     <g id="line2d_6">
      <g>
       <use xlink:href="#m7abe56ac4b" x="234.560841" y="244.078125" style="stroke: #000000; stroke-width: 0.8"/>
      </g>
     </g>
     <g id="text_6">
      <!-- 1.50 -->
      <g transform="translate(223.428028 258.676563) scale(0.1 -0.1)">
       <use xlink:href="#DejaVuSans-31"/>
       <use xlink:href="#DejaVuSans-2e" transform="translate(63.623047 0)"/>
       <use xlink:href="#DejaVuSans-35" transform="translate(95.410156 0)"/>
       <use xlink:href="#DejaVuSans-30" transform="translate(159.033203 0)"/>
      </g>
     </g>
    </g>
    <g id="xtick_7">
     <g id="line2d_7">
      <g>
       <use xlink:href="#m7abe56ac4b" x="271.798244" y="244.078125" style="stroke: #000000; stroke-width: 0.8"/>
      </g>
     </g>
     <g id="text_7">
      <!-- 1.75 -->
      <g transform="translate(260.665431 258.676563) scale(0.1 -0.1)">
       <use xlink:href="#DejaVuSans-31"/>
       <use xlink:href="#DejaVuSans-2e" transform="translate(63.623047 0)"/>
       <use xlink:href="#DejaVuSans-37" transform="translate(95.410156 0)"/>
       <use xlink:href="#DejaVuSans-35" transform="translate(159.033203 0)"/>
      </g>
     </g>
    </g>
    <g id="xtick_8">
     <g id="line2d_8">
      <g>
       <use xlink:href="#m7abe56ac4b" x="309.035647" y="244.078125" style="stroke: #000000; stroke-width: 0.8"/>
      </g>
     </g>
     <g id="text_8">
      <!-- 2.00 -->
      <g transform="translate(297.902834 258.676563) scale(0.1 -0.1)">
       <use xlink:href="#DejaVuSans-32"/>
       <use xlink:href="#DejaVuSans-2e" transform="translate(63.623047 0)"/>
       <use xlink:href="#DejaVuSans-30" transform="translate(95.410156 0)"/>
       <use xlink:href="#DejaVuSans-30" transform="translate(159.033203 0)"/>
      </g>
     </g>
    </g>
    <g id="xtick_9">
     <g id="line2d_9">
      <g>
       <use xlink:href="#m7abe56ac4b" x="346.273049" y="244.078125" style="stroke: #000000; stroke-width: 0.8"/>
      </g>
     </g>
     <g id="text_9">
      <!-- 2.25 -->
      <g transform="translate(335.140237 258.676563) scale(0.1 -0.1)">
       <use xlink:href="#DejaVuSans-32"/>
       <use xlink:href="#DejaVuSans-2e" transform="translate(63.623047 0)"/>
       <use xlink:href="#DejaVuSans-32" transform="translate(95.410156 0)"/>
       <use xlink:href="#DejaVuSans-35" transform="translate(159.033203 0)"/>
      </g>
     </g>
    </g>
    <g id="text_10">
     <!-- dspacing [Å] -->
     <g transform="translate(176.59375 274.039062) scale(0.1 -0.1)">
      <defs>
       <path id="DejaVuSans-64" d="M 2906 2969 
L 2906 4863 
L 3481 4863 
L 3481 0 
L 2906 0 
L 2906 525 
Q 2725 213 2448 61 
Q 2172 -91 1784 -91 
Q 1150 -91 751 415 
Q 353 922 353 1747 
Q 353 2572 751 3078 
Q 1150 3584 1784 3584 
Q 2172 3584 2448 3432 
Q 2725 3281 2906 2969 
z
M 947 1747 
Q 947 1113 1208 752 
Q 1469 391 1925 391 
Q 2381 391 2643 752 
Q 2906 1113 2906 1747 
Q 2906 2381 2643 2742 
Q 2381 3103 1925 3103 
Q 1469 3103 1208 2742 
Q 947 2381 947 1747 
z
" transform="scale(0.015625)"/>
       <path id="DejaVuSans-73" d="M 2834 3397 
L 2834 2853 
Q 2591 2978 2328 3040 
Q 2066 3103 1784 3103 
Q 1356 3103 1142 2972 
Q 928 2841 928 2578 
Q 928 2378 1081 2264 
Q 1234 2150 1697 2047 
L 1894 2003 
Q 2506 1872 2764 1633 
Q 3022 1394 3022 966 
Q 3022 478 2636 193 
Q 2250 -91 1575 -91 
Q 1294 -91 989 -36 
Q 684 19 347 128 
L 347 722 
Q 666 556 975 473 
Q 1284 391 1588 391 
Q 1994 391 2212 530 
Q 2431 669 2431 922 
Q 2431 1156 2273 1281 
Q 2116 1406 1581 1522 
L 1381 1569 
Q 847 1681 609 1914 
Q 372 2147 372 2553 
Q 372 3047 722 3315 
Q 1072 3584 1716 3584 
Q 2034 3584 2315 3537 
Q 2597 3491 2834 3397 
z
" transform="scale(0.015625)"/>
       <path id="DejaVuSans-70" d="M 1159 525 
L 1159 -1331 
L 581 -1331 
L 581 3500 
L 1159 3500 
L 1159 2969 
Q 1341 3281 1617 3432 
Q 1894 3584 2278 3584 
Q 2916 3584 3314 3078 
Q 3713 2572 3713 1747 
Q 3713 922 3314 415 
Q 2916 -91 2278 -91 
Q 1894 -91 1617 61 
Q 1341 213 1159 525 
z
M 3116 1747 
Q 3116 2381 2855 2742 
Q 2594 3103 2138 3103 
Q 1681 3103 1420 2742 
Q 1159 2381 1159 1747 
Q 1159 1113 1420 752 
Q 1681 391 2138 391 
Q 2594 391 2855 752 
Q 3116 1113 3116 1747 
z
" transform="scale(0.015625)"/>
       <path id="DejaVuSans-61" d="M 2194 1759 
Q 1497 1759 1228 1600 
Q 959 1441 959 1056 
Q 959 750 1161 570 
Q 1363 391 1709 391 
Q 2188 391 2477 730 
Q 2766 1069 2766 1631 
L 2766 1759 
L 2194 1759 
z
M 3341 1997 
L 3341 0 
L 2766 0 
L 2766 531 
Q 2569 213 2275 61 
Q 1981 -91 1556 -91 
Q 1019 -91 701 211 
Q 384 513 384 1019 
Q 384 1609 779 1909 
Q 1175 2209 1959 2209 
L 2766 2209 
L 2766 2266 
Q 2766 2663 2505 2880 
Q 2244 3097 1772 3097 
Q 1472 3097 1187 3025 
Q 903 2953 641 2809 
L 641 3341 
Q 956 3463 1253 3523 
Q 1550 3584 1831 3584 
Q 2591 3584 2966 3190 
Q 3341 2797 3341 1997 
z
" transform="scale(0.015625)"/>
       <path id="DejaVuSans-63" d="M 3122 3366 
L 3122 2828 
Q 2878 2963 2633 3030 
Q 2388 3097 2138 3097 
Q 1578 3097 1268 2742 
Q 959 2388 959 1747 
Q 959 1106 1268 751 
Q 1578 397 2138 397 
Q 2388 397 2633 464 
Q 2878 531 3122 666 
L 3122 134 
Q 2881 22 2623 -34 
Q 2366 -91 2075 -91 
Q 1284 -91 818 406 
Q 353 903 353 1747 
Q 353 2603 823 3093 
Q 1294 3584 2113 3584 
Q 2378 3584 2631 3529 
Q 2884 3475 3122 3366 
z
" transform="scale(0.015625)"/>
       <path id="DejaVuSans-69" d="M 603 3500 
L 1178 3500 
L 1178 0 
L 603 0 
L 603 3500 
z
M 603 4863 
L 1178 4863 
L 1178 4134 
L 603 4134 
L 603 4863 
z
" transform="scale(0.015625)"/>
       <path id="DejaVuSans-6e" d="M 3513 2113 
L 3513 0 
L 2938 0 
L 2938 2094 
Q 2938 2591 2744 2837 
Q 2550 3084 2163 3084 
Q 1697 3084 1428 2787 
Q 1159 2491 1159 1978 
L 1159 0 
L 581 0 
L 581 3500 
L 1159 3500 
L 1159 2956 
Q 1366 3272 1645 3428 
Q 1925 3584 2291 3584 
Q 2894 3584 3203 3211 
Q 3513 2838 3513 2113 
z
" transform="scale(0.015625)"/>
       <path id="DejaVuSans-67" d="M 2906 1791 
Q 2906 2416 2648 2759 
Q 2391 3103 1925 3103 
Q 1463 3103 1205 2759 
Q 947 2416 947 1791 
Q 947 1169 1205 825 
Q 1463 481 1925 481 
Q 2391 481 2648 825 
Q 2906 1169 2906 1791 
z
M 3481 434 
Q 3481 -459 3084 -895 
Q 2688 -1331 1869 -1331 
Q 1566 -1331 1297 -1286 
Q 1028 -1241 775 -1147 
L 775 -588 
Q 1028 -725 1275 -790 
Q 1522 -856 1778 -856 
Q 2344 -856 2625 -561 
Q 2906 -266 2906 331 
L 2906 616 
Q 2728 306 2450 153 
Q 2172 0 1784 0 
Q 1141 0 747 490 
Q 353 981 353 1791 
Q 353 2603 747 3093 
Q 1141 3584 1784 3584 
Q 2172 3584 2450 3431 
Q 2728 3278 2906 2969 
L 2906 3500 
L 3481 3500 
L 3481 434 
z
" transform="scale(0.015625)"/>
       <path id="DejaVuSans-20" transform="scale(0.015625)"/>
       <path id="DejaVuSans-5b" d="M 550 4863 
L 1875 4863 
L 1875 4416 
L 1125 4416 
L 1125 -397 
L 1875 -397 
L 1875 -844 
L 550 -844 
L 550 4863 
z
" transform="scale(0.015625)"/>
       <path id="DejaVuSans-c5" d="M 2663 5081 
Q 2663 5278 2523 5417 
Q 2384 5556 2188 5556 
Q 1988 5556 1852 5420 
Q 1716 5284 1716 5081 
Q 1716 4884 1853 4746 
Q 1991 4609 2188 4609 
Q 2384 4609 2523 4746 
Q 2663 4884 2663 5081 
z
M 2188 4044 
L 1338 1722 
L 3041 1722 
L 2188 4044 
z
M 1716 4366 
Q 1525 4494 1428 4673 
Q 1331 4853 1331 5081 
Q 1331 5441 1579 5691 
Q 1828 5941 2188 5941 
Q 2544 5941 2795 5689 
Q 3047 5438 3047 5081 
Q 3047 4863 2948 4678 
Q 2850 4494 2663 4366 
L 4325 0 
L 3669 0 
L 3244 1197 
L 1141 1197 
L 716 0 
L 50 0 
L 1716 4366 
z
" transform="scale(0.015625)"/>
       <path id="DejaVuSans-5d" d="M 1947 4863 
L 1947 -844 
L 622 -844 
L 622 -397 
L 1369 -397 
L 1369 4416 
L 622 4416 
L 622 4863 
L 1947 4863 
z
" transform="scale(0.015625)"/>
      </defs>
      <use xlink:href="#DejaVuSans-64"/>
      <use xlink:href="#DejaVuSans-73" transform="translate(63.476562 0)"/>
      <use xlink:href="#DejaVuSans-70" transform="translate(115.576172 0)"/>
      <use xlink:href="#DejaVuSans-61" transform="translate(179.052734 0)"/>
      <use xlink:href="#DejaVuSans-63" transform="translate(240.332031 0)"/>
      <use xlink:href="#DejaVuSans-69" transform="translate(295.3125 0)"/>
      <use xlink:href="#DejaVuSans-6e" transform="translate(323.095703 0)"/>
      <use xlink:href="#DejaVuSans-67" transform="translate(386.474609 0)"/>
      <use xlink:href="#DejaVuSans-20" transform="translate(449.951172 0)"/>
      <use xlink:href="#DejaVuSans-5b" transform="translate(481.738281 0)"/>
      <use xlink:href="#DejaVuSans-c5" transform="translate(520.751953 0)"/>
      <use xlink:href="#DejaVuSans-5d" transform="translate(589.160156 0)"/>
     </g>
    </g>
   </g>
   <g id="matplotlib.axis_2">
    <g id="ytick_1">
     <g id="line2d_10">
      <defs>
       <path id="m2508743fca" d="M 0 0 
L -3.5 0 
" style="stroke: #000000; stroke-width: 0.8"/>
      </defs>
      <g>
       <use xlink:href="#m2508743fca" x="40.603125" y="231.149589" style="stroke: #000000; stroke-width: 0.8"/>
      </g>
     </g>
     <g id="text_11">
      <!-- 0 -->
      <g transform="translate(27.240625 234.948807) scale(0.1 -0.1)">
       <use xlink:href="#DejaVuSans-30"/>
      </g>
     </g>
    </g>
    <g id="ytick_2">
     <g id="line2d_11">
      <g>
       <use xlink:href="#m2508743fca" x="40.603125" y="206.474222" style="stroke: #000000; stroke-width: 0.8"/>
      </g>
     </g>
     <g id="text_12">
      <!-- 5 -->
      <g transform="translate(27.240625 210.273441) scale(0.1 -0.1)">
       <use xlink:href="#DejaVuSans-35"/>
      </g>
     </g>
    </g>
    <g id="ytick_3">
     <g id="line2d_12">
      <g>
       <use xlink:href="#m2508743fca" x="40.603125" y="181.798855" style="stroke: #000000; stroke-width: 0.8"/>
      </g>
     </g>
     <g id="text_13">
      <!-- 10 -->
      <g transform="translate(20.878125 185.598074) scale(0.1 -0.1)">
       <use xlink:href="#DejaVuSans-31"/>
       <use xlink:href="#DejaVuSans-30" transform="translate(63.623047 0)"/>
      </g>
     </g>
    </g>
    <g id="ytick_4">
     <g id="line2d_13">
      <g>
       <use xlink:href="#m2508743fca" x="40.603125" y="157.123489" style="stroke: #000000; stroke-width: 0.8"/>
      </g>
     </g>
     <g id="text_14">
      <!-- 15 -->
      <g transform="translate(20.878125 160.922708) scale(0.1 -0.1)">
       <use xlink:href="#DejaVuSans-31"/>
       <use xlink:href="#DejaVuSans-35" transform="translate(63.623047 0)"/>
      </g>
     </g>
    </g>
    <g id="ytick_5">
     <g id="line2d_14">
      <g>
       <use xlink:href="#m2508743fca" x="40.603125" y="132.448122" style="stroke: #000000; stroke-width: 0.8"/>
      </g>
     </g>
     <g id="text_15">
      <!-- 20 -->
      <g transform="translate(20.878125 136.247341) scale(0.1 -0.1)">
       <use xlink:href="#DejaVuSans-32"/>
       <use xlink:href="#DejaVuSans-30" transform="translate(63.623047 0)"/>
      </g>
     </g>
    </g>
    <g id="ytick_6">
     <g id="line2d_15">
      <g>
       <use xlink:href="#m2508743fca" x="40.603125" y="107.772756" style="stroke: #000000; stroke-width: 0.8"/>
      </g>
     </g>
     <g id="text_16">
      <!-- 25 -->
      <g transform="translate(20.878125 111.571974) scale(0.1 -0.1)">
       <use xlink:href="#DejaVuSans-32"/>
       <use xlink:href="#DejaVuSans-35" transform="translate(63.623047 0)"/>
      </g>
     </g>
    </g>
    <g id="ytick_7">
     <g id="line2d_16">
      <g>
       <use xlink:href="#m2508743fca" x="40.603125" y="83.097389" style="stroke: #000000; stroke-width: 0.8"/>
      </g>
     </g>
     <g id="text_17">
      <!-- 30 -->
      <g transform="translate(20.878125 86.896608) scale(0.1 -0.1)">
       <defs>
        <path id="DejaVuSans-33" d="M 2597 2516 
Q 3050 2419 3304 2112 
Q 3559 1806 3559 1356 
Q 3559 666 3084 287 
Q 2609 -91 1734 -91 
Q 1441 -91 1130 -33 
Q 819 25 488 141 
L 488 750 
Q 750 597 1062 519 
Q 1375 441 1716 441 
Q 2309 441 2620 675 
Q 2931 909 2931 1356 
Q 2931 1769 2642 2001 
Q 2353 2234 1838 2234 
L 1294 2234 
L 1294 2753 
L 1863 2753 
Q 2328 2753 2575 2939 
Q 2822 3125 2822 3475 
Q 2822 3834 2567 4026 
Q 2313 4219 1838 4219 
Q 1578 4219 1281 4162 
Q 984 4106 628 3988 
L 628 4550 
Q 988 4650 1302 4700 
Q 1616 4750 1894 4750 
Q 2613 4750 3031 4423 
Q 3450 4097 3450 3541 
Q 3450 3153 3228 2886 
Q 3006 2619 2597 2516 
z
" transform="scale(0.015625)"/>
       </defs>
       <use xlink:href="#DejaVuSans-33"/>
       <use xlink:href="#DejaVuSans-30" transform="translate(63.623047 0)"/>
      </g>
     </g>
    </g>
    <g id="ytick_8">
     <g id="line2d_17">
      <g>
       <use xlink:href="#m2508743fca" x="40.603125" y="58.422023" style="stroke: #000000; stroke-width: 0.8"/>
      </g>
     </g>
     <g id="text_18">
      <!-- 35 -->
      <g transform="translate(20.878125 62.221241) scale(0.1 -0.1)">
       <use xlink:href="#DejaVuSans-33"/>
       <use xlink:href="#DejaVuSans-35" transform="translate(63.623047 0)"/>
      </g>
     </g>
    </g>
    <g id="ytick_9">
     <g id="line2d_18">
      <g>
       <use xlink:href="#m2508743fca" x="40.603125" y="33.746656" style="stroke: #000000; stroke-width: 0.8"/>
      </g>
     </g>
     <g id="text_19">
      <!-- 40 -->
      <g transform="translate(20.878125 37.545875) scale(0.1 -0.1)">
       <defs>
        <path id="DejaVuSans-34" d="M 2419 4116 
L 825 1625 
L 2419 1625 
L 2419 4116 
z
M 2253 4666 
L 3047 4666 
L 3047 1625 
L 3713 1625 
L 3713 1100 
L 3047 1100 
L 3047 0 
L 2419 0 
L 2419 1100 
L 313 1100 
L 313 1709 
L 2253 4666 
z
" transform="scale(0.015625)"/>
       </defs>
       <use xlink:href="#DejaVuSans-34"/>
       <use xlink:href="#DejaVuSans-30" transform="translate(63.623047 0)"/>
      </g>
     </g>
    </g>
    <g id="text_20">
     <!-- I(d) [dimensionless] -->
     <g transform="translate(14.798438 182.815313) rotate(-90) scale(0.1 -0.1)">
      <defs>
       <path id="DejaVuSans-49" d="M 628 4666 
L 1259 4666 
L 1259 0 
L 628 0 
L 628 4666 
z
" transform="scale(0.015625)"/>
       <path id="DejaVuSans-28" d="M 1984 4856 
Q 1566 4138 1362 3434 
Q 1159 2731 1159 2009 
Q 1159 1288 1364 580 
Q 1569 -128 1984 -844 
L 1484 -844 
Q 1016 -109 783 600 
Q 550 1309 550 2009 
Q 550 2706 781 3412 
Q 1013 4119 1484 4856 
L 1984 4856 
z
" transform="scale(0.015625)"/>
       <path id="DejaVuSans-29" d="M 513 4856 
L 1013 4856 
Q 1481 4119 1714 3412 
Q 1947 2706 1947 2009 
Q 1947 1309 1714 600 
Q 1481 -109 1013 -844 
L 513 -844 
Q 928 -128 1133 580 
Q 1338 1288 1338 2009 
Q 1338 2731 1133 3434 
Q 928 4138 513 4856 
z
" transform="scale(0.015625)"/>
       <path id="DejaVuSans-6d" d="M 3328 2828 
Q 3544 3216 3844 3400 
Q 4144 3584 4550 3584 
Q 5097 3584 5394 3201 
Q 5691 2819 5691 2113 
L 5691 0 
L 5113 0 
L 5113 2094 
Q 5113 2597 4934 2840 
Q 4756 3084 4391 3084 
Q 3944 3084 3684 2787 
Q 3425 2491 3425 1978 
L 3425 0 
L 2847 0 
L 2847 2094 
Q 2847 2600 2669 2842 
Q 2491 3084 2119 3084 
Q 1678 3084 1418 2786 
Q 1159 2488 1159 1978 
L 1159 0 
L 581 0 
L 581 3500 
L 1159 3500 
L 1159 2956 
Q 1356 3278 1631 3431 
Q 1906 3584 2284 3584 
Q 2666 3584 2933 3390 
Q 3200 3197 3328 2828 
z
" transform="scale(0.015625)"/>
       <path id="DejaVuSans-65" d="M 3597 1894 
L 3597 1613 
L 953 1613 
Q 991 1019 1311 708 
Q 1631 397 2203 397 
Q 2534 397 2845 478 
Q 3156 559 3463 722 
L 3463 178 
Q 3153 47 2828 -22 
Q 2503 -91 2169 -91 
Q 1331 -91 842 396 
Q 353 884 353 1716 
Q 353 2575 817 3079 
Q 1281 3584 2069 3584 
Q 2775 3584 3186 3129 
Q 3597 2675 3597 1894 
z
M 3022 2063 
Q 3016 2534 2758 2815 
Q 2500 3097 2075 3097 
Q 1594 3097 1305 2825 
Q 1016 2553 972 2059 
L 3022 2063 
z
" transform="scale(0.015625)"/>
       <path id="DejaVuSans-6f" d="M 1959 3097 
Q 1497 3097 1228 2736 
Q 959 2375 959 1747 
Q 959 1119 1226 758 
Q 1494 397 1959 397 
Q 2419 397 2687 759 
Q 2956 1122 2956 1747 
Q 2956 2369 2687 2733 
Q 2419 3097 1959 3097 
z
M 1959 3584 
Q 2709 3584 3137 3096 
Q 3566 2609 3566 1747 
Q 3566 888 3137 398 
Q 2709 -91 1959 -91 
Q 1206 -91 779 398 
Q 353 888 353 1747 
Q 353 2609 779 3096 
Q 1206 3584 1959 3584 
z
" transform="scale(0.015625)"/>
       <path id="DejaVuSans-6c" d="M 603 4863 
L 1178 4863 
L 1178 0 
L 603 0 
L 603 4863 
z
" transform="scale(0.015625)"/>
      </defs>
      <use xlink:href="#DejaVuSans-49"/>
      <use xlink:href="#DejaVuSans-28" transform="translate(29.492188 0)"/>
      <use xlink:href="#DejaVuSans-64" transform="translate(68.505859 0)"/>
      <use xlink:href="#DejaVuSans-29" transform="translate(131.982422 0)"/>
      <use xlink:href="#DejaVuSans-20" transform="translate(170.996094 0)"/>
      <use xlink:href="#DejaVuSans-5b" transform="translate(202.783203 0)"/>
      <use xlink:href="#DejaVuSans-64" transform="translate(241.796875 0)"/>
      <use xlink:href="#DejaVuSans-69" transform="translate(305.273438 0)"/>
      <use xlink:href="#DejaVuSans-6d" transform="translate(333.056641 0)"/>
      <use xlink:href="#DejaVuSans-65" transform="translate(430.46875 0)"/>
      <use xlink:href="#DejaVuSans-6e" transform="translate(491.992188 0)"/>
      <use xlink:href="#DejaVuSans-73" transform="translate(555.371094 0)"/>
      <use xlink:href="#DejaVuSans-69" transform="translate(607.470703 0)"/>
      <use xlink:href="#DejaVuSans-6f" transform="translate(635.253906 0)"/>
      <use xlink:href="#DejaVuSans-6e" transform="translate(696.435547 0)"/>
      <use xlink:href="#DejaVuSans-6c" transform="translate(759.814453 0)"/>
      <use xlink:href="#DejaVuSans-65" transform="translate(787.597656 0)"/>
      <use xlink:href="#DejaVuSans-73" transform="translate(849.121094 0)"/>
      <use xlink:href="#DejaVuSans-73" transform="translate(901.220703 0)"/>
      <use xlink:href="#DejaVuSans-5d" transform="translate(953.320312 0)"/>
     </g>
    </g>
   </g>
   <g id="line2d_19">
    <path d="M 55.821307 231.366979 
L 57.343125 231.366979 
L 57.343125 231.898883 
L 60.386761 231.948365 
L 60.386761 232.515385 
L 61.90858 232.515385 
L 61.90858 231.792719 
L 63.430398 231.792719 
L 63.430398 232.230767 
L 64.952216 232.230767 
L 64.952216 232.364699 
L 66.474034 232.364699 
L 66.474034 232.514524 
L 67.995852 232.514524 
L 67.995852 232.087255 
L 69.51767 232.087255 
L 69.51767 232.277939 
L 71.039489 232.277939 
L 71.039489 231.84418 
L 72.561307 231.84418 
L 72.561307 232.826522 
L 74.083125 232.826522 
L 74.083125 231.49781 
L 75.604943 231.49781 
L 75.604943 232.298452 
L 78.64858 232.332364 
L 78.64858 231.396016 
L 80.170398 231.396016 
L 80.170398 233.240912 
L 81.692216 233.240912 
L 81.692216 232.313499 
L 83.214034 232.313499 
L 83.214034 231.656647 
L 84.735852 231.656647 
L 84.735852 230.453609 
L 86.25767 230.453609 
L 86.25767 221.08588 
L 87.779489 221.08588 
L 87.779489 223.925158 
L 89.301307 223.925158 
L 89.301307 224.567013 
L 90.823125 224.567013 
L 90.823125 208.284136 
L 92.344943 208.284136 
L 92.344943 200.718901 
L 93.866761 200.718901 
L 93.866761 225.65274 
L 95.38858 225.65274 
L 95.38858 231.500746 
L 96.910398 231.500746 
L 96.910398 230.066827 
L 98.432216 230.066827 
L 98.432216 228.119066 
L 99.954034 228.119066 
L 99.954034 218.190564 
L 101.475852 218.190564 
L 101.475852 220.635771 
L 102.99767 220.635771 
L 102.99767 221.15802 
L 104.519489 221.15802 
L 104.519489 219.530186 
L 107.563125 219.505857 
L 107.563125 229.068537 
L 109.084943 229.068537 
L 109.084943 229.811166 
L 110.606761 229.811166 
L 110.606761 224.011889 
L 112.12858 224.011889 
L 112.12858 200.416865 
L 113.650398 200.416865 
L 113.650398 213.754063 
L 115.172216 213.754063 
L 115.172216 218.51568 
L 116.694034 218.51568 
L 116.694034 227.275205 
L 118.215852 227.275205 
L 118.215852 231.77141 
L 119.73767 231.77141 
L 119.73767 231.30423 
L 121.259489 231.30423 
L 121.259489 231.724021 
L 122.781307 231.724021 
L 122.781307 230.74273 
L 124.303125 230.74273 
L 124.303125 231.071495 
L 125.824943 231.071495 
L 125.824943 231.537364 
L 127.346761 231.537364 
L 127.346761 230.674448 
L 128.86858 230.674448 
L 128.86858 230.077767 
L 130.390398 230.077767 
L 130.390398 222.513605 
L 131.912216 222.513605 
L 131.912216 210.206794 
L 133.434034 210.206794 
L 133.434034 213.500409 
L 134.955852 213.500409 
L 134.955852 225.093668 
L 136.47767 225.093668 
L 136.47767 228.891767 
L 137.999489 228.891767 
L 137.999489 229.761937 
L 139.521307 229.761937 
L 139.521307 229.917901 
L 141.043125 229.917901 
L 141.043125 224.107293 
L 142.564943 224.107293 
L 142.564943 208.731933 
L 144.086761 208.731933 
L 144.086761 209.045117 
L 145.60858 209.045117 
L 145.60858 224.338502 
L 147.130398 224.338502 
L 147.130398 229.425067 
L 148.652216 229.425067 
L 148.652216 230.310848 
L 150.174034 230.310848 
L 150.174034 230.428192 
L 151.695852 230.428192 
L 151.695852 230.714756 
L 153.21767 230.714756 
L 153.21767 230.555075 
L 154.739489 230.555075 
L 154.739489 230.433071 
L 160.826761 230.347848 
L 160.826761 227.274053 
L 162.34858 227.274053 
L 162.34858 208.082574 
L 163.870398 208.082574 
L 163.870398 193.11935 
L 165.392216 193.11935 
L 165.392216 210.68872 
L 166.914034 210.68872 
L 166.914034 226.867559 
L 168.435852 226.867559 
L 168.435852 220.093071 
L 169.95767 220.093071 
L 169.95767 193.494809 
L 171.479489 193.494809 
L 171.479489 195.651885 
L 173.001307 195.651885 
L 173.001307 222.141348 
L 174.523125 222.141348 
L 174.523125 229.825738 
L 176.044943 229.825738 
L 176.044943 230.736447 
L 177.566761 230.736447 
L 177.566761 230.42877 
L 180.610398 230.369518 
L 180.610398 230.86541 
L 185.175852 230.945172 
L 185.175852 229.649241 
L 186.69767 229.649241 
L 186.69767 230.681665 
L 188.219489 230.681665 
L 188.219489 231.010069 
L 191.263125 230.990461 
L 191.263125 231.439376 
L 194.306761 231.356023 
L 194.306761 231.578517 
L 198.872216 231.496134 
L 198.872216 231.716818 
L 200.394034 231.716818 
L 200.394034 232.090581 
L 201.915852 232.090581 
L 201.915852 231.950015 
L 203.43767 231.950015 
L 203.43767 231.76549 
L 204.959489 231.76549 
L 204.959489 231.890404 
L 206.481307 231.890404 
L 206.481307 232.315124 
L 208.003125 232.315124 
L 208.003125 233.155099 
L 209.524943 233.155099 
L 209.524943 232.197402 
L 211.046761 232.197402 
L 211.046761 233.12188 
L 214.090398 233.142309 
L 214.090398 232.580795 
L 218.655852 232.506522 
L 218.655852 233.044644 
L 220.17767 233.044644 
L 220.17767 232.400557 
L 221.699489 232.400557 
L 221.699489 231.846984 
L 223.221307 231.846984 
L 223.221307 232.042746 
L 224.743125 232.042746 
L 224.743125 231.595649 
L 226.264943 231.595649 
L 226.264943 231.975887 
L 227.786761 231.975887 
L 227.786761 232.354085 
L 229.30858 232.354085 
L 229.30858 231.688669 
L 230.830398 231.688669 
L 230.830398 231.377988 
L 232.352216 231.377988 
L 232.352216 231.984509 
L 233.874034 231.984509 
L 233.874034 232.108129 
L 236.91767 232.199918 
L 236.91767 232.409134 
L 238.439489 232.409134 
L 238.439489 232.002116 
L 241.483125 231.913582 
L 241.483125 231.867945 
L 243.004943 231.867945 
L 243.004943 232.193381 
L 244.526761 232.193381 
L 244.526761 231.649778 
L 246.04858 231.649778 
L 246.04858 231.461464 
L 247.570398 231.461464 
L 247.570398 231.807922 
L 250.614034 231.701001 
L 250.614034 231.51701 
L 252.135852 231.51701 
L 252.135852 231.385923 
L 253.65767 231.385923 
L 253.65767 232.156598 
L 255.179489 232.156598 
L 255.179489 231.816514 
L 256.701307 231.816514 
L 256.701307 231.320242 
L 258.223125 231.320242 
L 258.223125 231.4448 
L 259.744943 231.4448 
L 259.744943 231.567333 
L 264.310398 231.549567 
L 264.310398 231.393595 
L 265.832216 231.393595 
L 265.832216 231.264684 
L 267.354034 231.264684 
L 267.354034 231.712135 
L 268.875852 231.712135 
L 268.875852 231.190818 
L 270.39767 231.190818 
L 270.39767 231.333816 
L 271.919489 231.333816 
L 271.919489 231.168244 
L 273.441307 231.168244 
L 273.441307 232.018216 
L 274.963125 232.018216 
L 274.963125 231.074212 
L 278.006761 231.056326 
L 278.006761 230.944826 
L 279.52858 230.944826 
L 279.52858 231.086116 
L 281.050398 231.086116 
L 281.050398 230.89958 
L 282.572216 230.89958 
L 282.572216 230.713106 
L 284.094034 230.713106 
L 284.094034 230.864589 
L 285.615852 230.864589 
L 285.615852 230.651397 
L 288.659489 230.554964 
L 288.659489 230.790979 
L 291.703125 230.780651 
L 291.703125 230.602979 
L 294.746761 230.550633 
L 294.746761 230.450114 
L 296.26858 230.450114 
L 296.26858 230.242175 
L 297.790398 230.242175 
L 297.790398 230.354665 
L 303.87767 230.434135 
L 303.87767 230.571278 
L 305.399489 230.571278 
L 305.399489 230.096972 
L 309.964943 230.153765 
L 309.964943 229.142257 
L 311.486761 229.142257 
L 311.486761 227.572279 
L 313.00858 227.572279 
L 313.00858 214.79185 
L 314.530398 214.79185 
L 314.530398 159.423389 
L 316.052216 159.423389 
L 316.052216 33.30071 
L 317.574034 33.30071 
L 317.574034 36.962035 
L 319.095852 36.962035 
L 319.095852 139.814254 
L 320.61767 139.814254 
L 320.61767 213.967803 
L 322.139489 213.967803 
L 322.139489 213.967803 
" clip-path="url(#pf3c412ef98)" style="fill: none; stroke: #1f77b4; stroke-width: 1.5; stroke-linecap: square"/>
   </g>
   <g id="LineCollection_1">
    <path d="M 56.582216 231.683938 
L 56.582216 231.050021 
" clip-path="url(#pf3c412ef98)" style="fill: none; stroke: #1f77b4; stroke-width: 1.5"/>
    <path d="M 58.104034 232.542715 
L 58.104034 231.255052 
" clip-path="url(#pf3c412ef98)" style="fill: none; stroke: #1f77b4; stroke-width: 1.5"/>
    <path d="M 59.625852 232.196826 
L 59.625852 231.699904 
" clip-path="url(#pf3c412ef98)" style="fill: none; stroke: #1f77b4; stroke-width: 1.5"/>
    <path d="M 61.14767 232.811655 
L 61.14767 232.219116 
" clip-path="url(#pf3c412ef98)" style="fill: none; stroke: #1f77b4; stroke-width: 1.5"/>
    <path d="M 62.669489 232.022875 
L 62.669489 231.562563 
" clip-path="url(#pf3c412ef98)" style="fill: none; stroke: #1f77b4; stroke-width: 1.5"/>
    <path d="M 64.191307 232.469949 
L 64.191307 231.991584 
" clip-path="url(#pf3c412ef98)" style="fill: none; stroke: #1f77b4; stroke-width: 1.5"/>
    <path d="M 65.713125 232.71649 
L 65.713125 232.012908 
" clip-path="url(#pf3c412ef98)" style="fill: none; stroke: #1f77b4; stroke-width: 1.5"/>
    <path d="M 67.234943 232.854239 
L 67.234943 232.174808 
" clip-path="url(#pf3c412ef98)" style="fill: none; stroke: #1f77b4; stroke-width: 1.5"/>
    <path d="M 68.756761 232.433694 
L 68.756761 231.740817 
" clip-path="url(#pf3c412ef98)" style="fill: none; stroke: #1f77b4; stroke-width: 1.5"/>
    <path d="M 70.27858 232.630399 
L 70.27858 231.92548 
" clip-path="url(#pf3c412ef98)" style="fill: none; stroke: #1f77b4; stroke-width: 1.5"/>
    <path d="M 71.800398 232.155771 
L 71.800398 231.532588 
" clip-path="url(#pf3c412ef98)" style="fill: none; stroke: #1f77b4; stroke-width: 1.5"/>
    <path d="M 73.322216 233.368833 
L 73.322216 232.284212 
" clip-path="url(#pf3c412ef98)" style="fill: none; stroke: #1f77b4; stroke-width: 1.5"/>
    <path d="M 74.844034 231.845728 
L 74.844034 231.149891 
" clip-path="url(#pf3c412ef98)" style="fill: none; stroke: #1f77b4; stroke-width: 1.5"/>
    <path d="M 76.365852 232.709801 
L 76.365852 231.887102 
" clip-path="url(#pf3c412ef98)" style="fill: none; stroke: #1f77b4; stroke-width: 1.5"/>
    <path d="M 77.88767 232.621734 
L 77.88767 232.042994 
" clip-path="url(#pf3c412ef98)" style="fill: none; stroke: #1f77b4; stroke-width: 1.5"/>
    <path d="M 79.409489 231.79411 
L 79.409489 230.997922 
" clip-path="url(#pf3c412ef98)" style="fill: none; stroke: #1f77b4; stroke-width: 1.5"/>
    <path d="M 80.931307 233.998125 
L 80.931307 232.4837 
" clip-path="url(#pf3c412ef98)" style="fill: none; stroke: #1f77b4; stroke-width: 1.5"/>
    <path d="M 82.453125 232.83614 
L 82.453125 231.790858 
" clip-path="url(#pf3c412ef98)" style="fill: none; stroke: #1f77b4; stroke-width: 1.5"/>
    <path d="M 83.974943 232.185353 
L 83.974943 231.127941 
" clip-path="url(#pf3c412ef98)" style="fill: none; stroke: #1f77b4; stroke-width: 1.5"/>
    <path d="M 85.496761 231.734789 
L 85.496761 229.172429 
" clip-path="url(#pf3c412ef98)" style="fill: none; stroke: #1f77b4; stroke-width: 1.5"/>
    <path d="M 87.01858 222.692911 
L 87.01858 219.478849 
" clip-path="url(#pf3c412ef98)" style="fill: none; stroke: #1f77b4; stroke-width: 1.5"/>
    <path d="M 88.540398 225.078773 
L 88.540398 222.771542 
" clip-path="url(#pf3c412ef98)" style="fill: none; stroke: #1f77b4; stroke-width: 1.5"/>
    <path d="M 90.062216 225.578486 
L 90.062216 223.555539 
" clip-path="url(#pf3c412ef98)" style="fill: none; stroke: #1f77b4; stroke-width: 1.5"/>
    <path d="M 91.584034 210.903138 
L 91.584034 205.665134 
" clip-path="url(#pf3c412ef98)" style="fill: none; stroke: #1f77b4; stroke-width: 1.5"/>
    <path d="M 93.105852 204.945094 
L 93.105852 196.492709 
" clip-path="url(#pf3c412ef98)" style="fill: none; stroke: #1f77b4; stroke-width: 1.5"/>
    <path d="M 94.62767 227.124809 
L 94.62767 224.18067 
" clip-path="url(#pf3c412ef98)" style="fill: none; stroke: #1f77b4; stroke-width: 1.5"/>
    <path d="M 96.149489 231.992114 
L 96.149489 231.009377 
" clip-path="url(#pf3c412ef98)" style="fill: none; stroke: #1f77b4; stroke-width: 1.5"/>
    <path d="M 97.671307 230.822333 
L 97.671307 229.311322 
" clip-path="url(#pf3c412ef98)" style="fill: none; stroke: #1f77b4; stroke-width: 1.5"/>
    <path d="M 99.193125 229.436922 
L 99.193125 226.801209 
" clip-path="url(#pf3c412ef98)" style="fill: none; stroke: #1f77b4; stroke-width: 1.5"/>
    <path d="M 100.714943 219.939953 
L 100.714943 216.441174 
" clip-path="url(#pf3c412ef98)" style="fill: none; stroke: #1f77b4; stroke-width: 1.5"/>
    <path d="M 102.236761 222.452222 
L 102.236761 218.81932 
" clip-path="url(#pf3c412ef98)" style="fill: none; stroke: #1f77b4; stroke-width: 1.5"/>
    <path d="M 103.75858 222.906394 
L 103.75858 219.409646 
" clip-path="url(#pf3c412ef98)" style="fill: none; stroke: #1f77b4; stroke-width: 1.5"/>
    <path d="M 105.280398 221.131401 
L 105.280398 217.928971 
" clip-path="url(#pf3c412ef98)" style="fill: none; stroke: #1f77b4; stroke-width: 1.5"/>
    <path d="M 106.802216 221.693775 
L 106.802216 217.317939 
" clip-path="url(#pf3c412ef98)" style="fill: none; stroke: #1f77b4; stroke-width: 1.5"/>
    <path d="M 108.324034 229.68127 
L 108.324034 228.455805 
" clip-path="url(#pf3c412ef98)" style="fill: none; stroke: #1f77b4; stroke-width: 1.5"/>
    <path d="M 109.845852 230.876317 
L 109.845852 228.746014 
" clip-path="url(#pf3c412ef98)" style="fill: none; stroke: #1f77b4; stroke-width: 1.5"/>
    <path d="M 111.36767 225.551897 
L 111.36767 222.47188 
" clip-path="url(#pf3c412ef98)" style="fill: none; stroke: #1f77b4; stroke-width: 1.5"/>
    <path d="M 112.889489 203.532713 
L 112.889489 197.301017 
" clip-path="url(#pf3c412ef98)" style="fill: none; stroke: #1f77b4; stroke-width: 1.5"/>
    <path d="M 114.411307 215.39514 
L 114.411307 212.112985 
" clip-path="url(#pf3c412ef98)" style="fill: none; stroke: #1f77b4; stroke-width: 1.5"/>
    <path d="M 115.933125 220.35978 
L 115.933125 216.67158 
" clip-path="url(#pf3c412ef98)" style="fill: none; stroke: #1f77b4; stroke-width: 1.5"/>
    <path d="M 117.454943 228.171191 
L 117.454943 226.379219 
" clip-path="url(#pf3c412ef98)" style="fill: none; stroke: #1f77b4; stroke-width: 1.5"/>
    <path d="M 118.976761 233.355657 
L 118.976761 230.187163 
" clip-path="url(#pf3c412ef98)" style="fill: none; stroke: #1f77b4; stroke-width: 1.5"/>
    <path d="M 120.49858 231.654066 
L 120.49858 230.954395 
" clip-path="url(#pf3c412ef98)" style="fill: none; stroke: #1f77b4; stroke-width: 1.5"/>
    <path d="M 122.020398 232.29116 
L 122.020398 231.156882 
" clip-path="url(#pf3c412ef98)" style="fill: none; stroke: #1f77b4; stroke-width: 1.5"/>
    <path d="M 123.542216 231.053133 
L 123.542216 230.432327 
" clip-path="url(#pf3c412ef98)" style="fill: none; stroke: #1f77b4; stroke-width: 1.5"/>
    <path d="M 125.064034 231.425085 
L 125.064034 230.717905 
" clip-path="url(#pf3c412ef98)" style="fill: none; stroke: #1f77b4; stroke-width: 1.5"/>
    <path d="M 126.585852 231.784999 
L 126.585852 231.289729 
" clip-path="url(#pf3c412ef98)" style="fill: none; stroke: #1f77b4; stroke-width: 1.5"/>
    <path d="M 128.10767 231.033831 
L 128.10767 230.315065 
" clip-path="url(#pf3c412ef98)" style="fill: none; stroke: #1f77b4; stroke-width: 1.5"/>
    <path d="M 129.629489 230.333849 
L 129.629489 229.821684 
" clip-path="url(#pf3c412ef98)" style="fill: none; stroke: #1f77b4; stroke-width: 1.5"/>
    <path d="M 131.151307 222.916181 
L 131.151307 222.111029 
" clip-path="url(#pf3c412ef98)" style="fill: none; stroke: #1f77b4; stroke-width: 1.5"/>
    <path d="M 132.673125 210.728597 
L 132.673125 209.68499 
" clip-path="url(#pf3c412ef98)" style="fill: none; stroke: #1f77b4; stroke-width: 1.5"/>
    <path d="M 134.194943 213.947792 
L 134.194943 213.053026 
" clip-path="url(#pf3c412ef98)" style="fill: none; stroke: #1f77b4; stroke-width: 1.5"/>
    <path d="M 135.716761 225.385615 
L 135.716761 224.801722 
" clip-path="url(#pf3c412ef98)" style="fill: none; stroke: #1f77b4; stroke-width: 1.5"/>
    <path d="M 137.23858 229.111033 
L 137.23858 228.6725 
" clip-path="url(#pf3c412ef98)" style="fill: none; stroke: #1f77b4; stroke-width: 1.5"/>
    <path d="M 138.760398 229.941452 
L 138.760398 229.582421 
" clip-path="url(#pf3c412ef98)" style="fill: none; stroke: #1f77b4; stroke-width: 1.5"/>
    <path d="M 140.282216 230.080244 
L 140.282216 229.755558 
" clip-path="url(#pf3c412ef98)" style="fill: none; stroke: #1f77b4; stroke-width: 1.5"/>
    <path d="M 141.804034 224.318565 
L 141.804034 223.89602 
" clip-path="url(#pf3c412ef98)" style="fill: none; stroke: #1f77b4; stroke-width: 1.5"/>
    <path d="M 143.325852 209.017069 
L 143.325852 208.446798 
" clip-path="url(#pf3c412ef98)" style="fill: none; stroke: #1f77b4; stroke-width: 1.5"/>
    <path d="M 144.84767 209.313945 
L 144.84767 208.776288 
" clip-path="url(#pf3c412ef98)" style="fill: none; stroke: #1f77b4; stroke-width: 1.5"/>
    <path d="M 146.369489 224.515271 
L 146.369489 224.161734 
" clip-path="url(#pf3c412ef98)" style="fill: none; stroke: #1f77b4; stroke-width: 1.5"/>
    <path d="M 147.891307 229.555989 
L 147.891307 229.294145 
" clip-path="url(#pf3c412ef98)" style="fill: none; stroke: #1f77b4; stroke-width: 1.5"/>
    <path d="M 149.413125 230.423889 
L 149.413125 230.197807 
" clip-path="url(#pf3c412ef98)" style="fill: none; stroke: #1f77b4; stroke-width: 1.5"/>
    <path d="M 150.934943 230.537914 
L 150.934943 230.318469 
" clip-path="url(#pf3c412ef98)" style="fill: none; stroke: #1f77b4; stroke-width: 1.5"/>
    <path d="M 152.456761 230.81343 
L 152.456761 230.616081 
" clip-path="url(#pf3c412ef98)" style="fill: none; stroke: #1f77b4; stroke-width: 1.5"/>
    <path d="M 153.97858 230.653499 
L 153.97858 230.456651 
" clip-path="url(#pf3c412ef98)" style="fill: none; stroke: #1f77b4; stroke-width: 1.5"/>
    <path d="M 155.500398 230.531593 
L 155.500398 230.334549 
" clip-path="url(#pf3c412ef98)" style="fill: none; stroke: #1f77b4; stroke-width: 1.5"/>
    <path d="M 157.022216 230.55137 
L 157.022216 230.334206 
" clip-path="url(#pf3c412ef98)" style="fill: none; stroke: #1f77b4; stroke-width: 1.5"/>
    <path d="M 158.544034 230.565618 
L 158.544034 230.368524 
" clip-path="url(#pf3c412ef98)" style="fill: none; stroke: #1f77b4; stroke-width: 1.5"/>
    <path d="M 160.065852 230.448625 
L 160.065852 230.247071 
" clip-path="url(#pf3c412ef98)" style="fill: none; stroke: #1f77b4; stroke-width: 1.5"/>
    <path d="M 161.58767 227.403969 
L 161.58767 227.144136 
" clip-path="url(#pf3c412ef98)" style="fill: none; stroke: #1f77b4; stroke-width: 1.5"/>
    <path d="M 163.109489 208.317891 
L 163.109489 207.847258 
" clip-path="url(#pf3c412ef98)" style="fill: none; stroke: #1f77b4; stroke-width: 1.5"/>
    <path d="M 164.631307 193.412906 
L 164.631307 192.825795 
" clip-path="url(#pf3c412ef98)" style="fill: none; stroke: #1f77b4; stroke-width: 1.5"/>
    <path d="M 166.153125 210.907546 
L 166.153125 210.469895 
" clip-path="url(#pf3c412ef98)" style="fill: none; stroke: #1f77b4; stroke-width: 1.5"/>
    <path d="M 167.674943 226.995254 
L 167.674943 226.739864 
" clip-path="url(#pf3c412ef98)" style="fill: none; stroke: #1f77b4; stroke-width: 1.5"/>
    <path d="M 169.196761 220.258757 
L 169.196761 219.927386 
" clip-path="url(#pf3c412ef98)" style="fill: none; stroke: #1f77b4; stroke-width: 1.5"/>
    <path d="M 170.71858 193.778498 
L 170.71858 193.21112 
" clip-path="url(#pf3c412ef98)" style="fill: none; stroke: #1f77b4; stroke-width: 1.5"/>
    <path d="M 172.240398 195.930727 
L 172.240398 195.373043 
" clip-path="url(#pf3c412ef98)" style="fill: none; stroke: #1f77b4; stroke-width: 1.5"/>
    <path d="M 173.762216 222.297481 
L 173.762216 221.985215 
" clip-path="url(#pf3c412ef98)" style="fill: none; stroke: #1f77b4; stroke-width: 1.5"/>
    <path d="M 175.284034 229.92442 
L 175.284034 229.727055 
" clip-path="url(#pf3c412ef98)" style="fill: none; stroke: #1f77b4; stroke-width: 1.5"/>
    <path d="M 176.805852 230.828506 
L 176.805852 230.644389 
" clip-path="url(#pf3c412ef98)" style="fill: none; stroke: #1f77b4; stroke-width: 1.5"/>
    <path d="M 178.32767 230.525911 
L 178.32767 230.331628 
" clip-path="url(#pf3c412ef98)" style="fill: none; stroke: #1f77b4; stroke-width: 1.5"/>
    <path d="M 179.849489 230.464912 
L 179.849489 230.274123 
" clip-path="url(#pf3c412ef98)" style="fill: none; stroke: #1f77b4; stroke-width: 1.5"/>
    <path d="M 181.371307 230.955888 
L 181.371307 230.774932 
" clip-path="url(#pf3c412ef98)" style="fill: none; stroke: #1f77b4; stroke-width: 1.5"/>
    <path d="M 182.893125 230.933292 
L 182.893125 230.755408 
" clip-path="url(#pf3c412ef98)" style="fill: none; stroke: #1f77b4; stroke-width: 1.5"/>
    <path d="M 184.414943 231.033078 
L 184.414943 230.857265 
" clip-path="url(#pf3c412ef98)" style="fill: none; stroke: #1f77b4; stroke-width: 1.5"/>
    <path d="M 185.936761 229.751034 
L 185.936761 229.547449 
" clip-path="url(#pf3c412ef98)" style="fill: none; stroke: #1f77b4; stroke-width: 1.5"/>
    <path d="M 187.45858 230.777047 
L 187.45858 230.586283 
" clip-path="url(#pf3c412ef98)" style="fill: none; stroke: #1f77b4; stroke-width: 1.5"/>
    <path d="M 188.980398 231.098783 
L 188.980398 230.921355 
" clip-path="url(#pf3c412ef98)" style="fill: none; stroke: #1f77b4; stroke-width: 1.5"/>
    <path d="M 190.502216 231.075587 
L 190.502216 230.905336 
" clip-path="url(#pf3c412ef98)" style="fill: none; stroke: #1f77b4; stroke-width: 1.5"/>
    <path d="M 192.024034 231.524671 
L 192.024034 231.354081 
" clip-path="url(#pf3c412ef98)" style="fill: none; stroke: #1f77b4; stroke-width: 1.5"/>
    <path d="M 193.545852 231.441166 
L 193.545852 231.27088 
" clip-path="url(#pf3c412ef98)" style="fill: none; stroke: #1f77b4; stroke-width: 1.5"/>
    <path d="M 195.06767 231.659242 
L 195.06767 231.497792 
" clip-path="url(#pf3c412ef98)" style="fill: none; stroke: #1f77b4; stroke-width: 1.5"/>
    <path d="M 196.589489 231.639312 
L 196.589489 231.477308 
" clip-path="url(#pf3c412ef98)" style="fill: none; stroke: #1f77b4; stroke-width: 1.5"/>
    <path d="M 198.111307 231.577375 
L 198.111307 231.414893 
" clip-path="url(#pf3c412ef98)" style="fill: none; stroke: #1f77b4; stroke-width: 1.5"/>
    <path d="M 199.633125 231.983661 
L 199.633125 231.449975 
" clip-path="url(#pf3c412ef98)" style="fill: none; stroke: #1f77b4; stroke-width: 1.5"/>
    <path d="M 201.154943 232.391415 
L 201.154943 231.789747 
" clip-path="url(#pf3c412ef98)" style="fill: none; stroke: #1f77b4; stroke-width: 1.5"/>
    <path d="M 202.676761 232.139557 
L 202.676761 231.760473 
" clip-path="url(#pf3c412ef98)" style="fill: none; stroke: #1f77b4; stroke-width: 1.5"/>
    <path d="M 204.19858 231.935939 
L 204.19858 231.595041 
" clip-path="url(#pf3c412ef98)" style="fill: none; stroke: #1f77b4; stroke-width: 1.5"/>
    <path d="M 205.720398 232.179322 
L 205.720398 231.601485 
" clip-path="url(#pf3c412ef98)" style="fill: none; stroke: #1f77b4; stroke-width: 1.5"/>
    <path d="M 207.242216 232.641576 
L 207.242216 231.988672 
" clip-path="url(#pf3c412ef98)" style="fill: none; stroke: #1f77b4; stroke-width: 1.5"/>
    <path d="M 208.764034 233.542146 
L 208.764034 232.768052 
" clip-path="url(#pf3c412ef98)" style="fill: none; stroke: #1f77b4; stroke-width: 1.5"/>
    <path d="M 210.285852 232.409011 
L 210.285852 231.985793 
" clip-path="url(#pf3c412ef98)" style="fill: none; stroke: #1f77b4; stroke-width: 1.5"/>
    <path d="M 211.80767 233.545284 
L 211.80767 232.698476 
" clip-path="url(#pf3c412ef98)" style="fill: none; stroke: #1f77b4; stroke-width: 1.5"/>
    <path d="M 213.329489 233.524507 
L 213.329489 232.760112 
" clip-path="url(#pf3c412ef98)" style="fill: none; stroke: #1f77b4; stroke-width: 1.5"/>
    <path d="M 214.851307 232.914458 
L 214.851307 232.247133 
" clip-path="url(#pf3c412ef98)" style="fill: none; stroke: #1f77b4; stroke-width: 1.5"/>
    <path d="M 216.373125 232.919418 
L 216.373125 232.276968 
" clip-path="url(#pf3c412ef98)" style="fill: none; stroke: #1f77b4; stroke-width: 1.5"/>
    <path d="M 217.894943 232.885161 
L 217.894943 232.127883 
" clip-path="url(#pf3c412ef98)" style="fill: none; stroke: #1f77b4; stroke-width: 1.5"/>
    <path d="M 219.416761 233.480113 
L 219.416761 232.609174 
" clip-path="url(#pf3c412ef98)" style="fill: none; stroke: #1f77b4; stroke-width: 1.5"/>
    <path d="M 220.93858 232.741887 
L 220.93858 232.059228 
" clip-path="url(#pf3c412ef98)" style="fill: none; stroke: #1f77b4; stroke-width: 1.5"/>
    <path d="M 222.460398 232.032445 
L 222.460398 231.661523 
" clip-path="url(#pf3c412ef98)" style="fill: none; stroke: #1f77b4; stroke-width: 1.5"/>
    <path d="M 223.982216 232.233637 
L 223.982216 231.851855 
" clip-path="url(#pf3c412ef98)" style="fill: none; stroke: #1f77b4; stroke-width: 1.5"/>
    <path d="M 225.504034 231.906426 
L 225.504034 231.284872 
" clip-path="url(#pf3c412ef98)" style="fill: none; stroke: #1f77b4; stroke-width: 1.5"/>
    <path d="M 227.025852 232.265515 
L 227.025852 231.686258 
" clip-path="url(#pf3c412ef98)" style="fill: none; stroke: #1f77b4; stroke-width: 1.5"/>
    <path d="M 228.54767 232.723584 
L 228.54767 231.984587 
" clip-path="url(#pf3c412ef98)" style="fill: none; stroke: #1f77b4; stroke-width: 1.5"/>
    <path d="M 230.069489 231.948661 
L 230.069489 231.428678 
" clip-path="url(#pf3c412ef98)" style="fill: none; stroke: #1f77b4; stroke-width: 1.5"/>
    <path d="M 231.591307 231.565122 
L 231.591307 231.190854 
" clip-path="url(#pf3c412ef98)" style="fill: none; stroke: #1f77b4; stroke-width: 1.5"/>
    <path d="M 233.113125 232.333216 
L 233.113125 231.635803 
" clip-path="url(#pf3c412ef98)" style="fill: none; stroke: #1f77b4; stroke-width: 1.5"/>
    <path d="M 234.634943 232.338895 
L 234.634943 231.877364 
" clip-path="url(#pf3c412ef98)" style="fill: none; stroke: #1f77b4; stroke-width: 1.5"/>
    <path d="M 236.156761 232.396542 
L 236.156761 232.003293 
" clip-path="url(#pf3c412ef98)" style="fill: none; stroke: #1f77b4; stroke-width: 1.5"/>
    <path d="M 237.67858 232.623759 
L 237.67858 232.194509 
" clip-path="url(#pf3c412ef98)" style="fill: none; stroke: #1f77b4; stroke-width: 1.5"/>
    <path d="M 239.200398 232.157931 
L 239.200398 231.8463 
" clip-path="url(#pf3c412ef98)" style="fill: none; stroke: #1f77b4; stroke-width: 1.5"/>
    <path d="M 240.722216 232.124337 
L 240.722216 231.702828 
" clip-path="url(#pf3c412ef98)" style="fill: none; stroke: #1f77b4; stroke-width: 1.5"/>
    <path d="M 242.244034 232.226631 
L 242.244034 231.509259 
" clip-path="url(#pf3c412ef98)" style="fill: none; stroke: #1f77b4; stroke-width: 1.5"/>
    <path d="M 243.765852 232.46569 
L 243.765852 231.921072 
" clip-path="url(#pf3c412ef98)" style="fill: none; stroke: #1f77b4; stroke-width: 1.5"/>
    <path d="M 245.28767 231.805659 
L 245.28767 231.493897 
" clip-path="url(#pf3c412ef98)" style="fill: none; stroke: #1f77b4; stroke-width: 1.5"/>
    <path d="M 246.809489 231.639321 
L 246.809489 231.283606 
" clip-path="url(#pf3c412ef98)" style="fill: none; stroke: #1f77b4; stroke-width: 1.5"/>
    <path d="M 248.331307 231.983156 
L 248.331307 231.632688 
" clip-path="url(#pf3c412ef98)" style="fill: none; stroke: #1f77b4; stroke-width: 1.5"/>
    <path d="M 249.853125 231.849582 
L 249.853125 231.552421 
" clip-path="url(#pf3c412ef98)" style="fill: none; stroke: #1f77b4; stroke-width: 1.5"/>
    <path d="M 251.374943 231.580462 
L 251.374943 231.453559 
" clip-path="url(#pf3c412ef98)" style="fill: none; stroke: #1f77b4; stroke-width: 1.5"/>
    <path d="M 252.896761 231.441759 
L 252.896761 231.330086 
" clip-path="url(#pf3c412ef98)" style="fill: none; stroke: #1f77b4; stroke-width: 1.5"/>
    <path d="M 254.41858 232.465883 
L 254.41858 231.847312 
" clip-path="url(#pf3c412ef98)" style="fill: none; stroke: #1f77b4; stroke-width: 1.5"/>
    <path d="M 255.940398 232.065309 
L 255.940398 231.567719 
" clip-path="url(#pf3c412ef98)" style="fill: none; stroke: #1f77b4; stroke-width: 1.5"/>
    <path d="M 257.462216 231.507905 
L 257.462216 231.132579 
" clip-path="url(#pf3c412ef98)" style="fill: none; stroke: #1f77b4; stroke-width: 1.5"/>
    <path d="M 258.984034 231.506627 
L 258.984034 231.382973 
" clip-path="url(#pf3c412ef98)" style="fill: none; stroke: #1f77b4; stroke-width: 1.5"/>
    <path d="M 260.505852 231.629476 
L 260.505852 231.50519 
" clip-path="url(#pf3c412ef98)" style="fill: none; stroke: #1f77b4; stroke-width: 1.5"/>
    <path d="M 262.02767 231.631814 
L 262.02767 231.496356 
" clip-path="url(#pf3c412ef98)" style="fill: none; stroke: #1f77b4; stroke-width: 1.5"/>
    <path d="M 263.549489 231.826503 
L 263.549489 231.27263 
" clip-path="url(#pf3c412ef98)" style="fill: none; stroke: #1f77b4; stroke-width: 1.5"/>
    <path d="M 265.071307 231.552676 
L 265.071307 231.234515 
" clip-path="url(#pf3c412ef98)" style="fill: none; stroke: #1f77b4; stroke-width: 1.5"/>
    <path d="M 266.593125 231.335656 
L 266.593125 231.193712 
" clip-path="url(#pf3c412ef98)" style="fill: none; stroke: #1f77b4; stroke-width: 1.5"/>
    <path d="M 268.114943 232.000296 
L 268.114943 231.423974 
" clip-path="url(#pf3c412ef98)" style="fill: none; stroke: #1f77b4; stroke-width: 1.5"/>
    <path d="M 269.636761 231.250256 
L 269.636761 231.131379 
" clip-path="url(#pf3c412ef98)" style="fill: none; stroke: #1f77b4; stroke-width: 1.5"/>
    <path d="M 271.15858 231.507402 
L 271.15858 231.16023 
" clip-path="url(#pf3c412ef98)" style="fill: none; stroke: #1f77b4; stroke-width: 1.5"/>
    <path d="M 272.680398 231.320993 
L 272.680398 231.015494 
" clip-path="url(#pf3c412ef98)" style="fill: none; stroke: #1f77b4; stroke-width: 1.5"/>
    <path d="M 274.202216 232.360719 
L 274.202216 231.675712 
" clip-path="url(#pf3c412ef98)" style="fill: none; stroke: #1f77b4; stroke-width: 1.5"/>
    <path d="M 275.724034 231.136897 
L 275.724034 231.011528 
" clip-path="url(#pf3c412ef98)" style="fill: none; stroke: #1f77b4; stroke-width: 1.5"/>
    <path d="M 277.245852 231.112497 
L 277.245852 231.000156 
" clip-path="url(#pf3c412ef98)" style="fill: none; stroke: #1f77b4; stroke-width: 1.5"/>
    <path d="M 278.76767 231.004821 
L 278.76767 230.884832 
" clip-path="url(#pf3c412ef98)" style="fill: none; stroke: #1f77b4; stroke-width: 1.5"/>
    <path d="M 280.289489 231.159705 
L 280.289489 231.012528 
" clip-path="url(#pf3c412ef98)" style="fill: none; stroke: #1f77b4; stroke-width: 1.5"/>
    <path d="M 281.811307 230.970274 
L 281.811307 230.828886 
" clip-path="url(#pf3c412ef98)" style="fill: none; stroke: #1f77b4; stroke-width: 1.5"/>
    <path d="M 283.333125 230.777183 
L 283.333125 230.64903 
" clip-path="url(#pf3c412ef98)" style="fill: none; stroke: #1f77b4; stroke-width: 1.5"/>
    <path d="M 284.854943 231.044059 
L 284.854943 230.685118 
" clip-path="url(#pf3c412ef98)" style="fill: none; stroke: #1f77b4; stroke-width: 1.5"/>
    <path d="M 286.376761 230.720199 
L 286.376761 230.582595 
" clip-path="url(#pf3c412ef98)" style="fill: none; stroke: #1f77b4; stroke-width: 1.5"/>
    <path d="M 287.89858 230.726289 
L 287.89858 230.38364 
" clip-path="url(#pf3c412ef98)" style="fill: none; stroke: #1f77b4; stroke-width: 1.5"/>
    <path d="M 289.420398 230.979425 
L 289.420398 230.602533 
" clip-path="url(#pf3c412ef98)" style="fill: none; stroke: #1f77b4; stroke-width: 1.5"/>
    <path d="M 290.942216 230.912829 
L 290.942216 230.648473 
" clip-path="url(#pf3c412ef98)" style="fill: none; stroke: #1f77b4; stroke-width: 1.5"/>
    <path d="M 292.464034 230.812867 
L 292.464034 230.393092 
" clip-path="url(#pf3c412ef98)" style="fill: none; stroke: #1f77b4; stroke-width: 1.5"/>
    <path d="M 293.985852 230.616698 
L 293.985852 230.484568 
" clip-path="url(#pf3c412ef98)" style="fill: none; stroke: #1f77b4; stroke-width: 1.5"/>
    <path d="M 295.50767 230.523296 
L 295.50767 230.376932 
" clip-path="url(#pf3c412ef98)" style="fill: none; stroke: #1f77b4; stroke-width: 1.5"/>
    <path d="M 297.029489 230.316632 
L 297.029489 230.167717 
" clip-path="url(#pf3c412ef98)" style="fill: none; stroke: #1f77b4; stroke-width: 1.5"/>
    <path d="M 298.551307 230.4201 
L 298.551307 230.28923 
" clip-path="url(#pf3c412ef98)" style="fill: none; stroke: #1f77b4; stroke-width: 1.5"/>
    <path d="M 300.073125 230.526344 
L 300.073125 230.11013 
" clip-path="url(#pf3c412ef98)" style="fill: none; stroke: #1f77b4; stroke-width: 1.5"/>
    <path d="M 301.594943 230.360944 
L 301.594943 230.207467 
" clip-path="url(#pf3c412ef98)" style="fill: none; stroke: #1f77b4; stroke-width: 1.5"/>
    <path d="M 303.116761 230.582974 
L 303.116761 230.285297 
" clip-path="url(#pf3c412ef98)" style="fill: none; stroke: #1f77b4; stroke-width: 1.5"/>
    <path d="M 304.63858 230.80887 
L 304.63858 230.333686 
" clip-path="url(#pf3c412ef98)" style="fill: none; stroke: #1f77b4; stroke-width: 1.5"/>
    <path d="M 306.160398 230.328593 
L 306.160398 229.865351 
" clip-path="url(#pf3c412ef98)" style="fill: none; stroke: #1f77b4; stroke-width: 1.5"/>
    <path d="M 307.682216 230.254036 
L 307.682216 229.914192 
" clip-path="url(#pf3c412ef98)" style="fill: none; stroke: #1f77b4; stroke-width: 1.5"/>
    <path d="M 309.204034 230.227389 
L 309.204034 230.08014 
" clip-path="url(#pf3c412ef98)" style="fill: none; stroke: #1f77b4; stroke-width: 1.5"/>
    <path d="M 310.725852 229.39502 
L 310.725852 228.889495 
" clip-path="url(#pf3c412ef98)" style="fill: none; stroke: #1f77b4; stroke-width: 1.5"/>
    <path d="M 312.24767 227.868636 
L 312.24767 227.275923 
" clip-path="url(#pf3c412ef98)" style="fill: none; stroke: #1f77b4; stroke-width: 1.5"/>
    <path d="M 313.769489 215.549319 
L 313.769489 214.034382 
" clip-path="url(#pf3c412ef98)" style="fill: none; stroke: #1f77b4; stroke-width: 1.5"/>
    <path d="M 315.291307 160.462578 
L 315.291307 158.3842 
" clip-path="url(#pf3c412ef98)" style="fill: none; stroke: #1f77b4; stroke-width: 1.5"/>
    <path d="M 316.813125 34.203295 
L 316.813125 32.398125 
" clip-path="url(#pf3c412ef98)" style="fill: none; stroke: #1f77b4; stroke-width: 1.5"/>
    <path d="M 318.334943 37.612901 
L 318.334943 36.311168 
" clip-path="url(#pf3c412ef98)" style="fill: none; stroke: #1f77b4; stroke-width: 1.5"/>
    <path d="M 319.856761 140.221807 
L 319.856761 139.406701 
" clip-path="url(#pf3c412ef98)" style="fill: none; stroke: #1f77b4; stroke-width: 1.5"/>
    <path d="M 321.37858 214.160149 
L 321.37858 213.775457 
" clip-path="url(#pf3c412ef98)" style="fill: none; stroke: #1f77b4; stroke-width: 1.5"/>
    <path clip-path="url(#pf3c412ef98)" style="fill: none; stroke: #1f77b4; stroke-width: 1.5"/>
    <path clip-path="url(#pf3c412ef98)" style="fill: none; stroke: #1f77b4; stroke-width: 1.5"/>
    <path clip-path="url(#pf3c412ef98)" style="fill: none; stroke: #1f77b4; stroke-width: 1.5"/>
    <path clip-path="url(#pf3c412ef98)" style="fill: none; stroke: #1f77b4; stroke-width: 1.5"/>
    <path clip-path="url(#pf3c412ef98)" style="fill: none; stroke: #1f77b4; stroke-width: 1.5"/>
    <path clip-path="url(#pf3c412ef98)" style="fill: none; stroke: #1f77b4; stroke-width: 1.5"/>
    <path clip-path="url(#pf3c412ef98)" style="fill: none; stroke: #1f77b4; stroke-width: 1.5"/>
    <path clip-path="url(#pf3c412ef98)" style="fill: none; stroke: #1f77b4; stroke-width: 1.5"/>
    <path clip-path="url(#pf3c412ef98)" style="fill: none; stroke: #1f77b4; stroke-width: 1.5"/>
    <path clip-path="url(#pf3c412ef98)" style="fill: none; stroke: #1f77b4; stroke-width: 1.5"/>
    <path clip-path="url(#pf3c412ef98)" style="fill: none; stroke: #1f77b4; stroke-width: 1.5"/>
    <path clip-path="url(#pf3c412ef98)" style="fill: none; stroke: #1f77b4; stroke-width: 1.5"/>
    <path clip-path="url(#pf3c412ef98)" style="fill: none; stroke: #1f77b4; stroke-width: 1.5"/>
    <path clip-path="url(#pf3c412ef98)" style="fill: none; stroke: #1f77b4; stroke-width: 1.5"/>
    <path clip-path="url(#pf3c412ef98)" style="fill: none; stroke: #1f77b4; stroke-width: 1.5"/>
    <path clip-path="url(#pf3c412ef98)" style="fill: none; stroke: #1f77b4; stroke-width: 1.5"/>
    <path clip-path="url(#pf3c412ef98)" style="fill: none; stroke: #1f77b4; stroke-width: 1.5"/>
    <path clip-path="url(#pf3c412ef98)" style="fill: none; stroke: #1f77b4; stroke-width: 1.5"/>
    <path clip-path="url(#pf3c412ef98)" style="fill: none; stroke: #1f77b4; stroke-width: 1.5"/>
    <path clip-path="url(#pf3c412ef98)" style="fill: none; stroke: #1f77b4; stroke-width: 1.5"/>
    <path clip-path="url(#pf3c412ef98)" style="fill: none; stroke: #1f77b4; stroke-width: 1.5"/>
    <path clip-path="url(#pf3c412ef98)" style="fill: none; stroke: #1f77b4; stroke-width: 1.5"/>
    <path clip-path="url(#pf3c412ef98)" style="fill: none; stroke: #1f77b4; stroke-width: 1.5"/>
    <path clip-path="url(#pf3c412ef98)" style="fill: none; stroke: #1f77b4; stroke-width: 1.5"/>
    <path clip-path="url(#pf3c412ef98)" style="fill: none; stroke: #1f77b4; stroke-width: 1.5"/>
   </g>
   <g id="patch_3">
    <path d="M 40.603125 244.078125 
L 40.603125 22.318125 
" style="fill: none; stroke: #000000; stroke-width: 0.8; stroke-linejoin: miter; stroke-linecap: square"/>
   </g>
   <g id="patch_4">
    <path d="M 375.403125 244.078125 
L 375.403125 22.318125 
" style="fill: none; stroke: #000000; stroke-width: 0.8; stroke-linejoin: miter; stroke-linecap: square"/>
   </g>
   <g id="patch_5">
    <path d="M 40.603125 244.078125 
L 375.403125 244.078125 
" style="fill: none; stroke: #000000; stroke-width: 0.8; stroke-linejoin: miter; stroke-linecap: square"/>
   </g>
   <g id="patch_6">
    <path d="M 40.603125 22.318125 
L 375.403125 22.318125 
" style="fill: none; stroke: #000000; stroke-width: 0.8; stroke-linejoin: miter; stroke-linecap: square"/>
   </g>
   <g id="text_21">
    <!-- Mantle -->
    <g transform="translate(187.635938 16.318125) scale(0.12 -0.12)">
     <defs>
      <path id="DejaVuSans-4d" d="M 628 4666 
L 1569 4666 
L 2759 1491 
L 3956 4666 
L 4897 4666 
L 4897 0 
L 4281 0 
L 4281 4097 
L 3078 897 
L 2444 897 
L 1241 4097 
L 1241 0 
L 628 0 
L 628 4666 
z
" transform="scale(0.015625)"/>
      <path id="DejaVuSans-74" d="M 1172 4494 
L 1172 3500 
L 2356 3500 
L 2356 3053 
L 1172 3053 
L 1172 1153 
Q 1172 725 1289 603 
Q 1406 481 1766 481 
L 2356 481 
L 2356 0 
L 1766 0 
Q 1100 0 847 248 
Q 594 497 594 1153 
L 594 3053 
L 172 3053 
L 172 3500 
L 594 3500 
L 594 4494 
L 1172 4494 
z
" transform="scale(0.015625)"/>
     </defs>
     <use xlink:href="#DejaVuSans-4d"/>
     <use xlink:href="#DejaVuSans-61" transform="translate(86.279297 0)"/>
     <use xlink:href="#DejaVuSans-6e" transform="translate(147.558594 0)"/>
     <use xlink:href="#DejaVuSans-74" transform="translate(210.9375 0)"/>
     <use xlink:href="#DejaVuSans-6c" transform="translate(250.146484 0)"/>
     <use xlink:href="#DejaVuSans-65" transform="translate(277.929688 0)"/>
    </g>
   </g>
  </g>
 </g>
 <defs>
  <clipPath id="pf3c412ef98">
   <rect x="40.603125" y="22.318125" width="334.8" height="221.76"/>
  </clipPath>
 </defs>
</svg>
