<?xml version="1.0" encoding="utf-8" standalone="no"?>
<!DOCTYPE svg PUBLIC "-//W3C//DTD SVG 1.1//EN"
  "http://www.w3.org/Graphics/SVG/1.1/DTD/svg11.dtd">
<svg xmlns:xlink="http://www.w3.org/1999/xlink" width="382.603125pt" height="283.31875pt" viewBox="0 0 382.603125 283.31875" xmlns="http://www.w3.org/2000/svg" version="1.1">
 <metadata>
  <rdf:RDF xmlns:dc="http://purl.org/dc/elements/1.1/" xmlns:cc="http://creativecommons.org/ns#" xmlns:rdf="http://www.w3.org/1999/02/22-rdf-syntax-ns#">
   <cc:Work>
    <dc:type rdf:resource="http://purl.org/dc/dcmitype/StillImage"/>
    <dc:date>2025-05-15T13:01:40.787224</dc:date>
    <dc:format>image/svg+xml</dc:format>
    <dc:creator>
     <cc:Agent>
      <dc:title>Matplotlib v3.10.3, https://matplotlib.org/</dc:title>
     </cc:Agent>
    </dc:creator>
   </cc:Work>
  </rdf:RDF>
 </metadata>
 <defs>
  <style type="text/css">*{stroke-linejoin: round; stroke-linecap: butt}</style>
 </defs>
 <g id="figure_1">
  <g id="patch_1">
   <path d="M 0 283.31875 
L 382.603125 283.31875 
L 382.603125 0 
L 0 0 
z
" style="fill: #ffffff"/>
  </g>
  <g id="axes_1">
   <g id="patch_2">
    <path d="M 40.603125 244.078125 
L 375.403125 244.078125 
L 375.403125 22.318125 
L 40.603125 22.318125 
z
" style="fill: #ffffff"/>
   </g>
   <g id="matplotlib.axis_1">
    <g id="xtick_1">
     <g id="line2d_1">
      <defs>
       <path id="m0ff4963771" d="M 0 0 
L 0 3.5 
" style="stroke: #000000; stroke-width: 0.8"/>
      </defs>
      <g>
       <use xlink:href="#m0ff4963771" x="48.373826" y="244.078125" style="stroke: #000000; stroke-width: 0.8"/>
      </g>
     </g>
     <g id="text_1">
      <!-- 0.25 -->
      <g transform="translate(37.241014 258.676563) scale(0.1 -0.1)">
       <defs>
        <path id="DejaVuSans-30" d="M 2034 4250 
Q 1547 4250 1301 3770 
Q 1056 3291 1056 2328 
Q 1056 1369 1301 889 
Q 1547 409 2034 409 
Q 2525 409 2770 889 
Q 3016 1369 3016 2328 
Q 3016 3291 2770 3770 
Q 2525 4250 2034 4250 
z
M 2034 4750 
Q 2819 4750 3233 4129 
Q 3647 3509 3647 2328 
Q 3647 1150 3233 529 
Q 2819 -91 2034 -91 
Q 1250 -91 836 529 
Q 422 1150 422 2328 
Q 422 3509 836 4129 
Q 1250 4750 2034 4750 
z
" transform="scale(0.015625)"/>
        <path id="DejaVuSans-2e" d="M 684 794 
L 1344 794 
L 1344 0 
L 684 0 
L 684 794 
z
" transform="scale(0.015625)"/>
        <path id="DejaVuSans-32" d="M 1228 531 
L 3431 531 
L 3431 0 
L 469 0 
L 469 531 
Q 828 903 1448 1529 
Q 2069 2156 2228 2338 
Q 2531 2678 2651 2914 
Q 2772 3150 2772 3378 
Q 2772 3750 2511 3984 
Q 2250 4219 1831 4219 
Q 1534 4219 1204 4116 
Q 875 4013 500 3803 
L 500 4441 
Q 881 4594 1212 4672 
Q 1544 4750 1819 4750 
Q 2544 4750 2975 4387 
Q 3406 4025 3406 3419 
Q 3406 3131 3298 2873 
Q 3191 2616 2906 2266 
Q 2828 2175 2409 1742 
Q 1991 1309 1228 531 
z
" transform="scale(0.015625)"/>
        <path id="DejaVuSans-35" d="M 691 4666 
L 3169 4666 
L 3169 4134 
L 1269 4134 
L 1269 2991 
Q 1406 3038 1543 3061 
Q 1681 3084 1819 3084 
Q 2600 3084 3056 2656 
Q 3513 2228 3513 1497 
Q 3513 744 3044 326 
Q 2575 -91 1722 -91 
Q 1428 -91 1123 -41 
Q 819 9 494 109 
L 494 744 
Q 775 591 1075 516 
Q 1375 441 1709 441 
Q 2250 441 2565 725 
Q 2881 1009 2881 1497 
Q 2881 1984 2565 2268 
Q 2250 2553 1709 2553 
Q 1456 2553 1204 2497 
Q 953 2441 691 2322 
L 691 4666 
z
" transform="scale(0.015625)"/>
       </defs>
       <use xlink:href="#DejaVuSans-30"/>
       <use xlink:href="#DejaVuSans-2e" transform="translate(63.623047 0)"/>
       <use xlink:href="#DejaVuSans-32" transform="translate(95.410156 0)"/>
       <use xlink:href="#DejaVuSans-35" transform="translate(159.033203 0)"/>
      </g>
     </g>
    </g>
    <g id="xtick_2">
     <g id="line2d_2">
      <g>
       <use xlink:href="#m0ff4963771" x="85.611229" y="244.078125" style="stroke: #000000; stroke-width: 0.8"/>
      </g>
     </g>
     <g id="text_2">
      <!-- 0.50 -->
      <g transform="translate(74.478417 258.676563) scale(0.1 -0.1)">
       <use xlink:href="#DejaVuSans-30"/>
       <use xlink:href="#DejaVuSans-2e" transform="translate(63.623047 0)"/>
       <use xlink:href="#DejaVuSans-35" transform="translate(95.410156 0)"/>
       <use xlink:href="#DejaVuSans-30" transform="translate(159.033203 0)"/>
      </g>
     </g>
    </g>
    <g id="xtick_3">
     <g id="line2d_3">
      <g>
       <use xlink:href="#m0ff4963771" x="122.848632" y="244.078125" style="stroke: #000000; stroke-width: 0.8"/>
      </g>
     </g>
     <g id="text_3">
      <!-- 0.75 -->
      <g transform="translate(111.71582 258.676563) scale(0.1 -0.1)">
       <defs>
        <path id="DejaVuSans-37" d="M 525 4666 
L 3525 4666 
L 3525 4397 
L 1831 0 
L 1172 0 
L 2766 4134 
L 525 4134 
L 525 4666 
z
" transform="scale(0.015625)"/>
       </defs>
       <use xlink:href="#DejaVuSans-30"/>
       <use xlink:href="#DejaVuSans-2e" transform="translate(63.623047 0)"/>
       <use xlink:href="#DejaVuSans-37" transform="translate(95.410156 0)"/>
       <use xlink:href="#DejaVuSans-35" transform="translate(159.033203 0)"/>
      </g>
     </g>
    </g>
    <g id="xtick_4">
     <g id="line2d_4">
      <g>
       <use xlink:href="#m0ff4963771" x="160.086035" y="244.078125" style="stroke: #000000; stroke-width: 0.8"/>
      </g>
     </g>
     <g id="text_4">
      <!-- 1.00 -->
      <g transform="translate(148.953222 258.676563) scale(0.1 -0.1)">
       <defs>
        <path id="DejaVuSans-31" d="M 794 531 
L 1825 531 
L 1825 4091 
L 703 3866 
L 703 4441 
L 1819 4666 
L 2450 4666 
L 2450 531 
L 3481 531 
L 3481 0 
L 794 0 
L 794 531 
z
" transform="scale(0.015625)"/>
       </defs>
       <use xlink:href="#DejaVuSans-31"/>
       <use xlink:href="#DejaVuSans-2e" transform="translate(63.623047 0)"/>
       <use xlink:href="#DejaVuSans-30" transform="translate(95.410156 0)"/>
       <use xlink:href="#DejaVuSans-30" transform="translate(159.033203 0)"/>
      </g>
     </g>
    </g>
    <g id="xtick_5">
     <g id="line2d_5">
      <g>
       <use xlink:href="#m0ff4963771" x="197.323438" y="244.078125" style="stroke: #000000; stroke-width: 0.8"/>
      </g>
     </g>
     <g id="text_5">
      <!-- 1.25 -->
      <g transform="translate(186.190625 258.676563) scale(0.1 -0.1)">
       <use xlink:href="#DejaVuSans-31"/>
       <use xlink:href="#DejaVuSans-2e" transform="translate(63.623047 0)"/>
       <use xlink:href="#DejaVuSans-32" transform="translate(95.410156 0)"/>
       <use xlink:href="#DejaVuSans-35" transform="translate(159.033203 0)"/>
      </g>
     </g>
    </g>
    <g id="xtick_6">
     <g id="line2d_6">
      <g>
       <use xlink:href="#m0ff4963771" x="234.560841" y="244.078125" style="stroke: #000000; stroke-width: 0.8"/>
      </g>
     </g>
     <g id="text_6">
      <!-- 1.50 -->
      <g transform="translate(223.428028 258.676563) scale(0.1 -0.1)">
       <use xlink:href="#DejaVuSans-31"/>
       <use xlink:href="#DejaVuSans-2e" transform="translate(63.623047 0)"/>
       <use xlink:href="#DejaVuSans-35" transform="translate(95.410156 0)"/>
       <use xlink:href="#DejaVuSans-30" transform="translate(159.033203 0)"/>
      </g>
     </g>
    </g>
    <g id="xtick_7">
     <g id="line2d_7">
      <g>
       <use xlink:href="#m0ff4963771" x="271.798244" y="244.078125" style="stroke: #000000; stroke-width: 0.8"/>
      </g>
     </g>
     <g id="text_7">
      <!-- 1.75 -->
      <g transform="translate(260.665431 258.676563) scale(0.1 -0.1)">
       <use xlink:href="#DejaVuSans-31"/>
       <use xlink:href="#DejaVuSans-2e" transform="translate(63.623047 0)"/>
       <use xlink:href="#DejaVuSans-37" transform="translate(95.410156 0)"/>
       <use xlink:href="#DejaVuSans-35" transform="translate(159.033203 0)"/>
      </g>
     </g>
    </g>
    <g id="xtick_8">
     <g id="line2d_8">
      <g>
       <use xlink:href="#m0ff4963771" x="309.035647" y="244.078125" style="stroke: #000000; stroke-width: 0.8"/>
      </g>
     </g>
     <g id="text_8">
      <!-- 2.00 -->
      <g transform="translate(297.902834 258.676563) scale(0.1 -0.1)">
       <use xlink:href="#DejaVuSans-32"/>
       <use xlink:href="#DejaVuSans-2e" transform="translate(63.623047 0)"/>
       <use xlink:href="#DejaVuSans-30" transform="translate(95.410156 0)"/>
       <use xlink:href="#DejaVuSans-30" transform="translate(159.033203 0)"/>
      </g>
     </g>
    </g>
    <g id="xtick_9">
     <g id="line2d_9">
      <g>
       <use xlink:href="#m0ff4963771" x="346.273049" y="244.078125" style="stroke: #000000; stroke-width: 0.8"/>
      </g>
     </g>
     <g id="text_9">
      <!-- 2.25 -->
      <g transform="translate(335.140237 258.676563) scale(0.1 -0.1)">
       <use xlink:href="#DejaVuSans-32"/>
       <use xlink:href="#DejaVuSans-2e" transform="translate(63.623047 0)"/>
       <use xlink:href="#DejaVuSans-32" transform="translate(95.410156 0)"/>
       <use xlink:href="#DejaVuSans-35" transform="translate(159.033203 0)"/>
      </g>
     </g>
    </g>
    <g id="text_10">
     <!-- dspacing [Å] -->
     <g transform="translate(176.59375 274.039062) scale(0.1 -0.1)">
      <defs>
       <path id="DejaVuSans-64" d="M 2906 2969 
L 2906 4863 
L 3481 4863 
L 3481 0 
L 2906 0 
L 2906 525 
Q 2725 213 2448 61 
Q 2172 -91 1784 -91 
Q 1150 -91 751 415 
Q 353 922 353 1747 
Q 353 2572 751 3078 
Q 1150 3584 1784 3584 
Q 2172 3584 2448 3432 
Q 2725 3281 2906 2969 
z
M 947 1747 
Q 947 1113 1208 752 
Q 1469 391 1925 391 
Q 2381 391 2643 752 
Q 2906 1113 2906 1747 
Q 2906 2381 2643 2742 
Q 2381 3103 1925 3103 
Q 1469 3103 1208 2742 
Q 947 2381 947 1747 
z
" transform="scale(0.015625)"/>
       <path id="DejaVuSans-73" d="M 2834 3397 
L 2834 2853 
Q 2591 2978 2328 3040 
Q 2066 3103 1784 3103 
Q 1356 3103 1142 2972 
Q 928 2841 928 2578 
Q 928 2378 1081 2264 
Q 1234 2150 1697 2047 
L 1894 2003 
Q 2506 1872 2764 1633 
Q 3022 1394 3022 966 
Q 3022 478 2636 193 
Q 2250 -91 1575 -91 
Q 1294 -91 989 -36 
Q 684 19 347 128 
L 347 722 
Q 666 556 975 473 
Q 1284 391 1588 391 
Q 1994 391 2212 530 
Q 2431 669 2431 922 
Q 2431 1156 2273 1281 
Q 2116 1406 1581 1522 
L 1381 1569 
Q 847 1681 609 1914 
Q 372 2147 372 2553 
Q 372 3047 722 3315 
Q 1072 3584 1716 3584 
Q 2034 3584 2315 3537 
Q 2597 3491 2834 3397 
z
" transform="scale(0.015625)"/>
       <path id="DejaVuSans-70" d="M 1159 525 
L 1159 -1331 
L 581 -1331 
L 581 3500 
L 1159 3500 
L 1159 2969 
Q 1341 3281 1617 3432 
Q 1894 3584 2278 3584 
Q 2916 3584 3314 3078 
Q 3713 2572 3713 1747 
Q 3713 922 3314 415 
Q 2916 -91 2278 -91 
Q 1894 -91 1617 61 
Q 1341 213 1159 525 
z
M 3116 1747 
Q 3116 2381 2855 2742 
Q 2594 3103 2138 3103 
Q 1681 3103 1420 2742 
Q 1159 2381 1159 1747 
Q 1159 1113 1420 752 
Q 1681 391 2138 391 
Q 2594 391 2855 752 
Q 3116 1113 3116 1747 
z
" transform="scale(0.015625)"/>
       <path id="DejaVuSans-61" d="M 2194 1759 
Q 1497 1759 1228 1600 
Q 959 1441 959 1056 
Q 959 750 1161 570 
Q 1363 391 1709 391 
Q 2188 391 2477 730 
Q 2766 1069 2766 1631 
L 2766 1759 
L 2194 1759 
z
M 3341 1997 
L 3341 0 
L 2766 0 
L 2766 531 
Q 2569 213 2275 61 
Q 1981 -91 1556 -91 
Q 1019 -91 701 211 
Q 384 513 384 1019 
Q 384 1609 779 1909 
Q 1175 2209 1959 2209 
L 2766 2209 
L 2766 2266 
Q 2766 2663 2505 2880 
Q 2244 3097 1772 3097 
Q 1472 3097 1187 3025 
Q 903 2953 641 2809 
L 641 3341 
Q 956 3463 1253 3523 
Q 1550 3584 1831 3584 
Q 2591 3584 2966 3190 
Q 3341 2797 3341 1997 
z
" transform="scale(0.015625)"/>
       <path id="DejaVuSans-63" d="M 3122 3366 
L 3122 2828 
Q 2878 2963 2633 3030 
Q 2388 3097 2138 3097 
Q 1578 3097 1268 2742 
Q 959 2388 959 1747 
Q 959 1106 1268 751 
Q 1578 397 2138 397 
Q 2388 397 2633 464 
Q 2878 531 3122 666 
L 3122 134 
Q 2881 22 2623 -34 
Q 2366 -91 2075 -91 
Q 1284 -91 818 406 
Q 353 903 353 1747 
Q 353 2603 823 3093 
Q 1294 3584 2113 3584 
Q 2378 3584 2631 3529 
Q 2884 3475 3122 3366 
z
" transform="scale(0.015625)"/>
       <path id="DejaVuSans-69" d="M 603 3500 
L 1178 3500 
L 1178 0 
L 603 0 
L 603 3500 
z
M 603 4863 
L 1178 4863 
L 1178 4134 
L 603 4134 
L 603 4863 
z
" transform="scale(0.015625)"/>
       <path id="DejaVuSans-6e" d="M 3513 2113 
L 3513 0 
L 2938 0 
L 2938 2094 
Q 2938 2591 2744 2837 
Q 2550 3084 2163 3084 
Q 1697 3084 1428 2787 
Q 1159 2491 1159 1978 
L 1159 0 
L 581 0 
L 581 3500 
L 1159 3500 
L 1159 2956 
Q 1366 3272 1645 3428 
Q 1925 3584 2291 3584 
Q 2894 3584 3203 3211 
Q 3513 2838 3513 2113 
z
" transform="scale(0.015625)"/>
       <path id="DejaVuSans-67" d="M 2906 1791 
Q 2906 2416 2648 2759 
Q 2391 3103 1925 3103 
Q 1463 3103 1205 2759 
Q 947 2416 947 1791 
Q 947 1169 1205 825 
Q 1463 481 1925 481 
Q 2391 481 2648 825 
Q 2906 1169 2906 1791 
z
M 3481 434 
Q 3481 -459 3084 -895 
Q 2688 -1331 1869 -1331 
Q 1566 -1331 1297 -1286 
Q 1028 -1241 775 -1147 
L 775 -588 
Q 1028 -725 1275 -790 
Q 1522 -856 1778 -856 
Q 2344 -856 2625 -561 
Q 2906 -266 2906 331 
L 2906 616 
Q 2728 306 2450 153 
Q 2172 0 1784 0 
Q 1141 0 747 490 
Q 353 981 353 1791 
Q 353 2603 747 3093 
Q 1141 3584 1784 3584 
Q 2172 3584 2450 3431 
Q 2728 3278 2906 2969 
L 2906 3500 
L 3481 3500 
L 3481 434 
z
" transform="scale(0.015625)"/>
       <path id="DejaVuSans-20" transform="scale(0.015625)"/>
       <path id="DejaVuSans-5b" d="M 550 4863 
L 1875 4863 
L 1875 4416 
L 1125 4416 
L 1125 -397 
L 1875 -397 
L 1875 -844 
L 550 -844 
L 550 4863 
z
" transform="scale(0.015625)"/>
       <path id="DejaVuSans-c5" d="M 2663 5081 
Q 2663 5278 2523 5417 
Q 2384 5556 2188 5556 
Q 1988 5556 1852 5420 
Q 1716 5284 1716 5081 
Q 1716 4884 1853 4746 
Q 1991 4609 2188 4609 
Q 2384 4609 2523 4746 
Q 2663 4884 2663 5081 
z
M 2188 4044 
L 1338 1722 
L 3041 1722 
L 2188 4044 
z
M 1716 4366 
Q 1525 4494 1428 4673 
Q 1331 4853 1331 5081 
Q 1331 5441 1579 5691 
Q 1828 5941 2188 5941 
Q 2544 5941 2795 5689 
Q 3047 5438 3047 5081 
Q 3047 4863 2948 4678 
Q 2850 4494 2663 4366 
L 4325 0 
L 3669 0 
L 3244 1197 
L 1141 1197 
L 716 0 
L 50 0 
L 1716 4366 
z
" transform="scale(0.015625)"/>
       <path id="DejaVuSans-5d" d="M 1947 4863 
L 1947 -844 
L 622 -844 
L 622 -397 
L 1369 -397 
L 1369 4416 
L 622 4416 
L 622 4863 
L 1947 4863 
z
" transform="scale(0.015625)"/>
      </defs>
      <use xlink:href="#DejaVuSans-64"/>
      <use xlink:href="#DejaVuSans-73" transform="translate(63.476562 0)"/>
      <use xlink:href="#DejaVuSans-70" transform="translate(115.576172 0)"/>
      <use xlink:href="#DejaVuSans-61" transform="translate(179.052734 0)"/>
      <use xlink:href="#DejaVuSans-63" transform="translate(240.332031 0)"/>
      <use xlink:href="#DejaVuSans-69" transform="translate(295.3125 0)"/>
      <use xlink:href="#DejaVuSans-6e" transform="translate(323.095703 0)"/>
      <use xlink:href="#DejaVuSans-67" transform="translate(386.474609 0)"/>
      <use xlink:href="#DejaVuSans-20" transform="translate(449.951172 0)"/>
      <use xlink:href="#DejaVuSans-5b" transform="translate(481.738281 0)"/>
      <use xlink:href="#DejaVuSans-c5" transform="translate(520.751953 0)"/>
      <use xlink:href="#DejaVuSans-5d" transform="translate(589.160156 0)"/>
     </g>
    </g>
   </g>
   <g id="matplotlib.axis_2">
    <g id="ytick_1">
     <g id="line2d_10">
      <defs>
       <path id="m7d590af715" d="M 0 0 
L -3.5 0 
" style="stroke: #000000; stroke-width: 0.8"/>
      </defs>
      <g>
       <use xlink:href="#m7d590af715" x="40.603125" y="234.049619" style="stroke: #000000; stroke-width: 0.8"/>
      </g>
     </g>
     <g id="text_11">
      <!-- 0 -->
      <g transform="translate(27.240625 237.848838) scale(0.1 -0.1)">
       <use xlink:href="#DejaVuSans-30"/>
      </g>
     </g>
    </g>
    <g id="ytick_2">
     <g id="line2d_11">
      <g>
       <use xlink:href="#m7d590af715" x="40.603125" y="193.378461" style="stroke: #000000; stroke-width: 0.8"/>
      </g>
     </g>
     <g id="text_12">
      <!-- 5 -->
      <g transform="translate(27.240625 197.17768) scale(0.1 -0.1)">
       <use xlink:href="#DejaVuSans-35"/>
      </g>
     </g>
    </g>
    <g id="ytick_3">
     <g id="line2d_12">
      <g>
       <use xlink:href="#m7d590af715" x="40.603125" y="152.707302" style="stroke: #000000; stroke-width: 0.8"/>
      </g>
     </g>
     <g id="text_13">
      <!-- 10 -->
      <g transform="translate(20.878125 156.506521) scale(0.1 -0.1)">
       <use xlink:href="#DejaVuSans-31"/>
       <use xlink:href="#DejaVuSans-30" transform="translate(63.623047 0)"/>
      </g>
     </g>
    </g>
    <g id="ytick_4">
     <g id="line2d_13">
      <g>
       <use xlink:href="#m7d590af715" x="40.603125" y="112.036144" style="stroke: #000000; stroke-width: 0.8"/>
      </g>
     </g>
     <g id="text_14">
      <!-- 15 -->
      <g transform="translate(20.878125 115.835363) scale(0.1 -0.1)">
       <use xlink:href="#DejaVuSans-31"/>
       <use xlink:href="#DejaVuSans-35" transform="translate(63.623047 0)"/>
      </g>
     </g>
    </g>
    <g id="ytick_5">
     <g id="line2d_14">
      <g>
       <use xlink:href="#m7d590af715" x="40.603125" y="71.364985" style="stroke: #000000; stroke-width: 0.8"/>
      </g>
     </g>
     <g id="text_15">
      <!-- 20 -->
      <g transform="translate(20.878125 75.164204) scale(0.1 -0.1)">
       <use xlink:href="#DejaVuSans-32"/>
       <use xlink:href="#DejaVuSans-30" transform="translate(63.623047 0)"/>
      </g>
     </g>
    </g>
    <g id="ytick_6">
     <g id="line2d_15">
      <g>
       <use xlink:href="#m7d590af715" x="40.603125" y="30.693827" style="stroke: #000000; stroke-width: 0.8"/>
      </g>
     </g>
     <g id="text_16">
      <!-- 25 -->
      <g transform="translate(20.878125 34.493046) scale(0.1 -0.1)">
       <use xlink:href="#DejaVuSans-32"/>
       <use xlink:href="#DejaVuSans-35" transform="translate(63.623047 0)"/>
      </g>
     </g>
    </g>
    <g id="text_17">
     <!-- [dimensionless] -->
     <g transform="translate(14.798438 172.675469) rotate(-90) scale(0.1 -0.1)">
      <defs>
       <path id="DejaVuSans-6d" d="M 3328 2828 
Q 3544 3216 3844 3400 
Q 4144 3584 4550 3584 
Q 5097 3584 5394 3201 
Q 5691 2819 5691 2113 
L 5691 0 
L 5113 0 
L 5113 2094 
Q 5113 2597 4934 2840 
Q 4756 3084 4391 3084 
Q 3944 3084 3684 2787 
Q 3425 2491 3425 1978 
L 3425 0 
L 2847 0 
L 2847 2094 
Q 2847 2600 2669 2842 
Q 2491 3084 2119 3084 
Q 1678 3084 1418 2786 
Q 1159 2488 1159 1978 
L 1159 0 
L 581 0 
L 581 3500 
L 1159 3500 
L 1159 2956 
Q 1356 3278 1631 3431 
Q 1906 3584 2284 3584 
Q 2666 3584 2933 3390 
Q 3200 3197 3328 2828 
z
" transform="scale(0.015625)"/>
       <path id="DejaVuSans-65" d="M 3597 1894 
L 3597 1613 
L 953 1613 
Q 991 1019 1311 708 
Q 1631 397 2203 397 
Q 2534 397 2845 478 
Q 3156 559 3463 722 
L 3463 178 
Q 3153 47 2828 -22 
Q 2503 -91 2169 -91 
Q 1331 -91 842 396 
Q 353 884 353 1716 
Q 353 2575 817 3079 
Q 1281 3584 2069 3584 
Q 2775 3584 3186 3129 
Q 3597 2675 3597 1894 
z
M 3022 2063 
Q 3016 2534 2758 2815 
Q 2500 3097 2075 3097 
Q 1594 3097 1305 2825 
Q 1016 2553 972 2059 
L 3022 2063 
z
" transform="scale(0.015625)"/>
       <path id="DejaVuSans-6f" d="M 1959 3097 
Q 1497 3097 1228 2736 
Q 959 2375 959 1747 
Q 959 1119 1226 758 
Q 1494 397 1959 397 
Q 2419 397 2687 759 
Q 2956 1122 2956 1747 
Q 2956 2369 2687 2733 
Q 2419 3097 1959 3097 
z
M 1959 3584 
Q 2709 3584 3137 3096 
Q 3566 2609 3566 1747 
Q 3566 888 3137 398 
Q 2709 -91 1959 -91 
Q 1206 -91 779 398 
Q 353 888 353 1747 
Q 353 2609 779 3096 
Q 1206 3584 1959 3584 
z
" transform="scale(0.015625)"/>
       <path id="DejaVuSans-6c" d="M 603 4863 
L 1178 4863 
L 1178 0 
L 603 0 
L 603 4863 
z
" transform="scale(0.015625)"/>
      </defs>
      <use xlink:href="#DejaVuSans-5b"/>
      <use xlink:href="#DejaVuSans-64" transform="translate(39.013672 0)"/>
      <use xlink:href="#DejaVuSans-69" transform="translate(102.490234 0)"/>
      <use xlink:href="#DejaVuSans-6d" transform="translate(130.273438 0)"/>
      <use xlink:href="#DejaVuSans-65" transform="translate(227.685547 0)"/>
      <use xlink:href="#DejaVuSans-6e" transform="translate(289.208984 0)"/>
      <use xlink:href="#DejaVuSans-73" transform="translate(352.587891 0)"/>
      <use xlink:href="#DejaVuSans-69" transform="translate(404.6875 0)"/>
      <use xlink:href="#DejaVuSans-6f" transform="translate(432.470703 0)"/>
      <use xlink:href="#DejaVuSans-6e" transform="translate(493.652344 0)"/>
      <use xlink:href="#DejaVuSans-6c" transform="translate(557.03125 0)"/>
      <use xlink:href="#DejaVuSans-65" transform="translate(584.814453 0)"/>
      <use xlink:href="#DejaVuSans-73" transform="translate(646.337891 0)"/>
      <use xlink:href="#DejaVuSans-73" transform="translate(698.4375 0)"/>
      <use xlink:href="#DejaVuSans-5d" transform="translate(750.537109 0)"/>
     </g>
    </g>
   </g>
   <g id="line2d_16">
    <path d="M 55.821307 233.77487 
L 58.864943 233.768554 
L 58.864943 233.962599 
L 66.474034 233.884354 
L 66.474034 233.827905 
L 71.039489 233.748332 
L 71.039489 233.636398 
L 78.64858 233.602508 
L 78.64858 233.504495 
L 84.735852 233.415509 
L 84.735852 233.257682 
L 86.25767 233.257682 
L 86.25767 230.667374 
L 87.779489 230.667374 
L 87.779489 229.88879 
L 89.301307 229.88879 
L 89.301307 229.464441 
L 90.823125 229.464441 
L 90.823125 226.466125 
L 92.344943 226.466125 
L 92.344943 228.255217 
L 93.866761 228.255217 
L 93.866761 232.156706 
L 95.38858 232.156706 
L 95.38858 233.004004 
L 96.910398 233.004004 
L 96.910398 233.164242 
L 98.432216 233.164242 
L 98.432216 231.779979 
L 99.954034 231.779979 
L 99.954034 228.74972 
L 101.475852 228.74972 
L 101.475852 229.638458 
L 104.519489 229.624177 
L 104.519489 227.63306 
L 106.041307 227.63306 
L 106.041307 230.058966 
L 107.563125 230.058966 
L 107.563125 232.5321 
L 109.084943 232.5321 
L 109.084943 232.868693 
L 110.606761 232.868693 
L 110.606761 229.855658 
L 112.12858 229.855658 
L 112.12858 221.469183 
L 113.650398 221.469183 
L 113.650398 222.029525 
L 115.172216 222.029525 
L 115.172216 229.777547 
L 116.694034 229.777547 
L 116.694034 232.492804 
L 118.215852 232.492804 
L 118.215852 232.894703 
L 119.73767 232.894703 
L 119.73767 232.719524 
L 128.86858 232.611387 
L 128.86858 232.312519 
L 130.390398 232.312519 
L 130.390398 228.335363 
L 131.912216 228.335363 
L 131.912216 222.537846 
L 133.434034 222.537846 
L 133.434034 223.561555 
L 134.955852 223.561555 
L 134.955852 230.567413 
L 136.47767 230.567413 
L 136.47767 232.179169 
L 141.043125 232.093453 
L 141.043125 228.70232 
L 142.564943 228.70232 
L 142.564943 219.672431 
L 144.086761 219.672431 
L 144.086761 219.896357 
L 145.60858 219.896357 
L 145.60858 229.003364 
L 147.130398 229.003364 
L 147.130398 231.999634 
L 148.652216 231.999634 
L 148.652216 232.259977 
L 150.174034 232.259977 
L 150.174034 232.406702 
L 157.783125 232.345822 
L 157.783125 232.217438 
L 160.826761 232.256197 
L 160.826761 230.171861 
L 162.34858 230.171861 
L 162.34858 218.678751 
L 163.870398 218.678751 
L 163.870398 210.980332 
L 165.392216 210.980332 
L 165.392216 219.943341 
L 166.914034 219.943341 
L 166.914034 229.595481 
L 168.435852 229.595481 
L 168.435852 225.34052 
L 169.95767 225.34052 
L 169.95767 209.575985 
L 171.479489 209.575985 
L 171.479489 211.229936 
L 173.001307 211.229936 
L 173.001307 226.477566 
L 174.523125 226.477566 
L 174.523125 231.575778 
L 176.044943 231.575778 
L 176.044943 232.259864 
L 179.08858 232.163825 
L 179.08858 231.990643 
L 180.610398 231.990643 
L 180.610398 232.247047 
L 183.654034 232.314389 
L 183.654034 232.449275 
L 185.175852 232.449275 
L 185.175852 231.730573 
L 186.69767 231.730573 
L 186.69767 232.202233 
L 188.219489 232.202233 
L 188.219489 232.317539 
L 191.263125 232.400401 
L 191.263125 232.511207 
L 198.872216 232.56681 
L 198.872216 232.708036 
L 209.524943 232.737626 
L 209.524943 232.917462 
L 221.699489 232.845123 
L 221.699489 232.751873 
L 227.786761 232.656658 
L 227.786761 232.63657 
L 235.395852 232.635707 
L 235.395852 232.507938 
L 244.526761 232.535377 
L 244.526761 232.360205 
L 255.179489 232.276778 
L 255.179489 232.17063 
L 262.78858 232.106622 
L 262.78858 232.036295 
L 271.919489 231.953063 
L 271.919489 231.847618 
L 279.52858 231.76906 
L 279.52858 231.626903 
L 285.615852 231.640137 
L 285.615852 231.43193 
L 288.659489 231.327819 
L 288.659489 231.244582 
L 303.87767 231.148379 
L 303.87767 231.050027 
L 308.443125 230.989123 
L 308.443125 230.907283 
L 309.964943 230.907283 
L 309.964943 230.328781 
L 311.486761 230.328781 
L 311.486761 229.053275 
L 313.00858 229.053275 
L 313.00858 221.026452 
L 314.530398 221.026452 
L 314.530398 170.112872 
L 316.052216 170.112872 
L 316.052216 51.359845 
L 317.574034 51.359845 
L 317.574034 32.797046 
L 319.095852 32.797046 
L 319.095852 138.089026 
L 320.61767 138.089026 
L 320.61767 212.125513 
L 322.139489 212.125513 
L 322.139489 227.854652 
L 323.661307 227.854652 
L 323.661307 230.18158 
L 325.183125 230.18158 
L 325.183125 230.632485 
L 328.226761 230.689966 
L 328.226761 230.796981 
L 331.270398 230.85694 
L 331.270398 230.951685 
L 338.879489 230.892466 
L 338.879489 230.421672 
L 340.401307 230.421672 
L 340.401307 230.120795 
L 343.444943 230.213751 
L 343.444943 230.47144 
L 344.966761 230.47144 
L 344.966761 230.839959 
L 346.48858 230.839959 
L 346.48858 231.041208 
L 349.532216 230.99587 
L 349.532216 231.180875 
L 352.575852 231.195071 
L 352.575852 231.30701 
L 355.619489 231.221829 
L 355.619489 231.163329 
L 360.184943 231.273974 
L 360.184943 231.273974 
" clip-path="url(#p5914800978)" style="fill: none; stroke: #1f77b4; stroke-width: 1.5; stroke-linecap: square"/>
   </g>
   <g id="LineCollection_1">
    <path d="M 56.582216 233.933497 
L 56.582216 233.616243 
" clip-path="url(#p5914800978)" style="fill: none; stroke: #1f77b4; stroke-width: 1.5"/>
    <path d="M 58.104034 233.853298 
L 58.104034 233.683809 
" clip-path="url(#p5914800978)" style="fill: none; stroke: #1f77b4; stroke-width: 1.5"/>
    <path d="M 59.625852 233.998125 
L 59.625852 233.927073 
" clip-path="url(#p5914800978)" style="fill: none; stroke: #1f77b4; stroke-width: 1.5"/>
    <path d="M 61.14767 233.913133 
L 61.14767 233.825728 
" clip-path="url(#p5914800978)" style="fill: none; stroke: #1f77b4; stroke-width: 1.5"/>
    <path d="M 62.669489 233.943649 
L 62.669489 233.873002 
" clip-path="url(#p5914800978)" style="fill: none; stroke: #1f77b4; stroke-width: 1.5"/>
    <path d="M 64.191307 233.953592 
L 64.191307 233.892097 
" clip-path="url(#p5914800978)" style="fill: none; stroke: #1f77b4; stroke-width: 1.5"/>
    <path d="M 65.713125 233.917407 
L 65.713125 233.851301 
" clip-path="url(#p5914800978)" style="fill: none; stroke: #1f77b4; stroke-width: 1.5"/>
    <path d="M 67.234943 233.863872 
L 67.234943 233.791939 
" clip-path="url(#p5914800978)" style="fill: none; stroke: #1f77b4; stroke-width: 1.5"/>
    <path d="M 68.756761 233.792519 
L 68.756761 233.711522 
" clip-path="url(#p5914800978)" style="fill: none; stroke: #1f77b4; stroke-width: 1.5"/>
    <path d="M 70.27858 233.788593 
L 70.27858 233.708071 
" clip-path="url(#p5914800978)" style="fill: none; stroke: #1f77b4; stroke-width: 1.5"/>
    <path d="M 71.800398 233.679715 
L 71.800398 233.593081 
" clip-path="url(#p5914800978)" style="fill: none; stroke: #1f77b4; stroke-width: 1.5"/>
    <path d="M 73.322216 233.674386 
L 73.322216 233.591001 
" clip-path="url(#p5914800978)" style="fill: none; stroke: #1f77b4; stroke-width: 1.5"/>
    <path d="M 74.844034 233.673169 
L 74.844034 233.591314 
" clip-path="url(#p5914800978)" style="fill: none; stroke: #1f77b4; stroke-width: 1.5"/>
    <path d="M 76.365852 233.668178 
L 76.365852 233.590465 
" clip-path="url(#p5914800978)" style="fill: none; stroke: #1f77b4; stroke-width: 1.5"/>
    <path d="M 77.88767 233.64234 
L 77.88767 233.562677 
" clip-path="url(#p5914800978)" style="fill: none; stroke: #1f77b4; stroke-width: 1.5"/>
    <path d="M 79.409489 233.546552 
L 79.409489 233.462438 
" clip-path="url(#p5914800978)" style="fill: none; stroke: #1f77b4; stroke-width: 1.5"/>
    <path d="M 80.931307 233.466418 
L 80.931307 233.378836 
" clip-path="url(#p5914800978)" style="fill: none; stroke: #1f77b4; stroke-width: 1.5"/>
    <path d="M 82.453125 233.503393 
L 82.453125 233.421148 
" clip-path="url(#p5914800978)" style="fill: none; stroke: #1f77b4; stroke-width: 1.5"/>
    <path d="M 83.974943 233.457051 
L 83.974943 233.373967 
" clip-path="url(#p5914800978)" style="fill: none; stroke: #1f77b4; stroke-width: 1.5"/>
    <path d="M 85.496761 233.303328 
L 85.496761 233.212035 
" clip-path="url(#p5914800978)" style="fill: none; stroke: #1f77b4; stroke-width: 1.5"/>
    <path d="M 87.01858 230.760047 
L 87.01858 230.574701 
" clip-path="url(#p5914800978)" style="fill: none; stroke: #1f77b4; stroke-width: 1.5"/>
    <path d="M 88.540398 229.991006 
L 88.540398 229.786574 
" clip-path="url(#p5914800978)" style="fill: none; stroke: #1f77b4; stroke-width: 1.5"/>
    <path d="M 90.062216 229.568222 
L 90.062216 229.360661 
" clip-path="url(#p5914800978)" style="fill: none; stroke: #1f77b4; stroke-width: 1.5"/>
    <path d="M 91.584034 226.596797 
L 91.584034 226.335452 
" clip-path="url(#p5914800978)" style="fill: none; stroke: #1f77b4; stroke-width: 1.5"/>
    <path d="M 93.105852 228.366279 
L 93.105852 228.144155 
" clip-path="url(#p5914800978)" style="fill: none; stroke: #1f77b4; stroke-width: 1.5"/>
    <path d="M 94.62767 232.219284 
L 94.62767 232.094128 
" clip-path="url(#p5914800978)" style="fill: none; stroke: #1f77b4; stroke-width: 1.5"/>
    <path d="M 96.149489 233.050169 
L 96.149489 232.957839 
" clip-path="url(#p5914800978)" style="fill: none; stroke: #1f77b4; stroke-width: 1.5"/>
    <path d="M 97.671307 233.205704 
L 97.671307 233.122781 
" clip-path="url(#p5914800978)" style="fill: none; stroke: #1f77b4; stroke-width: 1.5"/>
    <path d="M 99.193125 231.844484 
L 99.193125 231.715473 
" clip-path="url(#p5914800978)" style="fill: none; stroke: #1f77b4; stroke-width: 1.5"/>
    <path d="M 100.714943 228.85022 
L 100.714943 228.64922 
" clip-path="url(#p5914800978)" style="fill: none; stroke: #1f77b4; stroke-width: 1.5"/>
    <path d="M 102.236761 229.726858 
L 102.236761 229.550057 
" clip-path="url(#p5914800978)" style="fill: none; stroke: #1f77b4; stroke-width: 1.5"/>
    <path d="M 103.75858 229.713186 
L 103.75858 229.535168 
" clip-path="url(#p5914800978)" style="fill: none; stroke: #1f77b4; stroke-width: 1.5"/>
    <path d="M 105.280398 227.738604 
L 105.280398 227.527515 
" clip-path="url(#p5914800978)" style="fill: none; stroke: #1f77b4; stroke-width: 1.5"/>
    <path d="M 106.802216 230.141234 
L 106.802216 229.976697 
" clip-path="url(#p5914800978)" style="fill: none; stroke: #1f77b4; stroke-width: 1.5"/>
    <path d="M 108.324034 232.582996 
L 108.324034 232.481204 
" clip-path="url(#p5914800978)" style="fill: none; stroke: #1f77b4; stroke-width: 1.5"/>
    <path d="M 109.845852 232.913169 
L 109.845852 232.824217 
" clip-path="url(#p5914800978)" style="fill: none; stroke: #1f77b4; stroke-width: 1.5"/>
    <path d="M 111.36767 229.936 
L 111.36767 229.775316 
" clip-path="url(#p5914800978)" style="fill: none; stroke: #1f77b4; stroke-width: 1.5"/>
    <path d="M 112.889489 221.610358 
L 112.889489 221.328008 
" clip-path="url(#p5914800978)" style="fill: none; stroke: #1f77b4; stroke-width: 1.5"/>
    <path d="M 114.411307 222.165296 
L 114.411307 221.893755 
" clip-path="url(#p5914800978)" style="fill: none; stroke: #1f77b4; stroke-width: 1.5"/>
    <path d="M 115.933125 229.858397 
L 115.933125 229.696697 
" clip-path="url(#p5914800978)" style="fill: none; stroke: #1f77b4; stroke-width: 1.5"/>
    <path d="M 117.454943 232.540598 
L 117.454943 232.445009 
" clip-path="url(#p5914800978)" style="fill: none; stroke: #1f77b4; stroke-width: 1.5"/>
    <path d="M 118.976761 232.935561 
L 118.976761 232.853845 
" clip-path="url(#p5914800978)" style="fill: none; stroke: #1f77b4; stroke-width: 1.5"/>
    <path d="M 120.49858 232.76391 
L 120.49858 232.675138 
" clip-path="url(#p5914800978)" style="fill: none; stroke: #1f77b4; stroke-width: 1.5"/>
    <path d="M 122.020398 232.731666 
L 122.020398 232.642301 
" clip-path="url(#p5914800978)" style="fill: none; stroke: #1f77b4; stroke-width: 1.5"/>
    <path d="M 123.542216 232.799939 
L 123.542216 232.713455 
" clip-path="url(#p5914800978)" style="fill: none; stroke: #1f77b4; stroke-width: 1.5"/>
    <path d="M 125.064034 232.737794 
L 125.064034 232.649721 
" clip-path="url(#p5914800978)" style="fill: none; stroke: #1f77b4; stroke-width: 1.5"/>
    <path d="M 126.585852 232.690833 
L 126.585852 232.601111 
" clip-path="url(#p5914800978)" style="fill: none; stroke: #1f77b4; stroke-width: 1.5"/>
    <path d="M 128.10767 232.655985 
L 128.10767 232.566789 
" clip-path="url(#p5914800978)" style="fill: none; stroke: #1f77b4; stroke-width: 1.5"/>
    <path d="M 129.629489 232.361378 
L 129.629489 232.263659 
" clip-path="url(#p5914800978)" style="fill: none; stroke: #1f77b4; stroke-width: 1.5"/>
    <path d="M 131.151307 228.422424 
L 131.151307 228.248303 
" clip-path="url(#p5914800978)" style="fill: none; stroke: #1f77b4; stroke-width: 1.5"/>
    <path d="M 132.673125 222.659482 
L 132.673125 222.416211 
" clip-path="url(#p5914800978)" style="fill: none; stroke: #1f77b4; stroke-width: 1.5"/>
    <path d="M 134.194943 223.679436 
L 134.194943 223.443674 
" clip-path="url(#p5914800978)" style="fill: none; stroke: #1f77b4; stroke-width: 1.5"/>
    <path d="M 135.716761 230.633291 
L 135.716761 230.501535 
" clip-path="url(#p5914800978)" style="fill: none; stroke: #1f77b4; stroke-width: 1.5"/>
    <path d="M 137.23858 232.227855 
L 137.23858 232.130483 
" clip-path="url(#p5914800978)" style="fill: none; stroke: #1f77b4; stroke-width: 1.5"/>
    <path d="M 138.760398 232.327561 
L 138.760398 232.231856 
" clip-path="url(#p5914800978)" style="fill: none; stroke: #1f77b4; stroke-width: 1.5"/>
    <path d="M 140.282216 232.143382 
L 140.282216 232.043524 
" clip-path="url(#p5914800978)" style="fill: none; stroke: #1f77b4; stroke-width: 1.5"/>
    <path d="M 141.804034 228.783479 
L 141.804034 228.62116 
" clip-path="url(#p5914800978)" style="fill: none; stroke: #1f77b4; stroke-width: 1.5"/>
    <path d="M 143.325852 219.806476 
L 143.325852 219.538386 
" clip-path="url(#p5914800978)" style="fill: none; stroke: #1f77b4; stroke-width: 1.5"/>
    <path d="M 144.84767 220.028556 
L 144.84767 219.764159 
" clip-path="url(#p5914800978)" style="fill: none; stroke: #1f77b4; stroke-width: 1.5"/>
    <path d="M 146.369489 229.081109 
L 146.369489 228.925619 
" clip-path="url(#p5914800978)" style="fill: none; stroke: #1f77b4; stroke-width: 1.5"/>
    <path d="M 147.891307 232.04915 
L 147.891307 231.950118 
" clip-path="url(#p5914800978)" style="fill: none; stroke: #1f77b4; stroke-width: 1.5"/>
    <path d="M 149.413125 232.30683 
L 149.413125 232.213124 
" clip-path="url(#p5914800978)" style="fill: none; stroke: #1f77b4; stroke-width: 1.5"/>
    <path d="M 150.934943 232.450316 
L 150.934943 232.363089 
" clip-path="url(#p5914800978)" style="fill: none; stroke: #1f77b4; stroke-width: 1.5"/>
    <path d="M 152.456761 232.45365 
L 152.456761 232.366031 
" clip-path="url(#p5914800978)" style="fill: none; stroke: #1f77b4; stroke-width: 1.5"/>
    <path d="M 153.97858 232.411868 
L 153.97858 232.323871 
" clip-path="url(#p5914800978)" style="fill: none; stroke: #1f77b4; stroke-width: 1.5"/>
    <path d="M 155.500398 232.345902 
L 155.500398 232.254458 
" clip-path="url(#p5914800978)" style="fill: none; stroke: #1f77b4; stroke-width: 1.5"/>
    <path d="M 157.022216 232.389682 
L 157.022216 232.301961 
" clip-path="url(#p5914800978)" style="fill: none; stroke: #1f77b4; stroke-width: 1.5"/>
    <path d="M 158.544034 232.26396 
L 158.544034 232.170915 
" clip-path="url(#p5914800978)" style="fill: none; stroke: #1f77b4; stroke-width: 1.5"/>
    <path d="M 160.065852 232.300976 
L 160.065852 232.211417 
" clip-path="url(#p5914800978)" style="fill: none; stroke: #1f77b4; stroke-width: 1.5"/>
    <path d="M 161.58767 230.238237 
L 161.58767 230.105484 
" clip-path="url(#p5914800978)" style="fill: none; stroke: #1f77b4; stroke-width: 1.5"/>
    <path d="M 163.109489 218.811338 
L 163.109489 218.546165 
" clip-path="url(#p5914800978)" style="fill: none; stroke: #1f77b4; stroke-width: 1.5"/>
    <path d="M 164.631307 211.139674 
L 164.631307 210.820991 
" clip-path="url(#p5914800978)" style="fill: none; stroke: #1f77b4; stroke-width: 1.5"/>
    <path d="M 166.153125 220.068 
L 166.153125 219.818683 
" clip-path="url(#p5914800978)" style="fill: none; stroke: #1f77b4; stroke-width: 1.5"/>
    <path d="M 167.674943 229.665863 
L 167.674943 229.525099 
" clip-path="url(#p5914800978)" style="fill: none; stroke: #1f77b4; stroke-width: 1.5"/>
    <path d="M 169.196761 225.436931 
L 169.196761 225.244109 
" clip-path="url(#p5914800978)" style="fill: none; stroke: #1f77b4; stroke-width: 1.5"/>
    <path d="M 170.71858 209.740127 
L 170.71858 209.411843 
" clip-path="url(#p5914800978)" style="fill: none; stroke: #1f77b4; stroke-width: 1.5"/>
    <path d="M 172.240398 211.388189 
L 172.240398 211.071683 
" clip-path="url(#p5914800978)" style="fill: none; stroke: #1f77b4; stroke-width: 1.5"/>
    <path d="M 173.762216 226.568506 
L 173.762216 226.386627 
" clip-path="url(#p5914800978)" style="fill: none; stroke: #1f77b4; stroke-width: 1.5"/>
    <path d="M 175.284034 231.627519 
L 175.284034 231.524037 
" clip-path="url(#p5914800978)" style="fill: none; stroke: #1f77b4; stroke-width: 1.5"/>
    <path d="M 176.805852 232.304032 
L 176.805852 232.215697 
" clip-path="url(#p5914800978)" style="fill: none; stroke: #1f77b4; stroke-width: 1.5"/>
    <path d="M 178.32767 232.208943 
L 178.32767 232.118707 
" clip-path="url(#p5914800978)" style="fill: none; stroke: #1f77b4; stroke-width: 1.5"/>
    <path d="M 179.849489 232.03863 
L 179.849489 231.942656 
" clip-path="url(#p5914800978)" style="fill: none; stroke: #1f77b4; stroke-width: 1.5"/>
    <path d="M 181.371307 232.291423 
L 181.371307 232.20267 
" clip-path="url(#p5914800978)" style="fill: none; stroke: #1f77b4; stroke-width: 1.5"/>
    <path d="M 182.893125 232.357342 
L 182.893125 232.271435 
" clip-path="url(#p5914800978)" style="fill: none; stroke: #1f77b4; stroke-width: 1.5"/>
    <path d="M 184.414943 232.490135 
L 184.414943 232.408415 
" clip-path="url(#p5914800978)" style="fill: none; stroke: #1f77b4; stroke-width: 1.5"/>
    <path d="M 185.936761 231.780004 
L 185.936761 231.681142 
" clip-path="url(#p5914800978)" style="fill: none; stroke: #1f77b4; stroke-width: 1.5"/>
    <path d="M 187.45858 232.246008 
L 187.45858 232.158458 
" clip-path="url(#p5914800978)" style="fill: none; stroke: #1f77b4; stroke-width: 1.5"/>
    <path d="M 188.980398 232.360283 
L 188.980398 232.274794 
" clip-path="url(#p5914800978)" style="fill: none; stroke: #1f77b4; stroke-width: 1.5"/>
    <path d="M 190.502216 232.441709 
L 190.502216 232.359093 
" clip-path="url(#p5914800978)" style="fill: none; stroke: #1f77b4; stroke-width: 1.5"/>
    <path d="M 192.024034 232.551035 
L 192.024034 232.471379 
" clip-path="url(#p5914800978)" style="fill: none; stroke: #1f77b4; stroke-width: 1.5"/>
    <path d="M 193.545852 232.568494 
L 193.545852 232.489439 
" clip-path="url(#p5914800978)" style="fill: none; stroke: #1f77b4; stroke-width: 1.5"/>
    <path d="M 195.06767 232.571827 
L 195.06767 232.493384 
" clip-path="url(#p5914800978)" style="fill: none; stroke: #1f77b4; stroke-width: 1.5"/>
    <path d="M 196.589489 232.658786 
L 196.589489 232.582317 
" clip-path="url(#p5914800978)" style="fill: none; stroke: #1f77b4; stroke-width: 1.5"/>
    <path d="M 198.111307 232.605524 
L 198.111307 232.528095 
" clip-path="url(#p5914800978)" style="fill: none; stroke: #1f77b4; stroke-width: 1.5"/>
    <path d="M 199.633125 232.74492 
L 199.633125 232.671152 
" clip-path="url(#p5914800978)" style="fill: none; stroke: #1f77b4; stroke-width: 1.5"/>
    <path d="M 201.154943 232.743827 
L 201.154943 232.669388 
" clip-path="url(#p5914800978)" style="fill: none; stroke: #1f77b4; stroke-width: 1.5"/>
    <path d="M 202.676761 232.739797 
L 202.676761 232.664979 
" clip-path="url(#p5914800978)" style="fill: none; stroke: #1f77b4; stroke-width: 1.5"/>
    <path d="M 204.19858 232.789682 
L 204.19858 232.717282 
" clip-path="url(#p5914800978)" style="fill: none; stroke: #1f77b4; stroke-width: 1.5"/>
    <path d="M 205.720398 232.783773 
L 205.720398 232.710323 
" clip-path="url(#p5914800978)" style="fill: none; stroke: #1f77b4; stroke-width: 1.5"/>
    <path d="M 207.242216 232.831608 
L 207.242216 232.760437 
" clip-path="url(#p5914800978)" style="fill: none; stroke: #1f77b4; stroke-width: 1.5"/>
    <path d="M 208.764034 232.774929 
L 208.764034 232.700323 
" clip-path="url(#p5914800978)" style="fill: none; stroke: #1f77b4; stroke-width: 1.5"/>
    <path d="M 210.285852 232.951944 
L 210.285852 232.882979 
" clip-path="url(#p5914800978)" style="fill: none; stroke: #1f77b4; stroke-width: 1.5"/>
    <path d="M 211.80767 232.942702 
L 211.80767 232.87391 
" clip-path="url(#p5914800978)" style="fill: none; stroke: #1f77b4; stroke-width: 1.5"/>
    <path d="M 213.329489 232.854485 
L 213.329489 232.782181 
" clip-path="url(#p5914800978)" style="fill: none; stroke: #1f77b4; stroke-width: 1.5"/>
    <path d="M 214.851307 232.89837 
L 214.851307 232.827089 
" clip-path="url(#p5914800978)" style="fill: none; stroke: #1f77b4; stroke-width: 1.5"/>
    <path d="M 216.373125 232.894253 
L 216.373125 232.823276 
" clip-path="url(#p5914800978)" style="fill: none; stroke: #1f77b4; stroke-width: 1.5"/>
    <path d="M 217.894943 232.900227 
L 217.894943 232.829745 
" clip-path="url(#p5914800978)" style="fill: none; stroke: #1f77b4; stroke-width: 1.5"/>
    <path d="M 219.416761 232.859753 
L 219.416761 232.788022 
" clip-path="url(#p5914800978)" style="fill: none; stroke: #1f77b4; stroke-width: 1.5"/>
    <path d="M 220.93858 232.880307 
L 220.93858 232.809939 
" clip-path="url(#p5914800978)" style="fill: none; stroke: #1f77b4; stroke-width: 1.5"/>
    <path d="M 222.460398 232.788952 
L 222.460398 232.714795 
" clip-path="url(#p5914800978)" style="fill: none; stroke: #1f77b4; stroke-width: 1.5"/>
    <path d="M 223.982216 232.737679 
L 223.982216 232.663357 
" clip-path="url(#p5914800978)" style="fill: none; stroke: #1f77b4; stroke-width: 1.5"/>
    <path d="M 225.504034 232.780499 
L 225.504034 232.707513 
" clip-path="url(#p5914800978)" style="fill: none; stroke: #1f77b4; stroke-width: 1.5"/>
    <path d="M 227.025852 232.69471 
L 227.025852 232.618605 
" clip-path="url(#p5914800978)" style="fill: none; stroke: #1f77b4; stroke-width: 1.5"/>
    <path d="M 228.54767 232.675201 
L 228.54767 232.59794 
" clip-path="url(#p5914800978)" style="fill: none; stroke: #1f77b4; stroke-width: 1.5"/>
    <path d="M 230.069489 232.719216 
L 230.069489 232.644198 
" clip-path="url(#p5914800978)" style="fill: none; stroke: #1f77b4; stroke-width: 1.5"/>
    <path d="M 231.591307 232.623623 
L 231.591307 232.546128 
" clip-path="url(#p5914800978)" style="fill: none; stroke: #1f77b4; stroke-width: 1.5"/>
    <path d="M 233.113125 232.580566 
L 233.113125 232.502372 
" clip-path="url(#p5914800978)" style="fill: none; stroke: #1f77b4; stroke-width: 1.5"/>
    <path d="M 234.634943 232.672787 
L 234.634943 232.598627 
" clip-path="url(#p5914800978)" style="fill: none; stroke: #1f77b4; stroke-width: 1.5"/>
    <path d="M 236.156761 232.547404 
L 236.156761 232.468473 
" clip-path="url(#p5914800978)" style="fill: none; stroke: #1f77b4; stroke-width: 1.5"/>
    <path d="M 237.67858 232.600065 
L 237.67858 232.523849 
" clip-path="url(#p5914800978)" style="fill: none; stroke: #1f77b4; stroke-width: 1.5"/>
    <path d="M 239.200398 232.589248 
L 239.200398 232.512047 
" clip-path="url(#p5914800978)" style="fill: none; stroke: #1f77b4; stroke-width: 1.5"/>
    <path d="M 240.722216 232.517519 
L 240.722216 232.438312 
" clip-path="url(#p5914800978)" style="fill: none; stroke: #1f77b4; stroke-width: 1.5"/>
    <path d="M 242.244034 232.553664 
L 242.244034 232.475766 
" clip-path="url(#p5914800978)" style="fill: none; stroke: #1f77b4; stroke-width: 1.5"/>
    <path d="M 243.765852 232.573851 
L 243.765852 232.496903 
" clip-path="url(#p5914800978)" style="fill: none; stroke: #1f77b4; stroke-width: 1.5"/>
    <path d="M 245.28767 232.400976 
L 245.28767 232.319434 
" clip-path="url(#p5914800978)" style="fill: none; stroke: #1f77b4; stroke-width: 1.5"/>
    <path d="M 246.809489 232.445003 
L 246.809489 232.365257 
" clip-path="url(#p5914800978)" style="fill: none; stroke: #1f77b4; stroke-width: 1.5"/>
    <path d="M 248.331307 232.376257 
L 248.331307 232.294224 
" clip-path="url(#p5914800978)" style="fill: none; stroke: #1f77b4; stroke-width: 1.5"/>
    <path d="M 249.853125 232.334185 
L 249.853125 232.251531 
" clip-path="url(#p5914800978)" style="fill: none; stroke: #1f77b4; stroke-width: 1.5"/>
    <path d="M 251.374943 232.304207 
L 251.374943 232.221321 
" clip-path="url(#p5914800978)" style="fill: none; stroke: #1f77b4; stroke-width: 1.5"/>
    <path d="M 252.896761 232.316156 
L 252.896761 232.234376 
" clip-path="url(#p5914800978)" style="fill: none; stroke: #1f77b4; stroke-width: 1.5"/>
    <path d="M 254.41858 232.317731 
L 254.41858 232.235826 
" clip-path="url(#p5914800978)" style="fill: none; stroke: #1f77b4; stroke-width: 1.5"/>
    <path d="M 255.940398 232.213051 
L 255.940398 232.12821 
" clip-path="url(#p5914800978)" style="fill: none; stroke: #1f77b4; stroke-width: 1.5"/>
    <path d="M 257.462216 232.136093 
L 257.462216 232.051007 
" clip-path="url(#p5914800978)" style="fill: none; stroke: #1f77b4; stroke-width: 1.5"/>
    <path d="M 258.984034 232.167024 
L 258.984034 232.082532 
" clip-path="url(#p5914800978)" style="fill: none; stroke: #1f77b4; stroke-width: 1.5"/>
    <path d="M 260.505852 232.265986 
L 260.505852 232.183483 
" clip-path="url(#p5914800978)" style="fill: none; stroke: #1f77b4; stroke-width: 1.5"/>
    <path d="M 262.02767 232.149154 
L 262.02767 232.064091 
" clip-path="url(#p5914800978)" style="fill: none; stroke: #1f77b4; stroke-width: 1.5"/>
    <path d="M 263.549489 232.079152 
L 263.549489 231.993439 
" clip-path="url(#p5914800978)" style="fill: none; stroke: #1f77b4; stroke-width: 1.5"/>
    <path d="M 265.071307 232.027927 
L 265.071307 231.941105 
" clip-path="url(#p5914800978)" style="fill: none; stroke: #1f77b4; stroke-width: 1.5"/>
    <path d="M 266.593125 232.050907 
L 266.593125 231.966304 
" clip-path="url(#p5914800978)" style="fill: none; stroke: #1f77b4; stroke-width: 1.5"/>
    <path d="M 268.114943 232.021638 
L 268.114943 231.935645 
" clip-path="url(#p5914800978)" style="fill: none; stroke: #1f77b4; stroke-width: 1.5"/>
    <path d="M 269.636761 232.002599 
L 269.636761 231.91646 
" clip-path="url(#p5914800978)" style="fill: none; stroke: #1f77b4; stroke-width: 1.5"/>
    <path d="M 271.15858 231.996211 
L 271.15858 231.909915 
" clip-path="url(#p5914800978)" style="fill: none; stroke: #1f77b4; stroke-width: 1.5"/>
    <path d="M 272.680398 231.892078 
L 272.680398 231.803158 
" clip-path="url(#p5914800978)" style="fill: none; stroke: #1f77b4; stroke-width: 1.5"/>
    <path d="M 274.202216 231.886801 
L 274.202216 231.797996 
" clip-path="url(#p5914800978)" style="fill: none; stroke: #1f77b4; stroke-width: 1.5"/>
    <path d="M 275.724034 231.813101 
L 275.724034 231.722423 
" clip-path="url(#p5914800978)" style="fill: none; stroke: #1f77b4; stroke-width: 1.5"/>
    <path d="M 277.245852 231.819747 
L 277.245852 231.731192 
" clip-path="url(#p5914800978)" style="fill: none; stroke: #1f77b4; stroke-width: 1.5"/>
    <path d="M 278.76767 231.813453 
L 278.76767 231.724666 
" clip-path="url(#p5914800978)" style="fill: none; stroke: #1f77b4; stroke-width: 1.5"/>
    <path d="M 280.289489 231.673195 
L 280.289489 231.580611 
" clip-path="url(#p5914800978)" style="fill: none; stroke: #1f77b4; stroke-width: 1.5"/>
    <path d="M 281.811307 231.668311 
L 281.811307 231.575708 
" clip-path="url(#p5914800978)" style="fill: none; stroke: #1f77b4; stroke-width: 1.5"/>
    <path d="M 283.333125 231.612706 
L 283.333125 231.521067 
" clip-path="url(#p5914800978)" style="fill: none; stroke: #1f77b4; stroke-width: 1.5"/>
    <path d="M 284.854943 231.685129 
L 284.854943 231.595145 
" clip-path="url(#p5914800978)" style="fill: none; stroke: #1f77b4; stroke-width: 1.5"/>
    <path d="M 286.376761 231.479399 
L 286.376761 231.384461 
" clip-path="url(#p5914800978)" style="fill: none; stroke: #1f77b4; stroke-width: 1.5"/>
    <path d="M 287.89858 231.375994 
L 287.89858 231.279643 
" clip-path="url(#p5914800978)" style="fill: none; stroke: #1f77b4; stroke-width: 1.5"/>
    <path d="M 289.420398 231.293635 
L 289.420398 231.195529 
" clip-path="url(#p5914800978)" style="fill: none; stroke: #1f77b4; stroke-width: 1.5"/>
    <path d="M 290.942216 231.362466 
L 290.942216 231.26592 
" clip-path="url(#p5914800978)" style="fill: none; stroke: #1f77b4; stroke-width: 1.5"/>
    <path d="M 292.464034 231.285835 
L 292.464034 231.18886 
" clip-path="url(#p5914800978)" style="fill: none; stroke: #1f77b4; stroke-width: 1.5"/>
    <path d="M 293.985852 231.392682 
L 293.985852 231.298381 
" clip-path="url(#p5914800978)" style="fill: none; stroke: #1f77b4; stroke-width: 1.5"/>
    <path d="M 295.50767 231.2819 
L 295.50767 231.184074 
" clip-path="url(#p5914800978)" style="fill: none; stroke: #1f77b4; stroke-width: 1.5"/>
    <path d="M 297.029489 231.223751 
L 297.029489 231.125 
" clip-path="url(#p5914800978)" style="fill: none; stroke: #1f77b4; stroke-width: 1.5"/>
    <path d="M 298.551307 231.358189 
L 298.551307 231.26306 
" clip-path="url(#p5914800978)" style="fill: none; stroke: #1f77b4; stroke-width: 1.5"/>
    <path d="M 300.073125 231.283545 
L 300.073125 231.187939 
" clip-path="url(#p5914800978)" style="fill: none; stroke: #1f77b4; stroke-width: 1.5"/>
    <path d="M 301.594943 231.259213 
L 301.594943 231.162696 
" clip-path="url(#p5914800978)" style="fill: none; stroke: #1f77b4; stroke-width: 1.5"/>
    <path d="M 303.116761 231.197489 
L 303.116761 231.099269 
" clip-path="url(#p5914800978)" style="fill: none; stroke: #1f77b4; stroke-width: 1.5"/>
    <path d="M 304.63858 231.09967 
L 304.63858 231.000384 
" clip-path="url(#p5914800978)" style="fill: none; stroke: #1f77b4; stroke-width: 1.5"/>
    <path d="M 306.160398 231.029362 
L 306.160398 230.929042 
" clip-path="url(#p5914800978)" style="fill: none; stroke: #1f77b4; stroke-width: 1.5"/>
    <path d="M 307.682216 231.039295 
L 307.682216 230.938951 
" clip-path="url(#p5914800978)" style="fill: none; stroke: #1f77b4; stroke-width: 1.5"/>
    <path d="M 309.204034 230.957174 
L 309.204034 230.857392 
" clip-path="url(#p5914800978)" style="fill: none; stroke: #1f77b4; stroke-width: 1.5"/>
    <path d="M 310.725852 230.383511 
L 310.725852 230.274051 
" clip-path="url(#p5914800978)" style="fill: none; stroke: #1f77b4; stroke-width: 1.5"/>
    <path d="M 312.24767 229.116944 
L 312.24767 228.989605 
" clip-path="url(#p5914800978)" style="fill: none; stroke: #1f77b4; stroke-width: 1.5"/>
    <path d="M 313.769489 221.129092 
L 313.769489 220.923812 
" clip-path="url(#p5914800978)" style="fill: none; stroke: #1f77b4; stroke-width: 1.5"/>
    <path d="M 315.291307 170.339185 
L 315.291307 169.886558 
" clip-path="url(#p5914800978)" style="fill: none; stroke: #1f77b4; stroke-width: 1.5"/>
    <path d="M 316.813125 51.739997 
L 316.813125 50.979693 
" clip-path="url(#p5914800978)" style="fill: none; stroke: #1f77b4; stroke-width: 1.5"/>
    <path d="M 318.334943 33.195966 
L 318.334943 32.398125 
" clip-path="url(#p5914800978)" style="fill: none; stroke: #1f77b4; stroke-width: 1.5"/>
    <path d="M 319.856761 138.364958 
L 319.856761 137.813095 
" clip-path="url(#p5914800978)" style="fill: none; stroke: #1f77b4; stroke-width: 1.5"/>
    <path d="M 321.37858 212.257053 
L 321.37858 211.993974 
" clip-path="url(#p5914800978)" style="fill: none; stroke: #1f77b4; stroke-width: 1.5"/>
    <path d="M 322.900398 227.923953 
L 322.900398 227.785351 
" clip-path="url(#p5914800978)" style="fill: none; stroke: #1f77b4; stroke-width: 1.5"/>
    <path d="M 324.422216 230.236759 
L 324.422216 230.126401 
" clip-path="url(#p5914800978)" style="fill: none; stroke: #1f77b4; stroke-width: 1.5"/>
    <path d="M 325.944034 230.684265 
L 325.944034 230.580704 
" clip-path="url(#p5914800978)" style="fill: none; stroke: #1f77b4; stroke-width: 1.5"/>
    <path d="M 327.465852 230.741177 
L 327.465852 230.638756 
" clip-path="url(#p5914800978)" style="fill: none; stroke: #1f77b4; stroke-width: 1.5"/>
    <path d="M 328.98767 230.847612 
L 328.98767 230.74635 
" clip-path="url(#p5914800978)" style="fill: none; stroke: #1f77b4; stroke-width: 1.5"/>
    <path d="M 330.509489 230.906893 
L 330.509489 230.806988 
" clip-path="url(#p5914800978)" style="fill: none; stroke: #1f77b4; stroke-width: 1.5"/>
    <path d="M 332.031307 231.000729 
L 332.031307 230.902641 
" clip-path="url(#p5914800978)" style="fill: none; stroke: #1f77b4; stroke-width: 1.5"/>
    <path d="M 333.553125 231.09903 
L 333.553125 231.002809 
" clip-path="url(#p5914800978)" style="fill: none; stroke: #1f77b4; stroke-width: 1.5"/>
    <path d="M 335.074943 231.047594 
L 335.074943 230.949824 
" clip-path="url(#p5914800978)" style="fill: none; stroke: #1f77b4; stroke-width: 1.5"/>
    <path d="M 336.596761 230.996437 
L 336.596761 230.898148 
" clip-path="url(#p5914800978)" style="fill: none; stroke: #1f77b4; stroke-width: 1.5"/>
    <path d="M 338.11858 230.942763 
L 338.11858 230.842168 
" clip-path="url(#p5914800978)" style="fill: none; stroke: #1f77b4; stroke-width: 1.5"/>
    <path d="M 339.640398 230.475492 
L 339.640398 230.367852 
" clip-path="url(#p5914800978)" style="fill: none; stroke: #1f77b4; stroke-width: 1.5"/>
    <path d="M 341.162216 230.177765 
L 341.162216 230.063826 
" clip-path="url(#p5914800978)" style="fill: none; stroke: #1f77b4; stroke-width: 1.5"/>
    <path d="M 342.684034 230.270388 
L 342.684034 230.157115 
" clip-path="url(#p5914800978)" style="fill: none; stroke: #1f77b4; stroke-width: 1.5"/>
    <path d="M 344.205852 230.526333 
L 344.205852 230.416547 
" clip-path="url(#p5914800978)" style="fill: none; stroke: #1f77b4; stroke-width: 1.5"/>
    <path d="M 345.72767 230.892477 
L 345.72767 230.78744 
" clip-path="url(#p5914800978)" style="fill: none; stroke: #1f77b4; stroke-width: 1.5"/>
    <path d="M 347.249489 231.09214 
L 347.249489 230.990277 
" clip-path="url(#p5914800978)" style="fill: none; stroke: #1f77b4; stroke-width: 1.5"/>
    <path d="M 348.771307 231.047532 
L 348.771307 230.944208 
" clip-path="url(#p5914800978)" style="fill: none; stroke: #1f77b4; stroke-width: 1.5"/>
    <path d="M 350.293125 231.231188 
L 350.293125 231.130561 
" clip-path="url(#p5914800978)" style="fill: none; stroke: #1f77b4; stroke-width: 1.5"/>
    <path d="M 351.814943 231.24607 
L 351.814943 231.144073 
" clip-path="url(#p5914800978)" style="fill: none; stroke: #1f77b4; stroke-width: 1.5"/>
    <path d="M 353.336761 231.357125 
L 353.336761 231.256896 
" clip-path="url(#p5914800978)" style="fill: none; stroke: #1f77b4; stroke-width: 1.5"/>
    <path d="M 354.85858 231.272932 
L 354.85858 231.170727 
" clip-path="url(#p5914800978)" style="fill: none; stroke: #1f77b4; stroke-width: 1.5"/>
    <path d="M 356.380398 231.215387 
L 356.380398 231.111271 
" clip-path="url(#p5914800978)" style="fill: none; stroke: #1f77b4; stroke-width: 1.5"/>
    <path d="M 357.902216 231.191597 
L 357.902216 231.085566 
" clip-path="url(#p5914800978)" style="fill: none; stroke: #1f77b4; stroke-width: 1.5"/>
    <path d="M 359.424034 231.32593 
L 359.424034 231.222018 
" clip-path="url(#p5914800978)" style="fill: none; stroke: #1f77b4; stroke-width: 1.5"/>
   </g>
   <g id="patch_3">
    <path d="M 40.603125 244.078125 
L 40.603125 22.318125 
" style="fill: none; stroke: #000000; stroke-width: 0.8; stroke-linejoin: miter; stroke-linecap: square"/>
   </g>
   <g id="patch_4">
    <path d="M 375.403125 244.078125 
L 375.403125 22.318125 
" style="fill: none; stroke: #000000; stroke-width: 0.8; stroke-linejoin: miter; stroke-linecap: square"/>
   </g>
   <g id="patch_5">
    <path d="M 40.603125 244.078125 
L 375.403125 244.078125 
" style="fill: none; stroke: #000000; stroke-width: 0.8; stroke-linejoin: miter; stroke-linecap: square"/>
   </g>
   <g id="patch_6">
    <path d="M 40.603125 22.318125 
L 375.403125 22.318125 
" style="fill: none; stroke: #000000; stroke-width: 0.8; stroke-linejoin: miter; stroke-linecap: square"/>
   </g>
   <g id="text_18">
    <!-- Mantle -->
    <g transform="translate(187.635937 16.318125) scale(0.12 -0.12)">
     <defs>
      <path id="DejaVuSans-4d" d="M 628 4666 
L 1569 4666 
L 2759 1491 
L 3956 4666 
L 4897 4666 
L 4897 0 
L 4281 0 
L 4281 4097 
L 3078 897 
L 2444 897 
L 1241 4097 
L 1241 0 
L 628 0 
L 628 4666 
z
" transform="scale(0.015625)"/>
      <path id="DejaVuSans-74" d="M 1172 4494 
L 1172 3500 
L 2356 3500 
L 2356 3053 
L 1172 3053 
L 1172 1153 
Q 1172 725 1289 603 
Q 1406 481 1766 481 
L 2356 481 
L 2356 0 
L 1766 0 
Q 1100 0 847 248 
Q 594 497 594 1153 
L 594 3053 
L 172 3053 
L 172 3500 
L 594 3500 
L 594 4494 
L 1172 4494 
z
" transform="scale(0.015625)"/>
     </defs>
     <use xlink:href="#DejaVuSans-4d"/>
     <use xlink:href="#DejaVuSans-61" transform="translate(86.279297 0)"/>
     <use xlink:href="#DejaVuSans-6e" transform="translate(147.558594 0)"/>
     <use xlink:href="#DejaVuSans-74" transform="translate(210.9375 0)"/>
     <use xlink:href="#DejaVuSans-6c" transform="translate(250.146484 0)"/>
     <use xlink:href="#DejaVuSans-65" transform="translate(277.929688 0)"/>
    </g>
   </g>
  </g>
 </g>
 <defs>
  <clipPath id="p5914800978">
   <rect x="40.603125" y="22.318125" width="334.8" height="221.76"/>
  </clipPath>
 </defs>
</svg>
