<?xml version="1.0" encoding="utf-8" standalone="no"?>
<!DOCTYPE svg PUBLIC "-//W3C//DTD SVG 1.1//EN"
  "http://www.w3.org/Graphics/SVG/1.1/DTD/svg11.dtd">
<svg xmlns:xlink="http://www.w3.org/1999/xlink" width="376.240625pt" height="268.200625pt" viewBox="0 0 376.240625 268.200625" xmlns="http://www.w3.org/2000/svg" version="1.1">
 <metadata>
  <rdf:RDF xmlns:dc="http://purl.org/dc/elements/1.1/" xmlns:cc="http://creativecommons.org/ns#" xmlns:rdf="http://www.w3.org/1999/02/22-rdf-syntax-ns#">
   <cc:Work>
    <dc:type rdf:resource="http://purl.org/dc/dcmitype/StillImage"/>
    <dc:date>2025-11-04T08:47:56.592196</dc:date>
    <dc:format>image/svg+xml</dc:format>
    <dc:creator>
     <cc:Agent>
      <dc:title>Matplotlib v3.10.7, https://matplotlib.org/</dc:title>
     </cc:Agent>
    </dc:creator>
   </cc:Work>
  </rdf:RDF>
 </metadata>
 <defs>
  <style type="text/css">*{stroke-linejoin: round; stroke-linecap: butt}</style>
 </defs>
 <g id="figure_1">
  <g id="patch_1">
   <path d="M 0 268.200625 
L 376.240625 268.200625 
L 376.240625 0 
L 0 0 
z
" style="fill: #ffffff"/>
  </g>
  <g id="axes_1">
   <g id="patch_2">
    <path d="M 34.240625 228.96 
L 369.040625 228.96 
L 369.040625 7.2 
L 34.240625 7.2 
z
" style="fill: #ffffff"/>
   </g>
   <g id="matplotlib.axis_1">
    <g id="xtick_1">
     <g id="line2d_1">
      <defs>
       <path id="m82643ee464" d="M 0 0 
L 0 3.5 
" style="stroke: #000000; stroke-width: 0.8"/>
      </defs>
      <g>
       <use xlink:href="#m82643ee464" x="49.458807" y="228.96" style="stroke: #000000; stroke-width: 0.8"/>
      </g>
     </g>
     <g id="text_1">
      <!-- 0.0 -->
      <g transform="translate(41.507244 243.558437) scale(0.1 -0.1)">
       <defs>
        <path id="DejaVuSans-30" d="M 2034 4250 
Q 1547 4250 1301 3770 
Q 1056 3291 1056 2328 
Q 1056 1369 1301 889 
Q 1547 409 2034 409 
Q 2525 409 2770 889 
Q 3016 1369 3016 2328 
Q 3016 3291 2770 3770 
Q 2525 4250 2034 4250 
z
M 2034 4750 
Q 2819 4750 3233 4129 
Q 3647 3509 3647 2328 
Q 3647 1150 3233 529 
Q 2819 -91 2034 -91 
Q 1250 -91 836 529 
Q 422 1150 422 2328 
Q 422 3509 836 4129 
Q 1250 4750 2034 4750 
z
" transform="scale(0.015625)"/>
        <path id="DejaVuSans-2e" d="M 684 794 
L 1344 794 
L 1344 0 
L 684 0 
L 684 794 
z
" transform="scale(0.015625)"/>
       </defs>
       <use xlink:href="#DejaVuSans-30"/>
       <use xlink:href="#DejaVuSans-2e" transform="translate(63.623047 0)"/>
       <use xlink:href="#DejaVuSans-30" transform="translate(95.410156 0)"/>
      </g>
     </g>
    </g>
    <g id="xtick_2">
     <g id="line2d_2">
      <g>
       <use xlink:href="#m82643ee464" x="114.399414" y="228.96" style="stroke: #000000; stroke-width: 0.8"/>
      </g>
     </g>
     <g id="text_2">
      <!-- 0.5 -->
      <g transform="translate(106.447851 243.558437) scale(0.1 -0.1)">
       <defs>
        <path id="DejaVuSans-35" d="M 691 4666 
L 3169 4666 
L 3169 4134 
L 1269 4134 
L 1269 2991 
Q 1406 3038 1543 3061 
Q 1681 3084 1819 3084 
Q 2600 3084 3056 2656 
Q 3513 2228 3513 1497 
Q 3513 744 3044 326 
Q 2575 -91 1722 -91 
Q 1428 -91 1123 -41 
Q 819 9 494 109 
L 494 744 
Q 775 591 1075 516 
Q 1375 441 1709 441 
Q 2250 441 2565 725 
Q 2881 1009 2881 1497 
Q 2881 1984 2565 2268 
Q 2250 2553 1709 2553 
Q 1456 2553 1204 2497 
Q 953 2441 691 2322 
L 691 4666 
z
" transform="scale(0.015625)"/>
       </defs>
       <use xlink:href="#DejaVuSans-30"/>
       <use xlink:href="#DejaVuSans-2e" transform="translate(63.623047 0)"/>
       <use xlink:href="#DejaVuSans-35" transform="translate(95.410156 0)"/>
      </g>
     </g>
    </g>
    <g id="xtick_3">
     <g id="line2d_3">
      <g>
       <use xlink:href="#m82643ee464" x="179.340021" y="228.96" style="stroke: #000000; stroke-width: 0.8"/>
      </g>
     </g>
     <g id="text_3">
      <!-- 1.0 -->
      <g transform="translate(171.388458 243.558437) scale(0.1 -0.1)">
       <defs>
        <path id="DejaVuSans-31" d="M 794 531 
L 1825 531 
L 1825 4091 
L 703 3866 
L 703 4441 
L 1819 4666 
L 2450 4666 
L 2450 531 
L 3481 531 
L 3481 0 
L 794 0 
L 794 531 
z
" transform="scale(0.015625)"/>
       </defs>
       <use xlink:href="#DejaVuSans-31"/>
       <use xlink:href="#DejaVuSans-2e" transform="translate(63.623047 0)"/>
       <use xlink:href="#DejaVuSans-30" transform="translate(95.410156 0)"/>
      </g>
     </g>
    </g>
    <g id="xtick_4">
     <g id="line2d_4">
      <g>
       <use xlink:href="#m82643ee464" x="244.280627" y="228.96" style="stroke: #000000; stroke-width: 0.8"/>
      </g>
     </g>
     <g id="text_4">
      <!-- 1.5 -->
      <g transform="translate(236.329065 243.558437) scale(0.1 -0.1)">
       <use xlink:href="#DejaVuSans-31"/>
       <use xlink:href="#DejaVuSans-2e" transform="translate(63.623047 0)"/>
       <use xlink:href="#DejaVuSans-35" transform="translate(95.410156 0)"/>
      </g>
     </g>
    </g>
    <g id="xtick_5">
     <g id="line2d_5">
      <g>
       <use xlink:href="#m82643ee464" x="309.221234" y="228.96" style="stroke: #000000; stroke-width: 0.8"/>
      </g>
     </g>
     <g id="text_5">
      <!-- 2.0 -->
      <g transform="translate(301.269672 243.558437) scale(0.1 -0.1)">
       <defs>
        <path id="DejaVuSans-32" d="M 1228 531 
L 3431 531 
L 3431 0 
L 469 0 
L 469 531 
Q 828 903 1448 1529 
Q 2069 2156 2228 2338 
Q 2531 2678 2651 2914 
Q 2772 3150 2772 3378 
Q 2772 3750 2511 3984 
Q 2250 4219 1831 4219 
Q 1534 4219 1204 4116 
Q 875 4013 500 3803 
L 500 4441 
Q 881 4594 1212 4672 
Q 1544 4750 1819 4750 
Q 2544 4750 2975 4387 
Q 3406 4025 3406 3419 
Q 3406 3131 3298 2873 
Q 3191 2616 2906 2266 
Q 2828 2175 2409 1742 
Q 1991 1309 1228 531 
z
" transform="scale(0.015625)"/>
       </defs>
       <use xlink:href="#DejaVuSans-32"/>
       <use xlink:href="#DejaVuSans-2e" transform="translate(63.623047 0)"/>
       <use xlink:href="#DejaVuSans-30" transform="translate(95.410156 0)"/>
      </g>
     </g>
    </g>
    <g id="text_6">
     <!-- dspacing [Å] -->
     <g transform="translate(170.23125 258.920937) scale(0.1 -0.1)">
      <defs>
       <path id="DejaVuSans-64" d="M 2906 2969 
L 2906 4863 
L 3481 4863 
L 3481 0 
L 2906 0 
L 2906 525 
Q 2725 213 2448 61 
Q 2172 -91 1784 -91 
Q 1150 -91 751 415 
Q 353 922 353 1747 
Q 353 2572 751 3078 
Q 1150 3584 1784 3584 
Q 2172 3584 2448 3432 
Q 2725 3281 2906 2969 
z
M 947 1747 
Q 947 1113 1208 752 
Q 1469 391 1925 391 
Q 2381 391 2643 752 
Q 2906 1113 2906 1747 
Q 2906 2381 2643 2742 
Q 2381 3103 1925 3103 
Q 1469 3103 1208 2742 
Q 947 2381 947 1747 
z
" transform="scale(0.015625)"/>
       <path id="DejaVuSans-73" d="M 2834 3397 
L 2834 2853 
Q 2591 2978 2328 3040 
Q 2066 3103 1784 3103 
Q 1356 3103 1142 2972 
Q 928 2841 928 2578 
Q 928 2378 1081 2264 
Q 1234 2150 1697 2047 
L 1894 2003 
Q 2506 1872 2764 1633 
Q 3022 1394 3022 966 
Q 3022 478 2636 193 
Q 2250 -91 1575 -91 
Q 1294 -91 989 -36 
Q 684 19 347 128 
L 347 722 
Q 666 556 975 473 
Q 1284 391 1588 391 
Q 1994 391 2212 530 
Q 2431 669 2431 922 
Q 2431 1156 2273 1281 
Q 2116 1406 1581 1522 
L 1381 1569 
Q 847 1681 609 1914 
Q 372 2147 372 2553 
Q 372 3047 722 3315 
Q 1072 3584 1716 3584 
Q 2034 3584 2315 3537 
Q 2597 3491 2834 3397 
z
" transform="scale(0.015625)"/>
       <path id="DejaVuSans-70" d="M 1159 525 
L 1159 -1331 
L 581 -1331 
L 581 3500 
L 1159 3500 
L 1159 2969 
Q 1341 3281 1617 3432 
Q 1894 3584 2278 3584 
Q 2916 3584 3314 3078 
Q 3713 2572 3713 1747 
Q 3713 922 3314 415 
Q 2916 -91 2278 -91 
Q 1894 -91 1617 61 
Q 1341 213 1159 525 
z
M 3116 1747 
Q 3116 2381 2855 2742 
Q 2594 3103 2138 3103 
Q 1681 3103 1420 2742 
Q 1159 2381 1159 1747 
Q 1159 1113 1420 752 
Q 1681 391 2138 391 
Q 2594 391 2855 752 
Q 3116 1113 3116 1747 
z
" transform="scale(0.015625)"/>
       <path id="DejaVuSans-61" d="M 2194 1759 
Q 1497 1759 1228 1600 
Q 959 1441 959 1056 
Q 959 750 1161 570 
Q 1363 391 1709 391 
Q 2188 391 2477 730 
Q 2766 1069 2766 1631 
L 2766 1759 
L 2194 1759 
z
M 3341 1997 
L 3341 0 
L 2766 0 
L 2766 531 
Q 2569 213 2275 61 
Q 1981 -91 1556 -91 
Q 1019 -91 701 211 
Q 384 513 384 1019 
Q 384 1609 779 1909 
Q 1175 2209 1959 2209 
L 2766 2209 
L 2766 2266 
Q 2766 2663 2505 2880 
Q 2244 3097 1772 3097 
Q 1472 3097 1187 3025 
Q 903 2953 641 2809 
L 641 3341 
Q 956 3463 1253 3523 
Q 1550 3584 1831 3584 
Q 2591 3584 2966 3190 
Q 3341 2797 3341 1997 
z
" transform="scale(0.015625)"/>
       <path id="DejaVuSans-63" d="M 3122 3366 
L 3122 2828 
Q 2878 2963 2633 3030 
Q 2388 3097 2138 3097 
Q 1578 3097 1268 2742 
Q 959 2388 959 1747 
Q 959 1106 1268 751 
Q 1578 397 2138 397 
Q 2388 397 2633 464 
Q 2878 531 3122 666 
L 3122 134 
Q 2881 22 2623 -34 
Q 2366 -91 2075 -91 
Q 1284 -91 818 406 
Q 353 903 353 1747 
Q 353 2603 823 3093 
Q 1294 3584 2113 3584 
Q 2378 3584 2631 3529 
Q 2884 3475 3122 3366 
z
" transform="scale(0.015625)"/>
       <path id="DejaVuSans-69" d="M 603 3500 
L 1178 3500 
L 1178 0 
L 603 0 
L 603 3500 
z
M 603 4863 
L 1178 4863 
L 1178 4134 
L 603 4134 
L 603 4863 
z
" transform="scale(0.015625)"/>
       <path id="DejaVuSans-6e" d="M 3513 2113 
L 3513 0 
L 2938 0 
L 2938 2094 
Q 2938 2591 2744 2837 
Q 2550 3084 2163 3084 
Q 1697 3084 1428 2787 
Q 1159 2491 1159 1978 
L 1159 0 
L 581 0 
L 581 3500 
L 1159 3500 
L 1159 2956 
Q 1366 3272 1645 3428 
Q 1925 3584 2291 3584 
Q 2894 3584 3203 3211 
Q 3513 2838 3513 2113 
z
" transform="scale(0.015625)"/>
       <path id="DejaVuSans-67" d="M 2906 1791 
Q 2906 2416 2648 2759 
Q 2391 3103 1925 3103 
Q 1463 3103 1205 2759 
Q 947 2416 947 1791 
Q 947 1169 1205 825 
Q 1463 481 1925 481 
Q 2391 481 2648 825 
Q 2906 1169 2906 1791 
z
M 3481 434 
Q 3481 -459 3084 -895 
Q 2688 -1331 1869 -1331 
Q 1566 -1331 1297 -1286 
Q 1028 -1241 775 -1147 
L 775 -588 
Q 1028 -725 1275 -790 
Q 1522 -856 1778 -856 
Q 2344 -856 2625 -561 
Q 2906 -266 2906 331 
L 2906 616 
Q 2728 306 2450 153 
Q 2172 0 1784 0 
Q 1141 0 747 490 
Q 353 981 353 1791 
Q 353 2603 747 3093 
Q 1141 3584 1784 3584 
Q 2172 3584 2450 3431 
Q 2728 3278 2906 2969 
L 2906 3500 
L 3481 3500 
L 3481 434 
z
" transform="scale(0.015625)"/>
       <path id="DejaVuSans-20" transform="scale(0.015625)"/>
       <path id="DejaVuSans-5b" d="M 550 4863 
L 1875 4863 
L 1875 4416 
L 1125 4416 
L 1125 -397 
L 1875 -397 
L 1875 -844 
L 550 -844 
L 550 4863 
z
" transform="scale(0.015625)"/>
       <path id="DejaVuSans-c5" d="M 2663 5081 
Q 2663 5278 2523 5417 
Q 2384 5556 2188 5556 
Q 1988 5556 1852 5420 
Q 1716 5284 1716 5081 
Q 1716 4884 1853 4746 
Q 1991 4609 2188 4609 
Q 2384 4609 2523 4746 
Q 2663 4884 2663 5081 
z
M 2188 4044 
L 1338 1722 
L 3041 1722 
L 2188 4044 
z
M 1716 4366 
Q 1525 4494 1428 4673 
Q 1331 4853 1331 5081 
Q 1331 5441 1579 5691 
Q 1828 5941 2188 5941 
Q 2544 5941 2795 5689 
Q 3047 5438 3047 5081 
Q 3047 4863 2948 4678 
Q 2850 4494 2663 4366 
L 4325 0 
L 3669 0 
L 3244 1197 
L 1141 1197 
L 716 0 
L 50 0 
L 1716 4366 
z
" transform="scale(0.015625)"/>
       <path id="DejaVuSans-5d" d="M 1947 4863 
L 1947 -844 
L 622 -844 
L 622 -397 
L 1369 -397 
L 1369 4416 
L 622 4416 
L 622 4863 
L 1947 4863 
z
" transform="scale(0.015625)"/>
      </defs>
      <use xlink:href="#DejaVuSans-64"/>
      <use xlink:href="#DejaVuSans-73" transform="translate(63.476562 0)"/>
      <use xlink:href="#DejaVuSans-70" transform="translate(115.576172 0)"/>
      <use xlink:href="#DejaVuSans-61" transform="translate(179.052734 0)"/>
      <use xlink:href="#DejaVuSans-63" transform="translate(240.332031 0)"/>
      <use xlink:href="#DejaVuSans-69" transform="translate(295.3125 0)"/>
      <use xlink:href="#DejaVuSans-6e" transform="translate(323.095703 0)"/>
      <use xlink:href="#DejaVuSans-67" transform="translate(386.474609 0)"/>
      <use xlink:href="#DejaVuSans-20" transform="translate(449.951172 0)"/>
      <use xlink:href="#DejaVuSans-5b" transform="translate(481.738281 0)"/>
      <use xlink:href="#DejaVuSans-c5" transform="translate(520.751953 0)"/>
      <use xlink:href="#DejaVuSans-5d" transform="translate(589.160156 0)"/>
     </g>
    </g>
   </g>
   <g id="matplotlib.axis_2">
    <g id="ytick_1">
     <g id="line2d_6">
      <defs>
       <path id="mecde9ad281" d="M 0 0 
L -3.5 0 
" style="stroke: #000000; stroke-width: 0.8"/>
      </defs>
      <g>
       <use xlink:href="#mecde9ad281" x="34.240625" y="220.858633" style="stroke: #000000; stroke-width: 0.8"/>
      </g>
     </g>
     <g id="text_7">
      <!-- 0 -->
      <g transform="translate(20.878125 224.657851) scale(0.1 -0.1)">
       <use xlink:href="#DejaVuSans-30"/>
      </g>
     </g>
    </g>
    <g id="ytick_2">
     <g id="line2d_7">
      <g>
       <use xlink:href="#mecde9ad281" x="34.240625" y="176.850472" style="stroke: #000000; stroke-width: 0.8"/>
      </g>
     </g>
     <g id="text_8">
      <!-- 2 -->
      <g transform="translate(20.878125 180.64969) scale(0.1 -0.1)">
       <use xlink:href="#DejaVuSans-32"/>
      </g>
     </g>
    </g>
    <g id="ytick_3">
     <g id="line2d_8">
      <g>
       <use xlink:href="#mecde9ad281" x="34.240625" y="132.842311" style="stroke: #000000; stroke-width: 0.8"/>
      </g>
     </g>
     <g id="text_9">
      <!-- 4 -->
      <g transform="translate(20.878125 136.641529) scale(0.1 -0.1)">
       <defs>
        <path id="DejaVuSans-34" d="M 2419 4116 
L 825 1625 
L 2419 1625 
L 2419 4116 
z
M 2253 4666 
L 3047 4666 
L 3047 1625 
L 3713 1625 
L 3713 1100 
L 3047 1100 
L 3047 0 
L 2419 0 
L 2419 1100 
L 313 1100 
L 313 1709 
L 2253 4666 
z
" transform="scale(0.015625)"/>
       </defs>
       <use xlink:href="#DejaVuSans-34"/>
      </g>
     </g>
    </g>
    <g id="ytick_4">
     <g id="line2d_9">
      <g>
       <use xlink:href="#mecde9ad281" x="34.240625" y="88.83415" style="stroke: #000000; stroke-width: 0.8"/>
      </g>
     </g>
     <g id="text_10">
      <!-- 6 -->
      <g transform="translate(20.878125 92.633368) scale(0.1 -0.1)">
       <defs>
        <path id="DejaVuSans-36" d="M 2113 2584 
Q 1688 2584 1439 2293 
Q 1191 2003 1191 1497 
Q 1191 994 1439 701 
Q 1688 409 2113 409 
Q 2538 409 2786 701 
Q 3034 994 3034 1497 
Q 3034 2003 2786 2293 
Q 2538 2584 2113 2584 
z
M 3366 4563 
L 3366 3988 
Q 3128 4100 2886 4159 
Q 2644 4219 2406 4219 
Q 1781 4219 1451 3797 
Q 1122 3375 1075 2522 
Q 1259 2794 1537 2939 
Q 1816 3084 2150 3084 
Q 2853 3084 3261 2657 
Q 3669 2231 3669 1497 
Q 3669 778 3244 343 
Q 2819 -91 2113 -91 
Q 1303 -91 875 529 
Q 447 1150 447 2328 
Q 447 3434 972 4092 
Q 1497 4750 2381 4750 
Q 2619 4750 2861 4703 
Q 3103 4656 3366 4563 
z
" transform="scale(0.015625)"/>
       </defs>
       <use xlink:href="#DejaVuSans-36"/>
      </g>
     </g>
    </g>
    <g id="ytick_5">
     <g id="line2d_10">
      <g>
       <use xlink:href="#mecde9ad281" x="34.240625" y="44.825989" style="stroke: #000000; stroke-width: 0.8"/>
      </g>
     </g>
     <g id="text_11">
      <!-- 8 -->
      <g transform="translate(20.878125 48.625207) scale(0.1 -0.1)">
       <defs>
        <path id="DejaVuSans-38" d="M 2034 2216 
Q 1584 2216 1326 1975 
Q 1069 1734 1069 1313 
Q 1069 891 1326 650 
Q 1584 409 2034 409 
Q 2484 409 2743 651 
Q 3003 894 3003 1313 
Q 3003 1734 2745 1975 
Q 2488 2216 2034 2216 
z
M 1403 2484 
Q 997 2584 770 2862 
Q 544 3141 544 3541 
Q 544 4100 942 4425 
Q 1341 4750 2034 4750 
Q 2731 4750 3128 4425 
Q 3525 4100 3525 3541 
Q 3525 3141 3298 2862 
Q 3072 2584 2669 2484 
Q 3125 2378 3379 2068 
Q 3634 1759 3634 1313 
Q 3634 634 3220 271 
Q 2806 -91 2034 -91 
Q 1263 -91 848 271 
Q 434 634 434 1313 
Q 434 1759 690 2068 
Q 947 2378 1403 2484 
z
M 1172 3481 
Q 1172 3119 1398 2916 
Q 1625 2713 2034 2713 
Q 2441 2713 2670 2916 
Q 2900 3119 2900 3481 
Q 2900 3844 2670 4047 
Q 2441 4250 2034 4250 
Q 1625 4250 1398 4047 
Q 1172 3844 1172 3481 
z
" transform="scale(0.015625)"/>
       </defs>
       <use xlink:href="#DejaVuSans-38"/>
      </g>
     </g>
    </g>
    <g id="text_12">
     <!-- [dimensionless] -->
     <g transform="translate(14.798437 157.557344) rotate(-90) scale(0.1 -0.1)">
      <defs>
       <path id="DejaVuSans-6d" d="M 3328 2828 
Q 3544 3216 3844 3400 
Q 4144 3584 4550 3584 
Q 5097 3584 5394 3201 
Q 5691 2819 5691 2113 
L 5691 0 
L 5113 0 
L 5113 2094 
Q 5113 2597 4934 2840 
Q 4756 3084 4391 3084 
Q 3944 3084 3684 2787 
Q 3425 2491 3425 1978 
L 3425 0 
L 2847 0 
L 2847 2094 
Q 2847 2600 2669 2842 
Q 2491 3084 2119 3084 
Q 1678 3084 1418 2786 
Q 1159 2488 1159 1978 
L 1159 0 
L 581 0 
L 581 3500 
L 1159 3500 
L 1159 2956 
Q 1356 3278 1631 3431 
Q 1906 3584 2284 3584 
Q 2666 3584 2933 3390 
Q 3200 3197 3328 2828 
z
" transform="scale(0.015625)"/>
       <path id="DejaVuSans-65" d="M 3597 1894 
L 3597 1613 
L 953 1613 
Q 991 1019 1311 708 
Q 1631 397 2203 397 
Q 2534 397 2845 478 
Q 3156 559 3463 722 
L 3463 178 
Q 3153 47 2828 -22 
Q 2503 -91 2169 -91 
Q 1331 -91 842 396 
Q 353 884 353 1716 
Q 353 2575 817 3079 
Q 1281 3584 2069 3584 
Q 2775 3584 3186 3129 
Q 3597 2675 3597 1894 
z
M 3022 2063 
Q 3016 2534 2758 2815 
Q 2500 3097 2075 3097 
Q 1594 3097 1305 2825 
Q 1016 2553 972 2059 
L 3022 2063 
z
" transform="scale(0.015625)"/>
       <path id="DejaVuSans-6f" d="M 1959 3097 
Q 1497 3097 1228 2736 
Q 959 2375 959 1747 
Q 959 1119 1226 758 
Q 1494 397 1959 397 
Q 2419 397 2687 759 
Q 2956 1122 2956 1747 
Q 2956 2369 2687 2733 
Q 2419 3097 1959 3097 
z
M 1959 3584 
Q 2709 3584 3137 3096 
Q 3566 2609 3566 1747 
Q 3566 888 3137 398 
Q 2709 -91 1959 -91 
Q 1206 -91 779 398 
Q 353 888 353 1747 
Q 353 2609 779 3096 
Q 1206 3584 1959 3584 
z
" transform="scale(0.015625)"/>
       <path id="DejaVuSans-6c" d="M 603 4863 
L 1178 4863 
L 1178 0 
L 603 0 
L 603 4863 
z
" transform="scale(0.015625)"/>
      </defs>
      <use xlink:href="#DejaVuSans-5b"/>
      <use xlink:href="#DejaVuSans-64" transform="translate(39.013672 0)"/>
      <use xlink:href="#DejaVuSans-69" transform="translate(102.490234 0)"/>
      <use xlink:href="#DejaVuSans-6d" transform="translate(130.273438 0)"/>
      <use xlink:href="#DejaVuSans-65" transform="translate(227.685547 0)"/>
      <use xlink:href="#DejaVuSans-6e" transform="translate(289.208984 0)"/>
      <use xlink:href="#DejaVuSans-73" transform="translate(352.587891 0)"/>
      <use xlink:href="#DejaVuSans-69" transform="translate(404.6875 0)"/>
      <use xlink:href="#DejaVuSans-6f" transform="translate(432.470703 0)"/>
      <use xlink:href="#DejaVuSans-6e" transform="translate(493.652344 0)"/>
      <use xlink:href="#DejaVuSans-6c" transform="translate(557.03125 0)"/>
      <use xlink:href="#DejaVuSans-65" transform="translate(584.814453 0)"/>
      <use xlink:href="#DejaVuSans-73" transform="translate(646.337891 0)"/>
      <use xlink:href="#DejaVuSans-73" transform="translate(698.4375 0)"/>
      <use xlink:href="#DejaVuSans-5d" transform="translate(750.537109 0)"/>
     </g>
    </g>
   </g>
   <g id="line2d_11">
    <path d="M 49.458807 196.201846 
L 50.980625 196.201846 
L 50.980625 198.01939 
L 52.502443 198.01939 
L 52.502443 200.346757 
L 54.024261 200.346757 
L 54.024261 201.292655 
L 55.54608 201.292655 
L 55.54608 201.911191 
L 57.067898 201.911191 
L 57.067898 202.044307 
L 58.589716 202.044307 
L 58.589716 201.815252 
L 60.111534 201.815252 
L 60.111534 201.608867 
L 61.633352 201.608867 
L 61.633352 201.321893 
L 67.720625 201.300808 
L 67.720625 201.436281 
L 69.242443 201.436281 
L 69.242443 201.577214 
L 72.28608 201.607308 
L 72.28608 201.743901 
L 73.807898 201.743901 
L 73.807898 201.985783 
L 76.851534 202.071503 
L 76.851534 202.199618 
L 78.373352 202.199618 
L 78.373352 202.410305 
L 81.416989 202.312926 
L 81.416989 202.583581 
L 82.938807 202.583581 
L 82.938807 202.758381 
L 84.460625 202.758381 
L 84.460625 202.49469 
L 85.982443 202.49469 
L 85.982443 202.619647 
L 87.504261 202.619647 
L 87.504261 202.837188 
L 90.547898 202.839343 
L 90.547898 202.52938 
L 92.069716 202.52938 
L 92.069716 202.361741 
L 93.591534 202.361741 
L 93.591534 202.246461 
L 95.113352 202.246461 
L 95.113352 203.093972 
L 96.63517 203.093972 
L 96.63517 202.159888 
L 98.156989 202.159888 
L 98.156989 202.499681 
L 99.678807 202.499681 
L 99.678807 202.322575 
L 101.200625 202.322575 
L 101.200625 201.729618 
L 102.722443 201.729618 
L 102.722443 202.147443 
L 104.244261 202.147443 
L 104.244261 200.982042 
L 105.76608 200.982042 
L 105.76608 202.146426 
L 107.287898 202.146426 
L 107.287898 203.373322 
L 108.809716 203.373322 
L 108.809716 203.590975 
L 111.853352 203.545657 
L 111.853352 199.90894 
L 113.37517 199.90894 
L 113.37517 201.632974 
L 116.418807 201.695188 
L 116.418807 202.023027 
L 117.940625 202.023027 
L 117.940625 203.288664 
L 119.462443 203.288664 
L 119.462443 199.435913 
L 120.984261 199.435913 
L 120.984261 203.71948 
L 122.50608 203.71948 
L 122.50608 199.135488 
L 124.027898 199.135488 
L 124.027898 197.734902 
L 125.549716 197.734902 
L 125.549716 200.814162 
L 127.071534 200.814162 
L 127.071534 204.340068 
L 128.593352 204.340068 
L 128.593352 195.604949 
L 130.11517 195.604949 
L 130.11517 202.654608 
L 131.636989 202.654608 
L 131.636989 204.509654 
L 133.158807 204.509654 
L 133.158807 200.836321 
L 134.680625 200.836321 
L 134.680625 203.666516 
L 136.202443 203.666516 
L 136.202443 204.501501 
L 139.24608 204.421763 
L 139.24608 200.77579 
L 140.767898 200.77579 
L 140.767898 191.50682 
L 142.289716 191.50682 
L 142.289716 186.974163 
L 143.811534 186.974163 
L 143.811534 199.852225 
L 145.333352 199.852225 
L 145.333352 204.342109 
L 146.85517 204.342109 
L 146.85517 195.851055 
L 148.376989 195.851055 
L 148.376989 200.738113 
L 149.898807 200.738113 
L 149.898807 202.68928 
L 151.420625 202.68928 
L 151.420625 203.91499 
L 152.942443 203.91499 
L 152.942443 188.628115 
L 154.464261 188.628115 
L 154.464261 193.901604 
L 155.98608 193.901604 
L 155.98608 202.143882 
L 157.507898 202.143882 
L 157.507898 198.559066 
L 159.029716 198.559066 
L 159.029716 202.438147 
L 160.551534 202.438147 
L 160.551534 203.93975 
L 163.59517 203.956337 
L 163.59517 196.000654 
L 165.116989 196.000654 
L 165.116989 203.464015 
L 166.638807 203.464015 
L 166.638807 186.777489 
L 168.160625 186.777489 
L 168.160625 203.389349 
L 169.682443 203.389349 
L 169.682443 197.876117 
L 171.204261 197.876117 
L 171.204261 203.400364 
L 172.72608 203.400364 
L 172.72608 200.884843 
L 174.247898 200.884843 
L 174.247898 203.300709 
L 175.769716 203.300709 
L 175.769716 173.108462 
L 177.291534 173.108462 
L 177.291534 201.736217 
L 178.813352 201.736217 
L 178.813352 202.003036 
L 180.33517 202.003036 
L 180.33517 190.036014 
L 181.856989 190.036014 
L 181.856989 202.500635 
L 183.378807 202.500635 
L 183.378807 188.925696 
L 184.900625 188.925696 
L 184.900625 201.124847 
L 186.422443 201.124847 
L 186.422443 202.541495 
L 187.944261 202.541495 
L 187.944261 202.815633 
L 192.509716 202.892056 
L 192.509716 201.688707 
L 194.031534 201.688707 
L 194.031534 202.082113 
L 195.553352 202.082113 
L 195.553352 202.408767 
L 198.596989 202.441233 
L 198.596989 200.797921 
L 200.118807 200.797921 
L 200.118807 202.395896 
L 203.162443 202.497392 
L 203.162443 202.11798 
L 204.684261 202.11798 
L 204.684261 188.069971 
L 206.20608 188.069971 
L 206.20608 201.960674 
L 207.727898 201.960674 
L 207.727898 202.6157 
L 209.249716 202.6157 
L 209.249716 204.328286 
L 210.771534 204.328286 
L 210.771534 201.940533 
L 212.293352 201.940533 
L 212.293352 200.005554 
L 213.81517 200.005554 
L 213.81517 201.960631 
L 216.858807 201.951626 
L 216.858807 201.456619 
L 218.380625 201.456619 
L 218.380625 197.809831 
L 219.902443 197.809831 
L 219.902443 114.852752 
L 221.424261 114.852752 
L 221.424261 200.384231 
L 222.94608 200.384231 
L 222.94608 201.459242 
L 225.989716 201.490728 
L 225.989716 201.113022 
L 227.511534 201.113022 
L 227.511534 195.716146 
L 229.033352 195.716146 
L 229.033352 18.062431 
L 230.55517 18.062431 
L 230.55517 198.819804 
L 232.076989 198.819804 
L 232.076989 201.30429 
L 233.598807 201.30429 
L 233.598807 202.020178 
L 235.120625 202.020178 
L 235.120625 202.246332 
L 236.642443 202.246332 
L 236.642443 202.057727 
L 238.164261 202.057727 
L 238.164261 201.431591 
L 239.68608 201.431591 
L 239.68608 202.801452 
L 241.207898 202.801452 
L 241.207898 202.599753 
L 242.729716 202.599753 
L 242.729716 201.618577 
L 244.251534 201.618577 
L 244.251534 202.232358 
L 245.773352 202.232358 
L 245.773352 204.608062 
L 247.29517 204.608062 
L 247.29517 201.822826 
L 248.816989 201.822826 
L 248.816989 202.370539 
L 253.382443 202.419287 
L 253.382443 202.172395 
L 254.904261 202.172395 
L 254.904261 202.630503 
L 256.42608 202.630503 
L 256.42608 202.075801 
L 257.947898 202.075801 
L 257.947898 202.514525 
L 259.469716 202.514525 
L 259.469716 201.94452 
L 260.991534 201.94452 
L 260.991534 202.269175 
L 262.513352 202.269175 
L 262.513352 202.462998 
L 264.03517 202.462998 
L 264.03517 202.668633 
L 265.556989 202.668633 
L 265.556989 202.469944 
L 268.600625 202.515894 
L 268.600625 185.968252 
L 270.122443 185.968252 
L 270.122443 180.686561 
L 271.644261 180.686561 
L 271.644261 201.991643 
L 274.687898 202.08395 
L 274.687898 202.679713 
L 276.209716 202.679713 
L 276.209716 201.653987 
L 277.731534 201.653987 
L 277.731534 202.171427 
L 279.253352 202.171427 
L 279.253352 202.766763 
L 280.77517 202.766763 
L 280.77517 202.313944 
L 282.296989 202.313944 
L 282.296989 200.952563 
L 283.818807 200.952563 
L 283.818807 201.366584 
L 285.340625 201.366584 
L 285.340625 201.774742 
L 286.862443 201.774742 
L 286.862443 202.337312 
L 288.384261 202.337312 
L 288.384261 200.475735 
L 289.90608 200.475735 
L 289.90608 172.164126 
L 291.427898 172.164126 
L 291.427898 188.289192 
L 292.949716 188.289192 
L 292.949716 201.879228 
L 294.471534 201.879228 
L 294.471534 202.011153 
L 295.993352 202.011153 
L 295.993352 201.037453 
L 297.51517 201.037453 
L 297.51517 201.75645 
L 299.036989 201.75645 
L 299.036989 201.248332 
L 302.080625 201.1446 
L 302.080625 201.966484 
L 303.602443 201.966484 
L 303.602443 201.034707 
L 305.124261 201.034707 
L 305.124261 200.567896 
L 306.64608 200.567896 
L 306.64608 202.450148 
L 308.167898 202.450148 
L 308.167898 201.265038 
L 309.689716 201.265038 
L 309.689716 202.484428 
L 311.211534 202.484428 
L 311.211534 202.630788 
L 312.733352 202.630788 
L 312.733352 202.247985 
L 314.25517 202.247985 
L 314.25517 202.755558 
L 315.776989 202.755558 
L 315.776989 201.181792 
L 317.298807 201.181792 
L 317.298807 194.473383 
L 318.820625 194.473383 
L 318.820625 127.534022 
L 320.342443 127.534022 
L 320.342443 187.185539 
L 321.864261 187.185539 
L 321.864261 200.831039 
L 323.38608 200.831039 
L 323.38608 201.523068 
L 324.907898 201.523068 
L 324.907898 201.233345 
L 326.429716 201.233345 
L 326.429716 203.226078 
L 327.951534 203.226078 
L 327.951534 201.535368 
L 329.473352 201.535368 
L 329.473352 203.821399 
L 330.99517 203.821399 
L 330.99517 201.012238 
L 332.516989 201.012238 
L 332.516989 201.901048 
L 334.038807 201.901048 
L 334.038807 202.156573 
L 335.560625 202.156573 
L 335.560625 204.335374 
L 338.604261 204.389428 
L 338.604261 199.869364 
L 340.12608 199.869364 
L 340.12608 200.654281 
L 341.647898 200.654281 
L 341.647898 201.550756 
L 343.169716 201.550756 
L 343.169716 204.095595 
L 344.691534 204.095595 
L 344.691534 199.956898 
L 346.213352 199.956898 
L 346.213352 202.860839 
L 347.73517 202.860839 
L 347.73517 199.967559 
L 349.256989 199.967559 
L 349.256989 202.618851 
L 350.778807 202.618851 
L 350.778807 214.103158 
L 352.300625 214.103158 
L 352.300625 173.570311 
L 353.822443 173.570311 
L 353.822443 173.570311 
" clip-path="url(#pf785f285f9)" style="fill: none; stroke: #1f77b4; stroke-width: 1.5; stroke-linecap: square"/>
   </g>
   <g id="LineCollection_1">
    <path d="M 50.219716 196.330378 
L 50.219716 196.073314 
" clip-path="url(#pf785f285f9)" style="fill: none; stroke: #1f77b4; stroke-width: 1.5"/>
    <path d="M 51.741534 198.141744 
L 51.741534 197.897037 
" clip-path="url(#pf785f285f9)" style="fill: none; stroke: #1f77b4; stroke-width: 1.5"/>
    <path d="M 53.263352 200.441394 
L 53.263352 200.252119 
" clip-path="url(#pf785f285f9)" style="fill: none; stroke: #1f77b4; stroke-width: 1.5"/>
    <path d="M 54.78517 201.372702 
L 54.78517 201.212607 
" clip-path="url(#pf785f285f9)" style="fill: none; stroke: #1f77b4; stroke-width: 1.5"/>
    <path d="M 56.306989 201.979102 
L 56.306989 201.843281 
" clip-path="url(#pf785f285f9)" style="fill: none; stroke: #1f77b4; stroke-width: 1.5"/>
    <path d="M 57.828807 202.103905 
L 57.828807 201.984709 
" clip-path="url(#pf785f285f9)" style="fill: none; stroke: #1f77b4; stroke-width: 1.5"/>
    <path d="M 59.350625 201.869615 
L 59.350625 201.76089 
" clip-path="url(#pf785f285f9)" style="fill: none; stroke: #1f77b4; stroke-width: 1.5"/>
    <path d="M 60.872443 201.660895 
L 60.872443 201.556839 
" clip-path="url(#pf785f285f9)" style="fill: none; stroke: #1f77b4; stroke-width: 1.5"/>
    <path d="M 62.394261 201.37305 
L 62.394261 201.270736 
" clip-path="url(#pf785f285f9)" style="fill: none; stroke: #1f77b4; stroke-width: 1.5"/>
    <path d="M 63.91608 201.294661 
L 63.91608 201.195369 
" clip-path="url(#pf785f285f9)" style="fill: none; stroke: #1f77b4; stroke-width: 1.5"/>
    <path d="M 65.437898 201.28733 
L 65.437898 201.191349 
" clip-path="url(#pf785f285f9)" style="fill: none; stroke: #1f77b4; stroke-width: 1.5"/>
    <path d="M 66.959716 201.347096 
L 66.959716 201.254521 
" clip-path="url(#pf785f285f9)" style="fill: none; stroke: #1f77b4; stroke-width: 1.5"/>
    <path d="M 68.481534 201.480619 
L 68.481534 201.391942 
" clip-path="url(#pf785f285f9)" style="fill: none; stroke: #1f77b4; stroke-width: 1.5"/>
    <path d="M 70.003352 201.619641 
L 70.003352 201.534787 
" clip-path="url(#pf785f285f9)" style="fill: none; stroke: #1f77b4; stroke-width: 1.5"/>
    <path d="M 71.52517 201.647996 
L 71.52517 201.56662 
" clip-path="url(#pf785f285f9)" style="fill: none; stroke: #1f77b4; stroke-width: 1.5"/>
    <path d="M 73.046989 201.782844 
L 73.046989 201.704959 
" clip-path="url(#pf785f285f9)" style="fill: none; stroke: #1f77b4; stroke-width: 1.5"/>
    <path d="M 74.568807 202.02308 
L 74.568807 201.948486 
" clip-path="url(#pf785f285f9)" style="fill: none; stroke: #1f77b4; stroke-width: 1.5"/>
    <path d="M 76.090625 202.107491 
L 76.090625 202.035515 
" clip-path="url(#pf785f285f9)" style="fill: none; stroke: #1f77b4; stroke-width: 1.5"/>
    <path d="M 77.612443 202.234343 
L 77.612443 202.164893 
" clip-path="url(#pf785f285f9)" style="fill: none; stroke: #1f77b4; stroke-width: 1.5"/>
    <path d="M 79.134261 202.443864 
L 79.134261 202.376745 
" clip-path="url(#pf785f285f9)" style="fill: none; stroke: #1f77b4; stroke-width: 1.5"/>
    <path d="M 80.65608 202.345776 
L 80.65608 202.280075 
" clip-path="url(#pf785f285f9)" style="fill: none; stroke: #1f77b4; stroke-width: 1.5"/>
    <path d="M 82.177898 202.615549 
L 82.177898 202.551614 
" clip-path="url(#pf785f285f9)" style="fill: none; stroke: #1f77b4; stroke-width: 1.5"/>
    <path d="M 83.699716 202.789667 
L 83.699716 202.727096 
" clip-path="url(#pf785f285f9)" style="fill: none; stroke: #1f77b4; stroke-width: 1.5"/>
    <path d="M 85.221534 202.525778 
L 85.221534 202.463603 
" clip-path="url(#pf785f285f9)" style="fill: none; stroke: #1f77b4; stroke-width: 1.5"/>
    <path d="M 86.743352 202.650283 
L 86.743352 202.58901 
" clip-path="url(#pf785f285f9)" style="fill: none; stroke: #1f77b4; stroke-width: 1.5"/>
    <path d="M 88.26517 202.867364 
L 88.26517 202.807012 
" clip-path="url(#pf785f285f9)" style="fill: none; stroke: #1f77b4; stroke-width: 1.5"/>
    <path d="M 89.786989 202.869302 
L 89.786989 202.809383 
" clip-path="url(#pf785f285f9)" style="fill: none; stroke: #1f77b4; stroke-width: 1.5"/>
    <path d="M 91.308807 202.559463 
L 91.308807 202.499297 
" clip-path="url(#pf785f285f9)" style="fill: none; stroke: #1f77b4; stroke-width: 1.5"/>
    <path d="M 92.830625 202.391814 
L 92.830625 202.331668 
" clip-path="url(#pf785f285f9)" style="fill: none; stroke: #1f77b4; stroke-width: 1.5"/>
    <path d="M 94.352443 202.27651 
L 94.352443 202.216412 
" clip-path="url(#pf785f285f9)" style="fill: none; stroke: #1f77b4; stroke-width: 1.5"/>
    <path d="M 95.874261 203.123247 
L 95.874261 203.064696 
" clip-path="url(#pf785f285f9)" style="fill: none; stroke: #1f77b4; stroke-width: 1.5"/>
    <path d="M 97.39608 202.189842 
L 97.39608 202.129934 
" clip-path="url(#pf785f285f9)" style="fill: none; stroke: #1f77b4; stroke-width: 1.5"/>
    <path d="M 98.917898 202.52934 
L 98.917898 202.470021 
" clip-path="url(#pf785f285f9)" style="fill: none; stroke: #1f77b4; stroke-width: 1.5"/>
    <path d="M 100.439716 202.352373 
L 100.439716 202.292777 
" clip-path="url(#pf785f285f9)" style="fill: none; stroke: #1f77b4; stroke-width: 1.5"/>
    <path d="M 101.961534 201.759879 
L 101.961534 201.699357 
" clip-path="url(#pf785f285f9)" style="fill: none; stroke: #1f77b4; stroke-width: 1.5"/>
    <path d="M 103.483352 202.177371 
L 103.483352 202.117515 
" clip-path="url(#pf785f285f9)" style="fill: none; stroke: #1f77b4; stroke-width: 1.5"/>
    <path d="M 105.00517 201.012933 
L 105.00517 200.951152 
" clip-path="url(#pf785f285f9)" style="fill: none; stroke: #1f77b4; stroke-width: 1.5"/>
    <path d="M 106.526989 202.176506 
L 106.526989 202.116347 
" clip-path="url(#pf785f285f9)" style="fill: none; stroke: #1f77b4; stroke-width: 1.5"/>
    <path d="M 108.048807 203.402462 
L 108.048807 203.344181 
" clip-path="url(#pf785f285f9)" style="fill: none; stroke: #1f77b4; stroke-width: 1.5"/>
    <path d="M 109.570625 203.620012 
L 109.570625 203.561939 
" clip-path="url(#pf785f285f9)" style="fill: none; stroke: #1f77b4; stroke-width: 1.5"/>
    <path d="M 111.092443 203.574846 
L 111.092443 203.516468 
" clip-path="url(#pf785f285f9)" style="fill: none; stroke: #1f77b4; stroke-width: 1.5"/>
    <path d="M 112.614261 199.941181 
L 112.614261 199.876698 
" clip-path="url(#pf785f285f9)" style="fill: none; stroke: #1f77b4; stroke-width: 1.5"/>
    <path d="M 114.13608 201.664074 
L 114.13608 201.601875 
" clip-path="url(#pf785f285f9)" style="fill: none; stroke: #1f77b4; stroke-width: 1.5"/>
    <path d="M 115.657898 201.726394 
L 115.657898 201.663983 
" clip-path="url(#pf785f285f9)" style="fill: none; stroke: #1f77b4; stroke-width: 1.5"/>
    <path d="M 117.179716 202.054169 
L 117.179716 201.991885 
" clip-path="url(#pf785f285f9)" style="fill: none; stroke: #1f77b4; stroke-width: 1.5"/>
    <path d="M 118.701534 203.319586 
L 118.701534 203.257743 
" clip-path="url(#pf785f285f9)" style="fill: none; stroke: #1f77b4; stroke-width: 1.5"/>
    <path d="M 120.223352 199.472323 
L 120.223352 199.399503 
" clip-path="url(#pf785f285f9)" style="fill: none; stroke: #1f77b4; stroke-width: 1.5"/>
    <path d="M 121.74517 203.753769 
L 121.74517 203.68519 
" clip-path="url(#pf785f285f9)" style="fill: none; stroke: #1f77b4; stroke-width: 1.5"/>
    <path d="M 123.266989 199.175845 
L 123.266989 199.09513 
" clip-path="url(#pf785f285f9)" style="fill: none; stroke: #1f77b4; stroke-width: 1.5"/>
    <path d="M 124.788807 197.778635 
L 124.788807 197.691168 
" clip-path="url(#pf785f285f9)" style="fill: none; stroke: #1f77b4; stroke-width: 1.5"/>
    <path d="M 126.310625 200.856802 
L 126.310625 200.771523 
" clip-path="url(#pf785f285f9)" style="fill: none; stroke: #1f77b4; stroke-width: 1.5"/>
    <path d="M 127.832443 204.380309 
L 127.832443 204.299826 
" clip-path="url(#pf785f285f9)" style="fill: none; stroke: #1f77b4; stroke-width: 1.5"/>
    <path d="M 129.354261 195.65608 
L 129.354261 195.553817 
" clip-path="url(#pf785f285f9)" style="fill: none; stroke: #1f77b4; stroke-width: 1.5"/>
    <path d="M 130.87608 202.700097 
L 130.87608 202.60912 
" clip-path="url(#pf785f285f9)" style="fill: none; stroke: #1f77b4; stroke-width: 1.5"/>
    <path d="M 132.397898 204.55489 
L 132.397898 204.464417 
" clip-path="url(#pf785f285f9)" style="fill: none; stroke: #1f77b4; stroke-width: 1.5"/>
    <path d="M 133.919716 200.888499 
L 133.919716 200.784143 
" clip-path="url(#pf785f285f9)" style="fill: none; stroke: #1f77b4; stroke-width: 1.5"/>
    <path d="M 135.441534 203.716403 
L 135.441534 203.616629 
" clip-path="url(#pf785f285f9)" style="fill: none; stroke: #1f77b4; stroke-width: 1.5"/>
    <path d="M 136.963352 204.551241 
L 136.963352 204.451761 
" clip-path="url(#pf785f285f9)" style="fill: none; stroke: #1f77b4; stroke-width: 1.5"/>
    <path d="M 138.48517 204.47325 
L 138.48517 204.370277 
" clip-path="url(#pf785f285f9)" style="fill: none; stroke: #1f77b4; stroke-width: 1.5"/>
    <path d="M 140.006989 200.834568 
L 140.006989 200.717012 
" clip-path="url(#pf785f285f9)" style="fill: none; stroke: #1f77b4; stroke-width: 1.5"/>
    <path d="M 141.528807 191.580024 
L 141.528807 191.433615 
" clip-path="url(#pf785f285f9)" style="fill: none; stroke: #1f77b4; stroke-width: 1.5"/>
    <path d="M 143.050625 187.055412 
L 143.050625 186.892913 
" clip-path="url(#pf785f285f9)" style="fill: none; stroke: #1f77b4; stroke-width: 1.5"/>
    <path d="M 144.572443 199.918377 
L 144.572443 199.786073 
" clip-path="url(#pf785f285f9)" style="fill: none; stroke: #1f77b4; stroke-width: 1.5"/>
    <path d="M 146.094261 204.401834 
L 146.094261 204.282385 
" clip-path="url(#pf785f285f9)" style="fill: none; stroke: #1f77b4; stroke-width: 1.5"/>
    <path d="M 147.61608 195.925342 
L 147.61608 195.776767 
" clip-path="url(#pf785f285f9)" style="fill: none; stroke: #1f77b4; stroke-width: 1.5"/>
    <path d="M 149.137898 200.807421 
L 149.137898 200.668805 
" clip-path="url(#pf785f285f9)" style="fill: none; stroke: #1f77b4; stroke-width: 1.5"/>
    <path d="M 150.659716 202.758255 
L 150.659716 202.620305 
" clip-path="url(#pf785f285f9)" style="fill: none; stroke: #1f77b4; stroke-width: 1.5"/>
    <path d="M 152.181534 203.985005 
L 152.181534 203.844974 
" clip-path="url(#pf785f285f9)" style="fill: none; stroke: #1f77b4; stroke-width: 1.5"/>
    <path d="M 153.703352 188.729545 
L 153.703352 188.526686 
" clip-path="url(#pf785f285f9)" style="fill: none; stroke: #1f77b4; stroke-width: 1.5"/>
    <path d="M 155.22517 193.997817 
L 155.22517 193.805391 
" clip-path="url(#pf785f285f9)" style="fill: none; stroke: #1f77b4; stroke-width: 1.5"/>
    <path d="M 156.746989 202.229984 
L 156.746989 202.057779 
" clip-path="url(#pf785f285f9)" style="fill: none; stroke: #1f77b4; stroke-width: 1.5"/>
    <path d="M 158.268807 198.656909 
L 158.268807 198.461222 
" clip-path="url(#pf785f285f9)" style="fill: none; stroke: #1f77b4; stroke-width: 1.5"/>
    <path d="M 159.790625 202.528311 
L 159.790625 202.347984 
" clip-path="url(#pf785f285f9)" style="fill: none; stroke: #1f77b4; stroke-width: 1.5"/>
    <path d="M 161.312443 204.026733 
L 161.312443 203.852766 
" clip-path="url(#pf785f285f9)" style="fill: none; stroke: #1f77b4; stroke-width: 1.5"/>
    <path d="M 162.834261 204.042879 
L 162.834261 203.869795 
" clip-path="url(#pf785f285f9)" style="fill: none; stroke: #1f77b4; stroke-width: 1.5"/>
    <path d="M 164.35608 196.108387 
L 164.35608 195.89292 
" clip-path="url(#pf785f285f9)" style="fill: none; stroke: #1f77b4; stroke-width: 1.5"/>
    <path d="M 165.877898 203.556175 
L 165.877898 203.371854 
" clip-path="url(#pf785f285f9)" style="fill: none; stroke: #1f77b4; stroke-width: 1.5"/>
    <path d="M 167.399716 186.909678 
L 167.399716 186.6453 
" clip-path="url(#pf785f285f9)" style="fill: none; stroke: #1f77b4; stroke-width: 1.5"/>
    <path d="M 168.921534 203.486113 
L 168.921534 203.292586 
" clip-path="url(#pf785f285f9)" style="fill: none; stroke: #1f77b4; stroke-width: 1.5"/>
    <path d="M 170.443352 197.990104 
L 170.443352 197.76213 
" clip-path="url(#pf785f285f9)" style="fill: none; stroke: #1f77b4; stroke-width: 1.5"/>
    <path d="M 171.96517 203.50236 
L 171.96517 203.298369 
" clip-path="url(#pf785f285f9)" style="fill: none; stroke: #1f77b4; stroke-width: 1.5"/>
    <path d="M 173.486989 200.995556 
L 173.486989 200.77413 
" clip-path="url(#pf785f285f9)" style="fill: none; stroke: #1f77b4; stroke-width: 1.5"/>
    <path d="M 175.008807 203.408247 
L 175.008807 203.193172 
" clip-path="url(#pf785f285f9)" style="fill: none; stroke: #1f77b4; stroke-width: 1.5"/>
    <path d="M 176.530625 173.290843 
L 176.530625 172.92608 
" clip-path="url(#pf785f285f9)" style="fill: none; stroke: #1f77b4; stroke-width: 1.5"/>
    <path d="M 178.052443 201.85462 
L 178.052443 201.617814 
" clip-path="url(#pf785f285f9)" style="fill: none; stroke: #1f77b4; stroke-width: 1.5"/>
    <path d="M 179.574261 202.123355 
L 179.574261 201.882717 
" clip-path="url(#pf785f285f9)" style="fill: none; stroke: #1f77b4; stroke-width: 1.5"/>
    <path d="M 181.09608 190.193002 
L 181.09608 189.879025 
" clip-path="url(#pf785f285f9)" style="fill: none; stroke: #1f77b4; stroke-width: 1.5"/>
    <path d="M 182.617898 202.625395 
L 182.617898 202.375874 
" clip-path="url(#pf785f285f9)" style="fill: none; stroke: #1f77b4; stroke-width: 1.5"/>
    <path d="M 184.139716 189.091615 
L 184.139716 188.759776 
" clip-path="url(#pf785f285f9)" style="fill: none; stroke: #1f77b4; stroke-width: 1.5"/>
    <path d="M 185.661534 201.256748 
L 185.661534 200.992945 
" clip-path="url(#pf785f285f9)" style="fill: none; stroke: #1f77b4; stroke-width: 1.5"/>
    <path d="M 187.183352 202.671263 
L 187.183352 202.411726 
" clip-path="url(#pf785f285f9)" style="fill: none; stroke: #1f77b4; stroke-width: 1.5"/>
    <path d="M 188.70517 202.946294 
L 188.70517 202.684972 
" clip-path="url(#pf785f285f9)" style="fill: none; stroke: #1f77b4; stroke-width: 1.5"/>
    <path d="M 190.226989 202.871515 
L 190.226989 202.601599 
" clip-path="url(#pf785f285f9)" style="fill: none; stroke: #1f77b4; stroke-width: 1.5"/>
    <path d="M 191.748807 203.029821 
L 191.748807 202.754291 
" clip-path="url(#pf785f285f9)" style="fill: none; stroke: #1f77b4; stroke-width: 1.5"/>
    <path d="M 193.270625 201.834251 
L 193.270625 201.543162 
" clip-path="url(#pf785f285f9)" style="fill: none; stroke: #1f77b4; stroke-width: 1.5"/>
    <path d="M 194.792443 202.230065 
L 194.792443 201.934161 
" clip-path="url(#pf785f285f9)" style="fill: none; stroke: #1f77b4; stroke-width: 1.5"/>
    <path d="M 196.314261 202.558573 
L 196.314261 202.258961 
" clip-path="url(#pf785f285f9)" style="fill: none; stroke: #1f77b4; stroke-width: 1.5"/>
    <path d="M 197.83608 202.594642 
L 197.83608 202.287824 
" clip-path="url(#pf785f285f9)" style="fill: none; stroke: #1f77b4; stroke-width: 1.5"/>
    <path d="M 199.357898 200.96177 
L 199.357898 200.634071 
" clip-path="url(#pf785f285f9)" style="fill: none; stroke: #1f77b4; stroke-width: 1.5"/>
    <path d="M 200.879716 202.557981 
L 200.879716 202.233811 
" clip-path="url(#pf785f285f9)" style="fill: none; stroke: #1f77b4; stroke-width: 1.5"/>
    <path d="M 202.401534 202.663497 
L 202.401534 202.331286 
" clip-path="url(#pf785f285f9)" style="fill: none; stroke: #1f77b4; stroke-width: 1.5"/>
    <path d="M 203.923352 202.290385 
L 203.923352 201.945575 
" clip-path="url(#pf785f285f9)" style="fill: none; stroke: #1f77b4; stroke-width: 1.5"/>
    <path d="M 205.44517 188.303925 
L 205.44517 187.836016 
" clip-path="url(#pf785f285f9)" style="fill: none; stroke: #1f77b4; stroke-width: 1.5"/>
    <path d="M 206.966989 202.14495 
L 206.966989 201.776398 
" clip-path="url(#pf785f285f9)" style="fill: none; stroke: #1f77b4; stroke-width: 1.5"/>
    <path d="M 208.488807 202.800359 
L 208.488807 202.431042 
" clip-path="url(#pf785f285f9)" style="fill: none; stroke: #1f77b4; stroke-width: 1.5"/>
    <path d="M 210.010625 204.496369 
L 210.010625 204.160203 
" clip-path="url(#pf785f285f9)" style="fill: none; stroke: #1f77b4; stroke-width: 1.5"/>
    <path d="M 211.532443 202.138805 
L 211.532443 201.742261 
" clip-path="url(#pf785f285f9)" style="fill: none; stroke: #1f77b4; stroke-width: 1.5"/>
    <path d="M 213.054261 200.220878 
L 213.054261 199.790231 
" clip-path="url(#pf785f285f9)" style="fill: none; stroke: #1f77b4; stroke-width: 1.5"/>
    <path d="M 214.57608 202.170985 
L 214.57608 201.750276 
" clip-path="url(#pf785f285f9)" style="fill: none; stroke: #1f77b4; stroke-width: 1.5"/>
    <path d="M 216.097898 202.16467 
L 216.097898 201.738582 
" clip-path="url(#pf785f285f9)" style="fill: none; stroke: #1f77b4; stroke-width: 1.5"/>
    <path d="M 217.619716 201.673364 
L 217.619716 201.239874 
" clip-path="url(#pf785f285f9)" style="fill: none; stroke: #1f77b4; stroke-width: 1.5"/>
    <path d="M 219.141534 198.048286 
L 219.141534 197.571377 
" clip-path="url(#pf785f285f9)" style="fill: none; stroke: #1f77b4; stroke-width: 1.5"/>
    <path d="M 220.663352 115.365331 
L 220.663352 114.340174 
" clip-path="url(#pf785f285f9)" style="fill: none; stroke: #1f77b4; stroke-width: 1.5"/>
    <path d="M 222.18517 200.613717 
L 222.18517 200.154746 
" clip-path="url(#pf785f285f9)" style="fill: none; stroke: #1f77b4; stroke-width: 1.5"/>
    <path d="M 223.706989 201.685398 
L 223.706989 201.233086 
" clip-path="url(#pf785f285f9)" style="fill: none; stroke: #1f77b4; stroke-width: 1.5"/>
    <path d="M 225.228807 201.721168 
L 225.228807 201.260288 
" clip-path="url(#pf785f285f9)" style="fill: none; stroke: #1f77b4; stroke-width: 1.5"/>
    <path d="M 226.750625 201.349433 
L 226.750625 200.876611 
" clip-path="url(#pf785f285f9)" style="fill: none; stroke: #1f77b4; stroke-width: 1.5"/>
    <path d="M 228.272443 195.987929 
L 228.272443 195.444364 
" clip-path="url(#pf785f285f9)" style="fill: none; stroke: #1f77b4; stroke-width: 1.5"/>
    <path d="M 229.794261 18.844863 
L 229.794261 17.28 
" clip-path="url(#pf785f285f9)" style="fill: none; stroke: #1f77b4; stroke-width: 1.5"/>
    <path d="M 231.31608 199.082674 
L 231.31608 198.556934 
" clip-path="url(#pf785f285f9)" style="fill: none; stroke: #1f77b4; stroke-width: 1.5"/>
    <path d="M 232.837898 201.554412 
L 232.837898 201.054168 
" clip-path="url(#pf785f285f9)" style="fill: none; stroke: #1f77b4; stroke-width: 1.5"/>
    <path d="M 234.359716 202.269306 
L 234.359716 201.771049 
" clip-path="url(#pf785f285f9)" style="fill: none; stroke: #1f77b4; stroke-width: 1.5"/>
    <path d="M 235.881534 202.498541 
L 235.881534 201.994123 
" clip-path="url(#pf785f285f9)" style="fill: none; stroke: #1f77b4; stroke-width: 1.5"/>
    <path d="M 237.403352 202.317278 
L 237.403352 201.798175 
" clip-path="url(#pf785f285f9)" style="fill: none; stroke: #1f77b4; stroke-width: 1.5"/>
    <path d="M 238.92517 201.698191 
L 238.92517 201.164991 
" clip-path="url(#pf785f285f9)" style="fill: none; stroke: #1f77b4; stroke-width: 1.5"/>
    <path d="M 240.446989 203.061922 
L 240.446989 202.540982 
" clip-path="url(#pf785f285f9)" style="fill: none; stroke: #1f77b4; stroke-width: 1.5"/>
    <path d="M 241.968807 202.866912 
L 241.968807 202.332595 
" clip-path="url(#pf785f285f9)" style="fill: none; stroke: #1f77b4; stroke-width: 1.5"/>
    <path d="M 243.490625 201.898036 
L 243.490625 201.339119 
" clip-path="url(#pf785f285f9)" style="fill: none; stroke: #1f77b4; stroke-width: 1.5"/>
    <path d="M 245.012443 202.509561 
L 245.012443 201.955156 
" clip-path="url(#pf785f285f9)" style="fill: none; stroke: #1f77b4; stroke-width: 1.5"/>
    <path d="M 246.534261 204.851586 
L 246.534261 204.364538 
" clip-path="url(#pf785f285f9)" style="fill: none; stroke: #1f77b4; stroke-width: 1.5"/>
    <path d="M 248.05608 202.114994 
L 248.05608 201.530658 
" clip-path="url(#pf785f285f9)" style="fill: none; stroke: #1f77b4; stroke-width: 1.5"/>
    <path d="M 249.577898 202.664297 
L 249.577898 202.076781 
" clip-path="url(#pf785f285f9)" style="fill: none; stroke: #1f77b4; stroke-width: 1.5"/>
    <path d="M 251.099716 202.750058 
L 251.099716 202.156569 
" clip-path="url(#pf785f285f9)" style="fill: none; stroke: #1f77b4; stroke-width: 1.5"/>
    <path d="M 252.621534 202.722921 
L 252.621534 202.115653 
" clip-path="url(#pf785f285f9)" style="fill: none; stroke: #1f77b4; stroke-width: 1.5"/>
    <path d="M 254.143352 202.482671 
L 254.143352 201.862119 
" clip-path="url(#pf785f285f9)" style="fill: none; stroke: #1f77b4; stroke-width: 1.5"/>
    <path d="M 255.66517 202.943251 
L 255.66517 202.317755 
" clip-path="url(#pf785f285f9)" style="fill: none; stroke: #1f77b4; stroke-width: 1.5"/>
    <path d="M 257.186989 202.400077 
L 257.186989 201.751525 
" clip-path="url(#pf785f285f9)" style="fill: none; stroke: #1f77b4; stroke-width: 1.5"/>
    <path d="M 258.708807 202.840852 
L 258.708807 202.188198 
" clip-path="url(#pf785f285f9)" style="fill: none; stroke: #1f77b4; stroke-width: 1.5"/>
    <path d="M 260.230625 202.283626 
L 260.230625 201.605413 
" clip-path="url(#pf785f285f9)" style="fill: none; stroke: #1f77b4; stroke-width: 1.5"/>
    <path d="M 261.752443 202.607894 
L 261.752443 201.930456 
" clip-path="url(#pf785f285f9)" style="fill: none; stroke: #1f77b4; stroke-width: 1.5"/>
    <path d="M 263.274261 202.807399 
L 263.274261 202.118598 
" clip-path="url(#pf785f285f9)" style="fill: none; stroke: #1f77b4; stroke-width: 1.5"/>
    <path d="M 264.79608 203.013812 
L 264.79608 202.323454 
" clip-path="url(#pf785f285f9)" style="fill: none; stroke: #1f77b4; stroke-width: 1.5"/>
    <path d="M 266.317898 202.817147 
L 266.317898 202.12274 
" clip-path="url(#pf785f285f9)" style="fill: none; stroke: #1f77b4; stroke-width: 1.5"/>
    <path d="M 267.839716 202.868378 
L 267.839716 202.163409 
" clip-path="url(#pf785f285f9)" style="fill: none; stroke: #1f77b4; stroke-width: 1.5"/>
    <path d="M 269.361534 186.454437 
L 269.361534 185.482066 
" clip-path="url(#pf785f285f9)" style="fill: none; stroke: #1f77b4; stroke-width: 1.5"/>
    <path d="M 270.883352 181.221144 
L 270.883352 180.151977 
" clip-path="url(#pf785f285f9)" style="fill: none; stroke: #1f77b4; stroke-width: 1.5"/>
    <path d="M 272.40517 202.365265 
L 272.40517 201.618021 
" clip-path="url(#pf785f285f9)" style="fill: none; stroke: #1f77b4; stroke-width: 1.5"/>
    <path d="M 273.926989 202.461411 
L 273.926989 201.706488 
" clip-path="url(#pf785f285f9)" style="fill: none; stroke: #1f77b4; stroke-width: 1.5"/>
    <path d="M 275.448807 203.062703 
L 275.448807 202.296723 
" clip-path="url(#pf785f285f9)" style="fill: none; stroke: #1f77b4; stroke-width: 1.5"/>
    <path d="M 276.970625 202.053564 
L 276.970625 201.25441 
" clip-path="url(#pf785f285f9)" style="fill: none; stroke: #1f77b4; stroke-width: 1.5"/>
    <path d="M 278.492443 202.571755 
L 278.492443 201.771099 
" clip-path="url(#pf785f285f9)" style="fill: none; stroke: #1f77b4; stroke-width: 1.5"/>
    <path d="M 280.014261 203.172121 
L 280.014261 202.361404 
" clip-path="url(#pf785f285f9)" style="fill: none; stroke: #1f77b4; stroke-width: 1.5"/>
    <path d="M 281.53608 202.734114 
L 281.53608 201.893774 
" clip-path="url(#pf785f285f9)" style="fill: none; stroke: #1f77b4; stroke-width: 1.5"/>
    <path d="M 283.057898 201.393724 
L 283.057898 200.511403 
" clip-path="url(#pf785f285f9)" style="fill: none; stroke: #1f77b4; stroke-width: 1.5"/>
    <path d="M 284.579716 201.810158 
L 284.579716 200.92301 
" clip-path="url(#pf785f285f9)" style="fill: none; stroke: #1f77b4; stroke-width: 1.5"/>
    <path d="M 286.101534 202.222198 
L 286.101534 201.327286 
" clip-path="url(#pf785f285f9)" style="fill: none; stroke: #1f77b4; stroke-width: 1.5"/>
    <path d="M 287.623352 202.788381 
L 287.623352 201.886243 
" clip-path="url(#pf785f285f9)" style="fill: none; stroke: #1f77b4; stroke-width: 1.5"/>
    <path d="M 289.14517 200.96298 
L 289.14517 199.988491 
" clip-path="url(#pf785f285f9)" style="fill: none; stroke: #1f77b4; stroke-width: 1.5"/>
    <path d="M 290.666989 172.918468 
L 290.666989 171.409784 
" clip-path="url(#pf785f285f9)" style="fill: none; stroke: #1f77b4; stroke-width: 1.5"/>
    <path d="M 292.188807 188.915528 
L 292.188807 187.662857 
" clip-path="url(#pf785f285f9)" style="fill: none; stroke: #1f77b4; stroke-width: 1.5"/>
    <path d="M 293.710625 202.372407 
L 293.710625 201.386048 
" clip-path="url(#pf785f285f9)" style="fill: none; stroke: #1f77b4; stroke-width: 1.5"/>
    <path d="M 295.232443 202.503908 
L 295.232443 201.518398 
" clip-path="url(#pf785f285f9)" style="fill: none; stroke: #1f77b4; stroke-width: 1.5"/>
    <path d="M 296.754261 201.557983 
L 296.754261 200.516924 
" clip-path="url(#pf785f285f9)" style="fill: none; stroke: #1f77b4; stroke-width: 1.5"/>
    <path d="M 298.27608 202.280437 
L 298.27608 201.232463 
" clip-path="url(#pf785f285f9)" style="fill: none; stroke: #1f77b4; stroke-width: 1.5"/>
    <path d="M 299.797898 201.792643 
L 299.797898 200.704021 
" clip-path="url(#pf785f285f9)" style="fill: none; stroke: #1f77b4; stroke-width: 1.5"/>
    <path d="M 301.319716 201.70354 
L 301.319716 200.58566 
" clip-path="url(#pf785f285f9)" style="fill: none; stroke: #1f77b4; stroke-width: 1.5"/>
    <path d="M 302.841534 202.525776 
L 302.841534 201.407193 
" clip-path="url(#pf785f285f9)" style="fill: none; stroke: #1f77b4; stroke-width: 1.5"/>
    <path d="M 304.363352 201.618775 
L 304.363352 200.450639 
" clip-path="url(#pf785f285f9)" style="fill: none; stroke: #1f77b4; stroke-width: 1.5"/>
    <path d="M 305.88517 201.187334 
L 305.88517 199.948458 
" clip-path="url(#pf785f285f9)" style="fill: none; stroke: #1f77b4; stroke-width: 1.5"/>
    <path d="M 307.406989 203.046145 
L 307.406989 201.854152 
" clip-path="url(#pf785f285f9)" style="fill: none; stroke: #1f77b4; stroke-width: 1.5"/>
    <path d="M 308.928807 201.897089 
L 308.928807 200.632986 
" clip-path="url(#pf785f285f9)" style="fill: none; stroke: #1f77b4; stroke-width: 1.5"/>
    <path d="M 310.450625 203.108449 
L 310.450625 201.860407 
" clip-path="url(#pf785f285f9)" style="fill: none; stroke: #1f77b4; stroke-width: 1.5"/>
    <path d="M 311.972443 203.263867 
L 311.972443 201.997708 
" clip-path="url(#pf785f285f9)" style="fill: none; stroke: #1f77b4; stroke-width: 1.5"/>
    <path d="M 313.494261 202.910122 
L 313.494261 201.585847 
" clip-path="url(#pf785f285f9)" style="fill: none; stroke: #1f77b4; stroke-width: 1.5"/>
    <path d="M 315.01608 203.423755 
L 315.01608 202.087361 
" clip-path="url(#pf785f285f9)" style="fill: none; stroke: #1f77b4; stroke-width: 1.5"/>
    <path d="M 316.537898 201.905616 
L 316.537898 200.457967 
" clip-path="url(#pf785f285f9)" style="fill: none; stroke: #1f77b4; stroke-width: 1.5"/>
    <path d="M 318.059716 195.320999 
L 318.059716 193.625766 
" clip-path="url(#pf785f285f9)" style="fill: none; stroke: #1f77b4; stroke-width: 1.5"/>
    <path d="M 319.581534 129.176104 
L 319.581534 125.891939 
" clip-path="url(#pf785f285f9)" style="fill: none; stroke: #1f77b4; stroke-width: 1.5"/>
    <path d="M 321.103352 188.219312 
L 321.103352 186.151766 
" clip-path="url(#pf785f285f9)" style="fill: none; stroke: #1f77b4; stroke-width: 1.5"/>
    <path d="M 322.62517 201.657666 
L 322.62517 200.004412 
" clip-path="url(#pf785f285f9)" style="fill: none; stroke: #1f77b4; stroke-width: 1.5"/>
    <path d="M 324.146989 202.350554 
L 324.146989 200.695582 
" clip-path="url(#pf785f285f9)" style="fill: none; stroke: #1f77b4; stroke-width: 1.5"/>
    <path d="M 325.668807 202.0973 
L 325.668807 200.36939 
" clip-path="url(#pf785f285f9)" style="fill: none; stroke: #1f77b4; stroke-width: 1.5"/>
    <path d="M 327.190625 203.994894 
L 327.190625 202.457262 
" clip-path="url(#pf785f285f9)" style="fill: none; stroke: #1f77b4; stroke-width: 1.5"/>
    <path d="M 328.712443 202.417351 
L 328.712443 200.653386 
" clip-path="url(#pf785f285f9)" style="fill: none; stroke: #1f77b4; stroke-width: 1.5"/>
    <path d="M 330.234261 204.725641 
L 330.234261 202.917156 
" clip-path="url(#pf785f285f9)" style="fill: none; stroke: #1f77b4; stroke-width: 1.5"/>
    <path d="M 331.75608 202.033027 
L 331.75608 199.99145 
" clip-path="url(#pf785f285f9)" style="fill: none; stroke: #1f77b4; stroke-width: 1.5"/>
    <path d="M 333.277898 202.946213 
L 333.277898 200.855882 
" clip-path="url(#pf785f285f9)" style="fill: none; stroke: #1f77b4; stroke-width: 1.5"/>
    <path d="M 334.799716 203.22921 
L 334.799716 201.083936 
" clip-path="url(#pf785f285f9)" style="fill: none; stroke: #1f77b4; stroke-width: 1.5"/>
    <path d="M 336.321534 205.404175 
L 336.321534 203.266573 
" clip-path="url(#pf785f285f9)" style="fill: none; stroke: #1f77b4; stroke-width: 1.5"/>
    <path d="M 337.843352 205.512618 
L 337.843352 203.266237 
" clip-path="url(#pf785f285f9)" style="fill: none; stroke: #1f77b4; stroke-width: 1.5"/>
    <path d="M 339.36517 201.271769 
L 339.36517 198.46696 
" clip-path="url(#pf785f285f9)" style="fill: none; stroke: #1f77b4; stroke-width: 1.5"/>
    <path d="M 340.886989 202.135736 
L 340.886989 199.172826 
" clip-path="url(#pf785f285f9)" style="fill: none; stroke: #1f77b4; stroke-width: 1.5"/>
    <path d="M 342.408807 203.176773 
L 342.408807 199.92474 
" clip-path="url(#pf785f285f9)" style="fill: none; stroke: #1f77b4; stroke-width: 1.5"/>
    <path d="M 343.930625 205.708619 
L 343.930625 202.482571 
" clip-path="url(#pf785f285f9)" style="fill: none; stroke: #1f77b4; stroke-width: 1.5"/>
    <path d="M 345.452443 202.112747 
L 345.452443 197.801049 
" clip-path="url(#pf785f285f9)" style="fill: none; stroke: #1f77b4; stroke-width: 1.5"/>
    <path d="M 346.974261 205.043392 
L 346.974261 200.678285 
" clip-path="url(#pf785f285f9)" style="fill: none; stroke: #1f77b4; stroke-width: 1.5"/>
    <path d="M 348.49608 203.153418 
L 348.49608 196.7817 
" clip-path="url(#pf785f285f9)" style="fill: none; stroke: #1f77b4; stroke-width: 1.5"/>
    <path d="M 350.017898 206.918009 
L 350.017898 198.319694 
" clip-path="url(#pf785f285f9)" style="fill: none; stroke: #1f77b4; stroke-width: 1.5"/>
    <path d="M 351.539716 218.88 
L 351.539716 209.326316 
" clip-path="url(#pf785f285f9)" style="fill: none; stroke: #1f77b4; stroke-width: 1.5"/>
    <path d="M 353.061534 207.008204 
L 353.061534 140.132418 
" clip-path="url(#pf785f285f9)" style="fill: none; stroke: #1f77b4; stroke-width: 1.5"/>
   </g>
   <g id="patch_3">
    <path d="M 34.240625 228.96 
L 34.240625 7.2 
" style="fill: none; stroke: #000000; stroke-width: 0.8; stroke-linejoin: miter; stroke-linecap: square"/>
   </g>
   <g id="patch_4">
    <path d="M 369.040625 228.96 
L 369.040625 7.2 
" style="fill: none; stroke: #000000; stroke-width: 0.8; stroke-linejoin: miter; stroke-linecap: square"/>
   </g>
   <g id="patch_5">
    <path d="M 34.240625 228.96 
L 369.040625 228.96 
" style="fill: none; stroke: #000000; stroke-width: 0.8; stroke-linejoin: miter; stroke-linecap: square"/>
   </g>
   <g id="patch_6">
    <path d="M 34.240625 7.2 
L 369.040625 7.2 
" style="fill: none; stroke: #000000; stroke-width: 0.8; stroke-linejoin: miter; stroke-linecap: square"/>
   </g>
  </g>
 </g>
 <defs>
  <clipPath id="pf785f285f9">
   <rect x="34.240625" y="7.2" width="334.8" height="221.76"/>
  </clipPath>
 </defs>
</svg>
