<?xml version="1.0" encoding="utf-8" standalone="no"?>
<!DOCTYPE svg PUBLIC "-//W3C//DTD SVG 1.1//EN"
  "http://www.w3.org/Graphics/SVG/1.1/DTD/svg11.dtd">
<svg xmlns:xlink="http://www.w3.org/1999/xlink" width="424.433125pt" height="280.274375pt" viewBox="0 0 424.433125 280.274375" xmlns="http://www.w3.org/2000/svg" version="1.1">
 <metadata>
  <rdf:RDF xmlns:dc="http://purl.org/dc/elements/1.1/" xmlns:cc="http://creativecommons.org/ns#" xmlns:rdf="http://www.w3.org/1999/02/22-rdf-syntax-ns#">
   <cc:Work>
    <dc:type rdf:resource="http://purl.org/dc/dcmitype/StillImage"/>
    <dc:date>2024-06-17T06:16:47.896176</dc:date>
    <dc:format>image/svg+xml</dc:format>
    <dc:creator>
     <cc:Agent>
      <dc:title>Matplotlib v3.9.0, https://matplotlib.org/</dc:title>
     </cc:Agent>
    </dc:creator>
   </cc:Work>
  </rdf:RDF>
 </metadata>
 <defs>
  <style type="text/css">*{stroke-linejoin: round; stroke-linecap: butt}</style>
 </defs>
 <g id="figure_1">
  <g id="patch_1">
   <path d="M 0 280.274375 
L 424.433125 280.274375 
L 424.433125 0 
L 0 0 
z
" style="fill: #ffffff"/>
  </g>
  <g id="axes_1">
   <g id="patch_2">
    <path d="M 40.603125 241.03375 
L 417.233125 241.03375 
L 417.233125 7.2 
L 40.603125 7.2 
z
" style="fill: #ffffff"/>
   </g>
   <g id="matplotlib.axis_1">
    <g id="xtick_1">
     <g id="line2d_1">
      <defs>
       <path id="m69bea5b8df" d="M 0 0 
L 0 3.5 
" style="stroke: #000000; stroke-width: 0.8"/>
      </defs>
      <g>
       <use xlink:href="#m69bea5b8df" x="57.72267" y="241.03375" style="stroke: #000000; stroke-width: 0.8"/>
      </g>
     </g>
     <g id="text_1">
      <!-- 0.0 -->
      <g transform="translate(49.771108 255.632187) scale(0.1 -0.1)">
       <defs>
        <path id="DejaVuSans-30" d="M 2034 4250 
Q 1547 4250 1301 3770 
Q 1056 3291 1056 2328 
Q 1056 1369 1301 889 
Q 1547 409 2034 409 
Q 2525 409 2770 889 
Q 3016 1369 3016 2328 
Q 3016 3291 2770 3770 
Q 2525 4250 2034 4250 
z
M 2034 4750 
Q 2819 4750 3233 4129 
Q 3647 3509 3647 2328 
Q 3647 1150 3233 529 
Q 2819 -91 2034 -91 
Q 1250 -91 836 529 
Q 422 1150 422 2328 
Q 422 3509 836 4129 
Q 1250 4750 2034 4750 
z
" transform="scale(0.015625)"/>
        <path id="DejaVuSans-2e" d="M 684 794 
L 1344 794 
L 1344 0 
L 684 0 
L 684 794 
z
" transform="scale(0.015625)"/>
       </defs>
       <use xlink:href="#DejaVuSans-30"/>
       <use xlink:href="#DejaVuSans-2e" x="63.623047"/>
       <use xlink:href="#DejaVuSans-30" x="95.410156"/>
      </g>
     </g>
    </g>
    <g id="xtick_2">
     <g id="line2d_2">
      <g>
       <use xlink:href="#m69bea5b8df" x="130.776974" y="241.03375" style="stroke: #000000; stroke-width: 0.8"/>
      </g>
     </g>
     <g id="text_2">
      <!-- 0.5 -->
      <g transform="translate(122.825411 255.632187) scale(0.1 -0.1)">
       <defs>
        <path id="DejaVuSans-35" d="M 691 4666 
L 3169 4666 
L 3169 4134 
L 1269 4134 
L 1269 2991 
Q 1406 3038 1543 3061 
Q 1681 3084 1819 3084 
Q 2600 3084 3056 2656 
Q 3513 2228 3513 1497 
Q 3513 744 3044 326 
Q 2575 -91 1722 -91 
Q 1428 -91 1123 -41 
Q 819 9 494 109 
L 494 744 
Q 775 591 1075 516 
Q 1375 441 1709 441 
Q 2250 441 2565 725 
Q 2881 1009 2881 1497 
Q 2881 1984 2565 2268 
Q 2250 2553 1709 2553 
Q 1456 2553 1204 2497 
Q 953 2441 691 2322 
L 691 4666 
z
" transform="scale(0.015625)"/>
       </defs>
       <use xlink:href="#DejaVuSans-30"/>
       <use xlink:href="#DejaVuSans-2e" x="63.623047"/>
       <use xlink:href="#DejaVuSans-35" x="95.410156"/>
      </g>
     </g>
    </g>
    <g id="xtick_3">
     <g id="line2d_3">
      <g>
       <use xlink:href="#m69bea5b8df" x="203.831277" y="241.03375" style="stroke: #000000; stroke-width: 0.8"/>
      </g>
     </g>
     <g id="text_3">
      <!-- 1.0 -->
      <g transform="translate(195.879715 255.632187) scale(0.1 -0.1)">
       <defs>
        <path id="DejaVuSans-31" d="M 794 531 
L 1825 531 
L 1825 4091 
L 703 3866 
L 703 4441 
L 1819 4666 
L 2450 4666 
L 2450 531 
L 3481 531 
L 3481 0 
L 794 0 
L 794 531 
z
" transform="scale(0.015625)"/>
       </defs>
       <use xlink:href="#DejaVuSans-31"/>
       <use xlink:href="#DejaVuSans-2e" x="63.623047"/>
       <use xlink:href="#DejaVuSans-30" x="95.410156"/>
      </g>
     </g>
    </g>
    <g id="xtick_4">
     <g id="line2d_4">
      <g>
       <use xlink:href="#m69bea5b8df" x="276.885581" y="241.03375" style="stroke: #000000; stroke-width: 0.8"/>
      </g>
     </g>
     <g id="text_4">
      <!-- 1.5 -->
      <g transform="translate(268.934018 255.632187) scale(0.1 -0.1)">
       <use xlink:href="#DejaVuSans-31"/>
       <use xlink:href="#DejaVuSans-2e" x="63.623047"/>
       <use xlink:href="#DejaVuSans-35" x="95.410156"/>
      </g>
     </g>
    </g>
    <g id="xtick_5">
     <g id="line2d_5">
      <g>
       <use xlink:href="#m69bea5b8df" x="349.939884" y="241.03375" style="stroke: #000000; stroke-width: 0.8"/>
      </g>
     </g>
     <g id="text_5">
      <!-- 2.0 -->
      <g transform="translate(341.988321 255.632187) scale(0.1 -0.1)">
       <defs>
        <path id="DejaVuSans-32" d="M 1228 531 
L 3431 531 
L 3431 0 
L 469 0 
L 469 531 
Q 828 903 1448 1529 
Q 2069 2156 2228 2338 
Q 2531 2678 2651 2914 
Q 2772 3150 2772 3378 
Q 2772 3750 2511 3984 
Q 2250 4219 1831 4219 
Q 1534 4219 1204 4116 
Q 875 4013 500 3803 
L 500 4441 
Q 881 4594 1212 4672 
Q 1544 4750 1819 4750 
Q 2544 4750 2975 4387 
Q 3406 4025 3406 3419 
Q 3406 3131 3298 2873 
Q 3191 2616 2906 2266 
Q 2828 2175 2409 1742 
Q 1991 1309 1228 531 
z
" transform="scale(0.015625)"/>
       </defs>
       <use xlink:href="#DejaVuSans-32"/>
       <use xlink:href="#DejaVuSans-2e" x="63.623047"/>
       <use xlink:href="#DejaVuSans-30" x="95.410156"/>
      </g>
     </g>
    </g>
    <g id="text_6">
     <!-- dspacing [Å] -->
     <g transform="translate(197.50875 270.994687) scale(0.1 -0.1)">
      <defs>
       <path id="DejaVuSans-64" d="M 2906 2969 
L 2906 4863 
L 3481 4863 
L 3481 0 
L 2906 0 
L 2906 525 
Q 2725 213 2448 61 
Q 2172 -91 1784 -91 
Q 1150 -91 751 415 
Q 353 922 353 1747 
Q 353 2572 751 3078 
Q 1150 3584 1784 3584 
Q 2172 3584 2448 3432 
Q 2725 3281 2906 2969 
z
M 947 1747 
Q 947 1113 1208 752 
Q 1469 391 1925 391 
Q 2381 391 2643 752 
Q 2906 1113 2906 1747 
Q 2906 2381 2643 2742 
Q 2381 3103 1925 3103 
Q 1469 3103 1208 2742 
Q 947 2381 947 1747 
z
" transform="scale(0.015625)"/>
       <path id="DejaVuSans-73" d="M 2834 3397 
L 2834 2853 
Q 2591 2978 2328 3040 
Q 2066 3103 1784 3103 
Q 1356 3103 1142 2972 
Q 928 2841 928 2578 
Q 928 2378 1081 2264 
Q 1234 2150 1697 2047 
L 1894 2003 
Q 2506 1872 2764 1633 
Q 3022 1394 3022 966 
Q 3022 478 2636 193 
Q 2250 -91 1575 -91 
Q 1294 -91 989 -36 
Q 684 19 347 128 
L 347 722 
Q 666 556 975 473 
Q 1284 391 1588 391 
Q 1994 391 2212 530 
Q 2431 669 2431 922 
Q 2431 1156 2273 1281 
Q 2116 1406 1581 1522 
L 1381 1569 
Q 847 1681 609 1914 
Q 372 2147 372 2553 
Q 372 3047 722 3315 
Q 1072 3584 1716 3584 
Q 2034 3584 2315 3537 
Q 2597 3491 2834 3397 
z
" transform="scale(0.015625)"/>
       <path id="DejaVuSans-70" d="M 1159 525 
L 1159 -1331 
L 581 -1331 
L 581 3500 
L 1159 3500 
L 1159 2969 
Q 1341 3281 1617 3432 
Q 1894 3584 2278 3584 
Q 2916 3584 3314 3078 
Q 3713 2572 3713 1747 
Q 3713 922 3314 415 
Q 2916 -91 2278 -91 
Q 1894 -91 1617 61 
Q 1341 213 1159 525 
z
M 3116 1747 
Q 3116 2381 2855 2742 
Q 2594 3103 2138 3103 
Q 1681 3103 1420 2742 
Q 1159 2381 1159 1747 
Q 1159 1113 1420 752 
Q 1681 391 2138 391 
Q 2594 391 2855 752 
Q 3116 1113 3116 1747 
z
" transform="scale(0.015625)"/>
       <path id="DejaVuSans-61" d="M 2194 1759 
Q 1497 1759 1228 1600 
Q 959 1441 959 1056 
Q 959 750 1161 570 
Q 1363 391 1709 391 
Q 2188 391 2477 730 
Q 2766 1069 2766 1631 
L 2766 1759 
L 2194 1759 
z
M 3341 1997 
L 3341 0 
L 2766 0 
L 2766 531 
Q 2569 213 2275 61 
Q 1981 -91 1556 -91 
Q 1019 -91 701 211 
Q 384 513 384 1019 
Q 384 1609 779 1909 
Q 1175 2209 1959 2209 
L 2766 2209 
L 2766 2266 
Q 2766 2663 2505 2880 
Q 2244 3097 1772 3097 
Q 1472 3097 1187 3025 
Q 903 2953 641 2809 
L 641 3341 
Q 956 3463 1253 3523 
Q 1550 3584 1831 3584 
Q 2591 3584 2966 3190 
Q 3341 2797 3341 1997 
z
" transform="scale(0.015625)"/>
       <path id="DejaVuSans-63" d="M 3122 3366 
L 3122 2828 
Q 2878 2963 2633 3030 
Q 2388 3097 2138 3097 
Q 1578 3097 1268 2742 
Q 959 2388 959 1747 
Q 959 1106 1268 751 
Q 1578 397 2138 397 
Q 2388 397 2633 464 
Q 2878 531 3122 666 
L 3122 134 
Q 2881 22 2623 -34 
Q 2366 -91 2075 -91 
Q 1284 -91 818 406 
Q 353 903 353 1747 
Q 353 2603 823 3093 
Q 1294 3584 2113 3584 
Q 2378 3584 2631 3529 
Q 2884 3475 3122 3366 
z
" transform="scale(0.015625)"/>
       <path id="DejaVuSans-69" d="M 603 3500 
L 1178 3500 
L 1178 0 
L 603 0 
L 603 3500 
z
M 603 4863 
L 1178 4863 
L 1178 4134 
L 603 4134 
L 603 4863 
z
" transform="scale(0.015625)"/>
       <path id="DejaVuSans-6e" d="M 3513 2113 
L 3513 0 
L 2938 0 
L 2938 2094 
Q 2938 2591 2744 2837 
Q 2550 3084 2163 3084 
Q 1697 3084 1428 2787 
Q 1159 2491 1159 1978 
L 1159 0 
L 581 0 
L 581 3500 
L 1159 3500 
L 1159 2956 
Q 1366 3272 1645 3428 
Q 1925 3584 2291 3584 
Q 2894 3584 3203 3211 
Q 3513 2838 3513 2113 
z
" transform="scale(0.015625)"/>
       <path id="DejaVuSans-67" d="M 2906 1791 
Q 2906 2416 2648 2759 
Q 2391 3103 1925 3103 
Q 1463 3103 1205 2759 
Q 947 2416 947 1791 
Q 947 1169 1205 825 
Q 1463 481 1925 481 
Q 2391 481 2648 825 
Q 2906 1169 2906 1791 
z
M 3481 434 
Q 3481 -459 3084 -895 
Q 2688 -1331 1869 -1331 
Q 1566 -1331 1297 -1286 
Q 1028 -1241 775 -1147 
L 775 -588 
Q 1028 -725 1275 -790 
Q 1522 -856 1778 -856 
Q 2344 -856 2625 -561 
Q 2906 -266 2906 331 
L 2906 616 
Q 2728 306 2450 153 
Q 2172 0 1784 0 
Q 1141 0 747 490 
Q 353 981 353 1791 
Q 353 2603 747 3093 
Q 1141 3584 1784 3584 
Q 2172 3584 2450 3431 
Q 2728 3278 2906 2969 
L 2906 3500 
L 3481 3500 
L 3481 434 
z
" transform="scale(0.015625)"/>
       <path id="DejaVuSans-20" transform="scale(0.015625)"/>
       <path id="DejaVuSans-5b" d="M 550 4863 
L 1875 4863 
L 1875 4416 
L 1125 4416 
L 1125 -397 
L 1875 -397 
L 1875 -844 
L 550 -844 
L 550 4863 
z
" transform="scale(0.015625)"/>
       <path id="DejaVuSans-c5" d="M 2663 5081 
Q 2663 5278 2523 5417 
Q 2384 5556 2188 5556 
Q 1988 5556 1852 5420 
Q 1716 5284 1716 5081 
Q 1716 4884 1853 4746 
Q 1991 4609 2188 4609 
Q 2384 4609 2523 4746 
Q 2663 4884 2663 5081 
z
M 2188 4044 
L 1338 1722 
L 3041 1722 
L 2188 4044 
z
M 1716 4366 
Q 1525 4494 1428 4673 
Q 1331 4853 1331 5081 
Q 1331 5441 1579 5691 
Q 1828 5941 2188 5941 
Q 2544 5941 2795 5689 
Q 3047 5438 3047 5081 
Q 3047 4863 2948 4678 
Q 2850 4494 2663 4366 
L 4325 0 
L 3669 0 
L 3244 1197 
L 1141 1197 
L 716 0 
L 50 0 
L 1716 4366 
z
" transform="scale(0.015625)"/>
       <path id="DejaVuSans-5d" d="M 1947 4863 
L 1947 -844 
L 622 -844 
L 622 -397 
L 1369 -397 
L 1369 4416 
L 622 4416 
L 622 4863 
L 1947 4863 
z
" transform="scale(0.015625)"/>
      </defs>
      <use xlink:href="#DejaVuSans-64"/>
      <use xlink:href="#DejaVuSans-73" x="63.476562"/>
      <use xlink:href="#DejaVuSans-70" x="115.576172"/>
      <use xlink:href="#DejaVuSans-61" x="179.052734"/>
      <use xlink:href="#DejaVuSans-63" x="240.332031"/>
      <use xlink:href="#DejaVuSans-69" x="295.3125"/>
      <use xlink:href="#DejaVuSans-6e" x="323.095703"/>
      <use xlink:href="#DejaVuSans-67" x="386.474609"/>
      <use xlink:href="#DejaVuSans-20" x="449.951172"/>
      <use xlink:href="#DejaVuSans-5b" x="481.738281"/>
      <use xlink:href="#DejaVuSans-c5" x="520.751953"/>
      <use xlink:href="#DejaVuSans-5d" x="589.160156"/>
     </g>
    </g>
   </g>
   <g id="matplotlib.axis_2">
    <g id="ytick_1">
     <g id="line2d_6">
      <defs>
       <path id="maf68caa3cb" d="M 0 0 
L -3.5 0 
" style="stroke: #000000; stroke-width: 0.8"/>
      </defs>
      <g>
       <use xlink:href="#maf68caa3cb" x="40.603125" y="230.404943" style="stroke: #000000; stroke-width: 0.8"/>
      </g>
     </g>
     <g id="text_7">
      <!-- 0 -->
      <g transform="translate(27.240625 234.204162) scale(0.1 -0.1)">
       <use xlink:href="#DejaVuSans-30"/>
      </g>
     </g>
    </g>
    <g id="ytick_2">
     <g id="line2d_7">
      <g>
       <use xlink:href="#maf68caa3cb" x="40.603125" y="189.138733" style="stroke: #000000; stroke-width: 0.8"/>
      </g>
     </g>
     <g id="text_8">
      <!-- 2 -->
      <g transform="translate(27.240625 192.937952) scale(0.1 -0.1)">
       <use xlink:href="#DejaVuSans-32"/>
      </g>
     </g>
    </g>
    <g id="ytick_3">
     <g id="line2d_8">
      <g>
       <use xlink:href="#maf68caa3cb" x="40.603125" y="147.872523" style="stroke: #000000; stroke-width: 0.8"/>
      </g>
     </g>
     <g id="text_9">
      <!-- 4 -->
      <g transform="translate(27.240625 151.671742) scale(0.1 -0.1)">
       <defs>
        <path id="DejaVuSans-34" d="M 2419 4116 
L 825 1625 
L 2419 1625 
L 2419 4116 
z
M 2253 4666 
L 3047 4666 
L 3047 1625 
L 3713 1625 
L 3713 1100 
L 3047 1100 
L 3047 0 
L 2419 0 
L 2419 1100 
L 313 1100 
L 313 1709 
L 2253 4666 
z
" transform="scale(0.015625)"/>
       </defs>
       <use xlink:href="#DejaVuSans-34"/>
      </g>
     </g>
    </g>
    <g id="ytick_4">
     <g id="line2d_9">
      <g>
       <use xlink:href="#maf68caa3cb" x="40.603125" y="106.606313" style="stroke: #000000; stroke-width: 0.8"/>
      </g>
     </g>
     <g id="text_10">
      <!-- 6 -->
      <g transform="translate(27.240625 110.405531) scale(0.1 -0.1)">
       <defs>
        <path id="DejaVuSans-36" d="M 2113 2584 
Q 1688 2584 1439 2293 
Q 1191 2003 1191 1497 
Q 1191 994 1439 701 
Q 1688 409 2113 409 
Q 2538 409 2786 701 
Q 3034 994 3034 1497 
Q 3034 2003 2786 2293 
Q 2538 2584 2113 2584 
z
M 3366 4563 
L 3366 3988 
Q 3128 4100 2886 4159 
Q 2644 4219 2406 4219 
Q 1781 4219 1451 3797 
Q 1122 3375 1075 2522 
Q 1259 2794 1537 2939 
Q 1816 3084 2150 3084 
Q 2853 3084 3261 2657 
Q 3669 2231 3669 1497 
Q 3669 778 3244 343 
Q 2819 -91 2113 -91 
Q 1303 -91 875 529 
Q 447 1150 447 2328 
Q 447 3434 972 4092 
Q 1497 4750 2381 4750 
Q 2619 4750 2861 4703 
Q 3103 4656 3366 4563 
z
" transform="scale(0.015625)"/>
       </defs>
       <use xlink:href="#DejaVuSans-36"/>
      </g>
     </g>
    </g>
    <g id="ytick_5">
     <g id="line2d_10">
      <g>
       <use xlink:href="#maf68caa3cb" x="40.603125" y="65.340102" style="stroke: #000000; stroke-width: 0.8"/>
      </g>
     </g>
     <g id="text_11">
      <!-- 8 -->
      <g transform="translate(27.240625 69.139321) scale(0.1 -0.1)">
       <defs>
        <path id="DejaVuSans-38" d="M 2034 2216 
Q 1584 2216 1326 1975 
Q 1069 1734 1069 1313 
Q 1069 891 1326 650 
Q 1584 409 2034 409 
Q 2484 409 2743 651 
Q 3003 894 3003 1313 
Q 3003 1734 2745 1975 
Q 2488 2216 2034 2216 
z
M 1403 2484 
Q 997 2584 770 2862 
Q 544 3141 544 3541 
Q 544 4100 942 4425 
Q 1341 4750 2034 4750 
Q 2731 4750 3128 4425 
Q 3525 4100 3525 3541 
Q 3525 3141 3298 2862 
Q 3072 2584 2669 2484 
Q 3125 2378 3379 2068 
Q 3634 1759 3634 1313 
Q 3634 634 3220 271 
Q 2806 -91 2034 -91 
Q 1263 -91 848 271 
Q 434 634 434 1313 
Q 434 1759 690 2068 
Q 947 2378 1403 2484 
z
M 1172 3481 
Q 1172 3119 1398 2916 
Q 1625 2713 2034 2713 
Q 2441 2713 2670 2916 
Q 2900 3119 2900 3481 
Q 2900 3844 2670 4047 
Q 2441 4250 2034 4250 
Q 1625 4250 1398 4047 
Q 1172 3844 1172 3481 
z
" transform="scale(0.015625)"/>
       </defs>
       <use xlink:href="#DejaVuSans-38"/>
      </g>
     </g>
    </g>
    <g id="ytick_6">
     <g id="line2d_11">
      <g>
       <use xlink:href="#maf68caa3cb" x="40.603125" y="24.073892" style="stroke: #000000; stroke-width: 0.8"/>
      </g>
     </g>
     <g id="text_12">
      <!-- 10 -->
      <g transform="translate(20.878125 27.873111) scale(0.1 -0.1)">
       <use xlink:href="#DejaVuSans-31"/>
       <use xlink:href="#DejaVuSans-30" x="63.623047"/>
      </g>
     </g>
    </g>
    <g id="text_13">
     <!-- [dimensionless] -->
     <g transform="translate(14.798438 163.594219) rotate(-90) scale(0.1 -0.1)">
      <defs>
       <path id="DejaVuSans-6d" d="M 3328 2828 
Q 3544 3216 3844 3400 
Q 4144 3584 4550 3584 
Q 5097 3584 5394 3201 
Q 5691 2819 5691 2113 
L 5691 0 
L 5113 0 
L 5113 2094 
Q 5113 2597 4934 2840 
Q 4756 3084 4391 3084 
Q 3944 3084 3684 2787 
Q 3425 2491 3425 1978 
L 3425 0 
L 2847 0 
L 2847 2094 
Q 2847 2600 2669 2842 
Q 2491 3084 2119 3084 
Q 1678 3084 1418 2786 
Q 1159 2488 1159 1978 
L 1159 0 
L 581 0 
L 581 3500 
L 1159 3500 
L 1159 2956 
Q 1356 3278 1631 3431 
Q 1906 3584 2284 3584 
Q 2666 3584 2933 3390 
Q 3200 3197 3328 2828 
z
" transform="scale(0.015625)"/>
       <path id="DejaVuSans-65" d="M 3597 1894 
L 3597 1613 
L 953 1613 
Q 991 1019 1311 708 
Q 1631 397 2203 397 
Q 2534 397 2845 478 
Q 3156 559 3463 722 
L 3463 178 
Q 3153 47 2828 -22 
Q 2503 -91 2169 -91 
Q 1331 -91 842 396 
Q 353 884 353 1716 
Q 353 2575 817 3079 
Q 1281 3584 2069 3584 
Q 2775 3584 3186 3129 
Q 3597 2675 3597 1894 
z
M 3022 2063 
Q 3016 2534 2758 2815 
Q 2500 3097 2075 3097 
Q 1594 3097 1305 2825 
Q 1016 2553 972 2059 
L 3022 2063 
z
" transform="scale(0.015625)"/>
       <path id="DejaVuSans-6f" d="M 1959 3097 
Q 1497 3097 1228 2736 
Q 959 2375 959 1747 
Q 959 1119 1226 758 
Q 1494 397 1959 397 
Q 2419 397 2687 759 
Q 2956 1122 2956 1747 
Q 2956 2369 2687 2733 
Q 2419 3097 1959 3097 
z
M 1959 3584 
Q 2709 3584 3137 3096 
Q 3566 2609 3566 1747 
Q 3566 888 3137 398 
Q 2709 -91 1959 -91 
Q 1206 -91 779 398 
Q 353 888 353 1747 
Q 353 2609 779 3096 
Q 1206 3584 1959 3584 
z
" transform="scale(0.015625)"/>
       <path id="DejaVuSans-6c" d="M 603 4863 
L 1178 4863 
L 1178 0 
L 603 0 
L 603 4863 
z
" transform="scale(0.015625)"/>
      </defs>
      <use xlink:href="#DejaVuSans-5b"/>
      <use xlink:href="#DejaVuSans-64" x="39.013672"/>
      <use xlink:href="#DejaVuSans-69" x="102.490234"/>
      <use xlink:href="#DejaVuSans-6d" x="130.273438"/>
      <use xlink:href="#DejaVuSans-65" x="227.685547"/>
      <use xlink:href="#DejaVuSans-6e" x="289.208984"/>
      <use xlink:href="#DejaVuSans-73" x="352.587891"/>
      <use xlink:href="#DejaVuSans-69" x="404.6875"/>
      <use xlink:href="#DejaVuSans-6f" x="432.470703"/>
      <use xlink:href="#DejaVuSans-6e" x="493.652344"/>
      <use xlink:href="#DejaVuSans-6c" x="557.03125"/>
      <use xlink:href="#DejaVuSans-65" x="584.814453"/>
      <use xlink:href="#DejaVuSans-73" x="646.337891"/>
      <use xlink:href="#DejaVuSans-73" x="698.4375"/>
      <use xlink:href="#DejaVuSans-5d" x="750.537109"/>
     </g>
    </g>
   </g>
   <g id="patch_3">
    <path d="M 40.603125 241.03375 
L 40.603125 7.2 
" style="fill: none; stroke: #000000; stroke-width: 0.8; stroke-linejoin: miter; stroke-linecap: square"/>
   </g>
   <g id="patch_4">
    <path d="M 417.233125 241.03375 
L 417.233125 7.2 
" style="fill: none; stroke: #000000; stroke-width: 0.8; stroke-linejoin: miter; stroke-linecap: square"/>
   </g>
   <g id="patch_5">
    <path d="M 40.603125 241.03375 
L 417.233125 241.03375 
" style="fill: none; stroke: #000000; stroke-width: 0.8; stroke-linejoin: miter; stroke-linecap: square"/>
   </g>
   <g id="patch_6">
    <path d="M 40.603125 7.2 
L 417.233125 7.2 
" style="fill: none; stroke: #000000; stroke-width: 0.8; stroke-linejoin: miter; stroke-linecap: square"/>
   </g>
   <g id="line2d_12">
    <path d="M 57.72267 230.404943 
L 109.081307 230.404943 
L 109.081307 230.000372 
L 112.505216 229.972081 
L 112.505216 229.859356 
L 114.21717 229.859356 
L 114.21717 230.121813 
L 115.929125 230.121813 
L 115.929125 229.897791 
L 117.64108 229.897791 
L 117.64108 230.061773 
L 122.776943 230.091132 
L 122.776943 229.95008 
L 126.200852 229.887679 
L 126.200852 229.654439 
L 127.912807 229.654439 
L 127.912807 229.449616 
L 134.760625 229.351242 
L 134.760625 229.004506 
L 138.184534 229.034802 
L 138.184534 228.881268 
L 139.896489 228.881268 
L 139.896489 228.637602 
L 141.608443 228.637602 
L 141.608443 226.32402 
L 143.320398 226.32402 
L 143.320398 223.976405 
L 145.032352 223.976405 
L 145.032352 220.284896 
L 146.744307 220.284896 
L 146.744307 217.656888 
L 148.456261 217.656888 
L 148.456261 220.478241 
L 150.168216 220.478241 
L 150.168216 223.116899 
L 151.88017 223.116899 
L 151.88017 224.599871 
L 153.592125 224.599871 
L 153.592125 222.869773 
L 155.30408 222.869773 
L 155.30408 221.649487 
L 157.016034 221.649487 
L 157.016034 220.049194 
L 158.727989 220.049194 
L 158.727989 218.576787 
L 160.439943 218.576787 
L 160.439943 220.719486 
L 162.151898 220.719486 
L 162.151898 222.804229 
L 163.863852 222.804229 
L 163.863852 221.629634 
L 165.575807 221.629634 
L 165.575807 211.159865 
L 167.287761 211.159865 
L 167.287761 211.565446 
L 168.999716 211.565446 
L 168.999716 217.54787 
L 170.71167 217.54787 
L 170.71167 221.258829 
L 172.423625 221.258829 
L 172.423625 222.898304 
L 174.13558 222.898304 
L 174.13558 223.950277 
L 175.847534 223.950277 
L 175.847534 224.766523 
L 177.559489 224.766523 
L 177.559489 225.312077 
L 179.271443 225.312077 
L 179.271443 225.571833 
L 180.983398 225.571833 
L 180.983398 224.586012 
L 182.695352 224.586012 
L 182.695352 215.438837 
L 184.407307 215.438837 
L 184.407307 211.656277 
L 186.119261 211.656277 
L 186.119261 217.271379 
L 187.831216 217.271379 
L 187.831216 220.385299 
L 189.54317 220.385299 
L 189.54317 222.313529 
L 191.255125 222.313529 
L 191.255125 221.349918 
L 192.96708 221.349918 
L 192.96708 209.545245 
L 194.679034 209.545245 
L 194.679034 205.721676 
L 196.390989 205.721676 
L 196.390989 214.76874 
L 198.102943 214.76874 
L 198.102943 218.410559 
L 199.814898 218.410559 
L 199.814898 221.133954 
L 201.526852 221.133954 
L 201.526852 223.144054 
L 203.238807 223.144054 
L 203.238807 223.724543 
L 204.950761 223.724543 
L 204.950761 224.322225 
L 206.662716 224.322225 
L 206.662716 224.791419 
L 208.37467 224.791419 
L 208.37467 225.243705 
L 210.086625 225.243705 
L 210.086625 219.344335 
L 211.79858 219.344335 
L 211.79858 199.799209 
L 213.510534 199.799209 
L 213.510534 201.906732 
L 215.222489 201.906732 
L 215.222489 209.438713 
L 216.934443 209.438713 
L 216.934443 200.379345 
L 218.646398 200.379345 
L 218.646398 187.002385 
L 220.358352 187.002385 
L 220.358352 199.449763 
L 222.070307 199.449763 
L 222.070307 207.390301 
L 223.782261 207.390301 
L 223.782261 213.040404 
L 225.494216 213.040404 
L 225.494216 216.670527 
L 227.20617 216.670527 
L 227.20617 219.322202 
L 228.918125 219.322202 
L 228.918125 221.545866 
L 232.342034 221.569431 
L 232.342034 223.192391 
L 234.053989 223.192391 
L 234.053989 224.086335 
L 235.765943 224.086335 
L 235.765943 224.927894 
L 237.477898 224.927894 
L 237.477898 225.302618 
L 239.189852 225.302618 
L 239.189852 225.779911 
L 240.901807 225.779911 
L 240.901807 226.280024 
L 242.613761 226.280024 
L 242.613761 226.804973 
L 247.749625 226.871951 
L 247.749625 227.062634 
L 252.885489 227.140039 
L 252.885489 227.247238 
L 256.309398 227.239835 
L 256.309398 227.489751 
L 258.021352 227.489751 
L 258.021352 227.279253 
L 259.733307 227.279253 
L 259.733307 227.756738 
L 261.445261 227.756738 
L 261.445261 227.431778 
L 264.86917 227.468254 
L 264.86917 227.630963 
L 266.581125 227.630963 
L 266.581125 227.851675 
L 268.29308 227.851675 
L 268.29308 227.660794 
L 271.716989 227.658307 
L 271.716989 227.255515 
L 273.428943 227.255515 
L 273.428943 227.516086 
L 276.852852 227.48093 
L 276.852852 227.220391 
L 278.564807 227.220391 
L 278.564807 227.024378 
L 280.276761 227.024378 
L 280.276761 227.300697 
L 281.988716 227.300697 
L 281.988716 227.150278 
L 283.70067 227.150278 
L 283.70067 226.991019 
L 285.412625 226.991019 
L 285.412625 226.867469 
L 288.836534 226.904905 
L 288.836534 226.740948 
L 292.260443 226.736377 
L 292.260443 226.574298 
L 300.820216 226.470471 
L 300.820216 225.822558 
L 302.53217 225.822558 
L 302.53217 226.233825 
L 305.95608 226.132677 
L 305.95608 226.028697 
L 307.668034 226.028697 
L 307.668034 225.652144 
L 309.379989 225.652144 
L 309.379989 225.81853 
L 312.803898 225.803009 
L 312.803898 225.467579 
L 317.939761 225.524276 
L 317.939761 225.056378 
L 319.651716 225.056378 
L 319.651716 225.226227 
L 321.36367 225.226227 
L 321.36367 225.066546 
L 326.499534 225.008948 
L 326.499534 224.501482 
L 328.211489 224.501482 
L 328.211489 224.693363 
L 329.923443 224.693363 
L 329.923443 224.268029 
L 333.347352 224.166442 
L 333.347352 223.868315 
L 335.059307 223.868315 
L 335.059307 224.387026 
L 336.771261 224.387026 
L 336.771261 223.549046 
L 338.483216 223.549046 
L 338.483216 223.22478 
L 340.19517 223.22478 
L 340.19517 223.491159 
L 341.907125 223.491159 
L 341.907125 223.847521 
L 343.61908 223.847521 
L 343.61908 223.985602 
L 345.331034 223.985602 
L 345.331034 223.507077 
L 350.466898 223.484555 
L 350.466898 223.340733 
L 352.178852 223.340733 
L 352.178852 223.457984 
L 353.890807 223.457984 
L 353.890807 223.011882 
L 355.602761 223.011882 
L 355.602761 221.091116 
L 357.314716 221.091116 
L 357.314716 212.562478 
L 359.02667 212.562478 
L 359.02667 195.292731 
L 360.738625 195.292731 
L 360.738625 109.415885 
L 362.45058 109.415885 
L 362.45058 18.418225 
L 364.162534 18.418225 
L 364.162534 33.706936 
L 365.874489 33.706936 
L 365.874489 66.682226 
L 367.586443 66.682226 
L 367.586443 92.782611 
L 369.298398 92.782611 
L 369.298398 117.348901 
L 371.010352 117.348901 
L 371.010352 136.712704 
L 372.722307 136.712704 
L 372.722307 157.174292 
L 374.434261 157.174292 
L 374.434261 177.038893 
L 376.146216 177.038893 
L 376.146216 194.932806 
L 377.85817 194.932806 
L 377.85817 206.696937 
L 379.570125 206.696937 
L 379.570125 212.367708 
L 381.28208 212.367708 
L 381.28208 215.099946 
L 382.994034 215.099946 
L 382.994034 217.700444 
L 384.705989 217.700444 
L 384.705989 220.39318 
L 386.417943 220.39318 
L 386.417943 221.506587 
L 388.129898 221.506587 
L 388.129898 222.604184 
L 389.841852 222.604184 
L 389.841852 222.939947 
L 391.553807 222.939947 
L 391.553807 223.455961 
L 394.977716 223.432894 
L 394.977716 223.766007 
L 396.68967 223.766007 
L 396.68967 224.039137 
L 398.401625 224.039137 
L 398.401625 223.920153 
L 400.11358 223.920153 
L 400.11358 223.920153 
" clip-path="url(#p9097585e7a)" style="fill: none; stroke: #1f77b4; stroke-width: 1.5; stroke-linecap: square"/>
   </g>
   <g id="LineCollection_1">
    <path d="M 58.578648 230.404943 
L 58.578648 230.404943 
" clip-path="url(#p9097585e7a)" style="fill: none; stroke: #1f77b4; stroke-width: 1.5"/>
    <path d="M 60.290602 230.404943 
L 60.290602 230.404943 
" clip-path="url(#p9097585e7a)" style="fill: none; stroke: #1f77b4; stroke-width: 1.5"/>
    <path d="M 62.002557 230.404943 
L 62.002557 230.404943 
" clip-path="url(#p9097585e7a)" style="fill: none; stroke: #1f77b4; stroke-width: 1.5"/>
    <path d="M 63.714511 230.404943 
L 63.714511 230.404943 
" clip-path="url(#p9097585e7a)" style="fill: none; stroke: #1f77b4; stroke-width: 1.5"/>
    <path d="M 65.426466 230.404943 
L 65.426466 230.404943 
" clip-path="url(#p9097585e7a)" style="fill: none; stroke: #1f77b4; stroke-width: 1.5"/>
    <path d="M 67.13842 230.404943 
L 67.13842 230.404943 
" clip-path="url(#p9097585e7a)" style="fill: none; stroke: #1f77b4; stroke-width: 1.5"/>
    <path d="M 68.850375 230.404943 
L 68.850375 230.404943 
" clip-path="url(#p9097585e7a)" style="fill: none; stroke: #1f77b4; stroke-width: 1.5"/>
    <path d="M 70.56233 230.404943 
L 70.56233 230.404943 
" clip-path="url(#p9097585e7a)" style="fill: none; stroke: #1f77b4; stroke-width: 1.5"/>
    <path d="M 72.274284 230.404943 
L 72.274284 230.404943 
" clip-path="url(#p9097585e7a)" style="fill: none; stroke: #1f77b4; stroke-width: 1.5"/>
    <path d="M 73.986239 230.404943 
L 73.986239 230.404943 
" clip-path="url(#p9097585e7a)" style="fill: none; stroke: #1f77b4; stroke-width: 1.5"/>
    <path d="M 75.698193 230.404943 
L 75.698193 230.404943 
" clip-path="url(#p9097585e7a)" style="fill: none; stroke: #1f77b4; stroke-width: 1.5"/>
    <path d="M 77.410148 230.404943 
L 77.410148 230.404943 
" clip-path="url(#p9097585e7a)" style="fill: none; stroke: #1f77b4; stroke-width: 1.5"/>
    <path d="M 79.122102 230.404943 
L 79.122102 230.404943 
" clip-path="url(#p9097585e7a)" style="fill: none; stroke: #1f77b4; stroke-width: 1.5"/>
    <path d="M 80.834057 230.404943 
L 80.834057 230.404943 
" clip-path="url(#p9097585e7a)" style="fill: none; stroke: #1f77b4; stroke-width: 1.5"/>
    <path d="M 82.546011 230.404943 
L 82.546011 230.404943 
" clip-path="url(#p9097585e7a)" style="fill: none; stroke: #1f77b4; stroke-width: 1.5"/>
    <path d="M 84.257966 230.404943 
L 84.257966 230.404943 
" clip-path="url(#p9097585e7a)" style="fill: none; stroke: #1f77b4; stroke-width: 1.5"/>
    <path d="M 85.96992 230.404943 
L 85.96992 230.404943 
" clip-path="url(#p9097585e7a)" style="fill: none; stroke: #1f77b4; stroke-width: 1.5"/>
    <path d="M 87.681875 230.404943 
L 87.681875 230.404943 
" clip-path="url(#p9097585e7a)" style="fill: none; stroke: #1f77b4; stroke-width: 1.5"/>
    <path d="M 89.39383 230.404943 
L 89.39383 230.404943 
" clip-path="url(#p9097585e7a)" style="fill: none; stroke: #1f77b4; stroke-width: 1.5"/>
    <path d="M 91.105784 230.404943 
L 91.105784 230.404943 
" clip-path="url(#p9097585e7a)" style="fill: none; stroke: #1f77b4; stroke-width: 1.5"/>
    <path d="M 92.817739 230.404943 
L 92.817739 230.404943 
" clip-path="url(#p9097585e7a)" style="fill: none; stroke: #1f77b4; stroke-width: 1.5"/>
    <path d="M 94.529693 230.404943 
L 94.529693 230.404943 
" clip-path="url(#p9097585e7a)" style="fill: none; stroke: #1f77b4; stroke-width: 1.5"/>
    <path d="M 96.241648 230.404943 
L 96.241648 230.404943 
" clip-path="url(#p9097585e7a)" style="fill: none; stroke: #1f77b4; stroke-width: 1.5"/>
    <path d="M 97.953602 230.404943 
L 97.953602 230.404943 
" clip-path="url(#p9097585e7a)" style="fill: none; stroke: #1f77b4; stroke-width: 1.5"/>
    <path d="M 99.665557 230.404943 
L 99.665557 230.404943 
" clip-path="url(#p9097585e7a)" style="fill: none; stroke: #1f77b4; stroke-width: 1.5"/>
    <path d="M 101.377511 230.404943 
L 101.377511 230.404943 
" clip-path="url(#p9097585e7a)" style="fill: none; stroke: #1f77b4; stroke-width: 1.5"/>
    <path d="M 103.089466 230.404943 
L 103.089466 230.404943 
" clip-path="url(#p9097585e7a)" style="fill: none; stroke: #1f77b4; stroke-width: 1.5"/>
    <path d="M 104.80142 230.404943 
L 104.80142 230.404943 
" clip-path="url(#p9097585e7a)" style="fill: none; stroke: #1f77b4; stroke-width: 1.5"/>
    <path d="M 106.513375 230.404943 
L 106.513375 230.404943 
" clip-path="url(#p9097585e7a)" style="fill: none; stroke: #1f77b4; stroke-width: 1.5"/>
    <path d="M 108.22533 230.404943 
L 108.22533 230.404943 
" clip-path="url(#p9097585e7a)" style="fill: none; stroke: #1f77b4; stroke-width: 1.5"/>
    <path d="M 109.937284 230.233951 
L 109.937284 229.766793 
" clip-path="url(#p9097585e7a)" style="fill: none; stroke: #1f77b4; stroke-width: 1.5"/>
    <path d="M 111.649239 230.148796 
L 111.649239 229.795366 
" clip-path="url(#p9097585e7a)" style="fill: none; stroke: #1f77b4; stroke-width: 1.5"/>
    <path d="M 113.361193 230.023857 
L 113.361193 229.694856 
" clip-path="url(#p9097585e7a)" style="fill: none; stroke: #1f77b4; stroke-width: 1.5"/>
    <path d="M 115.073148 230.221915 
L 115.073148 230.021711 
" clip-path="url(#p9097585e7a)" style="fill: none; stroke: #1f77b4; stroke-width: 1.5"/>
    <path d="M 116.785102 230.014139 
L 116.785102 229.781442 
" clip-path="url(#p9097585e7a)" style="fill: none; stroke: #1f77b4; stroke-width: 1.5"/>
    <path d="M 118.497057 230.147566 
L 118.497057 229.97598 
" clip-path="url(#p9097585e7a)" style="fill: none; stroke: #1f77b4; stroke-width: 1.5"/>
    <path d="M 120.209011 230.161124 
L 120.209011 230.015947 
" clip-path="url(#p9097585e7a)" style="fill: none; stroke: #1f77b4; stroke-width: 1.5"/>
    <path d="M 121.920966 230.161302 
L 121.920966 230.020961 
" clip-path="url(#p9097585e7a)" style="fill: none; stroke: #1f77b4; stroke-width: 1.5"/>
    <path d="M 123.63292 230.02589 
L 123.63292 229.874269 
" clip-path="url(#p9097585e7a)" style="fill: none; stroke: #1f77b4; stroke-width: 1.5"/>
    <path d="M 125.344875 229.964788 
L 125.344875 229.810569 
" clip-path="url(#p9097585e7a)" style="fill: none; stroke: #1f77b4; stroke-width: 1.5"/>
    <path d="M 127.05683 229.747527 
L 127.05683 229.56135 
" clip-path="url(#p9097585e7a)" style="fill: none; stroke: #1f77b4; stroke-width: 1.5"/>
    <path d="M 128.768784 229.546614 
L 128.768784 229.352617 
" clip-path="url(#p9097585e7a)" style="fill: none; stroke: #1f77b4; stroke-width: 1.5"/>
    <path d="M 130.480739 229.513453 
L 130.480739 229.319609 
" clip-path="url(#p9097585e7a)" style="fill: none; stroke: #1f77b4; stroke-width: 1.5"/>
    <path d="M 132.192693 229.551143 
L 132.192693 229.376368 
" clip-path="url(#p9097585e7a)" style="fill: none; stroke: #1f77b4; stroke-width: 1.5"/>
    <path d="M 133.904648 229.43998 
L 133.904648 229.262505 
" clip-path="url(#p9097585e7a)" style="fill: none; stroke: #1f77b4; stroke-width: 1.5"/>
    <path d="M 135.616602 229.104794 
L 135.616602 228.904219 
" clip-path="url(#p9097585e7a)" style="fill: none; stroke: #1f77b4; stroke-width: 1.5"/>
    <path d="M 137.328557 229.130967 
L 137.328557 228.938637 
" clip-path="url(#p9097585e7a)" style="fill: none; stroke: #1f77b4; stroke-width: 1.5"/>
    <path d="M 139.040511 228.979621 
L 139.040511 228.782915 
" clip-path="url(#p9097585e7a)" style="fill: none; stroke: #1f77b4; stroke-width: 1.5"/>
    <path d="M 140.752466 228.741028 
L 140.752466 228.534176 
" clip-path="url(#p9097585e7a)" style="fill: none; stroke: #1f77b4; stroke-width: 1.5"/>
    <path d="M 142.46442 226.471278 
L 142.46442 226.176762 
" clip-path="url(#p9097585e7a)" style="fill: none; stroke: #1f77b4; stroke-width: 1.5"/>
    <path d="M 144.176375 224.161442 
L 144.176375 223.791368 
" clip-path="url(#p9097585e7a)" style="fill: none; stroke: #1f77b4; stroke-width: 1.5"/>
    <path d="M 145.88833 220.51366 
L 145.88833 220.056133 
" clip-path="url(#p9097585e7a)" style="fill: none; stroke: #1f77b4; stroke-width: 1.5"/>
    <path d="M 147.600284 217.903784 
L 147.600284 217.409992 
" clip-path="url(#p9097585e7a)" style="fill: none; stroke: #1f77b4; stroke-width: 1.5"/>
    <path d="M 149.312239 220.688545 
L 149.312239 220.267937 
" clip-path="url(#p9097585e7a)" style="fill: none; stroke: #1f77b4; stroke-width: 1.5"/>
    <path d="M 151.024193 223.297194 
L 151.024193 222.936603 
" clip-path="url(#p9097585e7a)" style="fill: none; stroke: #1f77b4; stroke-width: 1.5"/>
    <path d="M 152.736148 224.75769 
L 152.736148 224.442052 
" clip-path="url(#p9097585e7a)" style="fill: none; stroke: #1f77b4; stroke-width: 1.5"/>
    <path d="M 154.448102 223.047035 
L 154.448102 222.692512 
" clip-path="url(#p9097585e7a)" style="fill: none; stroke: #1f77b4; stroke-width: 1.5"/>
    <path d="M 156.160057 221.834686 
L 156.160057 221.464287 
" clip-path="url(#p9097585e7a)" style="fill: none; stroke: #1f77b4; stroke-width: 1.5"/>
    <path d="M 157.872011 220.250666 
L 157.872011 219.847722 
" clip-path="url(#p9097585e7a)" style="fill: none; stroke: #1f77b4; stroke-width: 1.5"/>
    <path d="M 159.583966 218.786769 
L 159.583966 218.366805 
" clip-path="url(#p9097585e7a)" style="fill: none; stroke: #1f77b4; stroke-width: 1.5"/>
    <path d="M 161.29592 220.909106 
L 161.29592 220.529866 
" clip-path="url(#p9097585e7a)" style="fill: none; stroke: #1f77b4; stroke-width: 1.5"/>
    <path d="M 163.007875 222.970407 
L 163.007875 222.638051 
" clip-path="url(#p9097585e7a)" style="fill: none; stroke: #1f77b4; stroke-width: 1.5"/>
    <path d="M 164.71983 221.801666 
L 164.71983 221.457603 
" clip-path="url(#p9097585e7a)" style="fill: none; stroke: #1f77b4; stroke-width: 1.5"/>
    <path d="M 166.431784 211.413573 
L 166.431784 210.906157 
" clip-path="url(#p9097585e7a)" style="fill: none; stroke: #1f77b4; stroke-width: 1.5"/>
    <path d="M 168.143739 211.815134 
L 168.143739 211.315757 
" clip-path="url(#p9097585e7a)" style="fill: none; stroke: #1f77b4; stroke-width: 1.5"/>
    <path d="M 169.855693 217.753432 
L 169.855693 217.342308 
" clip-path="url(#p9097585e7a)" style="fill: none; stroke: #1f77b4; stroke-width: 1.5"/>
    <path d="M 171.567648 221.42858 
L 171.567648 221.089077 
" clip-path="url(#p9097585e7a)" style="fill: none; stroke: #1f77b4; stroke-width: 1.5"/>
    <path d="M 173.279602 223.051437 
L 173.279602 222.745171 
" clip-path="url(#p9097585e7a)" style="fill: none; stroke: #1f77b4; stroke-width: 1.5"/>
    <path d="M 174.991557 224.092146 
L 174.991557 223.808407 
" clip-path="url(#p9097585e7a)" style="fill: none; stroke: #1f77b4; stroke-width: 1.5"/>
    <path d="M 176.703511 224.898364 
L 176.703511 224.634682 
" clip-path="url(#p9097585e7a)" style="fill: none; stroke: #1f77b4; stroke-width: 1.5"/>
    <path d="M 178.415466 225.436553 
L 178.415466 225.187601 
" clip-path="url(#p9097585e7a)" style="fill: none; stroke: #1f77b4; stroke-width: 1.5"/>
    <path d="M 180.12742 225.690421 
L 180.12742 225.453244 
" clip-path="url(#p9097585e7a)" style="fill: none; stroke: #1f77b4; stroke-width: 1.5"/>
    <path d="M 181.839375 224.715225 
L 181.839375 224.456798 
" clip-path="url(#p9097585e7a)" style="fill: none; stroke: #1f77b4; stroke-width: 1.5"/>
    <path d="M 183.55133 215.645075 
L 183.55133 215.232599 
" clip-path="url(#p9097585e7a)" style="fill: none; stroke: #1f77b4; stroke-width: 1.5"/>
    <path d="M 185.263284 211.882724 
L 185.263284 211.42983 
" clip-path="url(#p9097585e7a)" style="fill: none; stroke: #1f77b4; stroke-width: 1.5"/>
    <path d="M 186.975239 217.458867 
L 186.975239 217.08389 
" clip-path="url(#p9097585e7a)" style="fill: none; stroke: #1f77b4; stroke-width: 1.5"/>
    <path d="M 188.687193 220.549379 
L 188.687193 220.221219 
" clip-path="url(#p9097585e7a)" style="fill: none; stroke: #1f77b4; stroke-width: 1.5"/>
    <path d="M 190.399148 222.461753 
L 190.399148 222.165306 
" clip-path="url(#p9097585e7a)" style="fill: none; stroke: #1f77b4; stroke-width: 1.5"/>
    <path d="M 192.111102 221.504508 
L 192.111102 221.195329 
" clip-path="url(#p9097585e7a)" style="fill: none; stroke: #1f77b4; stroke-width: 1.5"/>
    <path d="M 193.823057 209.779683 
L 193.823057 209.310808 
" clip-path="url(#p9097585e7a)" style="fill: none; stroke: #1f77b4; stroke-width: 1.5"/>
    <path d="M 195.535011 205.978556 
L 195.535011 205.464795 
" clip-path="url(#p9097585e7a)" style="fill: none; stroke: #1f77b4; stroke-width: 1.5"/>
    <path d="M 197.246966 214.96769 
L 197.246966 214.569791 
" clip-path="url(#p9097585e7a)" style="fill: none; stroke: #1f77b4; stroke-width: 1.5"/>
    <path d="M 198.95892 218.585776 
L 198.95892 218.235342 
" clip-path="url(#p9097585e7a)" style="fill: none; stroke: #1f77b4; stroke-width: 1.5"/>
    <path d="M 200.670875 221.285693 
L 200.670875 220.982215 
" clip-path="url(#p9097585e7a)" style="fill: none; stroke: #1f77b4; stroke-width: 1.5"/>
    <path d="M 202.38283 223.274971 
L 202.38283 223.013137 
" clip-path="url(#p9097585e7a)" style="fill: none; stroke: #1f77b4; stroke-width: 1.5"/>
    <path d="M 204.094784 223.852633 
L 204.094784 223.596452 
" clip-path="url(#p9097585e7a)" style="fill: none; stroke: #1f77b4; stroke-width: 1.5"/>
    <path d="M 205.806739 224.443831 
L 205.806739 224.200619 
" clip-path="url(#p9097585e7a)" style="fill: none; stroke: #1f77b4; stroke-width: 1.5"/>
    <path d="M 207.518693 224.907242 
L 207.518693 224.675597 
" clip-path="url(#p9097585e7a)" style="fill: none; stroke: #1f77b4; stroke-width: 1.5"/>
    <path d="M 209.230648 225.354297 
L 209.230648 225.133112 
" clip-path="url(#p9097585e7a)" style="fill: none; stroke: #1f77b4; stroke-width: 1.5"/>
    <path d="M 210.942602 219.505842 
L 210.942602 219.182827 
" clip-path="url(#p9097585e7a)" style="fill: none; stroke: #1f77b4; stroke-width: 1.5"/>
    <path d="M 212.654557 200.065447 
L 212.654557 199.532972 
" clip-path="url(#p9097585e7a)" style="fill: none; stroke: #1f77b4; stroke-width: 1.5"/>
    <path d="M 214.366511 202.164247 
L 214.366511 201.649217 
" clip-path="url(#p9097585e7a)" style="fill: none; stroke: #1f77b4; stroke-width: 1.5"/>
    <path d="M 216.078466 209.658185 
L 216.078466 209.21924 
" clip-path="url(#p9097585e7a)" style="fill: none; stroke: #1f77b4; stroke-width: 1.5"/>
    <path d="M 217.79042 200.642222 
L 217.79042 200.116468 
" clip-path="url(#p9097585e7a)" style="fill: none; stroke: #1f77b4; stroke-width: 1.5"/>
    <path d="M 219.502375 187.317128 
L 219.502375 186.687642 
" clip-path="url(#p9097585e7a)" style="fill: none; stroke: #1f77b4; stroke-width: 1.5"/>
    <path d="M 221.21433 199.711252 
L 221.21433 199.188275 
" clip-path="url(#p9097585e7a)" style="fill: none; stroke: #1f77b4; stroke-width: 1.5"/>
    <path d="M 222.926284 207.620092 
L 222.926284 207.16051 
" clip-path="url(#p9097585e7a)" style="fill: none; stroke: #1f77b4; stroke-width: 1.5"/>
    <path d="M 224.638239 213.238523 
L 224.638239 212.842285 
" clip-path="url(#p9097585e7a)" style="fill: none; stroke: #1f77b4; stroke-width: 1.5"/>
    <path d="M 226.350193 216.846263 
L 226.350193 216.494791 
" clip-path="url(#p9097585e7a)" style="fill: none; stroke: #1f77b4; stroke-width: 1.5"/>
    <path d="M 228.062148 219.481769 
L 228.062148 219.162635 
" clip-path="url(#p9097585e7a)" style="fill: none; stroke: #1f77b4; stroke-width: 1.5"/>
    <path d="M 229.774102 221.685366 
L 229.774102 221.406366 
" clip-path="url(#p9097585e7a)" style="fill: none; stroke: #1f77b4; stroke-width: 1.5"/>
    <path d="M 231.486057 221.709028 
L 231.486057 221.429834 
" clip-path="url(#p9097585e7a)" style="fill: none; stroke: #1f77b4; stroke-width: 1.5"/>
    <path d="M 233.198011 223.316949 
L 233.198011 223.067833 
" clip-path="url(#p9097585e7a)" style="fill: none; stroke: #1f77b4; stroke-width: 1.5"/>
    <path d="M 234.909966 224.202454 
L 234.909966 223.970216 
" clip-path="url(#p9097585e7a)" style="fill: none; stroke: #1f77b4; stroke-width: 1.5"/>
    <path d="M 236.62192 225.036784 
L 236.62192 224.819004 
" clip-path="url(#p9097585e7a)" style="fill: none; stroke: #1f77b4; stroke-width: 1.5"/>
    <path d="M 238.333875 225.407404 
L 238.333875 225.197832 
" clip-path="url(#p9097585e7a)" style="fill: none; stroke: #1f77b4; stroke-width: 1.5"/>
    <path d="M 240.04583 225.879634 
L 240.04583 225.680188 
" clip-path="url(#p9097585e7a)" style="fill: none; stroke: #1f77b4; stroke-width: 1.5"/>
    <path d="M 241.757784 226.3737 
L 241.757784 226.186348 
" clip-path="url(#p9097585e7a)" style="fill: none; stroke: #1f77b4; stroke-width: 1.5"/>
    <path d="M 243.469739 226.891953 
L 243.469739 226.717993 
" clip-path="url(#p9097585e7a)" style="fill: none; stroke: #1f77b4; stroke-width: 1.5"/>
    <path d="M 245.181693 226.955089 
L 245.181693 226.781802 
" clip-path="url(#p9097585e7a)" style="fill: none; stroke: #1f77b4; stroke-width: 1.5"/>
    <path d="M 246.893648 226.959059 
L 246.893648 226.784842 
" clip-path="url(#p9097585e7a)" style="fill: none; stroke: #1f77b4; stroke-width: 1.5"/>
    <path d="M 248.605602 227.146692 
L 248.605602 226.978576 
" clip-path="url(#p9097585e7a)" style="fill: none; stroke: #1f77b4; stroke-width: 1.5"/>
    <path d="M 250.317557 227.102817 
L 250.317557 226.932658 
" clip-path="url(#p9097585e7a)" style="fill: none; stroke: #1f77b4; stroke-width: 1.5"/>
    <path d="M 252.029511 227.222675 
L 252.029511 227.057403 
" clip-path="url(#p9097585e7a)" style="fill: none; stroke: #1f77b4; stroke-width: 1.5"/>
    <path d="M 253.741466 227.330249 
L 253.741466 227.164227 
" clip-path="url(#p9097585e7a)" style="fill: none; stroke: #1f77b4; stroke-width: 1.5"/>
    <path d="M 255.45342 227.322869 
L 255.45342 227.156801 
" clip-path="url(#p9097585e7a)" style="fill: none; stroke: #1f77b4; stroke-width: 1.5"/>
    <path d="M 257.165375 227.569477 
L 257.165375 227.410025 
" clip-path="url(#p9097585e7a)" style="fill: none; stroke: #1f77b4; stroke-width: 1.5"/>
    <path d="M 258.87733 227.362523 
L 258.87733 227.195983 
" clip-path="url(#p9097585e7a)" style="fill: none; stroke: #1f77b4; stroke-width: 1.5"/>
    <path d="M 260.589284 227.83309 
L 260.589284 227.680386 
" clip-path="url(#p9097585e7a)" style="fill: none; stroke: #1f77b4; stroke-width: 1.5"/>
    <path d="M 262.301239 227.512847 
L 262.301239 227.350708 
" clip-path="url(#p9097585e7a)" style="fill: none; stroke: #1f77b4; stroke-width: 1.5"/>
    <path d="M 264.013193 227.549422 
L 264.013193 227.387085 
" clip-path="url(#p9097585e7a)" style="fill: none; stroke: #1f77b4; stroke-width: 1.5"/>
    <path d="M 265.725148 227.70862 
L 265.725148 227.553307 
" clip-path="url(#p9097585e7a)" style="fill: none; stroke: #1f77b4; stroke-width: 1.5"/>
    <path d="M 267.437102 227.926257 
L 267.437102 227.777094 
" clip-path="url(#p9097585e7a)" style="fill: none; stroke: #1f77b4; stroke-width: 1.5"/>
    <path d="M 269.149057 227.739553 
L 269.149057 227.582036 
" clip-path="url(#p9097585e7a)" style="fill: none; stroke: #1f77b4; stroke-width: 1.5"/>
    <path d="M 270.861011 227.736432 
L 270.861011 227.580182 
" clip-path="url(#p9097585e7a)" style="fill: none; stroke: #1f77b4; stroke-width: 1.5"/>
    <path d="M 272.572966 227.339359 
L 272.572966 227.171672 
" clip-path="url(#p9097585e7a)" style="fill: none; stroke: #1f77b4; stroke-width: 1.5"/>
    <path d="M 274.28492 227.596209 
L 274.28492 227.435964 
" clip-path="url(#p9097585e7a)" style="fill: none; stroke: #1f77b4; stroke-width: 1.5"/>
    <path d="M 275.996875 227.561138 
L 275.996875 227.400722 
" clip-path="url(#p9097585e7a)" style="fill: none; stroke: #1f77b4; stroke-width: 1.5"/>
    <path d="M 277.70883 227.303706 
L 277.70883 227.137076 
" clip-path="url(#p9097585e7a)" style="fill: none; stroke: #1f77b4; stroke-width: 1.5"/>
    <path d="M 279.420784 227.109805 
L 279.420784 226.938951 
" clip-path="url(#p9097585e7a)" style="fill: none; stroke: #1f77b4; stroke-width: 1.5"/>
    <path d="M 281.132739 227.382078 
L 281.132739 227.219315 
" clip-path="url(#p9097585e7a)" style="fill: none; stroke: #1f77b4; stroke-width: 1.5"/>
    <path d="M 282.844693 227.234257 
L 282.844693 227.066299 
" clip-path="url(#p9097585e7a)" style="fill: none; stroke: #1f77b4; stroke-width: 1.5"/>
    <path d="M 284.556648 227.077042 
L 284.556648 226.904997 
" clip-path="url(#p9097585e7a)" style="fill: none; stroke: #1f77b4; stroke-width: 1.5"/>
    <path d="M 286.268602 226.954874 
L 286.268602 226.780064 
" clip-path="url(#p9097585e7a)" style="fill: none; stroke: #1f77b4; stroke-width: 1.5"/>
    <path d="M 287.980557 226.989869 
L 287.980557 226.819942 
" clip-path="url(#p9097585e7a)" style="fill: none; stroke: #1f77b4; stroke-width: 1.5"/>
    <path d="M 289.692511 226.827744 
L 289.692511 226.654152 
" clip-path="url(#p9097585e7a)" style="fill: none; stroke: #1f77b4; stroke-width: 1.5"/>
    <path d="M 291.404466 226.823379 
L 291.404466 226.649375 
" clip-path="url(#p9097585e7a)" style="fill: none; stroke: #1f77b4; stroke-width: 1.5"/>
    <path d="M 293.11642 226.664612 
L 293.11642 226.483983 
" clip-path="url(#p9097585e7a)" style="fill: none; stroke: #1f77b4; stroke-width: 1.5"/>
    <path d="M 294.828375 226.654836 
L 294.828375 226.476752 
" clip-path="url(#p9097585e7a)" style="fill: none; stroke: #1f77b4; stroke-width: 1.5"/>
    <path d="M 296.54033 226.602385 
L 296.54033 226.423138 
" clip-path="url(#p9097585e7a)" style="fill: none; stroke: #1f77b4; stroke-width: 1.5"/>
    <path d="M 298.252284 226.687755 
L 298.252284 226.512959 
" clip-path="url(#p9097585e7a)" style="fill: none; stroke: #1f77b4; stroke-width: 1.5"/>
    <path d="M 299.964239 226.558936 
L 299.964239 226.382005 
" clip-path="url(#p9097585e7a)" style="fill: none; stroke: #1f77b4; stroke-width: 1.5"/>
    <path d="M 301.676193 225.91977 
L 301.676193 225.725346 
" clip-path="url(#p9097585e7a)" style="fill: none; stroke: #1f77b4; stroke-width: 1.5"/>
    <path d="M 303.388148 226.325261 
L 303.388148 226.142389 
" clip-path="url(#p9097585e7a)" style="fill: none; stroke: #1f77b4; stroke-width: 1.5"/>
    <path d="M 305.100102 226.223762 
L 305.100102 226.041592 
" clip-path="url(#p9097585e7a)" style="fill: none; stroke: #1f77b4; stroke-width: 1.5"/>
    <path d="M 306.812057 226.121079 
L 306.812057 225.936314 
" clip-path="url(#p9097585e7a)" style="fill: none; stroke: #1f77b4; stroke-width: 1.5"/>
    <path d="M 308.524011 225.748342 
L 308.524011 225.555946 
" clip-path="url(#p9097585e7a)" style="fill: none; stroke: #1f77b4; stroke-width: 1.5"/>
    <path d="M 310.235966 225.912307 
L 310.235966 225.724754 
" clip-path="url(#p9097585e7a)" style="fill: none; stroke: #1f77b4; stroke-width: 1.5"/>
    <path d="M 311.94792 225.897458 
L 311.94792 225.708559 
" clip-path="url(#p9097585e7a)" style="fill: none; stroke: #1f77b4; stroke-width: 1.5"/>
    <path d="M 313.659875 225.564652 
L 313.659875 225.370506 
" clip-path="url(#p9097585e7a)" style="fill: none; stroke: #1f77b4; stroke-width: 1.5"/>
    <path d="M 315.37183 225.489315 
L 315.37183 225.293304 
" clip-path="url(#p9097585e7a)" style="fill: none; stroke: #1f77b4; stroke-width: 1.5"/>
    <path d="M 317.083784 225.619957 
L 317.083784 225.428595 
" clip-path="url(#p9097585e7a)" style="fill: none; stroke: #1f77b4; stroke-width: 1.5"/>
    <path d="M 318.795739 225.156146 
L 318.795739 224.956609 
" clip-path="url(#p9097585e7a)" style="fill: none; stroke: #1f77b4; stroke-width: 1.5"/>
    <path d="M 320.507693 225.324324 
L 320.507693 225.128131 
" clip-path="url(#p9097585e7a)" style="fill: none; stroke: #1f77b4; stroke-width: 1.5"/>
    <path d="M 322.219648 225.16702 
L 322.219648 224.966071 
" clip-path="url(#p9097585e7a)" style="fill: none; stroke: #1f77b4; stroke-width: 1.5"/>
    <path d="M 323.931602 225.249957 
L 323.931602 225.051724 
" clip-path="url(#p9097585e7a)" style="fill: none; stroke: #1f77b4; stroke-width: 1.5"/>
    <path d="M 325.643557 225.106879 
L 325.643557 224.911017 
" clip-path="url(#p9097585e7a)" style="fill: none; stroke: #1f77b4; stroke-width: 1.5"/>
    <path d="M 327.355511 224.60494 
L 327.355511 224.398024 
" clip-path="url(#p9097585e7a)" style="fill: none; stroke: #1f77b4; stroke-width: 1.5"/>
    <path d="M 329.067466 224.795113 
L 329.067466 224.591614 
" clip-path="url(#p9097585e7a)" style="fill: none; stroke: #1f77b4; stroke-width: 1.5"/>
    <path d="M 330.77942 224.373587 
L 330.77942 224.162471 
" clip-path="url(#p9097585e7a)" style="fill: none; stroke: #1f77b4; stroke-width: 1.5"/>
    <path d="M 332.491375 224.272377 
L 332.491375 224.060507 
" clip-path="url(#p9097585e7a)" style="fill: none; stroke: #1f77b4; stroke-width: 1.5"/>
    <path d="M 334.20333 223.977213 
L 334.20333 223.759416 
" clip-path="url(#p9097585e7a)" style="fill: none; stroke: #1f77b4; stroke-width: 1.5"/>
    <path d="M 335.915284 224.488515 
L 335.915284 224.285536 
" clip-path="url(#p9097585e7a)" style="fill: none; stroke: #1f77b4; stroke-width: 1.5"/>
    <path d="M 337.627239 223.659139 
L 337.627239 223.438952 
" clip-path="url(#p9097585e7a)" style="fill: none; stroke: #1f77b4; stroke-width: 1.5"/>
    <path d="M 339.339193 223.338252 
L 339.339193 223.111309 
" clip-path="url(#p9097585e7a)" style="fill: none; stroke: #1f77b4; stroke-width: 1.5"/>
    <path d="M 341.051148 223.601027 
L 341.051148 223.381292 
" clip-path="url(#p9097585e7a)" style="fill: none; stroke: #1f77b4; stroke-width: 1.5"/>
    <path d="M 342.763102 223.953687 
L 342.763102 223.741355 
" clip-path="url(#p9097585e7a)" style="fill: none; stroke: #1f77b4; stroke-width: 1.5"/>
    <path d="M 344.475057 224.09071 
L 344.475057 223.880494 
" clip-path="url(#p9097585e7a)" style="fill: none; stroke: #1f77b4; stroke-width: 1.5"/>
    <path d="M 346.187011 223.616265 
L 346.187011 223.39789 
" clip-path="url(#p9097585e7a)" style="fill: none; stroke: #1f77b4; stroke-width: 1.5"/>
    <path d="M 347.898966 223.56665 
L 347.898966 223.348312 
" clip-path="url(#p9097585e7a)" style="fill: none; stroke: #1f77b4; stroke-width: 1.5"/>
    <path d="M 349.61092 223.59399 
L 349.61092 223.37512 
" clip-path="url(#p9097585e7a)" style="fill: none; stroke: #1f77b4; stroke-width: 1.5"/>
    <path d="M 351.322875 223.45001 
L 351.322875 223.231457 
" clip-path="url(#p9097585e7a)" style="fill: none; stroke: #1f77b4; stroke-width: 1.5"/>
    <path d="M 353.03483 223.565874 
L 353.03483 223.350094 
" clip-path="url(#p9097585e7a)" style="fill: none; stroke: #1f77b4; stroke-width: 1.5"/>
    <path d="M 354.746784 223.122448 
L 354.746784 222.901316 
" clip-path="url(#p9097585e7a)" style="fill: none; stroke: #1f77b4; stroke-width: 1.5"/>
    <path d="M 356.458739 221.217198 
L 356.458739 220.965035 
" clip-path="url(#p9097585e7a)" style="fill: none; stroke: #1f77b4; stroke-width: 1.5"/>
    <path d="M 358.170693 212.736404 
L 358.170693 212.388552 
" clip-path="url(#p9097585e7a)" style="fill: none; stroke: #1f77b4; stroke-width: 1.5"/>
    <path d="M 359.882648 195.535544 
L 359.882648 195.049919 
" clip-path="url(#p9097585e7a)" style="fill: none; stroke: #1f77b4; stroke-width: 1.5"/>
    <path d="M 361.594602 109.861741 
L 361.594602 108.970028 
" clip-path="url(#p9097585e7a)" style="fill: none; stroke: #1f77b4; stroke-width: 1.5"/>
    <path d="M 363.306557 19.007644 
L 363.306557 17.828807 
" clip-path="url(#p9097585e7a)" style="fill: none; stroke: #1f77b4; stroke-width: 1.5"/>
    <path d="M 365.018511 34.274747 
L 365.018511 33.139125 
" clip-path="url(#p9097585e7a)" style="fill: none; stroke: #1f77b4; stroke-width: 1.5"/>
    <path d="M 366.730466 67.199255 
L 366.730466 66.165197 
" clip-path="url(#p9097585e7a)" style="fill: none; stroke: #1f77b4; stroke-width: 1.5"/>
    <path d="M 368.44242 93.259479 
L 368.44242 92.305744 
" clip-path="url(#p9097585e7a)" style="fill: none; stroke: #1f77b4; stroke-width: 1.5"/>
    <path d="M 370.154375 117.777257 
L 370.154375 116.920544 
" clip-path="url(#p9097585e7a)" style="fill: none; stroke: #1f77b4; stroke-width: 1.5"/>
    <path d="M 371.86633 137.103625 
L 371.86633 136.321783 
" clip-path="url(#p9097585e7a)" style="fill: none; stroke: #1f77b4; stroke-width: 1.5"/>
    <path d="M 373.578284 157.519805 
L 373.578284 156.82878 
" clip-path="url(#p9097585e7a)" style="fill: none; stroke: #1f77b4; stroke-width: 1.5"/>
    <path d="M 375.290239 177.332628 
L 375.290239 176.745158 
" clip-path="url(#p9097585e7a)" style="fill: none; stroke: #1f77b4; stroke-width: 1.5"/>
    <path d="M 377.002193 195.17221 
L 377.002193 194.693403 
" clip-path="url(#p9097585e7a)" style="fill: none; stroke: #1f77b4; stroke-width: 1.5"/>
    <path d="M 378.714148 206.892404 
L 378.714148 206.501469 
" clip-path="url(#p9097585e7a)" style="fill: none; stroke: #1f77b4; stroke-width: 1.5"/>
    <path d="M 380.426102 212.537246 
L 380.426102 212.198171 
" clip-path="url(#p9097585e7a)" style="fill: none; stroke: #1f77b4; stroke-width: 1.5"/>
    <path d="M 382.138057 215.257096 
L 382.138057 214.942796 
" clip-path="url(#p9097585e7a)" style="fill: none; stroke: #1f77b4; stroke-width: 1.5"/>
    <path d="M 383.850011 217.844916 
L 383.850011 217.555972 
" clip-path="url(#p9097585e7a)" style="fill: none; stroke: #1f77b4; stroke-width: 1.5"/>
    <path d="M 385.561966 220.519577 
L 385.561966 220.266782 
" clip-path="url(#p9097585e7a)" style="fill: none; stroke: #1f77b4; stroke-width: 1.5"/>
    <path d="M 387.27392 221.627723 
L 387.27392 221.385451 
" clip-path="url(#p9097585e7a)" style="fill: none; stroke: #1f77b4; stroke-width: 1.5"/>
    <path d="M 388.985875 222.717108 
L 388.985875 222.49126 
" clip-path="url(#p9097585e7a)" style="fill: none; stroke: #1f77b4; stroke-width: 1.5"/>
    <path d="M 390.69783 223.050713 
L 390.69783 222.829181 
" clip-path="url(#p9097585e7a)" style="fill: none; stroke: #1f77b4; stroke-width: 1.5"/>
    <path d="M 392.409784 223.563289 
L 392.409784 223.348634 
" clip-path="url(#p9097585e7a)" style="fill: none; stroke: #1f77b4; stroke-width: 1.5"/>
    <path d="M 394.121739 223.541926 
L 394.121739 223.323863 
" clip-path="url(#p9097585e7a)" style="fill: none; stroke: #1f77b4; stroke-width: 1.5"/>
    <path d="M 395.833693 223.872288 
L 395.833693 223.659726 
" clip-path="url(#p9097585e7a)" style="fill: none; stroke: #1f77b4; stroke-width: 1.5"/>
    <path d="M 397.545648 224.143649 
L 397.545648 223.934625 
" clip-path="url(#p9097585e7a)" style="fill: none; stroke: #1f77b4; stroke-width: 1.5"/>
    <path d="M 399.257602 224.026647 
L 399.257602 223.813659 
" clip-path="url(#p9097585e7a)" style="fill: none; stroke: #1f77b4; stroke-width: 1.5"/>
   </g>
  </g>
 </g>
 <defs>
  <clipPath id="p9097585e7a">
   <rect x="40.603125" y="7.2" width="376.63" height="233.83375"/>
  </clipPath>
 </defs>
</svg>
