<?xml version="1.0" encoding="utf-8" standalone="no"?>
<!DOCTYPE svg PUBLIC "-//W3C//DTD SVG 1.1//EN"
  "http://www.w3.org/Graphics/SVG/1.1/DTD/svg11.dtd">
<svg xmlns:xlink="http://www.w3.org/1999/xlink" width="424.370625pt" height="280.274375pt" viewBox="0 0 424.370625 280.274375" xmlns="http://www.w3.org/2000/svg" version="1.1">
 <metadata>
  <rdf:RDF xmlns:dc="http://purl.org/dc/elements/1.1/" xmlns:cc="http://creativecommons.org/ns#" xmlns:rdf="http://www.w3.org/1999/02/22-rdf-syntax-ns#">
   <cc:Work>
    <dc:type rdf:resource="http://purl.org/dc/dcmitype/StillImage"/>
    <dc:date>2024-06-17T06:18:03.457776</dc:date>
    <dc:format>image/svg+xml</dc:format>
    <dc:creator>
     <cc:Agent>
      <dc:title>Matplotlib v3.9.0, https://matplotlib.org/</dc:title>
     </cc:Agent>
    </dc:creator>
   </cc:Work>
  </rdf:RDF>
 </metadata>
 <defs>
  <style type="text/css">*{stroke-linejoin: round; stroke-linecap: butt}</style>
 </defs>
 <g id="figure_1">
  <g id="patch_1">
   <path d="M 0 280.274375 
L 424.370625 280.274375 
L 424.370625 0 
L 0 0 
z
" style="fill: #ffffff"/>
  </g>
  <g id="axes_1">
   <g id="patch_2">
    <path d="M 34.240625 241.03375 
L 417.170625 241.03375 
L 417.170625 7.2 
L 34.240625 7.2 
z
" style="fill: #ffffff"/>
   </g>
   <g id="matplotlib.axis_1">
    <g id="xtick_1">
     <g id="line2d_1">
      <defs>
       <path id="m2dcad1aefa" d="M 0 0 
L 0 3.5 
" style="stroke: #000000; stroke-width: 0.8"/>
      </defs>
      <g>
       <use xlink:href="#m2dcad1aefa" x="51.646534" y="241.03375" style="stroke: #000000; stroke-width: 0.8"/>
      </g>
     </g>
     <g id="text_1">
      <!-- 0.0 -->
      <g transform="translate(43.694972 255.632187) scale(0.1 -0.1)">
       <defs>
        <path id="DejaVuSans-30" d="M 2034 4250 
Q 1547 4250 1301 3770 
Q 1056 3291 1056 2328 
Q 1056 1369 1301 889 
Q 1547 409 2034 409 
Q 2525 409 2770 889 
Q 3016 1369 3016 2328 
Q 3016 3291 2770 3770 
Q 2525 4250 2034 4250 
z
M 2034 4750 
Q 2819 4750 3233 4129 
Q 3647 3509 3647 2328 
Q 3647 1150 3233 529 
Q 2819 -91 2034 -91 
Q 1250 -91 836 529 
Q 422 1150 422 2328 
Q 422 3509 836 4129 
Q 1250 4750 2034 4750 
z
" transform="scale(0.015625)"/>
        <path id="DejaVuSans-2e" d="M 684 794 
L 1344 794 
L 1344 0 
L 684 0 
L 684 794 
z
" transform="scale(0.015625)"/>
       </defs>
       <use xlink:href="#DejaVuSans-30"/>
       <use xlink:href="#DejaVuSans-2e" x="63.623047"/>
       <use xlink:href="#DejaVuSans-30" x="95.410156"/>
      </g>
     </g>
    </g>
    <g id="xtick_2">
     <g id="line2d_2">
      <g>
       <use xlink:href="#m2dcad1aefa" x="125.922838" y="241.03375" style="stroke: #000000; stroke-width: 0.8"/>
      </g>
     </g>
     <g id="text_2">
      <!-- 0.5 -->
      <g transform="translate(117.971276 255.632187) scale(0.1 -0.1)">
       <defs>
        <path id="DejaVuSans-35" d="M 691 4666 
L 3169 4666 
L 3169 4134 
L 1269 4134 
L 1269 2991 
Q 1406 3038 1543 3061 
Q 1681 3084 1819 3084 
Q 2600 3084 3056 2656 
Q 3513 2228 3513 1497 
Q 3513 744 3044 326 
Q 2575 -91 1722 -91 
Q 1428 -91 1123 -41 
Q 819 9 494 109 
L 494 744 
Q 775 591 1075 516 
Q 1375 441 1709 441 
Q 2250 441 2565 725 
Q 2881 1009 2881 1497 
Q 2881 1984 2565 2268 
Q 2250 2553 1709 2553 
Q 1456 2553 1204 2497 
Q 953 2441 691 2322 
L 691 4666 
z
" transform="scale(0.015625)"/>
       </defs>
       <use xlink:href="#DejaVuSans-30"/>
       <use xlink:href="#DejaVuSans-2e" x="63.623047"/>
       <use xlink:href="#DejaVuSans-35" x="95.410156"/>
      </g>
     </g>
    </g>
    <g id="xtick_3">
     <g id="line2d_3">
      <g>
       <use xlink:href="#m2dcad1aefa" x="200.199142" y="241.03375" style="stroke: #000000; stroke-width: 0.8"/>
      </g>
     </g>
     <g id="text_3">
      <!-- 1.0 -->
      <g transform="translate(192.24758 255.632187) scale(0.1 -0.1)">
       <defs>
        <path id="DejaVuSans-31" d="M 794 531 
L 1825 531 
L 1825 4091 
L 703 3866 
L 703 4441 
L 1819 4666 
L 2450 4666 
L 2450 531 
L 3481 531 
L 3481 0 
L 794 0 
L 794 531 
z
" transform="scale(0.015625)"/>
       </defs>
       <use xlink:href="#DejaVuSans-31"/>
       <use xlink:href="#DejaVuSans-2e" x="63.623047"/>
       <use xlink:href="#DejaVuSans-30" x="95.410156"/>
      </g>
     </g>
    </g>
    <g id="xtick_4">
     <g id="line2d_4">
      <g>
       <use xlink:href="#m2dcad1aefa" x="274.475446" y="241.03375" style="stroke: #000000; stroke-width: 0.8"/>
      </g>
     </g>
     <g id="text_4">
      <!-- 1.5 -->
      <g transform="translate(266.523884 255.632187) scale(0.1 -0.1)">
       <use xlink:href="#DejaVuSans-31"/>
       <use xlink:href="#DejaVuSans-2e" x="63.623047"/>
       <use xlink:href="#DejaVuSans-35" x="95.410156"/>
      </g>
     </g>
    </g>
    <g id="xtick_5">
     <g id="line2d_5">
      <g>
       <use xlink:href="#m2dcad1aefa" x="348.75175" y="241.03375" style="stroke: #000000; stroke-width: 0.8"/>
      </g>
     </g>
     <g id="text_5">
      <!-- 2.0 -->
      <g transform="translate(340.800188 255.632187) scale(0.1 -0.1)">
       <defs>
        <path id="DejaVuSans-32" d="M 1228 531 
L 3431 531 
L 3431 0 
L 469 0 
L 469 531 
Q 828 903 1448 1529 
Q 2069 2156 2228 2338 
Q 2531 2678 2651 2914 
Q 2772 3150 2772 3378 
Q 2772 3750 2511 3984 
Q 2250 4219 1831 4219 
Q 1534 4219 1204 4116 
Q 875 4013 500 3803 
L 500 4441 
Q 881 4594 1212 4672 
Q 1544 4750 1819 4750 
Q 2544 4750 2975 4387 
Q 3406 4025 3406 3419 
Q 3406 3131 3298 2873 
Q 3191 2616 2906 2266 
Q 2828 2175 2409 1742 
Q 1991 1309 1228 531 
z
" transform="scale(0.015625)"/>
       </defs>
       <use xlink:href="#DejaVuSans-32"/>
       <use xlink:href="#DejaVuSans-2e" x="63.623047"/>
       <use xlink:href="#DejaVuSans-30" x="95.410156"/>
      </g>
     </g>
    </g>
    <g id="text_6">
     <!-- dspacing [Å] -->
     <g transform="translate(194.29625 270.994687) scale(0.1 -0.1)">
      <defs>
       <path id="DejaVuSans-64" d="M 2906 2969 
L 2906 4863 
L 3481 4863 
L 3481 0 
L 2906 0 
L 2906 525 
Q 2725 213 2448 61 
Q 2172 -91 1784 -91 
Q 1150 -91 751 415 
Q 353 922 353 1747 
Q 353 2572 751 3078 
Q 1150 3584 1784 3584 
Q 2172 3584 2448 3432 
Q 2725 3281 2906 2969 
z
M 947 1747 
Q 947 1113 1208 752 
Q 1469 391 1925 391 
Q 2381 391 2643 752 
Q 2906 1113 2906 1747 
Q 2906 2381 2643 2742 
Q 2381 3103 1925 3103 
Q 1469 3103 1208 2742 
Q 947 2381 947 1747 
z
" transform="scale(0.015625)"/>
       <path id="DejaVuSans-73" d="M 2834 3397 
L 2834 2853 
Q 2591 2978 2328 3040 
Q 2066 3103 1784 3103 
Q 1356 3103 1142 2972 
Q 928 2841 928 2578 
Q 928 2378 1081 2264 
Q 1234 2150 1697 2047 
L 1894 2003 
Q 2506 1872 2764 1633 
Q 3022 1394 3022 966 
Q 3022 478 2636 193 
Q 2250 -91 1575 -91 
Q 1294 -91 989 -36 
Q 684 19 347 128 
L 347 722 
Q 666 556 975 473 
Q 1284 391 1588 391 
Q 1994 391 2212 530 
Q 2431 669 2431 922 
Q 2431 1156 2273 1281 
Q 2116 1406 1581 1522 
L 1381 1569 
Q 847 1681 609 1914 
Q 372 2147 372 2553 
Q 372 3047 722 3315 
Q 1072 3584 1716 3584 
Q 2034 3584 2315 3537 
Q 2597 3491 2834 3397 
z
" transform="scale(0.015625)"/>
       <path id="DejaVuSans-70" d="M 1159 525 
L 1159 -1331 
L 581 -1331 
L 581 3500 
L 1159 3500 
L 1159 2969 
Q 1341 3281 1617 3432 
Q 1894 3584 2278 3584 
Q 2916 3584 3314 3078 
Q 3713 2572 3713 1747 
Q 3713 922 3314 415 
Q 2916 -91 2278 -91 
Q 1894 -91 1617 61 
Q 1341 213 1159 525 
z
M 3116 1747 
Q 3116 2381 2855 2742 
Q 2594 3103 2138 3103 
Q 1681 3103 1420 2742 
Q 1159 2381 1159 1747 
Q 1159 1113 1420 752 
Q 1681 391 2138 391 
Q 2594 391 2855 752 
Q 3116 1113 3116 1747 
z
" transform="scale(0.015625)"/>
       <path id="DejaVuSans-61" d="M 2194 1759 
Q 1497 1759 1228 1600 
Q 959 1441 959 1056 
Q 959 750 1161 570 
Q 1363 391 1709 391 
Q 2188 391 2477 730 
Q 2766 1069 2766 1631 
L 2766 1759 
L 2194 1759 
z
M 3341 1997 
L 3341 0 
L 2766 0 
L 2766 531 
Q 2569 213 2275 61 
Q 1981 -91 1556 -91 
Q 1019 -91 701 211 
Q 384 513 384 1019 
Q 384 1609 779 1909 
Q 1175 2209 1959 2209 
L 2766 2209 
L 2766 2266 
Q 2766 2663 2505 2880 
Q 2244 3097 1772 3097 
Q 1472 3097 1187 3025 
Q 903 2953 641 2809 
L 641 3341 
Q 956 3463 1253 3523 
Q 1550 3584 1831 3584 
Q 2591 3584 2966 3190 
Q 3341 2797 3341 1997 
z
" transform="scale(0.015625)"/>
       <path id="DejaVuSans-63" d="M 3122 3366 
L 3122 2828 
Q 2878 2963 2633 3030 
Q 2388 3097 2138 3097 
Q 1578 3097 1268 2742 
Q 959 2388 959 1747 
Q 959 1106 1268 751 
Q 1578 397 2138 397 
Q 2388 397 2633 464 
Q 2878 531 3122 666 
L 3122 134 
Q 2881 22 2623 -34 
Q 2366 -91 2075 -91 
Q 1284 -91 818 406 
Q 353 903 353 1747 
Q 353 2603 823 3093 
Q 1294 3584 2113 3584 
Q 2378 3584 2631 3529 
Q 2884 3475 3122 3366 
z
" transform="scale(0.015625)"/>
       <path id="DejaVuSans-69" d="M 603 3500 
L 1178 3500 
L 1178 0 
L 603 0 
L 603 3500 
z
M 603 4863 
L 1178 4863 
L 1178 4134 
L 603 4134 
L 603 4863 
z
" transform="scale(0.015625)"/>
       <path id="DejaVuSans-6e" d="M 3513 2113 
L 3513 0 
L 2938 0 
L 2938 2094 
Q 2938 2591 2744 2837 
Q 2550 3084 2163 3084 
Q 1697 3084 1428 2787 
Q 1159 2491 1159 1978 
L 1159 0 
L 581 0 
L 581 3500 
L 1159 3500 
L 1159 2956 
Q 1366 3272 1645 3428 
Q 1925 3584 2291 3584 
Q 2894 3584 3203 3211 
Q 3513 2838 3513 2113 
z
" transform="scale(0.015625)"/>
       <path id="DejaVuSans-67" d="M 2906 1791 
Q 2906 2416 2648 2759 
Q 2391 3103 1925 3103 
Q 1463 3103 1205 2759 
Q 947 2416 947 1791 
Q 947 1169 1205 825 
Q 1463 481 1925 481 
Q 2391 481 2648 825 
Q 2906 1169 2906 1791 
z
M 3481 434 
Q 3481 -459 3084 -895 
Q 2688 -1331 1869 -1331 
Q 1566 -1331 1297 -1286 
Q 1028 -1241 775 -1147 
L 775 -588 
Q 1028 -725 1275 -790 
Q 1522 -856 1778 -856 
Q 2344 -856 2625 -561 
Q 2906 -266 2906 331 
L 2906 616 
Q 2728 306 2450 153 
Q 2172 0 1784 0 
Q 1141 0 747 490 
Q 353 981 353 1791 
Q 353 2603 747 3093 
Q 1141 3584 1784 3584 
Q 2172 3584 2450 3431 
Q 2728 3278 2906 2969 
L 2906 3500 
L 3481 3500 
L 3481 434 
z
" transform="scale(0.015625)"/>
       <path id="DejaVuSans-20" transform="scale(0.015625)"/>
       <path id="DejaVuSans-5b" d="M 550 4863 
L 1875 4863 
L 1875 4416 
L 1125 4416 
L 1125 -397 
L 1875 -397 
L 1875 -844 
L 550 -844 
L 550 4863 
z
" transform="scale(0.015625)"/>
       <path id="DejaVuSans-c5" d="M 2663 5081 
Q 2663 5278 2523 5417 
Q 2384 5556 2188 5556 
Q 1988 5556 1852 5420 
Q 1716 5284 1716 5081 
Q 1716 4884 1853 4746 
Q 1991 4609 2188 4609 
Q 2384 4609 2523 4746 
Q 2663 4884 2663 5081 
z
M 2188 4044 
L 1338 1722 
L 3041 1722 
L 2188 4044 
z
M 1716 4366 
Q 1525 4494 1428 4673 
Q 1331 4853 1331 5081 
Q 1331 5441 1579 5691 
Q 1828 5941 2188 5941 
Q 2544 5941 2795 5689 
Q 3047 5438 3047 5081 
Q 3047 4863 2948 4678 
Q 2850 4494 2663 4366 
L 4325 0 
L 3669 0 
L 3244 1197 
L 1141 1197 
L 716 0 
L 50 0 
L 1716 4366 
z
" transform="scale(0.015625)"/>
       <path id="DejaVuSans-5d" d="M 1947 4863 
L 1947 -844 
L 622 -844 
L 622 -397 
L 1369 -397 
L 1369 4416 
L 622 4416 
L 622 4863 
L 1947 4863 
z
" transform="scale(0.015625)"/>
      </defs>
      <use xlink:href="#DejaVuSans-64"/>
      <use xlink:href="#DejaVuSans-73" x="63.476562"/>
      <use xlink:href="#DejaVuSans-70" x="115.576172"/>
      <use xlink:href="#DejaVuSans-61" x="179.052734"/>
      <use xlink:href="#DejaVuSans-63" x="240.332031"/>
      <use xlink:href="#DejaVuSans-69" x="295.3125"/>
      <use xlink:href="#DejaVuSans-6e" x="323.095703"/>
      <use xlink:href="#DejaVuSans-67" x="386.474609"/>
      <use xlink:href="#DejaVuSans-20" x="449.951172"/>
      <use xlink:href="#DejaVuSans-5b" x="481.738281"/>
      <use xlink:href="#DejaVuSans-c5" x="520.751953"/>
      <use xlink:href="#DejaVuSans-5d" x="589.160156"/>
     </g>
    </g>
   </g>
   <g id="matplotlib.axis_2">
    <g id="ytick_1">
     <g id="line2d_6">
      <defs>
       <path id="m4b105a66a1" d="M 0 0 
L -3.5 0 
" style="stroke: #000000; stroke-width: 0.8"/>
      </defs>
      <g>
       <use xlink:href="#m4b105a66a1" x="34.240625" y="232.714521" style="stroke: #000000; stroke-width: 0.8"/>
      </g>
     </g>
     <g id="text_7">
      <!-- 0 -->
      <g transform="translate(20.878125 236.513739) scale(0.1 -0.1)">
       <use xlink:href="#DejaVuSans-30"/>
      </g>
     </g>
    </g>
    <g id="ytick_2">
     <g id="line2d_7">
      <g>
       <use xlink:href="#m4b105a66a1" x="34.240625" y="181.345583" style="stroke: #000000; stroke-width: 0.8"/>
      </g>
     </g>
     <g id="text_8">
      <!-- 2 -->
      <g transform="translate(20.878125 185.144802) scale(0.1 -0.1)">
       <use xlink:href="#DejaVuSans-32"/>
      </g>
     </g>
    </g>
    <g id="ytick_3">
     <g id="line2d_8">
      <g>
       <use xlink:href="#m4b105a66a1" x="34.240625" y="129.976646" style="stroke: #000000; stroke-width: 0.8"/>
      </g>
     </g>
     <g id="text_9">
      <!-- 4 -->
      <g transform="translate(20.878125 133.775865) scale(0.1 -0.1)">
       <defs>
        <path id="DejaVuSans-34" d="M 2419 4116 
L 825 1625 
L 2419 1625 
L 2419 4116 
z
M 2253 4666 
L 3047 4666 
L 3047 1625 
L 3713 1625 
L 3713 1100 
L 3047 1100 
L 3047 0 
L 2419 0 
L 2419 1100 
L 313 1100 
L 313 1709 
L 2253 4666 
z
" transform="scale(0.015625)"/>
       </defs>
       <use xlink:href="#DejaVuSans-34"/>
      </g>
     </g>
    </g>
    <g id="ytick_4">
     <g id="line2d_9">
      <g>
       <use xlink:href="#m4b105a66a1" x="34.240625" y="78.607709" style="stroke: #000000; stroke-width: 0.8"/>
      </g>
     </g>
     <g id="text_10">
      <!-- 6 -->
      <g transform="translate(20.878125 82.406927) scale(0.1 -0.1)">
       <defs>
        <path id="DejaVuSans-36" d="M 2113 2584 
Q 1688 2584 1439 2293 
Q 1191 2003 1191 1497 
Q 1191 994 1439 701 
Q 1688 409 2113 409 
Q 2538 409 2786 701 
Q 3034 994 3034 1497 
Q 3034 2003 2786 2293 
Q 2538 2584 2113 2584 
z
M 3366 4563 
L 3366 3988 
Q 3128 4100 2886 4159 
Q 2644 4219 2406 4219 
Q 1781 4219 1451 3797 
Q 1122 3375 1075 2522 
Q 1259 2794 1537 2939 
Q 1816 3084 2150 3084 
Q 2853 3084 3261 2657 
Q 3669 2231 3669 1497 
Q 3669 778 3244 343 
Q 2819 -91 2113 -91 
Q 1303 -91 875 529 
Q 447 1150 447 2328 
Q 447 3434 972 4092 
Q 1497 4750 2381 4750 
Q 2619 4750 2861 4703 
Q 3103 4656 3366 4563 
z
" transform="scale(0.015625)"/>
       </defs>
       <use xlink:href="#DejaVuSans-36"/>
      </g>
     </g>
    </g>
    <g id="ytick_5">
     <g id="line2d_10">
      <g>
       <use xlink:href="#m4b105a66a1" x="34.240625" y="27.238771" style="stroke: #000000; stroke-width: 0.8"/>
      </g>
     </g>
     <g id="text_11">
      <!-- 8 -->
      <g transform="translate(20.878125 31.03799) scale(0.1 -0.1)">
       <defs>
        <path id="DejaVuSans-38" d="M 2034 2216 
Q 1584 2216 1326 1975 
Q 1069 1734 1069 1313 
Q 1069 891 1326 650 
Q 1584 409 2034 409 
Q 2484 409 2743 651 
Q 3003 894 3003 1313 
Q 3003 1734 2745 1975 
Q 2488 2216 2034 2216 
z
M 1403 2484 
Q 997 2584 770 2862 
Q 544 3141 544 3541 
Q 544 4100 942 4425 
Q 1341 4750 2034 4750 
Q 2731 4750 3128 4425 
Q 3525 4100 3525 3541 
Q 3525 3141 3298 2862 
Q 3072 2584 2669 2484 
Q 3125 2378 3379 2068 
Q 3634 1759 3634 1313 
Q 3634 634 3220 271 
Q 2806 -91 2034 -91 
Q 1263 -91 848 271 
Q 434 634 434 1313 
Q 434 1759 690 2068 
Q 947 2378 1403 2484 
z
M 1172 3481 
Q 1172 3119 1398 2916 
Q 1625 2713 2034 2713 
Q 2441 2713 2670 2916 
Q 2900 3119 2900 3481 
Q 2900 3844 2670 4047 
Q 2441 4250 2034 4250 
Q 1625 4250 1398 4047 
Q 1172 3844 1172 3481 
z
" transform="scale(0.015625)"/>
       </defs>
       <use xlink:href="#DejaVuSans-38"/>
      </g>
     </g>
    </g>
    <g id="text_12">
     <!-- [dimensionless] -->
     <g transform="translate(14.798438 163.594219) rotate(-90) scale(0.1 -0.1)">
      <defs>
       <path id="DejaVuSans-6d" d="M 3328 2828 
Q 3544 3216 3844 3400 
Q 4144 3584 4550 3584 
Q 5097 3584 5394 3201 
Q 5691 2819 5691 2113 
L 5691 0 
L 5113 0 
L 5113 2094 
Q 5113 2597 4934 2840 
Q 4756 3084 4391 3084 
Q 3944 3084 3684 2787 
Q 3425 2491 3425 1978 
L 3425 0 
L 2847 0 
L 2847 2094 
Q 2847 2600 2669 2842 
Q 2491 3084 2119 3084 
Q 1678 3084 1418 2786 
Q 1159 2488 1159 1978 
L 1159 0 
L 581 0 
L 581 3500 
L 1159 3500 
L 1159 2956 
Q 1356 3278 1631 3431 
Q 1906 3584 2284 3584 
Q 2666 3584 2933 3390 
Q 3200 3197 3328 2828 
z
" transform="scale(0.015625)"/>
       <path id="DejaVuSans-65" d="M 3597 1894 
L 3597 1613 
L 953 1613 
Q 991 1019 1311 708 
Q 1631 397 2203 397 
Q 2534 397 2845 478 
Q 3156 559 3463 722 
L 3463 178 
Q 3153 47 2828 -22 
Q 2503 -91 2169 -91 
Q 1331 -91 842 396 
Q 353 884 353 1716 
Q 353 2575 817 3079 
Q 1281 3584 2069 3584 
Q 2775 3584 3186 3129 
Q 3597 2675 3597 1894 
z
M 3022 2063 
Q 3016 2534 2758 2815 
Q 2500 3097 2075 3097 
Q 1594 3097 1305 2825 
Q 1016 2553 972 2059 
L 3022 2063 
z
" transform="scale(0.015625)"/>
       <path id="DejaVuSans-6f" d="M 1959 3097 
Q 1497 3097 1228 2736 
Q 959 2375 959 1747 
Q 959 1119 1226 758 
Q 1494 397 1959 397 
Q 2419 397 2687 759 
Q 2956 1122 2956 1747 
Q 2956 2369 2687 2733 
Q 2419 3097 1959 3097 
z
M 1959 3584 
Q 2709 3584 3137 3096 
Q 3566 2609 3566 1747 
Q 3566 888 3137 398 
Q 2709 -91 1959 -91 
Q 1206 -91 779 398 
Q 353 888 353 1747 
Q 353 2609 779 3096 
Q 1206 3584 1959 3584 
z
" transform="scale(0.015625)"/>
       <path id="DejaVuSans-6c" d="M 603 4863 
L 1178 4863 
L 1178 0 
L 603 0 
L 603 4863 
z
" transform="scale(0.015625)"/>
      </defs>
      <use xlink:href="#DejaVuSans-5b"/>
      <use xlink:href="#DejaVuSans-64" x="39.013672"/>
      <use xlink:href="#DejaVuSans-69" x="102.490234"/>
      <use xlink:href="#DejaVuSans-6d" x="130.273438"/>
      <use xlink:href="#DejaVuSans-65" x="227.685547"/>
      <use xlink:href="#DejaVuSans-6e" x="289.208984"/>
      <use xlink:href="#DejaVuSans-73" x="352.587891"/>
      <use xlink:href="#DejaVuSans-69" x="404.6875"/>
      <use xlink:href="#DejaVuSans-6f" x="432.470703"/>
      <use xlink:href="#DejaVuSans-6e" x="493.652344"/>
      <use xlink:href="#DejaVuSans-6c" x="557.03125"/>
      <use xlink:href="#DejaVuSans-65" x="584.814453"/>
      <use xlink:href="#DejaVuSans-73" x="646.337891"/>
      <use xlink:href="#DejaVuSans-73" x="698.4375"/>
      <use xlink:href="#DejaVuSans-5d" x="750.537109"/>
     </g>
    </g>
   </g>
   <g id="patch_3">
    <path d="M 34.240625 241.03375 
L 34.240625 7.2 
" style="fill: none; stroke: #000000; stroke-width: 0.8; stroke-linejoin: miter; stroke-linecap: square"/>
   </g>
   <g id="patch_4">
    <path d="M 417.170625 241.03375 
L 417.170625 7.2 
" style="fill: none; stroke: #000000; stroke-width: 0.8; stroke-linejoin: miter; stroke-linecap: square"/>
   </g>
   <g id="patch_5">
    <path d="M 34.240625 241.03375 
L 417.170625 241.03375 
" style="fill: none; stroke: #000000; stroke-width: 0.8; stroke-linejoin: miter; stroke-linecap: square"/>
   </g>
   <g id="patch_6">
    <path d="M 34.240625 7.2 
L 417.170625 7.2 
" style="fill: none; stroke: #000000; stroke-width: 0.8; stroke-linejoin: miter; stroke-linecap: square"/>
   </g>
   <g id="line2d_11">
    <path d="M 51.646534 203.926887 
L 53.387125 203.926887 
L 53.387125 206.062433 
L 55.127716 206.062433 
L 55.127716 208.774949 
L 56.868307 208.774949 
L 56.868307 209.874065 
L 58.608898 209.874065 
L 58.608898 210.600101 
L 60.349489 210.600101 
L 60.349489 210.743336 
L 62.09008 210.743336 
L 62.09008 210.488789 
L 63.83067 210.488789 
L 63.83067 210.25172 
L 65.571261 210.25172 
L 65.571261 209.906314 
L 72.533625 209.881091 
L 72.533625 210.046859 
L 74.274216 210.046859 
L 74.274216 210.203646 
L 77.755398 210.241056 
L 77.755398 210.400964 
L 79.495989 210.400964 
L 79.495989 210.682446 
L 82.97717 210.788384 
L 82.97717 210.926397 
L 84.717761 210.926397 
L 84.717761 211.180792 
L 86.458352 211.180792 
L 86.458352 211.065268 
L 88.198943 211.065268 
L 88.198943 211.388853 
L 89.939534 211.388853 
L 89.939534 211.591693 
L 91.680125 211.591693 
L 91.680125 211.266009 
L 93.420716 211.266009 
L 93.420716 211.431222 
L 95.161307 211.431222 
L 95.161307 211.670244 
L 98.642489 211.660723 
L 98.642489 211.327632 
L 100.38308 211.327632 
L 100.38308 211.10258 
L 103.864261 211.025557 
L 103.864261 211.964637 
L 105.604852 211.964637 
L 105.604852 210.908738 
L 107.345443 210.908738 
L 107.345443 211.25955 
L 109.086034 211.25955 
L 109.086034 211.073342 
L 110.826625 211.073342 
L 110.826625 210.422448 
L 112.567216 210.422448 
L 112.567216 210.879064 
L 114.307807 210.879064 
L 114.307807 209.513737 
L 116.048398 209.513737 
L 116.048398 210.884591 
L 117.788989 210.884591 
L 117.788989 212.274233 
L 119.52958 212.274233 
L 119.52958 212.587249 
L 121.27017 212.587249 
L 121.27017 212.339633 
L 123.010761 212.339633 
L 123.010761 208.4249 
L 124.751352 208.4249 
L 124.751352 210.244955 
L 128.232534 210.135925 
L 128.232534 210.941587 
L 129.973125 210.941587 
L 129.973125 212.251484 
L 131.713716 212.251484 
L 131.713716 207.563213 
L 133.454307 207.563213 
L 133.454307 212.867006 
L 135.194898 212.867006 
L 135.194898 207.354302 
L 136.935489 207.354302 
L 136.935489 205.722561 
L 138.67608 205.722561 
L 138.67608 209.336752 
L 140.41667 209.336752 
L 140.41667 213.457269 
L 142.157261 213.457269 
L 142.157261 202.225679 
L 143.897852 202.225679 
L 143.897852 212.568183 
L 145.638443 212.568183 
L 145.638443 213.65136 
L 147.379034 213.65136 
L 147.379034 209.264611 
L 149.119625 209.264611 
L 149.119625 212.709284 
L 150.860216 212.709284 
L 150.860216 213.611807 
L 152.600807 213.611807 
L 152.600807 213.431858 
L 154.341398 213.431858 
L 154.341398 208.196935 
L 156.081989 208.196935 
L 156.081989 198.538668 
L 157.82258 198.538668 
L 157.82258 193.976102 
L 159.56317 193.976102 
L 159.56317 208.527438 
L 161.303761 208.527438 
L 161.303761 213.456067 
L 163.044352 213.456067 
L 163.044352 203.215102 
L 164.784943 203.215102 
L 164.784943 208.45708 
L 166.525534 208.45708 
L 166.525534 212.763631 
L 170.006716 212.86881 
L 170.006716 195.210062 
L 171.747307 195.210062 
L 171.747307 201.061274 
L 173.487898 201.061274 
L 173.487898 207.947516 
L 175.228489 207.947516 
L 175.228489 209.985844 
L 176.96908 209.985844 
L 176.96908 211.229648 
L 178.70967 211.229648 
L 178.70967 212.946862 
L 182.190852 213.035634 
L 182.190852 203.53106 
L 183.931443 203.53106 
L 183.931443 212.390779 
L 185.672034 212.390779 
L 185.672034 192.980382 
L 187.412625 192.980382 
L 187.412625 212.36264 
L 189.153216 212.36264 
L 189.153216 205.802016 
L 190.893807 205.802016 
L 190.893807 212.37805 
L 192.634398 212.37805 
L 192.634398 209.370159 
L 194.374989 209.370159 
L 194.374989 212.150935 
L 196.11558 212.150935 
L 196.11558 176.135457 
L 197.85617 176.135457 
L 197.85617 211.21495 
L 199.596761 211.21495 
L 199.596761 203.486008 
L 201.337352 203.486008 
L 201.337352 204.129557 
L 203.077943 204.129557 
L 203.077943 211.304044 
L 204.818534 211.304044 
L 204.818534 194.047355 
L 206.559125 194.047355 
L 206.559125 211.087501 
L 208.299716 211.087501 
L 208.299716 211.21043 
L 210.040307 211.21043 
L 210.040307 211.890485 
L 211.780898 211.890485 
L 211.780898 211.528571 
L 213.521489 211.528571 
L 213.521489 211.912139 
L 215.26208 211.912139 
L 215.26208 209.344469 
L 217.00267 209.344469 
L 217.00267 211.590693 
L 218.743261 211.590693 
L 218.743261 211.065006 
L 222.224443 211.074327 
L 222.224443 209.52606 
L 223.965034 209.52606 
L 223.965034 211.103352 
L 225.705625 211.103352 
L 225.705625 211.365314 
L 227.446216 211.365314 
L 227.446216 210.773888 
L 229.186807 210.773888 
L 229.186807 193.936691 
L 230.927398 193.936691 
L 230.927398 211.132938 
L 232.667989 211.132938 
L 232.667989 211.013432 
L 234.40858 211.013432 
L 234.40858 213.61396 
L 236.14917 213.61396 
L 236.14917 209.121222 
L 237.889761 209.121222 
L 237.889761 209.689364 
L 239.630352 209.689364 
L 239.630352 210.652522 
L 241.370943 210.652522 
L 241.370943 210.958484 
L 243.111534 210.958484 
L 243.111534 209.715622 
L 244.852125 209.715622 
L 244.852125 185.571324 
L 246.592716 185.571324 
L 246.592716 128.807611 
L 248.333307 128.807611 
L 248.333307 209.036313 
L 250.073898 209.036313 
L 250.073898 210.444618 
L 251.814489 210.444618 
L 251.814489 210.047306 
L 253.55508 210.047306 
L 253.55508 209.022367 
L 255.29567 209.022367 
L 255.29567 178.703796 
L 257.036261 178.703796 
L 257.036261 18.700275 
L 258.776852 18.700275 
L 258.776852 208.465557 
L 260.517443 208.465557 
L 260.517443 209.950454 
L 262.258034 209.950454 
L 262.258034 210.780826 
L 263.998625 210.780826 
L 263.998625 211.076575 
L 265.739216 211.076575 
L 265.739216 210.635984 
L 267.479807 210.635984 
L 267.479807 210.376056 
L 269.220398 210.376056 
L 269.220398 211.552237 
L 270.960989 211.552237 
L 270.960989 211.257438 
L 272.70158 211.257438 
L 272.70158 210.184994 
L 274.44217 210.184994 
L 274.44217 211.817652 
L 276.182761 211.817652 
L 276.182761 213.129469 
L 277.923352 213.129469 
L 277.923352 210.755901 
L 279.663943 210.755901 
L 279.663943 211.020126 
L 281.404534 211.020126 
L 281.404534 211.279237 
L 283.145125 211.279237 
L 283.145125 211.029416 
L 284.885716 211.029416 
L 284.885716 210.840853 
L 286.626307 210.840853 
L 286.626307 211.263863 
L 290.107489 211.21586 
L 290.107489 211.025127 
L 293.58867 210.99424 
L 293.58867 210.796477 
L 295.329261 210.796477 
L 295.329261 210.97709 
L 297.069852 210.97709 
L 297.069852 211.8584 
L 298.810443 211.8584 
L 298.810443 211.022535 
L 300.551034 211.022535 
L 300.551034 211.282762 
L 302.291625 211.282762 
L 302.291625 182.327621 
L 304.032216 182.327621 
L 304.032216 195.839777 
L 305.772807 195.839777 
L 305.772807 210.550828 
L 307.513398 210.550828 
L 307.513398 210.962871 
L 309.253989 210.962871 
L 309.253989 211.4914 
L 310.99458 211.4914 
L 310.99458 210.232609 
L 312.73517 210.232609 
L 312.73517 211.004434 
L 314.475761 211.004434 
L 314.475761 211.537964 
L 316.216352 211.537964 
L 316.216352 211.219573 
L 317.956943 211.219573 
L 317.956943 209.456275 
L 319.697534 209.456275 
L 319.697534 209.768305 
L 321.438125 209.768305 
L 321.438125 210.658998 
L 323.178716 210.658998 
L 323.178716 210.805026 
L 324.919307 210.805026 
L 324.919307 208.902124 
L 326.659898 208.902124 
L 326.659898 168.6791 
L 328.400489 168.6791 
L 328.400489 201.411619 
L 330.14108 201.411619 
L 330.14108 210.578288 
L 331.88167 210.578288 
L 331.88167 210.735675 
L 333.622261 210.735675 
L 333.622261 209.966428 
L 335.362852 209.966428 
L 335.362852 209.734308 
L 338.844034 209.648486 
L 338.844034 210.626844 
L 342.325216 210.581349 
L 342.325216 209.593183 
L 344.065807 209.593183 
L 344.065807 209.266135 
L 345.806398 209.266135 
L 345.806398 210.389662 
L 347.546989 210.389662 
L 347.546989 211.384115 
L 349.28758 211.384115 
L 349.28758 210.374965 
L 351.02817 210.374965 
L 351.02817 211.4686 
L 352.768761 211.4686 
L 352.768761 210.620697 
L 354.509352 210.620697 
L 354.509352 210.972022 
L 356.249943 210.972022 
L 356.249943 210.479501 
L 357.990534 210.479501 
L 357.990534 199.924744 
L 359.731125 199.924744 
L 359.731125 116.888267 
L 361.471716 116.888267 
L 361.471716 200.817468 
L 363.212307 200.817468 
L 363.212307 210.369413 
L 364.952898 210.369413 
L 364.952898 210.803864 
L 366.693489 210.803864 
L 366.693489 208.654748 
L 368.43408 208.654748 
L 368.43408 212.755303 
L 370.17467 212.755303 
L 370.17467 209.851652 
L 371.915261 209.851652 
L 371.915261 212.878995 
L 373.655852 212.878995 
L 373.655852 209.287575 
L 375.396443 209.287575 
L 375.396443 210.603677 
L 377.137034 210.603677 
L 377.137034 211.347655 
L 378.877625 211.347655 
L 378.877625 212.807585 
L 380.618216 212.807585 
L 380.618216 213.136097 
L 382.358807 213.136097 
L 382.358807 208.932517 
L 384.099398 208.932517 
L 384.099398 206.78149 
L 385.839989 206.78149 
L 385.839989 211.818983 
L 387.58058 211.818983 
L 387.58058 213.897111 
L 389.32117 213.897111 
L 389.32117 207.368622 
L 391.061761 207.368622 
L 391.061761 213.318114 
L 392.802352 213.318114 
L 392.802352 207.491714 
L 394.542943 207.491714 
L 394.542943 211.423965 
L 396.283534 211.423965 
L 396.283534 224.82913 
L 398.024125 224.82913 
L 398.024125 177.516785 
L 399.764716 177.516785 
L 399.764716 177.516785 
" clip-path="url(#pd173674817)" style="fill: none; stroke: #1f77b4; stroke-width: 1.5; stroke-linecap: square"/>
   </g>
   <g id="LineCollection_1">
    <path d="M 52.51683 204.076918 
L 52.51683 203.776855 
" clip-path="url(#pd173674817)" style="fill: none; stroke: #1f77b4; stroke-width: 1.5"/>
    <path d="M 54.25742 206.2052 
L 54.25742 205.919665 
" clip-path="url(#pd173674817)" style="fill: none; stroke: #1f77b4; stroke-width: 1.5"/>
    <path d="M 55.998011 208.885398 
L 55.998011 208.664499 
" clip-path="url(#pd173674817)" style="fill: none; stroke: #1f77b4; stroke-width: 1.5"/>
    <path d="M 57.738602 209.967494 
L 57.738602 209.780636 
" clip-path="url(#pd173674817)" style="fill: none; stroke: #1f77b4; stroke-width: 1.5"/>
    <path d="M 59.479193 210.679346 
L 59.479193 210.520857 
" clip-path="url(#pd173674817)" style="fill: none; stroke: #1f77b4; stroke-width: 1.5"/>
    <path d="M 61.219784 210.81291 
L 61.219784 210.673762 
" clip-path="url(#pd173674817)" style="fill: none; stroke: #1f77b4; stroke-width: 1.5"/>
    <path d="M 62.960375 210.552229 
L 62.960375 210.425349 
" clip-path="url(#pd173674817)" style="fill: none; stroke: #1f77b4; stroke-width: 1.5"/>
    <path d="M 64.700966 210.312425 
L 64.700966 210.191014 
" clip-path="url(#pd173674817)" style="fill: none; stroke: #1f77b4; stroke-width: 1.5"/>
    <path d="M 66.441557 209.96602 
L 66.441557 209.846607 
" clip-path="url(#pd173674817)" style="fill: none; stroke: #1f77b4; stroke-width: 1.5"/>
    <path d="M 68.182148 209.875436 
L 68.182148 209.759558 
" clip-path="url(#pd173674817)" style="fill: none; stroke: #1f77b4; stroke-width: 1.5"/>
    <path d="M 69.922739 209.868386 
L 69.922739 209.756367 
" clip-path="url(#pd173674817)" style="fill: none; stroke: #1f77b4; stroke-width: 1.5"/>
    <path d="M 71.66333 209.935118 
L 71.66333 209.827065 
" clip-path="url(#pd173674817)" style="fill: none; stroke: #1f77b4; stroke-width: 1.5"/>
    <path d="M 73.40392 210.098599 
L 73.40392 209.995119 
" clip-path="url(#pd173674817)" style="fill: none; stroke: #1f77b4; stroke-width: 1.5"/>
    <path d="M 75.144511 210.253167 
L 75.144511 210.154126 
" clip-path="url(#pd173674817)" style="fill: none; stroke: #1f77b4; stroke-width: 1.5"/>
    <path d="M 76.885102 210.288539 
L 76.885102 210.193574 
" clip-path="url(#pd173674817)" style="fill: none; stroke: #1f77b4; stroke-width: 1.5"/>
    <path d="M 78.625693 210.446416 
L 78.625693 210.355512 
" clip-path="url(#pd173674817)" style="fill: none; stroke: #1f77b4; stroke-width: 1.5"/>
    <path d="M 80.366284 210.725978 
L 80.366284 210.638914 
" clip-path="url(#pd173674817)" style="fill: none; stroke: #1f77b4; stroke-width: 1.5"/>
    <path d="M 82.106875 210.830378 
L 82.106875 210.746389 
" clip-path="url(#pd173674817)" style="fill: none; stroke: #1f77b4; stroke-width: 1.5"/>
    <path d="M 83.847466 210.966933 
L 83.847466 210.885861 
" clip-path="url(#pd173674817)" style="fill: none; stroke: #1f77b4; stroke-width: 1.5"/>
    <path d="M 85.588057 211.219956 
L 85.588057 211.141629 
" clip-path="url(#pd173674817)" style="fill: none; stroke: #1f77b4; stroke-width: 1.5"/>
    <path d="M 87.328648 211.103608 
L 87.328648 211.026928 
" clip-path="url(#pd173674817)" style="fill: none; stroke: #1f77b4; stroke-width: 1.5"/>
    <path d="M 89.069239 211.426152 
L 89.069239 211.351554 
" clip-path="url(#pd173674817)" style="fill: none; stroke: #1f77b4; stroke-width: 1.5"/>
    <path d="M 90.80983 211.628199 
L 90.80983 211.555186 
" clip-path="url(#pd173674817)" style="fill: none; stroke: #1f77b4; stroke-width: 1.5"/>
    <path d="M 92.55042 211.302301 
L 92.55042 211.229716 
" clip-path="url(#pd173674817)" style="fill: none; stroke: #1f77b4; stroke-width: 1.5"/>
    <path d="M 94.291011 211.466971 
L 94.291011 211.395474 
" clip-path="url(#pd173674817)" style="fill: none; stroke: #1f77b4; stroke-width: 1.5"/>
    <path d="M 96.031602 211.705466 
L 96.031602 211.635022 
" clip-path="url(#pd173674817)" style="fill: none; stroke: #1f77b4; stroke-width: 1.5"/>
    <path d="M 97.772193 211.695702 
L 97.772193 211.625743 
" clip-path="url(#pd173674817)" style="fill: none; stroke: #1f77b4; stroke-width: 1.5"/>
    <path d="M 99.512784 211.362732 
L 99.512784 211.292532 
" clip-path="url(#pd173674817)" style="fill: none; stroke: #1f77b4; stroke-width: 1.5"/>
    <path d="M 101.253375 211.137694 
L 101.253375 211.067465 
" clip-path="url(#pd173674817)" style="fill: none; stroke: #1f77b4; stroke-width: 1.5"/>
    <path d="M 102.993966 211.060596 
L 102.993966 210.990518 
" clip-path="url(#pd173674817)" style="fill: none; stroke: #1f77b4; stroke-width: 1.5"/>
    <path d="M 104.734557 211.998814 
L 104.734557 211.930461 
" clip-path="url(#pd173674817)" style="fill: none; stroke: #1f77b4; stroke-width: 1.5"/>
    <path d="M 106.475148 210.943682 
L 106.475148 210.873794 
" clip-path="url(#pd173674817)" style="fill: none; stroke: #1f77b4; stroke-width: 1.5"/>
    <path d="M 108.215739 211.29418 
L 108.215739 211.224919 
" clip-path="url(#pd173674817)" style="fill: none; stroke: #1f77b4; stroke-width: 1.5"/>
    <path d="M 109.95633 211.108119 
L 109.95633 211.038565 
" clip-path="url(#pd173674817)" style="fill: none; stroke: #1f77b4; stroke-width: 1.5"/>
    <path d="M 111.69692 210.457739 
L 111.69692 210.387158 
" clip-path="url(#pd173674817)" style="fill: none; stroke: #1f77b4; stroke-width: 1.5"/>
    <path d="M 113.437511 210.913982 
L 113.437511 210.844145 
" clip-path="url(#pd173674817)" style="fill: none; stroke: #1f77b4; stroke-width: 1.5"/>
    <path d="M 115.178102 209.549789 
L 115.178102 209.477685 
" clip-path="url(#pd173674817)" style="fill: none; stroke: #1f77b4; stroke-width: 1.5"/>
    <path d="M 116.918693 210.919683 
L 116.918693 210.849499 
" clip-path="url(#pd173674817)" style="fill: none; stroke: #1f77b4; stroke-width: 1.5"/>
    <path d="M 118.659284 212.308267 
L 118.659284 212.240199 
" clip-path="url(#pd173674817)" style="fill: none; stroke: #1f77b4; stroke-width: 1.5"/>
    <path d="M 120.399875 212.621114 
L 120.399875 212.553384 
" clip-path="url(#pd173674817)" style="fill: none; stroke: #1f77b4; stroke-width: 1.5"/>
    <path d="M 122.140466 212.373837 
L 122.140466 212.30543 
" clip-path="url(#pd173674817)" style="fill: none; stroke: #1f77b4; stroke-width: 1.5"/>
    <path d="M 123.881057 208.462399 
L 123.881057 208.387401 
" clip-path="url(#pd173674817)" style="fill: none; stroke: #1f77b4; stroke-width: 1.5"/>
    <path d="M 125.621648 210.281278 
L 125.621648 210.208632 
" clip-path="url(#pd173674817)" style="fill: none; stroke: #1f77b4; stroke-width: 1.5"/>
    <path d="M 127.362239 210.17251 
L 127.362239 210.099339 
" clip-path="url(#pd173674817)" style="fill: none; stroke: #1f77b4; stroke-width: 1.5"/>
    <path d="M 129.10283 210.977758 
L 129.10283 210.905415 
" clip-path="url(#pd173674817)" style="fill: none; stroke: #1f77b4; stroke-width: 1.5"/>
    <path d="M 130.84342 212.287525 
L 130.84342 212.215442 
" clip-path="url(#pd173674817)" style="fill: none; stroke: #1f77b4; stroke-width: 1.5"/>
    <path d="M 132.584011 207.605821 
L 132.584011 207.520605 
" clip-path="url(#pd173674817)" style="fill: none; stroke: #1f77b4; stroke-width: 1.5"/>
    <path d="M 134.324602 212.906862 
L 134.324602 212.827151 
" clip-path="url(#pd173674817)" style="fill: none; stroke: #1f77b4; stroke-width: 1.5"/>
    <path d="M 136.065193 207.401397 
L 136.065193 207.307207 
" clip-path="url(#pd173674817)" style="fill: none; stroke: #1f77b4; stroke-width: 1.5"/>
    <path d="M 137.805784 205.773597 
L 137.805784 205.671525 
" clip-path="url(#pd173674817)" style="fill: none; stroke: #1f77b4; stroke-width: 1.5"/>
    <path d="M 139.546375 209.386502 
L 139.546375 209.287002 
" clip-path="url(#pd173674817)" style="fill: none; stroke: #1f77b4; stroke-width: 1.5"/>
    <path d="M 141.286966 213.504189 
L 141.286966 213.410348 
" clip-path="url(#pd173674817)" style="fill: none; stroke: #1f77b4; stroke-width: 1.5"/>
    <path d="M 143.027557 202.286381 
L 143.027557 202.164977 
" clip-path="url(#pd173674817)" style="fill: none; stroke: #1f77b4; stroke-width: 1.5"/>
    <path d="M 144.768148 212.619883 
L 144.768148 212.516484 
" clip-path="url(#pd173674817)" style="fill: none; stroke: #1f77b4; stroke-width: 1.5"/>
    <path d="M 146.508739 213.704131 
L 146.508739 213.598588 
" clip-path="url(#pd173674817)" style="fill: none; stroke: #1f77b4; stroke-width: 1.5"/>
    <path d="M 148.24933 209.325641 
L 148.24933 209.20358 
" clip-path="url(#pd173674817)" style="fill: none; stroke: #1f77b4; stroke-width: 1.5"/>
    <path d="M 149.98992 212.767422 
L 149.98992 212.651146 
" clip-path="url(#pd173674817)" style="fill: none; stroke: #1f77b4; stroke-width: 1.5"/>
    <path d="M 151.730511 213.669872 
L 151.730511 213.553742 
" clip-path="url(#pd173674817)" style="fill: none; stroke: #1f77b4; stroke-width: 1.5"/>
    <path d="M 153.471102 213.492127 
L 153.471102 213.371589 
" clip-path="url(#pd173674817)" style="fill: none; stroke: #1f77b4; stroke-width: 1.5"/>
    <path d="M 155.211693 208.267157 
L 155.211693 208.126714 
" clip-path="url(#pd173674817)" style="fill: none; stroke: #1f77b4; stroke-width: 1.5"/>
    <path d="M 156.952284 198.623917 
L 156.952284 198.453418 
" clip-path="url(#pd173674817)" style="fill: none; stroke: #1f77b4; stroke-width: 1.5"/>
    <path d="M 158.692875 194.07012 
L 158.692875 193.882085 
" clip-path="url(#pd173674817)" style="fill: none; stroke: #1f77b4; stroke-width: 1.5"/>
    <path d="M 160.433466 208.604167 
L 160.433466 208.450709 
" clip-path="url(#pd173674817)" style="fill: none; stroke: #1f77b4; stroke-width: 1.5"/>
    <path d="M 162.174057 213.525744 
L 162.174057 213.38639 
" clip-path="url(#pd173674817)" style="fill: none; stroke: #1f77b4; stroke-width: 1.5"/>
    <path d="M 163.914648 203.302237 
L 163.914648 203.127967 
" clip-path="url(#pd173674817)" style="fill: none; stroke: #1f77b4; stroke-width: 1.5"/>
    <path d="M 165.655239 208.539419 
L 165.655239 208.37474 
" clip-path="url(#pd173674817)" style="fill: none; stroke: #1f77b4; stroke-width: 1.5"/>
    <path d="M 167.39583 212.841758 
L 167.39583 212.685504 
" clip-path="url(#pd173674817)" style="fill: none; stroke: #1f77b4; stroke-width: 1.5"/>
    <path d="M 169.13642 212.95076 
L 169.13642 212.786861 
" clip-path="url(#pd173674817)" style="fill: none; stroke: #1f77b4; stroke-width: 1.5"/>
    <path d="M 170.877011 195.3281 
L 170.877011 195.092025 
" clip-path="url(#pd173674817)" style="fill: none; stroke: #1f77b4; stroke-width: 1.5"/>
    <path d="M 172.617602 201.174371 
L 172.617602 200.948178 
" clip-path="url(#pd173674817)" style="fill: none; stroke: #1f77b4; stroke-width: 1.5"/>
    <path d="M 174.358193 208.054551 
L 174.358193 207.840481 
" clip-path="url(#pd173674817)" style="fill: none; stroke: #1f77b4; stroke-width: 1.5"/>
    <path d="M 176.098784 210.092633 
L 176.098784 209.879056 
" clip-path="url(#pd173674817)" style="fill: none; stroke: #1f77b4; stroke-width: 1.5"/>
    <path d="M 177.839375 211.334714 
L 177.839375 211.124582 
" clip-path="url(#pd173674817)" style="fill: none; stroke: #1f77b4; stroke-width: 1.5"/>
    <path d="M 179.579966 213.048413 
L 179.579966 212.84531 
" clip-path="url(#pd173674817)" style="fill: none; stroke: #1f77b4; stroke-width: 1.5"/>
    <path d="M 181.320557 213.136537 
L 181.320557 212.934731 
" clip-path="url(#pd173674817)" style="fill: none; stroke: #1f77b4; stroke-width: 1.5"/>
    <path d="M 183.061148 203.657251 
L 183.061148 203.404869 
" clip-path="url(#pd173674817)" style="fill: none; stroke: #1f77b4; stroke-width: 1.5"/>
    <path d="M 184.801739 212.498481 
L 184.801739 212.283077 
" clip-path="url(#pd173674817)" style="fill: none; stroke: #1f77b4; stroke-width: 1.5"/>
    <path d="M 186.54233 193.134552 
L 186.54233 192.826211 
" clip-path="url(#pd173674817)" style="fill: none; stroke: #1f77b4; stroke-width: 1.5"/>
    <path d="M 188.28292 212.475563 
L 188.28292 212.249717 
" clip-path="url(#pd173674817)" style="fill: none; stroke: #1f77b4; stroke-width: 1.5"/>
    <path d="M 190.023511 205.935502 
L 190.023511 205.66853 
" clip-path="url(#pd173674817)" style="fill: none; stroke: #1f77b4; stroke-width: 1.5"/>
    <path d="M 191.764102 212.496917 
L 191.764102 212.259182 
" clip-path="url(#pd173674817)" style="fill: none; stroke: #1f77b4; stroke-width: 1.5"/>
    <path d="M 193.504693 209.499644 
L 193.504693 209.240674 
" clip-path="url(#pd173674817)" style="fill: none; stroke: #1f77b4; stroke-width: 1.5"/>
    <path d="M 195.245284 212.276789 
L 195.245284 212.025081 
" clip-path="url(#pd173674817)" style="fill: none; stroke: #1f77b4; stroke-width: 1.5"/>
    <path d="M 196.985875 176.350123 
L 196.985875 175.920791 
" clip-path="url(#pd173674817)" style="fill: none; stroke: #1f77b4; stroke-width: 1.5"/>
    <path d="M 198.726466 211.350778 
L 198.726466 211.079121 
" clip-path="url(#pd173674817)" style="fill: none; stroke: #1f77b4; stroke-width: 1.5"/>
    <path d="M 200.467057 203.648037 
L 200.467057 203.32398 
" clip-path="url(#pd173674817)" style="fill: none; stroke: #1f77b4; stroke-width: 1.5"/>
    <path d="M 202.207648 204.292833 
L 202.207648 203.966281 
" clip-path="url(#pd173674817)" style="fill: none; stroke: #1f77b4; stroke-width: 1.5"/>
    <path d="M 203.948239 211.449559 
L 203.948239 211.158529 
" clip-path="url(#pd173674817)" style="fill: none; stroke: #1f77b4; stroke-width: 1.5"/>
    <path d="M 205.68883 194.244742 
L 205.68883 193.849968 
" clip-path="url(#pd173674817)" style="fill: none; stroke: #1f77b4; stroke-width: 1.5"/>
    <path d="M 207.42942 211.237009 
L 207.42942 210.937993 
" clip-path="url(#pd173674817)" style="fill: none; stroke: #1f77b4; stroke-width: 1.5"/>
    <path d="M 209.170011 211.363114 
L 209.170011 211.057746 
" clip-path="url(#pd173674817)" style="fill: none; stroke: #1f77b4; stroke-width: 1.5"/>
    <path d="M 210.910602 212.042526 
L 210.910602 211.738445 
" clip-path="url(#pd173674817)" style="fill: none; stroke: #1f77b4; stroke-width: 1.5"/>
    <path d="M 212.651193 211.686931 
L 212.651193 211.370211 
" clip-path="url(#pd173674817)" style="fill: none; stroke: #1f77b4; stroke-width: 1.5"/>
    <path d="M 214.391784 212.072748 
L 214.391784 211.75153 
" clip-path="url(#pd173674817)" style="fill: none; stroke: #1f77b4; stroke-width: 1.5"/>
    <path d="M 216.132375 209.519434 
L 216.132375 209.169505 
" clip-path="url(#pd173674817)" style="fill: none; stroke: #1f77b4; stroke-width: 1.5"/>
    <path d="M 217.872966 211.760599 
L 217.872966 211.420786 
" clip-path="url(#pd173674817)" style="fill: none; stroke: #1f77b4; stroke-width: 1.5"/>
    <path d="M 219.613557 211.241135 
L 219.613557 210.888878 
" clip-path="url(#pd173674817)" style="fill: none; stroke: #1f77b4; stroke-width: 1.5"/>
    <path d="M 221.354148 211.255342 
L 221.354148 210.893312 
" clip-path="url(#pd173674817)" style="fill: none; stroke: #1f77b4; stroke-width: 1.5"/>
    <path d="M 223.094739 209.717062 
L 223.094739 209.335058 
" clip-path="url(#pd173674817)" style="fill: none; stroke: #1f77b4; stroke-width: 1.5"/>
    <path d="M 224.83533 211.293916 
L 224.83533 210.912788 
" clip-path="url(#pd173674817)" style="fill: none; stroke: #1f77b4; stroke-width: 1.5"/>
    <path d="M 226.57592 211.560107 
L 226.57592 211.17052 
" clip-path="url(#pd173674817)" style="fill: none; stroke: #1f77b4; stroke-width: 1.5"/>
    <path d="M 228.316511 210.976505 
L 228.316511 210.571272 
" clip-path="url(#pd173674817)" style="fill: none; stroke: #1f77b4; stroke-width: 1.5"/>
    <path d="M 230.057102 194.213937 
L 230.057102 193.659444 
" clip-path="url(#pd173674817)" style="fill: none; stroke: #1f77b4; stroke-width: 1.5"/>
    <path d="M 231.797693 211.346387 
L 231.797693 210.919489 
" clip-path="url(#pd173674817)" style="fill: none; stroke: #1f77b4; stroke-width: 1.5"/>
    <path d="M 233.538284 211.232457 
L 233.538284 210.794408 
" clip-path="url(#pd173674817)" style="fill: none; stroke: #1f77b4; stroke-width: 1.5"/>
    <path d="M 235.278875 213.810031 
L 235.278875 213.417889 
" clip-path="url(#pd173674817)" style="fill: none; stroke: #1f77b4; stroke-width: 1.5"/>
    <path d="M 237.019466 209.362751 
L 237.019466 208.879693 
" clip-path="url(#pd173674817)" style="fill: none; stroke: #1f77b4; stroke-width: 1.5"/>
    <path d="M 238.760057 209.935191 
L 238.760057 209.443538 
" clip-path="url(#pd173674817)" style="fill: none; stroke: #1f77b4; stroke-width: 1.5"/>
    <path d="M 240.500648 210.899167 
L 240.500648 210.405877 
" clip-path="url(#pd173674817)" style="fill: none; stroke: #1f77b4; stroke-width: 1.5"/>
    <path d="M 242.241239 211.205203 
L 242.241239 210.711766 
" clip-path="url(#pd173674817)" style="fill: none; stroke: #1f77b4; stroke-width: 1.5"/>
    <path d="M 243.98183 209.971118 
L 243.98183 209.460126 
" clip-path="url(#pd173674817)" style="fill: none; stroke: #1f77b4; stroke-width: 1.5"/>
    <path d="M 245.72242 185.939406 
L 245.72242 185.203243 
" clip-path="url(#pd173674817)" style="fill: none; stroke: #1f77b4; stroke-width: 1.5"/>
    <path d="M 247.463011 129.3566 
L 247.463011 128.258622 
" clip-path="url(#pd173674817)" style="fill: none; stroke: #1f77b4; stroke-width: 1.5"/>
    <path d="M 249.203602 209.303919 
L 249.203602 208.768707 
" clip-path="url(#pd173674817)" style="fill: none; stroke: #1f77b4; stroke-width: 1.5"/>
    <path d="M 250.944193 210.707547 
L 250.944193 210.18169 
" clip-path="url(#pd173674817)" style="fill: none; stroke: #1f77b4; stroke-width: 1.5"/>
    <path d="M 252.684784 210.316963 
L 252.684784 209.77765 
" clip-path="url(#pd173674817)" style="fill: none; stroke: #1f77b4; stroke-width: 1.5"/>
    <path d="M 254.425375 209.304437 
L 254.425375 208.740298 
" clip-path="url(#pd173674817)" style="fill: none; stroke: #1f77b4; stroke-width: 1.5"/>
    <path d="M 256.165966 179.136131 
L 256.165966 178.271461 
" clip-path="url(#pd173674817)" style="fill: none; stroke: #1f77b4; stroke-width: 1.5"/>
    <path d="M 257.906557 19.571744 
L 257.906557 17.828807 
" clip-path="url(#pd173674817)" style="fill: none; stroke: #1f77b4; stroke-width: 1.5"/>
    <path d="M 259.647148 208.763568 
L 259.647148 208.167547 
" clip-path="url(#pd173674817)" style="fill: none; stroke: #1f77b4; stroke-width: 1.5"/>
    <path d="M 261.387739 210.243532 
L 261.387739 209.657376 
" clip-path="url(#pd173674817)" style="fill: none; stroke: #1f77b4; stroke-width: 1.5"/>
    <path d="M 263.12833 211.072061 
L 263.12833 210.489591 
" clip-path="url(#pd173674817)" style="fill: none; stroke: #1f77b4; stroke-width: 1.5"/>
    <path d="M 264.86892 211.372958 
L 264.86892 210.780193 
" clip-path="url(#pd173674817)" style="fill: none; stroke: #1f77b4; stroke-width: 1.5"/>
    <path d="M 266.609511 210.939772 
L 266.609511 210.332195 
" clip-path="url(#pd173674817)" style="fill: none; stroke: #1f77b4; stroke-width: 1.5"/>
    <path d="M 268.350102 210.685775 
L 268.350102 210.066337 
" clip-path="url(#pd173674817)" style="fill: none; stroke: #1f77b4; stroke-width: 1.5"/>
    <path d="M 270.090693 211.858487 
L 270.090693 211.245987 
" clip-path="url(#pd173674817)" style="fill: none; stroke: #1f77b4; stroke-width: 1.5"/>
    <path d="M 271.831284 211.571863 
L 271.831284 210.943012 
" clip-path="url(#pd173674817)" style="fill: none; stroke: #1f77b4; stroke-width: 1.5"/>
    <path d="M 273.571875 210.512059 
L 273.571875 209.857929 
" clip-path="url(#pd173674817)" style="fill: none; stroke: #1f77b4; stroke-width: 1.5"/>
    <path d="M 275.312466 212.131297 
L 275.312466 211.504007 
" clip-path="url(#pd173674817)" style="fill: none; stroke: #1f77b4; stroke-width: 1.5"/>
    <path d="M 277.053057 213.424457 
L 277.053057 212.834482 
" clip-path="url(#pd173674817)" style="fill: none; stroke: #1f77b4; stroke-width: 1.5"/>
    <path d="M 278.793648 211.09554 
L 278.793648 210.416263 
" clip-path="url(#pd173674817)" style="fill: none; stroke: #1f77b4; stroke-width: 1.5"/>
    <path d="M 280.534239 211.365746 
L 280.534239 210.674505 
" clip-path="url(#pd173674817)" style="fill: none; stroke: #1f77b4; stroke-width: 1.5"/>
    <path d="M 282.27483 211.626963 
L 282.27483 210.931511 
" clip-path="url(#pd173674817)" style="fill: none; stroke: #1f77b4; stroke-width: 1.5"/>
    <path d="M 284.01542 211.38669 
L 284.01542 210.672141 
" clip-path="url(#pd173674817)" style="fill: none; stroke: #1f77b4; stroke-width: 1.5"/>
    <path d="M 285.756011 211.205465 
L 285.756011 210.476241 
" clip-path="url(#pd173674817)" style="fill: none; stroke: #1f77b4; stroke-width: 1.5"/>
    <path d="M 287.496602 211.633867 
L 287.496602 210.893859 
" clip-path="url(#pd173674817)" style="fill: none; stroke: #1f77b4; stroke-width: 1.5"/>
    <path d="M 289.237193 211.590444 
L 289.237193 210.841275 
" clip-path="url(#pd173674817)" style="fill: none; stroke: #1f77b4; stroke-width: 1.5"/>
    <path d="M 290.977784 211.410659 
L 290.977784 210.639595 
" clip-path="url(#pd173674817)" style="fill: none; stroke: #1f77b4; stroke-width: 1.5"/>
    <path d="M 292.718375 211.386697 
L 292.718375 210.601783 
" clip-path="url(#pd173674817)" style="fill: none; stroke: #1f77b4; stroke-width: 1.5"/>
    <path d="M 294.458966 211.197648 
L 294.458966 210.395306 
" clip-path="url(#pd173674817)" style="fill: none; stroke: #1f77b4; stroke-width: 1.5"/>
    <path d="M 296.199557 211.383344 
L 296.199557 210.570837 
" clip-path="url(#pd173674817)" style="fill: none; stroke: #1f77b4; stroke-width: 1.5"/>
    <path d="M 297.940148 212.255606 
L 297.940148 211.461195 
" clip-path="url(#pd173674817)" style="fill: none; stroke: #1f77b4; stroke-width: 1.5"/>
    <path d="M 299.680739 211.431527 
L 299.680739 210.613544 
" clip-path="url(#pd173674817)" style="fill: none; stroke: #1f77b4; stroke-width: 1.5"/>
    <path d="M 301.42133 211.694758 
L 301.42133 210.870765 
" clip-path="url(#pd173674817)" style="fill: none; stroke: #1f77b4; stroke-width: 1.5"/>
    <path d="M 303.16192 182.959733 
L 303.16192 181.695509 
" clip-path="url(#pd173674817)" style="fill: none; stroke: #1f77b4; stroke-width: 1.5"/>
    <path d="M 304.902511 196.395306 
L 304.902511 195.284248 
" clip-path="url(#pd173674817)" style="fill: none; stroke: #1f77b4; stroke-width: 1.5"/>
    <path d="M 306.643102 210.989734 
L 306.643102 210.111921 
" clip-path="url(#pd173674817)" style="fill: none; stroke: #1f77b4; stroke-width: 1.5"/>
    <path d="M 308.383693 211.40241 
L 308.383693 210.523331 
" clip-path="url(#pd173674817)" style="fill: none; stroke: #1f77b4; stroke-width: 1.5"/>
    <path d="M 310.124284 211.939022 
L 310.124284 211.043779 
" clip-path="url(#pd173674817)" style="fill: none; stroke: #1f77b4; stroke-width: 1.5"/>
    <path d="M 311.864875 210.702207 
L 311.864875 209.763011 
" clip-path="url(#pd173674817)" style="fill: none; stroke: #1f77b4; stroke-width: 1.5"/>
    <path d="M 313.605466 211.470591 
L 313.605466 210.538278 
" clip-path="url(#pd173674817)" style="fill: none; stroke: #1f77b4; stroke-width: 1.5"/>
    <path d="M 315.346057 212.013272 
L 315.346057 211.062656 
" clip-path="url(#pd173674817)" style="fill: none; stroke: #1f77b4; stroke-width: 1.5"/>
    <path d="M 317.086648 211.71128 
L 317.086648 210.727866 
" clip-path="url(#pd173674817)" style="fill: none; stroke: #1f77b4; stroke-width: 1.5"/>
    <path d="M 318.827239 209.972615 
L 318.827239 208.939935 
" clip-path="url(#pd173674817)" style="fill: none; stroke: #1f77b4; stroke-width: 1.5"/>
    <path d="M 320.56783 210.29062 
L 320.56783 209.24599 
" clip-path="url(#pd173674817)" style="fill: none; stroke: #1f77b4; stroke-width: 1.5"/>
    <path d="M 322.30842 211.177557 
L 322.30842 210.140439 
" clip-path="url(#pd173674817)" style="fill: none; stroke: #1f77b4; stroke-width: 1.5"/>
    <path d="M 324.049011 211.338295 
L 324.049011 210.271757 
" clip-path="url(#pd173674817)" style="fill: none; stroke: #1f77b4; stroke-width: 1.5"/>
    <path d="M 325.789602 209.472655 
L 325.789602 208.331594 
" clip-path="url(#pd173674817)" style="fill: none; stroke: #1f77b4; stroke-width: 1.5"/>
    <path d="M 327.530193 169.617253 
L 327.530193 167.740946 
" clip-path="url(#pd173674817)" style="fill: none; stroke: #1f77b4; stroke-width: 1.5"/>
    <path d="M 329.270784 202.081133 
L 329.270784 200.742106 
" clip-path="url(#pd173674817)" style="fill: none; stroke: #1f77b4; stroke-width: 1.5"/>
    <path d="M 331.011375 211.150224 
L 331.011375 210.006351 
" clip-path="url(#pd173674817)" style="fill: none; stroke: #1f77b4; stroke-width: 1.5"/>
    <path d="M 332.751966 211.313466 
L 332.751966 210.157885 
" clip-path="url(#pd173674817)" style="fill: none; stroke: #1f77b4; stroke-width: 1.5"/>
    <path d="M 334.492557 210.572237 
L 334.492557 209.360619 
" clip-path="url(#pd173674817)" style="fill: none; stroke: #1f77b4; stroke-width: 1.5"/>
    <path d="M 336.233148 210.358595 
L 336.233148 209.110021 
" clip-path="url(#pd173674817)" style="fill: none; stroke: #1f77b4; stroke-width: 1.5"/>
    <path d="M 337.973739 210.287977 
L 337.973739 209.008995 
" clip-path="url(#pd173674817)" style="fill: none; stroke: #1f77b4; stroke-width: 1.5"/>
    <path d="M 339.71433 211.264195 
L 339.71433 209.989493 
" clip-path="url(#pd173674817)" style="fill: none; stroke: #1f77b4; stroke-width: 1.5"/>
    <path d="M 341.45492 211.235158 
L 341.45492 209.927539 
" clip-path="url(#pd173674817)" style="fill: none; stroke: #1f77b4; stroke-width: 1.5"/>
    <path d="M 343.195511 210.282835 
L 343.195511 208.903532 
" clip-path="url(#pd173674817)" style="fill: none; stroke: #1f77b4; stroke-width: 1.5"/>
    <path d="M 344.936102 209.984991 
L 344.936102 208.547278 
" clip-path="url(#pd173674817)" style="fill: none; stroke: #1f77b4; stroke-width: 1.5"/>
    <path d="M 346.676693 211.10463 
L 346.676693 209.674694 
" clip-path="url(#pd173674817)" style="fill: none; stroke: #1f77b4; stroke-width: 1.5"/>
    <path d="M 348.417284 212.10032 
L 348.417284 210.66791 
" clip-path="url(#pd173674817)" style="fill: none; stroke: #1f77b4; stroke-width: 1.5"/>
    <path d="M 350.157875 211.122949 
L 350.157875 209.626982 
" clip-path="url(#pd173674817)" style="fill: none; stroke: #1f77b4; stroke-width: 1.5"/>
    <path d="M 351.898466 212.212356 
L 351.898466 210.724844 
" clip-path="url(#pd173674817)" style="fill: none; stroke: #1f77b4; stroke-width: 1.5"/>
    <path d="M 353.639057 211.401832 
L 353.639057 209.839563 
" clip-path="url(#pd173674817)" style="fill: none; stroke: #1f77b4; stroke-width: 1.5"/>
    <path d="M 355.379648 211.768605 
L 355.379648 210.175438 
" clip-path="url(#pd173674817)" style="fill: none; stroke: #1f77b4; stroke-width: 1.5"/>
    <path d="M 357.120239 211.312209 
L 357.120239 209.646792 
" clip-path="url(#pd173674817)" style="fill: none; stroke: #1f77b4; stroke-width: 1.5"/>
    <path d="M 358.86083 200.952945 
L 358.86083 198.896543 
" clip-path="url(#pd173674817)" style="fill: none; stroke: #1f77b4; stroke-width: 1.5"/>
    <path d="M 360.60142 118.879362 
L 360.60142 114.897173 
" clip-path="url(#pd173674817)" style="fill: none; stroke: #1f77b4; stroke-width: 1.5"/>
    <path d="M 362.342011 201.914112 
L 362.342011 199.720825 
" clip-path="url(#pd173674817)" style="fill: none; stroke: #1f77b4; stroke-width: 1.5"/>
    <path d="M 364.082602 211.313666 
L 364.082602 209.42516 
" clip-path="url(#pd173674817)" style="fill: none; stroke: #1f77b4; stroke-width: 1.5"/>
    <path d="M 365.823193 211.756501 
L 365.823193 209.851226 
" clip-path="url(#pd173674817)" style="fill: none; stroke: #1f77b4; stroke-width: 1.5"/>
    <path d="M 367.563784 209.701815 
L 367.563784 207.607681 
" clip-path="url(#pd173674817)" style="fill: none; stroke: #1f77b4; stroke-width: 1.5"/>
    <path d="M 369.304375 213.625566 
L 369.304375 211.885039 
" clip-path="url(#pd173674817)" style="fill: none; stroke: #1f77b4; stroke-width: 1.5"/>
    <path d="M 371.044966 210.921132 
L 371.044966 208.782172 
" clip-path="url(#pd173674817)" style="fill: none; stroke: #1f77b4; stroke-width: 1.5"/>
    <path d="M 372.785557 213.930276 
L 372.785557 211.827714 
" clip-path="url(#pd173674817)" style="fill: none; stroke: #1f77b4; stroke-width: 1.5"/>
    <path d="M 374.526148 210.513797 
L 374.526148 208.061352 
" clip-path="url(#pd173674817)" style="fill: none; stroke: #1f77b4; stroke-width: 1.5"/>
    <path d="M 376.266739 211.830166 
L 376.266739 209.377189 
" clip-path="url(#pd173674817)" style="fill: none; stroke: #1f77b4; stroke-width: 1.5"/>
    <path d="M 378.00733 212.60671 
L 378.00733 210.088601 
" clip-path="url(#pd173674817)" style="fill: none; stroke: #1f77b4; stroke-width: 1.5"/>
    <path d="M 379.74792 214.079392 
L 379.74792 211.535777 
" clip-path="url(#pd173674817)" style="fill: none; stroke: #1f77b4; stroke-width: 1.5"/>
    <path d="M 381.488511 214.474451 
L 381.488511 211.797744 
" clip-path="url(#pd173674817)" style="fill: none; stroke: #1f77b4; stroke-width: 1.5"/>
    <path d="M 383.229102 210.550678 
L 383.229102 207.314357 
" clip-path="url(#pd173674817)" style="fill: none; stroke: #1f77b4; stroke-width: 1.5"/>
    <path d="M 384.969693 208.653045 
L 384.969693 204.909935 
" clip-path="url(#pd173674817)" style="fill: none; stroke: #1f77b4; stroke-width: 1.5"/>
    <path d="M 386.710284 213.630856 
L 386.710284 210.00711 
" clip-path="url(#pd173674817)" style="fill: none; stroke: #1f77b4; stroke-width: 1.5"/>
    <path d="M 388.450875 215.733502 
L 388.450875 212.06072 
" clip-path="url(#pd173674817)" style="fill: none; stroke: #1f77b4; stroke-width: 1.5"/>
    <path d="M 390.191466 209.842128 
L 390.191466 204.895115 
" clip-path="url(#pd173674817)" style="fill: none; stroke: #1f77b4; stroke-width: 1.5"/>
    <path d="M 391.932057 215.687762 
L 391.932057 210.948465 
" clip-path="url(#pd173674817)" style="fill: none; stroke: #1f77b4; stroke-width: 1.5"/>
    <path d="M 393.672648 211.210614 
L 393.672648 203.772814 
" clip-path="url(#pd173674817)" style="fill: none; stroke: #1f77b4; stroke-width: 1.5"/>
    <path d="M 395.413239 216.442197 
L 395.413239 206.405733 
" clip-path="url(#pd173674817)" style="fill: none; stroke: #1f77b4; stroke-width: 1.5"/>
    <path d="M 397.15383 230.404943 
L 397.15383 219.253317 
" clip-path="url(#pd173674817)" style="fill: none; stroke: #1f77b4; stroke-width: 1.5"/>
    <path d="M 398.89442 216.547478 
L 398.89442 138.486092 
" clip-path="url(#pd173674817)" style="fill: none; stroke: #1f77b4; stroke-width: 1.5"/>
   </g>
  </g>
 </g>
 <defs>
  <clipPath id="pd173674817">
   <rect x="34.240625" y="7.2" width="382.93" height="233.83375"/>
  </clipPath>
 </defs>
</svg>
