<?xml version="1.0" encoding="utf-8" standalone="no"?>
<!DOCTYPE svg PUBLIC "-//W3C//DTD SVG 1.1//EN"
  "http://www.w3.org/Graphics/SVG/1.1/DTD/svg11.dtd">
<svg xmlns:xlink="http://www.w3.org/1999/xlink" width="401.690625pt" height="268.200625pt" viewBox="0 0 401.690625 268.200625" xmlns="http://www.w3.org/2000/svg" version="1.1">
 <metadata>
  <rdf:RDF xmlns:dc="http://purl.org/dc/elements/1.1/" xmlns:cc="http://creativecommons.org/ns#" xmlns:rdf="http://www.w3.org/1999/02/22-rdf-syntax-ns#">
   <cc:Work>
    <dc:type rdf:resource="http://purl.org/dc/dcmitype/StillImage"/>
    <dc:date>2026-02-09T14:43:22.820088</dc:date>
    <dc:format>image/svg+xml</dc:format>
    <dc:creator>
     <cc:Agent>
      <dc:title>Matplotlib v3.10.8, https://matplotlib.org/</dc:title>
     </cc:Agent>
    </dc:creator>
   </cc:Work>
  </rdf:RDF>
 </metadata>
 <defs>
  <style type="text/css">*{stroke-linejoin: round; stroke-linecap: butt}</style>
 </defs>
 <g id="figure_1">
  <g id="patch_1">
   <path d="M 0 268.200625 
L 401.690625 268.200625 
L 401.690625 0 
L 0 0 
z
" style="fill: #ffffff"/>
  </g>
  <g id="axes_1">
   <g id="patch_2">
    <path d="M 59.690625 228.96 
L 394.490625 228.96 
L 394.490625 7.2 
L 59.690625 7.2 
z
" style="fill: #ffffff"/>
   </g>
   <g id="matplotlib.axis_1">
    <g id="xtick_1">
     <g id="line2d_1">
      <defs>
       <path id="m478b745bcd" d="M 0 0 
L 0 3.5 
" style="stroke: #000000; stroke-width: 0.8"/>
      </defs>
      <g>
       <use xlink:href="#m478b745bcd" x="67.461326" y="228.96" style="stroke: #000000; stroke-width: 0.8"/>
      </g>
     </g>
     <g id="text_1">
      <!-- 0.25 -->
      <g transform="translate(56.328514 243.558437) scale(0.1 -0.1)">
       <defs>
        <path id="DejaVuSans-30" d="M 2034 4250 
Q 1547 4250 1301 3770 
Q 1056 3291 1056 2328 
Q 1056 1369 1301 889 
Q 1547 409 2034 409 
Q 2525 409 2770 889 
Q 3016 1369 3016 2328 
Q 3016 3291 2770 3770 
Q 2525 4250 2034 4250 
z
M 2034 4750 
Q 2819 4750 3233 4129 
Q 3647 3509 3647 2328 
Q 3647 1150 3233 529 
Q 2819 -91 2034 -91 
Q 1250 -91 836 529 
Q 422 1150 422 2328 
Q 422 3509 836 4129 
Q 1250 4750 2034 4750 
z
" transform="scale(0.015625)"/>
        <path id="DejaVuSans-2e" d="M 684 794 
L 1344 794 
L 1344 0 
L 684 0 
L 684 794 
z
" transform="scale(0.015625)"/>
        <path id="DejaVuSans-32" d="M 1228 531 
L 3431 531 
L 3431 0 
L 469 0 
L 469 531 
Q 828 903 1448 1529 
Q 2069 2156 2228 2338 
Q 2531 2678 2651 2914 
Q 2772 3150 2772 3378 
Q 2772 3750 2511 3984 
Q 2250 4219 1831 4219 
Q 1534 4219 1204 4116 
Q 875 4013 500 3803 
L 500 4441 
Q 881 4594 1212 4672 
Q 1544 4750 1819 4750 
Q 2544 4750 2975 4387 
Q 3406 4025 3406 3419 
Q 3406 3131 3298 2873 
Q 3191 2616 2906 2266 
Q 2828 2175 2409 1742 
Q 1991 1309 1228 531 
z
" transform="scale(0.015625)"/>
        <path id="DejaVuSans-35" d="M 691 4666 
L 3169 4666 
L 3169 4134 
L 1269 4134 
L 1269 2991 
Q 1406 3038 1543 3061 
Q 1681 3084 1819 3084 
Q 2600 3084 3056 2656 
Q 3513 2228 3513 1497 
Q 3513 744 3044 326 
Q 2575 -91 1722 -91 
Q 1428 -91 1123 -41 
Q 819 9 494 109 
L 494 744 
Q 775 591 1075 516 
Q 1375 441 1709 441 
Q 2250 441 2565 725 
Q 2881 1009 2881 1497 
Q 2881 1984 2565 2268 
Q 2250 2553 1709 2553 
Q 1456 2553 1204 2497 
Q 953 2441 691 2322 
L 691 4666 
z
" transform="scale(0.015625)"/>
       </defs>
       <use xlink:href="#DejaVuSans-30"/>
       <use xlink:href="#DejaVuSans-2e" transform="translate(63.623047 0)"/>
       <use xlink:href="#DejaVuSans-32" transform="translate(95.410156 0)"/>
       <use xlink:href="#DejaVuSans-35" transform="translate(159.033203 0)"/>
      </g>
     </g>
    </g>
    <g id="xtick_2">
     <g id="line2d_2">
      <g>
       <use xlink:href="#m478b745bcd" x="104.698729" y="228.96" style="stroke: #000000; stroke-width: 0.8"/>
      </g>
     </g>
     <g id="text_2">
      <!-- 0.50 -->
      <g transform="translate(93.565917 243.558437) scale(0.1 -0.1)">
       <use xlink:href="#DejaVuSans-30"/>
       <use xlink:href="#DejaVuSans-2e" transform="translate(63.623047 0)"/>
       <use xlink:href="#DejaVuSans-35" transform="translate(95.410156 0)"/>
       <use xlink:href="#DejaVuSans-30" transform="translate(159.033203 0)"/>
      </g>
     </g>
    </g>
    <g id="xtick_3">
     <g id="line2d_3">
      <g>
       <use xlink:href="#m478b745bcd" x="141.936132" y="228.96" style="stroke: #000000; stroke-width: 0.8"/>
      </g>
     </g>
     <g id="text_3">
      <!-- 0.75 -->
      <g transform="translate(130.80332 243.558437) scale(0.1 -0.1)">
       <defs>
        <path id="DejaVuSans-37" d="M 525 4666 
L 3525 4666 
L 3525 4397 
L 1831 0 
L 1172 0 
L 2766 4134 
L 525 4134 
L 525 4666 
z
" transform="scale(0.015625)"/>
       </defs>
       <use xlink:href="#DejaVuSans-30"/>
       <use xlink:href="#DejaVuSans-2e" transform="translate(63.623047 0)"/>
       <use xlink:href="#DejaVuSans-37" transform="translate(95.410156 0)"/>
       <use xlink:href="#DejaVuSans-35" transform="translate(159.033203 0)"/>
      </g>
     </g>
    </g>
    <g id="xtick_4">
     <g id="line2d_4">
      <g>
       <use xlink:href="#m478b745bcd" x="179.173535" y="228.96" style="stroke: #000000; stroke-width: 0.8"/>
      </g>
     </g>
     <g id="text_4">
      <!-- 1.00 -->
      <g transform="translate(168.040722 243.558437) scale(0.1 -0.1)">
       <defs>
        <path id="DejaVuSans-31" d="M 794 531 
L 1825 531 
L 1825 4091 
L 703 3866 
L 703 4441 
L 1819 4666 
L 2450 4666 
L 2450 531 
L 3481 531 
L 3481 0 
L 794 0 
L 794 531 
z
" transform="scale(0.015625)"/>
       </defs>
       <use xlink:href="#DejaVuSans-31"/>
       <use xlink:href="#DejaVuSans-2e" transform="translate(63.623047 0)"/>
       <use xlink:href="#DejaVuSans-30" transform="translate(95.410156 0)"/>
       <use xlink:href="#DejaVuSans-30" transform="translate(159.033203 0)"/>
      </g>
     </g>
    </g>
    <g id="xtick_5">
     <g id="line2d_5">
      <g>
       <use xlink:href="#m478b745bcd" x="216.410938" y="228.96" style="stroke: #000000; stroke-width: 0.8"/>
      </g>
     </g>
     <g id="text_5">
      <!-- 1.25 -->
      <g transform="translate(205.278125 243.558437) scale(0.1 -0.1)">
       <use xlink:href="#DejaVuSans-31"/>
       <use xlink:href="#DejaVuSans-2e" transform="translate(63.623047 0)"/>
       <use xlink:href="#DejaVuSans-32" transform="translate(95.410156 0)"/>
       <use xlink:href="#DejaVuSans-35" transform="translate(159.033203 0)"/>
      </g>
     </g>
    </g>
    <g id="xtick_6">
     <g id="line2d_6">
      <g>
       <use xlink:href="#m478b745bcd" x="253.648341" y="228.96" style="stroke: #000000; stroke-width: 0.8"/>
      </g>
     </g>
     <g id="text_6">
      <!-- 1.50 -->
      <g transform="translate(242.515528 243.558437) scale(0.1 -0.1)">
       <use xlink:href="#DejaVuSans-31"/>
       <use xlink:href="#DejaVuSans-2e" transform="translate(63.623047 0)"/>
       <use xlink:href="#DejaVuSans-35" transform="translate(95.410156 0)"/>
       <use xlink:href="#DejaVuSans-30" transform="translate(159.033203 0)"/>
      </g>
     </g>
    </g>
    <g id="xtick_7">
     <g id="line2d_7">
      <g>
       <use xlink:href="#m478b745bcd" x="290.885744" y="228.96" style="stroke: #000000; stroke-width: 0.8"/>
      </g>
     </g>
     <g id="text_7">
      <!-- 1.75 -->
      <g transform="translate(279.752931 243.558437) scale(0.1 -0.1)">
       <use xlink:href="#DejaVuSans-31"/>
       <use xlink:href="#DejaVuSans-2e" transform="translate(63.623047 0)"/>
       <use xlink:href="#DejaVuSans-37" transform="translate(95.410156 0)"/>
       <use xlink:href="#DejaVuSans-35" transform="translate(159.033203 0)"/>
      </g>
     </g>
    </g>
    <g id="xtick_8">
     <g id="line2d_8">
      <g>
       <use xlink:href="#m478b745bcd" x="328.123147" y="228.96" style="stroke: #000000; stroke-width: 0.8"/>
      </g>
     </g>
     <g id="text_8">
      <!-- 2.00 -->
      <g transform="translate(316.990334 243.558437) scale(0.1 -0.1)">
       <use xlink:href="#DejaVuSans-32"/>
       <use xlink:href="#DejaVuSans-2e" transform="translate(63.623047 0)"/>
       <use xlink:href="#DejaVuSans-30" transform="translate(95.410156 0)"/>
       <use xlink:href="#DejaVuSans-30" transform="translate(159.033203 0)"/>
      </g>
     </g>
    </g>
    <g id="xtick_9">
     <g id="line2d_9">
      <g>
       <use xlink:href="#m478b745bcd" x="365.360549" y="228.96" style="stroke: #000000; stroke-width: 0.8"/>
      </g>
     </g>
     <g id="text_9">
      <!-- 2.25 -->
      <g transform="translate(354.227737 243.558437) scale(0.1 -0.1)">
       <use xlink:href="#DejaVuSans-32"/>
       <use xlink:href="#DejaVuSans-2e" transform="translate(63.623047 0)"/>
       <use xlink:href="#DejaVuSans-32" transform="translate(95.410156 0)"/>
       <use xlink:href="#DejaVuSans-35" transform="translate(159.033203 0)"/>
      </g>
     </g>
    </g>
    <g id="text_10">
     <!-- dspacing [Å] -->
     <g transform="translate(195.68125 258.920937) scale(0.1 -0.1)">
      <defs>
       <path id="DejaVuSans-64" d="M 2906 2969 
L 2906 4863 
L 3481 4863 
L 3481 0 
L 2906 0 
L 2906 525 
Q 2725 213 2448 61 
Q 2172 -91 1784 -91 
Q 1150 -91 751 415 
Q 353 922 353 1747 
Q 353 2572 751 3078 
Q 1150 3584 1784 3584 
Q 2172 3584 2448 3432 
Q 2725 3281 2906 2969 
z
M 947 1747 
Q 947 1113 1208 752 
Q 1469 391 1925 391 
Q 2381 391 2643 752 
Q 2906 1113 2906 1747 
Q 2906 2381 2643 2742 
Q 2381 3103 1925 3103 
Q 1469 3103 1208 2742 
Q 947 2381 947 1747 
z
" transform="scale(0.015625)"/>
       <path id="DejaVuSans-73" d="M 2834 3397 
L 2834 2853 
Q 2591 2978 2328 3040 
Q 2066 3103 1784 3103 
Q 1356 3103 1142 2972 
Q 928 2841 928 2578 
Q 928 2378 1081 2264 
Q 1234 2150 1697 2047 
L 1894 2003 
Q 2506 1872 2764 1633 
Q 3022 1394 3022 966 
Q 3022 478 2636 193 
Q 2250 -91 1575 -91 
Q 1294 -91 989 -36 
Q 684 19 347 128 
L 347 722 
Q 666 556 975 473 
Q 1284 391 1588 391 
Q 1994 391 2212 530 
Q 2431 669 2431 922 
Q 2431 1156 2273 1281 
Q 2116 1406 1581 1522 
L 1381 1569 
Q 847 1681 609 1914 
Q 372 2147 372 2553 
Q 372 3047 722 3315 
Q 1072 3584 1716 3584 
Q 2034 3584 2315 3537 
Q 2597 3491 2834 3397 
z
" transform="scale(0.015625)"/>
       <path id="DejaVuSans-70" d="M 1159 525 
L 1159 -1331 
L 581 -1331 
L 581 3500 
L 1159 3500 
L 1159 2969 
Q 1341 3281 1617 3432 
Q 1894 3584 2278 3584 
Q 2916 3584 3314 3078 
Q 3713 2572 3713 1747 
Q 3713 922 3314 415 
Q 2916 -91 2278 -91 
Q 1894 -91 1617 61 
Q 1341 213 1159 525 
z
M 3116 1747 
Q 3116 2381 2855 2742 
Q 2594 3103 2138 3103 
Q 1681 3103 1420 2742 
Q 1159 2381 1159 1747 
Q 1159 1113 1420 752 
Q 1681 391 2138 391 
Q 2594 391 2855 752 
Q 3116 1113 3116 1747 
z
" transform="scale(0.015625)"/>
       <path id="DejaVuSans-61" d="M 2194 1759 
Q 1497 1759 1228 1600 
Q 959 1441 959 1056 
Q 959 750 1161 570 
Q 1363 391 1709 391 
Q 2188 391 2477 730 
Q 2766 1069 2766 1631 
L 2766 1759 
L 2194 1759 
z
M 3341 1997 
L 3341 0 
L 2766 0 
L 2766 531 
Q 2569 213 2275 61 
Q 1981 -91 1556 -91 
Q 1019 -91 701 211 
Q 384 513 384 1019 
Q 384 1609 779 1909 
Q 1175 2209 1959 2209 
L 2766 2209 
L 2766 2266 
Q 2766 2663 2505 2880 
Q 2244 3097 1772 3097 
Q 1472 3097 1187 3025 
Q 903 2953 641 2809 
L 641 3341 
Q 956 3463 1253 3523 
Q 1550 3584 1831 3584 
Q 2591 3584 2966 3190 
Q 3341 2797 3341 1997 
z
" transform="scale(0.015625)"/>
       <path id="DejaVuSans-63" d="M 3122 3366 
L 3122 2828 
Q 2878 2963 2633 3030 
Q 2388 3097 2138 3097 
Q 1578 3097 1268 2742 
Q 959 2388 959 1747 
Q 959 1106 1268 751 
Q 1578 397 2138 397 
Q 2388 397 2633 464 
Q 2878 531 3122 666 
L 3122 134 
Q 2881 22 2623 -34 
Q 2366 -91 2075 -91 
Q 1284 -91 818 406 
Q 353 903 353 1747 
Q 353 2603 823 3093 
Q 1294 3584 2113 3584 
Q 2378 3584 2631 3529 
Q 2884 3475 3122 3366 
z
" transform="scale(0.015625)"/>
       <path id="DejaVuSans-69" d="M 603 3500 
L 1178 3500 
L 1178 0 
L 603 0 
L 603 3500 
z
M 603 4863 
L 1178 4863 
L 1178 4134 
L 603 4134 
L 603 4863 
z
" transform="scale(0.015625)"/>
       <path id="DejaVuSans-6e" d="M 3513 2113 
L 3513 0 
L 2938 0 
L 2938 2094 
Q 2938 2591 2744 2837 
Q 2550 3084 2163 3084 
Q 1697 3084 1428 2787 
Q 1159 2491 1159 1978 
L 1159 0 
L 581 0 
L 581 3500 
L 1159 3500 
L 1159 2956 
Q 1366 3272 1645 3428 
Q 1925 3584 2291 3584 
Q 2894 3584 3203 3211 
Q 3513 2838 3513 2113 
z
" transform="scale(0.015625)"/>
       <path id="DejaVuSans-67" d="M 2906 1791 
Q 2906 2416 2648 2759 
Q 2391 3103 1925 3103 
Q 1463 3103 1205 2759 
Q 947 2416 947 1791 
Q 947 1169 1205 825 
Q 1463 481 1925 481 
Q 2391 481 2648 825 
Q 2906 1169 2906 1791 
z
M 3481 434 
Q 3481 -459 3084 -895 
Q 2688 -1331 1869 -1331 
Q 1566 -1331 1297 -1286 
Q 1028 -1241 775 -1147 
L 775 -588 
Q 1028 -725 1275 -790 
Q 1522 -856 1778 -856 
Q 2344 -856 2625 -561 
Q 2906 -266 2906 331 
L 2906 616 
Q 2728 306 2450 153 
Q 2172 0 1784 0 
Q 1141 0 747 490 
Q 353 981 353 1791 
Q 353 2603 747 3093 
Q 1141 3584 1784 3584 
Q 2172 3584 2450 3431 
Q 2728 3278 2906 2969 
L 2906 3500 
L 3481 3500 
L 3481 434 
z
" transform="scale(0.015625)"/>
       <path id="DejaVuSans-20" transform="scale(0.015625)"/>
       <path id="DejaVuSans-5b" d="M 550 4863 
L 1875 4863 
L 1875 4416 
L 1125 4416 
L 1125 -397 
L 1875 -397 
L 1875 -844 
L 550 -844 
L 550 4863 
z
" transform="scale(0.015625)"/>
       <path id="DejaVuSans-c5" d="M 2663 5081 
Q 2663 5278 2523 5417 
Q 2384 5556 2188 5556 
Q 1988 5556 1852 5420 
Q 1716 5284 1716 5081 
Q 1716 4884 1853 4746 
Q 1991 4609 2188 4609 
Q 2384 4609 2523 4746 
Q 2663 4884 2663 5081 
z
M 2188 4044 
L 1338 1722 
L 3041 1722 
L 2188 4044 
z
M 1716 4366 
Q 1525 4494 1428 4673 
Q 1331 4853 1331 5081 
Q 1331 5441 1579 5691 
Q 1828 5941 2188 5941 
Q 2544 5941 2795 5689 
Q 3047 5438 3047 5081 
Q 3047 4863 2948 4678 
Q 2850 4494 2663 4366 
L 4325 0 
L 3669 0 
L 3244 1197 
L 1141 1197 
L 716 0 
L 50 0 
L 1716 4366 
z
" transform="scale(0.015625)"/>
       <path id="DejaVuSans-5d" d="M 1947 4863 
L 1947 -844 
L 622 -844 
L 622 -397 
L 1369 -397 
L 1369 4416 
L 622 4416 
L 622 4863 
L 1947 4863 
z
" transform="scale(0.015625)"/>
      </defs>
      <use xlink:href="#DejaVuSans-64"/>
      <use xlink:href="#DejaVuSans-73" transform="translate(63.476562 0)"/>
      <use xlink:href="#DejaVuSans-70" transform="translate(115.576172 0)"/>
      <use xlink:href="#DejaVuSans-61" transform="translate(179.052734 0)"/>
      <use xlink:href="#DejaVuSans-63" transform="translate(240.332031 0)"/>
      <use xlink:href="#DejaVuSans-69" transform="translate(295.3125 0)"/>
      <use xlink:href="#DejaVuSans-6e" transform="translate(323.095703 0)"/>
      <use xlink:href="#DejaVuSans-67" transform="translate(386.474609 0)"/>
      <use xlink:href="#DejaVuSans-20" transform="translate(449.951172 0)"/>
      <use xlink:href="#DejaVuSans-5b" transform="translate(481.738281 0)"/>
      <use xlink:href="#DejaVuSans-c5" transform="translate(520.751953 0)"/>
      <use xlink:href="#DejaVuSans-5d" transform="translate(589.160156 0)"/>
     </g>
    </g>
   </g>
   <g id="matplotlib.axis_2">
    <g id="ytick_1">
     <g id="line2d_10">
      <defs>
       <path id="m969667918b" d="M 0 0 
L -3.5 0 
" style="stroke: #000000; stroke-width: 0.8"/>
      </defs>
      <g>
       <use xlink:href="#m969667918b" x="59.690625" y="217.265507" style="stroke: #000000; stroke-width: 0.8"/>
      </g>
     </g>
     <g id="text_11">
      <!-- 0 -->
      <g transform="translate(46.328125 221.064726) scale(0.1 -0.1)">
       <use xlink:href="#DejaVuSans-30"/>
      </g>
     </g>
    </g>
    <g id="ytick_2">
     <g id="line2d_11">
      <g>
       <use xlink:href="#m969667918b" x="59.690625" y="192.484762" style="stroke: #000000; stroke-width: 0.8"/>
      </g>
     </g>
     <g id="text_12">
      <!-- 2000 -->
      <g transform="translate(27.240625 196.283981) scale(0.1 -0.1)">
       <use xlink:href="#DejaVuSans-32"/>
       <use xlink:href="#DejaVuSans-30" transform="translate(63.623047 0)"/>
       <use xlink:href="#DejaVuSans-30" transform="translate(127.246094 0)"/>
       <use xlink:href="#DejaVuSans-30" transform="translate(190.869141 0)"/>
      </g>
     </g>
    </g>
    <g id="ytick_3">
     <g id="line2d_12">
      <g>
       <use xlink:href="#m969667918b" x="59.690625" y="167.704017" style="stroke: #000000; stroke-width: 0.8"/>
      </g>
     </g>
     <g id="text_13">
      <!-- 4000 -->
      <g transform="translate(27.240625 171.503236) scale(0.1 -0.1)">
       <defs>
        <path id="DejaVuSans-34" d="M 2419 4116 
L 825 1625 
L 2419 1625 
L 2419 4116 
z
M 2253 4666 
L 3047 4666 
L 3047 1625 
L 3713 1625 
L 3713 1100 
L 3047 1100 
L 3047 0 
L 2419 0 
L 2419 1100 
L 313 1100 
L 313 1709 
L 2253 4666 
z
" transform="scale(0.015625)"/>
       </defs>
       <use xlink:href="#DejaVuSans-34"/>
       <use xlink:href="#DejaVuSans-30" transform="translate(63.623047 0)"/>
       <use xlink:href="#DejaVuSans-30" transform="translate(127.246094 0)"/>
       <use xlink:href="#DejaVuSans-30" transform="translate(190.869141 0)"/>
      </g>
     </g>
    </g>
    <g id="ytick_4">
     <g id="line2d_13">
      <g>
       <use xlink:href="#m969667918b" x="59.690625" y="142.923272" style="stroke: #000000; stroke-width: 0.8"/>
      </g>
     </g>
     <g id="text_14">
      <!-- 6000 -->
      <g transform="translate(27.240625 146.722491) scale(0.1 -0.1)">
       <defs>
        <path id="DejaVuSans-36" d="M 2113 2584 
Q 1688 2584 1439 2293 
Q 1191 2003 1191 1497 
Q 1191 994 1439 701 
Q 1688 409 2113 409 
Q 2538 409 2786 701 
Q 3034 994 3034 1497 
Q 3034 2003 2786 2293 
Q 2538 2584 2113 2584 
z
M 3366 4563 
L 3366 3988 
Q 3128 4100 2886 4159 
Q 2644 4219 2406 4219 
Q 1781 4219 1451 3797 
Q 1122 3375 1075 2522 
Q 1259 2794 1537 2939 
Q 1816 3084 2150 3084 
Q 2853 3084 3261 2657 
Q 3669 2231 3669 1497 
Q 3669 778 3244 343 
Q 2819 -91 2113 -91 
Q 1303 -91 875 529 
Q 447 1150 447 2328 
Q 447 3434 972 4092 
Q 1497 4750 2381 4750 
Q 2619 4750 2861 4703 
Q 3103 4656 3366 4563 
z
" transform="scale(0.015625)"/>
       </defs>
       <use xlink:href="#DejaVuSans-36"/>
       <use xlink:href="#DejaVuSans-30" transform="translate(63.623047 0)"/>
       <use xlink:href="#DejaVuSans-30" transform="translate(127.246094 0)"/>
       <use xlink:href="#DejaVuSans-30" transform="translate(190.869141 0)"/>
      </g>
     </g>
    </g>
    <g id="ytick_5">
     <g id="line2d_14">
      <g>
       <use xlink:href="#m969667918b" x="59.690625" y="118.142527" style="stroke: #000000; stroke-width: 0.8"/>
      </g>
     </g>
     <g id="text_15">
      <!-- 8000 -->
      <g transform="translate(27.240625 121.941746) scale(0.1 -0.1)">
       <defs>
        <path id="DejaVuSans-38" d="M 2034 2216 
Q 1584 2216 1326 1975 
Q 1069 1734 1069 1313 
Q 1069 891 1326 650 
Q 1584 409 2034 409 
Q 2484 409 2743 651 
Q 3003 894 3003 1313 
Q 3003 1734 2745 1975 
Q 2488 2216 2034 2216 
z
M 1403 2484 
Q 997 2584 770 2862 
Q 544 3141 544 3541 
Q 544 4100 942 4425 
Q 1341 4750 2034 4750 
Q 2731 4750 3128 4425 
Q 3525 4100 3525 3541 
Q 3525 3141 3298 2862 
Q 3072 2584 2669 2484 
Q 3125 2378 3379 2068 
Q 3634 1759 3634 1313 
Q 3634 634 3220 271 
Q 2806 -91 2034 -91 
Q 1263 -91 848 271 
Q 434 634 434 1313 
Q 434 1759 690 2068 
Q 947 2378 1403 2484 
z
M 1172 3481 
Q 1172 3119 1398 2916 
Q 1625 2713 2034 2713 
Q 2441 2713 2670 2916 
Q 2900 3119 2900 3481 
Q 2900 3844 2670 4047 
Q 2441 4250 2034 4250 
Q 1625 4250 1398 4047 
Q 1172 3844 1172 3481 
z
" transform="scale(0.015625)"/>
       </defs>
       <use xlink:href="#DejaVuSans-38"/>
       <use xlink:href="#DejaVuSans-30" transform="translate(63.623047 0)"/>
       <use xlink:href="#DejaVuSans-30" transform="translate(127.246094 0)"/>
       <use xlink:href="#DejaVuSans-30" transform="translate(190.869141 0)"/>
      </g>
     </g>
    </g>
    <g id="ytick_6">
     <g id="line2d_15">
      <g>
       <use xlink:href="#m969667918b" x="59.690625" y="93.361783" style="stroke: #000000; stroke-width: 0.8"/>
      </g>
     </g>
     <g id="text_16">
      <!-- 10000 -->
      <g transform="translate(20.878125 97.161001) scale(0.1 -0.1)">
       <use xlink:href="#DejaVuSans-31"/>
       <use xlink:href="#DejaVuSans-30" transform="translate(63.623047 0)"/>
       <use xlink:href="#DejaVuSans-30" transform="translate(127.246094 0)"/>
       <use xlink:href="#DejaVuSans-30" transform="translate(190.869141 0)"/>
       <use xlink:href="#DejaVuSans-30" transform="translate(254.492188 0)"/>
      </g>
     </g>
    </g>
    <g id="ytick_7">
     <g id="line2d_16">
      <g>
       <use xlink:href="#m969667918b" x="59.690625" y="68.581038" style="stroke: #000000; stroke-width: 0.8"/>
      </g>
     </g>
     <g id="text_17">
      <!-- 12000 -->
      <g transform="translate(20.878125 72.380256) scale(0.1 -0.1)">
       <use xlink:href="#DejaVuSans-31"/>
       <use xlink:href="#DejaVuSans-32" transform="translate(63.623047 0)"/>
       <use xlink:href="#DejaVuSans-30" transform="translate(127.246094 0)"/>
       <use xlink:href="#DejaVuSans-30" transform="translate(190.869141 0)"/>
       <use xlink:href="#DejaVuSans-30" transform="translate(254.492188 0)"/>
      </g>
     </g>
    </g>
    <g id="ytick_8">
     <g id="line2d_17">
      <g>
       <use xlink:href="#m969667918b" x="59.690625" y="43.800293" style="stroke: #000000; stroke-width: 0.8"/>
      </g>
     </g>
     <g id="text_18">
      <!-- 14000 -->
      <g transform="translate(20.878125 47.599512) scale(0.1 -0.1)">
       <use xlink:href="#DejaVuSans-31"/>
       <use xlink:href="#DejaVuSans-34" transform="translate(63.623047 0)"/>
       <use xlink:href="#DejaVuSans-30" transform="translate(127.246094 0)"/>
       <use xlink:href="#DejaVuSans-30" transform="translate(190.869141 0)"/>
       <use xlink:href="#DejaVuSans-30" transform="translate(254.492188 0)"/>
      </g>
     </g>
    </g>
    <g id="ytick_9">
     <g id="line2d_18">
      <g>
       <use xlink:href="#m969667918b" x="59.690625" y="19.019548" style="stroke: #000000; stroke-width: 0.8"/>
      </g>
     </g>
     <g id="text_19">
      <!-- 16000 -->
      <g transform="translate(20.878125 22.818767) scale(0.1 -0.1)">
       <use xlink:href="#DejaVuSans-31"/>
       <use xlink:href="#DejaVuSans-36" transform="translate(63.623047 0)"/>
       <use xlink:href="#DejaVuSans-30" transform="translate(127.246094 0)"/>
       <use xlink:href="#DejaVuSans-30" transform="translate(190.869141 0)"/>
       <use xlink:href="#DejaVuSans-30" transform="translate(254.492188 0)"/>
      </g>
     </g>
    </g>
    <g id="text_20">
     <!-- [dimensionless] -->
     <g transform="translate(14.798438 157.557344) rotate(-90) scale(0.1 -0.1)">
      <defs>
       <path id="DejaVuSans-6d" d="M 3328 2828 
Q 3544 3216 3844 3400 
Q 4144 3584 4550 3584 
Q 5097 3584 5394 3201 
Q 5691 2819 5691 2113 
L 5691 0 
L 5113 0 
L 5113 2094 
Q 5113 2597 4934 2840 
Q 4756 3084 4391 3084 
Q 3944 3084 3684 2787 
Q 3425 2491 3425 1978 
L 3425 0 
L 2847 0 
L 2847 2094 
Q 2847 2600 2669 2842 
Q 2491 3084 2119 3084 
Q 1678 3084 1418 2786 
Q 1159 2488 1159 1978 
L 1159 0 
L 581 0 
L 581 3500 
L 1159 3500 
L 1159 2956 
Q 1356 3278 1631 3431 
Q 1906 3584 2284 3584 
Q 2666 3584 2933 3390 
Q 3200 3197 3328 2828 
z
" transform="scale(0.015625)"/>
       <path id="DejaVuSans-65" d="M 3597 1894 
L 3597 1613 
L 953 1613 
Q 991 1019 1311 708 
Q 1631 397 2203 397 
Q 2534 397 2845 478 
Q 3156 559 3463 722 
L 3463 178 
Q 3153 47 2828 -22 
Q 2503 -91 2169 -91 
Q 1331 -91 842 396 
Q 353 884 353 1716 
Q 353 2575 817 3079 
Q 1281 3584 2069 3584 
Q 2775 3584 3186 3129 
Q 3597 2675 3597 1894 
z
M 3022 2063 
Q 3016 2534 2758 2815 
Q 2500 3097 2075 3097 
Q 1594 3097 1305 2825 
Q 1016 2553 972 2059 
L 3022 2063 
z
" transform="scale(0.015625)"/>
       <path id="DejaVuSans-6f" d="M 1959 3097 
Q 1497 3097 1228 2736 
Q 959 2375 959 1747 
Q 959 1119 1226 758 
Q 1494 397 1959 397 
Q 2419 397 2687 759 
Q 2956 1122 2956 1747 
Q 2956 2369 2687 2733 
Q 2419 3097 1959 3097 
z
M 1959 3584 
Q 2709 3584 3137 3096 
Q 3566 2609 3566 1747 
Q 3566 888 3137 398 
Q 2709 -91 1959 -91 
Q 1206 -91 779 398 
Q 353 888 353 1747 
Q 353 2609 779 3096 
Q 1206 3584 1959 3584 
z
" transform="scale(0.015625)"/>
       <path id="DejaVuSans-6c" d="M 603 4863 
L 1178 4863 
L 1178 0 
L 603 0 
L 603 4863 
z
" transform="scale(0.015625)"/>
      </defs>
      <use xlink:href="#DejaVuSans-5b"/>
      <use xlink:href="#DejaVuSans-64" transform="translate(39.013672 0)"/>
      <use xlink:href="#DejaVuSans-69" transform="translate(102.490234 0)"/>
      <use xlink:href="#DejaVuSans-6d" transform="translate(130.273438 0)"/>
      <use xlink:href="#DejaVuSans-65" transform="translate(227.685547 0)"/>
      <use xlink:href="#DejaVuSans-6e" transform="translate(289.208984 0)"/>
      <use xlink:href="#DejaVuSans-73" transform="translate(352.587891 0)"/>
      <use xlink:href="#DejaVuSans-69" transform="translate(404.6875 0)"/>
      <use xlink:href="#DejaVuSans-6f" transform="translate(432.470703 0)"/>
      <use xlink:href="#DejaVuSans-6e" transform="translate(493.652344 0)"/>
      <use xlink:href="#DejaVuSans-6c" transform="translate(557.03125 0)"/>
      <use xlink:href="#DejaVuSans-65" transform="translate(584.814453 0)"/>
      <use xlink:href="#DejaVuSans-73" transform="translate(646.337891 0)"/>
      <use xlink:href="#DejaVuSans-73" transform="translate(698.4375 0)"/>
      <use xlink:href="#DejaVuSans-5d" transform="translate(750.537109 0)"/>
     </g>
    </g>
   </g>
   <g id="line2d_19">
    <path d="M 74.908807 217.643491 
L 76.430625 217.643491 
L 76.430625 218.085304 
L 80.99608 218.119196 
L 80.99608 218.376378 
L 82.517898 218.376378 
L 82.517898 218.187094 
L 84.039716 218.187094 
L 84.039716 218.045615 
L 85.561534 218.045615 
L 85.561534 218.222837 
L 87.083352 218.222837 
L 87.083352 218.051517 
L 88.60517 218.051517 
L 88.60517 218.223124 
L 93.170625 218.284615 
L 93.170625 217.808405 
L 97.73608 217.7342 
L 97.73608 217.510098 
L 99.257898 217.510098 
L 99.257898 217.632064 
L 102.301534 217.59803 
L 102.301534 217.443063 
L 103.823352 217.443063 
L 103.823352 217.132269 
L 105.34517 217.132269 
L 105.34517 211.602048 
L 106.866989 211.602048 
L 106.866989 210.235986 
L 108.388807 210.235986 
L 108.388807 210.710602 
L 109.910625 210.710602 
L 109.910625 202.444879 
L 111.432443 202.444879 
L 111.432443 207.551035 
L 112.954261 207.551035 
L 112.954261 215.925367 
L 114.47608 215.925367 
L 114.47608 217.091639 
L 117.519716 217.060867 
L 117.519716 214.282211 
L 119.041534 214.282211 
L 119.041534 205.778924 
L 120.563352 205.778924 
L 120.563352 209.425039 
L 123.606989 209.428408 
L 123.606989 202.168954 
L 125.128807 202.168954 
L 125.128807 210.257087 
L 126.650625 210.257087 
L 126.650625 216.036854 
L 128.172443 216.036854 
L 128.172443 216.368842 
L 129.694261 216.368842 
L 129.694261 210.964399 
L 131.21608 210.964399 
L 131.21608 189.659984 
L 132.737898 189.659984 
L 132.737898 193.284294 
L 134.259716 193.284294 
L 134.259716 211.656777 
L 135.781534 211.656777 
L 135.781534 215.757053 
L 137.303352 215.757053 
L 137.303352 216.712076 
L 138.82517 216.712076 
L 138.82517 215.865784 
L 140.346989 215.865784 
L 140.346989 216.362895 
L 141.868807 216.362895 
L 141.868807 216.122272 
L 143.390625 216.122272 
L 143.390625 215.820813 
L 144.912443 215.820813 
L 144.912443 216.175142 
L 147.95608 216.186757 
L 147.95608 215.822685 
L 149.477898 215.822685 
L 149.477898 208.400355 
L 150.999716 208.400355 
L 150.999716 192.708554 
L 152.521534 192.708554 
L 152.521534 197.472631 
L 154.043352 197.472631 
L 154.043352 212.937541 
L 155.56517 212.937541 
L 155.56517 215.847435 
L 157.086989 215.847435 
L 157.086989 216.179802 
L 160.130625 216.272662 
L 160.130625 210.694971 
L 161.652443 210.694971 
L 161.652443 189.250968 
L 163.174261 189.250968 
L 163.174261 187.947265 
L 164.69608 187.947265 
L 164.69608 210.356725 
L 166.217898 210.356725 
L 166.217898 215.331174 
L 167.739716 215.331174 
L 167.739716 216.087925 
L 170.783352 216.178146 
L 170.783352 216.305702 
L 172.30517 216.305702 
L 172.30517 216.693388 
L 175.348807 216.784246 
L 175.348807 216.535276 
L 179.914261 216.571675 
L 179.914261 213.386438 
L 181.43608 213.386438 
L 181.43608 190.628714 
L 182.957898 190.628714 
L 182.957898 167.127527 
L 184.479716 167.127527 
L 184.479716 193.991634 
L 186.001534 193.991634 
L 186.001534 211.915281 
L 187.523352 211.915281 
L 187.523352 204.842189 
L 189.04517 204.842189 
L 189.04517 172.695744 
L 190.566989 172.695744 
L 190.566989 174.679014 
L 192.088807 174.679014 
L 192.088807 208.24383 
L 193.610625 208.24383 
L 193.610625 214.806116 
L 195.132443 214.806116 
L 195.132443 214.070098 
L 196.654261 214.070098 
L 196.654261 215.362586 
L 198.17608 215.362586 
L 198.17608 217.688017 
L 199.697898 217.688017 
L 199.697898 217.950729 
L 201.219716 217.950729 
L 201.219716 214.342024 
L 202.741534 214.342024 
L 202.741534 211.400747 
L 204.263352 211.400747 
L 204.263352 217.505046 
L 205.78517 217.505046 
L 205.78517 218.09263 
L 207.306989 218.09263 
L 207.306989 218.218283 
L 208.828807 218.218283 
L 208.828807 218.364899 
L 210.350625 218.364899 
L 210.350625 218.757905 
L 211.872443 218.757905 
L 211.872443 218.386056 
L 216.437898 218.479283 
L 216.437898 218.233346 
L 217.959716 218.233346 
L 217.959716 218.462406 
L 219.481534 218.462406 
L 219.481534 218.29248 
L 222.52517 218.226527 
L 222.52517 217.95877 
L 224.046989 217.95877 
L 224.046989 217.661246 
L 225.568807 217.661246 
L 225.568807 217.269692 
L 227.090625 217.269692 
L 227.090625 217.0624 
L 228.612443 217.0624 
L 228.612443 216.766014 
L 231.65608 216.763859 
L 231.65608 216.317135 
L 233.177898 216.317135 
L 233.177898 215.981049 
L 236.221534 215.992924 
L 236.221534 215.70765 
L 237.743352 215.70765 
L 237.743352 215.56588 
L 239.26517 215.56588 
L 239.26517 215.049905 
L 242.308807 215.001799 
L 242.308807 214.750446 
L 243.830625 214.750446 
L 243.830625 214.376709 
L 245.352443 214.376709 
L 245.352443 213.817671 
L 246.874261 213.817671 
L 246.874261 214.806342 
L 248.39608 214.806342 
L 248.39608 213.949568 
L 249.917898 213.949568 
L 249.917898 214.464247 
L 251.439716 214.464247 
L 251.439716 214.937351 
L 252.961534 214.937351 
L 252.961534 215.145455 
L 254.483352 215.145455 
L 254.483352 215.688757 
L 256.00517 215.688757 
L 256.00517 215.952185 
L 259.048807 215.868437 
L 259.048807 215.752378 
L 260.570625 215.752378 
L 260.570625 215.632091 
L 262.092443 215.632091 
L 262.092443 216.171805 
L 263.614261 216.171805 
L 263.614261 215.996125 
L 265.13608 215.996125 
L 265.13608 216.298975 
L 268.179716 216.394883 
L 268.179716 216.607787 
L 269.701534 216.607787 
L 269.701534 216.494491 
L 274.266989 216.460726 
L 274.266989 216.615945 
L 275.788807 216.615945 
L 275.788807 216.81504 
L 280.354261 216.785703 
L 280.354261 216.574433 
L 286.441534 216.531505 
L 286.441534 216.783117 
L 292.528807 216.685806 
L 292.528807 216.516064 
L 294.050625 216.516064 
L 294.050625 216.809744 
L 297.094261 216.841471 
L 297.094261 217.009259 
L 298.61608 217.009259 
L 298.61608 217.215687 
L 301.659716 217.151104 
L 301.659716 216.916301 
L 304.703352 216.818637 
L 304.703352 216.794681 
L 307.746989 216.777757 
L 307.746989 216.567084 
L 309.268807 216.567084 
L 309.268807 216.884014 
L 310.790625 216.884014 
L 310.790625 216.708652 
L 312.312443 216.708652 
L 312.312443 216.53441 
L 315.35608 216.616423 
L 315.35608 216.78202 
L 316.877898 216.78202 
L 316.877898 216.3311 
L 321.443352 216.26206 
L 321.443352 216.611515 
L 322.96517 216.611515 
L 322.96517 216.216656 
L 324.486989 216.216656 
L 324.486989 215.220466 
L 327.530625 215.11671 
L 327.530625 213.734394 
L 329.052443 213.734394 
L 329.052443 211.220014 
L 330.574261 211.220014 
L 330.574261 205.962751 
L 332.09608 205.962751 
L 332.09608 194.11641 
L 333.617898 194.11641 
L 333.617898 153.034411 
L 335.139716 153.034411 
L 335.139716 28.633594 
L 336.661534 28.633594 
L 336.661534 17.830482 
L 338.183352 17.830482 
L 338.183352 138.809751 
L 339.70517 138.809751 
L 339.70517 188.470911 
L 341.226989 188.470911 
L 341.226989 200.465493 
L 342.748807 200.465493 
L 342.748807 208.674472 
L 344.270625 208.674472 
L 344.270625 212.50524 
L 345.792443 212.50524 
L 345.792443 213.941113 
L 347.314261 213.941113 
L 347.314261 215.65628 
L 348.83608 215.65628 
L 348.83608 216.355638 
L 350.357898 216.355638 
L 350.357898 216.507158 
L 351.879716 216.507158 
L 351.879716 216.776201 
L 356.44517 216.728307 
L 356.44517 216.645671 
L 357.966989 216.645671 
L 357.966989 216.473999 
L 359.488807 216.473999 
L 359.488807 215.893147 
L 364.054261 215.878937 
L 364.054261 216.645208 
L 365.57608 216.645208 
L 365.57608 216.987331 
L 367.097898 216.987331 
L 367.097898 216.827546 
L 368.619716 216.827546 
L 368.619716 217.184018 
L 370.141534 217.184018 
L 370.141534 216.865931 
L 371.663352 216.865931 
L 371.663352 217.109985 
L 379.272443 217.103779 
L 379.272443 217.103779 
" clip-path="url(#p2f2b87f16c)" style="fill: none; stroke: #1f77b4; stroke-width: 1.5; stroke-linecap: square"/>
   </g>
   <g id="LineCollection_1">
    <path d="M 75.669716 217.707051 
L 75.669716 217.579932 
" clip-path="url(#p2f2b87f16c)" style="fill: none; stroke: #1f77b4; stroke-width: 1.5"/>
    <path d="M 77.191534 218.187713 
L 77.191534 217.982896 
" clip-path="url(#p2f2b87f16c)" style="fill: none; stroke: #1f77b4; stroke-width: 1.5"/>
    <path d="M 78.713352 218.191995 
L 78.713352 217.979857 
" clip-path="url(#p2f2b87f16c)" style="fill: none; stroke: #1f77b4; stroke-width: 1.5"/>
    <path d="M 80.23517 218.224154 
L 80.23517 218.014238 
" clip-path="url(#p2f2b87f16c)" style="fill: none; stroke: #1f77b4; stroke-width: 1.5"/>
    <path d="M 81.756989 218.495464 
L 81.756989 218.257293 
" clip-path="url(#p2f2b87f16c)" style="fill: none; stroke: #1f77b4; stroke-width: 1.5"/>
    <path d="M 83.278807 218.286447 
L 83.278807 218.08774 
" clip-path="url(#p2f2b87f16c)" style="fill: none; stroke: #1f77b4; stroke-width: 1.5"/>
    <path d="M 84.800625 218.149733 
L 84.800625 217.941496 
" clip-path="url(#p2f2b87f16c)" style="fill: none; stroke: #1f77b4; stroke-width: 1.5"/>
    <path d="M 86.322443 218.348331 
L 86.322443 218.097344 
" clip-path="url(#p2f2b87f16c)" style="fill: none; stroke: #1f77b4; stroke-width: 1.5"/>
    <path d="M 87.844261 218.182989 
L 87.844261 217.920045 
" clip-path="url(#p2f2b87f16c)" style="fill: none; stroke: #1f77b4; stroke-width: 1.5"/>
    <path d="M 89.36608 218.355172 
L 89.36608 218.091075 
" clip-path="url(#p2f2b87f16c)" style="fill: none; stroke: #1f77b4; stroke-width: 1.5"/>
    <path d="M 90.887898 218.288605 
L 90.887898 218.010644 
" clip-path="url(#p2f2b87f16c)" style="fill: none; stroke: #1f77b4; stroke-width: 1.5"/>
    <path d="M 92.409716 218.416324 
L 92.409716 218.152906 
" clip-path="url(#p2f2b87f16c)" style="fill: none; stroke: #1f77b4; stroke-width: 1.5"/>
    <path d="M 93.931534 217.938301 
L 93.931534 217.678509 
" clip-path="url(#p2f2b87f16c)" style="fill: none; stroke: #1f77b4; stroke-width: 1.5"/>
    <path d="M 95.453352 217.950693 
L 95.453352 217.653523 
" clip-path="url(#p2f2b87f16c)" style="fill: none; stroke: #1f77b4; stroke-width: 1.5"/>
    <path d="M 96.97517 217.871029 
L 96.97517 217.597371 
" clip-path="url(#p2f2b87f16c)" style="fill: none; stroke: #1f77b4; stroke-width: 1.5"/>
    <path d="M 98.496989 217.664408 
L 98.496989 217.355787 
" clip-path="url(#p2f2b87f16c)" style="fill: none; stroke: #1f77b4; stroke-width: 1.5"/>
    <path d="M 100.018807 217.785361 
L 100.018807 217.478768 
" clip-path="url(#p2f2b87f16c)" style="fill: none; stroke: #1f77b4; stroke-width: 1.5"/>
    <path d="M 101.540625 217.743047 
L 101.540625 217.453014 
" clip-path="url(#p2f2b87f16c)" style="fill: none; stroke: #1f77b4; stroke-width: 1.5"/>
    <path d="M 103.062443 217.582141 
L 103.062443 217.303985 
" clip-path="url(#p2f2b87f16c)" style="fill: none; stroke: #1f77b4; stroke-width: 1.5"/>
    <path d="M 104.584261 217.277405 
L 104.584261 216.987134 
" clip-path="url(#p2f2b87f16c)" style="fill: none; stroke: #1f77b4; stroke-width: 1.5"/>
    <path d="M 106.10608 211.836043 
L 106.10608 211.368053 
" clip-path="url(#p2f2b87f16c)" style="fill: none; stroke: #1f77b4; stroke-width: 1.5"/>
    <path d="M 107.627898 210.480331 
L 107.627898 209.991641 
" clip-path="url(#p2f2b87f16c)" style="fill: none; stroke: #1f77b4; stroke-width: 1.5"/>
    <path d="M 109.149716 210.946201 
L 109.149716 210.475004 
" clip-path="url(#p2f2b87f16c)" style="fill: none; stroke: #1f77b4; stroke-width: 1.5"/>
    <path d="M 110.671534 202.752248 
L 110.671534 202.137511 
" clip-path="url(#p2f2b87f16c)" style="fill: none; stroke: #1f77b4; stroke-width: 1.5"/>
    <path d="M 112.193352 207.81094 
L 112.193352 207.291129 
" clip-path="url(#p2f2b87f16c)" style="fill: none; stroke: #1f77b4; stroke-width: 1.5"/>
    <path d="M 113.71517 216.098927 
L 113.71517 215.751807 
" clip-path="url(#p2f2b87f16c)" style="fill: none; stroke: #1f77b4; stroke-width: 1.5"/>
    <path d="M 115.236989 217.235087 
L 115.236989 216.948191 
" clip-path="url(#p2f2b87f16c)" style="fill: none; stroke: #1f77b4; stroke-width: 1.5"/>
    <path d="M 116.758807 217.198579 
L 116.758807 216.923156 
" clip-path="url(#p2f2b87f16c)" style="fill: none; stroke: #1f77b4; stroke-width: 1.5"/>
    <path d="M 118.280625 214.457905 
L 118.280625 214.106517 
" clip-path="url(#p2f2b87f16c)" style="fill: none; stroke: #1f77b4; stroke-width: 1.5"/>
    <path d="M 119.802443 206.069476 
L 119.802443 205.488372 
" clip-path="url(#p2f2b87f16c)" style="fill: none; stroke: #1f77b4; stroke-width: 1.5"/>
    <path d="M 121.324261 209.667098 
L 121.324261 209.18298 
" clip-path="url(#p2f2b87f16c)" style="fill: none; stroke: #1f77b4; stroke-width: 1.5"/>
    <path d="M 122.84608 209.666135 
L 122.84608 209.19068 
" clip-path="url(#p2f2b87f16c)" style="fill: none; stroke: #1f77b4; stroke-width: 1.5"/>
    <path d="M 124.367898 202.475098 
L 124.367898 201.86281 
" clip-path="url(#p2f2b87f16c)" style="fill: none; stroke: #1f77b4; stroke-width: 1.5"/>
    <path d="M 125.889716 210.50214 
L 125.889716 210.012034 
" clip-path="url(#p2f2b87f16c)" style="fill: none; stroke: #1f77b4; stroke-width: 1.5"/>
    <path d="M 127.411534 216.219591 
L 127.411534 215.854117 
" clip-path="url(#p2f2b87f16c)" style="fill: none; stroke: #1f77b4; stroke-width: 1.5"/>
    <path d="M 128.933352 216.516533 
L 128.933352 216.22115 
" clip-path="url(#p2f2b87f16c)" style="fill: none; stroke: #1f77b4; stroke-width: 1.5"/>
    <path d="M 130.45517 211.176089 
L 130.45517 210.752708 
" clip-path="url(#p2f2b87f16c)" style="fill: none; stroke: #1f77b4; stroke-width: 1.5"/>
    <path d="M 131.976989 190.034033 
L 131.976989 189.285935 
" clip-path="url(#p2f2b87f16c)" style="fill: none; stroke: #1f77b4; stroke-width: 1.5"/>
    <path d="M 133.498807 193.612542 
L 133.498807 192.956046 
" clip-path="url(#p2f2b87f16c)" style="fill: none; stroke: #1f77b4; stroke-width: 1.5"/>
    <path d="M 135.020625 211.866639 
L 135.020625 211.446914 
" clip-path="url(#p2f2b87f16c)" style="fill: none; stroke: #1f77b4; stroke-width: 1.5"/>
    <path d="M 136.542443 215.916871 
L 136.542443 215.597234 
" clip-path="url(#p2f2b87f16c)" style="fill: none; stroke: #1f77b4; stroke-width: 1.5"/>
    <path d="M 138.064261 216.860325 
L 138.064261 216.563827 
" clip-path="url(#p2f2b87f16c)" style="fill: none; stroke: #1f77b4; stroke-width: 1.5"/>
    <path d="M 139.58608 216.023371 
L 139.58608 215.708198 
" clip-path="url(#p2f2b87f16c)" style="fill: none; stroke: #1f77b4; stroke-width: 1.5"/>
    <path d="M 141.107898 216.512004 
L 141.107898 216.213785 
" clip-path="url(#p2f2b87f16c)" style="fill: none; stroke: #1f77b4; stroke-width: 1.5"/>
    <path d="M 142.629716 216.273224 
L 142.629716 215.97132 
" clip-path="url(#p2f2b87f16c)" style="fill: none; stroke: #1f77b4; stroke-width: 1.5"/>
    <path d="M 144.151534 215.959589 
L 144.151534 215.682037 
" clip-path="url(#p2f2b87f16c)" style="fill: none; stroke: #1f77b4; stroke-width: 1.5"/>
    <path d="M 145.673352 216.31962 
L 145.673352 216.030664 
" clip-path="url(#p2f2b87f16c)" style="fill: none; stroke: #1f77b4; stroke-width: 1.5"/>
    <path d="M 147.19517 216.330648 
L 147.19517 216.042867 
" clip-path="url(#p2f2b87f16c)" style="fill: none; stroke: #1f77b4; stroke-width: 1.5"/>
    <path d="M 148.716989 215.97386 
L 148.716989 215.67151 
" clip-path="url(#p2f2b87f16c)" style="fill: none; stroke: #1f77b4; stroke-width: 1.5"/>
    <path d="M 150.238807 208.631907 
L 150.238807 208.168802 
" clip-path="url(#p2f2b87f16c)" style="fill: none; stroke: #1f77b4; stroke-width: 1.5"/>
    <path d="M 151.760625 193.011734 
L 151.760625 192.405374 
" clip-path="url(#p2f2b87f16c)" style="fill: none; stroke: #1f77b4; stroke-width: 1.5"/>
    <path d="M 153.282443 197.758613 
L 153.282443 197.186649 
" clip-path="url(#p2f2b87f16c)" style="fill: none; stroke: #1f77b4; stroke-width: 1.5"/>
    <path d="M 154.804261 213.127459 
L 154.804261 212.747623 
" clip-path="url(#p2f2b87f16c)" style="fill: none; stroke: #1f77b4; stroke-width: 1.5"/>
    <path d="M 156.32608 215.991166 
L 156.32608 215.703704 
" clip-path="url(#p2f2b87f16c)" style="fill: none; stroke: #1f77b4; stroke-width: 1.5"/>
    <path d="M 157.847898 216.312555 
L 157.847898 216.04705 
" clip-path="url(#p2f2b87f16c)" style="fill: none; stroke: #1f77b4; stroke-width: 1.5"/>
    <path d="M 159.369716 216.420765 
L 159.369716 216.12456 
" clip-path="url(#p2f2b87f16c)" style="fill: none; stroke: #1f77b4; stroke-width: 1.5"/>
    <path d="M 160.891534 210.887216 
L 160.891534 210.502726 
" clip-path="url(#p2f2b87f16c)" style="fill: none; stroke: #1f77b4; stroke-width: 1.5"/>
    <path d="M 162.413352 189.540905 
L 162.413352 188.961031 
" clip-path="url(#p2f2b87f16c)" style="fill: none; stroke: #1f77b4; stroke-width: 1.5"/>
    <path d="M 163.93517 188.28672 
L 163.93517 187.607811 
" clip-path="url(#p2f2b87f16c)" style="fill: none; stroke: #1f77b4; stroke-width: 1.5"/>
    <path d="M 165.456989 210.556768 
L 165.456989 210.156682 
" clip-path="url(#p2f2b87f16c)" style="fill: none; stroke: #1f77b4; stroke-width: 1.5"/>
    <path d="M 166.978807 215.477711 
L 166.978807 215.184638 
" clip-path="url(#p2f2b87f16c)" style="fill: none; stroke: #1f77b4; stroke-width: 1.5"/>
    <path d="M 168.500625 216.239675 
L 168.500625 215.936175 
" clip-path="url(#p2f2b87f16c)" style="fill: none; stroke: #1f77b4; stroke-width: 1.5"/>
    <path d="M 170.022443 216.328997 
L 170.022443 216.027296 
" clip-path="url(#p2f2b87f16c)" style="fill: none; stroke: #1f77b4; stroke-width: 1.5"/>
    <path d="M 171.544261 216.450923 
L 171.544261 216.160481 
" clip-path="url(#p2f2b87f16c)" style="fill: none; stroke: #1f77b4; stroke-width: 1.5"/>
    <path d="M 173.06608 216.827645 
L 173.06608 216.559132 
" clip-path="url(#p2f2b87f16c)" style="fill: none; stroke: #1f77b4; stroke-width: 1.5"/>
    <path d="M 174.587898 216.928882 
L 174.587898 216.63961 
" clip-path="url(#p2f2b87f16c)" style="fill: none; stroke: #1f77b4; stroke-width: 1.5"/>
    <path d="M 176.109716 216.667371 
L 176.109716 216.403182 
" clip-path="url(#p2f2b87f16c)" style="fill: none; stroke: #1f77b4; stroke-width: 1.5"/>
    <path d="M 177.631534 216.636483 
L 177.631534 216.388368 
" clip-path="url(#p2f2b87f16c)" style="fill: none; stroke: #1f77b4; stroke-width: 1.5"/>
    <path d="M 179.153352 216.704481 
L 179.153352 216.438869 
" clip-path="url(#p2f2b87f16c)" style="fill: none; stroke: #1f77b4; stroke-width: 1.5"/>
    <path d="M 180.67517 213.555848 
L 180.67517 213.217028 
" clip-path="url(#p2f2b87f16c)" style="fill: none; stroke: #1f77b4; stroke-width: 1.5"/>
    <path d="M 182.196989 190.954803 
L 182.196989 190.302626 
" clip-path="url(#p2f2b87f16c)" style="fill: none; stroke: #1f77b4; stroke-width: 1.5"/>
    <path d="M 183.718807 167.56997 
L 183.718807 166.685083 
" clip-path="url(#p2f2b87f16c)" style="fill: none; stroke: #1f77b4; stroke-width: 1.5"/>
    <path d="M 185.240625 194.272608 
L 185.240625 193.710659 
" clip-path="url(#p2f2b87f16c)" style="fill: none; stroke: #1f77b4; stroke-width: 1.5"/>
    <path d="M 186.762443 212.119068 
L 186.762443 211.711495 
" clip-path="url(#p2f2b87f16c)" style="fill: none; stroke: #1f77b4; stroke-width: 1.5"/>
    <path d="M 188.284261 205.080054 
L 188.284261 204.604323 
" clip-path="url(#p2f2b87f16c)" style="fill: none; stroke: #1f77b4; stroke-width: 1.5"/>
    <path d="M 189.80608 173.065915 
L 189.80608 172.325573 
" clip-path="url(#p2f2b87f16c)" style="fill: none; stroke: #1f77b4; stroke-width: 1.5"/>
    <path d="M 191.327898 175.019794 
L 191.327898 174.338233 
" clip-path="url(#p2f2b87f16c)" style="fill: none; stroke: #1f77b4; stroke-width: 1.5"/>
    <path d="M 192.849716 208.468627 
L 192.849716 208.019033 
" clip-path="url(#p2f2b87f16c)" style="fill: none; stroke: #1f77b4; stroke-width: 1.5"/>
    <path d="M 194.371534 214.993179 
L 194.371534 214.619054 
" clip-path="url(#p2f2b87f16c)" style="fill: none; stroke: #1f77b4; stroke-width: 1.5"/>
    <path d="M 195.893352 214.265405 
L 195.893352 213.874791 
" clip-path="url(#p2f2b87f16c)" style="fill: none; stroke: #1f77b4; stroke-width: 1.5"/>
    <path d="M 197.41517 215.519201 
L 197.41517 215.205971 
" clip-path="url(#p2f2b87f16c)" style="fill: none; stroke: #1f77b4; stroke-width: 1.5"/>
    <path d="M 198.936989 217.799825 
L 198.936989 217.57621 
" clip-path="url(#p2f2b87f16c)" style="fill: none; stroke: #1f77b4; stroke-width: 1.5"/>
    <path d="M 200.458807 218.056591 
L 200.458807 217.844867 
" clip-path="url(#p2f2b87f16c)" style="fill: none; stroke: #1f77b4; stroke-width: 1.5"/>
    <path d="M 201.980625 214.510389 
L 201.980625 214.173659 
" clip-path="url(#p2f2b87f16c)" style="fill: none; stroke: #1f77b4; stroke-width: 1.5"/>
    <path d="M 203.502443 211.559286 
L 203.502443 211.242207 
" clip-path="url(#p2f2b87f16c)" style="fill: none; stroke: #1f77b4; stroke-width: 1.5"/>
    <path d="M 205.024261 217.621576 
L 205.024261 217.388516 
" clip-path="url(#p2f2b87f16c)" style="fill: none; stroke: #1f77b4; stroke-width: 1.5"/>
    <path d="M 206.54608 218.206219 
L 206.54608 217.97904 
" clip-path="url(#p2f2b87f16c)" style="fill: none; stroke: #1f77b4; stroke-width: 1.5"/>
    <path d="M 208.067898 218.329963 
L 208.067898 218.106602 
" clip-path="url(#p2f2b87f16c)" style="fill: none; stroke: #1f77b4; stroke-width: 1.5"/>
    <path d="M 209.589716 218.481885 
L 209.589716 218.247914 
" clip-path="url(#p2f2b87f16c)" style="fill: none; stroke: #1f77b4; stroke-width: 1.5"/>
    <path d="M 211.111534 218.88 
L 211.111534 218.63581 
" clip-path="url(#p2f2b87f16c)" style="fill: none; stroke: #1f77b4; stroke-width: 1.5"/>
    <path d="M 212.633352 218.502868 
L 212.633352 218.269244 
" clip-path="url(#p2f2b87f16c)" style="fill: none; stroke: #1f77b4; stroke-width: 1.5"/>
    <path d="M 214.15517 218.589896 
L 214.15517 218.38105 
" clip-path="url(#p2f2b87f16c)" style="fill: none; stroke: #1f77b4; stroke-width: 1.5"/>
    <path d="M 215.676989 218.583505 
L 215.676989 218.375061 
" clip-path="url(#p2f2b87f16c)" style="fill: none; stroke: #1f77b4; stroke-width: 1.5"/>
    <path d="M 217.198807 218.352956 
L 217.198807 218.113737 
" clip-path="url(#p2f2b87f16c)" style="fill: none; stroke: #1f77b4; stroke-width: 1.5"/>
    <path d="M 218.720625 218.580712 
L 218.720625 218.344099 
" clip-path="url(#p2f2b87f16c)" style="fill: none; stroke: #1f77b4; stroke-width: 1.5"/>
    <path d="M 220.242443 218.4191 
L 220.242443 218.16586 
" clip-path="url(#p2f2b87f16c)" style="fill: none; stroke: #1f77b4; stroke-width: 1.5"/>
    <path d="M 221.764261 218.337241 
L 221.764261 218.115812 
" clip-path="url(#p2f2b87f16c)" style="fill: none; stroke: #1f77b4; stroke-width: 1.5"/>
    <path d="M 223.28608 218.075261 
L 223.28608 217.842278 
" clip-path="url(#p2f2b87f16c)" style="fill: none; stroke: #1f77b4; stroke-width: 1.5"/>
    <path d="M 224.807898 217.7649 
L 224.807898 217.557591 
" clip-path="url(#p2f2b87f16c)" style="fill: none; stroke: #1f77b4; stroke-width: 1.5"/>
    <path d="M 226.329716 217.388656 
L 226.329716 217.150728 
" clip-path="url(#p2f2b87f16c)" style="fill: none; stroke: #1f77b4; stroke-width: 1.5"/>
    <path d="M 227.851534 217.194699 
L 227.851534 216.9301 
" clip-path="url(#p2f2b87f16c)" style="fill: none; stroke: #1f77b4; stroke-width: 1.5"/>
    <path d="M 229.373352 216.889761 
L 229.373352 216.642266 
" clip-path="url(#p2f2b87f16c)" style="fill: none; stroke: #1f77b4; stroke-width: 1.5"/>
    <path d="M 230.89517 216.887849 
L 230.89517 216.639868 
" clip-path="url(#p2f2b87f16c)" style="fill: none; stroke: #1f77b4; stroke-width: 1.5"/>
    <path d="M 232.416989 216.434335 
L 232.416989 216.199935 
" clip-path="url(#p2f2b87f16c)" style="fill: none; stroke: #1f77b4; stroke-width: 1.5"/>
    <path d="M 233.938807 216.108424 
L 233.938807 215.853674 
" clip-path="url(#p2f2b87f16c)" style="fill: none; stroke: #1f77b4; stroke-width: 1.5"/>
    <path d="M 235.460625 216.13139 
L 235.460625 215.854458 
" clip-path="url(#p2f2b87f16c)" style="fill: none; stroke: #1f77b4; stroke-width: 1.5"/>
    <path d="M 236.982443 215.846479 
L 236.982443 215.568821 
" clip-path="url(#p2f2b87f16c)" style="fill: none; stroke: #1f77b4; stroke-width: 1.5"/>
    <path d="M 238.504261 215.691575 
L 238.504261 215.440186 
" clip-path="url(#p2f2b87f16c)" style="fill: none; stroke: #1f77b4; stroke-width: 1.5"/>
    <path d="M 240.02608 215.190105 
L 240.02608 214.909704 
" clip-path="url(#p2f2b87f16c)" style="fill: none; stroke: #1f77b4; stroke-width: 1.5"/>
    <path d="M 241.547898 215.153292 
L 241.547898 214.850307 
" clip-path="url(#p2f2b87f16c)" style="fill: none; stroke: #1f77b4; stroke-width: 1.5"/>
    <path d="M 243.069716 214.892454 
L 243.069716 214.608438 
" clip-path="url(#p2f2b87f16c)" style="fill: none; stroke: #1f77b4; stroke-width: 1.5"/>
    <path d="M 244.591534 214.543494 
L 244.591534 214.209923 
" clip-path="url(#p2f2b87f16c)" style="fill: none; stroke: #1f77b4; stroke-width: 1.5"/>
    <path d="M 246.113352 214.006585 
L 246.113352 213.628757 
" clip-path="url(#p2f2b87f16c)" style="fill: none; stroke: #1f77b4; stroke-width: 1.5"/>
    <path d="M 247.63517 214.957349 
L 247.63517 214.655335 
" clip-path="url(#p2f2b87f16c)" style="fill: none; stroke: #1f77b4; stroke-width: 1.5"/>
    <path d="M 249.156989 214.122411 
L 249.156989 213.776725 
" clip-path="url(#p2f2b87f16c)" style="fill: none; stroke: #1f77b4; stroke-width: 1.5"/>
    <path d="M 250.678807 214.626734 
L 250.678807 214.30176 
" clip-path="url(#p2f2b87f16c)" style="fill: none; stroke: #1f77b4; stroke-width: 1.5"/>
    <path d="M 252.200625 215.069339 
L 252.200625 214.805363 
" clip-path="url(#p2f2b87f16c)" style="fill: none; stroke: #1f77b4; stroke-width: 1.5"/>
    <path d="M 253.722443 215.278037 
L 253.722443 215.012872 
" clip-path="url(#p2f2b87f16c)" style="fill: none; stroke: #1f77b4; stroke-width: 1.5"/>
    <path d="M 255.244261 215.81243 
L 255.244261 215.565085 
" clip-path="url(#p2f2b87f16c)" style="fill: none; stroke: #1f77b4; stroke-width: 1.5"/>
    <path d="M 256.76608 216.070607 
L 256.76608 215.833763 
" clip-path="url(#p2f2b87f16c)" style="fill: none; stroke: #1f77b4; stroke-width: 1.5"/>
    <path d="M 258.287898 215.992216 
L 258.287898 215.744659 
" clip-path="url(#p2f2b87f16c)" style="fill: none; stroke: #1f77b4; stroke-width: 1.5"/>
    <path d="M 259.809716 215.870657 
L 259.809716 215.634098 
" clip-path="url(#p2f2b87f16c)" style="fill: none; stroke: #1f77b4; stroke-width: 1.5"/>
    <path d="M 261.331534 215.781734 
L 261.331534 215.482448 
" clip-path="url(#p2f2b87f16c)" style="fill: none; stroke: #1f77b4; stroke-width: 1.5"/>
    <path d="M 262.853352 216.303984 
L 262.853352 216.039626 
" clip-path="url(#p2f2b87f16c)" style="fill: none; stroke: #1f77b4; stroke-width: 1.5"/>
    <path d="M 264.37517 216.130383 
L 264.37517 215.861867 
" clip-path="url(#p2f2b87f16c)" style="fill: none; stroke: #1f77b4; stroke-width: 1.5"/>
    <path d="M 265.896989 216.409387 
L 265.896989 216.188563 
" clip-path="url(#p2f2b87f16c)" style="fill: none; stroke: #1f77b4; stroke-width: 1.5"/>
    <path d="M 267.418807 216.50685 
L 267.418807 216.282916 
" clip-path="url(#p2f2b87f16c)" style="fill: none; stroke: #1f77b4; stroke-width: 1.5"/>
    <path d="M 268.940625 216.731504 
L 268.940625 216.484071 
" clip-path="url(#p2f2b87f16c)" style="fill: none; stroke: #1f77b4; stroke-width: 1.5"/>
    <path d="M 270.462443 216.617811 
L 270.462443 216.371172 
" clip-path="url(#p2f2b87f16c)" style="fill: none; stroke: #1f77b4; stroke-width: 1.5"/>
    <path d="M 271.984261 216.563029 
L 271.984261 216.326032 
" clip-path="url(#p2f2b87f16c)" style="fill: none; stroke: #1f77b4; stroke-width: 1.5"/>
    <path d="M 273.50608 216.568468 
L 273.50608 216.352985 
" clip-path="url(#p2f2b87f16c)" style="fill: none; stroke: #1f77b4; stroke-width: 1.5"/>
    <path d="M 275.027898 216.727743 
L 275.027898 216.504146 
" clip-path="url(#p2f2b87f16c)" style="fill: none; stroke: #1f77b4; stroke-width: 1.5"/>
    <path d="M 276.549716 216.921977 
L 276.549716 216.708104 
" clip-path="url(#p2f2b87f16c)" style="fill: none; stroke: #1f77b4; stroke-width: 1.5"/>
    <path d="M 278.071534 216.872548 
L 278.071534 216.635835 
" clip-path="url(#p2f2b87f16c)" style="fill: none; stroke: #1f77b4; stroke-width: 1.5"/>
    <path d="M 279.593352 216.903401 
L 279.593352 216.668006 
" clip-path="url(#p2f2b87f16c)" style="fill: none; stroke: #1f77b4; stroke-width: 1.5"/>
    <path d="M 281.11517 216.701395 
L 281.11517 216.44747 
" clip-path="url(#p2f2b87f16c)" style="fill: none; stroke: #1f77b4; stroke-width: 1.5"/>
    <path d="M 282.636989 216.672211 
L 282.636989 216.426832 
" clip-path="url(#p2f2b87f16c)" style="fill: none; stroke: #1f77b4; stroke-width: 1.5"/>
    <path d="M 284.158807 216.760961 
L 284.158807 216.521507 
" clip-path="url(#p2f2b87f16c)" style="fill: none; stroke: #1f77b4; stroke-width: 1.5"/>
    <path d="M 285.680625 216.645579 
L 285.680625 216.41743 
" clip-path="url(#p2f2b87f16c)" style="fill: none; stroke: #1f77b4; stroke-width: 1.5"/>
    <path d="M 287.202443 216.89646 
L 287.202443 216.669774 
" clip-path="url(#p2f2b87f16c)" style="fill: none; stroke: #1f77b4; stroke-width: 1.5"/>
    <path d="M 288.724261 216.90409 
L 288.724261 216.679001 
" clip-path="url(#p2f2b87f16c)" style="fill: none; stroke: #1f77b4; stroke-width: 1.5"/>
    <path d="M 290.24608 216.925169 
L 290.24608 216.678263 
" clip-path="url(#p2f2b87f16c)" style="fill: none; stroke: #1f77b4; stroke-width: 1.5"/>
    <path d="M 291.767898 216.79821 
L 291.767898 216.573403 
" clip-path="url(#p2f2b87f16c)" style="fill: none; stroke: #1f77b4; stroke-width: 1.5"/>
    <path d="M 293.289716 216.640569 
L 293.289716 216.391559 
" clip-path="url(#p2f2b87f16c)" style="fill: none; stroke: #1f77b4; stroke-width: 1.5"/>
    <path d="M 294.811534 216.925808 
L 294.811534 216.69368 
" clip-path="url(#p2f2b87f16c)" style="fill: none; stroke: #1f77b4; stroke-width: 1.5"/>
    <path d="M 296.333352 216.97006 
L 296.333352 216.712883 
" clip-path="url(#p2f2b87f16c)" style="fill: none; stroke: #1f77b4; stroke-width: 1.5"/>
    <path d="M 297.85517 217.120862 
L 297.85517 216.897656 
" clip-path="url(#p2f2b87f16c)" style="fill: none; stroke: #1f77b4; stroke-width: 1.5"/>
    <path d="M 299.376989 217.338855 
L 299.376989 217.092518 
" clip-path="url(#p2f2b87f16c)" style="fill: none; stroke: #1f77b4; stroke-width: 1.5"/>
    <path d="M 300.898807 217.267068 
L 300.898807 217.035139 
" clip-path="url(#p2f2b87f16c)" style="fill: none; stroke: #1f77b4; stroke-width: 1.5"/>
    <path d="M 302.420625 217.021388 
L 302.420625 216.811214 
" clip-path="url(#p2f2b87f16c)" style="fill: none; stroke: #1f77b4; stroke-width: 1.5"/>
    <path d="M 303.942443 216.949147 
L 303.942443 216.688128 
" clip-path="url(#p2f2b87f16c)" style="fill: none; stroke: #1f77b4; stroke-width: 1.5"/>
    <path d="M 305.464261 216.897511 
L 305.464261 216.69185 
" clip-path="url(#p2f2b87f16c)" style="fill: none; stroke: #1f77b4; stroke-width: 1.5"/>
    <path d="M 306.98608 216.886836 
L 306.98608 216.668678 
" clip-path="url(#p2f2b87f16c)" style="fill: none; stroke: #1f77b4; stroke-width: 1.5"/>
    <path d="M 308.507898 216.681814 
L 308.507898 216.452354 
" clip-path="url(#p2f2b87f16c)" style="fill: none; stroke: #1f77b4; stroke-width: 1.5"/>
    <path d="M 310.029716 217.0044 
L 310.029716 216.763629 
" clip-path="url(#p2f2b87f16c)" style="fill: none; stroke: #1f77b4; stroke-width: 1.5"/>
    <path d="M 311.551534 216.815846 
L 311.551534 216.601458 
" clip-path="url(#p2f2b87f16c)" style="fill: none; stroke: #1f77b4; stroke-width: 1.5"/>
    <path d="M 313.073352 216.665426 
L 313.073352 216.403393 
" clip-path="url(#p2f2b87f16c)" style="fill: none; stroke: #1f77b4; stroke-width: 1.5"/>
    <path d="M 314.59517 216.743059 
L 314.59517 216.489786 
" clip-path="url(#p2f2b87f16c)" style="fill: none; stroke: #1f77b4; stroke-width: 1.5"/>
    <path d="M 316.116989 216.906922 
L 316.116989 216.657119 
" clip-path="url(#p2f2b87f16c)" style="fill: none; stroke: #1f77b4; stroke-width: 1.5"/>
    <path d="M 317.638807 216.445252 
L 317.638807 216.216949 
" clip-path="url(#p2f2b87f16c)" style="fill: none; stroke: #1f77b4; stroke-width: 1.5"/>
    <path d="M 319.160625 216.535376 
L 319.160625 216.287086 
" clip-path="url(#p2f2b87f16c)" style="fill: none; stroke: #1f77b4; stroke-width: 1.5"/>
    <path d="M 320.682443 216.374891 
L 320.682443 216.149229 
" clip-path="url(#p2f2b87f16c)" style="fill: none; stroke: #1f77b4; stroke-width: 1.5"/>
    <path d="M 322.204261 216.72946 
L 322.204261 216.493569 
" clip-path="url(#p2f2b87f16c)" style="fill: none; stroke: #1f77b4; stroke-width: 1.5"/>
    <path d="M 323.72608 216.352974 
L 323.72608 216.080339 
" clip-path="url(#p2f2b87f16c)" style="fill: none; stroke: #1f77b4; stroke-width: 1.5"/>
    <path d="M 325.247898 215.376896 
L 325.247898 215.064035 
" clip-path="url(#p2f2b87f16c)" style="fill: none; stroke: #1f77b4; stroke-width: 1.5"/>
    <path d="M 326.769716 215.261486 
L 326.769716 214.971934 
" clip-path="url(#p2f2b87f16c)" style="fill: none; stroke: #1f77b4; stroke-width: 1.5"/>
    <path d="M 328.291534 213.914208 
L 328.291534 213.554581 
" clip-path="url(#p2f2b87f16c)" style="fill: none; stroke: #1f77b4; stroke-width: 1.5"/>
    <path d="M 329.813352 211.427873 
L 329.813352 211.012155 
" clip-path="url(#p2f2b87f16c)" style="fill: none; stroke: #1f77b4; stroke-width: 1.5"/>
    <path d="M 331.33517 206.224012 
L 331.33517 205.701491 
" clip-path="url(#p2f2b87f16c)" style="fill: none; stroke: #1f77b4; stroke-width: 1.5"/>
    <path d="M 332.856989 194.45791 
L 332.856989 193.774909 
" clip-path="url(#p2f2b87f16c)" style="fill: none; stroke: #1f77b4; stroke-width: 1.5"/>
    <path d="M 334.378807 153.471124 
L 334.378807 152.597698 
" clip-path="url(#p2f2b87f16c)" style="fill: none; stroke: #1f77b4; stroke-width: 1.5"/>
    <path d="M 335.900625 29.185014 
L 335.900625 28.082173 
" clip-path="url(#p2f2b87f16c)" style="fill: none; stroke: #1f77b4; stroke-width: 1.5"/>
    <path d="M 337.422443 18.380964 
L 337.422443 17.28 
" clip-path="url(#p2f2b87f16c)" style="fill: none; stroke: #1f77b4; stroke-width: 1.5"/>
    <path d="M 338.944261 139.20665 
L 338.944261 138.412853 
" clip-path="url(#p2f2b87f16c)" style="fill: none; stroke: #1f77b4; stroke-width: 1.5"/>
    <path d="M 340.46608 188.806531 
L 340.46608 188.135291 
" clip-path="url(#p2f2b87f16c)" style="fill: none; stroke: #1f77b4; stroke-width: 1.5"/>
    <path d="M 341.987898 200.797652 
L 341.987898 200.133335 
" clip-path="url(#p2f2b87f16c)" style="fill: none; stroke: #1f77b4; stroke-width: 1.5"/>
    <path d="M 343.509716 208.927416 
L 343.509716 208.421529 
" clip-path="url(#p2f2b87f16c)" style="fill: none; stroke: #1f77b4; stroke-width: 1.5"/>
    <path d="M 345.031534 212.704246 
L 345.031534 212.306235 
" clip-path="url(#p2f2b87f16c)" style="fill: none; stroke: #1f77b4; stroke-width: 1.5"/>
    <path d="M 346.553352 214.131772 
L 346.553352 213.750453 
" clip-path="url(#p2f2b87f16c)" style="fill: none; stroke: #1f77b4; stroke-width: 1.5"/>
    <path d="M 348.07517 215.807223 
L 348.07517 215.505338 
" clip-path="url(#p2f2b87f16c)" style="fill: none; stroke: #1f77b4; stroke-width: 1.5"/>
    <path d="M 349.596989 216.496006 
L 349.596989 216.21527 
" clip-path="url(#p2f2b87f16c)" style="fill: none; stroke: #1f77b4; stroke-width: 1.5"/>
    <path d="M 351.118807 216.625027 
L 351.118807 216.389288 
" clip-path="url(#p2f2b87f16c)" style="fill: none; stroke: #1f77b4; stroke-width: 1.5"/>
    <path d="M 352.640625 216.899593 
L 352.640625 216.652808 
" clip-path="url(#p2f2b87f16c)" style="fill: none; stroke: #1f77b4; stroke-width: 1.5"/>
    <path d="M 354.162443 216.824177 
L 354.162443 216.639211 
" clip-path="url(#p2f2b87f16c)" style="fill: none; stroke: #1f77b4; stroke-width: 1.5"/>
    <path d="M 355.684261 216.811204 
L 355.684261 216.64541 
" clip-path="url(#p2f2b87f16c)" style="fill: none; stroke: #1f77b4; stroke-width: 1.5"/>
    <path d="M 357.20608 216.750569 
L 357.20608 216.540773 
" clip-path="url(#p2f2b87f16c)" style="fill: none; stroke: #1f77b4; stroke-width: 1.5"/>
    <path d="M 358.727898 216.575533 
L 358.727898 216.372465 
" clip-path="url(#p2f2b87f16c)" style="fill: none; stroke: #1f77b4; stroke-width: 1.5"/>
    <path d="M 360.249716 215.991623 
L 360.249716 215.794671 
" clip-path="url(#p2f2b87f16c)" style="fill: none; stroke: #1f77b4; stroke-width: 1.5"/>
    <path d="M 361.771534 216.088656 
L 361.771534 215.903065 
" clip-path="url(#p2f2b87f16c)" style="fill: none; stroke: #1f77b4; stroke-width: 1.5"/>
    <path d="M 363.293352 215.996462 
L 363.293352 215.761412 
" clip-path="url(#p2f2b87f16c)" style="fill: none; stroke: #1f77b4; stroke-width: 1.5"/>
    <path d="M 364.81517 216.743392 
L 364.81517 216.547024 
" clip-path="url(#p2f2b87f16c)" style="fill: none; stroke: #1f77b4; stroke-width: 1.5"/>
    <path d="M 366.336989 217.086736 
L 366.336989 216.887926 
" clip-path="url(#p2f2b87f16c)" style="fill: none; stroke: #1f77b4; stroke-width: 1.5"/>
    <path d="M 367.858807 216.91717 
L 367.858807 216.737921 
" clip-path="url(#p2f2b87f16c)" style="fill: none; stroke: #1f77b4; stroke-width: 1.5"/>
    <path d="M 369.380625 217.272375 
L 369.380625 217.095661 
" clip-path="url(#p2f2b87f16c)" style="fill: none; stroke: #1f77b4; stroke-width: 1.5"/>
    <path d="M 370.902443 216.96305 
L 370.902443 216.768812 
" clip-path="url(#p2f2b87f16c)" style="fill: none; stroke: #1f77b4; stroke-width: 1.5"/>
    <path d="M 372.424261 217.209257 
L 372.424261 217.010713 
" clip-path="url(#p2f2b87f16c)" style="fill: none; stroke: #1f77b4; stroke-width: 1.5"/>
    <path d="M 373.94608 217.194988 
L 373.94608 217.031952 
" clip-path="url(#p2f2b87f16c)" style="fill: none; stroke: #1f77b4; stroke-width: 1.5"/>
    <path d="M 375.467898 217.162899 
L 375.467898 216.997905 
" clip-path="url(#p2f2b87f16c)" style="fill: none; stroke: #1f77b4; stroke-width: 1.5"/>
    <path d="M 376.989716 217.187111 
L 376.989716 217.020829 
" clip-path="url(#p2f2b87f16c)" style="fill: none; stroke: #1f77b4; stroke-width: 1.5"/>
    <path d="M 378.511534 217.197426 
L 378.511534 217.010133 
" clip-path="url(#p2f2b87f16c)" style="fill: none; stroke: #1f77b4; stroke-width: 1.5"/>
   </g>
   <g id="patch_3">
    <path d="M 59.690625 228.96 
L 59.690625 7.2 
" style="fill: none; stroke: #000000; stroke-width: 0.8; stroke-linejoin: miter; stroke-linecap: square"/>
   </g>
   <g id="patch_4">
    <path d="M 394.490625 228.96 
L 394.490625 7.2 
" style="fill: none; stroke: #000000; stroke-width: 0.8; stroke-linejoin: miter; stroke-linecap: square"/>
   </g>
   <g id="patch_5">
    <path d="M 59.690625 228.96 
L 394.490625 228.96 
" style="fill: none; stroke: #000000; stroke-width: 0.8; stroke-linejoin: miter; stroke-linecap: square"/>
   </g>
   <g id="patch_6">
    <path d="M 59.690625 7.2 
L 394.490625 7.2 
" style="fill: none; stroke: #000000; stroke-width: 0.8; stroke-linejoin: miter; stroke-linecap: square"/>
   </g>
  </g>
 </g>
 <defs>
  <clipPath id="p2f2b87f16c">
   <rect x="59.690625" y="7.2" width="334.8" height="221.76"/>
  </clipPath>
 </defs>
</svg>
