<?xml version="1.0" encoding="UTF-8" standalone="no"?>
<!DOCTYPE svg PUBLIC "-//W3C//DTD SVG 1.1//EN"
 "http://www.w3.org/Graphics/SVG/1.1/DTD/svg11.dtd">
<!-- Generated by graphviz version 2.43.0 (0)
 -->
<!-- Title: %3 Pages: 1 -->
<svg width="3444pt" height="412pt"
 viewBox="0.00 0.00 3444.00 412.00" xmlns="http://www.w3.org/2000/svg" xmlns:xlink="http://www.w3.org/1999/xlink">
<g id="graph0" class="graph" transform="scale(1 1) rotate(0) translate(4 408)">
<title>%3</title>
<polygon fill="white" stroke="transparent" points="-4,4 -4,-408 3440,-408 3440,4 -4,4"/>
<g id="clust1" class="cluster">
<title>cluster_AccumulatedProtonCharge</title>
<polygon fill="#f0f0ff" stroke="#f0f0ff" points="2371,-269.5 2371,-355.5 2580,-355.5 2580,-269.5 2371,-269.5"/>
<text text-anchor="middle" x="2475.5" y="-340.3" font-family="Times,serif" font-size="14.00">AccumulatedProtonCharge</text>
</g>
<g id="clust2" class="cluster">
<title>cluster_AllRawDetectors</title>
<polygon fill="#f0f0ff" stroke="#f0f0ff" points="228.5,-87.5 228.5,-183.5 364.5,-183.5 364.5,-87.5 228.5,-87.5"/>
<text text-anchor="start" x="236.5" y="-169.3" font-family="Times,serif" font-size="14.00">AllRawDetectors</text>
<text text-anchor="start" x="240.5" y="-157.7" font-family="Times,serif" font-size="11.00">via:</text>
<text text-anchor="start" x="261.5" y="-157.7" font-family="Times,serif" font-style="italic" font-size="11.00">load_geant4_csv</text>
</g>
<g id="clust5" class="cluster">
<title>cluster_CorrectedDetector</title>
<polygon fill="#f0f0ff" stroke="#f0f0ff" points="2104,-204.5 2104,-300.5 2298,-300.5 2298,-204.5 2104,-204.5"/>
<text text-anchor="start" x="2134" y="-286.3" font-family="Times,serif" font-size="14.00">CorrectedDetector</text>
<text text-anchor="start" x="2112" y="-274.7" font-family="Times,serif" font-size="11.00">via:</text>
<text text-anchor="start" x="2133" y="-274.7" font-family="Times,serif" font-style="italic" font-size="11.00">add_masks_and_corrections</text>
</g>
<g id="clust6" class="cluster">
<title>cluster_CorrectedDspacing</title>
<polygon fill="#f0f0ff" stroke="#f0f0ff" points="2356,-165.5 2356,-261.5 2594,-261.5 2594,-165.5 2356,-165.5"/>
<text text-anchor="start" x="2406" y="-247.3" font-family="Times,serif" font-size="14.00">CorrectedDspacing</text>
<text text-anchor="start" x="2364" y="-235.7" font-family="Times,serif" font-size="11.00">via:</text>
<text text-anchor="start" x="2385" y="-235.7" font-family="Times,serif" font-style="italic" font-size="11.00">focus_data_dspacing_and_two_theta</text>
</g>
<g id="clust7" class="cluster">
<title>cluster_DetectorLtotal</title>
<polygon fill="#f0f0ff" stroke="#f0f0ff" points="1106.5,-172.5 1106.5,-268.5 1420.5,-268.5 1420.5,-172.5 1106.5,-172.5"/>
<text text-anchor="start" x="1211" y="-254.3" font-family="Times,serif" font-size="14.00">DetectorLtotal</text>
<text text-anchor="start" x="1114.5" y="-242.7" font-family="Times,serif" font-size="11.00">via:</text>
<text text-anchor="start" x="1135.5" y="-242.7" font-family="Times,serif" font-style="italic" font-size="11.00">detector_ltotal_from_straight_line_approximation</text>
</g>
<g id="clust11" class="cluster">
<title>cluster_Filename</title>
<polygon fill="#f0f0ff" stroke="#f0f0ff" points="8,-87.5 8,-173.5 134,-173.5 134,-87.5 8,-87.5"/>
<text text-anchor="middle" x="71" y="-158.3" font-family="Times,serif" font-size="14.00">Filename</text>
</g>
<g id="clust9" class="cluster">
<title>cluster_ElasticCoordTransformGraph</title>
<polygon fill="#f0f0ff" stroke="#f0f0ff" points="1127.5,-276.5 1127.5,-372.5 1399.5,-372.5 1399.5,-276.5 1127.5,-276.5"/>
<text text-anchor="start" x="1158" y="-358.3" font-family="Times,serif" font-size="14.00">ElasticCoordTransformGraph</text>
<text text-anchor="start" x="1135.5" y="-346.7" font-family="Times,serif" font-size="11.00">via:</text>
<text text-anchor="start" x="1156.5" y="-346.7" font-family="Times,serif" font-style="italic" font-size="11.00">powder_coordinate_transformation_graph</text>
</g>
<g id="clust10" class="cluster">
<title>cluster_EmptyDetector</title>
<polygon fill="#f0f0ff" stroke="#f0f0ff" points="777,-68.5 777,-164.5 991,-164.5 991,-68.5 777,-68.5"/>
<text text-anchor="start" x="829" y="-150.3" font-family="Times,serif" font-size="14.00">EmptyDetector</text>
<text text-anchor="start" x="785" y="-138.7" font-family="Times,serif" font-size="11.00">via:</text>
<text text-anchor="start" x="806" y="-138.7" font-family="Times,serif" font-style="italic" font-size="11.00">get_calibrated_geant4_detector</text>
</g>
<g id="clust12" class="cluster">
<title>cluster_FocussedDataDspacing</title>
<polygon fill="#f0f0ff" stroke="#f0f0ff" points="2927,-215.5 2927,-311.5 3109,-311.5 3109,-215.5 2927,-215.5"/>
<text text-anchor="start" x="2935" y="-297.3" font-family="Times,serif" font-size="14.00">FocussedDataDspacing</text>
<text text-anchor="start" x="2951" y="-285.7" font-family="Times,serif" font-size="11.00">via:</text>
<text text-anchor="start" x="2972" y="-285.7" font-family="Times,serif" font-style="italic" font-size="11.00">integrate_two_theta</text>
</g>
<g id="clust16" class="cluster">
<title>cluster_KeepEvents</title>
<polygon fill="#f0f0ff" stroke="#f0f0ff" points="2138,-78.5 2138,-164.5 2264,-164.5 2264,-78.5 2138,-78.5"/>
<text text-anchor="middle" x="2201" y="-149.3" font-family="Times,serif" font-size="14.00">KeepEvents</text>
</g>
<g id="clust18" class="cluster">
<title>cluster_NeXusComponent</title>
<polygon fill="#f0f0ff" stroke="#f0f0ff" points="463.5,-68.5 463.5,-164.5 664.5,-164.5 664.5,-68.5 463.5,-68.5"/>
<text text-anchor="start" x="499.5" y="-150.3" font-family="Times,serif" font-size="14.00">NeXusComponent</text>
<text text-anchor="start" x="485.5" y="-138.7" font-family="Times,serif" font-size="11.00">via:</text>
<text text-anchor="start" x="506.5" y="-138.7" font-family="Times,serif" font-style="italic" font-size="11.00">extract_geant4_detector</text>
</g>
<g id="clust21" class="cluster">
<title>cluster_Position</title>
<polygon fill="#f0f0ff" stroke="#f0f0ff" points="786.5,-223.5 786.5,-359.5 981.5,-359.5 981.5,-223.5 786.5,-223.5"/>
<text text-anchor="middle" x="884" y="-344.3" font-family="Times,serif" font-size="14.00">Position</text>
</g>
<g id="clust20" class="cluster">
<title>cluster_NormalizedDspacing</title>
<polygon fill="#f0f0ff" stroke="#f0f0ff" points="2650,-215.5 2650,-311.5 2847,-311.5 2847,-215.5 2650,-215.5"/>
<text text-anchor="start" x="2674" y="-297.3" font-family="Times,serif" font-size="14.00">NormalizedDspacing</text>
<text text-anchor="start" x="2658" y="-285.7" font-family="Times,serif" font-size="11.00">via:</text>
<text text-anchor="start" x="2679" y="-285.7" font-family="Times,serif" font-style="italic" font-size="11.00">normalize_by_proton_charge</text>
</g>
<g id="clust23" class="cluster">
<title>cluster_RawDetector</title>
<polygon fill="#f0f0ff" stroke="#f0f0ff" points="1177.5,-68.5 1177.5,-164.5 1350.5,-164.5 1350.5,-68.5 1177.5,-68.5"/>
<text text-anchor="start" x="1217" y="-150.3" font-family="Times,serif" font-size="14.00">RawDetector</text>
<text text-anchor="start" x="1185.5" y="-138.7" font-family="Times,serif" font-size="11.00">via:</text>
<text text-anchor="start" x="1206.5" y="-138.7" font-family="Times,serif" font-style="italic" font-size="11.00">assemble_detector_data</text>
</g>
<g id="clust26" class="cluster">
<title>cluster_TofDetector</title>
<polygon fill="#f0f0ff" stroke="#f0f0ff" points="1491.5,-116.5 1491.5,-212.5 1687.5,-212.5 1687.5,-116.5 1491.5,-116.5"/>
<text text-anchor="start" x="1547" y="-198.3" font-family="Times,serif" font-size="14.00">TofDetector</text>
<text text-anchor="start" x="1499.5" y="-186.7" font-family="Times,serif" font-size="11.00">via:</text>
<text text-anchor="start" x="1520.5" y="-186.7" font-family="Times,serif" font-style="italic" font-size="11.00">detector_time_of_flight_data</text>
</g>
<g id="clust30" class="cluster">
<title>cluster_WavelengthDetector</title>
<polygon fill="#f0f0ff" stroke="#f0f0ff" points="1759,-253.5 1759,-349.5 2038,-349.5 2038,-253.5 1759,-253.5"/>
<text text-anchor="start" x="1825" y="-335.3" font-family="Times,serif" font-size="14.00">WavelengthDetector</text>
<text text-anchor="start" x="1767" y="-323.7" font-family="Times,serif" font-size="11.00">via:</text>
<text text-anchor="start" x="1788" y="-323.7" font-family="Times,serif" font-style="italic" font-size="11.00">add_scattering_coordinates_from_positions</text>
</g>
<!-- AccumulatedProtonCharge[SampleRun] -->
<g id="node1" class="node">
<title>AccumulatedProtonCharge[SampleRun]</title>
<polygon fill="none" stroke="black" points="2522.5,-299 2427.5,-299 2427.5,-278 2522.5,-278 2522.5,-299"/>
<text text-anchor="start" x="2435.5" y="-285.4" font-family="Times,serif" font-size="12.00">[SampleRun]</text>
</g>
<!-- NormalizedDspacing[SampleRun] -->
<g id="node35" class="node">
<title>NormalizedDspacing[SampleRun]</title>
<polygon fill="none" stroke="black" points="2795.5,-245 2700.5,-245 2700.5,-224 2795.5,-224 2795.5,-245"/>
<text text-anchor="start" x="2708.5" y="-231.4" font-family="Times,serif" font-size="12.00">[SampleRun]</text>
</g>
<!-- AccumulatedProtonCharge[SampleRun]&#45;&gt;NormalizedDspacing[SampleRun] -->
<g id="edge39" class="edge">
<title>AccumulatedProtonCharge[SampleRun]:e&#45;&gt;NormalizedDspacing[SampleRun]:w</title>
<path fill="none" stroke="black" d="M2524,-288.5C2601.9,-288.5 2616.43,-239.04 2688.88,-234.79"/>
<polygon fill="black" stroke="black" points="2689.1,-238.29 2699,-234.5 2688.9,-231.29 2689.1,-238.29"/>
</g>
<!-- AccumulatedProtonCharge[VanadiumRun] -->
<g id="node2" class="node">
<title>AccumulatedProtonCharge[VanadiumRun]</title>
<polygon fill="none" stroke="black" points="2530,-324 2420,-324 2420,-303 2530,-303 2530,-324"/>
<text text-anchor="start" x="2428" y="-310.4" font-family="Times,serif" font-size="12.00">[VanadiumRun]</text>
</g>
<!-- NormalizedDspacing[VanadiumRun] -->
<g id="node37" class="node">
<title>NormalizedDspacing[VanadiumRun]</title>
<polygon fill="none" stroke="black" points="2803,-270 2693,-270 2693,-249 2803,-249 2803,-270"/>
<text text-anchor="start" x="2701" y="-256.4" font-family="Times,serif" font-size="12.00">[VanadiumRun]</text>
</g>
<!-- AccumulatedProtonCharge[VanadiumRun]&#45;&gt;NormalizedDspacing[VanadiumRun] -->
<g id="edge41" class="edge">
<title>AccumulatedProtonCharge[VanadiumRun]:e&#45;&gt;NormalizedDspacing[VanadiumRun]:w</title>
<path fill="none" stroke="black" d="M2531,-313.5C2559.68,-313.5 2566.62,-308.06 2594,-299.5 2635.39,-286.56 2643.77,-263.48 2681.69,-259.96"/>
<polygon fill="black" stroke="black" points="2682.16,-263.44 2692,-259.5 2681.85,-256.45 2682.16,-263.44"/>
</g>
<!-- Filename[SampleRun] -->
<g id="node3" class="node">
<title>Filename[SampleRun]</title>
<polygon fill="none" stroke="black" points="118.5,-117 23.5,-117 23.5,-96 118.5,-96 118.5,-117"/>
<text text-anchor="start" x="31.5" y="-103.4" font-family="Times,serif" font-size="12.00">[SampleRun]</text>
</g>
<!-- AllRawDetectors[SampleRun] -->
<g id="node4" class="node">
<title>AllRawDetectors[SampleRun]</title>
<polygon fill="none" stroke="black" points="344,-117 249,-117 249,-96 344,-96 344,-117"/>
<text text-anchor="start" x="257" y="-103.4" font-family="Times,serif" font-size="12.00">[SampleRun]</text>
</g>
<!-- Filename[SampleRun]&#45;&gt;AllRawDetectors[SampleRun] -->
<g id="edge1" class="edge">
<title>Filename[SampleRun]:e&#45;&gt;AllRawDetectors[SampleRun]:w</title>
<path fill="none" stroke="black" d="M120,-106.5C173.12,-106.5 188.9,-106.5 237.35,-106.5"/>
<polygon fill="black" stroke="black" points="237.5,-110 247.5,-106.5 237.5,-103 237.5,-110"/>
</g>
<!-- NeXusComponent[NXdetector, SampleRun] -->
<g id="node33" class="node">
<title>NeXusComponent[NXdetector, SampleRun]</title>
<polygon fill="none" stroke="black" points="649,-98 479,-98 479,-77 649,-77 649,-98"/>
<text text-anchor="start" x="487" y="-84.4" font-family="Times,serif" font-size="12.00">[NXdetector, SampleRun]</text>
</g>
<!-- AllRawDetectors[SampleRun]&#45;&gt;NeXusComponent[NXdetector, SampleRun] -->
<g id="edge34" class="edge">
<title>AllRawDetectors[SampleRun]:e&#45;&gt;NeXusComponent[NXdetector, SampleRun]:w</title>
<path fill="none" stroke="black" d="M345.5,-106.5C401.51,-106.5 416.77,-89.66 468,-87.69"/>
<polygon fill="black" stroke="black" points="468.07,-91.19 478,-87.5 467.94,-84.19 468.07,-91.19"/>
</g>
<!-- Filename[VanadiumRun] -->
<g id="node5" class="node">
<title>Filename[VanadiumRun]</title>
<polygon fill="none" stroke="black" points="126,-142 16,-142 16,-121 126,-121 126,-142"/>
<text text-anchor="start" x="24" y="-128.4" font-family="Times,serif" font-size="12.00">[VanadiumRun]</text>
</g>
<!-- AllRawDetectors[VanadiumRun] -->
<g id="node6" class="node">
<title>AllRawDetectors[VanadiumRun]</title>
<polygon fill="none" stroke="black" points="351.5,-142 241.5,-142 241.5,-121 351.5,-121 351.5,-142"/>
<text text-anchor="start" x="249.5" y="-128.4" font-family="Times,serif" font-size="12.00">[VanadiumRun]</text>
</g>
<!-- Filename[VanadiumRun]&#45;&gt;AllRawDetectors[VanadiumRun] -->
<g id="edge2" class="edge">
<title>Filename[VanadiumRun]:e&#45;&gt;AllRawDetectors[VanadiumRun]:w</title>
<path fill="none" stroke="black" d="M127,-131.5C173.9,-131.5 188.1,-131.5 230.39,-131.5"/>
<polygon fill="black" stroke="black" points="230.5,-135 240.5,-131.5 230.5,-128 230.5,-135"/>
</g>
<!-- NeXusComponent[NXdetector, VanadiumRun] -->
<g id="node34" class="node">
<title>NeXusComponent[NXdetector, VanadiumRun]</title>
<polygon fill="none" stroke="black" points="656.5,-123 471.5,-123 471.5,-102 656.5,-102 656.5,-123"/>
<text text-anchor="start" x="479.5" y="-109.4" font-family="Times,serif" font-size="12.00">[NXdetector, VanadiumRun]</text>
</g>
<!-- AllRawDetectors[VanadiumRun]&#45;&gt;NeXusComponent[NXdetector, VanadiumRun] -->
<g id="edge36" class="edge">
<title>AllRawDetectors[VanadiumRun]:e&#45;&gt;NeXusComponent[NXdetector, VanadiumRun]:w</title>
<path fill="none" stroke="black" d="M352.5,-131.5C402.3,-131.5 415.91,-114.94 460.9,-112.74"/>
<polygon fill="black" stroke="black" points="461.09,-116.24 471,-112.5 460.92,-109.24 461.09,-116.24"/>
</g>
<!-- CalibrationFilename -->
<g id="node7" class="node">
<title>CalibrationFilename</title>
<polygon fill="none" stroke="black" points="1344.5,-404 1182.5,-404 1182.5,-381 1344.5,-381 1344.5,-404"/>
<text text-anchor="middle" x="1263.5" y="-388.8" font-family="Times,serif" font-size="14.00">CalibrationFilename</text>
</g>
<!-- CalibrationData -->
<g id="node8" class="node">
<title>CalibrationData</title>
<polygon fill="none" stroke="black" points="1675,-313 1504,-313 1504,-280 1675,-280 1675,-313"/>
<text text-anchor="start" x="1532.5" y="-298.8" font-family="Times,serif" font-size="14.00">CalibrationData</text>
<text text-anchor="start" x="1512" y="-287.2" font-family="Times,serif" font-size="11.00">via:</text>
<text text-anchor="start" x="1533" y="-287.2" font-family="Times,serif" font-style="italic" font-size="11.00">geant4_load_calibration</text>
</g>
<!-- CalibrationFilename&#45;&gt;CalibrationData -->
<g id="edge3" class="edge">
<title>CalibrationFilename:e&#45;&gt;CalibrationData:w</title>
<path fill="none" stroke="black" d="M1345.5,-392.5C1379.89,-392.5 1390.34,-390.02 1420.5,-373.5 1461.09,-351.27 1453.96,-304.21 1492.34,-297.34"/>
<polygon fill="black" stroke="black" points="1492.82,-300.81 1502.5,-296.5 1492.24,-293.84 1492.82,-300.81"/>
</g>
<!-- WavelengthDetector[SampleRun] -->
<g id="node9" class="node">
<title>WavelengthDetector[SampleRun]</title>
<polygon fill="none" stroke="black" points="1945.5,-283 1850.5,-283 1850.5,-262 1945.5,-262 1945.5,-283"/>
<text text-anchor="start" x="1858.5" y="-269.4" font-family="Times,serif" font-size="12.00">[SampleRun]</text>
</g>
<!-- CalibrationData&#45;&gt;WavelengthDetector[SampleRun] -->
<g id="edge54" class="edge">
<title>CalibrationData:e&#45;&gt;WavelengthDetector[SampleRun]:w</title>
<path fill="none" stroke="black" stroke-width="2" d="M1676.5,-296.5C1707.87,-296.5 1729.43,-292.56 1749.14,-287.87"/>
<polygon fill="black" stroke="black" stroke-width="2" points="1750.13,-291.23 1759,-285.44 1748.46,-284.43 1750.13,-291.23"/>
</g>
<!-- CorrectedDetector[SampleRun] -->
<g id="node10" class="node">
<title>CorrectedDetector[SampleRun]</title>
<polygon fill="none" stroke="black" points="2248.5,-234 2153.5,-234 2153.5,-213 2248.5,-213 2248.5,-234"/>
<text text-anchor="start" x="2161.5" y="-220.4" font-family="Times,serif" font-size="12.00">[SampleRun]</text>
</g>
<!-- WavelengthDetector[SampleRun]&#45;&gt;CorrectedDetector[SampleRun] -->
<g id="edge4" class="edge">
<title>WavelengthDetector[SampleRun]:e&#45;&gt;CorrectedDetector[SampleRun]:w</title>
<path fill="none" stroke="black" d="M1947,-272.5C2037.2,-272.5 2056.91,-227.07 2141.88,-223.7"/>
<polygon fill="black" stroke="black" points="2142.07,-227.19 2152,-223.5 2141.93,-220.2 2142.07,-227.19"/>
</g>
<!-- CorrectedDspacing[SampleRun] -->
<g id="node17" class="node">
<title>CorrectedDspacing[SampleRun]</title>
<polygon fill="none" stroke="black" points="2522.5,-195 2427.5,-195 2427.5,-174 2522.5,-174 2522.5,-195"/>
<text text-anchor="start" x="2435.5" y="-181.4" font-family="Times,serif" font-size="12.00">[SampleRun]</text>
</g>
<!-- CorrectedDetector[SampleRun]&#45;&gt;CorrectedDspacing[SampleRun] -->
<g id="edge10" class="edge">
<title>CorrectedDetector[SampleRun]:e&#45;&gt;CorrectedDspacing[SampleRun]:w</title>
<path fill="none" stroke="black" d="M2250,-223.5C2326.52,-223.5 2344.33,-187.93 2415.58,-184.73"/>
<polygon fill="black" stroke="black" points="2416.08,-188.22 2426,-184.5 2415.93,-181.22 2416.08,-188.22"/>
</g>
<!-- MaskedDetectorIDs -->
<g id="node11" class="node">
<title>MaskedDetectorIDs</title>
<polygon fill="none" stroke="black" points="1977,-191 1819,-191 1819,-168 1977,-168 1977,-191"/>
<text text-anchor="middle" x="1898" y="-175.8" font-family="Times,serif" font-size="14.00">MaskedDetectorIDs</text>
</g>
<!-- MaskedDetectorIDs&#45;&gt;CorrectedDetector[SampleRun] -->
<g id="edge5" class="edge">
<title>MaskedDetectorIDs:e&#45;&gt;CorrectedDetector[SampleRun]:w</title>
<path fill="none" stroke="black" stroke-width="2" d="M1978,-179.5C2033.87,-179.5 2057.7,-201.08 2094.37,-214.02"/>
<polygon fill="black" stroke="black" stroke-width="2" points="2093.41,-217.38 2104,-217.1 2095.55,-210.72 2093.41,-217.38"/>
</g>
<!-- TofMask -->
<g id="node12" class="node">
<title>TofMask</title>
<polygon fill="none" stroke="black" points="1936.5,-164 1859.5,-164 1859.5,-141 1936.5,-141 1936.5,-164"/>
<text text-anchor="middle" x="1898" y="-148.8" font-family="Times,serif" font-size="14.00">TofMask</text>
</g>
<!-- TofMask&#45;&gt;CorrectedDetector[SampleRun] -->
<g id="edge6" class="edge">
<title>TofMask:e&#45;&gt;CorrectedDetector[SampleRun]:w</title>
<path fill="none" stroke="black" stroke-width="2" d="M1938,-152.5C1983.01,-152.5 1995.06,-155.02 2038,-168.5 2065.91,-177.26 2080.4,-191.77 2095.8,-203.7"/>
<polygon fill="black" stroke="black" stroke-width="2" points="2093.85,-206.61 2104,-209.65 2097.96,-200.94 2093.85,-206.61"/>
</g>
<!-- WavelengthMask -->
<g id="node13" class="node">
<title>WavelengthMask</title>
<polygon fill="none" stroke="black" points="1967.5,-245 1828.5,-245 1828.5,-222 1967.5,-222 1967.5,-245"/>
<text text-anchor="middle" x="1898" y="-229.8" font-family="Times,serif" font-size="14.00">WavelengthMask</text>
</g>
<!-- WavelengthMask&#45;&gt;CorrectedDetector[SampleRun] -->
<g id="edge7" class="edge">
<title>WavelengthMask:e&#45;&gt;CorrectedDetector[SampleRun]:w</title>
<path fill="none" stroke="black" stroke-width="2" d="M1969,-233.5C2026.93,-233.5 2053.82,-228.44 2093.82,-225.52"/>
<polygon fill="black" stroke="black" stroke-width="2" points="2094.26,-229 2104,-224.85 2093.79,-222.01 2094.26,-229"/>
</g>
<!-- TwoThetaMask -->
<g id="node14" class="node">
<title>TwoThetaMask</title>
<polygon fill="none" stroke="black" points="1960.5,-218 1835.5,-218 1835.5,-195 1960.5,-195 1960.5,-218"/>
<text text-anchor="middle" x="1898" y="-202.8" font-family="Times,serif" font-size="14.00">TwoThetaMask</text>
</g>
<!-- TwoThetaMask&#45;&gt;CorrectedDetector[SampleRun] -->
<g id="edge8" class="edge">
<title>TwoThetaMask:e&#45;&gt;CorrectedDetector[SampleRun]:w</title>
<path fill="none" stroke="black" stroke-width="2" d="M1961,-206.5C2022.9,-206.5 2050.68,-215.47 2093.91,-220.38"/>
<polygon fill="black" stroke="black" stroke-width="2" points="2093.7,-223.87 2104,-221.42 2094.41,-216.91 2093.7,-223.87"/>
</g>
<!-- WavelengthDetector[VanadiumRun] -->
<g id="node15" class="node">
<title>WavelengthDetector[VanadiumRun]</title>
<polygon fill="none" stroke="black" points="1953,-308 1843,-308 1843,-287 1953,-287 1953,-308"/>
<text text-anchor="start" x="1851" y="-294.4" font-family="Times,serif" font-size="12.00">[VanadiumRun]</text>
</g>
<!-- CorrectedDetector[VanadiumRun] -->
<g id="node16" class="node">
<title>CorrectedDetector[VanadiumRun]</title>
<polygon fill="none" stroke="black" points="2256,-259 2146,-259 2146,-238 2256,-238 2256,-259"/>
<text text-anchor="start" x="2154" y="-245.4" font-family="Times,serif" font-size="12.00">[VanadiumRun]</text>
</g>
<!-- WavelengthDetector[VanadiumRun]&#45;&gt;CorrectedDetector[VanadiumRun] -->
<g id="edge9" class="edge">
<title>WavelengthDetector[VanadiumRun]:e&#45;&gt;CorrectedDetector[VanadiumRun]:w</title>
<path fill="none" stroke="black" d="M1954,-297.5C1991.85,-297.5 2001.24,-292.52 2038,-283.5 2083.08,-272.44 2093.54,-251.78 2134.77,-248.85"/>
<polygon fill="black" stroke="black" points="2135.13,-252.34 2145,-248.5 2134.89,-245.34 2135.13,-252.34"/>
</g>
<!-- CorrectedDspacing[VanadiumRun] -->
<g id="node20" class="node">
<title>CorrectedDspacing[VanadiumRun]</title>
<polygon fill="none" stroke="black" points="2530,-220 2420,-220 2420,-199 2530,-199 2530,-220"/>
<text text-anchor="start" x="2428" y="-206.4" font-family="Times,serif" font-size="12.00">[VanadiumRun]</text>
</g>
<!-- CorrectedDetector[VanadiumRun]&#45;&gt;CorrectedDspacing[VanadiumRun] -->
<g id="edge13" class="edge">
<title>CorrectedDetector[VanadiumRun]:e&#45;&gt;CorrectedDspacing[VanadiumRun]:w</title>
<path fill="none" stroke="black" d="M2257,-248.5C2327.59,-248.5 2343.51,-213.07 2408.97,-209.75"/>
<polygon fill="black" stroke="black" points="2409.09,-213.25 2419,-209.5 2408.92,-206.25 2409.09,-213.25"/>
</g>
<!-- CorrectedDspacing[SampleRun]&#45;&gt;NormalizedDspacing[SampleRun] -->
<g id="edge38" class="edge">
<title>CorrectedDspacing[SampleRun]:e&#45;&gt;NormalizedDspacing[SampleRun]:w</title>
<path fill="none" stroke="black" d="M2524,-184.5C2555.82,-184.5 2563.31,-191.12 2594,-199.5 2638.03,-211.52 2648.4,-231.36 2688.95,-234.17"/>
<polygon fill="black" stroke="black" points="2688.89,-237.67 2699,-234.5 2689.12,-230.67 2688.89,-237.67"/>
</g>
<!-- DspacingBins -->
<g id="node18" class="node">
<title>DspacingBins</title>
<polygon fill="none" stroke="black" points="2258,-196 2144,-196 2144,-173 2258,-173 2258,-196"/>
<text text-anchor="middle" x="2201" y="-180.8" font-family="Times,serif" font-size="14.00">DspacingBins</text>
</g>
<!-- DspacingBins&#45;&gt;CorrectedDspacing[SampleRun] -->
<g id="edge11" class="edge">
<title>DspacingBins:e&#45;&gt;CorrectedDspacing[SampleRun]:w</title>
<path fill="none" stroke="black" stroke-width="2" d="M2259,-184.5C2297.9,-184.5 2321.51,-184.5 2345.86,-184.5"/>
<polygon fill="black" stroke="black" stroke-width="2" points="2346,-188 2356,-184.5 2346,-181 2346,-188"/>
</g>
<!-- KeepEvents[SampleRun] -->
<g id="node19" class="node">
<title>KeepEvents[SampleRun]</title>
<polygon fill="none" stroke="black" points="2248.5,-108 2153.5,-108 2153.5,-87 2248.5,-87 2248.5,-108"/>
<text text-anchor="start" x="2161.5" y="-94.4" font-family="Times,serif" font-size="12.00">[SampleRun]</text>
</g>
<!-- KeepEvents[SampleRun]&#45;&gt;CorrectedDspacing[SampleRun] -->
<g id="edge12" class="edge">
<title>KeepEvents[SampleRun]:e&#45;&gt;CorrectedDspacing[SampleRun]:w</title>
<path fill="none" stroke="black" d="M2250,-97.5C2333.68,-97.5 2338.48,-177.51 2415.68,-184.07"/>
<polygon fill="black" stroke="black" points="2415.86,-187.58 2426,-184.5 2416.15,-180.59 2415.86,-187.58"/>
</g>
<!-- CorrectedDspacing[VanadiumRun]&#45;&gt;NormalizedDspacing[VanadiumRun] -->
<g id="edge40" class="edge">
<title>CorrectedDspacing[VanadiumRun]:e&#45;&gt;NormalizedDspacing[VanadiumRun]:w</title>
<path fill="none" stroke="black" d="M2531,-209.5C2602.41,-209.5 2615.89,-254.92 2681.87,-259.18"/>
<polygon fill="black" stroke="black" points="2681.89,-262.68 2692,-259.5 2682.12,-255.69 2681.89,-262.68"/>
</g>
<!-- KeepEvents[VanadiumRun] -->
<g id="node21" class="node">
<title>KeepEvents[VanadiumRun]</title>
<polygon fill="none" stroke="black" points="2256,-133 2146,-133 2146,-112 2256,-112 2256,-133"/>
<text text-anchor="start" x="2154" y="-119.4" font-family="Times,serif" font-size="12.00">[VanadiumRun]</text>
</g>
<!-- KeepEvents[VanadiumRun]&#45;&gt;CorrectedDspacing[VanadiumRun] -->
<g id="edge14" class="edge">
<title>KeepEvents[VanadiumRun]:e&#45;&gt;CorrectedDspacing[VanadiumRun]:w</title>
<path fill="none" stroke="black" d="M2257,-122.5C2311.67,-122.5 2306.24,-172.86 2356,-195.5 2378.74,-205.85 2387.9,-208.79 2408.85,-209.38"/>
<polygon fill="black" stroke="black" points="2408.96,-212.88 2419,-209.5 2409.04,-205.88 2408.96,-212.88"/>
</g>
<!-- EmptyDetector[SampleRun] -->
<g id="node22" class="node">
<title>EmptyDetector[SampleRun]</title>
<polygon fill="none" stroke="black" points="931.5,-98 836.5,-98 836.5,-77 931.5,-77 931.5,-98"/>
<text text-anchor="start" x="844.5" y="-84.4" font-family="Times,serif" font-size="12.00">[SampleRun]</text>
</g>
<!-- DetectorLtotal[SampleRun] -->
<g id="node23" class="node">
<title>DetectorLtotal[SampleRun]</title>
<polygon fill="none" stroke="black" points="1311,-202 1216,-202 1216,-181 1311,-181 1311,-202"/>
<text text-anchor="start" x="1224" y="-188.4" font-family="Times,serif" font-size="12.00">[SampleRun]</text>
</g>
<!-- EmptyDetector[SampleRun]&#45;&gt;DetectorLtotal[SampleRun] -->
<g id="edge15" class="edge">
<title>EmptyDetector[SampleRun]:e&#45;&gt;DetectorLtotal[SampleRun]:w</title>
<path fill="none" stroke="black" d="M933,-87.5C978.82,-87.5 993.43,-83.23 1035,-102.5 1073.42,-120.32 1068.92,-145.97 1106.5,-165.5 1147.14,-186.62 1162.84,-190.93 1204.31,-191.44"/>
<polygon fill="black" stroke="black" points="1204.48,-194.94 1214.5,-191.5 1204.52,-187.94 1204.48,-194.94"/>
</g>
<!-- RawDetector[SampleRun] -->
<g id="node44" class="node">
<title>RawDetector[SampleRun]</title>
<polygon fill="none" stroke="black" points="1311,-98 1216,-98 1216,-77 1311,-77 1311,-98"/>
<text text-anchor="start" x="1224" y="-84.4" font-family="Times,serif" font-size="12.00">[SampleRun]</text>
</g>
<!-- EmptyDetector[SampleRun]&#45;&gt;RawDetector[SampleRun] -->
<g id="edge42" class="edge">
<title>EmptyDetector[SampleRun]:e&#45;&gt;RawDetector[SampleRun]:w</title>
<path fill="none" stroke="black" d="M933,-87.5C1054.69,-87.5 1087.61,-87.5 1204.44,-87.5"/>
<polygon fill="black" stroke="black" points="1204.5,-91 1214.5,-87.5 1204.5,-84 1204.5,-91"/>
</g>
<!-- TofDetector[SampleRun] -->
<g id="node48" class="node">
<title>TofDetector[SampleRun]</title>
<polygon fill="none" stroke="black" points="1637,-146 1542,-146 1542,-125 1637,-125 1637,-146"/>
<text text-anchor="start" x="1550" y="-132.4" font-family="Times,serif" font-size="12.00">[SampleRun]</text>
</g>
<!-- DetectorLtotal[SampleRun]&#45;&gt;TofDetector[SampleRun] -->
<g id="edge48" class="edge">
<title>DetectorLtotal[SampleRun]:e&#45;&gt;TofDetector[SampleRun]:w</title>
<path fill="none" stroke="black" d="M1312.5,-191.5C1413.38,-191.5 1434.78,-139.16 1530.38,-135.68"/>
<polygon fill="black" stroke="black" points="1530.56,-139.18 1540.5,-135.5 1530.44,-132.18 1530.56,-139.18"/>
</g>
<!-- Position[NXsource, SampleRun] -->
<g id="node24" class="node">
<title>Position[NXsource, SampleRun]</title>
<polygon fill="none" stroke="black" points="964.5,-253 803.5,-253 803.5,-232 964.5,-232 964.5,-253"/>
<text text-anchor="start" x="811.5" y="-239.4" font-family="Times,serif" font-size="12.00">[NXsource, SampleRun]</text>
</g>
<!-- Position[NXsource, SampleRun]&#45;&gt;DetectorLtotal[SampleRun] -->
<g id="edge16" class="edge">
<title>Position[NXsource, SampleRun]:e&#45;&gt;DetectorLtotal[SampleRun]:w</title>
<path fill="none" stroke="black" d="M966,-242.5C1030.46,-242.5 1043.25,-218.95 1106.5,-206.5 1150.52,-197.83 1164.06,-192.36 1204.28,-191.59"/>
<polygon fill="black" stroke="black" points="1204.53,-195.09 1214.5,-191.5 1204.47,-188.09 1204.53,-195.09"/>
</g>
<!-- ElasticCoordTransformGraph[SampleRun] -->
<g id="node31" class="node">
<title>ElasticCoordTransformGraph[SampleRun]</title>
<polygon fill="none" stroke="black" points="1311,-306 1216,-306 1216,-285 1311,-285 1311,-306"/>
<text text-anchor="start" x="1224" y="-292.4" font-family="Times,serif" font-size="12.00">[SampleRun]</text>
</g>
<!-- Position[NXsource, SampleRun]&#45;&gt;ElasticCoordTransformGraph[SampleRun] -->
<g id="edge22" class="edge">
<title>Position[NXsource, SampleRun]:e&#45;&gt;ElasticCoordTransformGraph[SampleRun]:w</title>
<path fill="none" stroke="black" d="M966,-242.5C1075.51,-242.5 1100.12,-292.34 1204.49,-295.36"/>
<polygon fill="black" stroke="black" points="1204.45,-298.86 1214.5,-295.5 1204.55,-291.86 1204.45,-298.86"/>
</g>
<!-- Position[NXsample, SampleRun] -->
<g id="node25" class="node">
<title>Position[NXsample, SampleRun]</title>
<polygon fill="none" stroke="black" points="966,-278 802,-278 802,-257 966,-257 966,-278"/>
<text text-anchor="start" x="810" y="-264.4" font-family="Times,serif" font-size="12.00">[NXsample, SampleRun]</text>
</g>
<!-- Position[NXsample, SampleRun]&#45;&gt;DetectorLtotal[SampleRun] -->
<g id="edge17" class="edge">
<title>Position[NXsample, SampleRun]:e&#45;&gt;DetectorLtotal[SampleRun]:w</title>
<path fill="none" stroke="black" d="M967,-267.5C997.86,-267.5 1006.49,-265.3 1035,-253.5 1070.14,-238.96 1070.91,-219.89 1106.5,-206.5 1148.49,-190.71 1163.76,-191.3 1204.25,-191.47"/>
<polygon fill="black" stroke="black" points="1204.49,-194.98 1214.5,-191.5 1204.51,-187.98 1204.49,-194.98"/>
</g>
<!-- Position[NXsample, SampleRun]&#45;&gt;ElasticCoordTransformGraph[SampleRun] -->
<g id="edge23" class="edge">
<title>Position[NXsample, SampleRun]:e&#45;&gt;ElasticCoordTransformGraph[SampleRun]:w</title>
<path fill="none" stroke="black" d="M967,-267.5C1074.24,-267.5 1102.08,-293.78 1204.36,-295.42"/>
<polygon fill="black" stroke="black" points="1204.47,-298.92 1214.5,-295.5 1204.53,-291.92 1204.47,-298.92"/>
</g>
<!-- GravityVector -->
<g id="node26" class="node">
<title>GravityVector</title>
<polygon fill="none" stroke="black" points="961,-210 807,-210 807,-177 961,-177 961,-210"/>
<text text-anchor="start" x="834" y="-195.8" font-family="Times,serif" font-size="14.00">GravityVector</text>
<text text-anchor="start" x="815" y="-184.2" font-family="Times,serif" font-size="11.00">via:</text>
<text text-anchor="start" x="836" y="-184.2" font-family="Times,serif" font-style="italic" font-size="11.00">gravity_vector_neg_y</text>
</g>
<!-- GravityVector&#45;&gt;DetectorLtotal[SampleRun] -->
<g id="edge18" class="edge">
<title>GravityVector:e&#45;&gt;DetectorLtotal[SampleRun]:w</title>
<path fill="none" stroke="black" stroke-width="2" d="M962,-193.5C1022.39,-193.5 1058.41,-192.92 1096.28,-192.39"/>
<polygon fill="black" stroke="black" stroke-width="2" points="1096.55,-195.88 1106.5,-192.24 1096.45,-188.88 1096.55,-195.88"/>
</g>
<!-- GravityVector&#45;&gt;ElasticCoordTransformGraph[SampleRun] -->
<g id="edge24" class="edge">
<title>GravityVector:e&#45;&gt;ElasticCoordTransformGraph[SampleRun]:w</title>
<path fill="none" stroke="black" stroke-width="2" d="M962,-193.5C996.91,-193.5 1004.03,-206.38 1035,-222.5 1068.73,-240.06 1071.61,-254.38 1106.5,-269.5 1110.67,-271.31 1114.56,-273 1118.24,-274.58"/>
<polygon fill="black" stroke="black" stroke-width="2" points="1116.93,-277.83 1127.5,-278.54 1119.68,-271.39 1116.93,-277.83"/>
</g>
<!-- EmptyDetector[VanadiumRun] -->
<g id="node27" class="node">
<title>EmptyDetector[VanadiumRun]</title>
<polygon fill="none" stroke="black" points="939,-123 829,-123 829,-102 939,-102 939,-123"/>
<text text-anchor="start" x="837" y="-109.4" font-family="Times,serif" font-size="12.00">[VanadiumRun]</text>
</g>
<!-- DetectorLtotal[VanadiumRun] -->
<g id="node28" class="node">
<title>DetectorLtotal[VanadiumRun]</title>
<polygon fill="none" stroke="black" points="1318.5,-227 1208.5,-227 1208.5,-206 1318.5,-206 1318.5,-227"/>
<text text-anchor="start" x="1216.5" y="-213.4" font-family="Times,serif" font-size="12.00">[VanadiumRun]</text>
</g>
<!-- EmptyDetector[VanadiumRun]&#45;&gt;DetectorLtotal[VanadiumRun] -->
<g id="edge19" class="edge">
<title>EmptyDetector[VanadiumRun]:e&#45;&gt;DetectorLtotal[VanadiumRun]:w</title>
<path fill="none" stroke="black" d="M940,-112.5C1024.12,-112.5 1026.56,-176.31 1106.5,-202.5 1146.2,-215.51 1160.02,-216.43 1197.45,-216.5"/>
<polygon fill="black" stroke="black" points="1197.5,-220 1207.5,-216.5 1197.5,-213 1197.5,-220"/>
</g>
<!-- RawDetector[VanadiumRun] -->
<g id="node45" class="node">
<title>RawDetector[VanadiumRun]</title>
<polygon fill="none" stroke="black" points="1318.5,-123 1208.5,-123 1208.5,-102 1318.5,-102 1318.5,-123"/>
<text text-anchor="start" x="1216.5" y="-109.4" font-family="Times,serif" font-size="12.00">[VanadiumRun]</text>
</g>
<!-- EmptyDetector[VanadiumRun]&#45;&gt;RawDetector[VanadiumRun] -->
<g id="edge43" class="edge">
<title>EmptyDetector[VanadiumRun]:e&#45;&gt;RawDetector[VanadiumRun]:w</title>
<path fill="none" stroke="black" d="M940,-112.5C1055.41,-112.5 1086.79,-112.5 1197.28,-112.5"/>
<polygon fill="black" stroke="black" points="1197.5,-116 1207.5,-112.5 1197.5,-109 1197.5,-116"/>
</g>
<!-- TofDetector[VanadiumRun] -->
<g id="node49" class="node">
<title>TofDetector[VanadiumRun]</title>
<polygon fill="none" stroke="black" points="1644.5,-171 1534.5,-171 1534.5,-150 1644.5,-150 1644.5,-171"/>
<text text-anchor="start" x="1542.5" y="-157.4" font-family="Times,serif" font-size="12.00">[VanadiumRun]</text>
</g>
<!-- DetectorLtotal[VanadiumRun]&#45;&gt;TofDetector[VanadiumRun] -->
<g id="edge51" class="edge">
<title>DetectorLtotal[VanadiumRun]:e&#45;&gt;TofDetector[VanadiumRun]:w</title>
<path fill="none" stroke="black" d="M1319.5,-216.5C1364.82,-216.5 1376.56,-213.57 1420.5,-202.5 1469.01,-190.28 1478.73,-164.27 1523.41,-160.87"/>
<polygon fill="black" stroke="black" points="1523.63,-164.36 1533.5,-160.5 1523.38,-157.37 1523.63,-164.36"/>
</g>
<!-- Position[NXsource, VanadiumRun] -->
<g id="node29" class="node">
<title>Position[NXsource, VanadiumRun]</title>
<polygon fill="none" stroke="black" points="972,-303 796,-303 796,-282 972,-282 972,-303"/>
<text text-anchor="start" x="804" y="-289.4" font-family="Times,serif" font-size="12.00">[NXsource, VanadiumRun]</text>
</g>
<!-- Position[NXsource, VanadiumRun]&#45;&gt;DetectorLtotal[VanadiumRun] -->
<g id="edge20" class="edge">
<title>Position[NXsource, VanadiumRun]:e&#45;&gt;DetectorLtotal[VanadiumRun]:w</title>
<path fill="none" stroke="black" d="M973,-292.5C1079.14,-292.5 1096.89,-221.18 1197.5,-216.72"/>
<polygon fill="black" stroke="black" points="1197.58,-220.22 1207.5,-216.5 1197.43,-213.22 1197.58,-220.22"/>
</g>
<!-- ElasticCoordTransformGraph[VanadiumRun] -->
<g id="node32" class="node">
<title>ElasticCoordTransformGraph[VanadiumRun]</title>
<polygon fill="none" stroke="black" points="1318.5,-331 1208.5,-331 1208.5,-310 1318.5,-310 1318.5,-331"/>
<text text-anchor="start" x="1216.5" y="-317.4" font-family="Times,serif" font-size="12.00">[VanadiumRun]</text>
</g>
<!-- Position[NXsource, VanadiumRun]&#45;&gt;ElasticCoordTransformGraph[VanadiumRun] -->
<g id="edge25" class="edge">
<title>Position[NXsource, VanadiumRun]:e&#45;&gt;ElasticCoordTransformGraph[VanadiumRun]:w</title>
<path fill="none" stroke="black" d="M973,-292.5C1074.48,-292.5 1100.82,-318.67 1197.3,-320.41"/>
<polygon fill="black" stroke="black" points="1197.47,-323.91 1207.5,-320.5 1197.53,-316.91 1197.47,-323.91"/>
</g>
<!-- Position[NXsample, VanadiumRun] -->
<g id="node30" class="node">
<title>Position[NXsample, VanadiumRun]</title>
<polygon fill="none" stroke="black" points="973.5,-328 794.5,-328 794.5,-307 973.5,-307 973.5,-328"/>
<text text-anchor="start" x="802.5" y="-314.4" font-family="Times,serif" font-size="12.00">[NXsample, VanadiumRun]</text>
</g>
<!-- Position[NXsample, VanadiumRun]&#45;&gt;DetectorLtotal[VanadiumRun] -->
<g id="edge21" class="edge">
<title>Position[NXsample, VanadiumRun]:e&#45;&gt;DetectorLtotal[VanadiumRun]:w</title>
<path fill="none" stroke="black" d="M975,-317.5C1084.14,-317.5 1094.29,-222.71 1197.24,-216.79"/>
<polygon fill="black" stroke="black" points="1197.6,-220.28 1207.5,-216.5 1197.41,-213.28 1197.6,-220.28"/>
</g>
<!-- Position[NXsample, VanadiumRun]&#45;&gt;ElasticCoordTransformGraph[VanadiumRun] -->
<g id="edge26" class="edge">
<title>Position[NXsample, VanadiumRun]:e&#45;&gt;ElasticCoordTransformGraph[VanadiumRun]:w</title>
<path fill="none" stroke="black" d="M975,-317.5C1074.91,-317.5 1102.36,-320.3 1197.46,-320.49"/>
<polygon fill="black" stroke="black" points="1197.5,-323.99 1207.5,-320.5 1197.5,-316.99 1197.5,-323.99"/>
</g>
<!-- ElasticCoordTransformGraph[SampleRun]&#45;&gt;WavelengthDetector[SampleRun] -->
<g id="edge53" class="edge">
<title>ElasticCoordTransformGraph[SampleRun]:e&#45;&gt;WavelengthDetector[SampleRun]:w</title>
<path fill="none" stroke="black" d="M1312.5,-295.5C1392.37,-295.5 1411.75,-283.84 1491.5,-279.5 1646.78,-271.05 1688.31,-272.43 1838.92,-272.5"/>
<polygon fill="black" stroke="black" points="1839,-276 1849,-272.5 1839,-269 1839,-276"/>
</g>
<!-- ElasticCoordTransformGraph[VanadiumRun]&#45;&gt;WavelengthDetector[VanadiumRun] -->
<g id="edge56" class="edge">
<title>ElasticCoordTransformGraph[VanadiumRun]:e&#45;&gt;WavelengthDetector[VanadiumRun]:w</title>
<path fill="none" stroke="black" d="M1319.5,-320.5C1483.09,-320.5 1524.22,-323.49 1687.5,-313.5 1752.91,-309.5 1771.15,-298.68 1831.88,-297.59"/>
<polygon fill="black" stroke="black" points="1832.03,-301.09 1842,-297.5 1831.97,-294.09 1832.03,-301.09"/>
</g>
<!-- NeXusComponent[NXdetector, SampleRun]&#45;&gt;EmptyDetector[SampleRun] -->
<g id="edge27" class="edge">
<title>NeXusComponent[NXdetector, SampleRun]:e&#45;&gt;EmptyDetector[SampleRun]:w</title>
<path fill="none" stroke="black" d="M650,-87.5C728.69,-87.5 750.9,-87.5 824.73,-87.5"/>
<polygon fill="black" stroke="black" points="825,-91 835,-87.5 825,-84 825,-91"/>
</g>
<!-- NeXusComponent[NXdetector, VanadiumRun]&#45;&gt;EmptyDetector[VanadiumRun] -->
<g id="edge28" class="edge">
<title>NeXusComponent[NXdetector, VanadiumRun]:e&#45;&gt;EmptyDetector[VanadiumRun]:w</title>
<path fill="none" stroke="black" d="M657,-112.5C729.44,-112.5 750.09,-112.5 817.68,-112.5"/>
<polygon fill="black" stroke="black" points="818,-116 828,-112.5 818,-109 818,-116"/>
</g>
<!-- FocussedDataDspacing[SampleRun] -->
<g id="node36" class="node">
<title>FocussedDataDspacing[SampleRun]</title>
<polygon fill="none" stroke="black" points="3065.5,-245 2970.5,-245 2970.5,-224 3065.5,-224 3065.5,-245"/>
<text text-anchor="start" x="2978.5" y="-231.4" font-family="Times,serif" font-size="12.00">[SampleRun]</text>
</g>
<!-- NormalizedDspacing[SampleRun]&#45;&gt;FocussedDataDspacing[SampleRun] -->
<g id="edge29" class="edge">
<title>NormalizedDspacing[SampleRun]:e&#45;&gt;FocussedDataDspacing[SampleRun]:w</title>
<path fill="none" stroke="black" d="M2797,-234.5C2869.86,-234.5 2890.64,-234.5 2958.62,-234.5"/>
<polygon fill="black" stroke="black" points="2959,-238 2969,-234.5 2959,-231 2959,-238"/>
</g>
<!-- IntensityDspacing[SampleRun] -->
<g id="node40" class="node">
<title>IntensityDspacing[SampleRun]</title>
<polygon fill="none" stroke="black" points="3436,-251 3197,-251 3197,-218 3436,-218 3436,-251"/>
<text text-anchor="start" x="3205" y="-236.8" font-family="Times,serif" font-size="14.00">IntensityDspacing[SampleRun]</text>
<text text-anchor="start" x="3211.5" y="-225.2" font-family="Times,serif" font-size="11.00">via:</text>
<text text-anchor="start" x="3232.5" y="-225.2" font-family="Times,serif" font-style="italic" font-size="11.00">normalize_by_vanadium_dspacing</text>
</g>
<!-- FocussedDataDspacing[SampleRun]&#45;&gt;IntensityDspacing[SampleRun] -->
<g id="edge31" class="edge">
<title>FocussedDataDspacing[SampleRun]:e&#45;&gt;IntensityDspacing[SampleRun]:w</title>
<path fill="none" stroke="black" d="M3067,-234.5C3121.28,-234.5 3137.31,-234.5 3186.96,-234.5"/>
<polygon fill="black" stroke="black" points="3187,-238 3197,-234.5 3187,-231 3187,-238"/>
</g>
<!-- FocussedDataDspacing[VanadiumRun] -->
<g id="node38" class="node">
<title>FocussedDataDspacing[VanadiumRun]</title>
<polygon fill="none" stroke="black" points="3073,-270 2963,-270 2963,-249 3073,-249 3073,-270"/>
<text text-anchor="start" x="2971" y="-256.4" font-family="Times,serif" font-size="12.00">[VanadiumRun]</text>
</g>
<!-- NormalizedDspacing[VanadiumRun]&#45;&gt;FocussedDataDspacing[VanadiumRun] -->
<g id="edge30" class="edge">
<title>NormalizedDspacing[VanadiumRun]:e&#45;&gt;FocussedDataDspacing[VanadiumRun]:w</title>
<path fill="none" stroke="black" d="M2804,-259.5C2870.66,-259.5 2889.86,-259.5 2951.7,-259.5"/>
<polygon fill="black" stroke="black" points="2952,-263 2962,-259.5 2952,-256 2952,-263"/>
</g>
<!-- FocussedDataDspacing[VanadiumRun]&#45;&gt;IntensityDspacing[SampleRun] -->
<g id="edge32" class="edge">
<title>FocussedDataDspacing[VanadiumRun]:e&#45;&gt;IntensityDspacing[SampleRun]:w</title>
<path fill="none" stroke="black" d="M3074,-259.5C3126.19,-259.5 3139.56,-237.62 3186.74,-234.8"/>
<polygon fill="black" stroke="black" points="3187.11,-238.29 3197,-234.5 3186.9,-231.29 3187.11,-238.29"/>
</g>
<!-- InstrumentConfiguration -->
<g id="node39" class="node">
<title>InstrumentConfiguration</title>
<polygon fill="none" stroke="black" points="661,-28 467,-28 467,-5 661,-5 661,-28"/>
<text text-anchor="middle" x="564" y="-12.8" font-family="Times,serif" font-size="14.00">InstrumentConfiguration</text>
</g>
<!-- TimeOfFlightLookupTableFilename -->
<g id="node46" class="node">
<title>TimeOfFlightLookupTableFilename</title>
<polygon fill="none" stroke="black" points="1035,-33 733,-33 733,0 1035,0 1035,-33"/>
<text text-anchor="start" x="758.5" y="-18.8" font-family="Times,serif" font-size="14.00">TimeOfFlightLookupTableFilename</text>
<text text-anchor="start" x="741" y="-7.2" font-family="Times,serif" font-size="11.00">via:</text>
<text text-anchor="start" x="762" y="-7.2" font-family="Times,serif" font-style="italic" font-size="11.00">_get_lookup_table_filename_from_configuration</text>
</g>
<!-- InstrumentConfiguration&#45;&gt;TimeOfFlightLookupTableFilename -->
<g id="edge45" class="edge">
<title>InstrumentConfiguration:e&#45;&gt;TimeOfFlightLookupTableFilename:w</title>
<path fill="none" stroke="black" d="M662,-16.5C689.86,-16.5 699.27,-16.5 722.81,-16.5"/>
<polygon fill="black" stroke="black" points="723,-20 733,-16.5 723,-13 723,-20"/>
</g>
<!-- UncertaintyBroadcastMode -->
<g id="node41" class="node">
<title>UncertaintyBroadcastMode</title>
<polygon fill="none" stroke="black" points="3125,-207 2911,-207 2911,-184 3125,-184 3125,-207"/>
<text text-anchor="middle" x="3018" y="-191.8" font-family="Times,serif" font-size="14.00">UncertaintyBroadcastMode</text>
</g>
<!-- UncertaintyBroadcastMode&#45;&gt;IntensityDspacing[SampleRun] -->
<g id="edge33" class="edge">
<title>UncertaintyBroadcastMode:e&#45;&gt;IntensityDspacing[SampleRun]:w</title>
<path fill="none" stroke="black" d="M3125,-195.5C3157.7,-195.5 3160.38,-226.98 3186.98,-233.37"/>
<polygon fill="black" stroke="black" points="3186.67,-236.86 3197,-234.5 3187.45,-229.91 3186.67,-236.86"/>
</g>
<!-- NeXusName[NXdetector] -->
<g id="node42" class="node">
<title>NeXusName[NXdetector]</title>
<polygon fill="none" stroke="black" points="395,-79 198,-79 198,-56 395,-56 395,-79"/>
<text text-anchor="middle" x="296.5" y="-63.8" font-family="Times,serif" font-size="14.00">NeXusName[NXdetector]</text>
</g>
<!-- NeXusName[NXdetector]&#45;&gt;NeXusComponent[NXdetector, SampleRun] -->
<g id="edge35" class="edge">
<title>NeXusName[NXdetector]:e&#45;&gt;NeXusComponent[NXdetector, SampleRun]:w</title>
<path fill="none" stroke="black" d="M395,-67.5C429.24,-67.5 438.37,-83.78 467.71,-86.97"/>
<polygon fill="black" stroke="black" points="467.83,-90.48 478,-87.5 468.2,-83.49 467.83,-90.48"/>
</g>
<!-- NeXusName[NXdetector]&#45;&gt;NeXusComponent[NXdetector, VanadiumRun] -->
<g id="edge37" class="edge">
<title>NeXusName[NXdetector]:e&#45;&gt;NeXusComponent[NXdetector, VanadiumRun]:w</title>
<path fill="none" stroke="black" d="M395,-67.5C430.57,-67.5 431.85,-104.46 460.99,-111.39"/>
<polygon fill="black" stroke="black" points="460.67,-114.87 471,-112.5 461.45,-107.92 460.67,-114.87"/>
</g>
<!-- PulseStrideOffset -->
<g id="node43" class="node">
<title>PulseStrideOffset</title>
<polygon fill="none" stroke="black" points="1335,-60 1192,-60 1192,-37 1335,-37 1335,-60"/>
<text text-anchor="middle" x="1263.5" y="-44.8" font-family="Times,serif" font-size="14.00">PulseStrideOffset</text>
</g>
<!-- PulseStrideOffset&#45;&gt;TofDetector[SampleRun] -->
<g id="edge49" class="edge">
<title>PulseStrideOffset:e&#45;&gt;TofDetector[SampleRun]:w</title>
<path fill="none" stroke="black" stroke-width="2" d="M1336.5,-48.5C1374.78,-48.5 1384.8,-53.69 1420.5,-67.5 1451.91,-79.65 1466.52,-98.97 1483.48,-113.92"/>
<polygon fill="black" stroke="black" stroke-width="2" points="1481.54,-116.85 1491.5,-120.44 1485.95,-111.41 1481.54,-116.85"/>
</g>
<!-- RawDetector[SampleRun]&#45;&gt;TofDetector[SampleRun] -->
<g id="edge46" class="edge">
<title>RawDetector[SampleRun]:e&#45;&gt;TofDetector[SampleRun]:w</title>
<path fill="none" stroke="black" d="M1312.5,-87.5C1360.96,-87.5 1373.04,-92.72 1420.5,-102.5 1471.18,-112.94 1483.65,-132.73 1530.34,-135.24"/>
<polygon fill="black" stroke="black" points="1530.41,-138.74 1540.5,-135.5 1530.59,-131.74 1530.41,-138.74"/>
</g>
<!-- RawDetector[VanadiumRun]&#45;&gt;TofDetector[VanadiumRun] -->
<g id="edge50" class="edge">
<title>RawDetector[VanadiumRun]:e&#45;&gt;TofDetector[VanadiumRun]:w</title>
<path fill="none" stroke="black" d="M1319.5,-112.5C1413.45,-112.5 1434.55,-157.09 1523.23,-160.32"/>
<polygon fill="black" stroke="black" points="1523.44,-163.82 1533.5,-160.5 1523.56,-156.82 1523.44,-163.82"/>
</g>
<!-- TimeOfFlightLookupTable -->
<g id="node47" class="node">
<title>TimeOfFlightLookupTable</title>
<polygon fill="none" stroke="black" points="1364,-33 1163,-33 1163,0 1364,0 1364,-33"/>
<text text-anchor="start" x="1171" y="-18.8" font-family="Times,serif" font-size="14.00">TimeOfFlightLookupTable</text>
<text text-anchor="start" x="1192.5" y="-7.2" font-family="Times,serif" font-size="11.00">via:</text>
<text text-anchor="start" x="1213.5" y="-7.2" font-family="Times,serif" font-style="italic" font-size="11.00">load_tof_lookup_table</text>
</g>
<!-- TimeOfFlightLookupTableFilename&#45;&gt;TimeOfFlightLookupTable -->
<g id="edge44" class="edge">
<title>TimeOfFlightLookupTableFilename:e&#45;&gt;TimeOfFlightLookupTable:w</title>
<path fill="none" stroke="black" d="M1035,-16.5C1087.71,-16.5 1103.36,-16.5 1151.43,-16.5"/>
<polygon fill="black" stroke="black" points="1151.5,-20 1161.5,-16.5 1151.5,-13 1151.5,-20"/>
</g>
<!-- TimeOfFlightLookupTable&#45;&gt;TofDetector[SampleRun] -->
<g id="edge47" class="edge">
<title>TimeOfFlightLookupTable:e&#45;&gt;TofDetector[SampleRun]:w</title>
<path fill="none" stroke="black" stroke-width="2" d="M1365.5,-16.5C1434.18,-16.5 1445.72,-79.95 1483.56,-114.18"/>
<polygon fill="black" stroke="black" stroke-width="2" points="1481.53,-117.04 1491.5,-120.61 1485.93,-111.6 1481.53,-117.04"/>
</g>
<!-- TofDetector[SampleRun]&#45;&gt;WavelengthDetector[SampleRun] -->
<g id="edge52" class="edge">
<title>TofDetector[SampleRun]:e&#45;&gt;WavelengthDetector[SampleRun]:w</title>
<path fill="none" stroke="black" d="M1638.5,-135.5C1661.28,-135.5 1668.92,-137.33 1687.5,-150.5 1731.2,-181.46 1714.9,-217.11 1759,-247.5 1790.25,-269.03 1804.88,-272.09 1838.87,-272.45"/>
<polygon fill="black" stroke="black" points="1838.98,-275.96 1849,-272.5 1839.02,-268.96 1838.98,-275.96"/>
</g>
<!-- TofDetector[VanadiumRun]&#45;&gt;WavelengthDetector[VanadiumRun] -->
<g id="edge55" class="edge">
<title>TofDetector[VanadiumRun]:e&#45;&gt;WavelengthDetector[VanadiumRun]:w</title>
<path fill="none" stroke="black" d="M1645.5,-160.5C1719.88,-160.5 1693.59,-248.08 1759,-283.5 1788.68,-299.57 1801.92,-298.04 1831.71,-297.59"/>
<polygon fill="black" stroke="black" points="1832.03,-301.08 1842,-297.5 1831.97,-294.08 1832.03,-301.08"/>
</g>
</g>
</svg>
