<?xml version="1.0" encoding="utf-8" standalone="no"?>
<!DOCTYPE svg PUBLIC "-//W3C//DTD SVG 1.1//EN"
  "http://www.w3.org/Graphics/SVG/1.1/DTD/svg11.dtd">
<svg xmlns:xlink="http://www.w3.org/1999/xlink" width="401.690625pt" height="268.200625pt" viewBox="0 0 401.690625 268.200625" xmlns="http://www.w3.org/2000/svg" version="1.1">
 <metadata>
  <rdf:RDF xmlns:dc="http://purl.org/dc/elements/1.1/" xmlns:cc="http://creativecommons.org/ns#" xmlns:rdf="http://www.w3.org/1999/02/22-rdf-syntax-ns#">
   <cc:Work>
    <dc:type rdf:resource="http://purl.org/dc/dcmitype/StillImage"/>
    <dc:date>2025-09-23T11:21:04.108077</dc:date>
    <dc:format>image/svg+xml</dc:format>
    <dc:creator>
     <cc:Agent>
      <dc:title>Matplotlib v3.10.5, https://matplotlib.org/</dc:title>
     </cc:Agent>
    </dc:creator>
   </cc:Work>
  </rdf:RDF>
 </metadata>
 <defs>
  <style type="text/css">*{stroke-linejoin: round; stroke-linecap: butt}</style>
 </defs>
 <g id="figure_1">
  <g id="patch_1">
   <path d="M 0 268.200625 
L 401.690625 268.200625 
L 401.690625 0 
L 0 0 
z
" style="fill: #ffffff"/>
  </g>
  <g id="axes_1">
   <g id="patch_2">
    <path d="M 59.690625 228.96 
L 394.490625 228.96 
L 394.490625 7.2 
L 59.690625 7.2 
z
" style="fill: #ffffff"/>
   </g>
   <g id="matplotlib.axis_1">
    <g id="xtick_1">
     <g id="line2d_1">
      <defs>
       <path id="m2db52d6d93" d="M 0 0 
L 0 3.5 
" style="stroke: #000000; stroke-width: 0.8"/>
      </defs>
      <g>
       <use xlink:href="#m2db52d6d93" x="67.461326" y="228.96" style="stroke: #000000; stroke-width: 0.8"/>
      </g>
     </g>
     <g id="text_1">
      <!-- 0.25 -->
      <g transform="translate(56.328514 243.558438) scale(0.1 -0.1)">
       <defs>
        <path id="DejaVuSans-30" d="M 2034 4250 
Q 1547 4250 1301 3770 
Q 1056 3291 1056 2328 
Q 1056 1369 1301 889 
Q 1547 409 2034 409 
Q 2525 409 2770 889 
Q 3016 1369 3016 2328 
Q 3016 3291 2770 3770 
Q 2525 4250 2034 4250 
z
M 2034 4750 
Q 2819 4750 3233 4129 
Q 3647 3509 3647 2328 
Q 3647 1150 3233 529 
Q 2819 -91 2034 -91 
Q 1250 -91 836 529 
Q 422 1150 422 2328 
Q 422 3509 836 4129 
Q 1250 4750 2034 4750 
z
" transform="scale(0.015625)"/>
        <path id="DejaVuSans-2e" d="M 684 794 
L 1344 794 
L 1344 0 
L 684 0 
L 684 794 
z
" transform="scale(0.015625)"/>
        <path id="DejaVuSans-32" d="M 1228 531 
L 3431 531 
L 3431 0 
L 469 0 
L 469 531 
Q 828 903 1448 1529 
Q 2069 2156 2228 2338 
Q 2531 2678 2651 2914 
Q 2772 3150 2772 3378 
Q 2772 3750 2511 3984 
Q 2250 4219 1831 4219 
Q 1534 4219 1204 4116 
Q 875 4013 500 3803 
L 500 4441 
Q 881 4594 1212 4672 
Q 1544 4750 1819 4750 
Q 2544 4750 2975 4387 
Q 3406 4025 3406 3419 
Q 3406 3131 3298 2873 
Q 3191 2616 2906 2266 
Q 2828 2175 2409 1742 
Q 1991 1309 1228 531 
z
" transform="scale(0.015625)"/>
        <path id="DejaVuSans-35" d="M 691 4666 
L 3169 4666 
L 3169 4134 
L 1269 4134 
L 1269 2991 
Q 1406 3038 1543 3061 
Q 1681 3084 1819 3084 
Q 2600 3084 3056 2656 
Q 3513 2228 3513 1497 
Q 3513 744 3044 326 
Q 2575 -91 1722 -91 
Q 1428 -91 1123 -41 
Q 819 9 494 109 
L 494 744 
Q 775 591 1075 516 
Q 1375 441 1709 441 
Q 2250 441 2565 725 
Q 2881 1009 2881 1497 
Q 2881 1984 2565 2268 
Q 2250 2553 1709 2553 
Q 1456 2553 1204 2497 
Q 953 2441 691 2322 
L 691 4666 
z
" transform="scale(0.015625)"/>
       </defs>
       <use xlink:href="#DejaVuSans-30"/>
       <use xlink:href="#DejaVuSans-2e" transform="translate(63.623047 0)"/>
       <use xlink:href="#DejaVuSans-32" transform="translate(95.410156 0)"/>
       <use xlink:href="#DejaVuSans-35" transform="translate(159.033203 0)"/>
      </g>
     </g>
    </g>
    <g id="xtick_2">
     <g id="line2d_2">
      <g>
       <use xlink:href="#m2db52d6d93" x="104.698729" y="228.96" style="stroke: #000000; stroke-width: 0.8"/>
      </g>
     </g>
     <g id="text_2">
      <!-- 0.50 -->
      <g transform="translate(93.565917 243.558438) scale(0.1 -0.1)">
       <use xlink:href="#DejaVuSans-30"/>
       <use xlink:href="#DejaVuSans-2e" transform="translate(63.623047 0)"/>
       <use xlink:href="#DejaVuSans-35" transform="translate(95.410156 0)"/>
       <use xlink:href="#DejaVuSans-30" transform="translate(159.033203 0)"/>
      </g>
     </g>
    </g>
    <g id="xtick_3">
     <g id="line2d_3">
      <g>
       <use xlink:href="#m2db52d6d93" x="141.936132" y="228.96" style="stroke: #000000; stroke-width: 0.8"/>
      </g>
     </g>
     <g id="text_3">
      <!-- 0.75 -->
      <g transform="translate(130.80332 243.558438) scale(0.1 -0.1)">
       <defs>
        <path id="DejaVuSans-37" d="M 525 4666 
L 3525 4666 
L 3525 4397 
L 1831 0 
L 1172 0 
L 2766 4134 
L 525 4134 
L 525 4666 
z
" transform="scale(0.015625)"/>
       </defs>
       <use xlink:href="#DejaVuSans-30"/>
       <use xlink:href="#DejaVuSans-2e" transform="translate(63.623047 0)"/>
       <use xlink:href="#DejaVuSans-37" transform="translate(95.410156 0)"/>
       <use xlink:href="#DejaVuSans-35" transform="translate(159.033203 0)"/>
      </g>
     </g>
    </g>
    <g id="xtick_4">
     <g id="line2d_4">
      <g>
       <use xlink:href="#m2db52d6d93" x="179.173535" y="228.96" style="stroke: #000000; stroke-width: 0.8"/>
      </g>
     </g>
     <g id="text_4">
      <!-- 1.00 -->
      <g transform="translate(168.040722 243.558438) scale(0.1 -0.1)">
       <defs>
        <path id="DejaVuSans-31" d="M 794 531 
L 1825 531 
L 1825 4091 
L 703 3866 
L 703 4441 
L 1819 4666 
L 2450 4666 
L 2450 531 
L 3481 531 
L 3481 0 
L 794 0 
L 794 531 
z
" transform="scale(0.015625)"/>
       </defs>
       <use xlink:href="#DejaVuSans-31"/>
       <use xlink:href="#DejaVuSans-2e" transform="translate(63.623047 0)"/>
       <use xlink:href="#DejaVuSans-30" transform="translate(95.410156 0)"/>
       <use xlink:href="#DejaVuSans-30" transform="translate(159.033203 0)"/>
      </g>
     </g>
    </g>
    <g id="xtick_5">
     <g id="line2d_5">
      <g>
       <use xlink:href="#m2db52d6d93" x="216.410938" y="228.96" style="stroke: #000000; stroke-width: 0.8"/>
      </g>
     </g>
     <g id="text_5">
      <!-- 1.25 -->
      <g transform="translate(205.278125 243.558438) scale(0.1 -0.1)">
       <use xlink:href="#DejaVuSans-31"/>
       <use xlink:href="#DejaVuSans-2e" transform="translate(63.623047 0)"/>
       <use xlink:href="#DejaVuSans-32" transform="translate(95.410156 0)"/>
       <use xlink:href="#DejaVuSans-35" transform="translate(159.033203 0)"/>
      </g>
     </g>
    </g>
    <g id="xtick_6">
     <g id="line2d_6">
      <g>
       <use xlink:href="#m2db52d6d93" x="253.648341" y="228.96" style="stroke: #000000; stroke-width: 0.8"/>
      </g>
     </g>
     <g id="text_6">
      <!-- 1.50 -->
      <g transform="translate(242.515528 243.558438) scale(0.1 -0.1)">
       <use xlink:href="#DejaVuSans-31"/>
       <use xlink:href="#DejaVuSans-2e" transform="translate(63.623047 0)"/>
       <use xlink:href="#DejaVuSans-35" transform="translate(95.410156 0)"/>
       <use xlink:href="#DejaVuSans-30" transform="translate(159.033203 0)"/>
      </g>
     </g>
    </g>
    <g id="xtick_7">
     <g id="line2d_7">
      <g>
       <use xlink:href="#m2db52d6d93" x="290.885744" y="228.96" style="stroke: #000000; stroke-width: 0.8"/>
      </g>
     </g>
     <g id="text_7">
      <!-- 1.75 -->
      <g transform="translate(279.752931 243.558438) scale(0.1 -0.1)">
       <use xlink:href="#DejaVuSans-31"/>
       <use xlink:href="#DejaVuSans-2e" transform="translate(63.623047 0)"/>
       <use xlink:href="#DejaVuSans-37" transform="translate(95.410156 0)"/>
       <use xlink:href="#DejaVuSans-35" transform="translate(159.033203 0)"/>
      </g>
     </g>
    </g>
    <g id="xtick_8">
     <g id="line2d_8">
      <g>
       <use xlink:href="#m2db52d6d93" x="328.123147" y="228.96" style="stroke: #000000; stroke-width: 0.8"/>
      </g>
     </g>
     <g id="text_8">
      <!-- 2.00 -->
      <g transform="translate(316.990334 243.558438) scale(0.1 -0.1)">
       <use xlink:href="#DejaVuSans-32"/>
       <use xlink:href="#DejaVuSans-2e" transform="translate(63.623047 0)"/>
       <use xlink:href="#DejaVuSans-30" transform="translate(95.410156 0)"/>
       <use xlink:href="#DejaVuSans-30" transform="translate(159.033203 0)"/>
      </g>
     </g>
    </g>
    <g id="xtick_9">
     <g id="line2d_9">
      <g>
       <use xlink:href="#m2db52d6d93" x="365.360549" y="228.96" style="stroke: #000000; stroke-width: 0.8"/>
      </g>
     </g>
     <g id="text_9">
      <!-- 2.25 -->
      <g transform="translate(354.227737 243.558438) scale(0.1 -0.1)">
       <use xlink:href="#DejaVuSans-32"/>
       <use xlink:href="#DejaVuSans-2e" transform="translate(63.623047 0)"/>
       <use xlink:href="#DejaVuSans-32" transform="translate(95.410156 0)"/>
       <use xlink:href="#DejaVuSans-35" transform="translate(159.033203 0)"/>
      </g>
     </g>
    </g>
    <g id="text_10">
     <!-- dspacing [Å] -->
     <g transform="translate(195.68125 258.920938) scale(0.1 -0.1)">
      <defs>
       <path id="DejaVuSans-64" d="M 2906 2969 
L 2906 4863 
L 3481 4863 
L 3481 0 
L 2906 0 
L 2906 525 
Q 2725 213 2448 61 
Q 2172 -91 1784 -91 
Q 1150 -91 751 415 
Q 353 922 353 1747 
Q 353 2572 751 3078 
Q 1150 3584 1784 3584 
Q 2172 3584 2448 3432 
Q 2725 3281 2906 2969 
z
M 947 1747 
Q 947 1113 1208 752 
Q 1469 391 1925 391 
Q 2381 391 2643 752 
Q 2906 1113 2906 1747 
Q 2906 2381 2643 2742 
Q 2381 3103 1925 3103 
Q 1469 3103 1208 2742 
Q 947 2381 947 1747 
z
" transform="scale(0.015625)"/>
       <path id="DejaVuSans-73" d="M 2834 3397 
L 2834 2853 
Q 2591 2978 2328 3040 
Q 2066 3103 1784 3103 
Q 1356 3103 1142 2972 
Q 928 2841 928 2578 
Q 928 2378 1081 2264 
Q 1234 2150 1697 2047 
L 1894 2003 
Q 2506 1872 2764 1633 
Q 3022 1394 3022 966 
Q 3022 478 2636 193 
Q 2250 -91 1575 -91 
Q 1294 -91 989 -36 
Q 684 19 347 128 
L 347 722 
Q 666 556 975 473 
Q 1284 391 1588 391 
Q 1994 391 2212 530 
Q 2431 669 2431 922 
Q 2431 1156 2273 1281 
Q 2116 1406 1581 1522 
L 1381 1569 
Q 847 1681 609 1914 
Q 372 2147 372 2553 
Q 372 3047 722 3315 
Q 1072 3584 1716 3584 
Q 2034 3584 2315 3537 
Q 2597 3491 2834 3397 
z
" transform="scale(0.015625)"/>
       <path id="DejaVuSans-70" d="M 1159 525 
L 1159 -1331 
L 581 -1331 
L 581 3500 
L 1159 3500 
L 1159 2969 
Q 1341 3281 1617 3432 
Q 1894 3584 2278 3584 
Q 2916 3584 3314 3078 
Q 3713 2572 3713 1747 
Q 3713 922 3314 415 
Q 2916 -91 2278 -91 
Q 1894 -91 1617 61 
Q 1341 213 1159 525 
z
M 3116 1747 
Q 3116 2381 2855 2742 
Q 2594 3103 2138 3103 
Q 1681 3103 1420 2742 
Q 1159 2381 1159 1747 
Q 1159 1113 1420 752 
Q 1681 391 2138 391 
Q 2594 391 2855 752 
Q 3116 1113 3116 1747 
z
" transform="scale(0.015625)"/>
       <path id="DejaVuSans-61" d="M 2194 1759 
Q 1497 1759 1228 1600 
Q 959 1441 959 1056 
Q 959 750 1161 570 
Q 1363 391 1709 391 
Q 2188 391 2477 730 
Q 2766 1069 2766 1631 
L 2766 1759 
L 2194 1759 
z
M 3341 1997 
L 3341 0 
L 2766 0 
L 2766 531 
Q 2569 213 2275 61 
Q 1981 -91 1556 -91 
Q 1019 -91 701 211 
Q 384 513 384 1019 
Q 384 1609 779 1909 
Q 1175 2209 1959 2209 
L 2766 2209 
L 2766 2266 
Q 2766 2663 2505 2880 
Q 2244 3097 1772 3097 
Q 1472 3097 1187 3025 
Q 903 2953 641 2809 
L 641 3341 
Q 956 3463 1253 3523 
Q 1550 3584 1831 3584 
Q 2591 3584 2966 3190 
Q 3341 2797 3341 1997 
z
" transform="scale(0.015625)"/>
       <path id="DejaVuSans-63" d="M 3122 3366 
L 3122 2828 
Q 2878 2963 2633 3030 
Q 2388 3097 2138 3097 
Q 1578 3097 1268 2742 
Q 959 2388 959 1747 
Q 959 1106 1268 751 
Q 1578 397 2138 397 
Q 2388 397 2633 464 
Q 2878 531 3122 666 
L 3122 134 
Q 2881 22 2623 -34 
Q 2366 -91 2075 -91 
Q 1284 -91 818 406 
Q 353 903 353 1747 
Q 353 2603 823 3093 
Q 1294 3584 2113 3584 
Q 2378 3584 2631 3529 
Q 2884 3475 3122 3366 
z
" transform="scale(0.015625)"/>
       <path id="DejaVuSans-69" d="M 603 3500 
L 1178 3500 
L 1178 0 
L 603 0 
L 603 3500 
z
M 603 4863 
L 1178 4863 
L 1178 4134 
L 603 4134 
L 603 4863 
z
" transform="scale(0.015625)"/>
       <path id="DejaVuSans-6e" d="M 3513 2113 
L 3513 0 
L 2938 0 
L 2938 2094 
Q 2938 2591 2744 2837 
Q 2550 3084 2163 3084 
Q 1697 3084 1428 2787 
Q 1159 2491 1159 1978 
L 1159 0 
L 581 0 
L 581 3500 
L 1159 3500 
L 1159 2956 
Q 1366 3272 1645 3428 
Q 1925 3584 2291 3584 
Q 2894 3584 3203 3211 
Q 3513 2838 3513 2113 
z
" transform="scale(0.015625)"/>
       <path id="DejaVuSans-67" d="M 2906 1791 
Q 2906 2416 2648 2759 
Q 2391 3103 1925 3103 
Q 1463 3103 1205 2759 
Q 947 2416 947 1791 
Q 947 1169 1205 825 
Q 1463 481 1925 481 
Q 2391 481 2648 825 
Q 2906 1169 2906 1791 
z
M 3481 434 
Q 3481 -459 3084 -895 
Q 2688 -1331 1869 -1331 
Q 1566 -1331 1297 -1286 
Q 1028 -1241 775 -1147 
L 775 -588 
Q 1028 -725 1275 -790 
Q 1522 -856 1778 -856 
Q 2344 -856 2625 -561 
Q 2906 -266 2906 331 
L 2906 616 
Q 2728 306 2450 153 
Q 2172 0 1784 0 
Q 1141 0 747 490 
Q 353 981 353 1791 
Q 353 2603 747 3093 
Q 1141 3584 1784 3584 
Q 2172 3584 2450 3431 
Q 2728 3278 2906 2969 
L 2906 3500 
L 3481 3500 
L 3481 434 
z
" transform="scale(0.015625)"/>
       <path id="DejaVuSans-20" transform="scale(0.015625)"/>
       <path id="DejaVuSans-5b" d="M 550 4863 
L 1875 4863 
L 1875 4416 
L 1125 4416 
L 1125 -397 
L 1875 -397 
L 1875 -844 
L 550 -844 
L 550 4863 
z
" transform="scale(0.015625)"/>
       <path id="DejaVuSans-c5" d="M 2663 5081 
Q 2663 5278 2523 5417 
Q 2384 5556 2188 5556 
Q 1988 5556 1852 5420 
Q 1716 5284 1716 5081 
Q 1716 4884 1853 4746 
Q 1991 4609 2188 4609 
Q 2384 4609 2523 4746 
Q 2663 4884 2663 5081 
z
M 2188 4044 
L 1338 1722 
L 3041 1722 
L 2188 4044 
z
M 1716 4366 
Q 1525 4494 1428 4673 
Q 1331 4853 1331 5081 
Q 1331 5441 1579 5691 
Q 1828 5941 2188 5941 
Q 2544 5941 2795 5689 
Q 3047 5438 3047 5081 
Q 3047 4863 2948 4678 
Q 2850 4494 2663 4366 
L 4325 0 
L 3669 0 
L 3244 1197 
L 1141 1197 
L 716 0 
L 50 0 
L 1716 4366 
z
" transform="scale(0.015625)"/>
       <path id="DejaVuSans-5d" d="M 1947 4863 
L 1947 -844 
L 622 -844 
L 622 -397 
L 1369 -397 
L 1369 4416 
L 622 4416 
L 622 4863 
L 1947 4863 
z
" transform="scale(0.015625)"/>
      </defs>
      <use xlink:href="#DejaVuSans-64"/>
      <use xlink:href="#DejaVuSans-73" transform="translate(63.476562 0)"/>
      <use xlink:href="#DejaVuSans-70" transform="translate(115.576172 0)"/>
      <use xlink:href="#DejaVuSans-61" transform="translate(179.052734 0)"/>
      <use xlink:href="#DejaVuSans-63" transform="translate(240.332031 0)"/>
      <use xlink:href="#DejaVuSans-69" transform="translate(295.3125 0)"/>
      <use xlink:href="#DejaVuSans-6e" transform="translate(323.095703 0)"/>
      <use xlink:href="#DejaVuSans-67" transform="translate(386.474609 0)"/>
      <use xlink:href="#DejaVuSans-20" transform="translate(449.951172 0)"/>
      <use xlink:href="#DejaVuSans-5b" transform="translate(481.738281 0)"/>
      <use xlink:href="#DejaVuSans-c5" transform="translate(520.751953 0)"/>
      <use xlink:href="#DejaVuSans-5d" transform="translate(589.160156 0)"/>
     </g>
    </g>
   </g>
   <g id="matplotlib.axis_2">
    <g id="ytick_1">
     <g id="line2d_10">
      <defs>
       <path id="me61518ab8b" d="M 0 0 
L -3.5 0 
" style="stroke: #000000; stroke-width: 0.8"/>
      </defs>
      <g>
       <use xlink:href="#me61518ab8b" x="59.690625" y="217.263852" style="stroke: #000000; stroke-width: 0.8"/>
      </g>
     </g>
     <g id="text_11">
      <!-- 0 -->
      <g transform="translate(46.328125 221.063071) scale(0.1 -0.1)">
       <use xlink:href="#DejaVuSans-30"/>
      </g>
     </g>
    </g>
    <g id="ytick_2">
     <g id="line2d_11">
      <g>
       <use xlink:href="#me61518ab8b" x="59.690625" y="192.495208" style="stroke: #000000; stroke-width: 0.8"/>
      </g>
     </g>
     <g id="text_12">
      <!-- 2000 -->
      <g transform="translate(27.240625 196.294427) scale(0.1 -0.1)">
       <use xlink:href="#DejaVuSans-32"/>
       <use xlink:href="#DejaVuSans-30" transform="translate(63.623047 0)"/>
       <use xlink:href="#DejaVuSans-30" transform="translate(127.246094 0)"/>
       <use xlink:href="#DejaVuSans-30" transform="translate(190.869141 0)"/>
      </g>
     </g>
    </g>
    <g id="ytick_3">
     <g id="line2d_12">
      <g>
       <use xlink:href="#me61518ab8b" x="59.690625" y="167.726564" style="stroke: #000000; stroke-width: 0.8"/>
      </g>
     </g>
     <g id="text_13">
      <!-- 4000 -->
      <g transform="translate(27.240625 171.525782) scale(0.1 -0.1)">
       <defs>
        <path id="DejaVuSans-34" d="M 2419 4116 
L 825 1625 
L 2419 1625 
L 2419 4116 
z
M 2253 4666 
L 3047 4666 
L 3047 1625 
L 3713 1625 
L 3713 1100 
L 3047 1100 
L 3047 0 
L 2419 0 
L 2419 1100 
L 313 1100 
L 313 1709 
L 2253 4666 
z
" transform="scale(0.015625)"/>
       </defs>
       <use xlink:href="#DejaVuSans-34"/>
       <use xlink:href="#DejaVuSans-30" transform="translate(63.623047 0)"/>
       <use xlink:href="#DejaVuSans-30" transform="translate(127.246094 0)"/>
       <use xlink:href="#DejaVuSans-30" transform="translate(190.869141 0)"/>
      </g>
     </g>
    </g>
    <g id="ytick_4">
     <g id="line2d_13">
      <g>
       <use xlink:href="#me61518ab8b" x="59.690625" y="142.957919" style="stroke: #000000; stroke-width: 0.8"/>
      </g>
     </g>
     <g id="text_14">
      <!-- 6000 -->
      <g transform="translate(27.240625 146.757138) scale(0.1 -0.1)">
       <defs>
        <path id="DejaVuSans-36" d="M 2113 2584 
Q 1688 2584 1439 2293 
Q 1191 2003 1191 1497 
Q 1191 994 1439 701 
Q 1688 409 2113 409 
Q 2538 409 2786 701 
Q 3034 994 3034 1497 
Q 3034 2003 2786 2293 
Q 2538 2584 2113 2584 
z
M 3366 4563 
L 3366 3988 
Q 3128 4100 2886 4159 
Q 2644 4219 2406 4219 
Q 1781 4219 1451 3797 
Q 1122 3375 1075 2522 
Q 1259 2794 1537 2939 
Q 1816 3084 2150 3084 
Q 2853 3084 3261 2657 
Q 3669 2231 3669 1497 
Q 3669 778 3244 343 
Q 2819 -91 2113 -91 
Q 1303 -91 875 529 
Q 447 1150 447 2328 
Q 447 3434 972 4092 
Q 1497 4750 2381 4750 
Q 2619 4750 2861 4703 
Q 3103 4656 3366 4563 
z
" transform="scale(0.015625)"/>
       </defs>
       <use xlink:href="#DejaVuSans-36"/>
       <use xlink:href="#DejaVuSans-30" transform="translate(63.623047 0)"/>
       <use xlink:href="#DejaVuSans-30" transform="translate(127.246094 0)"/>
       <use xlink:href="#DejaVuSans-30" transform="translate(190.869141 0)"/>
      </g>
     </g>
    </g>
    <g id="ytick_5">
     <g id="line2d_14">
      <g>
       <use xlink:href="#me61518ab8b" x="59.690625" y="118.189275" style="stroke: #000000; stroke-width: 0.8"/>
      </g>
     </g>
     <g id="text_15">
      <!-- 8000 -->
      <g transform="translate(27.240625 121.988494) scale(0.1 -0.1)">
       <defs>
        <path id="DejaVuSans-38" d="M 2034 2216 
Q 1584 2216 1326 1975 
Q 1069 1734 1069 1313 
Q 1069 891 1326 650 
Q 1584 409 2034 409 
Q 2484 409 2743 651 
Q 3003 894 3003 1313 
Q 3003 1734 2745 1975 
Q 2488 2216 2034 2216 
z
M 1403 2484 
Q 997 2584 770 2862 
Q 544 3141 544 3541 
Q 544 4100 942 4425 
Q 1341 4750 2034 4750 
Q 2731 4750 3128 4425 
Q 3525 4100 3525 3541 
Q 3525 3141 3298 2862 
Q 3072 2584 2669 2484 
Q 3125 2378 3379 2068 
Q 3634 1759 3634 1313 
Q 3634 634 3220 271 
Q 2806 -91 2034 -91 
Q 1263 -91 848 271 
Q 434 634 434 1313 
Q 434 1759 690 2068 
Q 947 2378 1403 2484 
z
M 1172 3481 
Q 1172 3119 1398 2916 
Q 1625 2713 2034 2713 
Q 2441 2713 2670 2916 
Q 2900 3119 2900 3481 
Q 2900 3844 2670 4047 
Q 2441 4250 2034 4250 
Q 1625 4250 1398 4047 
Q 1172 3844 1172 3481 
z
" transform="scale(0.015625)"/>
       </defs>
       <use xlink:href="#DejaVuSans-38"/>
       <use xlink:href="#DejaVuSans-30" transform="translate(63.623047 0)"/>
       <use xlink:href="#DejaVuSans-30" transform="translate(127.246094 0)"/>
       <use xlink:href="#DejaVuSans-30" transform="translate(190.869141 0)"/>
      </g>
     </g>
    </g>
    <g id="ytick_6">
     <g id="line2d_15">
      <g>
       <use xlink:href="#me61518ab8b" x="59.690625" y="93.420631" style="stroke: #000000; stroke-width: 0.8"/>
      </g>
     </g>
     <g id="text_16">
      <!-- 10000 -->
      <g transform="translate(20.878125 97.219849) scale(0.1 -0.1)">
       <use xlink:href="#DejaVuSans-31"/>
       <use xlink:href="#DejaVuSans-30" transform="translate(63.623047 0)"/>
       <use xlink:href="#DejaVuSans-30" transform="translate(127.246094 0)"/>
       <use xlink:href="#DejaVuSans-30" transform="translate(190.869141 0)"/>
       <use xlink:href="#DejaVuSans-30" transform="translate(254.492188 0)"/>
      </g>
     </g>
    </g>
    <g id="ytick_7">
     <g id="line2d_16">
      <g>
       <use xlink:href="#me61518ab8b" x="59.690625" y="68.651986" style="stroke: #000000; stroke-width: 0.8"/>
      </g>
     </g>
     <g id="text_17">
      <!-- 12000 -->
      <g transform="translate(20.878125 72.451205) scale(0.1 -0.1)">
       <use xlink:href="#DejaVuSans-31"/>
       <use xlink:href="#DejaVuSans-32" transform="translate(63.623047 0)"/>
       <use xlink:href="#DejaVuSans-30" transform="translate(127.246094 0)"/>
       <use xlink:href="#DejaVuSans-30" transform="translate(190.869141 0)"/>
       <use xlink:href="#DejaVuSans-30" transform="translate(254.492188 0)"/>
      </g>
     </g>
    </g>
    <g id="ytick_8">
     <g id="line2d_17">
      <g>
       <use xlink:href="#me61518ab8b" x="59.690625" y="43.883342" style="stroke: #000000; stroke-width: 0.8"/>
      </g>
     </g>
     <g id="text_18">
      <!-- 14000 -->
      <g transform="translate(20.878125 47.682561) scale(0.1 -0.1)">
       <use xlink:href="#DejaVuSans-31"/>
       <use xlink:href="#DejaVuSans-34" transform="translate(63.623047 0)"/>
       <use xlink:href="#DejaVuSans-30" transform="translate(127.246094 0)"/>
       <use xlink:href="#DejaVuSans-30" transform="translate(190.869141 0)"/>
       <use xlink:href="#DejaVuSans-30" transform="translate(254.492188 0)"/>
      </g>
     </g>
    </g>
    <g id="ytick_9">
     <g id="line2d_18">
      <g>
       <use xlink:href="#me61518ab8b" x="59.690625" y="19.114697" style="stroke: #000000; stroke-width: 0.8"/>
      </g>
     </g>
     <g id="text_19">
      <!-- 16000 -->
      <g transform="translate(20.878125 22.913916) scale(0.1 -0.1)">
       <use xlink:href="#DejaVuSans-31"/>
       <use xlink:href="#DejaVuSans-36" transform="translate(63.623047 0)"/>
       <use xlink:href="#DejaVuSans-30" transform="translate(127.246094 0)"/>
       <use xlink:href="#DejaVuSans-30" transform="translate(190.869141 0)"/>
       <use xlink:href="#DejaVuSans-30" transform="translate(254.492188 0)"/>
      </g>
     </g>
    </g>
    <g id="text_20">
     <!-- [dimensionless] -->
     <g transform="translate(14.798438 157.557344) rotate(-90) scale(0.1 -0.1)">
      <defs>
       <path id="DejaVuSans-6d" d="M 3328 2828 
Q 3544 3216 3844 3400 
Q 4144 3584 4550 3584 
Q 5097 3584 5394 3201 
Q 5691 2819 5691 2113 
L 5691 0 
L 5113 0 
L 5113 2094 
Q 5113 2597 4934 2840 
Q 4756 3084 4391 3084 
Q 3944 3084 3684 2787 
Q 3425 2491 3425 1978 
L 3425 0 
L 2847 0 
L 2847 2094 
Q 2847 2600 2669 2842 
Q 2491 3084 2119 3084 
Q 1678 3084 1418 2786 
Q 1159 2488 1159 1978 
L 1159 0 
L 581 0 
L 581 3500 
L 1159 3500 
L 1159 2956 
Q 1356 3278 1631 3431 
Q 1906 3584 2284 3584 
Q 2666 3584 2933 3390 
Q 3200 3197 3328 2828 
z
" transform="scale(0.015625)"/>
       <path id="DejaVuSans-65" d="M 3597 1894 
L 3597 1613 
L 953 1613 
Q 991 1019 1311 708 
Q 1631 397 2203 397 
Q 2534 397 2845 478 
Q 3156 559 3463 722 
L 3463 178 
Q 3153 47 2828 -22 
Q 2503 -91 2169 -91 
Q 1331 -91 842 396 
Q 353 884 353 1716 
Q 353 2575 817 3079 
Q 1281 3584 2069 3584 
Q 2775 3584 3186 3129 
Q 3597 2675 3597 1894 
z
M 3022 2063 
Q 3016 2534 2758 2815 
Q 2500 3097 2075 3097 
Q 1594 3097 1305 2825 
Q 1016 2553 972 2059 
L 3022 2063 
z
" transform="scale(0.015625)"/>
       <path id="DejaVuSans-6f" d="M 1959 3097 
Q 1497 3097 1228 2736 
Q 959 2375 959 1747 
Q 959 1119 1226 758 
Q 1494 397 1959 397 
Q 2419 397 2687 759 
Q 2956 1122 2956 1747 
Q 2956 2369 2687 2733 
Q 2419 3097 1959 3097 
z
M 1959 3584 
Q 2709 3584 3137 3096 
Q 3566 2609 3566 1747 
Q 3566 888 3137 398 
Q 2709 -91 1959 -91 
Q 1206 -91 779 398 
Q 353 888 353 1747 
Q 353 2609 779 3096 
Q 1206 3584 1959 3584 
z
" transform="scale(0.015625)"/>
       <path id="DejaVuSans-6c" d="M 603 4863 
L 1178 4863 
L 1178 0 
L 603 0 
L 603 4863 
z
" transform="scale(0.015625)"/>
      </defs>
      <use xlink:href="#DejaVuSans-5b"/>
      <use xlink:href="#DejaVuSans-64" transform="translate(39.013672 0)"/>
      <use xlink:href="#DejaVuSans-69" transform="translate(102.490234 0)"/>
      <use xlink:href="#DejaVuSans-6d" transform="translate(130.273438 0)"/>
      <use xlink:href="#DejaVuSans-65" transform="translate(227.685547 0)"/>
      <use xlink:href="#DejaVuSans-6e" transform="translate(289.208984 0)"/>
      <use xlink:href="#DejaVuSans-73" transform="translate(352.587891 0)"/>
      <use xlink:href="#DejaVuSans-69" transform="translate(404.6875 0)"/>
      <use xlink:href="#DejaVuSans-6f" transform="translate(432.470703 0)"/>
      <use xlink:href="#DejaVuSans-6e" transform="translate(493.652344 0)"/>
      <use xlink:href="#DejaVuSans-6c" transform="translate(557.03125 0)"/>
      <use xlink:href="#DejaVuSans-65" transform="translate(584.814453 0)"/>
      <use xlink:href="#DejaVuSans-73" transform="translate(646.337891 0)"/>
      <use xlink:href="#DejaVuSans-73" transform="translate(698.4375 0)"/>
      <use xlink:href="#DejaVuSans-5d" transform="translate(750.537109 0)"/>
     </g>
    </g>
   </g>
   <g id="line2d_19">
    <path d="M 74.908807 217.637947 
L 76.430625 217.637947 
L 76.430625 218.076573 
L 80.99608 218.1092 
L 80.99608 218.369998 
L 82.517898 218.369998 
L 82.517898 218.197321 
L 84.039716 218.197321 
L 84.039716 218.042695 
L 85.561534 218.042695 
L 85.561534 218.214496 
L 87.083352 218.214496 
L 87.083352 218.057974 
L 88.60517 218.057974 
L 88.60517 218.215086 
L 93.170625 218.289744 
L 93.170625 217.806421 
L 97.73608 217.727959 
L 97.73608 217.528764 
L 103.823352 217.441836 
L 103.823352 217.131432 
L 105.34517 217.131432 
L 105.34517 211.634894 
L 106.866989 211.634894 
L 106.866989 210.216564 
L 108.388807 210.216564 
L 108.388807 210.760728 
L 109.910625 210.760728 
L 109.910625 202.480534 
L 111.432443 202.480534 
L 111.432443 207.493055 
L 112.954261 207.493055 
L 112.954261 215.893234 
L 114.47608 215.893234 
L 114.47608 217.086706 
L 117.519716 217.056388 
L 117.519716 214.325654 
L 119.041534 214.325654 
L 119.041534 205.796091 
L 120.563352 205.796091 
L 120.563352 209.398285 
L 123.606989 209.477999 
L 123.606989 202.199654 
L 125.128807 202.199654 
L 125.128807 210.214959 
L 126.650625 210.214959 
L 126.650625 216.035616 
L 128.172443 216.035616 
L 128.172443 216.373342 
L 129.694261 216.373342 
L 129.694261 211.054368 
L 131.21608 211.054368 
L 131.21608 189.741233 
L 132.737898 189.741233 
L 132.737898 193.227264 
L 134.259716 193.227264 
L 134.259716 211.61145 
L 135.781534 211.61145 
L 135.781534 215.741451 
L 137.303352 215.741451 
L 137.303352 216.708979 
L 138.82517 216.708979 
L 138.82517 215.85911 
L 140.346989 215.85911 
L 140.346989 216.365547 
L 141.868807 216.365547 
L 141.868807 216.126842 
L 143.390625 216.126842 
L 143.390625 215.821322 
L 144.912443 215.821322 
L 144.912443 216.175502 
L 147.95608 216.180504 
L 147.95608 215.838307 
L 149.477898 215.838307 
L 149.477898 208.476146 
L 150.999716 208.476146 
L 150.999716 192.780818 
L 152.521534 192.780818 
L 152.521534 197.410999 
L 154.043352 197.410999 
L 154.043352 212.914216 
L 155.56517 212.914216 
L 155.56517 215.842884 
L 157.086989 215.842884 
L 157.086989 216.173824 
L 160.130625 216.27363 
L 160.130625 210.74978 
L 161.652443 210.74978 
L 161.652443 189.326717 
L 163.174261 189.326717 
L 163.174261 187.905403 
L 164.69608 187.905403 
L 164.69608 210.317782 
L 166.217898 210.317782 
L 166.217898 215.322863 
L 167.739716 215.322863 
L 167.739716 216.083064 
L 170.783352 216.170221 
L 170.783352 216.304182 
L 172.30517 216.304182 
L 172.30517 216.691777 
L 175.348807 216.785962 
L 175.348807 216.534971 
L 179.914261 216.576403 
L 179.914261 213.40942 
L 181.43608 213.40942 
L 181.43608 190.759949 
L 182.957898 190.759949 
L 182.957898 167.195094 
L 184.479716 167.195094 
L 184.479716 193.864742 
L 186.001534 193.864742 
L 186.001534 211.916329 
L 187.523352 211.916329 
L 187.523352 204.898387 
L 189.04517 204.898387 
L 189.04517 172.827765 
L 190.566989 172.827765 
L 190.566989 174.608207 
L 192.088807 174.608207 
L 192.088807 208.215278 
L 193.610625 208.215278 
L 193.610625 214.782809 
L 195.132443 214.782809 
L 195.132443 214.094813 
L 196.654261 214.094813 
L 196.654261 215.349988 
L 198.17608 215.349988 
L 198.17608 217.683849 
L 199.697898 217.683849 
L 199.697898 217.947571 
L 201.219716 217.947571 
L 201.219716 214.371333 
L 202.741534 214.371333 
L 202.741534 211.385021 
L 204.263352 211.385021 
L 204.263352 217.498885 
L 205.78517 217.498885 
L 205.78517 218.089502 
L 207.306989 218.089502 
L 207.306989 218.218355 
L 208.828807 218.218355 
L 208.828807 218.360656 
L 210.350625 218.360656 
L 210.350625 218.757945 
L 211.872443 218.757945 
L 211.872443 218.378985 
L 216.437898 218.477914 
L 216.437898 218.231899 
L 217.959716 218.231899 
L 217.959716 218.460826 
L 219.481534 218.460826 
L 219.481534 218.292631 
L 222.52517 218.227393 
L 222.52517 217.95737 
L 224.046989 217.95737 
L 224.046989 217.660721 
L 225.568807 217.660721 
L 225.568807 217.269556 
L 227.090625 217.269556 
L 227.090625 217.060348 
L 228.612443 217.060348 
L 228.612443 216.76538 
L 231.65608 216.759727 
L 231.65608 216.314846 
L 233.177898 216.314846 
L 233.177898 215.981809 
L 236.221534 215.99174 
L 236.221534 215.707013 
L 237.743352 215.707013 
L 237.743352 215.567689 
L 239.26517 215.567689 
L 239.26517 215.049833 
L 242.308807 215.000643 
L 242.308807 214.753012 
L 243.830625 214.753012 
L 243.830625 214.371197 
L 245.352443 214.371197 
L 245.352443 213.822521 
L 246.874261 213.822521 
L 246.874261 214.801292 
L 248.39608 214.801292 
L 248.39608 213.945815 
L 249.917898 213.945815 
L 249.917898 214.459993 
L 251.439716 214.459993 
L 251.439716 214.935738 
L 252.961534 214.935738 
L 252.961534 215.141329 
L 254.483352 215.141329 
L 254.483352 215.687443 
L 256.00517 215.687443 
L 256.00517 215.951531 
L 259.048807 215.868446 
L 259.048807 215.75081 
L 260.570625 215.75081 
L 260.570625 215.633943 
L 262.092443 215.633943 
L 262.092443 216.171934 
L 263.614261 216.171934 
L 263.614261 215.996742 
L 265.13608 215.996742 
L 265.13608 216.297958 
L 268.179716 216.394078 
L 268.179716 216.604197 
L 271.223352 216.493173 
L 271.223352 216.444351 
L 274.266989 216.462573 
L 274.266989 216.611941 
L 275.788807 216.611941 
L 275.788807 216.812414 
L 280.354261 216.785046 
L 280.354261 216.574553 
L 286.441534 216.530987 
L 286.441534 216.782345 
L 292.528807 216.683703 
L 292.528807 216.515702 
L 294.050625 216.515702 
L 294.050625 216.806604 
L 297.094261 216.838912 
L 297.094261 217.007461 
L 298.61608 217.007461 
L 298.61608 217.21293 
L 301.659716 217.147788 
L 301.659716 216.915001 
L 304.703352 216.817735 
L 304.703352 216.793261 
L 307.746989 216.775448 
L 307.746989 216.565088 
L 309.268807 216.565088 
L 309.268807 216.883203 
L 310.790625 216.883203 
L 310.790625 216.707727 
L 312.312443 216.707727 
L 312.312443 216.532131 
L 315.35608 216.613507 
L 315.35608 216.781111 
L 316.877898 216.781111 
L 316.877898 216.328478 
L 321.443352 216.261583 
L 321.443352 216.610935 
L 322.96517 216.610935 
L 322.96517 216.215425 
L 324.486989 216.215425 
L 324.486989 215.221423 
L 327.530625 215.115973 
L 327.530625 213.736121 
L 329.052443 213.736121 
L 329.052443 211.224796 
L 330.574261 211.224796 
L 330.574261 205.980839 
L 332.09608 205.980839 
L 332.09608 194.160991 
L 333.617898 194.160991 
L 333.617898 153.199932 
L 335.139716 153.199932 
L 335.139716 28.984253 
L 336.661534 28.984253 
L 336.661534 17.829928 
L 338.183352 17.829928 
L 338.183352 138.726693 
L 339.70517 138.726693 
L 339.70517 188.437006 
L 341.226989 188.437006 
L 341.226989 200.45618 
L 342.748807 200.45618 
L 342.748807 208.668022 
L 344.270625 208.668022 
L 344.270625 212.503944 
L 345.792443 212.503944 
L 345.792443 213.938302 
L 347.314261 213.938302 
L 347.314261 215.65313 
L 348.83608 215.65313 
L 348.83608 216.352629 
L 350.357898 216.352629 
L 350.357898 216.504526 
L 351.879716 216.504526 
L 351.879716 216.775169 
L 356.44517 216.727393 
L 356.44517 216.645242 
L 357.966989 216.645242 
L 357.966989 216.473959 
L 359.488807 216.473959 
L 359.488807 215.892028 
L 364.054261 215.878893 
L 364.054261 216.643629 
L 365.57608 216.643629 
L 365.57608 216.984385 
L 367.097898 216.984385 
L 367.097898 216.826077 
L 368.619716 216.826077 
L 368.619716 217.182002 
L 370.141534 217.182002 
L 370.141534 216.863655 
L 371.663352 216.863655 
L 371.663352 217.108033 
L 379.272443 217.101549 
L 379.272443 217.101549 
" clip-path="url(#pe1bc6ef969)" style="fill: none; stroke: #1f77b4; stroke-width: 1.5; stroke-linecap: square"/>
   </g>
   <g id="LineCollection_1">
    <path d="M 75.669716 217.700529 
L 75.669716 217.575365 
" clip-path="url(#pe1bc6ef969)" style="fill: none; stroke: #1f77b4; stroke-width: 1.5"/>
    <path d="M 77.191534 218.178754 
L 77.191534 217.974393 
" clip-path="url(#pe1bc6ef969)" style="fill: none; stroke: #1f77b4; stroke-width: 1.5"/>
    <path d="M 78.713352 218.185782 
L 78.713352 217.974648 
" clip-path="url(#pe1bc6ef969)" style="fill: none; stroke: #1f77b4; stroke-width: 1.5"/>
    <path d="M 80.23517 218.21268 
L 80.23517 218.005721 
" clip-path="url(#pe1bc6ef969)" style="fill: none; stroke: #1f77b4; stroke-width: 1.5"/>
    <path d="M 81.756989 218.488949 
L 81.756989 218.251047 
" clip-path="url(#pe1bc6ef969)" style="fill: none; stroke: #1f77b4; stroke-width: 1.5"/>
    <path d="M 83.278807 218.29651 
L 83.278807 218.098131 
" clip-path="url(#pe1bc6ef969)" style="fill: none; stroke: #1f77b4; stroke-width: 1.5"/>
    <path d="M 84.800625 218.146694 
L 84.800625 217.938696 
" clip-path="url(#pe1bc6ef969)" style="fill: none; stroke: #1f77b4; stroke-width: 1.5"/>
    <path d="M 86.322443 218.340761 
L 86.322443 218.088232 
" clip-path="url(#pe1bc6ef969)" style="fill: none; stroke: #1f77b4; stroke-width: 1.5"/>
    <path d="M 87.844261 218.188379 
L 87.844261 217.927569 
" clip-path="url(#pe1bc6ef969)" style="fill: none; stroke: #1f77b4; stroke-width: 1.5"/>
    <path d="M 89.36608 218.345983 
L 89.36608 218.08419 
" clip-path="url(#pe1bc6ef969)" style="fill: none; stroke: #1f77b4; stroke-width: 1.5"/>
    <path d="M 90.887898 218.300489 
L 90.887898 218.019937 
" clip-path="url(#pe1bc6ef969)" style="fill: none; stroke: #1f77b4; stroke-width: 1.5"/>
    <path d="M 92.409716 218.422067 
L 92.409716 218.157422 
" clip-path="url(#pe1bc6ef969)" style="fill: none; stroke: #1f77b4; stroke-width: 1.5"/>
    <path d="M 93.931534 217.936591 
L 93.931534 217.676252 
" clip-path="url(#pe1bc6ef969)" style="fill: none; stroke: #1f77b4; stroke-width: 1.5"/>
    <path d="M 95.453352 217.949595 
L 95.453352 217.653397 
" clip-path="url(#pe1bc6ef969)" style="fill: none; stroke: #1f77b4; stroke-width: 1.5"/>
    <path d="M 96.97517 217.864941 
L 96.97517 217.590978 
" clip-path="url(#pe1bc6ef969)" style="fill: none; stroke: #1f77b4; stroke-width: 1.5"/>
    <path d="M 98.496989 217.681641 
L 98.496989 217.375888 
" clip-path="url(#pe1bc6ef969)" style="fill: none; stroke: #1f77b4; stroke-width: 1.5"/>
    <path d="M 100.018807 217.784666 
L 100.018807 217.477895 
" clip-path="url(#pe1bc6ef969)" style="fill: none; stroke: #1f77b4; stroke-width: 1.5"/>
    <path d="M 101.540625 217.749037 
L 101.540625 217.458797 
" clip-path="url(#pe1bc6ef969)" style="fill: none; stroke: #1f77b4; stroke-width: 1.5"/>
    <path d="M 103.062443 217.580447 
L 103.062443 217.303225 
" clip-path="url(#pe1bc6ef969)" style="fill: none; stroke: #1f77b4; stroke-width: 1.5"/>
    <path d="M 104.584261 217.276752 
L 104.584261 216.986111 
" clip-path="url(#pe1bc6ef969)" style="fill: none; stroke: #1f77b4; stroke-width: 1.5"/>
    <path d="M 106.10608 211.867754 
L 106.10608 211.402034 
" clip-path="url(#pe1bc6ef969)" style="fill: none; stroke: #1f77b4; stroke-width: 1.5"/>
    <path d="M 107.627898 210.46089 
L 107.627898 209.972239 
" clip-path="url(#pe1bc6ef969)" style="fill: none; stroke: #1f77b4; stroke-width: 1.5"/>
    <path d="M 109.149716 210.995382 
L 109.149716 210.526074 
" clip-path="url(#pe1bc6ef969)" style="fill: none; stroke: #1f77b4; stroke-width: 1.5"/>
    <path d="M 110.671534 202.786896 
L 110.671534 202.174172 
" clip-path="url(#pe1bc6ef969)" style="fill: none; stroke: #1f77b4; stroke-width: 1.5"/>
    <path d="M 112.193352 207.754417 
L 112.193352 207.231693 
" clip-path="url(#pe1bc6ef969)" style="fill: none; stroke: #1f77b4; stroke-width: 1.5"/>
    <path d="M 113.71517 216.067255 
L 113.71517 215.719212 
" clip-path="url(#pe1bc6ef969)" style="fill: none; stroke: #1f77b4; stroke-width: 1.5"/>
    <path d="M 115.236989 217.230621 
L 115.236989 216.942792 
" clip-path="url(#pe1bc6ef969)" style="fill: none; stroke: #1f77b4; stroke-width: 1.5"/>
    <path d="M 116.758807 217.193775 
L 116.758807 216.919001 
" clip-path="url(#pe1bc6ef969)" style="fill: none; stroke: #1f77b4; stroke-width: 1.5"/>
    <path d="M 118.280625 214.500756 
L 118.280625 214.150552 
" clip-path="url(#pe1bc6ef969)" style="fill: none; stroke: #1f77b4; stroke-width: 1.5"/>
    <path d="M 119.802443 206.085829 
L 119.802443 205.506353 
" clip-path="url(#pe1bc6ef969)" style="fill: none; stroke: #1f77b4; stroke-width: 1.5"/>
    <path d="M 121.324261 209.640853 
L 121.324261 209.155717 
" clip-path="url(#pe1bc6ef969)" style="fill: none; stroke: #1f77b4; stroke-width: 1.5"/>
    <path d="M 122.84608 209.71453 
L 122.84608 209.241468 
" clip-path="url(#pe1bc6ef969)" style="fill: none; stroke: #1f77b4; stroke-width: 1.5"/>
    <path d="M 124.367898 202.504542 
L 124.367898 201.894766 
" clip-path="url(#pe1bc6ef969)" style="fill: none; stroke: #1f77b4; stroke-width: 1.5"/>
    <path d="M 125.889716 210.460061 
L 125.889716 209.969858 
" clip-path="url(#pe1bc6ef969)" style="fill: none; stroke: #1f77b4; stroke-width: 1.5"/>
    <path d="M 127.411534 216.218742 
L 127.411534 215.85249 
" clip-path="url(#pe1bc6ef969)" style="fill: none; stroke: #1f77b4; stroke-width: 1.5"/>
    <path d="M 128.933352 216.519935 
L 128.933352 216.226749 
" clip-path="url(#pe1bc6ef969)" style="fill: none; stroke: #1f77b4; stroke-width: 1.5"/>
    <path d="M 130.45517 211.264049 
L 130.45517 210.844687 
" clip-path="url(#pe1bc6ef969)" style="fill: none; stroke: #1f77b4; stroke-width: 1.5"/>
    <path d="M 131.976989 190.114592 
L 131.976989 189.367873 
" clip-path="url(#pe1bc6ef969)" style="fill: none; stroke: #1f77b4; stroke-width: 1.5"/>
    <path d="M 133.498807 193.554818 
L 133.498807 192.89971 
" clip-path="url(#pe1bc6ef969)" style="fill: none; stroke: #1f77b4; stroke-width: 1.5"/>
    <path d="M 135.020625 211.821895 
L 135.020625 211.401005 
" clip-path="url(#pe1bc6ef969)" style="fill: none; stroke: #1f77b4; stroke-width: 1.5"/>
    <path d="M 136.542443 215.901681 
L 136.542443 215.581221 
" clip-path="url(#pe1bc6ef969)" style="fill: none; stroke: #1f77b4; stroke-width: 1.5"/>
    <path d="M 138.064261 216.856835 
L 138.064261 216.561123 
" clip-path="url(#pe1bc6ef969)" style="fill: none; stroke: #1f77b4; stroke-width: 1.5"/>
    <path d="M 139.58608 216.016176 
L 139.58608 215.702044 
" clip-path="url(#pe1bc6ef969)" style="fill: none; stroke: #1f77b4; stroke-width: 1.5"/>
    <path d="M 141.107898 216.514014 
L 141.107898 216.21708 
" clip-path="url(#pe1bc6ef969)" style="fill: none; stroke: #1f77b4; stroke-width: 1.5"/>
    <path d="M 142.629716 216.277352 
L 142.629716 215.976333 
" clip-path="url(#pe1bc6ef969)" style="fill: none; stroke: #1f77b4; stroke-width: 1.5"/>
    <path d="M 144.151534 215.960056 
L 144.151534 215.682588 
" clip-path="url(#pe1bc6ef969)" style="fill: none; stroke: #1f77b4; stroke-width: 1.5"/>
    <path d="M 145.673352 216.320137 
L 145.673352 216.030867 
" clip-path="url(#pe1bc6ef969)" style="fill: none; stroke: #1f77b4; stroke-width: 1.5"/>
    <path d="M 147.19517 216.324094 
L 147.19517 216.036914 
" clip-path="url(#pe1bc6ef969)" style="fill: none; stroke: #1f77b4; stroke-width: 1.5"/>
    <path d="M 148.716989 215.988706 
L 148.716989 215.687908 
" clip-path="url(#pe1bc6ef969)" style="fill: none; stroke: #1f77b4; stroke-width: 1.5"/>
    <path d="M 150.238807 208.706416 
L 150.238807 208.245877 
" clip-path="url(#pe1bc6ef969)" style="fill: none; stroke: #1f77b4; stroke-width: 1.5"/>
    <path d="M 151.760625 193.082721 
L 151.760625 192.478914 
" clip-path="url(#pe1bc6ef969)" style="fill: none; stroke: #1f77b4; stroke-width: 1.5"/>
    <path d="M 153.282443 197.696968 
L 153.282443 197.12503 
" clip-path="url(#pe1bc6ef969)" style="fill: none; stroke: #1f77b4; stroke-width: 1.5"/>
    <path d="M 154.804261 213.1047 
L 154.804261 212.723732 
" clip-path="url(#pe1bc6ef969)" style="fill: none; stroke: #1f77b4; stroke-width: 1.5"/>
    <path d="M 156.32608 215.986759 
L 156.32608 215.699008 
" clip-path="url(#pe1bc6ef969)" style="fill: none; stroke: #1f77b4; stroke-width: 1.5"/>
    <path d="M 157.847898 216.306378 
L 157.847898 216.04127 
" clip-path="url(#pe1bc6ef969)" style="fill: none; stroke: #1f77b4; stroke-width: 1.5"/>
    <path d="M 159.369716 216.42087 
L 159.369716 216.12639 
" clip-path="url(#pe1bc6ef969)" style="fill: none; stroke: #1f77b4; stroke-width: 1.5"/>
    <path d="M 160.891534 210.940871 
L 160.891534 210.558688 
" clip-path="url(#pe1bc6ef969)" style="fill: none; stroke: #1f77b4; stroke-width: 1.5"/>
    <path d="M 162.413352 189.615896 
L 162.413352 189.037538 
" clip-path="url(#pe1bc6ef969)" style="fill: none; stroke: #1f77b4; stroke-width: 1.5"/>
    <path d="M 163.93517 188.244738 
L 163.93517 187.566069 
" clip-path="url(#pe1bc6ef969)" style="fill: none; stroke: #1f77b4; stroke-width: 1.5"/>
    <path d="M 165.456989 210.518278 
L 165.456989 210.117287 
" clip-path="url(#pe1bc6ef969)" style="fill: none; stroke: #1f77b4; stroke-width: 1.5"/>
    <path d="M 166.978807 215.469661 
L 166.978807 215.176064 
" clip-path="url(#pe1bc6ef969)" style="fill: none; stroke: #1f77b4; stroke-width: 1.5"/>
    <path d="M 168.500625 216.234518 
L 168.500625 215.931609 
" clip-path="url(#pe1bc6ef969)" style="fill: none; stroke: #1f77b4; stroke-width: 1.5"/>
    <path d="M 170.022443 216.321608 
L 170.022443 216.018834 
" clip-path="url(#pe1bc6ef969)" style="fill: none; stroke: #1f77b4; stroke-width: 1.5"/>
    <path d="M 171.544261 216.449118 
L 171.544261 216.159246 
" clip-path="url(#pe1bc6ef969)" style="fill: none; stroke: #1f77b4; stroke-width: 1.5"/>
    <path d="M 173.06608 216.826437 
L 173.06608 216.557117 
" clip-path="url(#pe1bc6ef969)" style="fill: none; stroke: #1f77b4; stroke-width: 1.5"/>
    <path d="M 174.587898 216.930739 
L 174.587898 216.641184 
" clip-path="url(#pe1bc6ef969)" style="fill: none; stroke: #1f77b4; stroke-width: 1.5"/>
    <path d="M 176.109716 216.667007 
L 176.109716 216.402935 
" clip-path="url(#pe1bc6ef969)" style="fill: none; stroke: #1f77b4; stroke-width: 1.5"/>
    <path d="M 177.631534 216.629887 
L 177.631534 216.381272 
" clip-path="url(#pe1bc6ef969)" style="fill: none; stroke: #1f77b4; stroke-width: 1.5"/>
    <path d="M 179.153352 216.708807 
L 179.153352 216.443999 
" clip-path="url(#pe1bc6ef969)" style="fill: none; stroke: #1f77b4; stroke-width: 1.5"/>
    <path d="M 180.67517 213.578104 
L 180.67517 213.240737 
" clip-path="url(#pe1bc6ef969)" style="fill: none; stroke: #1f77b4; stroke-width: 1.5"/>
    <path d="M 182.196989 191.085215 
L 182.196989 190.434683 
" clip-path="url(#pe1bc6ef969)" style="fill: none; stroke: #1f77b4; stroke-width: 1.5"/>
    <path d="M 183.718807 167.635666 
L 183.718807 166.754522 
" clip-path="url(#pe1bc6ef969)" style="fill: none; stroke: #1f77b4; stroke-width: 1.5"/>
    <path d="M 185.240625 194.146464 
L 185.240625 193.583019 
" clip-path="url(#pe1bc6ef969)" style="fill: none; stroke: #1f77b4; stroke-width: 1.5"/>
    <path d="M 186.762443 212.120088 
L 186.762443 211.71257 
" clip-path="url(#pe1bc6ef969)" style="fill: none; stroke: #1f77b4; stroke-width: 1.5"/>
    <path d="M 188.284261 205.136019 
L 188.284261 204.660754 
" clip-path="url(#pe1bc6ef969)" style="fill: none; stroke: #1f77b4; stroke-width: 1.5"/>
    <path d="M 189.80608 173.196248 
L 189.80608 172.459282 
" clip-path="url(#pe1bc6ef969)" style="fill: none; stroke: #1f77b4; stroke-width: 1.5"/>
    <path d="M 191.327898 174.949324 
L 191.327898 174.267091 
" clip-path="url(#pe1bc6ef969)" style="fill: none; stroke: #1f77b4; stroke-width: 1.5"/>
    <path d="M 192.849716 208.439735 
L 192.849716 207.99082 
" clip-path="url(#pe1bc6ef969)" style="fill: none; stroke: #1f77b4; stroke-width: 1.5"/>
    <path d="M 194.371534 214.970996 
L 194.371534 214.594622 
" clip-path="url(#pe1bc6ef969)" style="fill: none; stroke: #1f77b4; stroke-width: 1.5"/>
    <path d="M 195.893352 214.289237 
L 195.893352 213.90039 
" clip-path="url(#pe1bc6ef969)" style="fill: none; stroke: #1f77b4; stroke-width: 1.5"/>
    <path d="M 197.41517 215.506126 
L 197.41517 215.193849 
" clip-path="url(#pe1bc6ef969)" style="fill: none; stroke: #1f77b4; stroke-width: 1.5"/>
    <path d="M 198.936989 217.795586 
L 198.936989 217.572112 
" clip-path="url(#pe1bc6ef969)" style="fill: none; stroke: #1f77b4; stroke-width: 1.5"/>
    <path d="M 200.458807 218.053254 
L 200.458807 217.841889 
" clip-path="url(#pe1bc6ef969)" style="fill: none; stroke: #1f77b4; stroke-width: 1.5"/>
    <path d="M 201.980625 214.538735 
L 201.980625 214.20393 
" clip-path="url(#pe1bc6ef969)" style="fill: none; stroke: #1f77b4; stroke-width: 1.5"/>
    <path d="M 203.502443 211.543811 
L 203.502443 211.226231 
" clip-path="url(#pe1bc6ef969)" style="fill: none; stroke: #1f77b4; stroke-width: 1.5"/>
    <path d="M 205.024261 217.615568 
L 205.024261 217.382202 
" clip-path="url(#pe1bc6ef969)" style="fill: none; stroke: #1f77b4; stroke-width: 1.5"/>
    <path d="M 206.54608 218.20285 
L 206.54608 217.976155 
" clip-path="url(#pe1bc6ef969)" style="fill: none; stroke: #1f77b4; stroke-width: 1.5"/>
    <path d="M 208.067898 218.330127 
L 208.067898 218.106583 
" clip-path="url(#pe1bc6ef969)" style="fill: none; stroke: #1f77b4; stroke-width: 1.5"/>
    <path d="M 209.589716 218.477388 
L 209.589716 218.243925 
" clip-path="url(#pe1bc6ef969)" style="fill: none; stroke: #1f77b4; stroke-width: 1.5"/>
    <path d="M 211.111534 218.88 
L 211.111534 218.635889 
" clip-path="url(#pe1bc6ef969)" style="fill: none; stroke: #1f77b4; stroke-width: 1.5"/>
    <path d="M 212.633352 218.495701 
L 212.633352 218.26227 
" clip-path="url(#pe1bc6ef969)" style="fill: none; stroke: #1f77b4; stroke-width: 1.5"/>
    <path d="M 214.15517 218.585573 
L 214.15517 218.3771 
" clip-path="url(#pe1bc6ef969)" style="fill: none; stroke: #1f77b4; stroke-width: 1.5"/>
    <path d="M 215.676989 218.582046 
L 215.676989 218.373781 
" clip-path="url(#pe1bc6ef969)" style="fill: none; stroke: #1f77b4; stroke-width: 1.5"/>
    <path d="M 217.198807 218.351514 
L 217.198807 218.112284 
" clip-path="url(#pe1bc6ef969)" style="fill: none; stroke: #1f77b4; stroke-width: 1.5"/>
    <path d="M 218.720625 218.579137 
L 218.720625 218.342515 
" clip-path="url(#pe1bc6ef969)" style="fill: none; stroke: #1f77b4; stroke-width: 1.5"/>
    <path d="M 220.242443 218.419215 
L 220.242443 218.166046 
" clip-path="url(#pe1bc6ef969)" style="fill: none; stroke: #1f77b4; stroke-width: 1.5"/>
    <path d="M 221.764261 218.338171 
L 221.764261 218.116615 
" clip-path="url(#pe1bc6ef969)" style="fill: none; stroke: #1f77b4; stroke-width: 1.5"/>
    <path d="M 223.28608 218.0737 
L 223.28608 217.84104 
" clip-path="url(#pe1bc6ef969)" style="fill: none; stroke: #1f77b4; stroke-width: 1.5"/>
    <path d="M 224.807898 217.764453 
L 224.807898 217.556989 
" clip-path="url(#pe1bc6ef969)" style="fill: none; stroke: #1f77b4; stroke-width: 1.5"/>
    <path d="M 226.329716 217.388266 
L 226.329716 217.150845 
" clip-path="url(#pe1bc6ef969)" style="fill: none; stroke: #1f77b4; stroke-width: 1.5"/>
    <path d="M 227.851534 217.1926 
L 227.851534 216.928096 
" clip-path="url(#pe1bc6ef969)" style="fill: none; stroke: #1f77b4; stroke-width: 1.5"/>
    <path d="M 229.373352 216.888645 
L 229.373352 216.642115 
" clip-path="url(#pe1bc6ef969)" style="fill: none; stroke: #1f77b4; stroke-width: 1.5"/>
    <path d="M 230.89517 216.883422 
L 230.89517 216.636032 
" clip-path="url(#pe1bc6ef969)" style="fill: none; stroke: #1f77b4; stroke-width: 1.5"/>
    <path d="M 232.416989 216.432176 
L 232.416989 216.197517 
" clip-path="url(#pe1bc6ef969)" style="fill: none; stroke: #1f77b4; stroke-width: 1.5"/>
    <path d="M 233.938807 216.109149 
L 233.938807 215.85447 
" clip-path="url(#pe1bc6ef969)" style="fill: none; stroke: #1f77b4; stroke-width: 1.5"/>
    <path d="M 235.460625 216.129795 
L 235.460625 215.853684 
" clip-path="url(#pe1bc6ef969)" style="fill: none; stroke: #1f77b4; stroke-width: 1.5"/>
    <path d="M 236.982443 215.845793 
L 236.982443 215.568232 
" clip-path="url(#pe1bc6ef969)" style="fill: none; stroke: #1f77b4; stroke-width: 1.5"/>
    <path d="M 238.504261 215.693281 
L 238.504261 215.442098 
" clip-path="url(#pe1bc6ef969)" style="fill: none; stroke: #1f77b4; stroke-width: 1.5"/>
    <path d="M 240.02608 215.189925 
L 240.02608 214.909741 
" clip-path="url(#pe1bc6ef969)" style="fill: none; stroke: #1f77b4; stroke-width: 1.5"/>
    <path d="M 241.547898 215.152411 
L 241.547898 214.848874 
" clip-path="url(#pe1bc6ef969)" style="fill: none; stroke: #1f77b4; stroke-width: 1.5"/>
    <path d="M 243.069716 214.894848 
L 243.069716 214.611175 
" clip-path="url(#pe1bc6ef969)" style="fill: none; stroke: #1f77b4; stroke-width: 1.5"/>
    <path d="M 244.591534 214.538223 
L 244.591534 214.204171 
" clip-path="url(#pe1bc6ef969)" style="fill: none; stroke: #1f77b4; stroke-width: 1.5"/>
    <path d="M 246.113352 214.010953 
L 246.113352 213.634089 
" clip-path="url(#pe1bc6ef969)" style="fill: none; stroke: #1f77b4; stroke-width: 1.5"/>
    <path d="M 247.63517 214.95251 
L 247.63517 214.650074 
" clip-path="url(#pe1bc6ef969)" style="fill: none; stroke: #1f77b4; stroke-width: 1.5"/>
    <path d="M 249.156989 214.1191 
L 249.156989 213.772531 
" clip-path="url(#pe1bc6ef969)" style="fill: none; stroke: #1f77b4; stroke-width: 1.5"/>
    <path d="M 250.678807 214.622594 
L 250.678807 214.297392 
" clip-path="url(#pe1bc6ef969)" style="fill: none; stroke: #1f77b4; stroke-width: 1.5"/>
    <path d="M 252.200625 215.067544 
L 252.200625 214.803932 
" clip-path="url(#pe1bc6ef969)" style="fill: none; stroke: #1f77b4; stroke-width: 1.5"/>
    <path d="M 253.722443 215.273813 
L 253.722443 215.008845 
" clip-path="url(#pe1bc6ef969)" style="fill: none; stroke: #1f77b4; stroke-width: 1.5"/>
    <path d="M 255.244261 215.811092 
L 255.244261 215.563794 
" clip-path="url(#pe1bc6ef969)" style="fill: none; stroke: #1f77b4; stroke-width: 1.5"/>
    <path d="M 256.76608 216.069869 
L 256.76608 215.833194 
" clip-path="url(#pe1bc6ef969)" style="fill: none; stroke: #1f77b4; stroke-width: 1.5"/>
    <path d="M 258.287898 215.992204 
L 258.287898 215.744688 
" clip-path="url(#pe1bc6ef969)" style="fill: none; stroke: #1f77b4; stroke-width: 1.5"/>
    <path d="M 259.809716 215.868657 
L 259.809716 215.632963 
" clip-path="url(#pe1bc6ef969)" style="fill: none; stroke: #1f77b4; stroke-width: 1.5"/>
    <path d="M 261.331534 215.783628 
L 261.331534 215.484258 
" clip-path="url(#pe1bc6ef969)" style="fill: none; stroke: #1f77b4; stroke-width: 1.5"/>
    <path d="M 262.853352 216.304194 
L 262.853352 216.039674 
" clip-path="url(#pe1bc6ef969)" style="fill: none; stroke: #1f77b4; stroke-width: 1.5"/>
    <path d="M 264.37517 216.130684 
L 264.37517 215.862801 
" clip-path="url(#pe1bc6ef969)" style="fill: none; stroke: #1f77b4; stroke-width: 1.5"/>
    <path d="M 265.896989 216.408531 
L 265.896989 216.187386 
" clip-path="url(#pe1bc6ef969)" style="fill: none; stroke: #1f77b4; stroke-width: 1.5"/>
    <path d="M 267.418807 216.50613 
L 267.418807 216.282026 
" clip-path="url(#pe1bc6ef969)" style="fill: none; stroke: #1f77b4; stroke-width: 1.5"/>
    <path d="M 268.940625 216.727793 
L 268.940625 216.480601 
" clip-path="url(#pe1bc6ef969)" style="fill: none; stroke: #1f77b4; stroke-width: 1.5"/>
    <path d="M 270.462443 216.616518 
L 270.462443 216.369827 
" clip-path="url(#pe1bc6ef969)" style="fill: none; stroke: #1f77b4; stroke-width: 1.5"/>
    <path d="M 271.984261 216.562777 
L 271.984261 216.325925 
" clip-path="url(#pe1bc6ef969)" style="fill: none; stroke: #1f77b4; stroke-width: 1.5"/>
    <path d="M 273.50608 216.570136 
L 273.50608 216.35501 
" clip-path="url(#pe1bc6ef969)" style="fill: none; stroke: #1f77b4; stroke-width: 1.5"/>
    <path d="M 275.027898 216.723624 
L 275.027898 216.500258 
" clip-path="url(#pe1bc6ef969)" style="fill: none; stroke: #1f77b4; stroke-width: 1.5"/>
    <path d="M 276.549716 216.919379 
L 276.549716 216.705449 
" clip-path="url(#pe1bc6ef969)" style="fill: none; stroke: #1f77b4; stroke-width: 1.5"/>
    <path d="M 278.071534 216.870135 
L 278.071534 216.633776 
" clip-path="url(#pe1bc6ef969)" style="fill: none; stroke: #1f77b4; stroke-width: 1.5"/>
    <path d="M 279.593352 216.902651 
L 279.593352 216.667441 
" clip-path="url(#pe1bc6ef969)" style="fill: none; stroke: #1f77b4; stroke-width: 1.5"/>
    <path d="M 281.11517 216.701358 
L 281.11517 216.447749 
" clip-path="url(#pe1bc6ef969)" style="fill: none; stroke: #1f77b4; stroke-width: 1.5"/>
    <path d="M 282.636989 216.668633 
L 282.636989 216.423229 
" clip-path="url(#pe1bc6ef969)" style="fill: none; stroke: #1f77b4; stroke-width: 1.5"/>
    <path d="M 284.158807 216.761672 
L 284.158807 216.522105 
" clip-path="url(#pe1bc6ef969)" style="fill: none; stroke: #1f77b4; stroke-width: 1.5"/>
    <path d="M 285.680625 216.645144 
L 285.680625 216.416829 
" clip-path="url(#pe1bc6ef969)" style="fill: none; stroke: #1f77b4; stroke-width: 1.5"/>
    <path d="M 287.202443 216.895573 
L 287.202443 216.669117 
" clip-path="url(#pe1bc6ef969)" style="fill: none; stroke: #1f77b4; stroke-width: 1.5"/>
    <path d="M 288.724261 216.903324 
L 288.724261 216.67824 
" clip-path="url(#pe1bc6ef969)" style="fill: none; stroke: #1f77b4; stroke-width: 1.5"/>
    <path d="M 290.24608 216.922851 
L 290.24608 216.675823 
" clip-path="url(#pe1bc6ef969)" style="fill: none; stroke: #1f77b4; stroke-width: 1.5"/>
    <path d="M 291.767898 216.796018 
L 291.767898 216.571388 
" clip-path="url(#pe1bc6ef969)" style="fill: none; stroke: #1f77b4; stroke-width: 1.5"/>
    <path d="M 293.289716 216.640034 
L 293.289716 216.391369 
" clip-path="url(#pe1bc6ef969)" style="fill: none; stroke: #1f77b4; stroke-width: 1.5"/>
    <path d="M 294.811534 216.922763 
L 294.811534 216.690444 
" clip-path="url(#pe1bc6ef969)" style="fill: none; stroke: #1f77b4; stroke-width: 1.5"/>
    <path d="M 296.333352 216.967557 
L 296.333352 216.710267 
" clip-path="url(#pe1bc6ef969)" style="fill: none; stroke: #1f77b4; stroke-width: 1.5"/>
    <path d="M 297.85517 217.118997 
L 297.85517 216.895925 
" clip-path="url(#pe1bc6ef969)" style="fill: none; stroke: #1f77b4; stroke-width: 1.5"/>
    <path d="M 299.376989 217.335976 
L 299.376989 217.089884 
" clip-path="url(#pe1bc6ef969)" style="fill: none; stroke: #1f77b4; stroke-width: 1.5"/>
    <path d="M 300.898807 217.263539 
L 300.898807 217.032038 
" clip-path="url(#pe1bc6ef969)" style="fill: none; stroke: #1f77b4; stroke-width: 1.5"/>
    <path d="M 302.420625 217.020148 
L 302.420625 216.809855 
" clip-path="url(#pe1bc6ef969)" style="fill: none; stroke: #1f77b4; stroke-width: 1.5"/>
    <path d="M 303.942443 216.948428 
L 303.942443 216.687041 
" clip-path="url(#pe1bc6ef969)" style="fill: none; stroke: #1f77b4; stroke-width: 1.5"/>
    <path d="M 305.464261 216.895818 
L 305.464261 216.690703 
" clip-path="url(#pe1bc6ef969)" style="fill: none; stroke: #1f77b4; stroke-width: 1.5"/>
    <path d="M 306.98608 216.884591 
L 306.98608 216.666306 
" clip-path="url(#pe1bc6ef969)" style="fill: none; stroke: #1f77b4; stroke-width: 1.5"/>
    <path d="M 308.507898 216.679695 
L 308.507898 216.450481 
" clip-path="url(#pe1bc6ef969)" style="fill: none; stroke: #1f77b4; stroke-width: 1.5"/>
    <path d="M 310.029716 217.003643 
L 310.029716 216.762764 
" clip-path="url(#pe1bc6ef969)" style="fill: none; stroke: #1f77b4; stroke-width: 1.5"/>
    <path d="M 311.551534 216.814848 
L 311.551534 216.600607 
" clip-path="url(#pe1bc6ef969)" style="fill: none; stroke: #1f77b4; stroke-width: 1.5"/>
    <path d="M 313.073352 216.663246 
L 313.073352 216.401015 
" clip-path="url(#pe1bc6ef969)" style="fill: none; stroke: #1f77b4; stroke-width: 1.5"/>
    <path d="M 314.59517 216.739981 
L 314.59517 216.487034 
" clip-path="url(#pe1bc6ef969)" style="fill: none; stroke: #1f77b4; stroke-width: 1.5"/>
    <path d="M 316.116989 216.906018 
L 316.116989 216.656205 
" clip-path="url(#pe1bc6ef969)" style="fill: none; stroke: #1f77b4; stroke-width: 1.5"/>
    <path d="M 317.638807 216.442558 
L 317.638807 216.214399 
" clip-path="url(#pe1bc6ef969)" style="fill: none; stroke: #1f77b4; stroke-width: 1.5"/>
    <path d="M 319.160625 216.534982 
L 319.160625 216.286935 
" clip-path="url(#pe1bc6ef969)" style="fill: none; stroke: #1f77b4; stroke-width: 1.5"/>
    <path d="M 320.682443 216.374347 
L 320.682443 216.148819 
" clip-path="url(#pe1bc6ef969)" style="fill: none; stroke: #1f77b4; stroke-width: 1.5"/>
    <path d="M 322.204261 216.72871 
L 322.204261 216.49316 
" clip-path="url(#pe1bc6ef969)" style="fill: none; stroke: #1f77b4; stroke-width: 1.5"/>
    <path d="M 323.72608 216.351553 
L 323.72608 216.079296 
" clip-path="url(#pe1bc6ef969)" style="fill: none; stroke: #1f77b4; stroke-width: 1.5"/>
    <path d="M 325.247898 215.377867 
L 325.247898 215.064979 
" clip-path="url(#pe1bc6ef969)" style="fill: none; stroke: #1f77b4; stroke-width: 1.5"/>
    <path d="M 326.769716 215.260833 
L 326.769716 214.971113 
" clip-path="url(#pe1bc6ef969)" style="fill: none; stroke: #1f77b4; stroke-width: 1.5"/>
    <path d="M 328.291534 213.915692 
L 328.291534 213.556551 
" clip-path="url(#pe1bc6ef969)" style="fill: none; stroke: #1f77b4; stroke-width: 1.5"/>
    <path d="M 329.813352 211.432671 
L 329.813352 211.016921 
" clip-path="url(#pe1bc6ef969)" style="fill: none; stroke: #1f77b4; stroke-width: 1.5"/>
    <path d="M 331.33517 206.241527 
L 331.33517 205.720151 
" clip-path="url(#pe1bc6ef969)" style="fill: none; stroke: #1f77b4; stroke-width: 1.5"/>
    <path d="M 332.856989 194.502039 
L 332.856989 193.819943 
" clip-path="url(#pe1bc6ef969)" style="fill: none; stroke: #1f77b4; stroke-width: 1.5"/>
    <path d="M 334.378807 153.635777 
L 334.378807 152.764087 
" clip-path="url(#pe1bc6ef969)" style="fill: none; stroke: #1f77b4; stroke-width: 1.5"/>
    <path d="M 335.900625 29.534808 
L 335.900625 28.433698 
" clip-path="url(#pe1bc6ef969)" style="fill: none; stroke: #1f77b4; stroke-width: 1.5"/>
    <path d="M 337.422443 18.379856 
L 337.422443 17.28 
" clip-path="url(#pe1bc6ef969)" style="fill: none; stroke: #1f77b4; stroke-width: 1.5"/>
    <path d="M 338.944261 139.123634 
L 338.944261 138.329752 
" clip-path="url(#pe1bc6ef969)" style="fill: none; stroke: #1f77b4; stroke-width: 1.5"/>
    <path d="M 340.46608 188.772652 
L 340.46608 188.101361 
" clip-path="url(#pe1bc6ef969)" style="fill: none; stroke: #1f77b4; stroke-width: 1.5"/>
    <path d="M 341.987898 200.78822 
L 341.987898 200.124139 
" clip-path="url(#pe1bc6ef969)" style="fill: none; stroke: #1f77b4; stroke-width: 1.5"/>
    <path d="M 343.509716 208.921137 
L 343.509716 208.414907 
" clip-path="url(#pe1bc6ef969)" style="fill: none; stroke: #1f77b4; stroke-width: 1.5"/>
    <path d="M 345.031534 212.702943 
L 345.031534 212.304946 
" clip-path="url(#pe1bc6ef969)" style="fill: none; stroke: #1f77b4; stroke-width: 1.5"/>
    <path d="M 346.553352 214.129025 
L 346.553352 213.74758 
" clip-path="url(#pe1bc6ef969)" style="fill: none; stroke: #1f77b4; stroke-width: 1.5"/>
    <path d="M 348.07517 215.804029 
L 348.07517 215.502231 
" clip-path="url(#pe1bc6ef969)" style="fill: none; stroke: #1f77b4; stroke-width: 1.5"/>
    <path d="M 349.596989 216.493039 
L 349.596989 216.212219 
" clip-path="url(#pe1bc6ef969)" style="fill: none; stroke: #1f77b4; stroke-width: 1.5"/>
    <path d="M 351.118807 216.622442 
L 351.118807 216.386611 
" clip-path="url(#pe1bc6ef969)" style="fill: none; stroke: #1f77b4; stroke-width: 1.5"/>
    <path d="M 352.640625 216.898488 
L 352.640625 216.651851 
" clip-path="url(#pe1bc6ef969)" style="fill: none; stroke: #1f77b4; stroke-width: 1.5"/>
    <path d="M 354.162443 216.822369 
L 354.162443 216.637635 
" clip-path="url(#pe1bc6ef969)" style="fill: none; stroke: #1f77b4; stroke-width: 1.5"/>
    <path d="M 355.684261 216.810148 
L 355.684261 216.644637 
" clip-path="url(#pe1bc6ef969)" style="fill: none; stroke: #1f77b4; stroke-width: 1.5"/>
    <path d="M 357.20608 216.749933 
L 357.20608 216.54055 
" clip-path="url(#pe1bc6ef969)" style="fill: none; stroke: #1f77b4; stroke-width: 1.5"/>
    <path d="M 358.727898 216.575723 
L 358.727898 216.372195 
" clip-path="url(#pe1bc6ef969)" style="fill: none; stroke: #1f77b4; stroke-width: 1.5"/>
    <path d="M 360.249716 215.990429 
L 360.249716 215.793628 
" clip-path="url(#pe1bc6ef969)" style="fill: none; stroke: #1f77b4; stroke-width: 1.5"/>
    <path d="M 361.771534 216.086001 
L 361.771534 215.900626 
" clip-path="url(#pe1bc6ef969)" style="fill: none; stroke: #1f77b4; stroke-width: 1.5"/>
    <path d="M 363.293352 215.996183 
L 363.293352 215.761604 
" clip-path="url(#pe1bc6ef969)" style="fill: none; stroke: #1f77b4; stroke-width: 1.5"/>
    <path d="M 364.81517 216.741526 
L 364.81517 216.545733 
" clip-path="url(#pe1bc6ef969)" style="fill: none; stroke: #1f77b4; stroke-width: 1.5"/>
    <path d="M 366.336989 217.08383 
L 366.336989 216.88494 
" clip-path="url(#pe1bc6ef969)" style="fill: none; stroke: #1f77b4; stroke-width: 1.5"/>
    <path d="M 367.858807 216.915798 
L 367.858807 216.736355 
" clip-path="url(#pe1bc6ef969)" style="fill: none; stroke: #1f77b4; stroke-width: 1.5"/>
    <path d="M 369.380625 217.270365 
L 369.380625 217.093639 
" clip-path="url(#pe1bc6ef969)" style="fill: none; stroke: #1f77b4; stroke-width: 1.5"/>
    <path d="M 370.902443 216.960882 
L 370.902443 216.766428 
" clip-path="url(#pe1bc6ef969)" style="fill: none; stroke: #1f77b4; stroke-width: 1.5"/>
    <path d="M 372.424261 217.20735 
L 372.424261 217.008715 
" clip-path="url(#pe1bc6ef969)" style="fill: none; stroke: #1f77b4; stroke-width: 1.5"/>
    <path d="M 373.94608 217.192982 
L 373.94608 217.02991 
" clip-path="url(#pe1bc6ef969)" style="fill: none; stroke: #1f77b4; stroke-width: 1.5"/>
    <path d="M 375.467898 217.161693 
L 375.467898 216.996857 
" clip-path="url(#pe1bc6ef969)" style="fill: none; stroke: #1f77b4; stroke-width: 1.5"/>
    <path d="M 376.989716 217.185415 
L 376.989716 217.019076 
" clip-path="url(#pe1bc6ef969)" style="fill: none; stroke: #1f77b4; stroke-width: 1.5"/>
    <path d="M 378.511534 217.195104 
L 378.511534 217.007993 
" clip-path="url(#pe1bc6ef969)" style="fill: none; stroke: #1f77b4; stroke-width: 1.5"/>
   </g>
   <g id="patch_3">
    <path d="M 59.690625 228.96 
L 59.690625 7.2 
" style="fill: none; stroke: #000000; stroke-width: 0.8; stroke-linejoin: miter; stroke-linecap: square"/>
   </g>
   <g id="patch_4">
    <path d="M 394.490625 228.96 
L 394.490625 7.2 
" style="fill: none; stroke: #000000; stroke-width: 0.8; stroke-linejoin: miter; stroke-linecap: square"/>
   </g>
   <g id="patch_5">
    <path d="M 59.690625 228.96 
L 394.490625 228.96 
" style="fill: none; stroke: #000000; stroke-width: 0.8; stroke-linejoin: miter; stroke-linecap: square"/>
   </g>
   <g id="patch_6">
    <path d="M 59.690625 7.2 
L 394.490625 7.2 
" style="fill: none; stroke: #000000; stroke-width: 0.8; stroke-linejoin: miter; stroke-linecap: square"/>
   </g>
  </g>
 </g>
 <defs>
  <clipPath id="pe1bc6ef969">
   <rect x="59.690625" y="7.2" width="334.8" height="221.76"/>
  </clipPath>
 </defs>
</svg>
