<?xml version="1.0" encoding="UTF-8" standalone="no"?>
<!DOCTYPE svg PUBLIC "-//W3C//DTD SVG 1.1//EN"
 "http://www.w3.org/Graphics/SVG/1.1/DTD/svg11.dtd">
<!-- Generated by graphviz version 2.43.0 (0)
 -->
<!-- Title: %3 Pages: 1 -->
<svg width="3170pt" height="352pt"
 viewBox="0.00 0.00 3170.00 351.50" xmlns="http://www.w3.org/2000/svg" xmlns:xlink="http://www.w3.org/1999/xlink">
<g id="graph0" class="graph" transform="scale(1 1) rotate(0) translate(4 347.5)">
<title>%3</title>
<polygon fill="white" stroke="transparent" points="-4,4 -4,-347.5 3166,-347.5 3166,4 -4,4"/>
<g id="clust1" class="cluster">
<title>cluster_AccumulatedProtonCharge</title>
<polygon fill="#f0f0ff" stroke="#f0f0ff" points="1962,-239.5 1962,-335.5 2201,-335.5 2201,-239.5 1962,-239.5"/>
<text text-anchor="start" x="1985" y="-321.3" font-family="Times,serif" font-size="14.00">AccumulatedProtonCharge</text>
<text text-anchor="start" x="1970" y="-309.7" font-family="Times,serif" font-size="11.00">via:</text>
<text text-anchor="start" x="1991" y="-309.7" font-family="Times,serif" font-style="italic" font-size="11.00">extract_accumulated_proton_charge</text>
</g>
<g id="clust4" class="cluster">
<title>cluster_CorrectedDetector</title>
<polygon fill="#f0f0ff" stroke="#f0f0ff" points="1710,-31.5 1710,-127.5 1904,-127.5 1904,-31.5 1710,-31.5"/>
<text text-anchor="start" x="1740" y="-113.3" font-family="Times,serif" font-size="14.00">CorrectedDetector</text>
<text text-anchor="start" x="1718" y="-101.7" font-family="Times,serif" font-size="11.00">via:</text>
<text text-anchor="start" x="1739" y="-101.7" font-family="Times,serif" font-style="italic" font-size="11.00">add_masks_and_corrections</text>
</g>
<g id="clust5" class="cluster">
<title>cluster_CorrectedDspacing</title>
<polygon fill="#f0f0ff" stroke="#f0f0ff" points="1962,-135.5 1962,-231.5 2200,-231.5 2200,-135.5 1962,-135.5"/>
<text text-anchor="start" x="2012" y="-217.3" font-family="Times,serif" font-size="14.00">CorrectedDspacing</text>
<text text-anchor="start" x="1970" y="-205.7" font-family="Times,serif" font-size="11.00">via:</text>
<text text-anchor="start" x="1991" y="-205.7" font-family="Times,serif" font-style="italic" font-size="11.00">focus_data_dspacing_and_two_theta</text>
</g>
<g id="clust8" class="cluster">
<title>cluster_DspacingDetector</title>
<polygon fill="#f0f0ff" stroke="#f0f0ff" points="1365,-86.5 1365,-182.5 1644,-182.5 1644,-86.5 1365,-86.5"/>
<text text-anchor="start" x="1440" y="-168.3" font-family="Times,serif" font-size="14.00">DspacingDetector</text>
<text text-anchor="start" x="1373" y="-156.7" font-family="Times,serif" font-size="11.00">via:</text>
<text text-anchor="start" x="1394" y="-156.7" font-family="Times,serif" font-style="italic" font-size="11.00">add_scattering_coordinates_from_positions</text>
</g>
<g id="clust9" class="cluster">
<title>cluster_ElasticCoordTransformGraph</title>
<polygon fill="#f0f0ff" stroke="#f0f0ff" points="742,-86.5 742,-182.5 1019,-182.5 1019,-86.5 742,-86.5"/>
<text text-anchor="start" x="775" y="-168.3" font-family="Times,serif" font-size="14.00">ElasticCoordTransformGraph</text>
<text text-anchor="start" x="750" y="-156.7" font-family="Times,serif" font-size="11.00">via:</text>
<text text-anchor="start" x="771" y="-156.7" font-family="Times,serif" font-style="italic" font-size="11.00">detector_coordinate_transformation_graph</text>
</g>
<g id="clust10" class="cluster">
<title>cluster_Filename</title>
<polygon fill="#f0f0ff" stroke="#f0f0ff" points="8,-108.5 8,-194.5 134,-194.5 134,-108.5 8,-108.5"/>
<text text-anchor="middle" x="71" y="-179.3" font-family="Times,serif" font-size="14.00">Filename</text>
</g>
<g id="clust11" class="cluster">
<title>cluster_FocussedDataDspacingTwoTheta</title>
<polygon fill="#f0f0ff" stroke="#f0f0ff" points="2526,-187.5 2526,-283.5 2778,-283.5 2778,-187.5 2526,-187.5"/>
<text text-anchor="start" x="2534" y="-269.3" font-family="Times,serif" font-size="14.00">FocussedDataDspacingTwoTheta</text>
<text text-anchor="start" x="2594.5" y="-257.7" font-family="Times,serif" font-size="11.00">via:</text>
<text text-anchor="start" x="2615.5" y="-257.7" font-family="Times,serif" font-style="italic" font-size="11.00">group_two_theta</text>
</g>
<g id="clust14" class="cluster">
<title>cluster_KeepEvents</title>
<polygon fill="#f0f0ff" stroke="#f0f0ff" points="1744,-135.5 1744,-221.5 1870,-221.5 1870,-135.5 1744,-135.5"/>
<text text-anchor="middle" x="1807" y="-206.3" font-family="Times,serif" font-size="14.00">KeepEvents</text>
</g>
<g id="clust17" class="cluster">
<title>cluster_NormalizedDspacing</title>
<polygon fill="#f0f0ff" stroke="#f0f0ff" points="2261,-187.5 2261,-283.5 2458,-283.5 2458,-187.5 2261,-187.5"/>
<text text-anchor="start" x="2285" y="-269.3" font-family="Times,serif" font-size="14.00">NormalizedDspacing</text>
<text text-anchor="start" x="2269" y="-257.7" font-family="Times,serif" font-size="11.00">via:</text>
<text text-anchor="start" x="2290" y="-257.7" font-family="Times,serif" font-style="italic" font-size="11.00">normalize_by_proton_charge</text>
</g>
<g id="clust18" class="cluster">
<title>cluster_Position</title>
<polygon fill="#f0f0ff" stroke="#f0f0ff" points="471,-41.5 471,-217.5 666,-217.5 666,-41.5 471,-41.5"/>
<text text-anchor="middle" x="568.5" y="-202.3" font-family="Times,serif" font-size="14.00">Position</text>
</g>
<g id="clust19" class="cluster">
<title>cluster_RawDataAndMetadata</title>
<polygon fill="#f0f0ff" stroke="#f0f0ff" points="208.5,-108.5 208.5,-204.5 385.5,-204.5 385.5,-108.5 208.5,-108.5"/>
<text text-anchor="start" x="216.5" y="-190.3" font-family="Times,serif" font-size="14.00">RawDataAndMetadata</text>
<text text-anchor="start" x="255" y="-178.7" font-family="Times,serif" font-size="11.00">via:</text>
<text text-anchor="start" x="276" y="-178.7" font-family="Times,serif" font-style="italic" font-size="11.00">pooch_load</text>
</g>
<g id="clust20" class="cluster">
<title>cluster_TofDetector</title>
<polygon fill="#f0f0ff" stroke="#f0f0ff" points="813,-194.5 813,-290.5 947,-290.5 947,-194.5 813,-194.5"/>
<text text-anchor="start" x="837.5" y="-276.3" font-family="Times,serif" font-size="14.00">TofDetector</text>
<text text-anchor="start" x="821" y="-264.7" font-family="Times,serif" font-size="11.00">via:</text>
<text text-anchor="start" x="842" y="-264.7" font-family="Times,serif" font-style="italic" font-size="11.00">extract_raw_data</text>
</g>
<g id="clust25" class="cluster">
<title>cluster_WavelengthDetector</title>
<polygon fill="#f0f0ff" stroke="#f0f0ff" points="1083,-134.5 1083,-230.5 1301,-230.5 1301,-134.5 1083,-134.5"/>
<text text-anchor="start" x="1118.5" y="-216.3" font-family="Times,serif" font-size="14.00">WavelengthDetector</text>
<text text-anchor="start" x="1091" y="-204.7" font-family="Times,serif" font-size="11.00">via:</text>
<text text-anchor="start" x="1112" y="-204.7" font-family="Times,serif" font-style="italic" font-size="11.00">convert_detector_to_wavelength</text>
</g>
<!-- TofDetector[SampleRun] -->
<g id="node1" class="node">
<title>TofDetector[SampleRun]</title>
<polygon fill="none" stroke="black" points="927.5,-249 832.5,-249 832.5,-228 927.5,-228 927.5,-249"/>
<text text-anchor="start" x="840.5" y="-235.4" font-family="Times,serif" font-size="12.00">[SampleRun]</text>
</g>
<!-- AccumulatedProtonCharge[SampleRun] -->
<g id="node2" class="node">
<title>AccumulatedProtonCharge[SampleRun]</title>
<polygon fill="none" stroke="black" points="2128.5,-294 2033.5,-294 2033.5,-273 2128.5,-273 2128.5,-294"/>
<text text-anchor="start" x="2041.5" y="-280.4" font-family="Times,serif" font-size="12.00">[SampleRun]</text>
</g>
<!-- TofDetector[SampleRun]&#45;&gt;AccumulatedProtonCharge[SampleRun] -->
<g id="edge1" class="edge">
<title>TofDetector[SampleRun]:e&#45;&gt;AccumulatedProtonCharge[SampleRun]:w</title>
<path fill="none" stroke="black" d="M929,-238.5C998.41,-238.5 1013.89,-258.01 1083,-264.5 1499.63,-303.63 1608.39,-283.83 2021.86,-283.5"/>
<polygon fill="black" stroke="black" points="2022,-287 2032,-283.5 2022,-280 2022,-287"/>
</g>
<!-- WavelengthDetector[SampleRun] -->
<g id="node22" class="node">
<title>WavelengthDetector[SampleRun]</title>
<polygon fill="none" stroke="black" points="1239.5,-189 1144.5,-189 1144.5,-168 1239.5,-168 1239.5,-189"/>
<text text-anchor="start" x="1152.5" y="-175.4" font-family="Times,serif" font-size="12.00">[SampleRun]</text>
</g>
<!-- TofDetector[SampleRun]&#45;&gt;WavelengthDetector[SampleRun] -->
<g id="edge46" class="edge">
<title>TofDetector[SampleRun]:e&#45;&gt;WavelengthDetector[SampleRun]:w</title>
<path fill="none" stroke="black" d="M929,-238.5C969.48,-238.5 979.83,-234.7 1019,-224.5 1072.44,-210.58 1083.03,-182.22 1132.86,-178.83"/>
<polygon fill="black" stroke="black" points="1133.12,-182.33 1143,-178.5 1132.89,-175.33 1133.12,-182.33"/>
</g>
<!-- NormalizedDspacing[SampleRun] -->
<g id="node33" class="node">
<title>NormalizedDspacing[SampleRun]</title>
<polygon fill="none" stroke="black" points="2406.5,-242 2311.5,-242 2311.5,-221 2406.5,-221 2406.5,-242"/>
<text text-anchor="start" x="2319.5" y="-228.4" font-family="Times,serif" font-size="12.00">[SampleRun]</text>
</g>
<!-- AccumulatedProtonCharge[SampleRun]&#45;&gt;NormalizedDspacing[SampleRun] -->
<g id="edge34" class="edge">
<title>AccumulatedProtonCharge[SampleRun]:e&#45;&gt;NormalizedDspacing[SampleRun]:w</title>
<path fill="none" stroke="black" d="M2130,-283.5C2162.16,-283.5 2169.96,-277.93 2201,-269.5 2247.03,-257 2257.34,-234.9 2299.79,-231.85"/>
<polygon fill="black" stroke="black" points="2300.13,-235.34 2310,-231.5 2299.89,-228.35 2300.13,-235.34"/>
</g>
<!-- TofDetector[VanadiumRun] -->
<g id="node3" class="node">
<title>TofDetector[VanadiumRun]</title>
<polygon fill="none" stroke="black" points="935,-224 825,-224 825,-203 935,-203 935,-224"/>
<text text-anchor="start" x="833" y="-210.4" font-family="Times,serif" font-size="12.00">[VanadiumRun]</text>
</g>
<!-- AccumulatedProtonCharge[VanadiumRun] -->
<g id="node4" class="node">
<title>AccumulatedProtonCharge[VanadiumRun]</title>
<polygon fill="none" stroke="black" points="2136,-269 2026,-269 2026,-248 2136,-248 2136,-269"/>
<text text-anchor="start" x="2034" y="-255.4" font-family="Times,serif" font-size="12.00">[VanadiumRun]</text>
</g>
<!-- TofDetector[VanadiumRun]&#45;&gt;AccumulatedProtonCharge[VanadiumRun] -->
<g id="edge2" class="edge">
<title>TofDetector[VanadiumRun]:e&#45;&gt;AccumulatedProtonCharge[VanadiumRun]:w</title>
<path fill="none" stroke="black" d="M936,-213.5C1001.82,-213.5 1017.4,-226.1 1083,-231.5 1360.9,-254.39 1431.23,-247.25 1710,-253.5 1846.56,-256.56 1883.21,-258.41 2014.93,-258.5"/>
<polygon fill="black" stroke="black" points="2015,-262 2025,-258.5 2015,-255 2015,-262"/>
</g>
<!-- WavelengthDetector[VanadiumRun] -->
<g id="node24" class="node">
<title>WavelengthDetector[VanadiumRun]</title>
<polygon fill="none" stroke="black" points="1247,-164 1137,-164 1137,-143 1247,-143 1247,-164"/>
<text text-anchor="start" x="1145" y="-150.4" font-family="Times,serif" font-size="12.00">[VanadiumRun]</text>
</g>
<!-- TofDetector[VanadiumRun]&#45;&gt;WavelengthDetector[VanadiumRun] -->
<g id="edge48" class="edge">
<title>TofDetector[VanadiumRun]:e&#45;&gt;WavelengthDetector[VanadiumRun]:w</title>
<path fill="none" stroke="black" d="M936,-213.5C1025.36,-213.5 1042.02,-157.87 1125.98,-153.74"/>
<polygon fill="black" stroke="black" points="1126.09,-157.24 1136,-153.5 1125.92,-150.24 1126.09,-157.24"/>
</g>
<!-- NormalizedDspacing[VanadiumRun] -->
<g id="node36" class="node">
<title>NormalizedDspacing[VanadiumRun]</title>
<polygon fill="none" stroke="black" points="2414,-217 2304,-217 2304,-196 2414,-196 2414,-217"/>
<text text-anchor="start" x="2312" y="-203.4" font-family="Times,serif" font-size="12.00">[VanadiumRun]</text>
</g>
<!-- AccumulatedProtonCharge[VanadiumRun]&#45;&gt;NormalizedDspacing[VanadiumRun] -->
<g id="edge36" class="edge">
<title>AccumulatedProtonCharge[VanadiumRun]:e&#45;&gt;NormalizedDspacing[VanadiumRun]:w</title>
<path fill="none" stroke="black" d="M2137,-258.5C2210.84,-258.5 2224.53,-211.07 2292.97,-206.81"/>
<polygon fill="black" stroke="black" points="2293.11,-210.3 2303,-206.5 2292.9,-203.31 2293.11,-210.3"/>
</g>
<!-- CalibrationFilename -->
<g id="node5" class="node">
<title>CalibrationFilename</title>
<polygon fill="none" stroke="black" points="649.5,-327 487.5,-327 487.5,-304 649.5,-304 649.5,-327"/>
<text text-anchor="middle" x="568.5" y="-311.8" font-family="Times,serif" font-size="14.00">CalibrationFilename</text>
</g>
<!-- CalibrationData -->
<g id="node6" class="node">
<title>CalibrationData</title>
<polygon fill="none" stroke="black" points="963,-332 797,-332 797,-299 963,-299 963,-332"/>
<text text-anchor="start" x="823" y="-317.8" font-family="Times,serif" font-size="14.00">CalibrationData</text>
<text text-anchor="start" x="805" y="-306.2" font-family="Times,serif" font-size="11.00">via:</text>
<text text-anchor="start" x="826" y="-306.2" font-family="Times,serif" font-style="italic" font-size="11.00">pooch_load_calibration</text>
</g>
<!-- CalibrationFilename&#45;&gt;CalibrationData -->
<g id="edge3" class="edge">
<title>CalibrationFilename:e&#45;&gt;CalibrationData:w</title>
<path fill="none" stroke="black" d="M650.5,-315.5C711.63,-315.5 729.42,-315.5 785.81,-315.5"/>
<polygon fill="black" stroke="black" points="786,-319 796,-315.5 786,-312 786,-319"/>
</g>
<!-- DspacingDetector[SampleRun] -->
<g id="node8" class="node">
<title>DspacingDetector[SampleRun]</title>
<polygon fill="none" stroke="black" points="1551.5,-141 1456.5,-141 1456.5,-120 1551.5,-120 1551.5,-141"/>
<text text-anchor="start" x="1464.5" y="-127.4" font-family="Times,serif" font-size="12.00">[SampleRun]</text>
</g>
<!-- CalibrationData&#45;&gt;DspacingDetector[SampleRun] -->
<g id="edge19" class="edge">
<title>CalibrationData:e&#45;&gt;DspacingDetector[SampleRun]:w</title>
<path fill="none" stroke="black" stroke-width="2" d="M964,-315.5C1118.36,-315.5 1159.59,-293.39 1301,-231.5 1327.32,-219.98 1344.05,-204.11 1358.22,-188.35"/>
<polygon fill="black" stroke="black" stroke-width="2" points="1361.02,-190.47 1365,-180.65 1355.77,-185.84 1361.02,-190.47"/>
</g>
<!-- DetectorBankSizes -->
<g id="node7" class="node">
<title>DetectorBankSizes</title>
<polygon fill="none" stroke="black" points="670,-289 467,-289 467,-256 670,-256 670,-289"/>
<text text-anchor="start" x="500.5" y="-274.8" font-family="Times,serif" font-size="14.00">DetectorBankSizes</text>
<text text-anchor="start" x="475" y="-263.2" font-family="Times,serif" font-size="11.00">via:</text>
<text text-anchor="start" x="496" y="-263.2" font-family="Times,serif" font-style="italic" font-size="11.00">powgen_detector_dimensions</text>
</g>
<!-- DetectorBankSizes&#45;&gt;TofDetector[SampleRun] -->
<g id="edge44" class="edge">
<title>DetectorBankSizes:e&#45;&gt;TofDetector[SampleRun]:w</title>
<path fill="none" stroke="black" stroke-width="2" d="M670,-272.5C732.67,-272.5 752.46,-247.53 802.85,-240.39"/>
<polygon fill="black" stroke="black" stroke-width="2" points="803.46,-243.84 813,-239.24 802.67,-236.89 803.46,-243.84"/>
</g>
<!-- DetectorBankSizes&#45;&gt;CalibrationData -->
<g id="edge4" class="edge">
<title>DetectorBankSizes:e&#45;&gt;CalibrationData:w</title>
<path fill="none" stroke="black" d="M670,-272.5C725.59,-272.5 735.71,-310.45 785.8,-315.05"/>
<polygon fill="black" stroke="black" points="785.85,-318.55 796,-315.5 786.17,-311.56 785.85,-318.55"/>
</g>
<!-- CorrectedDetector[SampleRun] -->
<g id="node9" class="node">
<title>CorrectedDetector[SampleRun]</title>
<polygon fill="none" stroke="black" points="1854.5,-86 1759.5,-86 1759.5,-65 1854.5,-65 1854.5,-86"/>
<text text-anchor="start" x="1767.5" y="-72.4" font-family="Times,serif" font-size="12.00">[SampleRun]</text>
</g>
<!-- DspacingDetector[SampleRun]&#45;&gt;CorrectedDetector[SampleRun] -->
<g id="edge5" class="edge">
<title>DspacingDetector[SampleRun]:e&#45;&gt;CorrectedDetector[SampleRun]:w</title>
<path fill="none" stroke="black" d="M1553,-130.5C1593.92,-130.5 1604.34,-126.58 1644,-116.5 1692.72,-104.11 1702.9,-79.12 1747.85,-75.85"/>
<polygon fill="black" stroke="black" points="1748.13,-79.35 1758,-75.5 1747.88,-72.35 1748.13,-79.35"/>
</g>
<!-- CorrectedDspacing[SampleRun] -->
<g id="node16" class="node">
<title>CorrectedDspacing[SampleRun]</title>
<polygon fill="none" stroke="black" points="2128.5,-190 2033.5,-190 2033.5,-169 2128.5,-169 2128.5,-190"/>
<text text-anchor="start" x="2041.5" y="-176.4" font-family="Times,serif" font-size="12.00">[SampleRun]</text>
</g>
<!-- CorrectedDetector[SampleRun]&#45;&gt;CorrectedDspacing[SampleRun] -->
<g id="edge11" class="edge">
<title>CorrectedDetector[SampleRun]:e&#45;&gt;CorrectedDspacing[SampleRun]:w</title>
<path fill="none" stroke="black" d="M1856,-75.5C1917.8,-75.5 1906.37,-138.58 1962,-165.5 1987.21,-177.7 1997.74,-179.27 2021.69,-179.47"/>
<polygon fill="black" stroke="black" points="2021.99,-182.97 2032,-179.5 2022.01,-175.97 2021.99,-182.97"/>
</g>
<!-- MaskedDetectorIDs -->
<g id="node10" class="node">
<title>MaskedDetectorIDs</title>
<polygon fill="none" stroke="black" points="1583,-78 1425,-78 1425,-55 1583,-55 1583,-78"/>
<text text-anchor="middle" x="1504" y="-62.8" font-family="Times,serif" font-size="14.00">MaskedDetectorIDs</text>
</g>
<!-- MaskedDetectorIDs&#45;&gt;CorrectedDetector[SampleRun] -->
<g id="edge6" class="edge">
<title>MaskedDetectorIDs:e&#45;&gt;CorrectedDetector[SampleRun]:w</title>
<path fill="none" stroke="black" stroke-width="2" d="M1584,-66.5C1637.73,-66.5 1663.38,-70.83 1699.92,-73.49"/>
<polygon fill="black" stroke="black" stroke-width="2" points="1699.79,-76.98 1710,-74.15 1700.26,-70 1699.79,-76.98"/>
</g>
<!-- TofMask -->
<g id="node11" class="node">
<title>TofMask</title>
<polygon fill="none" stroke="black" points="1542.5,-51 1465.5,-51 1465.5,-28 1542.5,-28 1542.5,-51"/>
<text text-anchor="middle" x="1504" y="-35.8" font-family="Times,serif" font-size="14.00">TofMask</text>
</g>
<!-- TofMask&#45;&gt;CorrectedDetector[SampleRun] -->
<g id="edge7" class="edge">
<title>TofMask:e&#45;&gt;CorrectedDetector[SampleRun]:w</title>
<path fill="none" stroke="black" stroke-width="2" d="M1544,-39.5C1588.94,-39.5 1599.67,-47.09 1644,-54.5 1669.14,-58.7 1684.7,-63.88 1700.24,-68.05"/>
<polygon fill="black" stroke="black" stroke-width="2" points="1699.45,-71.46 1710,-70.5 1701.15,-64.67 1699.45,-71.46"/>
</g>
<!-- WavelengthMask -->
<g id="node12" class="node">
<title>WavelengthMask</title>
<polygon fill="none" stroke="black" points="1573.5,-241 1434.5,-241 1434.5,-218 1573.5,-218 1573.5,-241"/>
<text text-anchor="middle" x="1504" y="-225.8" font-family="Times,serif" font-size="14.00">WavelengthMask</text>
</g>
<!-- WavelengthMask&#45;&gt;CorrectedDetector[SampleRun] -->
<g id="edge8" class="edge">
<title>WavelengthMask:e&#45;&gt;CorrectedDetector[SampleRun]:w</title>
<path fill="none" stroke="black" stroke-width="2" d="M1575,-229.5C1606.38,-229.5 1617.23,-230.88 1644,-214.5 1686.73,-188.36 1689.29,-140.36 1704.94,-108.18"/>
<polygon fill="black" stroke="black" stroke-width="2" points="1708.16,-109.59 1710,-99.16 1702.06,-106.16 1708.16,-109.59"/>
</g>
<!-- TwoThetaMask -->
<g id="node13" class="node">
<title>TwoThetaMask</title>
<polygon fill="none" stroke="black" points="1566.5,-214 1441.5,-214 1441.5,-191 1566.5,-191 1566.5,-214"/>
<text text-anchor="middle" x="1504" y="-198.8" font-family="Times,serif" font-size="14.00">TwoThetaMask</text>
</g>
<!-- TwoThetaMask&#45;&gt;CorrectedDetector[SampleRun] -->
<g id="edge9" class="edge">
<title>TwoThetaMask:e&#45;&gt;CorrectedDetector[SampleRun]:w</title>
<path fill="none" stroke="black" stroke-width="2" d="M1567,-202.5C1602.25,-202.5 1613.07,-200.4 1644,-183.5 1679.89,-163.88 1688.9,-130.16 1704.25,-105.61"/>
<polygon fill="black" stroke="black" stroke-width="2" points="1707.17,-107.55 1710,-97.35 1701.42,-103.56 1707.17,-107.55"/>
</g>
<!-- DspacingDetector[VanadiumRun] -->
<g id="node14" class="node">
<title>DspacingDetector[VanadiumRun]</title>
<polygon fill="none" stroke="black" points="1559,-116 1449,-116 1449,-95 1559,-95 1559,-116"/>
<text text-anchor="start" x="1457" y="-102.4" font-family="Times,serif" font-size="12.00">[VanadiumRun]</text>
</g>
<!-- CorrectedDetector[VanadiumRun] -->
<g id="node15" class="node">
<title>CorrectedDetector[VanadiumRun]</title>
<polygon fill="none" stroke="black" points="1862,-61 1752,-61 1752,-40 1862,-40 1862,-61"/>
<text text-anchor="start" x="1760" y="-47.4" font-family="Times,serif" font-size="12.00">[VanadiumRun]</text>
</g>
<!-- DspacingDetector[VanadiumRun]&#45;&gt;CorrectedDetector[VanadiumRun] -->
<g id="edge10" class="edge">
<title>DspacingDetector[VanadiumRun]:e&#45;&gt;CorrectedDetector[VanadiumRun]:w</title>
<path fill="none" stroke="black" d="M1560,-105.5C1644.89,-105.5 1661.43,-54.71 1740.98,-50.75"/>
<polygon fill="black" stroke="black" points="1741.09,-54.24 1751,-50.5 1740.92,-47.25 1741.09,-54.24"/>
</g>
<!-- CorrectedDspacing[VanadiumRun] -->
<g id="node19" class="node">
<title>CorrectedDspacing[VanadiumRun]</title>
<polygon fill="none" stroke="black" points="2136,-165 2026,-165 2026,-144 2136,-144 2136,-165"/>
<text text-anchor="start" x="2034" y="-151.4" font-family="Times,serif" font-size="12.00">[VanadiumRun]</text>
</g>
<!-- CorrectedDetector[VanadiumRun]&#45;&gt;CorrectedDspacing[VanadiumRun] -->
<g id="edge14" class="edge">
<title>CorrectedDetector[VanadiumRun]:e&#45;&gt;CorrectedDspacing[VanadiumRun]:w</title>
<path fill="none" stroke="black" d="M1863,-50.5C1945.05,-50.5 1940.03,-146.14 2014.94,-153.99"/>
<polygon fill="black" stroke="black" points="2014.84,-157.49 2025,-154.5 2015.19,-150.5 2014.84,-157.49"/>
</g>
<!-- CorrectedDspacing[SampleRun]&#45;&gt;NormalizedDspacing[SampleRun] -->
<g id="edge33" class="edge">
<title>CorrectedDspacing[SampleRun]:e&#45;&gt;NormalizedDspacing[SampleRun]:w</title>
<path fill="none" stroke="black" d="M2130,-179.5C2209.69,-179.5 2225.44,-227.13 2299.64,-231.22"/>
<polygon fill="black" stroke="black" points="2299.91,-234.73 2310,-231.5 2300.1,-227.73 2299.91,-234.73"/>
</g>
<!-- DspacingBins -->
<g id="node17" class="node">
<title>DspacingBins</title>
<polygon fill="none" stroke="black" points="1864,-253 1750,-253 1750,-230 1864,-230 1864,-253"/>
<text text-anchor="middle" x="1807" y="-237.8" font-family="Times,serif" font-size="14.00">DspacingBins</text>
</g>
<!-- DspacingBins&#45;&gt;CorrectedDspacing[SampleRun] -->
<g id="edge12" class="edge">
<title>DspacingBins:e&#45;&gt;CorrectedDspacing[SampleRun]:w</title>
<path fill="none" stroke="black" stroke-width="2" d="M1865,-241.5C1907.59,-241.5 1929.78,-223.56 1953.51,-206.98"/>
<polygon fill="black" stroke="black" stroke-width="2" points="1955.7,-209.72 1962,-201.2 1951.77,-203.93 1955.7,-209.72"/>
</g>
<!-- KeepEvents[SampleRun] -->
<g id="node18" class="node">
<title>KeepEvents[SampleRun]</title>
<polygon fill="none" stroke="black" points="1854.5,-190 1759.5,-190 1759.5,-169 1854.5,-169 1854.5,-190"/>
<text text-anchor="start" x="1767.5" y="-176.4" font-family="Times,serif" font-size="12.00">[SampleRun]</text>
</g>
<!-- KeepEvents[SampleRun]&#45;&gt;CorrectedDspacing[SampleRun] -->
<g id="edge13" class="edge">
<title>KeepEvents[SampleRun]:e&#45;&gt;CorrectedDspacing[SampleRun]:w</title>
<path fill="none" stroke="black" d="M1856,-179.5C1930.71,-179.5 1951.9,-179.5 2021.8,-179.5"/>
<polygon fill="black" stroke="black" points="2022,-183 2032,-179.5 2022,-176 2022,-183"/>
</g>
<!-- CorrectedDspacing[VanadiumRun]&#45;&gt;NormalizedDspacing[VanadiumRun] -->
<g id="edge35" class="edge">
<title>CorrectedDspacing[VanadiumRun]:e&#45;&gt;NormalizedDspacing[VanadiumRun]:w</title>
<path fill="none" stroke="black" d="M2137,-154.5C2166.22,-154.5 2173,-161.17 2201,-169.5 2243.79,-182.23 2253.44,-203.1 2292.9,-206.13"/>
<polygon fill="black" stroke="black" points="2292.88,-209.63 2303,-206.5 2293.14,-202.64 2292.88,-209.63"/>
</g>
<!-- KeepEvents[VanadiumRun] -->
<g id="node20" class="node">
<title>KeepEvents[VanadiumRun]</title>
<polygon fill="none" stroke="black" points="1862,-165 1752,-165 1752,-144 1862,-144 1862,-165"/>
<text text-anchor="start" x="1760" y="-151.4" font-family="Times,serif" font-size="12.00">[VanadiumRun]</text>
</g>
<!-- KeepEvents[VanadiumRun]&#45;&gt;CorrectedDspacing[VanadiumRun] -->
<g id="edge15" class="edge">
<title>KeepEvents[VanadiumRun]:e&#45;&gt;CorrectedDspacing[VanadiumRun]:w</title>
<path fill="none" stroke="black" d="M1863,-154.5C1931.48,-154.5 1951.11,-154.5 2014.83,-154.5"/>
<polygon fill="black" stroke="black" points="2015,-158 2025,-154.5 2015,-151 2015,-158"/>
</g>
<!-- NeXusName[NXdetector] -->
<g id="node21" class="node">
<title>NeXusName[NXdetector]</title>
<polygon fill="none" stroke="black" points="395,-284 198,-284 198,-261 395,-261 395,-284"/>
<text text-anchor="middle" x="296.5" y="-268.8" font-family="Times,serif" font-size="14.00">NeXusName[NXdetector]</text>
</g>
<!-- NeXusName[NXdetector]&#45;&gt;DetectorBankSizes -->
<g id="edge16" class="edge">
<title>NeXusName[NXdetector]:e&#45;&gt;DetectorBankSizes:w</title>
<path fill="none" stroke="black" d="M395,-272.5C423.38,-272.5 432.88,-272.5 456.98,-272.5"/>
<polygon fill="black" stroke="black" points="457,-276 467,-272.5 457,-269 457,-276"/>
</g>
<!-- WavelengthDetector[SampleRun]&#45;&gt;DspacingDetector[SampleRun] -->
<g id="edge17" class="edge">
<title>WavelengthDetector[SampleRun]:e&#45;&gt;DspacingDetector[SampleRun]:w</title>
<path fill="none" stroke="black" d="M1241,-178.5C1334.95,-178.5 1356.05,-133.91 1444.73,-130.68"/>
<polygon fill="black" stroke="black" points="1445.06,-134.18 1455,-130.5 1444.94,-127.18 1445.06,-134.18"/>
</g>
<!-- ElasticCoordTransformGraph[SampleRun] -->
<g id="node23" class="node">
<title>ElasticCoordTransformGraph[SampleRun]</title>
<polygon fill="none" stroke="black" points="927.5,-141 832.5,-141 832.5,-120 927.5,-120 927.5,-141"/>
<text text-anchor="start" x="840.5" y="-127.4" font-family="Times,serif" font-size="12.00">[SampleRun]</text>
</g>
<!-- ElasticCoordTransformGraph[SampleRun]&#45;&gt;DspacingDetector[SampleRun] -->
<g id="edge18" class="edge">
<title>ElasticCoordTransformGraph[SampleRun]:e&#45;&gt;DspacingDetector[SampleRun]:w</title>
<path fill="none" stroke="black" d="M929,-130.5C1159.35,-130.5 1219.47,-130.5 1444.84,-130.5"/>
<polygon fill="black" stroke="black" points="1445,-134 1455,-130.5 1445,-127 1445,-134"/>
</g>
<!-- ElasticCoordTransformGraph[SampleRun]&#45;&gt;WavelengthDetector[SampleRun] -->
<g id="edge47" class="edge">
<title>ElasticCoordTransformGraph[SampleRun]:e&#45;&gt;WavelengthDetector[SampleRun]:w</title>
<path fill="none" stroke="black" d="M929,-130.5C1022.95,-130.5 1044.05,-175.09 1132.73,-178.32"/>
<polygon fill="black" stroke="black" points="1132.94,-181.82 1143,-178.5 1133.06,-174.82 1132.94,-181.82"/>
</g>
<!-- WavelengthDetector[VanadiumRun]&#45;&gt;DspacingDetector[VanadiumRun] -->
<g id="edge20" class="edge">
<title>WavelengthDetector[VanadiumRun]:e&#45;&gt;DspacingDetector[VanadiumRun]:w</title>
<path fill="none" stroke="black" d="M1248,-153.5C1302.15,-153.5 1312.21,-131.58 1365,-119.5 1397.91,-111.97 1408.55,-106.63 1437.8,-105.66"/>
<polygon fill="black" stroke="black" points="1438.06,-109.16 1448,-105.5 1437.95,-102.16 1438.06,-109.16"/>
</g>
<!-- ElasticCoordTransformGraph[VanadiumRun] -->
<g id="node25" class="node">
<title>ElasticCoordTransformGraph[VanadiumRun]</title>
<polygon fill="none" stroke="black" points="935,-116 825,-116 825,-95 935,-95 935,-116"/>
<text text-anchor="start" x="833" y="-102.4" font-family="Times,serif" font-size="12.00">[VanadiumRun]</text>
</g>
<!-- ElasticCoordTransformGraph[VanadiumRun]&#45;&gt;DspacingDetector[VanadiumRun] -->
<g id="edge21" class="edge">
<title>ElasticCoordTransformGraph[VanadiumRun]:e&#45;&gt;DspacingDetector[VanadiumRun]:w</title>
<path fill="none" stroke="black" d="M936,-105.5C1160.11,-105.5 1218.68,-105.5 1437.78,-105.5"/>
<polygon fill="black" stroke="black" points="1438,-109 1448,-105.5 1438,-102 1438,-109"/>
</g>
<!-- ElasticCoordTransformGraph[VanadiumRun]&#45;&gt;WavelengthDetector[VanadiumRun] -->
<g id="edge49" class="edge">
<title>ElasticCoordTransformGraph[VanadiumRun]:e&#45;&gt;WavelengthDetector[VanadiumRun]:w</title>
<path fill="none" stroke="black" d="M936,-105.5C973.41,-105.5 982.53,-111.16 1019,-119.5 1068.28,-130.78 1080.32,-150.63 1125.77,-153.22"/>
<polygon fill="black" stroke="black" points="1125.91,-156.72 1136,-153.5 1126.1,-149.73 1125.91,-156.72"/>
</g>
<!-- Position[NXsource, SampleRun] -->
<g id="node26" class="node">
<title>Position[NXsource, SampleRun]</title>
<polygon fill="none" stroke="black" points="649,-151 488,-151 488,-120 649,-120 649,-151"/>
<text text-anchor="start" x="496" y="-138.4" font-family="Times,serif" font-size="12.00">[NXsource, SampleRun]</text>
<text text-anchor="start" x="514" y="-127.2" font-family="Times,serif" font-size="11.00">via:</text>
<text text-anchor="start" x="535" y="-127.2" font-family="Times,serif" font-style="italic" font-size="11.00">source_position</text>
</g>
<!-- Position[NXsource, SampleRun]&#45;&gt;ElasticCoordTransformGraph[SampleRun] -->
<g id="edge22" class="edge">
<title>Position[NXsource, SampleRun]:e&#45;&gt;ElasticCoordTransformGraph[SampleRun]:w</title>
<path fill="none" stroke="black" d="M650.5,-135.5C727.3,-135.5 748.92,-130.92 820.98,-130.53"/>
<polygon fill="black" stroke="black" points="821.01,-134.03 831,-130.5 820.99,-127.03 821.01,-134.03"/>
</g>
<!-- Position[NXsample, SampleRun] -->
<g id="node27" class="node">
<title>Position[NXsample, SampleRun]</title>
<polygon fill="none" stroke="black" points="650.5,-186 486.5,-186 486.5,-155 650.5,-155 650.5,-186"/>
<text text-anchor="start" x="494.5" y="-173.4" font-family="Times,serif" font-size="12.00">[NXsample, SampleRun]</text>
<text text-anchor="start" x="512.5" y="-162.2" font-family="Times,serif" font-size="11.00">via:</text>
<text text-anchor="start" x="533.5" y="-162.2" font-family="Times,serif" font-style="italic" font-size="11.00">sample_position</text>
</g>
<!-- Position[NXsample, SampleRun]&#45;&gt;ElasticCoordTransformGraph[SampleRun] -->
<g id="edge23" class="edge">
<title>Position[NXsample, SampleRun]:e&#45;&gt;ElasticCoordTransformGraph[SampleRun]:w</title>
<path fill="none" stroke="black" d="M651.5,-170.5C729.72,-170.5 747.77,-133.86 820.82,-130.72"/>
<polygon fill="black" stroke="black" points="821.08,-134.21 831,-130.5 820.93,-127.21 821.08,-134.21"/>
</g>
<!-- GravityVector -->
<g id="node28" class="node">
<title>GravityVector</title>
<polygon fill="none" stroke="black" points="645.5,-33 491.5,-33 491.5,0 645.5,0 645.5,-33"/>
<text text-anchor="start" x="518.5" y="-18.8" font-family="Times,serif" font-size="14.00">GravityVector</text>
<text text-anchor="start" x="499.5" y="-7.2" font-family="Times,serif" font-size="11.00">via:</text>
<text text-anchor="start" x="520.5" y="-7.2" font-family="Times,serif" font-style="italic" font-size="11.00">gravity_vector_neg_y</text>
</g>
<!-- GravityVector&#45;&gt;ElasticCoordTransformGraph[SampleRun] -->
<g id="edge24" class="edge">
<title>GravityVector:e&#45;&gt;ElasticCoordTransformGraph[SampleRun]:w</title>
<path fill="none" stroke="black" stroke-width="2" d="M646.5,-16.5C704.48,-16.5 689.65,-80.03 733.45,-111.25"/>
<polygon fill="black" stroke="black" stroke-width="2" points="731.65,-114.25 742,-116.5 735.31,-108.28 731.65,-114.25"/>
</g>
<!-- Position[NXsource, VanadiumRun] -->
<g id="node29" class="node">
<title>Position[NXsource, VanadiumRun]</title>
<polygon fill="none" stroke="black" points="656.5,-81 480.5,-81 480.5,-50 656.5,-50 656.5,-81"/>
<text text-anchor="start" x="488.5" y="-68.4" font-family="Times,serif" font-size="12.00">[NXsource, VanadiumRun]</text>
<text text-anchor="start" x="514" y="-57.2" font-family="Times,serif" font-size="11.00">via:</text>
<text text-anchor="start" x="535" y="-57.2" font-family="Times,serif" font-style="italic" font-size="11.00">source_position</text>
</g>
<!-- Position[NXsource, VanadiumRun]&#45;&gt;ElasticCoordTransformGraph[VanadiumRun] -->
<g id="edge25" class="edge">
<title>Position[NXsource, VanadiumRun]:e&#45;&gt;ElasticCoordTransformGraph[VanadiumRun]:w</title>
<path fill="none" stroke="black" d="M657.5,-65.5C730.04,-65.5 746.42,-101.84 813.69,-105.24"/>
<polygon fill="black" stroke="black" points="813.92,-108.75 824,-105.5 814.09,-101.75 813.92,-108.75"/>
</g>
<!-- Position[NXsample, VanadiumRun] -->
<g id="node30" class="node">
<title>Position[NXsample, VanadiumRun]</title>
<polygon fill="none" stroke="black" points="658,-116 479,-116 479,-85 658,-85 658,-116"/>
<text text-anchor="start" x="487" y="-103.4" font-family="Times,serif" font-size="12.00">[NXsample, VanadiumRun]</text>
<text text-anchor="start" x="512.5" y="-92.2" font-family="Times,serif" font-size="11.00">via:</text>
<text text-anchor="start" x="533.5" y="-92.2" font-family="Times,serif" font-style="italic" font-size="11.00">sample_position</text>
</g>
<!-- Position[NXsample, VanadiumRun]&#45;&gt;ElasticCoordTransformGraph[VanadiumRun] -->
<g id="edge26" class="edge">
<title>Position[NXsample, VanadiumRun]:e&#45;&gt;ElasticCoordTransformGraph[VanadiumRun]:w</title>
<path fill="none" stroke="black" d="M659.5,-100.5C729.07,-100.5 748.95,-105.02 813.67,-105.47"/>
<polygon fill="black" stroke="black" points="813.99,-108.97 824,-105.5 814.01,-101.97 813.99,-108.97"/>
</g>
<!-- Filename[SampleRun] -->
<g id="node31" class="node">
<title>Filename[SampleRun]</title>
<polygon fill="none" stroke="black" points="118.5,-163 23.5,-163 23.5,-142 118.5,-142 118.5,-163"/>
<text text-anchor="start" x="31.5" y="-149.4" font-family="Times,serif" font-size="12.00">[SampleRun]</text>
</g>
<!-- RawDataAndMetadata[SampleRun] -->
<g id="node40" class="node">
<title>RawDataAndMetadata[SampleRun]</title>
<polygon fill="none" stroke="black" points="344,-163 249,-163 249,-142 344,-142 344,-163"/>
<text text-anchor="start" x="257" y="-149.4" font-family="Times,serif" font-size="12.00">[SampleRun]</text>
</g>
<!-- Filename[SampleRun]&#45;&gt;RawDataAndMetadata[SampleRun] -->
<g id="edge41" class="edge">
<title>Filename[SampleRun]:e&#45;&gt;RawDataAndMetadata[SampleRun]:w</title>
<path fill="none" stroke="black" d="M120,-152.5C173.12,-152.5 188.9,-152.5 237.35,-152.5"/>
<polygon fill="black" stroke="black" points="237.5,-156 247.5,-152.5 237.5,-149 237.5,-156"/>
</g>
<!-- Filename[VanadiumRun] -->
<g id="node32" class="node">
<title>Filename[VanadiumRun]</title>
<polygon fill="none" stroke="black" points="126,-138 16,-138 16,-117 126,-117 126,-138"/>
<text text-anchor="start" x="24" y="-124.4" font-family="Times,serif" font-size="12.00">[VanadiumRun]</text>
</g>
<!-- RawDataAndMetadata[VanadiumRun] -->
<g id="node41" class="node">
<title>RawDataAndMetadata[VanadiumRun]</title>
<polygon fill="none" stroke="black" points="351.5,-138 241.5,-138 241.5,-117 351.5,-117 351.5,-138"/>
<text text-anchor="start" x="249.5" y="-124.4" font-family="Times,serif" font-size="12.00">[VanadiumRun]</text>
</g>
<!-- Filename[VanadiumRun]&#45;&gt;RawDataAndMetadata[VanadiumRun] -->
<g id="edge42" class="edge">
<title>Filename[VanadiumRun]:e&#45;&gt;RawDataAndMetadata[VanadiumRun]:w</title>
<path fill="none" stroke="black" d="M127,-127.5C173.9,-127.5 188.1,-127.5 230.39,-127.5"/>
<polygon fill="black" stroke="black" points="230.5,-131 240.5,-127.5 230.5,-124 230.5,-131"/>
</g>
<!-- FocussedDataDspacingTwoTheta[SampleRun] -->
<g id="node34" class="node">
<title>FocussedDataDspacingTwoTheta[SampleRun]</title>
<polygon fill="none" stroke="black" points="2699.5,-242 2604.5,-242 2604.5,-221 2699.5,-221 2699.5,-242"/>
<text text-anchor="start" x="2612.5" y="-228.4" font-family="Times,serif" font-size="12.00">[SampleRun]</text>
</g>
<!-- NormalizedDspacing[SampleRun]&#45;&gt;FocussedDataDspacingTwoTheta[SampleRun] -->
<g id="edge27" class="edge">
<title>NormalizedDspacing[SampleRun]:e&#45;&gt;FocussedDataDspacingTwoTheta[SampleRun]:w</title>
<path fill="none" stroke="black" d="M2408,-231.5C2491.11,-231.5 2514.45,-231.5 2592.66,-231.5"/>
<polygon fill="black" stroke="black" points="2593,-235 2603,-231.5 2593,-228 2593,-235"/>
</g>
<!-- IntensityDspacingTwoTheta[SampleRun] -->
<g id="node38" class="node">
<title>IntensityDspacingTwoTheta[SampleRun]</title>
<polygon fill="none" stroke="black" points="3162,-223 2850,-223 2850,-190 3162,-190 3162,-223"/>
<text text-anchor="start" x="2860" y="-208.8" font-family="Times,serif" font-size="14.00">IntensityDspacingTwoTheta[SampleRun]</text>
<text text-anchor="start" x="2858" y="-197.2" font-family="Times,serif" font-size="11.00">via:</text>
<text text-anchor="start" x="2879" y="-197.2" font-family="Times,serif" font-style="italic" font-size="11.00">normalize_by_vanadium_dspacing_and_two_theta</text>
</g>
<!-- FocussedDataDspacingTwoTheta[SampleRun]&#45;&gt;IntensityDspacingTwoTheta[SampleRun] -->
<g id="edge30" class="edge">
<title>FocussedDataDspacingTwoTheta[SampleRun]:e&#45;&gt;IntensityDspacingTwoTheta[SampleRun]:w</title>
<path fill="none" stroke="black" d="M2701,-231.5C2764.61,-231.5 2781.16,-209.07 2839.8,-206.7"/>
<polygon fill="black" stroke="black" points="2840.07,-210.2 2850,-206.5 2839.93,-203.2 2840.07,-210.2"/>
</g>
<!-- TwoThetaBins -->
<g id="node35" class="node">
<title>TwoThetaBins</title>
<polygon fill="none" stroke="black" points="2418,-179 2300,-179 2300,-156 2418,-156 2418,-179"/>
<text text-anchor="middle" x="2359" y="-163.8" font-family="Times,serif" font-size="14.00">TwoThetaBins</text>
</g>
<!-- TwoThetaBins&#45;&gt;FocussedDataDspacingTwoTheta[SampleRun] -->
<g id="edge28" class="edge">
<title>TwoThetaBins:e&#45;&gt;FocussedDataDspacingTwoTheta[SampleRun]:w</title>
<path fill="none" stroke="black" stroke-width="2" d="M2419,-167.5C2467.9,-167.5 2475.15,-197.06 2516.35,-213.99"/>
<polygon fill="black" stroke="black" stroke-width="2" points="2515.41,-217.37 2526,-217.5 2517.8,-210.8 2515.41,-217.37"/>
</g>
<!-- FocussedDataDspacingTwoTheta[VanadiumRun] -->
<g id="node37" class="node">
<title>FocussedDataDspacingTwoTheta[VanadiumRun]</title>
<polygon fill="none" stroke="black" points="2707,-217 2597,-217 2597,-196 2707,-196 2707,-217"/>
<text text-anchor="start" x="2605" y="-203.4" font-family="Times,serif" font-size="12.00">[VanadiumRun]</text>
</g>
<!-- NormalizedDspacing[VanadiumRun]&#45;&gt;FocussedDataDspacingTwoTheta[VanadiumRun] -->
<g id="edge29" class="edge">
<title>NormalizedDspacing[VanadiumRun]:e&#45;&gt;FocussedDataDspacingTwoTheta[VanadiumRun]:w</title>
<path fill="none" stroke="black" d="M2415,-206.5C2491.99,-206.5 2513.72,-206.5 2585.95,-206.5"/>
<polygon fill="black" stroke="black" points="2586,-210 2596,-206.5 2586,-203 2586,-210"/>
</g>
<!-- FocussedDataDspacingTwoTheta[VanadiumRun]&#45;&gt;IntensityDspacingTwoTheta[SampleRun] -->
<g id="edge31" class="edge">
<title>FocussedDataDspacingTwoTheta[VanadiumRun]:e&#45;&gt;IntensityDspacingTwoTheta[SampleRun]:w</title>
<path fill="none" stroke="black" d="M2708,-206.5C2767.54,-206.5 2784.95,-206.5 2839.71,-206.5"/>
<polygon fill="black" stroke="black" points="2840,-210 2850,-206.5 2840,-203 2840,-210"/>
</g>
<!-- UncertaintyBroadcastMode -->
<g id="node39" class="node">
<title>UncertaintyBroadcastMode</title>
<polygon fill="none" stroke="black" points="2759,-179 2545,-179 2545,-156 2759,-156 2759,-179"/>
<text text-anchor="middle" x="2652" y="-163.8" font-family="Times,serif" font-size="14.00">UncertaintyBroadcastMode</text>
</g>
<!-- UncertaintyBroadcastMode&#45;&gt;IntensityDspacingTwoTheta[SampleRun] -->
<g id="edge32" class="edge">
<title>UncertaintyBroadcastMode:e&#45;&gt;IntensityDspacingTwoTheta[SampleRun]:w</title>
<path fill="none" stroke="black" d="M2760,-167.5C2799.85,-167.5 2805.62,-200.08 2839.61,-205.69"/>
<polygon fill="black" stroke="black" points="2839.76,-209.21 2850,-206.5 2840.3,-202.23 2839.76,-209.21"/>
</g>
<!-- RawDataAndMetadata[SampleRun]&#45;&gt;TofDetector[SampleRun] -->
<g id="edge43" class="edge">
<title>RawDataAndMetadata[SampleRun]:e&#45;&gt;TofDetector[SampleRun]:w</title>
<path fill="none" stroke="black" d="M345.5,-152.5C409.91,-152.5 405.43,-212.6 467,-231.5 541.32,-254.32 734.22,-239.75 820.96,-238.57"/>
<polygon fill="black" stroke="black" points="821.03,-242.07 831,-238.5 820.97,-235.07 821.03,-242.07"/>
</g>
<!-- RawDataAndMetadata[SampleRun]&#45;&gt;Position[NXsource, SampleRun] -->
<g id="edge39" class="edge">
<title>RawDataAndMetadata[SampleRun]:e&#45;&gt;Position[NXsource, SampleRun]:w</title>
<path fill="none" stroke="black" d="M345.5,-152.5C405.05,-152.5 421.55,-137.37 476.22,-135.66"/>
<polygon fill="black" stroke="black" points="476.55,-139.15 486.5,-135.5 476.45,-132.15 476.55,-139.15"/>
</g>
<!-- RawDataAndMetadata[SampleRun]&#45;&gt;Position[NXsample, SampleRun] -->
<g id="edge37" class="edge">
<title>RawDataAndMetadata[SampleRun]:e&#45;&gt;Position[NXsample, SampleRun]:w</title>
<path fill="none" stroke="black" d="M345.5,-152.5C404.68,-152.5 420.96,-168.52 475.29,-170.33"/>
<polygon fill="black" stroke="black" points="475.44,-173.84 485.5,-170.5 475.56,-166.84 475.44,-173.84"/>
</g>
<!-- RawDataAndMetadata[VanadiumRun]&#45;&gt;TofDetector[VanadiumRun] -->
<g id="edge45" class="edge">
<title>RawDataAndMetadata[VanadiumRun]:e&#45;&gt;TofDetector[VanadiumRun]:w</title>
<path fill="none" stroke="black" d="M352.5,-127.5C372.53,-127.5 378.2,-131.59 395,-142.5 434.03,-167.84 424.26,-200.12 467,-218.5 536.97,-248.59 728.47,-216.3 813.88,-213.67"/>
<polygon fill="black" stroke="black" points="814.06,-217.17 824,-213.5 813.94,-210.17 814.06,-217.17"/>
</g>
<!-- RawDataAndMetadata[VanadiumRun]&#45;&gt;Position[NXsource, VanadiumRun] -->
<g id="edge40" class="edge">
<title>RawDataAndMetadata[VanadiumRun]:e&#45;&gt;Position[NXsource, VanadiumRun]:w</title>
<path fill="none" stroke="black" d="M352.5,-127.5C411.75,-127.5 416.34,-72.32 469.4,-66.07"/>
<polygon fill="black" stroke="black" points="469.71,-69.56 479.5,-65.5 469.32,-62.57 469.71,-69.56"/>
</g>
<!-- RawDataAndMetadata[VanadiumRun]&#45;&gt;Position[NXsample, VanadiumRun] -->
<g id="edge38" class="edge">
<title>RawDataAndMetadata[VanadiumRun]:e&#45;&gt;Position[NXsample, VanadiumRun]:w</title>
<path fill="none" stroke="black" d="M352.5,-127.5C405.78,-127.5 419.07,-103.77 467.35,-100.8"/>
<polygon fill="black" stroke="black" points="467.61,-104.3 477.5,-100.5 467.4,-97.3 467.61,-104.3"/>
</g>
</g>
</svg>
