<?xml version="1.0" encoding="utf-8" standalone="no"?>
<!DOCTYPE svg PUBLIC "-//W3C//DTD SVG 1.1//EN"
  "http://www.w3.org/Graphics/SVG/1.1/DTD/svg11.dtd">
<svg xmlns:xlink="http://www.w3.org/1999/xlink" width="382.603125pt" height="266.51625pt" viewBox="0 0 382.603125 266.51625" xmlns="http://www.w3.org/2000/svg" version="1.1">
 <metadata>
  <rdf:RDF xmlns:dc="http://purl.org/dc/elements/1.1/" xmlns:cc="http://creativecommons.org/ns#" xmlns:rdf="http://www.w3.org/1999/02/22-rdf-syntax-ns#">
   <cc:Work>
    <dc:type rdf:resource="http://purl.org/dc/dcmitype/StillImage"/>
    <dc:date>2024-12-02T08:23:30.128443</dc:date>
    <dc:format>image/svg+xml</dc:format>
    <dc:creator>
     <cc:Agent>
      <dc:title>Matplotlib v3.9.2, https://matplotlib.org/</dc:title>
     </cc:Agent>
    </dc:creator>
   </cc:Work>
  </rdf:RDF>
 </metadata>
 <defs>
  <style type="text/css">*{stroke-linejoin: round; stroke-linecap: butt}</style>
 </defs>
 <g id="figure_1">
  <g id="patch_1">
   <path d="M 0 266.51625 
L 382.603125 266.51625 
L 382.603125 0 
L 0 0 
z
" style="fill: #ffffff"/>
  </g>
  <g id="axes_1">
   <g id="patch_2">
    <path d="M 40.603125 228.96 
L 375.403125 228.96 
L 375.403125 7.2 
L 40.603125 7.2 
z
" style="fill: #ffffff"/>
   </g>
   <g id="matplotlib.axis_1">
    <g id="xtick_1">
     <g id="line2d_1">
      <defs>
       <path id="m2c6f355483" d="M 0 0 
L 0 3.5 
" style="stroke: #000000; stroke-width: 0.8"/>
      </defs>
      <g>
       <use xlink:href="#m2c6f355483" x="55.821307" y="228.96" style="stroke: #000000; stroke-width: 0.8"/>
      </g>
     </g>
     <g id="text_1">
      <!-- 0 -->
      <g transform="translate(52.640057 243.558437) scale(0.1 -0.1)">
       <defs>
        <path id="DejaVuSans-30" d="M 2034 4250 
Q 1547 4250 1301 3770 
Q 1056 3291 1056 2328 
Q 1056 1369 1301 889 
Q 1547 409 2034 409 
Q 2525 409 2770 889 
Q 3016 1369 3016 2328 
Q 3016 3291 2770 3770 
Q 2525 4250 2034 4250 
z
M 2034 4750 
Q 2819 4750 3233 4129 
Q 3647 3509 3647 2328 
Q 3647 1150 3233 529 
Q 2819 -91 2034 -91 
Q 1250 -91 836 529 
Q 422 1150 422 2328 
Q 422 3509 836 4129 
Q 1250 4750 2034 4750 
z
" transform="scale(0.015625)"/>
       </defs>
       <use xlink:href="#DejaVuSans-30"/>
      </g>
     </g>
    </g>
    <g id="xtick_2">
     <g id="line2d_2">
      <g>
       <use xlink:href="#m2c6f355483" x="101.577758" y="228.96" style="stroke: #000000; stroke-width: 0.8"/>
      </g>
     </g>
     <g id="text_2">
      <!-- 10000 -->
      <g transform="translate(85.671508 243.558437) scale(0.1 -0.1)">
       <defs>
        <path id="DejaVuSans-31" d="M 794 531 
L 1825 531 
L 1825 4091 
L 703 3866 
L 703 4441 
L 1819 4666 
L 2450 4666 
L 2450 531 
L 3481 531 
L 3481 0 
L 794 0 
L 794 531 
z
" transform="scale(0.015625)"/>
       </defs>
       <use xlink:href="#DejaVuSans-31"/>
       <use xlink:href="#DejaVuSans-30" x="63.623047"/>
       <use xlink:href="#DejaVuSans-30" x="127.246094"/>
       <use xlink:href="#DejaVuSans-30" x="190.869141"/>
       <use xlink:href="#DejaVuSans-30" x="254.492188"/>
      </g>
     </g>
    </g>
    <g id="xtick_3">
     <g id="line2d_3">
      <g>
       <use xlink:href="#m2c6f355483" x="147.334208" y="228.96" style="stroke: #000000; stroke-width: 0.8"/>
      </g>
     </g>
     <g id="text_3">
      <!-- 20000 -->
      <g transform="translate(131.427958 243.558437) scale(0.1 -0.1)">
       <defs>
        <path id="DejaVuSans-32" d="M 1228 531 
L 3431 531 
L 3431 0 
L 469 0 
L 469 531 
Q 828 903 1448 1529 
Q 2069 2156 2228 2338 
Q 2531 2678 2651 2914 
Q 2772 3150 2772 3378 
Q 2772 3750 2511 3984 
Q 2250 4219 1831 4219 
Q 1534 4219 1204 4116 
Q 875 4013 500 3803 
L 500 4441 
Q 881 4594 1212 4672 
Q 1544 4750 1819 4750 
Q 2544 4750 2975 4387 
Q 3406 4025 3406 3419 
Q 3406 3131 3298 2873 
Q 3191 2616 2906 2266 
Q 2828 2175 2409 1742 
Q 1991 1309 1228 531 
z
" transform="scale(0.015625)"/>
       </defs>
       <use xlink:href="#DejaVuSans-32"/>
       <use xlink:href="#DejaVuSans-30" x="63.623047"/>
       <use xlink:href="#DejaVuSans-30" x="127.246094"/>
       <use xlink:href="#DejaVuSans-30" x="190.869141"/>
       <use xlink:href="#DejaVuSans-30" x="254.492188"/>
      </g>
     </g>
    </g>
    <g id="xtick_4">
     <g id="line2d_4">
      <g>
       <use xlink:href="#m2c6f355483" x="193.090659" y="228.96" style="stroke: #000000; stroke-width: 0.8"/>
      </g>
     </g>
     <g id="text_4">
      <!-- 30000 -->
      <g transform="translate(177.184409 243.558437) scale(0.1 -0.1)">
       <defs>
        <path id="DejaVuSans-33" d="M 2597 2516 
Q 3050 2419 3304 2112 
Q 3559 1806 3559 1356 
Q 3559 666 3084 287 
Q 2609 -91 1734 -91 
Q 1441 -91 1130 -33 
Q 819 25 488 141 
L 488 750 
Q 750 597 1062 519 
Q 1375 441 1716 441 
Q 2309 441 2620 675 
Q 2931 909 2931 1356 
Q 2931 1769 2642 2001 
Q 2353 2234 1838 2234 
L 1294 2234 
L 1294 2753 
L 1863 2753 
Q 2328 2753 2575 2939 
Q 2822 3125 2822 3475 
Q 2822 3834 2567 4026 
Q 2313 4219 1838 4219 
Q 1578 4219 1281 4162 
Q 984 4106 628 3988 
L 628 4550 
Q 988 4650 1302 4700 
Q 1616 4750 1894 4750 
Q 2613 4750 3031 4423 
Q 3450 4097 3450 3541 
Q 3450 3153 3228 2886 
Q 3006 2619 2597 2516 
z
" transform="scale(0.015625)"/>
       </defs>
       <use xlink:href="#DejaVuSans-33"/>
       <use xlink:href="#DejaVuSans-30" x="63.623047"/>
       <use xlink:href="#DejaVuSans-30" x="127.246094"/>
       <use xlink:href="#DejaVuSans-30" x="190.869141"/>
       <use xlink:href="#DejaVuSans-30" x="254.492188"/>
      </g>
     </g>
    </g>
    <g id="xtick_5">
     <g id="line2d_5">
      <g>
       <use xlink:href="#m2c6f355483" x="238.84711" y="228.96" style="stroke: #000000; stroke-width: 0.8"/>
      </g>
     </g>
     <g id="text_5">
      <!-- 40000 -->
      <g transform="translate(222.94086 243.558437) scale(0.1 -0.1)">
       <defs>
        <path id="DejaVuSans-34" d="M 2419 4116 
L 825 1625 
L 2419 1625 
L 2419 4116 
z
M 2253 4666 
L 3047 4666 
L 3047 1625 
L 3713 1625 
L 3713 1100 
L 3047 1100 
L 3047 0 
L 2419 0 
L 2419 1100 
L 313 1100 
L 313 1709 
L 2253 4666 
z
" transform="scale(0.015625)"/>
       </defs>
       <use xlink:href="#DejaVuSans-34"/>
       <use xlink:href="#DejaVuSans-30" x="63.623047"/>
       <use xlink:href="#DejaVuSans-30" x="127.246094"/>
       <use xlink:href="#DejaVuSans-30" x="190.869141"/>
       <use xlink:href="#DejaVuSans-30" x="254.492188"/>
      </g>
     </g>
    </g>
    <g id="xtick_6">
     <g id="line2d_6">
      <g>
       <use xlink:href="#m2c6f355483" x="284.603561" y="228.96" style="stroke: #000000; stroke-width: 0.8"/>
      </g>
     </g>
     <g id="text_6">
      <!-- 50000 -->
      <g transform="translate(268.697311 243.558437) scale(0.1 -0.1)">
       <defs>
        <path id="DejaVuSans-35" d="M 691 4666 
L 3169 4666 
L 3169 4134 
L 1269 4134 
L 1269 2991 
Q 1406 3038 1543 3061 
Q 1681 3084 1819 3084 
Q 2600 3084 3056 2656 
Q 3513 2228 3513 1497 
Q 3513 744 3044 326 
Q 2575 -91 1722 -91 
Q 1428 -91 1123 -41 
Q 819 9 494 109 
L 494 744 
Q 775 591 1075 516 
Q 1375 441 1709 441 
Q 2250 441 2565 725 
Q 2881 1009 2881 1497 
Q 2881 1984 2565 2268 
Q 2250 2553 1709 2553 
Q 1456 2553 1204 2497 
Q 953 2441 691 2322 
L 691 4666 
z
" transform="scale(0.015625)"/>
       </defs>
       <use xlink:href="#DejaVuSans-35"/>
       <use xlink:href="#DejaVuSans-30" x="63.623047"/>
       <use xlink:href="#DejaVuSans-30" x="127.246094"/>
       <use xlink:href="#DejaVuSans-30" x="190.869141"/>
       <use xlink:href="#DejaVuSans-30" x="254.492188"/>
      </g>
     </g>
    </g>
    <g id="xtick_7">
     <g id="line2d_7">
      <g>
       <use xlink:href="#m2c6f355483" x="330.360012" y="228.96" style="stroke: #000000; stroke-width: 0.8"/>
      </g>
     </g>
     <g id="text_7">
      <!-- 60000 -->
      <g transform="translate(314.453762 243.558437) scale(0.1 -0.1)">
       <defs>
        <path id="DejaVuSans-36" d="M 2113 2584 
Q 1688 2584 1439 2293 
Q 1191 2003 1191 1497 
Q 1191 994 1439 701 
Q 1688 409 2113 409 
Q 2538 409 2786 701 
Q 3034 994 3034 1497 
Q 3034 2003 2786 2293 
Q 2538 2584 2113 2584 
z
M 3366 4563 
L 3366 3988 
Q 3128 4100 2886 4159 
Q 2644 4219 2406 4219 
Q 1781 4219 1451 3797 
Q 1122 3375 1075 2522 
Q 1259 2794 1537 2939 
Q 1816 3084 2150 3084 
Q 2853 3084 3261 2657 
Q 3669 2231 3669 1497 
Q 3669 778 3244 343 
Q 2819 -91 2113 -91 
Q 1303 -91 875 529 
Q 447 1150 447 2328 
Q 447 3434 972 4092 
Q 1497 4750 2381 4750 
Q 2619 4750 2861 4703 
Q 3103 4656 3366 4563 
z
" transform="scale(0.015625)"/>
       </defs>
       <use xlink:href="#DejaVuSans-36"/>
       <use xlink:href="#DejaVuSans-30" x="63.623047"/>
       <use xlink:href="#DejaVuSans-30" x="127.246094"/>
       <use xlink:href="#DejaVuSans-30" x="190.869141"/>
       <use xlink:href="#DejaVuSans-30" x="254.492188"/>
      </g>
     </g>
    </g>
    <g id="text_8">
     <!-- tof [µs] -->
     <g transform="translate(189.946875 257.236562) scale(0.1 -0.1)">
      <defs>
       <path id="DejaVuSans-74" d="M 1172 4494 
L 1172 3500 
L 2356 3500 
L 2356 3053 
L 1172 3053 
L 1172 1153 
Q 1172 725 1289 603 
Q 1406 481 1766 481 
L 2356 481 
L 2356 0 
L 1766 0 
Q 1100 0 847 248 
Q 594 497 594 1153 
L 594 3053 
L 172 3053 
L 172 3500 
L 594 3500 
L 594 4494 
L 1172 4494 
z
" transform="scale(0.015625)"/>
       <path id="DejaVuSans-6f" d="M 1959 3097 
Q 1497 3097 1228 2736 
Q 959 2375 959 1747 
Q 959 1119 1226 758 
Q 1494 397 1959 397 
Q 2419 397 2687 759 
Q 2956 1122 2956 1747 
Q 2956 2369 2687 2733 
Q 2419 3097 1959 3097 
z
M 1959 3584 
Q 2709 3584 3137 3096 
Q 3566 2609 3566 1747 
Q 3566 888 3137 398 
Q 2709 -91 1959 -91 
Q 1206 -91 779 398 
Q 353 888 353 1747 
Q 353 2609 779 3096 
Q 1206 3584 1959 3584 
z
" transform="scale(0.015625)"/>
       <path id="DejaVuSans-66" d="M 2375 4863 
L 2375 4384 
L 1825 4384 
Q 1516 4384 1395 4259 
Q 1275 4134 1275 3809 
L 1275 3500 
L 2222 3500 
L 2222 3053 
L 1275 3053 
L 1275 0 
L 697 0 
L 697 3053 
L 147 3053 
L 147 3500 
L 697 3500 
L 697 3744 
Q 697 4328 969 4595 
Q 1241 4863 1831 4863 
L 2375 4863 
z
" transform="scale(0.015625)"/>
       <path id="DejaVuSans-20" transform="scale(0.015625)"/>
       <path id="DejaVuSans-5b" d="M 550 4863 
L 1875 4863 
L 1875 4416 
L 1125 4416 
L 1125 -397 
L 1875 -397 
L 1875 -844 
L 550 -844 
L 550 4863 
z
" transform="scale(0.015625)"/>
       <path id="DejaVuSans-b5" d="M 544 -1331 
L 544 3500 
L 1119 3500 
L 1119 1325 
Q 1119 872 1334 640 
Q 1550 409 1972 409 
Q 2434 409 2667 671 
Q 2900 934 2900 1459 
L 2900 3500 
L 3475 3500 
L 3475 806 
Q 3475 619 3529 530 
Q 3584 441 3700 441 
Q 3728 441 3778 458 
Q 3828 475 3916 513 
L 3916 50 
Q 3788 -22 3673 -56 
Q 3559 -91 3450 -91 
Q 3234 -91 3106 31 
Q 2978 153 2931 403 
Q 2775 156 2548 32 
Q 2322 -91 2016 -91 
Q 1697 -91 1473 31 
Q 1250 153 1119 397 
L 1119 -1331 
L 544 -1331 
z
" transform="scale(0.015625)"/>
       <path id="DejaVuSans-73" d="M 2834 3397 
L 2834 2853 
Q 2591 2978 2328 3040 
Q 2066 3103 1784 3103 
Q 1356 3103 1142 2972 
Q 928 2841 928 2578 
Q 928 2378 1081 2264 
Q 1234 2150 1697 2047 
L 1894 2003 
Q 2506 1872 2764 1633 
Q 3022 1394 3022 966 
Q 3022 478 2636 193 
Q 2250 -91 1575 -91 
Q 1294 -91 989 -36 
Q 684 19 347 128 
L 347 722 
Q 666 556 975 473 
Q 1284 391 1588 391 
Q 1994 391 2212 530 
Q 2431 669 2431 922 
Q 2431 1156 2273 1281 
Q 2116 1406 1581 1522 
L 1381 1569 
Q 847 1681 609 1914 
Q 372 2147 372 2553 
Q 372 3047 722 3315 
Q 1072 3584 1716 3584 
Q 2034 3584 2315 3537 
Q 2597 3491 2834 3397 
z
" transform="scale(0.015625)"/>
       <path id="DejaVuSans-5d" d="M 1947 4863 
L 1947 -844 
L 622 -844 
L 622 -397 
L 1369 -397 
L 1369 4416 
L 622 4416 
L 622 4863 
L 1947 4863 
z
" transform="scale(0.015625)"/>
      </defs>
      <use xlink:href="#DejaVuSans-74"/>
      <use xlink:href="#DejaVuSans-6f" x="39.208984"/>
      <use xlink:href="#DejaVuSans-66" x="100.390625"/>
      <use xlink:href="#DejaVuSans-20" x="135.595703"/>
      <use xlink:href="#DejaVuSans-5b" x="167.382812"/>
      <use xlink:href="#DejaVuSans-b5" x="206.396484"/>
      <use xlink:href="#DejaVuSans-73" x="270.019531"/>
      <use xlink:href="#DejaVuSans-5d" x="322.119141"/>
     </g>
    </g>
   </g>
   <g id="matplotlib.axis_2">
    <g id="ytick_1">
     <g id="line2d_8">
      <defs>
       <path id="mdcbcfad708" d="M 0 0 
L -3.5 0 
" style="stroke: #000000; stroke-width: 0.8"/>
      </defs>
      <g>
       <use xlink:href="#mdcbcfad708" x="40.603125" y="218.88" style="stroke: #000000; stroke-width: 0.8"/>
      </g>
     </g>
     <g id="text_9">
      <!-- 0 -->
      <g transform="translate(27.240625 222.679219) scale(0.1 -0.1)">
       <use xlink:href="#DejaVuSans-30"/>
      </g>
     </g>
    </g>
    <g id="ytick_2">
     <g id="line2d_9">
      <g>
       <use xlink:href="#mdcbcfad708" x="40.603125" y="183.210184" style="stroke: #000000; stroke-width: 0.8"/>
      </g>
     </g>
     <g id="text_10">
      <!-- 5 -->
      <g transform="translate(27.240625 187.009403) scale(0.1 -0.1)">
       <use xlink:href="#DejaVuSans-35"/>
      </g>
     </g>
    </g>
    <g id="ytick_3">
     <g id="line2d_10">
      <g>
       <use xlink:href="#mdcbcfad708" x="40.603125" y="147.540368" style="stroke: #000000; stroke-width: 0.8"/>
      </g>
     </g>
     <g id="text_11">
      <!-- 10 -->
      <g transform="translate(20.878125 151.339587) scale(0.1 -0.1)">
       <use xlink:href="#DejaVuSans-31"/>
       <use xlink:href="#DejaVuSans-30" x="63.623047"/>
      </g>
     </g>
    </g>
    <g id="ytick_4">
     <g id="line2d_11">
      <g>
       <use xlink:href="#mdcbcfad708" x="40.603125" y="111.870553" style="stroke: #000000; stroke-width: 0.8"/>
      </g>
     </g>
     <g id="text_12">
      <!-- 15 -->
      <g transform="translate(20.878125 115.669771) scale(0.1 -0.1)">
       <use xlink:href="#DejaVuSans-31"/>
       <use xlink:href="#DejaVuSans-35" x="63.623047"/>
      </g>
     </g>
    </g>
    <g id="ytick_5">
     <g id="line2d_12">
      <g>
       <use xlink:href="#mdcbcfad708" x="40.603125" y="76.200737" style="stroke: #000000; stroke-width: 0.8"/>
      </g>
     </g>
     <g id="text_13">
      <!-- 20 -->
      <g transform="translate(20.878125 79.999955) scale(0.1 -0.1)">
       <use xlink:href="#DejaVuSans-32"/>
       <use xlink:href="#DejaVuSans-30" x="63.623047"/>
      </g>
     </g>
    </g>
    <g id="ytick_6">
     <g id="line2d_13">
      <g>
       <use xlink:href="#mdcbcfad708" x="40.603125" y="40.530921" style="stroke: #000000; stroke-width: 0.8"/>
      </g>
     </g>
     <g id="text_14">
      <!-- 25 -->
      <g transform="translate(20.878125 44.33014) scale(0.1 -0.1)">
       <use xlink:href="#DejaVuSans-32"/>
       <use xlink:href="#DejaVuSans-35" x="63.623047"/>
      </g>
     </g>
    </g>
    <g id="text_15">
     <!-- [dimensionless] -->
     <g transform="translate(14.798438 157.557344) rotate(-90) scale(0.1 -0.1)">
      <defs>
       <path id="DejaVuSans-64" d="M 2906 2969 
L 2906 4863 
L 3481 4863 
L 3481 0 
L 2906 0 
L 2906 525 
Q 2725 213 2448 61 
Q 2172 -91 1784 -91 
Q 1150 -91 751 415 
Q 353 922 353 1747 
Q 353 2572 751 3078 
Q 1150 3584 1784 3584 
Q 2172 3584 2448 3432 
Q 2725 3281 2906 2969 
z
M 947 1747 
Q 947 1113 1208 752 
Q 1469 391 1925 391 
Q 2381 391 2643 752 
Q 2906 1113 2906 1747 
Q 2906 2381 2643 2742 
Q 2381 3103 1925 3103 
Q 1469 3103 1208 2742 
Q 947 2381 947 1747 
z
" transform="scale(0.015625)"/>
       <path id="DejaVuSans-69" d="M 603 3500 
L 1178 3500 
L 1178 0 
L 603 0 
L 603 3500 
z
M 603 4863 
L 1178 4863 
L 1178 4134 
L 603 4134 
L 603 4863 
z
" transform="scale(0.015625)"/>
       <path id="DejaVuSans-6d" d="M 3328 2828 
Q 3544 3216 3844 3400 
Q 4144 3584 4550 3584 
Q 5097 3584 5394 3201 
Q 5691 2819 5691 2113 
L 5691 0 
L 5113 0 
L 5113 2094 
Q 5113 2597 4934 2840 
Q 4756 3084 4391 3084 
Q 3944 3084 3684 2787 
Q 3425 2491 3425 1978 
L 3425 0 
L 2847 0 
L 2847 2094 
Q 2847 2600 2669 2842 
Q 2491 3084 2119 3084 
Q 1678 3084 1418 2786 
Q 1159 2488 1159 1978 
L 1159 0 
L 581 0 
L 581 3500 
L 1159 3500 
L 1159 2956 
Q 1356 3278 1631 3431 
Q 1906 3584 2284 3584 
Q 2666 3584 2933 3390 
Q 3200 3197 3328 2828 
z
" transform="scale(0.015625)"/>
       <path id="DejaVuSans-65" d="M 3597 1894 
L 3597 1613 
L 953 1613 
Q 991 1019 1311 708 
Q 1631 397 2203 397 
Q 2534 397 2845 478 
Q 3156 559 3463 722 
L 3463 178 
Q 3153 47 2828 -22 
Q 2503 -91 2169 -91 
Q 1331 -91 842 396 
Q 353 884 353 1716 
Q 353 2575 817 3079 
Q 1281 3584 2069 3584 
Q 2775 3584 3186 3129 
Q 3597 2675 3597 1894 
z
M 3022 2063 
Q 3016 2534 2758 2815 
Q 2500 3097 2075 3097 
Q 1594 3097 1305 2825 
Q 1016 2553 972 2059 
L 3022 2063 
z
" transform="scale(0.015625)"/>
       <path id="DejaVuSans-6e" d="M 3513 2113 
L 3513 0 
L 2938 0 
L 2938 2094 
Q 2938 2591 2744 2837 
Q 2550 3084 2163 3084 
Q 1697 3084 1428 2787 
Q 1159 2491 1159 1978 
L 1159 0 
L 581 0 
L 581 3500 
L 1159 3500 
L 1159 2956 
Q 1366 3272 1645 3428 
Q 1925 3584 2291 3584 
Q 2894 3584 3203 3211 
Q 3513 2838 3513 2113 
z
" transform="scale(0.015625)"/>
       <path id="DejaVuSans-6c" d="M 603 4863 
L 1178 4863 
L 1178 0 
L 603 0 
L 603 4863 
z
" transform="scale(0.015625)"/>
      </defs>
      <use xlink:href="#DejaVuSans-5b"/>
      <use xlink:href="#DejaVuSans-64" x="39.013672"/>
      <use xlink:href="#DejaVuSans-69" x="102.490234"/>
      <use xlink:href="#DejaVuSans-6d" x="130.273438"/>
      <use xlink:href="#DejaVuSans-65" x="227.685547"/>
      <use xlink:href="#DejaVuSans-6e" x="289.208984"/>
      <use xlink:href="#DejaVuSans-73" x="352.587891"/>
      <use xlink:href="#DejaVuSans-69" x="404.6875"/>
      <use xlink:href="#DejaVuSans-6f" x="432.470703"/>
      <use xlink:href="#DejaVuSans-6e" x="493.652344"/>
      <use xlink:href="#DejaVuSans-6c" x="557.03125"/>
      <use xlink:href="#DejaVuSans-65" x="584.814453"/>
      <use xlink:href="#DejaVuSans-73" x="646.337891"/>
      <use xlink:href="#DejaVuSans-73" x="698.4375"/>
      <use xlink:href="#DejaVuSans-5d" x="750.537109"/>
     </g>
    </g>
   </g>
   <g id="patch_3">
    <path d="M 40.603125 228.96 
L 40.603125 7.2 
" style="fill: none; stroke: #000000; stroke-width: 0.8; stroke-linejoin: miter; stroke-linecap: square"/>
   </g>
   <g id="patch_4">
    <path d="M 375.403125 228.96 
L 375.403125 7.2 
" style="fill: none; stroke: #000000; stroke-width: 0.8; stroke-linejoin: miter; stroke-linecap: square"/>
   </g>
   <g id="patch_5">
    <path d="M 40.603125 228.96 
L 375.403125 228.96 
" style="fill: none; stroke: #000000; stroke-width: 0.8; stroke-linejoin: miter; stroke-linecap: square"/>
   </g>
   <g id="patch_6">
    <path d="M 40.603125 7.2 
L 375.403125 7.2 
" style="fill: none; stroke: #000000; stroke-width: 0.8; stroke-linejoin: miter; stroke-linecap: square"/>
   </g>
   <g id="legend_1">
    <g id="patch_7">
     <path d="M 250.135937 44.55625 
L 368.403125 44.55625 
Q 370.403125 44.55625 370.403125 42.55625 
L 370.403125 14.2 
Q 370.403125 12.2 368.403125 12.2 
L 250.135937 12.2 
Q 248.135937 12.2 248.135937 14.2 
L 248.135937 42.55625 
Q 248.135937 44.55625 250.135937 44.55625 
z
" style="fill: #ffffff; opacity: 0.8; stroke: #cccccc; stroke-linejoin: miter"/>
    </g>
    <g id="line2d_14">
     <path d="M 252.135937 20.298437 
L 252.135937 20.298437 
L 262.135937 20.298437 
L 262.135937 20.298437 
L 272.135937 20.298437 
" style="fill: none; stroke: #1f77b4; stroke-width: 1.5; stroke-linecap: square"/>
    </g>
    <g id="text_16">
     <!-- By proton charge -->
     <g transform="translate(280.135937 23.798437) scale(0.1 -0.1)">
      <defs>
       <path id="DejaVuSans-42" d="M 1259 2228 
L 1259 519 
L 2272 519 
Q 2781 519 3026 730 
Q 3272 941 3272 1375 
Q 3272 1813 3026 2020 
Q 2781 2228 2272 2228 
L 1259 2228 
z
M 1259 4147 
L 1259 2741 
L 2194 2741 
Q 2656 2741 2882 2914 
Q 3109 3088 3109 3444 
Q 3109 3797 2882 3972 
Q 2656 4147 2194 4147 
L 1259 4147 
z
M 628 4666 
L 2241 4666 
Q 2963 4666 3353 4366 
Q 3744 4066 3744 3513 
Q 3744 3084 3544 2831 
Q 3344 2578 2956 2516 
Q 3422 2416 3680 2098 
Q 3938 1781 3938 1306 
Q 3938 681 3513 340 
Q 3088 0 2303 0 
L 628 0 
L 628 4666 
z
" transform="scale(0.015625)"/>
       <path id="DejaVuSans-79" d="M 2059 -325 
Q 1816 -950 1584 -1140 
Q 1353 -1331 966 -1331 
L 506 -1331 
L 506 -850 
L 844 -850 
Q 1081 -850 1212 -737 
Q 1344 -625 1503 -206 
L 1606 56 
L 191 3500 
L 800 3500 
L 1894 763 
L 2988 3500 
L 3597 3500 
L 2059 -325 
z
" transform="scale(0.015625)"/>
       <path id="DejaVuSans-70" d="M 1159 525 
L 1159 -1331 
L 581 -1331 
L 581 3500 
L 1159 3500 
L 1159 2969 
Q 1341 3281 1617 3432 
Q 1894 3584 2278 3584 
Q 2916 3584 3314 3078 
Q 3713 2572 3713 1747 
Q 3713 922 3314 415 
Q 2916 -91 2278 -91 
Q 1894 -91 1617 61 
Q 1341 213 1159 525 
z
M 3116 1747 
Q 3116 2381 2855 2742 
Q 2594 3103 2138 3103 
Q 1681 3103 1420 2742 
Q 1159 2381 1159 1747 
Q 1159 1113 1420 752 
Q 1681 391 2138 391 
Q 2594 391 2855 752 
Q 3116 1113 3116 1747 
z
" transform="scale(0.015625)"/>
       <path id="DejaVuSans-72" d="M 2631 2963 
Q 2534 3019 2420 3045 
Q 2306 3072 2169 3072 
Q 1681 3072 1420 2755 
Q 1159 2438 1159 1844 
L 1159 0 
L 581 0 
L 581 3500 
L 1159 3500 
L 1159 2956 
Q 1341 3275 1631 3429 
Q 1922 3584 2338 3584 
Q 2397 3584 2469 3576 
Q 2541 3569 2628 3553 
L 2631 2963 
z
" transform="scale(0.015625)"/>
       <path id="DejaVuSans-63" d="M 3122 3366 
L 3122 2828 
Q 2878 2963 2633 3030 
Q 2388 3097 2138 3097 
Q 1578 3097 1268 2742 
Q 959 2388 959 1747 
Q 959 1106 1268 751 
Q 1578 397 2138 397 
Q 2388 397 2633 464 
Q 2878 531 3122 666 
L 3122 134 
Q 2881 22 2623 -34 
Q 2366 -91 2075 -91 
Q 1284 -91 818 406 
Q 353 903 353 1747 
Q 353 2603 823 3093 
Q 1294 3584 2113 3584 
Q 2378 3584 2631 3529 
Q 2884 3475 3122 3366 
z
" transform="scale(0.015625)"/>
       <path id="DejaVuSans-68" d="M 3513 2113 
L 3513 0 
L 2938 0 
L 2938 2094 
Q 2938 2591 2744 2837 
Q 2550 3084 2163 3084 
Q 1697 3084 1428 2787 
Q 1159 2491 1159 1978 
L 1159 0 
L 581 0 
L 581 4863 
L 1159 4863 
L 1159 2956 
Q 1366 3272 1645 3428 
Q 1925 3584 2291 3584 
Q 2894 3584 3203 3211 
Q 3513 2838 3513 2113 
z
" transform="scale(0.015625)"/>
       <path id="DejaVuSans-61" d="M 2194 1759 
Q 1497 1759 1228 1600 
Q 959 1441 959 1056 
Q 959 750 1161 570 
Q 1363 391 1709 391 
Q 2188 391 2477 730 
Q 2766 1069 2766 1631 
L 2766 1759 
L 2194 1759 
z
M 3341 1997 
L 3341 0 
L 2766 0 
L 2766 531 
Q 2569 213 2275 61 
Q 1981 -91 1556 -91 
Q 1019 -91 701 211 
Q 384 513 384 1019 
Q 384 1609 779 1909 
Q 1175 2209 1959 2209 
L 2766 2209 
L 2766 2266 
Q 2766 2663 2505 2880 
Q 2244 3097 1772 3097 
Q 1472 3097 1187 3025 
Q 903 2953 641 2809 
L 641 3341 
Q 956 3463 1253 3523 
Q 1550 3584 1831 3584 
Q 2591 3584 2966 3190 
Q 3341 2797 3341 1997 
z
" transform="scale(0.015625)"/>
       <path id="DejaVuSans-67" d="M 2906 1791 
Q 2906 2416 2648 2759 
Q 2391 3103 1925 3103 
Q 1463 3103 1205 2759 
Q 947 2416 947 1791 
Q 947 1169 1205 825 
Q 1463 481 1925 481 
Q 2391 481 2648 825 
Q 2906 1169 2906 1791 
z
M 3481 434 
Q 3481 -459 3084 -895 
Q 2688 -1331 1869 -1331 
Q 1566 -1331 1297 -1286 
Q 1028 -1241 775 -1147 
L 775 -588 
Q 1028 -725 1275 -790 
Q 1522 -856 1778 -856 
Q 2344 -856 2625 -561 
Q 2906 -266 2906 331 
L 2906 616 
Q 2728 306 2450 153 
Q 2172 0 1784 0 
Q 1141 0 747 490 
Q 353 981 353 1791 
Q 353 2603 747 3093 
Q 1141 3584 1784 3584 
Q 2172 3584 2450 3431 
Q 2728 3278 2906 2969 
L 2906 3500 
L 3481 3500 
L 3481 434 
z
" transform="scale(0.015625)"/>
      </defs>
      <use xlink:href="#DejaVuSans-42"/>
      <use xlink:href="#DejaVuSans-79" x="68.603516"/>
      <use xlink:href="#DejaVuSans-20" x="127.783203"/>
      <use xlink:href="#DejaVuSans-70" x="159.570312"/>
      <use xlink:href="#DejaVuSans-72" x="223.046875"/>
      <use xlink:href="#DejaVuSans-6f" x="261.910156"/>
      <use xlink:href="#DejaVuSans-74" x="323.091797"/>
      <use xlink:href="#DejaVuSans-6f" x="362.300781"/>
      <use xlink:href="#DejaVuSans-6e" x="423.482422"/>
      <use xlink:href="#DejaVuSans-20" x="486.861328"/>
      <use xlink:href="#DejaVuSans-63" x="518.648438"/>
      <use xlink:href="#DejaVuSans-68" x="573.628906"/>
      <use xlink:href="#DejaVuSans-61" x="637.007812"/>
      <use xlink:href="#DejaVuSans-72" x="698.287109"/>
      <use xlink:href="#DejaVuSans-67" x="737.650391"/>
      <use xlink:href="#DejaVuSans-65" x="801.126953"/>
     </g>
    </g>
    <g id="line2d_15">
     <path d="M 252.135937 34.976562 
L 252.135937 34.976562 
L 262.135937 34.976562 
L 262.135937 34.976562 
L 272.135937 34.976562 
" style="fill: none; stroke: #ff7f0e; stroke-width: 1.5; stroke-linecap: square"/>
    </g>
    <g id="text_17">
     <!-- By monitor -->
     <g transform="translate(280.135937 38.476562) scale(0.1 -0.1)">
      <use xlink:href="#DejaVuSans-42"/>
      <use xlink:href="#DejaVuSans-79" x="68.603516"/>
      <use xlink:href="#DejaVuSans-20" x="127.783203"/>
      <use xlink:href="#DejaVuSans-6d" x="159.570312"/>
      <use xlink:href="#DejaVuSans-6f" x="256.982422"/>
      <use xlink:href="#DejaVuSans-6e" x="318.164062"/>
      <use xlink:href="#DejaVuSans-69" x="381.542969"/>
      <use xlink:href="#DejaVuSans-74" x="409.326172"/>
      <use xlink:href="#DejaVuSans-6f" x="448.535156"/>
      <use xlink:href="#DejaVuSans-72" x="509.716797"/>
     </g>
    </g>
   </g>
   <g id="line2d_16">
    <path d="M 55.821307 218.88 
L 101.475852 218.88 
L 101.475852 218.739198 
L 116.694034 218.700554 
L 116.694034 218.621523 
L 124.303125 218.516994 
L 124.303125 218.394049 
L 128.86858 218.356566 
L 128.86858 218.268698 
L 130.390398 218.268698 
L 130.390398 217.462365 
L 131.912216 217.462365 
L 131.912216 216.659397 
L 133.434034 216.659397 
L 133.434034 215.380185 
L 134.955852 215.380185 
L 134.955852 214.466252 
L 136.47767 214.466252 
L 136.47767 215.456743 
L 137.999489 215.456743 
L 137.999489 216.363949 
L 139.521307 216.363949 
L 139.521307 216.871207 
L 141.043125 216.871207 
L 141.043125 216.277592 
L 142.564943 216.277592 
L 142.564943 215.847014 
L 144.086761 215.847014 
L 144.086761 215.310989 
L 145.60858 215.310989 
L 145.60858 214.768377 
L 147.130398 214.768377 
L 147.130398 215.535072 
L 148.652216 215.535072 
L 148.652216 216.258385 
L 150.174034 216.258385 
L 150.174034 215.833385 
L 151.695852 215.833385 
L 151.695852 212.213114 
L 153.21767 212.213114 
L 153.21767 212.393958 
L 154.739489 212.393958 
L 154.739489 214.427533 
L 156.261307 214.427533 
L 156.261307 215.725512 
L 157.783125 215.725512 
L 157.783125 216.252955 
L 159.304943 216.252955 
L 159.304943 216.675661 
L 160.826761 216.675661 
L 160.826761 216.926261 
L 162.34858 216.926261 
L 162.34858 217.134065 
L 165.392216 217.19791 
L 165.392216 216.866381 
L 166.914034 216.866381 
L 166.914034 213.743664 
L 168.435852 213.743664 
L 168.435852 212.400658 
L 169.95767 212.400658 
L 169.95767 214.339363 
L 171.479489 214.339363 
L 171.479489 215.390004 
L 173.001307 215.390004 
L 173.001307 216.092402 
L 174.523125 216.092402 
L 174.523125 215.738872 
L 176.044943 215.738872 
L 176.044943 211.670299 
L 177.566761 211.670299 
L 177.566761 210.380527 
L 179.08858 210.380527 
L 179.08858 213.432694 
L 180.610398 213.432694 
L 180.610398 214.743716 
L 182.132216 214.743716 
L 182.132216 215.686596 
L 183.654034 215.686596 
L 183.654034 216.347693 
L 185.175852 216.347693 
L 185.175852 216.553301 
L 186.69767 216.553301 
L 186.69767 216.8144 
L 188.219489 216.8144 
L 188.219489 216.932867 
L 189.741307 216.932867 
L 189.741307 217.104483 
L 191.263125 217.104483 
L 191.263125 215.058234 
L 192.784943 215.058234 
L 192.784943 208.29036 
L 194.306761 208.29036 
L 194.306761 209.007942 
L 195.82858 209.007942 
L 195.82858 211.618659 
L 197.350398 211.618659 
L 197.350398 208.523248 
L 198.872216 208.523248 
L 198.872216 203.886358 
L 200.394034 203.886358 
L 200.394034 208.225399 
L 201.915852 208.225399 
L 201.915852 210.845385 
L 203.43767 210.845385 
L 203.43767 212.850317 
L 204.959489 212.850317 
L 204.959489 214.177912 
L 206.481307 214.177912 
L 206.481307 215.025673 
L 208.003125 215.025673 
L 208.003125 215.830164 
L 211.046761 215.821499 
L 211.046761 216.381287 
L 212.56858 216.381287 
L 212.56858 216.689839 
L 214.090398 216.689839 
L 214.090398 216.992122 
L 215.612216 216.992122 
L 215.612216 217.109767 
L 217.134034 217.109767 
L 217.134034 217.295909 
L 218.655852 217.295909 
L 218.655852 217.4448 
L 220.17767 217.4448 
L 220.17767 217.647113 
L 229.30858 217.754951 
L 229.30858 217.791536 
L 235.395852 217.819111 
L 235.395852 217.959464 
L 238.439489 217.869387 
L 238.439489 217.847035 
L 241.483125 217.923832 
L 241.483125 218.000367 
L 246.04858 217.906556 
L 246.04858 217.811714 
L 256.701307 217.763964 
L 256.701307 217.696237 
L 264.310398 217.600551 
L 264.310398 217.573251 
L 271.919489 217.531704 
L 271.919489 217.296815 
L 273.441307 217.296815 
L 273.441307 217.433982 
L 278.006761 217.378785 
L 278.006761 217.233233 
L 287.13767 217.191434 
L 287.13767 217.025505 
L 294.746761 217.006744 
L 294.746761 216.856203 
L 300.834034 216.753919 
L 300.834034 216.59593 
L 302.355852 216.59593 
L 302.355852 216.789093 
L 303.87767 216.789093 
L 303.87767 216.524233 
L 305.399489 216.524233 
L 305.399489 216.412443 
L 308.443125 216.489515 
L 308.443125 216.586707 
L 313.00858 216.499018 
L 313.00858 216.472776 
L 319.095852 216.455764 
L 319.095852 216.307481 
L 320.61767 216.307481 
L 320.61767 215.601693 
L 322.139489 215.601693 
L 322.139489 212.709738 
L 323.661307 212.709738 
L 323.661307 206.769634 
L 325.183125 206.769634 
L 325.183125 176.813431 
L 326.704943 176.813431 
L 326.704943 145.295905 
L 328.226761 145.295905 
L 328.226761 151.195629 
L 329.74858 151.195629 
L 329.74858 162.123952 
L 331.270398 162.123952 
L 331.270398 171.284539 
L 332.792216 171.284539 
L 332.792216 180.053223 
L 334.314034 180.053223 
L 334.314034 186.321619 
L 335.835852 186.321619 
L 335.835852 193.794312 
L 337.35767 193.794312 
L 337.35767 200.303331 
L 338.879489 200.303331 
L 338.879489 206.712156 
L 340.401307 206.712156 
L 340.401307 210.539703 
L 341.923125 210.539703 
L 341.923125 212.645553 
L 343.444943 212.645553 
L 343.444943 213.599669 
L 344.966761 213.599669 
L 344.966761 214.487868 
L 346.48858 214.487868 
L 346.48858 215.409334 
L 348.010398 215.409334 
L 348.010398 215.793502 
L 349.532216 215.793502 
L 349.532216 216.160159 
L 351.054034 216.160159 
L 351.054034 216.316637 
L 352.575852 216.316637 
L 352.575852 216.471444 
L 355.619489 216.464777 
L 355.619489 216.590739 
L 360.184943 216.650902 
L 360.184943 216.650902 
" clip-path="url(#pcf90e71265)" style="fill: none; stroke: #1f77b4; stroke-width: 1.5; stroke-linecap: square"/>
   </g>
   <g id="LineCollection_1">
    <path d="M 56.582216 218.88 
L 56.582216 218.88 
" clip-path="url(#pcf90e71265)" style="fill: none; stroke: #1f77b4; stroke-width: 1.5"/>
    <path d="M 58.104034 218.88 
L 58.104034 218.88 
" clip-path="url(#pcf90e71265)" style="fill: none; stroke: #1f77b4; stroke-width: 1.5"/>
    <path d="M 59.625852 218.88 
L 59.625852 218.88 
" clip-path="url(#pcf90e71265)" style="fill: none; stroke: #1f77b4; stroke-width: 1.5"/>
    <path d="M 61.14767 218.88 
L 61.14767 218.88 
" clip-path="url(#pcf90e71265)" style="fill: none; stroke: #1f77b4; stroke-width: 1.5"/>
    <path d="M 62.669489 218.88 
L 62.669489 218.88 
" clip-path="url(#pcf90e71265)" style="fill: none; stroke: #1f77b4; stroke-width: 1.5"/>
    <path d="M 64.191307 218.88 
L 64.191307 218.88 
" clip-path="url(#pcf90e71265)" style="fill: none; stroke: #1f77b4; stroke-width: 1.5"/>
    <path d="M 65.713125 218.88 
L 65.713125 218.88 
" clip-path="url(#pcf90e71265)" style="fill: none; stroke: #1f77b4; stroke-width: 1.5"/>
    <path d="M 67.234943 218.88 
L 67.234943 218.88 
" clip-path="url(#pcf90e71265)" style="fill: none; stroke: #1f77b4; stroke-width: 1.5"/>
    <path d="M 68.756761 218.88 
L 68.756761 218.88 
" clip-path="url(#pcf90e71265)" style="fill: none; stroke: #1f77b4; stroke-width: 1.5"/>
    <path d="M 70.27858 218.88 
L 70.27858 218.88 
" clip-path="url(#pcf90e71265)" style="fill: none; stroke: #1f77b4; stroke-width: 1.5"/>
    <path d="M 71.800398 218.88 
L 71.800398 218.88 
" clip-path="url(#pcf90e71265)" style="fill: none; stroke: #1f77b4; stroke-width: 1.5"/>
    <path d="M 73.322216 218.88 
L 73.322216 218.88 
" clip-path="url(#pcf90e71265)" style="fill: none; stroke: #1f77b4; stroke-width: 1.5"/>
    <path d="M 74.844034 218.88 
L 74.844034 218.88 
" clip-path="url(#pcf90e71265)" style="fill: none; stroke: #1f77b4; stroke-width: 1.5"/>
    <path d="M 76.365852 218.88 
L 76.365852 218.88 
" clip-path="url(#pcf90e71265)" style="fill: none; stroke: #1f77b4; stroke-width: 1.5"/>
    <path d="M 77.88767 218.88 
L 77.88767 218.88 
" clip-path="url(#pcf90e71265)" style="fill: none; stroke: #1f77b4; stroke-width: 1.5"/>
    <path d="M 79.409489 218.88 
L 79.409489 218.88 
" clip-path="url(#pcf90e71265)" style="fill: none; stroke: #1f77b4; stroke-width: 1.5"/>
    <path d="M 80.931307 218.88 
L 80.931307 218.88 
" clip-path="url(#pcf90e71265)" style="fill: none; stroke: #1f77b4; stroke-width: 1.5"/>
    <path d="M 82.453125 218.88 
L 82.453125 218.88 
" clip-path="url(#pcf90e71265)" style="fill: none; stroke: #1f77b4; stroke-width: 1.5"/>
    <path d="M 83.974943 218.88 
L 83.974943 218.88 
" clip-path="url(#pcf90e71265)" style="fill: none; stroke: #1f77b4; stroke-width: 1.5"/>
    <path d="M 85.496761 218.88 
L 85.496761 218.88 
" clip-path="url(#pcf90e71265)" style="fill: none; stroke: #1f77b4; stroke-width: 1.5"/>
    <path d="M 87.01858 218.88 
L 87.01858 218.88 
" clip-path="url(#pcf90e71265)" style="fill: none; stroke: #1f77b4; stroke-width: 1.5"/>
    <path d="M 88.540398 218.88 
L 88.540398 218.88 
" clip-path="url(#pcf90e71265)" style="fill: none; stroke: #1f77b4; stroke-width: 1.5"/>
    <path d="M 90.062216 218.88 
L 90.062216 218.88 
" clip-path="url(#pcf90e71265)" style="fill: none; stroke: #1f77b4; stroke-width: 1.5"/>
    <path d="M 91.584034 218.88 
L 91.584034 218.88 
" clip-path="url(#pcf90e71265)" style="fill: none; stroke: #1f77b4; stroke-width: 1.5"/>
    <path d="M 93.105852 218.88 
L 93.105852 218.88 
" clip-path="url(#pcf90e71265)" style="fill: none; stroke: #1f77b4; stroke-width: 1.5"/>
    <path d="M 94.62767 218.88 
L 94.62767 218.88 
" clip-path="url(#pcf90e71265)" style="fill: none; stroke: #1f77b4; stroke-width: 1.5"/>
    <path d="M 96.149489 218.88 
L 96.149489 218.88 
" clip-path="url(#pcf90e71265)" style="fill: none; stroke: #1f77b4; stroke-width: 1.5"/>
    <path d="M 97.671307 218.88 
L 97.671307 218.88 
" clip-path="url(#pcf90e71265)" style="fill: none; stroke: #1f77b4; stroke-width: 1.5"/>
    <path d="M 99.193125 218.88 
L 99.193125 218.88 
" clip-path="url(#pcf90e71265)" style="fill: none; stroke: #1f77b4; stroke-width: 1.5"/>
    <path d="M 100.714943 218.88 
L 100.714943 218.88 
" clip-path="url(#pcf90e71265)" style="fill: none; stroke: #1f77b4; stroke-width: 1.5"/>
    <path d="M 102.236761 218.82049 
L 102.236761 218.657906 
" clip-path="url(#pcf90e71265)" style="fill: none; stroke: #1f77b4; stroke-width: 1.5"/>
    <path d="M 103.75858 218.791126 
L 103.75858 218.668497 
" clip-path="url(#pcf90e71265)" style="fill: none; stroke: #1f77b4; stroke-width: 1.5"/>
    <path d="M 105.280398 218.748554 
L 105.280398 218.635074 
" clip-path="url(#pcf90e71265)" style="fill: none; stroke: #1f77b4; stroke-width: 1.5"/>
    <path d="M 106.802216 218.816934 
L 106.802216 218.747949 
" clip-path="url(#pcf90e71265)" style="fill: none; stroke: #1f77b4; stroke-width: 1.5"/>
    <path d="M 108.324034 218.743999 
L 108.324034 218.663019 
" clip-path="url(#pcf90e71265)" style="fill: none; stroke: #1f77b4; stroke-width: 1.5"/>
    <path d="M 109.845852 218.791562 
L 109.845852 218.732604 
" clip-path="url(#pcf90e71265)" style="fill: none; stroke: #1f77b4; stroke-width: 1.5"/>
    <path d="M 111.36767 218.795082 
L 111.36767 218.744519 
" clip-path="url(#pcf90e71265)" style="fill: none; stroke: #1f77b4; stroke-width: 1.5"/>
    <path d="M 112.889489 218.796333 
L 112.889489 218.748139 
" clip-path="url(#pcf90e71265)" style="fill: none; stroke: #1f77b4; stroke-width: 1.5"/>
    <path d="M 114.411307 218.749102 
L 114.411307 218.696742 
" clip-path="url(#pcf90e71265)" style="fill: none; stroke: #1f77b4; stroke-width: 1.5"/>
    <path d="M 115.933125 218.727304 
L 115.933125 218.673804 
" clip-path="url(#pcf90e71265)" style="fill: none; stroke: #1f77b4; stroke-width: 1.5"/>
    <path d="M 117.454943 218.653583 
L 117.454943 218.589463 
" clip-path="url(#pcf90e71265)" style="fill: none; stroke: #1f77b4; stroke-width: 1.5"/>
    <path d="M 118.976761 218.57928 
L 118.976761 218.511698 
" clip-path="url(#pcf90e71265)" style="fill: none; stroke: #1f77b4; stroke-width: 1.5"/>
    <path d="M 120.49858 218.57545 
L 120.49858 218.508874 
" clip-path="url(#pcf90e71265)" style="fill: none; stroke: #1f77b4; stroke-width: 1.5"/>
    <path d="M 122.020398 218.58363 
L 122.020398 218.522963 
" clip-path="url(#pcf90e71265)" style="fill: none; stroke: #1f77b4; stroke-width: 1.5"/>
    <path d="M 123.542216 218.547565 
L 123.542216 218.486424 
" clip-path="url(#pcf90e71265)" style="fill: none; stroke: #1f77b4; stroke-width: 1.5"/>
    <path d="M 125.064034 218.428938 
L 125.064034 218.35916 
" clip-path="url(#pcf90e71265)" style="fill: none; stroke: #1f77b4; stroke-width: 1.5"/>
    <path d="M 126.585852 218.438422 
L 126.585852 218.371934 
" clip-path="url(#pcf90e71265)" style="fill: none; stroke: #1f77b4; stroke-width: 1.5"/>
    <path d="M 128.10767 218.390354 
L 128.10767 218.322779 
" clip-path="url(#pcf90e71265)" style="fill: none; stroke: #1f77b4; stroke-width: 1.5"/>
    <path d="M 129.629489 218.304533 
L 129.629489 218.232862 
" clip-path="url(#pcf90e71265)" style="fill: none; stroke: #1f77b4; stroke-width: 1.5"/>
    <path d="M 131.151307 217.513321 
L 131.151307 217.411409 
" clip-path="url(#pcf90e71265)" style="fill: none; stroke: #1f77b4; stroke-width: 1.5"/>
    <path d="M 132.673125 216.723394 
L 132.673125 216.5954 
" clip-path="url(#pcf90e71265)" style="fill: none; stroke: #1f77b4; stroke-width: 1.5"/>
    <path d="M 134.194943 215.459359 
L 134.194943 215.301011 
" clip-path="url(#pcf90e71265)" style="fill: none; stroke: #1f77b4; stroke-width: 1.5"/>
    <path d="M 135.716761 214.551607 
L 135.716761 214.380898 
" clip-path="url(#pcf90e71265)" style="fill: none; stroke: #1f77b4; stroke-width: 1.5"/>
    <path d="M 137.23858 215.529283 
L 137.23858 215.384203 
" clip-path="url(#pcf90e71265)" style="fill: none; stroke: #1f77b4; stroke-width: 1.5"/>
    <path d="M 138.760398 216.426307 
L 138.760398 216.301591 
" clip-path="url(#pcf90e71265)" style="fill: none; stroke: #1f77b4; stroke-width: 1.5"/>
    <path d="M 140.282216 216.925818 
L 140.282216 216.816595 
" clip-path="url(#pcf90e71265)" style="fill: none; stroke: #1f77b4; stroke-width: 1.5"/>
    <path d="M 141.804034 216.338779 
L 141.804034 216.216406 
" clip-path="url(#pcf90e71265)" style="fill: none; stroke: #1f77b4; stroke-width: 1.5"/>
    <path d="M 143.325852 215.911169 
L 143.325852 215.782859 
" clip-path="url(#pcf90e71265)" style="fill: none; stroke: #1f77b4; stroke-width: 1.5"/>
    <path d="M 144.84767 215.380477 
L 144.84767 215.241501 
" clip-path="url(#pcf90e71265)" style="fill: none; stroke: #1f77b4; stroke-width: 1.5"/>
    <path d="M 146.369489 214.841266 
L 146.369489 214.695488 
" clip-path="url(#pcf90e71265)" style="fill: none; stroke: #1f77b4; stroke-width: 1.5"/>
    <path d="M 147.891307 215.600596 
L 147.891307 215.469548 
" clip-path="url(#pcf90e71265)" style="fill: none; stroke: #1f77b4; stroke-width: 1.5"/>
    <path d="M 149.413125 216.315812 
L 149.413125 216.200957 
" clip-path="url(#pcf90e71265)" style="fill: none; stroke: #1f77b4; stroke-width: 1.5"/>
    <path d="M 150.934943 215.892905 
L 150.934943 215.773864 
" clip-path="url(#pcf90e71265)" style="fill: none; stroke: #1f77b4; stroke-width: 1.5"/>
    <path d="M 152.456761 212.301126 
L 152.456761 212.125102 
" clip-path="url(#pcf90e71265)" style="fill: none; stroke: #1f77b4; stroke-width: 1.5"/>
    <path d="M 153.97858 212.479898 
L 153.97858 212.308018 
" clip-path="url(#pcf90e71265)" style="fill: none; stroke: #1f77b4; stroke-width: 1.5"/>
    <path d="M 155.500398 214.49872 
L 155.500398 214.356346 
" clip-path="url(#pcf90e71265)" style="fill: none; stroke: #1f77b4; stroke-width: 1.5"/>
    <path d="M 157.022216 215.784029 
L 157.022216 215.666995 
" clip-path="url(#pcf90e71265)" style="fill: none; stroke: #1f77b4; stroke-width: 1.5"/>
    <path d="M 158.544034 216.306369 
L 158.544034 216.199542 
" clip-path="url(#pcf90e71265)" style="fill: none; stroke: #1f77b4; stroke-width: 1.5"/>
    <path d="M 160.065852 216.724371 
L 160.065852 216.626952 
" clip-path="url(#pcf90e71265)" style="fill: none; stroke: #1f77b4; stroke-width: 1.5"/>
    <path d="M 161.58767 216.97182 
L 161.58767 216.880702 
" clip-path="url(#pcf90e71265)" style="fill: none; stroke: #1f77b4; stroke-width: 1.5"/>
    <path d="M 163.109489 217.176891 
L 163.109489 217.091238 
" clip-path="url(#pcf90e71265)" style="fill: none; stroke: #1f77b4; stroke-width: 1.5"/>
    <path d="M 164.631307 217.239158 
L 164.631307 217.156662 
" clip-path="url(#pcf90e71265)" style="fill: none; stroke: #1f77b4; stroke-width: 1.5"/>
    <path d="M 166.153125 216.911073 
L 166.153125 216.821689 
" clip-path="url(#pcf90e71265)" style="fill: none; stroke: #1f77b4; stroke-width: 1.5"/>
    <path d="M 167.674943 213.814654 
L 167.674943 213.672675 
" clip-path="url(#pcf90e71265)" style="fill: none; stroke: #1f77b4; stroke-width: 1.5"/>
    <path d="M 169.196761 212.47878 
L 169.196761 212.322537 
" clip-path="url(#pcf90e71265)" style="fill: none; stroke: #1f77b4; stroke-width: 1.5"/>
    <path d="M 170.71858 214.404236 
L 170.71858 214.27449 
" clip-path="url(#pcf90e71265)" style="fill: none; stroke: #1f77b4; stroke-width: 1.5"/>
    <path d="M 172.240398 215.447071 
L 172.240398 215.332936 
" clip-path="url(#pcf90e71265)" style="fill: none; stroke: #1f77b4; stroke-width: 1.5"/>
    <path d="M 173.762216 216.143519 
L 173.762216 216.041286 
" clip-path="url(#pcf90e71265)" style="fill: none; stroke: #1f77b4; stroke-width: 1.5"/>
    <path d="M 175.284034 215.792335 
L 175.284034 215.68541 
" clip-path="url(#pcf90e71265)" style="fill: none; stroke: #1f77b4; stroke-width: 1.5"/>
    <path d="M 176.805852 211.751409 
L 176.805852 211.589189 
" clip-path="url(#pcf90e71265)" style="fill: none; stroke: #1f77b4; stroke-width: 1.5"/>
    <path d="M 178.32767 210.468962 
L 178.32767 210.292091 
" clip-path="url(#pcf90e71265)" style="fill: none; stroke: #1f77b4; stroke-width: 1.5"/>
    <path d="M 179.849489 213.501942 
L 179.849489 213.363447 
" clip-path="url(#pcf90e71265)" style="fill: none; stroke: #1f77b4; stroke-width: 1.5"/>
    <path d="M 181.371307 214.804185 
L 181.371307 214.683247 
" clip-path="url(#pcf90e71265)" style="fill: none; stroke: #1f77b4; stroke-width: 1.5"/>
    <path d="M 182.893125 215.738905 
L 182.893125 215.634287 
" clip-path="url(#pcf90e71265)" style="fill: none; stroke: #1f77b4; stroke-width: 1.5"/>
    <path d="M 184.414943 216.393285 
L 184.414943 216.302101 
" clip-path="url(#pcf90e71265)" style="fill: none; stroke: #1f77b4; stroke-width: 1.5"/>
    <path d="M 185.936761 216.597775 
L 185.936761 216.508827 
" clip-path="url(#pcf90e71265)" style="fill: none; stroke: #1f77b4; stroke-width: 1.5"/>
    <path d="M 187.45858 216.855937 
L 187.45858 216.772863 
" clip-path="url(#pcf90e71265)" style="fill: none; stroke: #1f77b4; stroke-width: 1.5"/>
    <path d="M 188.980398 216.973033 
L 188.980398 216.892701 
" clip-path="url(#pcf90e71265)" style="fill: none; stroke: #1f77b4; stroke-width: 1.5"/>
    <path d="M 190.502216 217.142589 
L 190.502216 217.066377 
" clip-path="url(#pcf90e71265)" style="fill: none; stroke: #1f77b4; stroke-width: 1.5"/>
    <path d="M 192.024034 215.11401 
L 192.024034 215.002458 
" clip-path="url(#pcf90e71265)" style="fill: none; stroke: #1f77b4; stroke-width: 1.5"/>
    <path d="M 193.545852 208.382612 
L 193.545852 208.198109 
" clip-path="url(#pcf90e71265)" style="fill: none; stroke: #1f77b4; stroke-width: 1.5"/>
    <path d="M 195.06767 209.096923 
L 195.06767 208.918962 
" clip-path="url(#pcf90e71265)" style="fill: none; stroke: #1f77b4; stroke-width: 1.5"/>
    <path d="M 196.589489 211.694691 
L 196.589489 211.542627 
" clip-path="url(#pcf90e71265)" style="fill: none; stroke: #1f77b4; stroke-width: 1.5"/>
    <path d="M 198.111307 208.61393 
L 198.111307 208.432567 
" clip-path="url(#pcf90e71265)" style="fill: none; stroke: #1f77b4; stroke-width: 1.5"/>
    <path d="M 199.633125 203.995171 
L 199.633125 203.777546 
" clip-path="url(#pcf90e71265)" style="fill: none; stroke: #1f77b4; stroke-width: 1.5"/>
    <path d="M 201.154943 208.31537 
L 201.154943 208.135429 
" clip-path="url(#pcf90e71265)" style="fill: none; stroke: #1f77b4; stroke-width: 1.5"/>
    <path d="M 202.676761 210.925587 
L 202.676761 210.765183 
" clip-path="url(#pcf90e71265)" style="fill: none; stroke: #1f77b4; stroke-width: 1.5"/>
    <path d="M 204.19858 212.919036 
L 204.19858 212.781598 
" clip-path="url(#pcf90e71265)" style="fill: none; stroke: #1f77b4; stroke-width: 1.5"/>
    <path d="M 205.720398 214.238219 
L 205.720398 214.117604 
" clip-path="url(#pcf90e71265)" style="fill: none; stroke: #1f77b4; stroke-width: 1.5"/>
    <path d="M 207.242216 215.081023 
L 207.242216 214.970322 
" clip-path="url(#pcf90e71265)" style="fill: none; stroke: #1f77b4; stroke-width: 1.5"/>
    <path d="M 208.764034 215.878237 
L 208.764034 215.782092 
" clip-path="url(#pcf90e71265)" style="fill: none; stroke: #1f77b4; stroke-width: 1.5"/>
    <path d="M 210.285852 215.869768 
L 210.285852 215.77323 
" clip-path="url(#pcf90e71265)" style="fill: none; stroke: #1f77b4; stroke-width: 1.5"/>
    <path d="M 211.80767 216.424439 
L 211.80767 216.338135 
" clip-path="url(#pcf90e71265)" style="fill: none; stroke: #1f77b4; stroke-width: 1.5"/>
    <path d="M 213.329489 216.730136 
L 213.329489 216.649542 
" clip-path="url(#pcf90e71265)" style="fill: none; stroke: #1f77b4; stroke-width: 1.5"/>
    <path d="M 214.851307 217.029574 
L 214.851307 216.954671 
" clip-path="url(#pcf90e71265)" style="fill: none; stroke: #1f77b4; stroke-width: 1.5"/>
    <path d="M 216.373125 217.14613 
L 216.373125 217.073405 
" clip-path="url(#pcf90e71265)" style="fill: none; stroke: #1f77b4; stroke-width: 1.5"/>
    <path d="M 217.894943 217.33016 
L 217.894943 217.261658 
" clip-path="url(#pcf90e71265)" style="fill: none; stroke: #1f77b4; stroke-width: 1.5"/>
    <path d="M 219.416761 217.477334 
L 219.416761 217.412265 
" clip-path="url(#pcf90e71265)" style="fill: none; stroke: #1f77b4; stroke-width: 1.5"/>
    <path d="M 220.93858 217.677104 
L 220.93858 217.617123 
" clip-path="url(#pcf90e71265)" style="fill: none; stroke: #1f77b4; stroke-width: 1.5"/>
    <path d="M 222.460398 217.678898 
L 222.460398 217.618677 
" clip-path="url(#pcf90e71265)" style="fill: none; stroke: #1f77b4; stroke-width: 1.5"/>
    <path d="M 223.982216 217.699754 
L 223.982216 217.640083 
" clip-path="url(#pcf90e71265)" style="fill: none; stroke: #1f77b4; stroke-width: 1.5"/>
    <path d="M 225.504034 217.752814 
L 225.504034 217.694768 
" clip-path="url(#pcf90e71265)" style="fill: none; stroke: #1f77b4; stroke-width: 1.5"/>
    <path d="M 227.025852 217.727069 
L 227.025852 217.667811 
" clip-path="url(#pcf90e71265)" style="fill: none; stroke: #1f77b4; stroke-width: 1.5"/>
    <path d="M 228.54767 217.783436 
L 228.54767 217.726467 
" clip-path="url(#pcf90e71265)" style="fill: none; stroke: #1f77b4; stroke-width: 1.5"/>
    <path d="M 230.069489 217.82031 
L 230.069489 217.762763 
" clip-path="url(#pcf90e71265)" style="fill: none; stroke: #1f77b4; stroke-width: 1.5"/>
    <path d="M 231.591307 217.815505 
L 231.591307 217.758208 
" clip-path="url(#pcf90e71265)" style="fill: none; stroke: #1f77b4; stroke-width: 1.5"/>
    <path d="M 233.113125 217.878068 
L 233.113125 217.822301 
" clip-path="url(#pcf90e71265)" style="fill: none; stroke: #1f77b4; stroke-width: 1.5"/>
    <path d="M 234.634943 217.847638 
L 234.634943 217.790583 
" clip-path="url(#pcf90e71265)" style="fill: none; stroke: #1f77b4; stroke-width: 1.5"/>
    <path d="M 236.156761 217.985873 
L 236.156761 217.933055 
" clip-path="url(#pcf90e71265)" style="fill: none; stroke: #1f77b4; stroke-width: 1.5"/>
    <path d="M 237.67858 217.897193 
L 237.67858 217.841581 
" clip-path="url(#pcf90e71265)" style="fill: none; stroke: #1f77b4; stroke-width: 1.5"/>
    <path d="M 239.200398 217.875317 
L 239.200398 217.818753 
" clip-path="url(#pcf90e71265)" style="fill: none; stroke: #1f77b4; stroke-width: 1.5"/>
    <path d="M 240.722216 217.950673 
L 240.722216 217.896991 
" clip-path="url(#pcf90e71265)" style="fill: none; stroke: #1f77b4; stroke-width: 1.5"/>
    <path d="M 242.244034 218.026171 
L 242.244034 217.974562 
" clip-path="url(#pcf90e71265)" style="fill: none; stroke: #1f77b4; stroke-width: 1.5"/>
    <path d="M 243.765852 217.962387 
L 243.765852 217.908182 
" clip-path="url(#pcf90e71265)" style="fill: none; stroke: #1f77b4; stroke-width: 1.5"/>
    <path d="M 245.28767 217.933947 
L 245.28767 217.879165 
" clip-path="url(#pcf90e71265)" style="fill: none; stroke: #1f77b4; stroke-width: 1.5"/>
    <path d="M 246.809489 217.840389 
L 246.809489 217.78304 
" clip-path="url(#pcf90e71265)" style="fill: none; stroke: #1f77b4; stroke-width: 1.5"/>
    <path d="M 248.331307 217.896993 
L 248.331307 217.841218 
" clip-path="url(#pcf90e71265)" style="fill: none; stroke: #1f77b4; stroke-width: 1.5"/>
    <path d="M 249.853125 217.894538 
L 249.853125 217.83895 
" clip-path="url(#pcf90e71265)" style="fill: none; stroke: #1f77b4; stroke-width: 1.5"/>
    <path d="M 251.374943 217.808594 
L 251.374943 217.751148 
" clip-path="url(#pcf90e71265)" style="fill: none; stroke: #1f77b4; stroke-width: 1.5"/>
    <path d="M 252.896761 217.744166 
L 252.896761 217.685157 
" clip-path="url(#pcf90e71265)" style="fill: none; stroke: #1f77b4; stroke-width: 1.5"/>
    <path d="M 254.41858 217.835474 
L 254.41858 217.779073 
" clip-path="url(#pcf90e71265)" style="fill: none; stroke: #1f77b4; stroke-width: 1.5"/>
    <path d="M 255.940398 217.792838 
L 255.940398 217.735091 
" clip-path="url(#pcf90e71265)" style="fill: none; stroke: #1f77b4; stroke-width: 1.5"/>
    <path d="M 257.462216 217.725981 
L 257.462216 217.666494 
" clip-path="url(#pcf90e71265)" style="fill: none; stroke: #1f77b4; stroke-width: 1.5"/>
    <path d="M 258.984034 217.695716 
L 258.984034 217.635446 
" clip-path="url(#pcf90e71265)" style="fill: none; stroke: #1f77b4; stroke-width: 1.5"/>
    <path d="M 260.505852 217.685769 
L 260.505852 217.626755 
" clip-path="url(#pcf90e71265)" style="fill: none; stroke: #1f77b4; stroke-width: 1.5"/>
    <path d="M 262.02767 217.644244 
L 262.02767 217.584258 
" clip-path="url(#pcf90e71265)" style="fill: none; stroke: #1f77b4; stroke-width: 1.5"/>
    <path d="M 263.549489 217.630758 
L 263.549489 217.570344 
" clip-path="url(#pcf90e71265)" style="fill: none; stroke: #1f77b4; stroke-width: 1.5"/>
    <path d="M 265.071307 217.604311 
L 265.071307 217.542191 
" clip-path="url(#pcf90e71265)" style="fill: none; stroke: #1f77b4; stroke-width: 1.5"/>
    <path d="M 266.593125 217.577904 
L 266.593125 217.516156 
" clip-path="url(#pcf90e71265)" style="fill: none; stroke: #1f77b4; stroke-width: 1.5"/>
    <path d="M 268.114943 217.567256 
L 268.114943 217.505409 
" clip-path="url(#pcf90e71265)" style="fill: none; stroke: #1f77b4; stroke-width: 1.5"/>
    <path d="M 269.636761 217.581554 
L 269.636761 217.520709 
" clip-path="url(#pcf90e71265)" style="fill: none; stroke: #1f77b4; stroke-width: 1.5"/>
    <path d="M 271.15858 217.56212 
L 271.15858 217.501287 
" clip-path="url(#pcf90e71265)" style="fill: none; stroke: #1f77b4; stroke-width: 1.5"/>
    <path d="M 272.680398 217.330424 
L 272.680398 217.263206 
" clip-path="url(#pcf90e71265)" style="fill: none; stroke: #1f77b4; stroke-width: 1.5"/>
    <path d="M 274.202216 217.465605 
L 274.202216 217.40236 
" clip-path="url(#pcf90e71265)" style="fill: none; stroke: #1f77b4; stroke-width: 1.5"/>
    <path d="M 275.724034 217.436607 
L 275.724034 217.373676 
" clip-path="url(#pcf90e71265)" style="fill: none; stroke: #1f77b4; stroke-width: 1.5"/>
    <path d="M 277.245852 217.410539 
L 277.245852 217.34703 
" clip-path="url(#pcf90e71265)" style="fill: none; stroke: #1f77b4; stroke-width: 1.5"/>
    <path d="M 278.76767 217.266578 
L 278.76767 217.199889 
" clip-path="url(#pcf90e71265)" style="fill: none; stroke: #1f77b4; stroke-width: 1.5"/>
    <path d="M 280.289489 217.325079 
L 280.289489 217.260138 
" clip-path="url(#pcf90e71265)" style="fill: none; stroke: #1f77b4; stroke-width: 1.5"/>
    <path d="M 281.811307 217.314529 
L 281.811307 217.248994 
" clip-path="url(#pcf90e71265)" style="fill: none; stroke: #1f77b4; stroke-width: 1.5"/>
    <path d="M 283.333125 217.220814 
L 283.333125 217.154133 
" clip-path="url(#pcf90e71265)" style="fill: none; stroke: #1f77b4; stroke-width: 1.5"/>
    <path d="M 284.854943 217.172145 
L 284.854943 217.10415 
" clip-path="url(#pcf90e71265)" style="fill: none; stroke: #1f77b4; stroke-width: 1.5"/>
    <path d="M 286.376761 217.224512 
L 286.376761 217.158357 
" clip-path="url(#pcf90e71265)" style="fill: none; stroke: #1f77b4; stroke-width: 1.5"/>
    <path d="M 287.89858 217.060104 
L 287.89858 216.990907 
" clip-path="url(#pcf90e71265)" style="fill: none; stroke: #1f77b4; stroke-width: 1.5"/>
    <path d="M 289.420398 217.140122 
L 289.420398 217.072738 
" clip-path="url(#pcf90e71265)" style="fill: none; stroke: #1f77b4; stroke-width: 1.5"/>
    <path d="M 290.942216 217.044748 
L 290.942216 216.974593 
" clip-path="url(#pcf90e71265)" style="fill: none; stroke: #1f77b4; stroke-width: 1.5"/>
    <path d="M 292.464034 217.098336 
L 292.464034 217.029922 
" clip-path="url(#pcf90e71265)" style="fill: none; stroke: #1f77b4; stroke-width: 1.5"/>
    <path d="M 293.985852 217.040652 
L 293.985852 216.972836 
" clip-path="url(#pcf90e71265)" style="fill: none; stroke: #1f77b4; stroke-width: 1.5"/>
    <path d="M 295.50767 216.891895 
L 295.50767 216.820511 
" clip-path="url(#pcf90e71265)" style="fill: none; stroke: #1f77b4; stroke-width: 1.5"/>
    <path d="M 297.029489 216.931408 
L 297.029489 216.860893 
" clip-path="url(#pcf90e71265)" style="fill: none; stroke: #1f77b4; stroke-width: 1.5"/>
    <path d="M 298.551307 216.788659 
L 298.551307 216.715643 
" clip-path="url(#pcf90e71265)" style="fill: none; stroke: #1f77b4; stroke-width: 1.5"/>
    <path d="M 300.073125 216.790269 
L 300.073125 216.717569 
" clip-path="url(#pcf90e71265)" style="fill: none; stroke: #1f77b4; stroke-width: 1.5"/>
    <path d="M 301.594943 216.633746 
L 301.594943 216.558113 
" clip-path="url(#pcf90e71265)" style="fill: none; stroke: #1f77b4; stroke-width: 1.5"/>
    <path d="M 303.116761 216.82437 
L 303.116761 216.753816 
" clip-path="url(#pcf90e71265)" style="fill: none; stroke: #1f77b4; stroke-width: 1.5"/>
    <path d="M 304.63858 216.562189 
L 304.63858 216.486276 
" clip-path="url(#pcf90e71265)" style="fill: none; stroke: #1f77b4; stroke-width: 1.5"/>
    <path d="M 306.160398 216.451395 
L 306.160398 216.373491 
" clip-path="url(#pcf90e71265)" style="fill: none; stroke: #1f77b4; stroke-width: 1.5"/>
    <path d="M 307.682216 216.527536 
L 307.682216 216.451494 
" clip-path="url(#pcf90e71265)" style="fill: none; stroke: #1f77b4; stroke-width: 1.5"/>
    <path d="M 309.204034 216.623647 
L 309.204034 216.549766 
" clip-path="url(#pcf90e71265)" style="fill: none; stroke: #1f77b4; stroke-width: 1.5"/>
    <path d="M 310.725852 216.715996 
L 310.725852 216.643615 
" clip-path="url(#pcf90e71265)" style="fill: none; stroke: #1f77b4; stroke-width: 1.5"/>
    <path d="M 312.24767 216.536778 
L 312.24767 216.461258 
" clip-path="url(#pcf90e71265)" style="fill: none; stroke: #1f77b4; stroke-width: 1.5"/>
    <path d="M 313.769489 216.510546 
L 313.769489 216.435006 
" clip-path="url(#pcf90e71265)" style="fill: none; stroke: #1f77b4; stroke-width: 1.5"/>
    <path d="M 315.291307 216.530421 
L 315.291307 216.454879 
" clip-path="url(#pcf90e71265)" style="fill: none; stroke: #1f77b4; stroke-width: 1.5"/>
    <path d="M 316.813125 216.480244 
L 316.813125 216.404852 
" clip-path="url(#pcf90e71265)" style="fill: none; stroke: #1f77b4; stroke-width: 1.5"/>
    <path d="M 318.334943 216.493279 
L 318.334943 216.41825 
" clip-path="url(#pcf90e71265)" style="fill: none; stroke: #1f77b4; stroke-width: 1.5"/>
    <path d="M 319.856761 216.345902 
L 319.856761 216.269059 
" clip-path="url(#pcf90e71265)" style="fill: none; stroke: #1f77b4; stroke-width: 1.5"/>
    <path d="M 321.37858 215.645595 
L 321.37858 215.55779 
" clip-path="url(#pcf90e71265)" style="fill: none; stroke: #1f77b4; stroke-width: 1.5"/>
    <path d="M 322.900398 212.769788 
L 322.900398 212.649688 
" clip-path="url(#pcf90e71265)" style="fill: none; stroke: #1f77b4; stroke-width: 1.5"/>
    <path d="M 324.422216 206.853375 
L 324.422216 206.685893 
" clip-path="url(#pcf90e71265)" style="fill: none; stroke: #1f77b4; stroke-width: 1.5"/>
    <path d="M 325.944034 176.968241 
L 325.944034 176.658622 
" clip-path="url(#pcf90e71265)" style="fill: none; stroke: #1f77b4; stroke-width: 1.5"/>
    <path d="M 327.465852 145.50067 
L 327.465852 145.09114 
" clip-path="url(#pcf90e71265)" style="fill: none; stroke: #1f77b4; stroke-width: 1.5"/>
    <path d="M 328.98767 151.391025 
L 328.98767 151.000233 
" clip-path="url(#pcf90e71265)" style="fill: none; stroke: #1f77b4; stroke-width: 1.5"/>
    <path d="M 330.509489 162.303135 
L 330.509489 161.944769 
" clip-path="url(#pcf90e71265)" style="fill: none; stroke: #1f77b4; stroke-width: 1.5"/>
    <path d="M 332.031307 171.449657 
L 332.031307 171.119422 
" clip-path="url(#pcf90e71265)" style="fill: none; stroke: #1f77b4; stroke-width: 1.5"/>
    <path d="M 333.553125 180.200345 
L 333.553125 179.906101 
" clip-path="url(#pcf90e71265)" style="fill: none; stroke: #1f77b4; stroke-width: 1.5"/>
    <path d="M 335.074943 186.457484 
L 335.074943 186.185755 
" clip-path="url(#pcf90e71265)" style="fill: none; stroke: #1f77b4; stroke-width: 1.5"/>
    <path d="M 336.596761 193.912865 
L 336.596761 193.675759 
" clip-path="url(#pcf90e71265)" style="fill: none; stroke: #1f77b4; stroke-width: 1.5"/>
    <path d="M 338.11858 200.40558 
L 338.11858 200.201082 
" clip-path="url(#pcf90e71265)" style="fill: none; stroke: #1f77b4; stroke-width: 1.5"/>
    <path d="M 339.640398 206.794256 
L 339.640398 206.630055 
" clip-path="url(#pcf90e71265)" style="fill: none; stroke: #1f77b4; stroke-width: 1.5"/>
    <path d="M 341.162216 210.60819 
L 341.162216 210.471215 
" clip-path="url(#pcf90e71265)" style="fill: none; stroke: #1f77b4; stroke-width: 1.5"/>
    <path d="M 342.684034 212.704119 
L 342.684034 212.586987 
" clip-path="url(#pcf90e71265)" style="fill: none; stroke: #1f77b4; stroke-width: 1.5"/>
    <path d="M 344.205852 213.654047 
L 344.205852 213.54529 
" clip-path="url(#pcf90e71265)" style="fill: none; stroke: #1f77b4; stroke-width: 1.5"/>
    <path d="M 345.72767 214.537707 
L 345.72767 214.438028 
" clip-path="url(#pcf90e71265)" style="fill: none; stroke: #1f77b4; stroke-width: 1.5"/>
    <path d="M 347.249489 215.453102 
L 347.249489 215.365566 
" clip-path="url(#pcf90e71265)" style="fill: none; stroke: #1f77b4; stroke-width: 1.5"/>
    <path d="M 348.771307 215.835457 
L 348.771307 215.751546 
" clip-path="url(#pcf90e71265)" style="fill: none; stroke: #1f77b4; stroke-width: 1.5"/>
    <path d="M 350.293125 216.199502 
L 350.293125 216.120815 
" clip-path="url(#pcf90e71265)" style="fill: none; stroke: #1f77b4; stroke-width: 1.5"/>
    <path d="M 351.814943 216.354622 
L 351.814943 216.278651 
" clip-path="url(#pcf90e71265)" style="fill: none; stroke: #1f77b4; stroke-width: 1.5"/>
    <path d="M 353.336761 216.508715 
L 353.336761 216.434172 
" clip-path="url(#pcf90e71265)" style="fill: none; stroke: #1f77b4; stroke-width: 1.5"/>
    <path d="M 354.85858 216.502459 
L 354.85858 216.427094 
" clip-path="url(#pcf90e71265)" style="fill: none; stroke: #1f77b4; stroke-width: 1.5"/>
    <path d="M 356.380398 216.627415 
L 356.380398 216.554062 
" clip-path="url(#pcf90e71265)" style="fill: none; stroke: #1f77b4; stroke-width: 1.5"/>
    <path d="M 357.902216 216.71438 
L 357.902216 216.642202 
" clip-path="url(#pcf90e71265)" style="fill: none; stroke: #1f77b4; stroke-width: 1.5"/>
    <path d="M 359.424034 216.687683 
L 359.424034 216.614121 
" clip-path="url(#pcf90e71265)" style="fill: none; stroke: #1f77b4; stroke-width: 1.5"/>
   </g>
   <g id="line2d_17">
    <path d="M 55.821307 218.88 
L 101.475852 218.88 
L 101.475852 218.560105 
L 102.99767 218.560105 
L 102.99767 218.879994 
L 145.60858 218.852674 
L 145.60858 217.59512 
L 147.130398 217.59512 
L 147.130398 194.85101 
L 148.652216 194.85101 
L 148.652216 218.857571 
L 153.21767 218.874687 
L 153.21767 217.280059 
L 154.739489 217.280059 
L 154.739489 218.767426 
L 157.783125 218.85011 
L 157.783125 218.879039 
L 160.826761 218.876029 
L 160.826761 97.158081 
L 162.34858 97.158081 
L 162.34858 162.611847 
L 163.870398 162.611847 
L 163.870398 214.96658 
L 165.392216 214.96658 
L 165.392216 206.35292 
L 166.914034 206.35292 
L 166.914034 214.713022 
L 168.435852 214.713022 
L 168.435852 215.566546 
L 169.95767 215.566546 
L 169.95767 216.54566 
L 171.479489 216.54566 
L 171.479489 210.331154 
L 173.001307 210.331154 
L 173.001307 199.721701 
L 174.523125 199.721701 
L 174.523125 217.40737 
L 176.044943 217.40737 
L 176.044943 216.579494 
L 177.566761 216.579494 
L 177.566761 216.88954 
L 179.08858 216.88954 
L 179.08858 216.432208 
L 180.610398 216.432208 
L 180.610398 216.318495 
L 182.132216 216.318495 
L 182.132216 216.513727 
L 183.654034 216.513727 
L 183.654034 216.271182 
L 185.175852 216.271182 
L 185.175852 216.066315 
L 186.69767 216.066315 
L 186.69767 215.470599 
L 188.219489 215.470599 
L 188.219489 216.36916 
L 189.741307 216.36916 
L 189.741307 216.830391 
L 191.263125 216.830391 
L 191.263125 214.510828 
L 192.784943 214.510828 
L 192.784943 206.557425 
L 194.306761 206.557425 
L 194.306761 208.527666 
L 195.82858 208.527666 
L 195.82858 212.091057 
L 197.350398 212.091057 
L 197.350398 208.275363 
L 198.872216 208.275363 
L 198.872216 202.723995 
L 200.394034 202.723995 
L 200.394034 208.967716 
L 201.915852 208.967716 
L 201.915852 212.226419 
L 203.43767 212.226419 
L 203.43767 214.262237 
L 204.959489 214.262237 
L 204.959489 215.23907 
L 206.481307 215.23907 
L 206.481307 215.868392 
L 208.003125 215.868392 
L 208.003125 216.377391 
L 209.524943 216.377391 
L 209.524943 216.045273 
L 211.046761 216.045273 
L 211.046761 216.562622 
L 212.56858 216.562622 
L 212.56858 216.796503 
L 214.090398 216.796503 
L 214.090398 217.080475 
L 217.134034 217.148487 
L 217.134034 217.373543 
L 218.655852 217.373543 
L 218.655852 217.527873 
L 220.17767 217.527873 
L 220.17767 217.754079 
L 224.743125 217.827389 
L 224.743125 217.897562 
L 232.352216 217.985704 
L 232.352216 218.12755 
L 258.223125 218.05575 
L 258.223125 218.011372 
L 271.919489 217.90188 
L 271.919489 217.779448 
L 273.441307 217.779448 
L 273.441307 217.901301 
L 276.484943 217.832654 
L 276.484943 217.77891 
L 282.572216 217.71634 
L 282.572216 217.640706 
L 287.13767 217.599392 
L 287.13767 217.443584 
L 294.746761 217.431376 
L 294.746761 217.268337 
L 297.790398 217.278373 
L 297.790398 217.122005 
L 300.834034 217.126999 
L 300.834034 216.95086 
L 302.355852 216.95086 
L 302.355852 217.108055 
L 303.87767 217.108055 
L 303.87767 216.93505 
L 305.399489 216.93505 
L 305.399489 216.747379 
L 308.443125 216.810832 
L 308.443125 216.90142 
L 313.00858 216.805312 
L 313.00858 216.774378 
L 319.095852 216.709578 
L 319.095852 216.555183 
L 320.61767 216.555183 
L 320.61767 214.970674 
L 322.139489 214.970674 
L 322.139489 208.494995 
L 323.661307 208.494995 
L 323.661307 200.695787 
L 325.183125 200.695787 
L 325.183125 168.485046 
L 326.704943 168.485046 
L 326.704943 139.274554 
L 328.226761 139.274554 
L 328.226761 155.536436 
L 329.74858 155.536436 
L 329.74858 173.446575 
L 331.270398 173.446575 
L 331.270398 184.951567 
L 332.792216 184.951567 
L 332.792216 194.005744 
L 334.314034 194.005744 
L 334.314034 199.247253 
L 335.835852 199.247253 
L 335.835852 203.251399 
L 337.35767 203.251399 
L 337.35767 205.711284 
L 338.879489 205.711284 
L 338.879489 207.662342 
L 340.401307 207.662342 
L 340.401307 207.243932 
L 341.923125 207.243932 
L 341.923125 207.493128 
L 343.444943 207.493128 
L 343.444943 209.334926 
L 344.966761 209.334926 
L 344.966761 212.6476 
L 346.48858 212.6476 
L 346.48858 215.026188 
L 348.010398 215.026188 
L 348.010398 215.978116 
L 349.532216 215.978116 
L 349.532216 216.531859 
L 351.054034 216.531859 
L 351.054034 216.778439 
L 352.575852 216.778439 
L 352.575852 217.008424 
L 354.09767 217.008424 
L 354.09767 217.144896 
L 355.619489 217.144896 
L 355.619489 217.38011 
L 358.663125 217.451829 
L 358.663125 217.537788 
L 360.184943 217.537788 
L 360.184943 217.537788 
" clip-path="url(#pcf90e71265)" style="fill: none; stroke: #ff7f0e; stroke-width: 1.5; stroke-linecap: square"/>
   </g>
   <g id="LineCollection_2">
    <path d="M 56.582216 218.88 
L 56.582216 218.88 
" clip-path="url(#pcf90e71265)" style="fill: none; stroke: #ff7f0e; stroke-width: 1.5"/>
    <path d="M 58.104034 218.88 
L 58.104034 218.88 
" clip-path="url(#pcf90e71265)" style="fill: none; stroke: #ff7f0e; stroke-width: 1.5"/>
    <path d="M 59.625852 218.88 
L 59.625852 218.88 
" clip-path="url(#pcf90e71265)" style="fill: none; stroke: #ff7f0e; stroke-width: 1.5"/>
    <path d="M 61.14767 218.88 
L 61.14767 218.88 
" clip-path="url(#pcf90e71265)" style="fill: none; stroke: #ff7f0e; stroke-width: 1.5"/>
    <path d="M 62.669489 218.88 
L 62.669489 218.88 
" clip-path="url(#pcf90e71265)" style="fill: none; stroke: #ff7f0e; stroke-width: 1.5"/>
    <path d="M 64.191307 218.88 
L 64.191307 218.88 
" clip-path="url(#pcf90e71265)" style="fill: none; stroke: #ff7f0e; stroke-width: 1.5"/>
    <path d="M 65.713125 218.88 
L 65.713125 218.88 
" clip-path="url(#pcf90e71265)" style="fill: none; stroke: #ff7f0e; stroke-width: 1.5"/>
    <path d="M 67.234943 218.88 
L 67.234943 218.88 
" clip-path="url(#pcf90e71265)" style="fill: none; stroke: #ff7f0e; stroke-width: 1.5"/>
    <path d="M 68.756761 218.88 
L 68.756761 218.88 
" clip-path="url(#pcf90e71265)" style="fill: none; stroke: #ff7f0e; stroke-width: 1.5"/>
    <path d="M 70.27858 218.88 
L 70.27858 218.88 
" clip-path="url(#pcf90e71265)" style="fill: none; stroke: #ff7f0e; stroke-width: 1.5"/>
    <path d="M 71.800398 218.88 
L 71.800398 218.88 
" clip-path="url(#pcf90e71265)" style="fill: none; stroke: #ff7f0e; stroke-width: 1.5"/>
    <path d="M 73.322216 218.88 
L 73.322216 218.88 
" clip-path="url(#pcf90e71265)" style="fill: none; stroke: #ff7f0e; stroke-width: 1.5"/>
    <path d="M 74.844034 218.88 
L 74.844034 218.88 
" clip-path="url(#pcf90e71265)" style="fill: none; stroke: #ff7f0e; stroke-width: 1.5"/>
    <path d="M 76.365852 218.88 
L 76.365852 218.88 
" clip-path="url(#pcf90e71265)" style="fill: none; stroke: #ff7f0e; stroke-width: 1.5"/>
    <path d="M 77.88767 218.88 
L 77.88767 218.88 
" clip-path="url(#pcf90e71265)" style="fill: none; stroke: #ff7f0e; stroke-width: 1.5"/>
    <path d="M 79.409489 218.88 
L 79.409489 218.88 
" clip-path="url(#pcf90e71265)" style="fill: none; stroke: #ff7f0e; stroke-width: 1.5"/>
    <path d="M 80.931307 218.88 
L 80.931307 218.88 
" clip-path="url(#pcf90e71265)" style="fill: none; stroke: #ff7f0e; stroke-width: 1.5"/>
    <path d="M 82.453125 218.88 
L 82.453125 218.88 
" clip-path="url(#pcf90e71265)" style="fill: none; stroke: #ff7f0e; stroke-width: 1.5"/>
    <path d="M 83.974943 218.88 
L 83.974943 218.88 
" clip-path="url(#pcf90e71265)" style="fill: none; stroke: #ff7f0e; stroke-width: 1.5"/>
    <path d="M 85.496761 218.88 
L 85.496761 218.88 
" clip-path="url(#pcf90e71265)" style="fill: none; stroke: #ff7f0e; stroke-width: 1.5"/>
    <path d="M 87.01858 218.88 
L 87.01858 218.88 
" clip-path="url(#pcf90e71265)" style="fill: none; stroke: #ff7f0e; stroke-width: 1.5"/>
    <path d="M 88.540398 218.88 
L 88.540398 218.88 
" clip-path="url(#pcf90e71265)" style="fill: none; stroke: #ff7f0e; stroke-width: 1.5"/>
    <path d="M 90.062216 218.88 
L 90.062216 218.88 
" clip-path="url(#pcf90e71265)" style="fill: none; stroke: #ff7f0e; stroke-width: 1.5"/>
    <path d="M 91.584034 218.88 
L 91.584034 218.88 
" clip-path="url(#pcf90e71265)" style="fill: none; stroke: #ff7f0e; stroke-width: 1.5"/>
    <path d="M 93.105852 218.88 
L 93.105852 218.88 
" clip-path="url(#pcf90e71265)" style="fill: none; stroke: #ff7f0e; stroke-width: 1.5"/>
    <path d="M 94.62767 218.88 
L 94.62767 218.88 
" clip-path="url(#pcf90e71265)" style="fill: none; stroke: #ff7f0e; stroke-width: 1.5"/>
    <path d="M 96.149489 218.88 
L 96.149489 218.88 
" clip-path="url(#pcf90e71265)" style="fill: none; stroke: #ff7f0e; stroke-width: 1.5"/>
    <path d="M 97.671307 218.88 
L 97.671307 218.88 
" clip-path="url(#pcf90e71265)" style="fill: none; stroke: #ff7f0e; stroke-width: 1.5"/>
    <path d="M 99.193125 218.88 
L 99.193125 218.88 
" clip-path="url(#pcf90e71265)" style="fill: none; stroke: #ff7f0e; stroke-width: 1.5"/>
    <path d="M 100.714943 218.88 
L 100.714943 218.88 
" clip-path="url(#pcf90e71265)" style="fill: none; stroke: #ff7f0e; stroke-width: 1.5"/>
    <path d="M 102.236761 218.878311 
L 102.236761 218.241899 
" clip-path="url(#pcf90e71265)" style="fill: none; stroke: #ff7f0e; stroke-width: 1.5"/>
    <path d="M 103.75858 218.879997 
L 103.75858 218.879992 
" clip-path="url(#pcf90e71265)" style="fill: none; stroke: #ff7f0e; stroke-width: 1.5"/>
    <path d="M 105.280398 218.878409 
L 105.280398 218.871064 
" clip-path="url(#pcf90e71265)" style="fill: none; stroke: #ff7f0e; stroke-width: 1.5"/>
    <path d="M 106.802216 218.879997 
L 106.802216 218.879954 
" clip-path="url(#pcf90e71265)" style="fill: none; stroke: #ff7f0e; stroke-width: 1.5"/>
    <path d="M 108.324034 218.879986 
L 108.324034 218.879929 
" clip-path="url(#pcf90e71265)" style="fill: none; stroke: #ff7f0e; stroke-width: 1.5"/>
    <path d="M 109.845852 218.879996 
L 109.845852 218.873895 
" clip-path="url(#pcf90e71265)" style="fill: none; stroke: #ff7f0e; stroke-width: 1.5"/>
    <path d="M 111.36767 218.88 
L 111.36767 218.879999 
" clip-path="url(#pcf90e71265)" style="fill: none; stroke: #ff7f0e; stroke-width: 1.5"/>
    <path d="M 112.889489 218.879652 
L 112.889489 218.879042 
" clip-path="url(#pcf90e71265)" style="fill: none; stroke: #ff7f0e; stroke-width: 1.5"/>
    <path d="M 114.411307 218.88 
L 114.411307 218.879876 
" clip-path="url(#pcf90e71265)" style="fill: none; stroke: #ff7f0e; stroke-width: 1.5"/>
    <path d="M 115.933125 218.879952 
L 115.933125 218.879873 
" clip-path="url(#pcf90e71265)" style="fill: none; stroke: #ff7f0e; stroke-width: 1.5"/>
    <path d="M 117.454943 218.879988 
L 117.454943 218.879941 
" clip-path="url(#pcf90e71265)" style="fill: none; stroke: #ff7f0e; stroke-width: 1.5"/>
    <path d="M 118.976761 218.869096 
L 118.976761 218.826859 
" clip-path="url(#pcf90e71265)" style="fill: none; stroke: #ff7f0e; stroke-width: 1.5"/>
    <path d="M 120.49858 218.879999 
L 120.49858 218.879995 
" clip-path="url(#pcf90e71265)" style="fill: none; stroke: #ff7f0e; stroke-width: 1.5"/>
    <path d="M 122.020398 218.879997 
L 122.020398 218.879964 
" clip-path="url(#pcf90e71265)" style="fill: none; stroke: #ff7f0e; stroke-width: 1.5"/>
    <path d="M 123.542216 218.879983 
L 123.542216 218.879945 
" clip-path="url(#pcf90e71265)" style="fill: none; stroke: #ff7f0e; stroke-width: 1.5"/>
    <path d="M 125.064034 218.876085 
L 125.064034 218.865392 
" clip-path="url(#pcf90e71265)" style="fill: none; stroke: #ff7f0e; stroke-width: 1.5"/>
    <path d="M 126.585852 218.88 
L 126.585852 218.879705 
" clip-path="url(#pcf90e71265)" style="fill: none; stroke: #ff7f0e; stroke-width: 1.5"/>
    <path d="M 128.10767 218.879959 
L 128.10767 218.8799 
" clip-path="url(#pcf90e71265)" style="fill: none; stroke: #ff7f0e; stroke-width: 1.5"/>
    <path d="M 129.629489 218.879998 
L 129.629489 218.879987 
" clip-path="url(#pcf90e71265)" style="fill: none; stroke: #ff7f0e; stroke-width: 1.5"/>
    <path d="M 131.151307 218.879948 
L 131.151307 218.879812 
" clip-path="url(#pcf90e71265)" style="fill: none; stroke: #ff7f0e; stroke-width: 1.5"/>
    <path d="M 132.673125 218.879979 
L 132.673125 218.879845 
" clip-path="url(#pcf90e71265)" style="fill: none; stroke: #ff7f0e; stroke-width: 1.5"/>
    <path d="M 134.194943 218.879996 
L 134.194943 218.879989 
" clip-path="url(#pcf90e71265)" style="fill: none; stroke: #ff7f0e; stroke-width: 1.5"/>
    <path d="M 135.716761 218.879958 
L 135.716761 218.879275 
" clip-path="url(#pcf90e71265)" style="fill: none; stroke: #ff7f0e; stroke-width: 1.5"/>
    <path d="M 137.23858 218.879993 
L 137.23858 218.793994 
" clip-path="url(#pcf90e71265)" style="fill: none; stroke: #ff7f0e; stroke-width: 1.5"/>
    <path d="M 138.760398 218.88 
L 138.760398 218.878438 
" clip-path="url(#pcf90e71265)" style="fill: none; stroke: #ff7f0e; stroke-width: 1.5"/>
    <path d="M 140.282216 218.879945 
L 140.282216 218.879801 
" clip-path="url(#pcf90e71265)" style="fill: none; stroke: #ff7f0e; stroke-width: 1.5"/>
    <path d="M 141.804034 218.879782 
L 141.804034 218.879507 
" clip-path="url(#pcf90e71265)" style="fill: none; stroke: #ff7f0e; stroke-width: 1.5"/>
    <path d="M 143.325852 218.879702 
L 143.325852 218.879175 
" clip-path="url(#pcf90e71265)" style="fill: none; stroke: #ff7f0e; stroke-width: 1.5"/>
    <path d="M 144.84767 218.873683 
L 144.84767 218.831665 
" clip-path="url(#pcf90e71265)" style="fill: none; stroke: #ff7f0e; stroke-width: 1.5"/>
    <path d="M 146.369489 218.179037 
L 146.369489 217.011203 
" clip-path="url(#pcf90e71265)" style="fill: none; stroke: #ff7f0e; stroke-width: 1.5"/>
    <path d="M 147.891307 218.874727 
L 147.891307 170.827292 
" clip-path="url(#pcf90e71265)" style="fill: none; stroke: #ff7f0e; stroke-width: 1.5"/>
    <path d="M 149.413125 218.870292 
L 149.413125 218.84485 
" clip-path="url(#pcf90e71265)" style="fill: none; stroke: #ff7f0e; stroke-width: 1.5"/>
    <path d="M 150.934943 218.870867 
L 150.934943 218.835016 
" clip-path="url(#pcf90e71265)" style="fill: none; stroke: #ff7f0e; stroke-width: 1.5"/>
    <path d="M 152.456761 218.877542 
L 152.456761 218.871832 
" clip-path="url(#pcf90e71265)" style="fill: none; stroke: #ff7f0e; stroke-width: 1.5"/>
    <path d="M 153.97858 218.877712 
L 153.97858 215.682407 
" clip-path="url(#pcf90e71265)" style="fill: none; stroke: #ff7f0e; stroke-width: 1.5"/>
    <path d="M 155.500398 218.828318 
L 155.500398 218.706534 
" clip-path="url(#pcf90e71265)" style="fill: none; stroke: #ff7f0e; stroke-width: 1.5"/>
    <path d="M 157.022216 218.878544 
L 157.022216 218.821676 
" clip-path="url(#pcf90e71265)" style="fill: none; stroke: #ff7f0e; stroke-width: 1.5"/>
    <path d="M 158.544034 218.879841 
L 158.544034 218.878237 
" clip-path="url(#pcf90e71265)" style="fill: none; stroke: #ff7f0e; stroke-width: 1.5"/>
    <path d="M 160.065852 218.879521 
L 160.065852 218.872538 
" clip-path="url(#pcf90e71265)" style="fill: none; stroke: #ff7f0e; stroke-width: 1.5"/>
    <path d="M 161.58767 177.036162 
L 161.58767 17.28 
" clip-path="url(#pcf90e71265)" style="fill: none; stroke: #ff7f0e; stroke-width: 1.5"/>
    <path d="M 163.109489 190.896793 
L 163.109489 134.3269 
" clip-path="url(#pcf90e71265)" style="fill: none; stroke: #ff7f0e; stroke-width: 1.5"/>
    <path d="M 164.631307 218.169612 
L 164.631307 211.763549 
" clip-path="url(#pcf90e71265)" style="fill: none; stroke: #ff7f0e; stroke-width: 1.5"/>
    <path d="M 166.153125 212.200095 
L 166.153125 200.505746 
" clip-path="url(#pcf90e71265)" style="fill: none; stroke: #ff7f0e; stroke-width: 1.5"/>
    <path d="M 167.674943 216.264492 
L 167.674943 213.161553 
" clip-path="url(#pcf90e71265)" style="fill: none; stroke: #ff7f0e; stroke-width: 1.5"/>
    <path d="M 169.196761 217.31406 
L 169.196761 213.819031 
" clip-path="url(#pcf90e71265)" style="fill: none; stroke: #ff7f0e; stroke-width: 1.5"/>
    <path d="M 170.71858 217.117315 
L 170.71858 215.974005 
" clip-path="url(#pcf90e71265)" style="fill: none; stroke: #ff7f0e; stroke-width: 1.5"/>
    <path d="M 172.240398 212.118641 
L 172.240398 208.543667 
" clip-path="url(#pcf90e71265)" style="fill: none; stroke: #ff7f0e; stroke-width: 1.5"/>
    <path d="M 173.762216 204.56803 
L 173.762216 194.875372 
" clip-path="url(#pcf90e71265)" style="fill: none; stroke: #ff7f0e; stroke-width: 1.5"/>
    <path d="M 175.284034 217.914645 
L 175.284034 216.900094 
" clip-path="url(#pcf90e71265)" style="fill: none; stroke: #ff7f0e; stroke-width: 1.5"/>
    <path d="M 176.805852 217.000484 
L 176.805852 216.158505 
" clip-path="url(#pcf90e71265)" style="fill: none; stroke: #ff7f0e; stroke-width: 1.5"/>
    <path d="M 178.32767 216.990927 
L 178.32767 216.788154 
" clip-path="url(#pcf90e71265)" style="fill: none; stroke: #ff7f0e; stroke-width: 1.5"/>
    <path d="M 179.849489 216.607416 
L 179.849489 216.257 
" clip-path="url(#pcf90e71265)" style="fill: none; stroke: #ff7f0e; stroke-width: 1.5"/>
    <path d="M 181.371307 216.446895 
L 181.371307 216.190096 
" clip-path="url(#pcf90e71265)" style="fill: none; stroke: #ff7f0e; stroke-width: 1.5"/>
    <path d="M 182.893125 216.654616 
L 182.893125 216.372838 
" clip-path="url(#pcf90e71265)" style="fill: none; stroke: #ff7f0e; stroke-width: 1.5"/>
    <path d="M 184.414943 216.404739 
L 184.414943 216.137624 
" clip-path="url(#pcf90e71265)" style="fill: none; stroke: #ff7f0e; stroke-width: 1.5"/>
    <path d="M 185.936761 216.223132 
L 185.936761 215.909499 
" clip-path="url(#pcf90e71265)" style="fill: none; stroke: #ff7f0e; stroke-width: 1.5"/>
    <path d="M 187.45858 215.659718 
L 187.45858 215.281479 
" clip-path="url(#pcf90e71265)" style="fill: none; stroke: #ff7f0e; stroke-width: 1.5"/>
    <path d="M 188.980398 216.49079 
L 188.980398 216.24753 
" clip-path="url(#pcf90e71265)" style="fill: none; stroke: #ff7f0e; stroke-width: 1.5"/>
    <path d="M 190.502216 216.906809 
L 190.502216 216.753974 
" clip-path="url(#pcf90e71265)" style="fill: none; stroke: #ff7f0e; stroke-width: 1.5"/>
    <path d="M 192.024034 214.592362 
L 192.024034 214.429293 
" clip-path="url(#pcf90e71265)" style="fill: none; stroke: #ff7f0e; stroke-width: 1.5"/>
    <path d="M 193.545852 206.677389 
L 193.545852 206.437461 
" clip-path="url(#pcf90e71265)" style="fill: none; stroke: #ff7f0e; stroke-width: 1.5"/>
    <path d="M 195.06767 208.63653 
L 195.06767 208.418802 
" clip-path="url(#pcf90e71265)" style="fill: none; stroke: #ff7f0e; stroke-width: 1.5"/>
    <path d="M 196.589489 212.180074 
L 196.589489 212.002041 
" clip-path="url(#pcf90e71265)" style="fill: none; stroke: #ff7f0e; stroke-width: 1.5"/>
    <path d="M 198.111307 208.37617 
L 198.111307 208.174557 
" clip-path="url(#pcf90e71265)" style="fill: none; stroke: #ff7f0e; stroke-width: 1.5"/>
    <path d="M 199.633125 202.8451 
L 199.633125 202.60289 
" clip-path="url(#pcf90e71265)" style="fill: none; stroke: #ff7f0e; stroke-width: 1.5"/>
    <path d="M 201.154943 209.053886 
L 201.154943 208.881546 
" clip-path="url(#pcf90e71265)" style="fill: none; stroke: #ff7f0e; stroke-width: 1.5"/>
    <path d="M 202.676761 212.295003 
L 202.676761 212.157835 
" clip-path="url(#pcf90e71265)" style="fill: none; stroke: #ff7f0e; stroke-width: 1.5"/>
    <path d="M 204.19858 214.317046 
L 204.19858 214.207429 
" clip-path="url(#pcf90e71265)" style="fill: none; stroke: #ff7f0e; stroke-width: 1.5"/>
    <path d="M 205.720398 215.288414 
L 205.720398 215.189727 
" clip-path="url(#pcf90e71265)" style="fill: none; stroke: #ff7f0e; stroke-width: 1.5"/>
    <path d="M 207.242216 215.914319 
L 207.242216 215.822466 
" clip-path="url(#pcf90e71265)" style="fill: none; stroke: #ff7f0e; stroke-width: 1.5"/>
    <path d="M 208.764034 216.419393 
L 208.764034 216.335388 
" clip-path="url(#pcf90e71265)" style="fill: none; stroke: #ff7f0e; stroke-width: 1.5"/>
    <path d="M 210.285852 216.093233 
L 210.285852 215.997313 
" clip-path="url(#pcf90e71265)" style="fill: none; stroke: #ff7f0e; stroke-width: 1.5"/>
    <path d="M 211.80767 216.604998 
L 211.80767 216.520245 
" clip-path="url(#pcf90e71265)" style="fill: none; stroke: #ff7f0e; stroke-width: 1.5"/>
    <path d="M 213.329489 216.83686 
L 213.329489 216.756145 
" clip-path="url(#pcf90e71265)" style="fill: none; stroke: #ff7f0e; stroke-width: 1.5"/>
    <path d="M 214.851307 217.117902 
L 214.851307 217.043049 
" clip-path="url(#pcf90e71265)" style="fill: none; stroke: #ff7f0e; stroke-width: 1.5"/>
    <path d="M 216.373125 217.185646 
L 216.373125 217.111328 
" clip-path="url(#pcf90e71265)" style="fill: none; stroke: #ff7f0e; stroke-width: 1.5"/>
    <path d="M 217.894943 217.40796 
L 217.894943 217.339126 
" clip-path="url(#pcf90e71265)" style="fill: none; stroke: #ff7f0e; stroke-width: 1.5"/>
    <path d="M 219.416761 217.560319 
L 219.416761 217.495427 
" clip-path="url(#pcf90e71265)" style="fill: none; stroke: #ff7f0e; stroke-width: 1.5"/>
    <path d="M 220.93858 217.783339 
L 220.93858 217.72482 
" clip-path="url(#pcf90e71265)" style="fill: none; stroke: #ff7f0e; stroke-width: 1.5"/>
    <path d="M 222.460398 217.809646 
L 222.460398 217.751596 
" clip-path="url(#pcf90e71265)" style="fill: none; stroke: #ff7f0e; stroke-width: 1.5"/>
    <path d="M 223.982216 217.855702 
L 223.982216 217.799076 
" clip-path="url(#pcf90e71265)" style="fill: none; stroke: #ff7f0e; stroke-width: 1.5"/>
    <path d="M 225.504034 217.92506 
L 225.504034 217.870064 
" clip-path="url(#pcf90e71265)" style="fill: none; stroke: #ff7f0e; stroke-width: 1.5"/>
    <path d="M 227.025852 217.888377 
L 227.025852 217.829255 
" clip-path="url(#pcf90e71265)" style="fill: none; stroke: #ff7f0e; stroke-width: 1.5"/>
    <path d="M 228.54767 217.945574 
L 228.54767 217.884836 
" clip-path="url(#pcf90e71265)" style="fill: none; stroke: #ff7f0e; stroke-width: 1.5"/>
    <path d="M 230.069489 218.020067 
L 230.069489 217.960932 
" clip-path="url(#pcf90e71265)" style="fill: none; stroke: #ff7f0e; stroke-width: 1.5"/>
    <path d="M 231.591307 218.016884 
L 231.591307 217.954523 
" clip-path="url(#pcf90e71265)" style="fill: none; stroke: #ff7f0e; stroke-width: 1.5"/>
    <path d="M 233.113125 218.15393 
L 233.113125 218.101169 
" clip-path="url(#pcf90e71265)" style="fill: none; stroke: #ff7f0e; stroke-width: 1.5"/>
    <path d="M 234.634943 218.07429 
L 234.634943 218.014369 
" clip-path="url(#pcf90e71265)" style="fill: none; stroke: #ff7f0e; stroke-width: 1.5"/>
    <path d="M 236.156761 218.226629 
L 236.156761 218.176079 
" clip-path="url(#pcf90e71265)" style="fill: none; stroke: #ff7f0e; stroke-width: 1.5"/>
    <path d="M 237.67858 218.180155 
L 237.67858 218.129306 
" clip-path="url(#pcf90e71265)" style="fill: none; stroke: #ff7f0e; stroke-width: 1.5"/>
    <path d="M 239.200398 218.166625 
L 239.200398 218.115848 
" clip-path="url(#pcf90e71265)" style="fill: none; stroke: #ff7f0e; stroke-width: 1.5"/>
    <path d="M 240.722216 218.233315 
L 240.722216 218.186096 
" clip-path="url(#pcf90e71265)" style="fill: none; stroke: #ff7f0e; stroke-width: 1.5"/>
    <path d="M 242.244034 218.255514 
L 242.244034 218.206787 
" clip-path="url(#pcf90e71265)" style="fill: none; stroke: #ff7f0e; stroke-width: 1.5"/>
    <path d="M 243.765852 218.237864 
L 243.765852 218.189168 
" clip-path="url(#pcf90e71265)" style="fill: none; stroke: #ff7f0e; stroke-width: 1.5"/>
    <path d="M 245.28767 218.172341 
L 245.28767 218.119456 
" clip-path="url(#pcf90e71265)" style="fill: none; stroke: #ff7f0e; stroke-width: 1.5"/>
    <path d="M 246.809489 218.1136 
L 246.809489 218.060742 
" clip-path="url(#pcf90e71265)" style="fill: none; stroke: #ff7f0e; stroke-width: 1.5"/>
    <path d="M 248.331307 218.174336 
L 248.331307 218.125064 
" clip-path="url(#pcf90e71265)" style="fill: none; stroke: #ff7f0e; stroke-width: 1.5"/>
    <path d="M 249.853125 218.161437 
L 249.853125 218.109116 
" clip-path="url(#pcf90e71265)" style="fill: none; stroke: #ff7f0e; stroke-width: 1.5"/>
    <path d="M 251.374943 218.124352 
L 251.374943 218.07289 
" clip-path="url(#pcf90e71265)" style="fill: none; stroke: #ff7f0e; stroke-width: 1.5"/>
    <path d="M 252.896761 218.069711 
L 252.896761 218.01682 
" clip-path="url(#pcf90e71265)" style="fill: none; stroke: #ff7f0e; stroke-width: 1.5"/>
    <path d="M 254.41858 218.122003 
L 254.41858 218.070177 
" clip-path="url(#pcf90e71265)" style="fill: none; stroke: #ff7f0e; stroke-width: 1.5"/>
    <path d="M 255.940398 218.121187 
L 255.940398 218.071705 
" clip-path="url(#pcf90e71265)" style="fill: none; stroke: #ff7f0e; stroke-width: 1.5"/>
    <path d="M 257.462216 218.081631 
L 257.462216 218.029869 
" clip-path="url(#pcf90e71265)" style="fill: none; stroke: #ff7f0e; stroke-width: 1.5"/>
    <path d="M 258.984034 218.037755 
L 258.984034 217.98499 
" clip-path="url(#pcf90e71265)" style="fill: none; stroke: #ff7f0e; stroke-width: 1.5"/>
    <path d="M 260.505852 218.032926 
L 260.505852 217.978855 
" clip-path="url(#pcf90e71265)" style="fill: none; stroke: #ff7f0e; stroke-width: 1.5"/>
    <path d="M 262.02767 217.982752 
L 262.02767 217.927867 
" clip-path="url(#pcf90e71265)" style="fill: none; stroke: #ff7f0e; stroke-width: 1.5"/>
    <path d="M 263.549489 217.981398 
L 263.549489 217.926759 
" clip-path="url(#pcf90e71265)" style="fill: none; stroke: #ff7f0e; stroke-width: 1.5"/>
    <path d="M 265.071307 217.994558 
L 265.071307 217.941108 
" clip-path="url(#pcf90e71265)" style="fill: none; stroke: #ff7f0e; stroke-width: 1.5"/>
    <path d="M 266.593125 217.97388 
L 266.593125 217.921392 
" clip-path="url(#pcf90e71265)" style="fill: none; stroke: #ff7f0e; stroke-width: 1.5"/>
    <path d="M 268.114943 217.938589 
L 268.114943 217.884428 
" clip-path="url(#pcf90e71265)" style="fill: none; stroke: #ff7f0e; stroke-width: 1.5"/>
    <path d="M 269.636761 217.963561 
L 269.636761 217.911846 
" clip-path="url(#pcf90e71265)" style="fill: none; stroke: #ff7f0e; stroke-width: 1.5"/>
    <path d="M 271.15858 217.928328 
L 271.15858 217.875433 
" clip-path="url(#pcf90e71265)" style="fill: none; stroke: #ff7f0e; stroke-width: 1.5"/>
    <path d="M 272.680398 217.807132 
L 272.680398 217.751764 
" clip-path="url(#pcf90e71265)" style="fill: none; stroke: #ff7f0e; stroke-width: 1.5"/>
    <path d="M 274.202216 217.925986 
L 274.202216 217.876617 
" clip-path="url(#pcf90e71265)" style="fill: none; stroke: #ff7f0e; stroke-width: 1.5"/>
    <path d="M 275.724034 217.859049 
L 275.724034 217.806259 
" clip-path="url(#pcf90e71265)" style="fill: none; stroke: #ff7f0e; stroke-width: 1.5"/>
    <path d="M 277.245852 217.806497 
L 277.245852 217.751324 
" clip-path="url(#pcf90e71265)" style="fill: none; stroke: #ff7f0e; stroke-width: 1.5"/>
    <path d="M 278.76767 217.7337 
L 278.76767 217.67863 
" clip-path="url(#pcf90e71265)" style="fill: none; stroke: #ff7f0e; stroke-width: 1.5"/>
    <path d="M 280.289489 217.748747 
L 280.289489 217.693259 
" clip-path="url(#pcf90e71265)" style="fill: none; stroke: #ff7f0e; stroke-width: 1.5"/>
    <path d="M 281.811307 217.743372 
L 281.811307 217.689308 
" clip-path="url(#pcf90e71265)" style="fill: none; stroke: #ff7f0e; stroke-width: 1.5"/>
    <path d="M 283.333125 217.667973 
L 283.333125 217.61344 
" clip-path="url(#pcf90e71265)" style="fill: none; stroke: #ff7f0e; stroke-width: 1.5"/>
    <path d="M 284.854943 217.595979 
L 284.854943 217.538481 
" clip-path="url(#pcf90e71265)" style="fill: none; stroke: #ff7f0e; stroke-width: 1.5"/>
    <path d="M 286.376761 217.62764 
L 286.376761 217.571144 
" clip-path="url(#pcf90e71265)" style="fill: none; stroke: #ff7f0e; stroke-width: 1.5"/>
    <path d="M 287.89858 217.474784 
L 287.89858 217.412384 
" clip-path="url(#pcf90e71265)" style="fill: none; stroke: #ff7f0e; stroke-width: 1.5"/>
    <path d="M 289.420398 217.546712 
L 289.420398 217.488724 
" clip-path="url(#pcf90e71265)" style="fill: none; stroke: #ff7f0e; stroke-width: 1.5"/>
    <path d="M 290.942216 217.499351 
L 290.942216 217.441595 
" clip-path="url(#pcf90e71265)" style="fill: none; stroke: #ff7f0e; stroke-width: 1.5"/>
    <path d="M 292.464034 217.514628 
L 292.464034 217.457138 
" clip-path="url(#pcf90e71265)" style="fill: none; stroke: #ff7f0e; stroke-width: 1.5"/>
    <path d="M 293.985852 217.460234 
L 293.985852 217.402519 
" clip-path="url(#pcf90e71265)" style="fill: none; stroke: #ff7f0e; stroke-width: 1.5"/>
    <path d="M 295.50767 217.29955 
L 295.50767 217.237124 
" clip-path="url(#pcf90e71265)" style="fill: none; stroke: #ff7f0e; stroke-width: 1.5"/>
    <path d="M 297.029489 217.309494 
L 297.029489 217.247252 
" clip-path="url(#pcf90e71265)" style="fill: none; stroke: #ff7f0e; stroke-width: 1.5"/>
    <path d="M 298.551307 217.15534 
L 298.551307 217.088671 
" clip-path="url(#pcf90e71265)" style="fill: none; stroke: #ff7f0e; stroke-width: 1.5"/>
    <path d="M 300.073125 217.159765 
L 300.073125 217.094233 
" clip-path="url(#pcf90e71265)" style="fill: none; stroke: #ff7f0e; stroke-width: 1.5"/>
    <path d="M 301.594943 216.986283 
L 301.594943 216.915437 
" clip-path="url(#pcf90e71265)" style="fill: none; stroke: #ff7f0e; stroke-width: 1.5"/>
    <path d="M 303.116761 217.140514 
L 303.116761 217.075596 
" clip-path="url(#pcf90e71265)" style="fill: none; stroke: #ff7f0e; stroke-width: 1.5"/>
    <path d="M 304.63858 216.967572 
L 304.63858 216.902527 
" clip-path="url(#pcf90e71265)" style="fill: none; stroke: #ff7f0e; stroke-width: 1.5"/>
    <path d="M 306.160398 216.783621 
L 306.160398 216.711137 
" clip-path="url(#pcf90e71265)" style="fill: none; stroke: #ff7f0e; stroke-width: 1.5"/>
    <path d="M 307.682216 216.846442 
L 307.682216 216.775222 
" clip-path="url(#pcf90e71265)" style="fill: none; stroke: #ff7f0e; stroke-width: 1.5"/>
    <path d="M 309.204034 216.935778 
L 309.204034 216.867062 
" clip-path="url(#pcf90e71265)" style="fill: none; stroke: #ff7f0e; stroke-width: 1.5"/>
    <path d="M 310.725852 216.984577 
L 310.725852 216.916978 
" clip-path="url(#pcf90e71265)" style="fill: none; stroke: #ff7f0e; stroke-width: 1.5"/>
    <path d="M 312.24767 216.83994 
L 312.24767 216.770684 
" clip-path="url(#pcf90e71265)" style="fill: none; stroke: #ff7f0e; stroke-width: 1.5"/>
    <path d="M 313.769489 216.809538 
L 313.769489 216.739218 
" clip-path="url(#pcf90e71265)" style="fill: none; stroke: #ff7f0e; stroke-width: 1.5"/>
    <path d="M 315.291307 216.803568 
L 315.291307 216.732163 
" clip-path="url(#pcf90e71265)" style="fill: none; stroke: #ff7f0e; stroke-width: 1.5"/>
    <path d="M 316.813125 216.728814 
L 316.813125 216.657496 
" clip-path="url(#pcf90e71265)" style="fill: none; stroke: #ff7f0e; stroke-width: 1.5"/>
    <path d="M 318.334943 216.745191 
L 318.334943 216.673964 
" clip-path="url(#pcf90e71265)" style="fill: none; stroke: #ff7f0e; stroke-width: 1.5"/>
    <path d="M 319.856761 216.592459 
L 319.856761 216.517907 
" clip-path="url(#pcf90e71265)" style="fill: none; stroke: #ff7f0e; stroke-width: 1.5"/>
    <path d="M 321.37858 215.034554 
L 321.37858 214.906794 
" clip-path="url(#pcf90e71265)" style="fill: none; stroke: #ff7f0e; stroke-width: 1.5"/>
    <path d="M 322.900398 208.616357 
L 322.900398 208.373633 
" clip-path="url(#pcf90e71265)" style="fill: none; stroke: #ff7f0e; stroke-width: 1.5"/>
    <path d="M 324.422216 200.839995 
L 324.422216 200.55158 
" clip-path="url(#pcf90e71265)" style="fill: none; stroke: #ff7f0e; stroke-width: 1.5"/>
    <path d="M 325.944034 168.677597 
L 325.944034 168.292495 
" clip-path="url(#pcf90e71265)" style="fill: none; stroke: #ff7f0e; stroke-width: 1.5"/>
    <path d="M 327.465852 139.49907 
L 327.465852 139.050038 
" clip-path="url(#pcf90e71265)" style="fill: none; stroke: #ff7f0e; stroke-width: 1.5"/>
    <path d="M 328.98767 155.72183 
L 328.98767 155.351042 
" clip-path="url(#pcf90e71265)" style="fill: none; stroke: #ff7f0e; stroke-width: 1.5"/>
    <path d="M 330.509489 173.592046 
L 330.509489 173.301105 
" clip-path="url(#pcf90e71265)" style="fill: none; stroke: #ff7f0e; stroke-width: 1.5"/>
    <path d="M 332.031307 185.071383 
L 332.031307 184.83175 
" clip-path="url(#pcf90e71265)" style="fill: none; stroke: #ff7f0e; stroke-width: 1.5"/>
    <path d="M 333.553125 194.102387 
L 333.553125 193.909101 
" clip-path="url(#pcf90e71265)" style="fill: none; stroke: #ff7f0e; stroke-width: 1.5"/>
    <path d="M 335.074943 199.332103 
L 335.074943 199.162402 
" clip-path="url(#pcf90e71265)" style="fill: none; stroke: #ff7f0e; stroke-width: 1.5"/>
    <path d="M 336.596761 203.328597 
L 336.596761 203.1742 
" clip-path="url(#pcf90e71265)" style="fill: none; stroke: #ff7f0e; stroke-width: 1.5"/>
    <path d="M 338.11858 205.79001 
L 338.11858 205.632558 
" clip-path="url(#pcf90e71265)" style="fill: none; stroke: #ff7f0e; stroke-width: 1.5"/>
    <path d="M 339.640398 207.752642 
L 339.640398 207.572042 
" clip-path="url(#pcf90e71265)" style="fill: none; stroke: #ff7f0e; stroke-width: 1.5"/>
    <path d="M 341.162216 207.360063 
L 341.162216 207.127801 
" clip-path="url(#pcf90e71265)" style="fill: none; stroke: #ff7f0e; stroke-width: 1.5"/>
    <path d="M 342.684034 207.619199 
L 342.684034 207.367057 
" clip-path="url(#pcf90e71265)" style="fill: none; stroke: #ff7f0e; stroke-width: 1.5"/>
    <path d="M 344.205852 209.450163 
L 344.205852 209.219689 
" clip-path="url(#pcf90e71265)" style="fill: none; stroke: #ff7f0e; stroke-width: 1.5"/>
    <path d="M 345.72767 212.730351 
L 345.72767 212.564848 
" clip-path="url(#pcf90e71265)" style="fill: none; stroke: #ff7f0e; stroke-width: 1.5"/>
    <path d="M 347.249489 215.081238 
L 347.249489 214.971138 
" clip-path="url(#pcf90e71265)" style="fill: none; stroke: #ff7f0e; stroke-width: 1.5"/>
    <path d="M 348.771307 216.022119 
L 348.771307 215.934112 
" clip-path="url(#pcf90e71265)" style="fill: none; stroke: #ff7f0e; stroke-width: 1.5"/>
    <path d="M 350.293125 216.570089 
L 350.293125 216.493628 
" clip-path="url(#pcf90e71265)" style="fill: none; stroke: #ff7f0e; stroke-width: 1.5"/>
    <path d="M 351.814943 216.814384 
L 351.814943 216.742494 
" clip-path="url(#pcf90e71265)" style="fill: none; stroke: #ff7f0e; stroke-width: 1.5"/>
    <path d="M 353.336761 217.043597 
L 353.336761 216.973252 
" clip-path="url(#pcf90e71265)" style="fill: none; stroke: #ff7f0e; stroke-width: 1.5"/>
    <path d="M 354.85858 217.178218 
L 354.85858 217.111573 
" clip-path="url(#pcf90e71265)" style="fill: none; stroke: #ff7f0e; stroke-width: 1.5"/>
    <path d="M 356.380398 217.412201 
L 356.380398 217.348019 
" clip-path="url(#pcf90e71265)" style="fill: none; stroke: #ff7f0e; stroke-width: 1.5"/>
    <path d="M 357.902216 217.491889 
L 357.902216 217.411769 
" clip-path="url(#pcf90e71265)" style="fill: none; stroke: #ff7f0e; stroke-width: 1.5"/>
    <path d="M 359.424034 217.591854 
L 359.424034 217.483722 
" clip-path="url(#pcf90e71265)" style="fill: none; stroke: #ff7f0e; stroke-width: 1.5"/>
   </g>
  </g>
 </g>
 <defs>
  <clipPath id="pcf90e71265">
   <rect x="40.603125" y="7.2" width="334.8" height="221.76"/>
  </clipPath>
 </defs>
</svg>
