<?xml version="1.0" encoding="UTF-8" standalone="no"?>
<!DOCTYPE svg PUBLIC "-//W3C//DTD SVG 1.1//EN"
 "http://www.w3.org/Graphics/SVG/1.1/DTD/svg11.dtd">
<!-- Generated by graphviz version 2.43.0 (0)
 -->
<!-- Title: %3 Pages: 1 -->
<svg width="3888pt" height="317pt"
 viewBox="0.00 0.00 3888.00 316.50" xmlns="http://www.w3.org/2000/svg" xmlns:xlink="http://www.w3.org/1999/xlink">
<g id="graph0" class="graph" transform="scale(1 1) rotate(0) translate(4 312.5)">
<title>%3</title>
<polygon fill="white" stroke="transparent" points="-4,4 -4,-312.5 3884,-312.5 3884,4 -4,4"/>
<g id="clust1" class="cluster">
<title>cluster_AccumulatedProtonCharge</title>
<polygon fill="#f0f0ff" stroke="#f0f0ff" points="1853,-170.5 1853,-256.5 2062,-256.5 2062,-170.5 1853,-170.5"/>
<text text-anchor="middle" x="1957.5" y="-241.3" font-family="Times,serif" font-size="14.00">AccumulatedProtonCharge</text>
</g>
<g id="clust2" class="cluster">
<title>cluster_AllRawDetectors</title>
<polygon fill="#f0f0ff" stroke="#f0f0ff" points="228.5,-204.5 228.5,-300.5 364.5,-300.5 364.5,-204.5 228.5,-204.5"/>
<text text-anchor="start" x="236.5" y="-286.3" font-family="Times,serif" font-size="14.00">AllRawDetectors</text>
<text text-anchor="start" x="240.5" y="-274.7" font-family="Times,serif" font-size="11.00">via:</text>
<text text-anchor="start" x="261.5" y="-274.7" font-family="Times,serif" font-style="italic" font-size="11.00">load_geant4_csv</text>
</g>
<g id="clust4" class="cluster">
<title>cluster_CalibratedBeamline</title>
<polygon fill="#f0f0ff" stroke="#f0f0ff" points="985,-66.5 985,-162.5 1143,-162.5 1143,-66.5 985,-66.5"/>
<text text-anchor="start" x="993" y="-148.3" font-family="Times,serif" font-size="14.00">CalibratedBeamline</text>
<text text-anchor="start" x="998" y="-136.7" font-family="Times,serif" font-size="11.00">via:</text>
<text text-anchor="start" x="1019" y="-136.7" font-family="Times,serif" font-style="italic" font-size="11.00">assemble_beamline</text>
</g>
<g id="clust5" class="cluster">
<title>cluster_CalibratedDetector</title>
<polygon fill="#f0f0ff" stroke="#f0f0ff" points="715.5,-185.5 715.5,-281.5 929.5,-281.5 929.5,-185.5 715.5,-185.5"/>
<text text-anchor="start" x="753.5" y="-267.3" font-family="Times,serif" font-size="14.00">CalibratedDetector</text>
<text text-anchor="start" x="723.5" y="-255.7" font-family="Times,serif" font-size="11.00">via:</text>
<text text-anchor="start" x="744.5" y="-255.7" font-family="Times,serif" font-style="italic" font-size="11.00">get_calibrated_geant4_detector</text>
</g>
<g id="clust9" class="cluster">
<title>cluster_DataWithScatteringCoordinates</title>
<polygon fill="#f0f0ff" stroke="#f0f0ff" points="1818,-66.5 1818,-162.5 2097,-162.5 2097,-66.5 1818,-66.5"/>
<text text-anchor="start" x="1843" y="-148.3" font-family="Times,serif" font-size="14.00">DataWithScatteringCoordinates</text>
<text text-anchor="start" x="1826" y="-136.7" font-family="Times,serif" font-size="11.00">via:</text>
<text text-anchor="start" x="1847" y="-136.7" font-family="Times,serif" font-style="italic" font-size="11.00">add_scattering_coordinates_from_positions</text>
</g>
<g id="clust10" class="cluster">
<title>cluster_DetectorData</title>
<polygon fill="#f0f0ff" stroke="#f0f0ff" points="1199,-66.5 1199,-162.5 1418,-162.5 1418,-66.5 1199,-66.5"/>
<text text-anchor="start" x="1260" y="-148.3" font-family="Times,serif" font-size="14.00">DetectorData</text>
<text text-anchor="start" x="1207" y="-136.7" font-family="Times,serif" font-size="11.00">via:</text>
<text text-anchor="start" x="1228" y="-136.7" font-family="Times,serif" font-style="italic" font-size="11.00">dummy_assemble_detector_data</text>
</g>
<g id="clust11" class="cluster">
<title>cluster_DspacingData</title>
<polygon fill="#f0f0ff" stroke="#f0f0ff" points="2668,-39.5 2668,-135.5 2819,-135.5 2819,-39.5 2668,-39.5"/>
<text text-anchor="start" x="2693.5" y="-121.3" font-family="Times,serif" font-size="14.00">DspacingData</text>
<text text-anchor="start" x="2676" y="-109.7" font-family="Times,serif" font-size="11.00">via:</text>
<text text-anchor="start" x="2697" y="-109.7" font-family="Times,serif" font-style="italic" font-size="11.00">convert_to_dspacing</text>
</g>
<g id="clust13" class="cluster">
<title>cluster_Filename</title>
<polygon fill="#f0f0ff" stroke="#f0f0ff" points="8,-204.5 8,-290.5 134,-290.5 134,-204.5 8,-204.5"/>
<text text-anchor="middle" x="71" y="-275.3" font-family="Times,serif" font-size="14.00">Filename</text>
</g>
<g id="clust14" class="cluster">
<title>cluster_FilteredData</title>
<polygon fill="#f0f0ff" stroke="#f0f0ff" points="1555,-66.5 1555,-162.5 1681,-162.5 1681,-66.5 1555,-66.5"/>
<text text-anchor="start" x="1572.5" y="-148.3" font-family="Times,serif" font-size="14.00">FilteredData</text>
<text text-anchor="start" x="1572.5" y="-136.7" font-family="Times,serif" font-size="11.00">via:</text>
<text text-anchor="start" x="1593.5" y="-136.7" font-family="Times,serif" font-style="italic" font-size="11.00">filter_events</text>
</g>
<g id="clust15" class="cluster">
<title>cluster_FocussedDataDspacing</title>
<polygon fill="#f0f0ff" stroke="#f0f0ff" points="2902,-80.5 2902,-176.5 3084,-176.5 3084,-80.5 2902,-80.5"/>
<text text-anchor="start" x="2910" y="-162.3" font-family="Times,serif" font-size="14.00">FocussedDataDspacing</text>
<text text-anchor="start" x="2925" y="-150.7" font-family="Times,serif" font-size="11.00">via:</text>
<text text-anchor="start" x="2946" y="-150.7" font-family="Times,serif" font-style="italic" font-size="11.00">focus_data_dspacing</text>
</g>
<g id="clust19" class="cluster">
<title>cluster_MaskedData</title>
<polygon fill="#f0f0ff" stroke="#f0f0ff" points="2452.5,-83.5 2452.5,-179.5 2578.5,-179.5 2578.5,-83.5 2452.5,-83.5"/>
<text text-anchor="start" x="2470.5" y="-165.3" font-family="Times,serif" font-size="14.00">MaskedData</text>
<text text-anchor="start" x="2469" y="-153.7" font-family="Times,serif" font-size="11.00">via:</text>
<text text-anchor="start" x="2490" y="-153.7" font-family="Times,serif" font-style="italic" font-size="11.00">apply_masks</text>
</g>
<g id="clust25" class="cluster">
<title>cluster_Position</title>
<polygon fill="#f0f0ff" stroke="#f0f0ff" points="725,-41.5 725,-177.5 920,-177.5 920,-41.5 725,-41.5"/>
<text text-anchor="middle" x="822.5" y="-162.3" font-family="Times,serif" font-size="14.00">Position</text>
</g>
<g id="clust21" class="cluster">
<title>cluster_NeXusComponent</title>
<polygon fill="#f0f0ff" stroke="#f0f0ff" points="459,-185.5 459,-281.5 660,-281.5 660,-185.5 459,-185.5"/>
<text text-anchor="start" x="495" y="-267.3" font-family="Times,serif" font-size="14.00">NeXusComponent</text>
<text text-anchor="start" x="481" y="-255.7" font-family="Times,serif" font-size="11.00">via:</text>
<text text-anchor="start" x="502" y="-255.7" font-family="Times,serif" font-style="italic" font-size="11.00">extract_geant4_detector</text>
</g>
<g id="clust23" class="cluster">
<title>cluster_NormalizedRunData</title>
<polygon fill="#f0f0ff" stroke="#f0f0ff" points="2161,-170.5 2161,-266.5 2358,-266.5 2358,-170.5 2161,-170.5"/>
<text text-anchor="start" x="2187" y="-252.3" font-family="Times,serif" font-size="14.00">NormalizedRunData</text>
<text text-anchor="start" x="2169" y="-240.7" font-family="Times,serif" font-size="11.00">via:</text>
<text text-anchor="start" x="2190" y="-240.7" font-family="Times,serif" font-style="italic" font-size="11.00">normalize_by_proton_charge</text>
</g>
<!-- AccumulatedProtonCharge[SampleRun] -->
<g id="node1" class="node">
<title>AccumulatedProtonCharge[SampleRun]</title>
<polygon fill="none" stroke="black" points="2004.5,-200 1909.5,-200 1909.5,-179 2004.5,-179 2004.5,-200"/>
<text text-anchor="start" x="1917.5" y="-186.4" font-family="Times,serif" font-size="12.00">[SampleRun]</text>
</g>
<!-- NormalizedRunData[SampleRun] -->
<g id="node39" class="node">
<title>NormalizedRunData[SampleRun]</title>
<polygon fill="none" stroke="black" points="2306.5,-200 2211.5,-200 2211.5,-179 2306.5,-179 2306.5,-200"/>
<text text-anchor="start" x="2219.5" y="-186.4" font-family="Times,serif" font-size="12.00">[SampleRun]</text>
</g>
<!-- AccumulatedProtonCharge[SampleRun]&#45;&gt;NormalizedRunData[SampleRun] -->
<g id="edge43" class="edge">
<title>AccumulatedProtonCharge[SampleRun]:e&#45;&gt;NormalizedRunData[SampleRun]:w</title>
<path fill="none" stroke="black" d="M2006,-189.5C2093.21,-189.5 2117.51,-189.5 2199.93,-189.5"/>
<polygon fill="black" stroke="black" points="2200,-193 2210,-189.5 2200,-186 2200,-193"/>
</g>
<!-- AccumulatedProtonCharge[VanadiumRun] -->
<g id="node2" class="node">
<title>AccumulatedProtonCharge[VanadiumRun]</title>
<polygon fill="none" stroke="black" points="2012,-225 1902,-225 1902,-204 2012,-204 2012,-225"/>
<text text-anchor="start" x="1910" y="-211.4" font-family="Times,serif" font-size="12.00">[VanadiumRun]</text>
</g>
<!-- NormalizedRunData[VanadiumRun] -->
<g id="node44" class="node">
<title>NormalizedRunData[VanadiumRun]</title>
<polygon fill="none" stroke="black" points="2314,-225 2204,-225 2204,-204 2314,-204 2314,-225"/>
<text text-anchor="start" x="2212" y="-211.4" font-family="Times,serif" font-size="12.00">[VanadiumRun]</text>
</g>
<!-- AccumulatedProtonCharge[VanadiumRun]&#45;&gt;NormalizedRunData[VanadiumRun] -->
<g id="edge45" class="edge">
<title>AccumulatedProtonCharge[VanadiumRun]:e&#45;&gt;NormalizedRunData[VanadiumRun]:w</title>
<path fill="none" stroke="black" d="M2013,-214.5C2093.98,-214.5 2116.72,-214.5 2192.92,-214.5"/>
<polygon fill="black" stroke="black" points="2193,-218 2203,-214.5 2193,-211 2193,-218"/>
</g>
<!-- Filename[SampleRun] -->
<g id="node3" class="node">
<title>Filename[SampleRun]</title>
<polygon fill="none" stroke="black" points="118.5,-234 23.5,-234 23.5,-213 118.5,-213 118.5,-234"/>
<text text-anchor="start" x="31.5" y="-220.4" font-family="Times,serif" font-size="12.00">[SampleRun]</text>
</g>
<!-- AllRawDetectors[SampleRun] -->
<g id="node4" class="node">
<title>AllRawDetectors[SampleRun]</title>
<polygon fill="none" stroke="black" points="344,-234 249,-234 249,-213 344,-213 344,-234"/>
<text text-anchor="start" x="257" y="-220.4" font-family="Times,serif" font-size="12.00">[SampleRun]</text>
</g>
<!-- Filename[SampleRun]&#45;&gt;AllRawDetectors[SampleRun] -->
<g id="edge1" class="edge">
<title>Filename[SampleRun]:e&#45;&gt;AllRawDetectors[SampleRun]:w</title>
<path fill="none" stroke="black" d="M120,-223.5C173.12,-223.5 188.9,-223.5 237.35,-223.5"/>
<polygon fill="black" stroke="black" points="237.5,-227 247.5,-223.5 237.5,-220 237.5,-227"/>
</g>
<!-- NeXusComponent[NXdetector, SampleRun] -->
<g id="node17" class="node">
<title>NeXusComponent[NXdetector, SampleRun]</title>
<polygon fill="none" stroke="black" points="644.5,-215 474.5,-215 474.5,-194 644.5,-194 644.5,-215"/>
<text text-anchor="start" x="482.5" y="-201.4" font-family="Times,serif" font-size="12.00">[NXdetector, SampleRun]</text>
</g>
<!-- AllRawDetectors[SampleRun]&#45;&gt;NeXusComponent[NXdetector, SampleRun] -->
<g id="edge38" class="edge">
<title>AllRawDetectors[SampleRun]:e&#45;&gt;NeXusComponent[NXdetector, SampleRun]:w</title>
<path fill="none" stroke="black" d="M345.5,-223.5C399.42,-223.5 414.19,-206.8 463.22,-204.71"/>
<polygon fill="black" stroke="black" points="463.57,-208.21 473.5,-204.5 463.43,-201.21 463.57,-208.21"/>
</g>
<!-- Filename[VanadiumRun] -->
<g id="node5" class="node">
<title>Filename[VanadiumRun]</title>
<polygon fill="none" stroke="black" points="126,-259 16,-259 16,-238 126,-238 126,-259"/>
<text text-anchor="start" x="24" y="-245.4" font-family="Times,serif" font-size="12.00">[VanadiumRun]</text>
</g>
<!-- AllRawDetectors[VanadiumRun] -->
<g id="node6" class="node">
<title>AllRawDetectors[VanadiumRun]</title>
<polygon fill="none" stroke="black" points="351.5,-259 241.5,-259 241.5,-238 351.5,-238 351.5,-259"/>
<text text-anchor="start" x="249.5" y="-245.4" font-family="Times,serif" font-size="12.00">[VanadiumRun]</text>
</g>
<!-- Filename[VanadiumRun]&#45;&gt;AllRawDetectors[VanadiumRun] -->
<g id="edge2" class="edge">
<title>Filename[VanadiumRun]:e&#45;&gt;AllRawDetectors[VanadiumRun]:w</title>
<path fill="none" stroke="black" d="M127,-248.5C173.9,-248.5 188.1,-248.5 230.39,-248.5"/>
<polygon fill="black" stroke="black" points="230.5,-252 240.5,-248.5 230.5,-245 230.5,-252"/>
</g>
<!-- NeXusComponent[NXdetector, VanadiumRun] -->
<g id="node18" class="node">
<title>NeXusComponent[NXdetector, VanadiumRun]</title>
<polygon fill="none" stroke="black" points="652,-240 467,-240 467,-219 652,-219 652,-240"/>
<text text-anchor="start" x="475" y="-226.4" font-family="Times,serif" font-size="12.00">[NXdetector, VanadiumRun]</text>
</g>
<!-- AllRawDetectors[VanadiumRun]&#45;&gt;NeXusComponent[NXdetector, VanadiumRun] -->
<g id="edge40" class="edge">
<title>AllRawDetectors[VanadiumRun]:e&#45;&gt;NeXusComponent[NXdetector, VanadiumRun]:w</title>
<path fill="none" stroke="black" d="M352.5,-248.5C400.35,-248.5 413.41,-232.01 456.5,-229.75"/>
<polygon fill="black" stroke="black" points="456.59,-233.25 466.5,-229.5 456.41,-226.26 456.59,-233.25"/>
</g>
<!-- CIFAuthors -->
<g id="node7" class="node">
<title>CIFAuthors</title>
<polygon fill="none" stroke="black" points="3602,-44 3505,-44 3505,-21 3602,-21 3602,-44"/>
<text text-anchor="middle" x="3553.5" y="-28.8" font-family="Times,serif" font-size="14.00">CIFAuthors</text>
</g>
<!-- ReducedTofCIF -->
<g id="node46" class="node">
<title>ReducedTofCIF</title>
<polygon fill="none" stroke="black" points="3880,-68 3709,-68 3709,-35 3880,-35 3880,-68"/>
<text text-anchor="start" x="3740" y="-53.8" font-family="Times,serif" font-size="14.00">ReducedTofCIF</text>
<text text-anchor="start" x="3717" y="-42.2" font-family="Times,serif" font-size="11.00">via:</text>
<text text-anchor="start" x="3738" y="-42.2" font-family="Times,serif" font-style="italic" font-size="11.00">prepare_reduced_tof_cif</text>
</g>
<!-- CIFAuthors&#45;&gt;ReducedTofCIF -->
<g id="edge48" class="edge">
<title>CIFAuthors:e&#45;&gt;ReducedTofCIF:w</title>
<path fill="none" stroke="black" d="M3602.5,-32.5C3647.01,-32.5 3659.18,-48.78 3698.89,-51.2"/>
<polygon fill="black" stroke="black" points="3698.9,-54.7 3709,-51.5 3699.11,-47.71 3698.9,-54.7"/>
</g>
<!-- CalibratedDetector[SampleRun] -->
<g id="node8" class="node">
<title>CalibratedDetector[SampleRun]</title>
<polygon fill="none" stroke="black" points="870,-215 775,-215 775,-194 870,-194 870,-215"/>
<text text-anchor="start" x="783" y="-201.4" font-family="Times,serif" font-size="12.00">[SampleRun]</text>
</g>
<!-- CalibratedBeamline[SampleRun] -->
<g id="node9" class="node">
<title>CalibratedBeamline[SampleRun]</title>
<polygon fill="none" stroke="black" points="1111.5,-96 1016.5,-96 1016.5,-75 1111.5,-75 1111.5,-96"/>
<text text-anchor="start" x="1024.5" y="-82.4" font-family="Times,serif" font-size="12.00">[SampleRun]</text>
</g>
<!-- CalibratedDetector[SampleRun]&#45;&gt;CalibratedBeamline[SampleRun] -->
<g id="edge3" class="edge">
<title>CalibratedDetector[SampleRun]:e&#45;&gt;CalibratedBeamline[SampleRun]:w</title>
<path fill="none" stroke="black" d="M871.5,-204.5C899.75,-204.5 907.66,-196.41 929.5,-178.5 970.12,-145.19 960.43,-92.81 1004.98,-86.19"/>
<polygon fill="black" stroke="black" points="1005.27,-89.68 1015,-85.5 1004.78,-82.7 1005.27,-89.68"/>
</g>
<!-- DetectorData[SampleRun] -->
<g id="node27" class="node">
<title>DetectorData[SampleRun]</title>
<polygon fill="none" stroke="black" points="1355.5,-96 1260.5,-96 1260.5,-75 1355.5,-75 1355.5,-96"/>
<text text-anchor="start" x="1268.5" y="-82.4" font-family="Times,serif" font-size="12.00">[SampleRun]</text>
</g>
<!-- CalibratedBeamline[SampleRun]&#45;&gt;DetectorData[SampleRun] -->
<g id="edge16" class="edge">
<title>CalibratedBeamline[SampleRun]:e&#45;&gt;DetectorData[SampleRun]:w</title>
<path fill="none" stroke="black" d="M1113,-85.5C1174.34,-85.5 1192.19,-85.5 1248.77,-85.5"/>
<polygon fill="black" stroke="black" points="1249,-89 1259,-85.5 1249,-82 1249,-89"/>
</g>
<!-- Position[NXsource, SampleRun] -->
<g id="node10" class="node">
<title>Position[NXsource, SampleRun]</title>
<polygon fill="none" stroke="black" points="903,-71 742,-71 742,-50 903,-50 903,-71"/>
<text text-anchor="start" x="750" y="-57.4" font-family="Times,serif" font-size="12.00">[NXsource, SampleRun]</text>
</g>
<!-- Position[NXsource, SampleRun]&#45;&gt;CalibratedBeamline[SampleRun] -->
<g id="edge4" class="edge">
<title>Position[NXsource, SampleRun]:e&#45;&gt;CalibratedBeamline[SampleRun]:w</title>
<path fill="none" stroke="black" d="M904.5,-60.5C951.31,-60.5 963.07,-82.11 1004.95,-85.15"/>
<polygon fill="black" stroke="black" points="1004.88,-88.65 1015,-85.5 1005.13,-81.65 1004.88,-88.65"/>
</g>
<!-- Position[NXsample, SampleRun] -->
<g id="node11" class="node">
<title>Position[NXsample, SampleRun]</title>
<polygon fill="none" stroke="black" points="904.5,-96 740.5,-96 740.5,-75 904.5,-75 904.5,-96"/>
<text text-anchor="start" x="748.5" y="-82.4" font-family="Times,serif" font-size="12.00">[NXsample, SampleRun]</text>
</g>
<!-- Position[NXsample, SampleRun]&#45;&gt;CalibratedBeamline[SampleRun] -->
<g id="edge5" class="edge">
<title>Position[NXsample, SampleRun]:e&#45;&gt;CalibratedBeamline[SampleRun]:w</title>
<path fill="none" stroke="black" d="M905.5,-85.5C950.65,-85.5 964.38,-85.5 1004.99,-85.5"/>
<polygon fill="black" stroke="black" points="1005,-89 1015,-85.5 1005,-82 1005,-89"/>
</g>
<!-- GravityVector -->
<g id="node12" class="node">
<title>GravityVector</title>
<polygon fill="none" stroke="black" points="899.5,-33 745.5,-33 745.5,0 899.5,0 899.5,-33"/>
<text text-anchor="start" x="772.5" y="-18.8" font-family="Times,serif" font-size="14.00">GravityVector</text>
<text text-anchor="start" x="753.5" y="-7.2" font-family="Times,serif" font-size="11.00">via:</text>
<text text-anchor="start" x="774.5" y="-7.2" font-family="Times,serif" font-style="italic" font-size="11.00">gravity_vector_neg_y</text>
</g>
<!-- GravityVector&#45;&gt;CalibratedBeamline[SampleRun] -->
<g id="edge6" class="edge">
<title>GravityVector:e&#45;&gt;CalibratedBeamline[SampleRun]:w</title>
<path fill="none" stroke="black" stroke-width="2" d="M900.5,-16.5C942.94,-16.5 952.86,-51.7 976.71,-71.82"/>
<polygon fill="black" stroke="black" stroke-width="2" points="974.83,-74.78 985,-77.76 978.91,-69.09 974.83,-74.78"/>
</g>
<!-- CalibratedDetector[VanadiumRun] -->
<g id="node13" class="node">
<title>CalibratedDetector[VanadiumRun]</title>
<polygon fill="none" stroke="black" points="877.5,-240 767.5,-240 767.5,-219 877.5,-219 877.5,-240"/>
<text text-anchor="start" x="775.5" y="-226.4" font-family="Times,serif" font-size="12.00">[VanadiumRun]</text>
</g>
<!-- CalibratedBeamline[VanadiumRun] -->
<g id="node14" class="node">
<title>CalibratedBeamline[VanadiumRun]</title>
<polygon fill="none" stroke="black" points="1119,-121 1009,-121 1009,-100 1119,-100 1119,-121"/>
<text text-anchor="start" x="1017" y="-107.4" font-family="Times,serif" font-size="12.00">[VanadiumRun]</text>
</g>
<!-- CalibratedDetector[VanadiumRun]&#45;&gt;CalibratedBeamline[VanadiumRun] -->
<g id="edge7" class="edge">
<title>CalibratedDetector[VanadiumRun]:e&#45;&gt;CalibratedBeamline[VanadiumRun]:w</title>
<path fill="none" stroke="black" d="M878.5,-229.5C902.01,-229.5 910.08,-228.74 929.5,-215.5 974.54,-184.79 953.02,-119.64 997.76,-111.37"/>
<polygon fill="black" stroke="black" points="998.33,-114.83 1008,-110.5 997.74,-107.86 998.33,-114.83"/>
</g>
<!-- DetectorData[VanadiumRun] -->
<g id="node28" class="node">
<title>DetectorData[VanadiumRun]</title>
<polygon fill="none" stroke="black" points="1363,-121 1253,-121 1253,-100 1363,-100 1363,-121"/>
<text text-anchor="start" x="1261" y="-107.4" font-family="Times,serif" font-size="12.00">[VanadiumRun]</text>
</g>
<!-- CalibratedBeamline[VanadiumRun]&#45;&gt;DetectorData[VanadiumRun] -->
<g id="edge17" class="edge">
<title>CalibratedBeamline[VanadiumRun]:e&#45;&gt;DetectorData[VanadiumRun]:w</title>
<path fill="none" stroke="black" d="M1120,-110.5C1175.11,-110.5 1191.4,-110.5 1241.81,-110.5"/>
<polygon fill="black" stroke="black" points="1242,-114 1252,-110.5 1242,-107 1242,-114"/>
</g>
<!-- Position[NXsource, VanadiumRun] -->
<g id="node15" class="node">
<title>Position[NXsource, VanadiumRun]</title>
<polygon fill="none" stroke="black" points="910.5,-121 734.5,-121 734.5,-100 910.5,-100 910.5,-121"/>
<text text-anchor="start" x="742.5" y="-107.4" font-family="Times,serif" font-size="12.00">[NXsource, VanadiumRun]</text>
</g>
<!-- Position[NXsource, VanadiumRun]&#45;&gt;CalibratedBeamline[VanadiumRun] -->
<g id="edge8" class="edge">
<title>Position[NXsource, VanadiumRun]:e&#45;&gt;CalibratedBeamline[VanadiumRun]:w</title>
<path fill="none" stroke="black" d="M911.5,-110.5C950.7,-110.5 963.03,-110.5 997.61,-110.5"/>
<polygon fill="black" stroke="black" points="998,-114 1008,-110.5 998,-107 998,-114"/>
</g>
<!-- Position[NXsample, VanadiumRun] -->
<g id="node16" class="node">
<title>Position[NXsample, VanadiumRun]</title>
<polygon fill="none" stroke="black" points="912,-146 733,-146 733,-125 912,-125 912,-146"/>
<text text-anchor="start" x="741" y="-132.4" font-family="Times,serif" font-size="12.00">[NXsample, VanadiumRun]</text>
</g>
<!-- Position[NXsample, VanadiumRun]&#45;&gt;CalibratedBeamline[VanadiumRun] -->
<g id="edge9" class="edge">
<title>Position[NXsample, VanadiumRun]:e&#45;&gt;CalibratedBeamline[VanadiumRun]:w</title>
<path fill="none" stroke="black" d="M913.5,-135.5C953.38,-135.5 963.07,-114.43 997.99,-110.98"/>
<polygon fill="black" stroke="black" points="998.18,-114.47 1008,-110.5 997.84,-107.48 998.18,-114.47"/>
</g>
<!-- NeXusComponent[NXdetector, SampleRun]&#45;&gt;CalibratedDetector[SampleRun] -->
<g id="edge10" class="edge">
<title>NeXusComponent[NXdetector, SampleRun]:e&#45;&gt;CalibratedDetector[SampleRun]:w</title>
<path fill="none" stroke="black" d="M645.5,-204.5C698.83,-204.5 714.67,-204.5 763.31,-204.5"/>
<polygon fill="black" stroke="black" points="763.5,-208 773.5,-204.5 763.5,-201 763.5,-208"/>
</g>
<!-- NeXusComponent[NXdetector, VanadiumRun]&#45;&gt;CalibratedDetector[VanadiumRun] -->
<g id="edge11" class="edge">
<title>NeXusComponent[NXdetector, VanadiumRun]:e&#45;&gt;CalibratedDetector[VanadiumRun]:w</title>
<path fill="none" stroke="black" d="M652.5,-229.5C699.6,-229.5 713.86,-229.5 756.35,-229.5"/>
<polygon fill="black" stroke="black" points="756.5,-233 766.5,-229.5 756.5,-226 756.5,-233"/>
</g>
<!-- CalibrationFilename -->
<g id="node19" class="node">
<title>CalibrationFilename</title>
<polygon fill="none" stroke="black" points="2340,-54 2178,-54 2178,-31 2340,-31 2340,-54"/>
<text text-anchor="middle" x="2259" y="-38.8" font-family="Times,serif" font-size="14.00">CalibrationFilename</text>
</g>
<!-- CalibrationData -->
<g id="node20" class="node">
<title>CalibrationData</title>
<polygon fill="none" stroke="black" points="2601,-70 2430,-70 2430,-37 2601,-37 2601,-70"/>
<text text-anchor="start" x="2458.5" y="-55.8" font-family="Times,serif" font-size="14.00">CalibrationData</text>
<text text-anchor="start" x="2438" y="-44.2" font-family="Times,serif" font-size="11.00">via:</text>
<text text-anchor="start" x="2459" y="-44.2" font-family="Times,serif" font-style="italic" font-size="11.00">geant4_load_calibration</text>
</g>
<!-- CalibrationFilename&#45;&gt;CalibrationData -->
<g id="edge12" class="edge">
<title>CalibrationFilename:e&#45;&gt;CalibrationData:w</title>
<path fill="none" stroke="black" d="M2341,-42.5C2377.28,-42.5 2388.23,-51.61 2419.95,-53.25"/>
<polygon fill="black" stroke="black" points="2419.92,-56.75 2430,-53.5 2420.09,-49.75 2419.92,-56.75"/>
</g>
<!-- DspacingData[SampleRun] -->
<g id="node30" class="node">
<title>DspacingData[SampleRun]</title>
<polygon fill="none" stroke="black" points="2790.5,-69 2695.5,-69 2695.5,-48 2790.5,-48 2790.5,-69"/>
<text text-anchor="start" x="2703.5" y="-55.4" font-family="Times,serif" font-size="12.00">[SampleRun]</text>
</g>
<!-- CalibrationData&#45;&gt;DspacingData[SampleRun] -->
<g id="edge20" class="edge">
<title>CalibrationData:e&#45;&gt;DspacingData[SampleRun]:w</title>
<path fill="none" stroke="black" stroke-width="2" d="M2601,-53.5C2627.02,-53.5 2640.72,-55.48 2657.59,-56.94"/>
<polygon fill="black" stroke="black" stroke-width="2" points="2657.77,-60.47 2668,-57.73 2658.3,-53.49 2657.77,-60.47"/>
</g>
<!-- DSpacingBins -->
<g id="node21" class="node">
<title>DSpacingBins</title>
<polygon fill="none" stroke="black" points="2801,-167 2685,-167 2685,-144 2801,-144 2801,-167"/>
<text text-anchor="middle" x="2743" y="-151.8" font-family="Times,serif" font-size="14.00">DSpacingBins</text>
</g>
<!-- FocussedDataDspacing[SampleRun] -->
<g id="node33" class="node">
<title>FocussedDataDspacing[SampleRun]</title>
<polygon fill="none" stroke="black" points="3040.5,-135 2945.5,-135 2945.5,-114 3040.5,-114 3040.5,-135"/>
<text text-anchor="start" x="2953.5" y="-121.4" font-family="Times,serif" font-size="12.00">[SampleRun]</text>
</g>
<!-- DSpacingBins&#45;&gt;FocussedDataDspacing[SampleRun] -->
<g id="edge25" class="edge">
<title>DSpacingBins:e&#45;&gt;FocussedDataDspacing[SampleRun]:w</title>
<path fill="none" stroke="black" stroke-width="2" d="M2802,-155.5C2844.82,-155.5 2864.88,-141.88 2892.36,-132.69"/>
<polygon fill="black" stroke="black" stroke-width="2" points="2893.45,-136.02 2902,-129.78 2891.42,-129.32 2893.45,-136.02"/>
</g>
<!-- FilteredData[SampleRun] -->
<g id="node22" class="node">
<title>FilteredData[SampleRun]</title>
<polygon fill="none" stroke="black" points="1665.5,-96 1570.5,-96 1570.5,-75 1665.5,-75 1665.5,-96"/>
<text text-anchor="start" x="1578.5" y="-82.4" font-family="Times,serif" font-size="12.00">[SampleRun]</text>
</g>
<!-- DataWithScatteringCoordinates[SampleRun] -->
<g id="node23" class="node">
<title>DataWithScatteringCoordinates[SampleRun]</title>
<polygon fill="none" stroke="black" points="2004.5,-96 1909.5,-96 1909.5,-75 2004.5,-75 2004.5,-96"/>
<text text-anchor="start" x="1917.5" y="-82.4" font-family="Times,serif" font-size="12.00">[SampleRun]</text>
</g>
<!-- FilteredData[SampleRun]&#45;&gt;DataWithScatteringCoordinates[SampleRun] -->
<g id="edge13" class="edge">
<title>FilteredData[SampleRun]:e&#45;&gt;DataWithScatteringCoordinates[SampleRun]:w</title>
<path fill="none" stroke="black" d="M1667,-85.5C1770.66,-85.5 1799.08,-85.5 1897.89,-85.5"/>
<polygon fill="black" stroke="black" points="1898,-89 1908,-85.5 1898,-82 1898,-89"/>
</g>
<!-- DataWithScatteringCoordinates[SampleRun]&#45;&gt;NormalizedRunData[SampleRun] -->
<g id="edge42" class="edge">
<title>DataWithScatteringCoordinates[SampleRun]:e&#45;&gt;NormalizedRunData[SampleRun]:w</title>
<path fill="none" stroke="black" d="M2006,-85.5C2046.99,-85.5 2060.54,-81.78 2097,-100.5 2150.65,-128.05 2146.75,-182.82 2199.8,-188.94"/>
<polygon fill="black" stroke="black" points="2199.82,-192.45 2210,-189.5 2200.21,-185.46 2199.82,-192.45"/>
</g>
<!-- ElasticCoordTransformGraph -->
<g id="node24" class="node">
<title>ElasticCoordTransformGraph</title>
<polygon fill="none" stroke="black" points="1754,-49 1482,-49 1482,-16 1754,-16 1754,-49"/>
<text text-anchor="start" x="1512.5" y="-34.8" font-family="Times,serif" font-size="14.00">ElasticCoordTransformGraph</text>
<text text-anchor="start" x="1490" y="-23.2" font-family="Times,serif" font-size="11.00">via:</text>
<text text-anchor="start" x="1511" y="-23.2" font-family="Times,serif" font-style="italic" font-size="11.00">powder_coordinate_transformation_graph</text>
</g>
<!-- ElasticCoordTransformGraph&#45;&gt;DataWithScatteringCoordinates[SampleRun] -->
<g id="edge14" class="edge">
<title>ElasticCoordTransformGraph:e&#45;&gt;DataWithScatteringCoordinates[SampleRun]:w</title>
<path fill="none" stroke="black" stroke-width="2" d="M1754,-32.5C1792.06,-32.5 1812.65,-47.15 1834.15,-61.04"/>
<polygon fill="black" stroke="black" stroke-width="2" points="1832.48,-64.13 1842.8,-66.5 1836.21,-58.21 1832.48,-64.13"/>
</g>
<!-- ElasticCoordTransformGraph&#45;&gt;DspacingData[SampleRun] -->
<g id="edge19" class="edge">
<title>ElasticCoordTransformGraph:e&#45;&gt;DspacingData[SampleRun]:w</title>
<path fill="none" stroke="black" stroke-width="2" d="M1754,-32.5C2130.45,-32.5 2227.95,15.98 2601,-34.5 2628.01,-38.15 2641.04,-46.92 2658.03,-52.79"/>
<polygon fill="black" stroke="black" stroke-width="2" points="2657.42,-56.26 2668,-55.7 2659.38,-49.54 2657.42,-56.26"/>
</g>
<!-- FilteredData[VanadiumRun] -->
<g id="node25" class="node">
<title>FilteredData[VanadiumRun]</title>
<polygon fill="none" stroke="black" points="1673,-121 1563,-121 1563,-100 1673,-100 1673,-121"/>
<text text-anchor="start" x="1571" y="-107.4" font-family="Times,serif" font-size="12.00">[VanadiumRun]</text>
</g>
<!-- DataWithScatteringCoordinates[VanadiumRun] -->
<g id="node26" class="node">
<title>DataWithScatteringCoordinates[VanadiumRun]</title>
<polygon fill="none" stroke="black" points="2012,-121 1902,-121 1902,-100 2012,-100 2012,-121"/>
<text text-anchor="start" x="1910" y="-107.4" font-family="Times,serif" font-size="12.00">[VanadiumRun]</text>
</g>
<!-- FilteredData[VanadiumRun]&#45;&gt;DataWithScatteringCoordinates[VanadiumRun] -->
<g id="edge15" class="edge">
<title>FilteredData[VanadiumRun]:e&#45;&gt;DataWithScatteringCoordinates[VanadiumRun]:w</title>
<path fill="none" stroke="black" d="M1674,-110.5C1771.44,-110.5 1798.3,-110.5 1890.91,-110.5"/>
<polygon fill="black" stroke="black" points="1891,-114 1901,-110.5 1891,-107 1891,-114"/>
</g>
<!-- DataWithScatteringCoordinates[VanadiumRun]&#45;&gt;NormalizedRunData[VanadiumRun] -->
<g id="edge44" class="edge">
<title>DataWithScatteringCoordinates[VanadiumRun]:e&#45;&gt;NormalizedRunData[VanadiumRun]:w</title>
<path fill="none" stroke="black" d="M2013,-110.5C2105.79,-110.5 2106.79,-207.12 2192.94,-214.1"/>
<polygon fill="black" stroke="black" points="2192.87,-217.6 2203,-214.5 2193.15,-210.61 2192.87,-217.6"/>
</g>
<!-- DetectorData[SampleRun]&#45;&gt;FilteredData[SampleRun] -->
<g id="edge22" class="edge">
<title>DetectorData[SampleRun]:e&#45;&gt;FilteredData[SampleRun]:w</title>
<path fill="none" stroke="black" d="M1357,-85.5C1447.73,-85.5 1472.93,-85.5 1558.8,-85.5"/>
<polygon fill="black" stroke="black" points="1559,-89 1569,-85.5 1559,-82 1559,-89"/>
</g>
<!-- DetectorData[VanadiumRun]&#45;&gt;FilteredData[VanadiumRun] -->
<g id="edge23" class="edge">
<title>DetectorData[VanadiumRun]:e&#45;&gt;FilteredData[VanadiumRun]:w</title>
<path fill="none" stroke="black" d="M1364,-110.5C1448.56,-110.5 1472.18,-110.5 1551.98,-110.5"/>
<polygon fill="black" stroke="black" points="1552,-114 1562,-110.5 1552,-107 1552,-114"/>
</g>
<!-- MaskedData[SampleRun] -->
<g id="node29" class="node">
<title>MaskedData[SampleRun]</title>
<polygon fill="none" stroke="black" points="2563,-113 2468,-113 2468,-92 2563,-92 2563,-113"/>
<text text-anchor="start" x="2476" y="-99.4" font-family="Times,serif" font-size="12.00">[SampleRun]</text>
</g>
<!-- MaskedData[SampleRun]&#45;&gt;DspacingData[SampleRun] -->
<g id="edge18" class="edge">
<title>MaskedData[SampleRun]:e&#45;&gt;DspacingData[SampleRun]:w</title>
<path fill="none" stroke="black" d="M2564.5,-102.5C2621.73,-102.5 2632.1,-63.51 2683.84,-58.94"/>
<polygon fill="black" stroke="black" points="2684.16,-62.43 2694,-58.5 2683.86,-55.43 2684.16,-62.43"/>
</g>
<!-- DspacingData[SampleRun]&#45;&gt;FocussedDataDspacing[SampleRun] -->
<g id="edge24" class="edge">
<title>DspacingData[SampleRun]:e&#45;&gt;FocussedDataDspacing[SampleRun]:w</title>
<path fill="none" stroke="black" d="M2792,-58.5C2839.74,-58.5 2841.51,-93.19 2886,-110.5 2907.24,-118.76 2915.22,-123.16 2933.88,-124.24"/>
<polygon fill="black" stroke="black" points="2933.91,-127.74 2944,-124.5 2934.09,-120.74 2933.91,-127.74"/>
</g>
<!-- OutputCalibrationData -->
<g id="node38" class="node">
<title>OutputCalibrationData</title>
<polygon fill="none" stroke="black" points="3384,-68 3186,-68 3186,-35 3384,-35 3384,-68"/>
<text text-anchor="start" x="3203" y="-53.8" font-family="Times,serif" font-size="14.00">OutputCalibrationData</text>
<text text-anchor="start" x="3194" y="-42.2" font-family="Times,serif" font-size="11.00">via:</text>
<text text-anchor="start" x="3215" y="-42.2" font-family="Times,serif" font-style="italic" font-size="11.00">assemble_output_calibration</text>
</g>
<!-- DspacingData[SampleRun]&#45;&gt;OutputCalibrationData -->
<g id="edge46" class="edge">
<title>DspacingData[SampleRun]:e&#45;&gt;OutputCalibrationData:w</title>
<path fill="none" stroke="black" d="M2792,-58.5C2834.01,-58.5 2844.05,-50.73 2886,-48.5 2980.98,-43.46 3004.9,-46.82 3100,-48.5 3134.1,-49.1 3145.09,-51.06 3174.68,-51.44"/>
<polygon fill="black" stroke="black" points="3174.98,-54.94 3185,-51.5 3175.02,-47.94 3174.98,-54.94"/>
</g>
<!-- MaskedData[VanadiumRun] -->
<g id="node31" class="node">
<title>MaskedData[VanadiumRun]</title>
<polygon fill="none" stroke="black" points="2570.5,-138 2460.5,-138 2460.5,-117 2570.5,-117 2570.5,-138"/>
<text text-anchor="start" x="2468.5" y="-124.4" font-family="Times,serif" font-size="12.00">[VanadiumRun]</text>
</g>
<!-- DspacingData[VanadiumRun] -->
<g id="node32" class="node">
<title>DspacingData[VanadiumRun]</title>
<polygon fill="none" stroke="black" points="2798,-94 2688,-94 2688,-73 2798,-73 2798,-94"/>
<text text-anchor="start" x="2696" y="-80.4" font-family="Times,serif" font-size="12.00">[VanadiumRun]</text>
</g>
<!-- MaskedData[VanadiumRun]&#45;&gt;DspacingData[VanadiumRun] -->
<g id="edge21" class="edge">
<title>MaskedData[VanadiumRun]:e&#45;&gt;DspacingData[VanadiumRun]:w</title>
<path fill="none" stroke="black" d="M2571.5,-127.5C2622.89,-127.5 2631.14,-88.99 2676.97,-84.02"/>
<polygon fill="black" stroke="black" points="2677.2,-87.52 2687,-83.5 2676.83,-80.53 2677.2,-87.52"/>
</g>
<!-- FocussedDataDspacing[VanadiumRun] -->
<g id="node34" class="node">
<title>FocussedDataDspacing[VanadiumRun]</title>
<polygon fill="none" stroke="black" points="3048,-110 2938,-110 2938,-89 3048,-89 3048,-110"/>
<text text-anchor="start" x="2946" y="-96.4" font-family="Times,serif" font-size="12.00">[VanadiumRun]</text>
</g>
<!-- DspacingData[VanadiumRun]&#45;&gt;FocussedDataDspacing[VanadiumRun] -->
<g id="edge26" class="edge">
<title>DspacingData[VanadiumRun]:e&#45;&gt;FocussedDataDspacing[VanadiumRun]:w</title>
<path fill="none" stroke="black" d="M2799,-83.5C2857.25,-83.5 2873.46,-97.74 2926.95,-99.35"/>
<polygon fill="black" stroke="black" points="2926.95,-102.85 2937,-99.5 2927.05,-95.85 2926.95,-102.85"/>
</g>
<!-- IofDspacing -->
<g id="node35" class="node">
<title>IofDspacing</title>
<polygon fill="none" stroke="black" points="3398,-110 3172,-110 3172,-77 3398,-77 3398,-110"/>
<text text-anchor="start" x="3242.5" y="-95.8" font-family="Times,serif" font-size="14.00">IofDspacing</text>
<text text-anchor="start" x="3180" y="-84.2" font-family="Times,serif" font-size="11.00">via:</text>
<text text-anchor="start" x="3201" y="-84.2" font-family="Times,serif" font-style="italic" font-size="11.00">normalize_by_vanadium_dspacing</text>
</g>
<!-- FocussedDataDspacing[SampleRun]&#45;&gt;IofDspacing -->
<g id="edge27" class="edge">
<title>FocussedDataDspacing[SampleRun]:e&#45;&gt;IofDspacing:w</title>
<path fill="none" stroke="black" d="M3042,-124.5C3097.8,-124.5 3111.07,-97.14 3161.72,-93.83"/>
<polygon fill="black" stroke="black" points="3162.12,-97.32 3172,-93.5 3161.89,-90.32 3162.12,-97.32"/>
</g>
<!-- FocussedDataDspacing[VanadiumRun]&#45;&gt;IofDspacing -->
<g id="edge28" class="edge">
<title>FocussedDataDspacing[VanadiumRun]:e&#45;&gt;IofDspacing:w</title>
<path fill="none" stroke="black" d="M3049,-99.5C3100.2,-99.5 3115.35,-94.25 3161.91,-93.57"/>
<polygon fill="black" stroke="black" points="3162.03,-97.07 3172,-93.5 3161.98,-90.07 3162.03,-97.07"/>
</g>
<!-- IofTof -->
<g id="node37" class="node">
<title>IofTof</title>
<polygon fill="none" stroke="black" points="3637,-92 3470,-92 3470,-59 3637,-59 3637,-92"/>
<text text-anchor="start" x="3533" y="-77.8" font-family="Times,serif" font-size="14.00">IofTof</text>
<text text-anchor="start" x="3478" y="-66.2" font-family="Times,serif" font-size="11.00">via:</text>
<text text-anchor="start" x="3499" y="-66.2" font-family="Times,serif" font-style="italic" font-size="11.00">convert_reduced_to_tof</text>
</g>
<!-- IofDspacing&#45;&gt;IofTof -->
<g id="edge30" class="edge">
<title>IofDspacing:e&#45;&gt;IofTof:w</title>
<path fill="none" stroke="black" d="M3398,-93.5C3427.25,-93.5 3435.3,-79.35 3459.75,-76.14"/>
<polygon fill="black" stroke="black" points="3460.24,-79.62 3470,-75.5 3459.8,-72.63 3460.24,-79.62"/>
</g>
<!-- UncertaintyBroadcastMode -->
<g id="node36" class="node">
<title>UncertaintyBroadcastMode</title>
<polygon fill="none" stroke="black" points="3100,-72 2886,-72 2886,-49 3100,-49 3100,-72"/>
<text text-anchor="middle" x="2993" y="-56.8" font-family="Times,serif" font-size="14.00">UncertaintyBroadcastMode</text>
</g>
<!-- UncertaintyBroadcastMode&#45;&gt;IofDspacing -->
<g id="edge29" class="edge">
<title>UncertaintyBroadcastMode:e&#45;&gt;IofDspacing:w</title>
<path fill="none" stroke="black" d="M3100,-60.5C3131.49,-60.5 3136.09,-86.91 3161.9,-92.48"/>
<polygon fill="black" stroke="black" points="3161.7,-95.97 3172,-93.5 3162.4,-89.01 3161.7,-95.97"/>
</g>
<!-- IofTof&#45;&gt;ReducedTofCIF -->
<g id="edge47" class="edge">
<title>IofTof:e&#45;&gt;ReducedTofCIF:w</title>
<path fill="none" stroke="black" d="M3637,-75.5C3667.04,-75.5 3673.93,-56.46 3698.9,-52.3"/>
<polygon fill="black" stroke="black" points="3699.31,-55.78 3709,-51.5 3698.76,-48.8 3699.31,-55.78"/>
</g>
<!-- OutputCalibrationData&#45;&gt;IofTof -->
<g id="edge31" class="edge">
<title>OutputCalibrationData:e&#45;&gt;IofTof:w</title>
<path fill="none" stroke="black" d="M3385,-51.5C3420.57,-51.5 3429.24,-71.21 3459.77,-74.91"/>
<polygon fill="black" stroke="black" points="3459.81,-78.42 3470,-75.5 3460.22,-71.43 3459.81,-78.42"/>
</g>
<!-- OutputCalibrationData&#45;&gt;ReducedTofCIF -->
<g id="edge49" class="edge">
<title>OutputCalibrationData:e&#45;&gt;ReducedTofCIF:w</title>
<path fill="none" stroke="black" d="M3385,-51.5C3525.48,-51.5 3563.18,-51.5 3698.64,-51.5"/>
<polygon fill="black" stroke="black" points="3699,-55 3709,-51.5 3699,-48 3699,-55"/>
</g>
<!-- NormalizedRunData[SampleRun]&#45;&gt;MaskedData[SampleRun] -->
<g id="edge32" class="edge">
<title>NormalizedRunData[SampleRun]:e&#45;&gt;MaskedData[SampleRun]:w</title>
<path fill="none" stroke="black" d="M2308,-189.5C2384.75,-189.5 2386.17,-110.14 2456.16,-103.01"/>
<polygon fill="black" stroke="black" points="2456.68,-106.49 2466.5,-102.5 2456.34,-99.5 2456.68,-106.49"/>
</g>
<!-- MaskedDetectorIDs -->
<g id="node40" class="node">
<title>MaskedDetectorIDs</title>
<polygon fill="none" stroke="black" points="2338,-162 2180,-162 2180,-139 2338,-139 2338,-162"/>
<text text-anchor="middle" x="2259" y="-146.8" font-family="Times,serif" font-size="14.00">MaskedDetectorIDs</text>
</g>
<!-- MaskedDetectorIDs&#45;&gt;MaskedData[SampleRun] -->
<g id="edge33" class="edge">
<title>MaskedDetectorIDs:e&#45;&gt;MaskedData[SampleRun]:w</title>
<path fill="none" stroke="black" stroke-width="2" d="M2339,-150.5C2390.52,-150.5 2402.84,-115.75 2442.66,-105.38"/>
<polygon fill="black" stroke="black" stroke-width="2" points="2443.37,-108.81 2452.5,-103.43 2442.01,-101.95 2443.37,-108.81"/>
</g>
<!-- TofMask -->
<g id="node41" class="node">
<title>TofMask</title>
<polygon fill="none" stroke="black" points="2297.5,-135 2220.5,-135 2220.5,-112 2297.5,-112 2297.5,-135"/>
<text text-anchor="middle" x="2259" y="-119.8" font-family="Times,serif" font-size="14.00">TofMask</text>
</g>
<!-- TofMask&#45;&gt;MaskedData[SampleRun] -->
<g id="edge34" class="edge">
<title>TofMask:e&#45;&gt;MaskedData[SampleRun]:w</title>
<path fill="none" stroke="black" stroke-width="2" d="M2299,-123.5C2365.29,-123.5 2386.63,-107.11 2442.45,-103.29"/>
<polygon fill="black" stroke="black" stroke-width="2" points="2442.7,-106.78 2452.5,-102.76 2442.33,-99.79 2442.7,-106.78"/>
</g>
<!-- WavelengthMask -->
<g id="node42" class="node">
<title>WavelengthMask</title>
<polygon fill="none" stroke="black" points="2328.5,-108 2189.5,-108 2189.5,-85 2328.5,-85 2328.5,-108"/>
<text text-anchor="middle" x="2259" y="-92.8" font-family="Times,serif" font-size="14.00">WavelengthMask</text>
</g>
<!-- WavelengthMask&#45;&gt;MaskedData[SampleRun] -->
<g id="edge35" class="edge">
<title>WavelengthMask:e&#45;&gt;MaskedData[SampleRun]:w</title>
<path fill="none" stroke="black" stroke-width="2" d="M2330,-96.5C2381.74,-96.5 2400.32,-100.86 2442.25,-102.14"/>
<polygon fill="black" stroke="black" stroke-width="2" points="2442.42,-105.65 2452.5,-102.39 2442.59,-98.65 2442.42,-105.65"/>
</g>
<!-- TwoThetaMask -->
<g id="node43" class="node">
<title>TwoThetaMask</title>
<polygon fill="none" stroke="black" points="2321.5,-81 2196.5,-81 2196.5,-58 2321.5,-58 2321.5,-81"/>
<text text-anchor="middle" x="2259" y="-65.8" font-family="Times,serif" font-size="14.00">TwoThetaMask</text>
</g>
<!-- TwoThetaMask&#45;&gt;MaskedData[SampleRun] -->
<g id="edge36" class="edge">
<title>TwoThetaMask:e&#45;&gt;MaskedData[SampleRun]:w</title>
<path fill="none" stroke="black" stroke-width="2" d="M2322,-69.5C2379,-69.5 2396.22,-94.21 2442.5,-100.86"/>
<polygon fill="black" stroke="black" stroke-width="2" points="2442.18,-104.35 2452.5,-101.97 2442.95,-97.39 2442.18,-104.35"/>
</g>
<!-- NormalizedRunData[VanadiumRun]&#45;&gt;MaskedData[VanadiumRun] -->
<g id="edge37" class="edge">
<title>NormalizedRunData[VanadiumRun]:e&#45;&gt;MaskedData[VanadiumRun]:w</title>
<path fill="none" stroke="black" d="M2315,-214.5C2386.45,-214.5 2384.87,-135.47 2449.47,-128.06"/>
<polygon fill="black" stroke="black" points="2449.71,-131.55 2459.5,-127.5 2449.32,-124.56 2449.71,-131.55"/>
</g>
<!-- NeXusName[NXdetector] -->
<g id="node45" class="node">
<title>NeXusName[NXdetector]</title>
<polygon fill="none" stroke="black" points="395,-196 198,-196 198,-173 395,-173 395,-196"/>
<text text-anchor="middle" x="296.5" y="-180.8" font-family="Times,serif" font-size="14.00">NeXusName[NXdetector]</text>
</g>
<!-- NeXusName[NXdetector]&#45;&gt;NeXusComponent[NXdetector, SampleRun] -->
<g id="edge39" class="edge">
<title>NeXusName[NXdetector]:e&#45;&gt;NeXusComponent[NXdetector, SampleRun]:w</title>
<path fill="none" stroke="black" d="M395,-184.5C427.35,-184.5 435.87,-200.64 463.38,-203.92"/>
<polygon fill="black" stroke="black" points="463.32,-207.42 473.5,-204.5 463.72,-200.44 463.32,-207.42"/>
</g>
<!-- NeXusName[NXdetector]&#45;&gt;NeXusComponent[NXdetector, VanadiumRun] -->
<g id="edge41" class="edge">
<title>NeXusName[NXdetector]:e&#45;&gt;NeXusComponent[NXdetector, VanadiumRun]:w</title>
<path fill="none" stroke="black" d="M395,-184.5C428.73,-184.5 429.26,-220.82 456.25,-228.2"/>
<polygon fill="black" stroke="black" points="456.14,-231.72 466.5,-229.5 457.02,-224.77 456.14,-231.72"/>
</g>
</g>
</svg>
