<?xml version="1.0" encoding="utf-8" standalone="no"?>
<!DOCTYPE svg PUBLIC "-//W3C//DTD SVG 1.1//EN"
  "http://www.w3.org/Graphics/SVG/1.1/DTD/svg11.dtd">
<svg xmlns:xlink="http://www.w3.org/1999/xlink" width="401.690625pt" height="268.200625pt" viewBox="0 0 401.690625 268.200625" xmlns="http://www.w3.org/2000/svg" version="1.1">
 <metadata>
  <rdf:RDF xmlns:dc="http://purl.org/dc/elements/1.1/" xmlns:cc="http://creativecommons.org/ns#" xmlns:rdf="http://www.w3.org/1999/02/22-rdf-syntax-ns#">
   <cc:Work>
    <dc:type rdf:resource="http://purl.org/dc/dcmitype/StillImage"/>
    <dc:date>2025-05-27T11:00:56.192773</dc:date>
    <dc:format>image/svg+xml</dc:format>
    <dc:creator>
     <cc:Agent>
      <dc:title>Matplotlib v3.10.3, https://matplotlib.org/</dc:title>
     </cc:Agent>
    </dc:creator>
   </cc:Work>
  </rdf:RDF>
 </metadata>
 <defs>
  <style type="text/css">*{stroke-linejoin: round; stroke-linecap: butt}</style>
 </defs>
 <g id="figure_1">
  <g id="patch_1">
   <path d="M 0 268.200625 
L 401.690625 268.200625 
L 401.690625 0 
L 0 0 
z
" style="fill: #ffffff"/>
  </g>
  <g id="axes_1">
   <g id="patch_2">
    <path d="M 59.690625 228.96 
L 394.490625 228.96 
L 394.490625 7.2 
L 59.690625 7.2 
z
" style="fill: #ffffff"/>
   </g>
   <g id="matplotlib.axis_1">
    <g id="xtick_1">
     <g id="line2d_1">
      <defs>
       <path id="mf810a7e18b" d="M 0 0 
L 0 3.5 
" style="stroke: #000000; stroke-width: 0.8"/>
      </defs>
      <g>
       <use xlink:href="#mf810a7e18b" x="67.461326" y="228.96" style="stroke: #000000; stroke-width: 0.8"/>
      </g>
     </g>
     <g id="text_1">
      <!-- 0.25 -->
      <g transform="translate(56.328514 243.558437) scale(0.1 -0.1)">
       <defs>
        <path id="DejaVuSans-30" d="M 2034 4250 
Q 1547 4250 1301 3770 
Q 1056 3291 1056 2328 
Q 1056 1369 1301 889 
Q 1547 409 2034 409 
Q 2525 409 2770 889 
Q 3016 1369 3016 2328 
Q 3016 3291 2770 3770 
Q 2525 4250 2034 4250 
z
M 2034 4750 
Q 2819 4750 3233 4129 
Q 3647 3509 3647 2328 
Q 3647 1150 3233 529 
Q 2819 -91 2034 -91 
Q 1250 -91 836 529 
Q 422 1150 422 2328 
Q 422 3509 836 4129 
Q 1250 4750 2034 4750 
z
" transform="scale(0.015625)"/>
        <path id="DejaVuSans-2e" d="M 684 794 
L 1344 794 
L 1344 0 
L 684 0 
L 684 794 
z
" transform="scale(0.015625)"/>
        <path id="DejaVuSans-32" d="M 1228 531 
L 3431 531 
L 3431 0 
L 469 0 
L 469 531 
Q 828 903 1448 1529 
Q 2069 2156 2228 2338 
Q 2531 2678 2651 2914 
Q 2772 3150 2772 3378 
Q 2772 3750 2511 3984 
Q 2250 4219 1831 4219 
Q 1534 4219 1204 4116 
Q 875 4013 500 3803 
L 500 4441 
Q 881 4594 1212 4672 
Q 1544 4750 1819 4750 
Q 2544 4750 2975 4387 
Q 3406 4025 3406 3419 
Q 3406 3131 3298 2873 
Q 3191 2616 2906 2266 
Q 2828 2175 2409 1742 
Q 1991 1309 1228 531 
z
" transform="scale(0.015625)"/>
        <path id="DejaVuSans-35" d="M 691 4666 
L 3169 4666 
L 3169 4134 
L 1269 4134 
L 1269 2991 
Q 1406 3038 1543 3061 
Q 1681 3084 1819 3084 
Q 2600 3084 3056 2656 
Q 3513 2228 3513 1497 
Q 3513 744 3044 326 
Q 2575 -91 1722 -91 
Q 1428 -91 1123 -41 
Q 819 9 494 109 
L 494 744 
Q 775 591 1075 516 
Q 1375 441 1709 441 
Q 2250 441 2565 725 
Q 2881 1009 2881 1497 
Q 2881 1984 2565 2268 
Q 2250 2553 1709 2553 
Q 1456 2553 1204 2497 
Q 953 2441 691 2322 
L 691 4666 
z
" transform="scale(0.015625)"/>
       </defs>
       <use xlink:href="#DejaVuSans-30"/>
       <use xlink:href="#DejaVuSans-2e" transform="translate(63.623047 0)"/>
       <use xlink:href="#DejaVuSans-32" transform="translate(95.410156 0)"/>
       <use xlink:href="#DejaVuSans-35" transform="translate(159.033203 0)"/>
      </g>
     </g>
    </g>
    <g id="xtick_2">
     <g id="line2d_2">
      <g>
       <use xlink:href="#mf810a7e18b" x="104.698729" y="228.96" style="stroke: #000000; stroke-width: 0.8"/>
      </g>
     </g>
     <g id="text_2">
      <!-- 0.50 -->
      <g transform="translate(93.565917 243.558437) scale(0.1 -0.1)">
       <use xlink:href="#DejaVuSans-30"/>
       <use xlink:href="#DejaVuSans-2e" transform="translate(63.623047 0)"/>
       <use xlink:href="#DejaVuSans-35" transform="translate(95.410156 0)"/>
       <use xlink:href="#DejaVuSans-30" transform="translate(159.033203 0)"/>
      </g>
     </g>
    </g>
    <g id="xtick_3">
     <g id="line2d_3">
      <g>
       <use xlink:href="#mf810a7e18b" x="141.936132" y="228.96" style="stroke: #000000; stroke-width: 0.8"/>
      </g>
     </g>
     <g id="text_3">
      <!-- 0.75 -->
      <g transform="translate(130.80332 243.558437) scale(0.1 -0.1)">
       <defs>
        <path id="DejaVuSans-37" d="M 525 4666 
L 3525 4666 
L 3525 4397 
L 1831 0 
L 1172 0 
L 2766 4134 
L 525 4134 
L 525 4666 
z
" transform="scale(0.015625)"/>
       </defs>
       <use xlink:href="#DejaVuSans-30"/>
       <use xlink:href="#DejaVuSans-2e" transform="translate(63.623047 0)"/>
       <use xlink:href="#DejaVuSans-37" transform="translate(95.410156 0)"/>
       <use xlink:href="#DejaVuSans-35" transform="translate(159.033203 0)"/>
      </g>
     </g>
    </g>
    <g id="xtick_4">
     <g id="line2d_4">
      <g>
       <use xlink:href="#mf810a7e18b" x="179.173535" y="228.96" style="stroke: #000000; stroke-width: 0.8"/>
      </g>
     </g>
     <g id="text_4">
      <!-- 1.00 -->
      <g transform="translate(168.040722 243.558437) scale(0.1 -0.1)">
       <defs>
        <path id="DejaVuSans-31" d="M 794 531 
L 1825 531 
L 1825 4091 
L 703 3866 
L 703 4441 
L 1819 4666 
L 2450 4666 
L 2450 531 
L 3481 531 
L 3481 0 
L 794 0 
L 794 531 
z
" transform="scale(0.015625)"/>
       </defs>
       <use xlink:href="#DejaVuSans-31"/>
       <use xlink:href="#DejaVuSans-2e" transform="translate(63.623047 0)"/>
       <use xlink:href="#DejaVuSans-30" transform="translate(95.410156 0)"/>
       <use xlink:href="#DejaVuSans-30" transform="translate(159.033203 0)"/>
      </g>
     </g>
    </g>
    <g id="xtick_5">
     <g id="line2d_5">
      <g>
       <use xlink:href="#mf810a7e18b" x="216.410938" y="228.96" style="stroke: #000000; stroke-width: 0.8"/>
      </g>
     </g>
     <g id="text_5">
      <!-- 1.25 -->
      <g transform="translate(205.278125 243.558437) scale(0.1 -0.1)">
       <use xlink:href="#DejaVuSans-31"/>
       <use xlink:href="#DejaVuSans-2e" transform="translate(63.623047 0)"/>
       <use xlink:href="#DejaVuSans-32" transform="translate(95.410156 0)"/>
       <use xlink:href="#DejaVuSans-35" transform="translate(159.033203 0)"/>
      </g>
     </g>
    </g>
    <g id="xtick_6">
     <g id="line2d_6">
      <g>
       <use xlink:href="#mf810a7e18b" x="253.648341" y="228.96" style="stroke: #000000; stroke-width: 0.8"/>
      </g>
     </g>
     <g id="text_6">
      <!-- 1.50 -->
      <g transform="translate(242.515528 243.558437) scale(0.1 -0.1)">
       <use xlink:href="#DejaVuSans-31"/>
       <use xlink:href="#DejaVuSans-2e" transform="translate(63.623047 0)"/>
       <use xlink:href="#DejaVuSans-35" transform="translate(95.410156 0)"/>
       <use xlink:href="#DejaVuSans-30" transform="translate(159.033203 0)"/>
      </g>
     </g>
    </g>
    <g id="xtick_7">
     <g id="line2d_7">
      <g>
       <use xlink:href="#mf810a7e18b" x="290.885744" y="228.96" style="stroke: #000000; stroke-width: 0.8"/>
      </g>
     </g>
     <g id="text_7">
      <!-- 1.75 -->
      <g transform="translate(279.752931 243.558437) scale(0.1 -0.1)">
       <use xlink:href="#DejaVuSans-31"/>
       <use xlink:href="#DejaVuSans-2e" transform="translate(63.623047 0)"/>
       <use xlink:href="#DejaVuSans-37" transform="translate(95.410156 0)"/>
       <use xlink:href="#DejaVuSans-35" transform="translate(159.033203 0)"/>
      </g>
     </g>
    </g>
    <g id="xtick_8">
     <g id="line2d_8">
      <g>
       <use xlink:href="#mf810a7e18b" x="328.123147" y="228.96" style="stroke: #000000; stroke-width: 0.8"/>
      </g>
     </g>
     <g id="text_8">
      <!-- 2.00 -->
      <g transform="translate(316.990334 243.558437) scale(0.1 -0.1)">
       <use xlink:href="#DejaVuSans-32"/>
       <use xlink:href="#DejaVuSans-2e" transform="translate(63.623047 0)"/>
       <use xlink:href="#DejaVuSans-30" transform="translate(95.410156 0)"/>
       <use xlink:href="#DejaVuSans-30" transform="translate(159.033203 0)"/>
      </g>
     </g>
    </g>
    <g id="xtick_9">
     <g id="line2d_9">
      <g>
       <use xlink:href="#mf810a7e18b" x="365.360549" y="228.96" style="stroke: #000000; stroke-width: 0.8"/>
      </g>
     </g>
     <g id="text_9">
      <!-- 2.25 -->
      <g transform="translate(354.227737 243.558437) scale(0.1 -0.1)">
       <use xlink:href="#DejaVuSans-32"/>
       <use xlink:href="#DejaVuSans-2e" transform="translate(63.623047 0)"/>
       <use xlink:href="#DejaVuSans-32" transform="translate(95.410156 0)"/>
       <use xlink:href="#DejaVuSans-35" transform="translate(159.033203 0)"/>
      </g>
     </g>
    </g>
    <g id="text_10">
     <!-- dspacing [Å] -->
     <g transform="translate(195.68125 258.920937) scale(0.1 -0.1)">
      <defs>
       <path id="DejaVuSans-64" d="M 2906 2969 
L 2906 4863 
L 3481 4863 
L 3481 0 
L 2906 0 
L 2906 525 
Q 2725 213 2448 61 
Q 2172 -91 1784 -91 
Q 1150 -91 751 415 
Q 353 922 353 1747 
Q 353 2572 751 3078 
Q 1150 3584 1784 3584 
Q 2172 3584 2448 3432 
Q 2725 3281 2906 2969 
z
M 947 1747 
Q 947 1113 1208 752 
Q 1469 391 1925 391 
Q 2381 391 2643 752 
Q 2906 1113 2906 1747 
Q 2906 2381 2643 2742 
Q 2381 3103 1925 3103 
Q 1469 3103 1208 2742 
Q 947 2381 947 1747 
z
" transform="scale(0.015625)"/>
       <path id="DejaVuSans-73" d="M 2834 3397 
L 2834 2853 
Q 2591 2978 2328 3040 
Q 2066 3103 1784 3103 
Q 1356 3103 1142 2972 
Q 928 2841 928 2578 
Q 928 2378 1081 2264 
Q 1234 2150 1697 2047 
L 1894 2003 
Q 2506 1872 2764 1633 
Q 3022 1394 3022 966 
Q 3022 478 2636 193 
Q 2250 -91 1575 -91 
Q 1294 -91 989 -36 
Q 684 19 347 128 
L 347 722 
Q 666 556 975 473 
Q 1284 391 1588 391 
Q 1994 391 2212 530 
Q 2431 669 2431 922 
Q 2431 1156 2273 1281 
Q 2116 1406 1581 1522 
L 1381 1569 
Q 847 1681 609 1914 
Q 372 2147 372 2553 
Q 372 3047 722 3315 
Q 1072 3584 1716 3584 
Q 2034 3584 2315 3537 
Q 2597 3491 2834 3397 
z
" transform="scale(0.015625)"/>
       <path id="DejaVuSans-70" d="M 1159 525 
L 1159 -1331 
L 581 -1331 
L 581 3500 
L 1159 3500 
L 1159 2969 
Q 1341 3281 1617 3432 
Q 1894 3584 2278 3584 
Q 2916 3584 3314 3078 
Q 3713 2572 3713 1747 
Q 3713 922 3314 415 
Q 2916 -91 2278 -91 
Q 1894 -91 1617 61 
Q 1341 213 1159 525 
z
M 3116 1747 
Q 3116 2381 2855 2742 
Q 2594 3103 2138 3103 
Q 1681 3103 1420 2742 
Q 1159 2381 1159 1747 
Q 1159 1113 1420 752 
Q 1681 391 2138 391 
Q 2594 391 2855 752 
Q 3116 1113 3116 1747 
z
" transform="scale(0.015625)"/>
       <path id="DejaVuSans-61" d="M 2194 1759 
Q 1497 1759 1228 1600 
Q 959 1441 959 1056 
Q 959 750 1161 570 
Q 1363 391 1709 391 
Q 2188 391 2477 730 
Q 2766 1069 2766 1631 
L 2766 1759 
L 2194 1759 
z
M 3341 1997 
L 3341 0 
L 2766 0 
L 2766 531 
Q 2569 213 2275 61 
Q 1981 -91 1556 -91 
Q 1019 -91 701 211 
Q 384 513 384 1019 
Q 384 1609 779 1909 
Q 1175 2209 1959 2209 
L 2766 2209 
L 2766 2266 
Q 2766 2663 2505 2880 
Q 2244 3097 1772 3097 
Q 1472 3097 1187 3025 
Q 903 2953 641 2809 
L 641 3341 
Q 956 3463 1253 3523 
Q 1550 3584 1831 3584 
Q 2591 3584 2966 3190 
Q 3341 2797 3341 1997 
z
" transform="scale(0.015625)"/>
       <path id="DejaVuSans-63" d="M 3122 3366 
L 3122 2828 
Q 2878 2963 2633 3030 
Q 2388 3097 2138 3097 
Q 1578 3097 1268 2742 
Q 959 2388 959 1747 
Q 959 1106 1268 751 
Q 1578 397 2138 397 
Q 2388 397 2633 464 
Q 2878 531 3122 666 
L 3122 134 
Q 2881 22 2623 -34 
Q 2366 -91 2075 -91 
Q 1284 -91 818 406 
Q 353 903 353 1747 
Q 353 2603 823 3093 
Q 1294 3584 2113 3584 
Q 2378 3584 2631 3529 
Q 2884 3475 3122 3366 
z
" transform="scale(0.015625)"/>
       <path id="DejaVuSans-69" d="M 603 3500 
L 1178 3500 
L 1178 0 
L 603 0 
L 603 3500 
z
M 603 4863 
L 1178 4863 
L 1178 4134 
L 603 4134 
L 603 4863 
z
" transform="scale(0.015625)"/>
       <path id="DejaVuSans-6e" d="M 3513 2113 
L 3513 0 
L 2938 0 
L 2938 2094 
Q 2938 2591 2744 2837 
Q 2550 3084 2163 3084 
Q 1697 3084 1428 2787 
Q 1159 2491 1159 1978 
L 1159 0 
L 581 0 
L 581 3500 
L 1159 3500 
L 1159 2956 
Q 1366 3272 1645 3428 
Q 1925 3584 2291 3584 
Q 2894 3584 3203 3211 
Q 3513 2838 3513 2113 
z
" transform="scale(0.015625)"/>
       <path id="DejaVuSans-67" d="M 2906 1791 
Q 2906 2416 2648 2759 
Q 2391 3103 1925 3103 
Q 1463 3103 1205 2759 
Q 947 2416 947 1791 
Q 947 1169 1205 825 
Q 1463 481 1925 481 
Q 2391 481 2648 825 
Q 2906 1169 2906 1791 
z
M 3481 434 
Q 3481 -459 3084 -895 
Q 2688 -1331 1869 -1331 
Q 1566 -1331 1297 -1286 
Q 1028 -1241 775 -1147 
L 775 -588 
Q 1028 -725 1275 -790 
Q 1522 -856 1778 -856 
Q 2344 -856 2625 -561 
Q 2906 -266 2906 331 
L 2906 616 
Q 2728 306 2450 153 
Q 2172 0 1784 0 
Q 1141 0 747 490 
Q 353 981 353 1791 
Q 353 2603 747 3093 
Q 1141 3584 1784 3584 
Q 2172 3584 2450 3431 
Q 2728 3278 2906 2969 
L 2906 3500 
L 3481 3500 
L 3481 434 
z
" transform="scale(0.015625)"/>
       <path id="DejaVuSans-20" transform="scale(0.015625)"/>
       <path id="DejaVuSans-5b" d="M 550 4863 
L 1875 4863 
L 1875 4416 
L 1125 4416 
L 1125 -397 
L 1875 -397 
L 1875 -844 
L 550 -844 
L 550 4863 
z
" transform="scale(0.015625)"/>
       <path id="DejaVuSans-c5" d="M 2663 5081 
Q 2663 5278 2523 5417 
Q 2384 5556 2188 5556 
Q 1988 5556 1852 5420 
Q 1716 5284 1716 5081 
Q 1716 4884 1853 4746 
Q 1991 4609 2188 4609 
Q 2384 4609 2523 4746 
Q 2663 4884 2663 5081 
z
M 2188 4044 
L 1338 1722 
L 3041 1722 
L 2188 4044 
z
M 1716 4366 
Q 1525 4494 1428 4673 
Q 1331 4853 1331 5081 
Q 1331 5441 1579 5691 
Q 1828 5941 2188 5941 
Q 2544 5941 2795 5689 
Q 3047 5438 3047 5081 
Q 3047 4863 2948 4678 
Q 2850 4494 2663 4366 
L 4325 0 
L 3669 0 
L 3244 1197 
L 1141 1197 
L 716 0 
L 50 0 
L 1716 4366 
z
" transform="scale(0.015625)"/>
       <path id="DejaVuSans-5d" d="M 1947 4863 
L 1947 -844 
L 622 -844 
L 622 -397 
L 1369 -397 
L 1369 4416 
L 622 4416 
L 622 4863 
L 1947 4863 
z
" transform="scale(0.015625)"/>
      </defs>
      <use xlink:href="#DejaVuSans-64"/>
      <use xlink:href="#DejaVuSans-73" transform="translate(63.476562 0)"/>
      <use xlink:href="#DejaVuSans-70" transform="translate(115.576172 0)"/>
      <use xlink:href="#DejaVuSans-61" transform="translate(179.052734 0)"/>
      <use xlink:href="#DejaVuSans-63" transform="translate(240.332031 0)"/>
      <use xlink:href="#DejaVuSans-69" transform="translate(295.3125 0)"/>
      <use xlink:href="#DejaVuSans-6e" transform="translate(323.095703 0)"/>
      <use xlink:href="#DejaVuSans-67" transform="translate(386.474609 0)"/>
      <use xlink:href="#DejaVuSans-20" transform="translate(449.951172 0)"/>
      <use xlink:href="#DejaVuSans-5b" transform="translate(481.738281 0)"/>
      <use xlink:href="#DejaVuSans-c5" transform="translate(520.751953 0)"/>
      <use xlink:href="#DejaVuSans-5d" transform="translate(589.160156 0)"/>
     </g>
    </g>
   </g>
   <g id="matplotlib.axis_2">
    <g id="ytick_1">
     <g id="line2d_10">
      <defs>
       <path id="m0ff66baf2b" d="M 0 0 
L -3.5 0 
" style="stroke: #000000; stroke-width: 0.8"/>
      </defs>
      <g>
       <use xlink:href="#m0ff66baf2b" x="59.690625" y="217.317333" style="stroke: #000000; stroke-width: 0.8"/>
      </g>
     </g>
     <g id="text_11">
      <!-- 0 -->
      <g transform="translate(46.328125 221.116551) scale(0.1 -0.1)">
       <use xlink:href="#DejaVuSans-30"/>
      </g>
     </g>
    </g>
    <g id="ytick_2">
     <g id="line2d_11">
      <g>
       <use xlink:href="#m0ff66baf2b" x="59.690625" y="192.481014" style="stroke: #000000; stroke-width: 0.8"/>
      </g>
     </g>
     <g id="text_12">
      <!-- 2000 -->
      <g transform="translate(27.240625 196.280233) scale(0.1 -0.1)">
       <use xlink:href="#DejaVuSans-32"/>
       <use xlink:href="#DejaVuSans-30" transform="translate(63.623047 0)"/>
       <use xlink:href="#DejaVuSans-30" transform="translate(127.246094 0)"/>
       <use xlink:href="#DejaVuSans-30" transform="translate(190.869141 0)"/>
      </g>
     </g>
    </g>
    <g id="ytick_3">
     <g id="line2d_12">
      <g>
       <use xlink:href="#m0ff66baf2b" x="59.690625" y="167.644696" style="stroke: #000000; stroke-width: 0.8"/>
      </g>
     </g>
     <g id="text_13">
      <!-- 4000 -->
      <g transform="translate(27.240625 171.443914) scale(0.1 -0.1)">
       <defs>
        <path id="DejaVuSans-34" d="M 2419 4116 
L 825 1625 
L 2419 1625 
L 2419 4116 
z
M 2253 4666 
L 3047 4666 
L 3047 1625 
L 3713 1625 
L 3713 1100 
L 3047 1100 
L 3047 0 
L 2419 0 
L 2419 1100 
L 313 1100 
L 313 1709 
L 2253 4666 
z
" transform="scale(0.015625)"/>
       </defs>
       <use xlink:href="#DejaVuSans-34"/>
       <use xlink:href="#DejaVuSans-30" transform="translate(63.623047 0)"/>
       <use xlink:href="#DejaVuSans-30" transform="translate(127.246094 0)"/>
       <use xlink:href="#DejaVuSans-30" transform="translate(190.869141 0)"/>
      </g>
     </g>
    </g>
    <g id="ytick_4">
     <g id="line2d_13">
      <g>
       <use xlink:href="#m0ff66baf2b" x="59.690625" y="142.808377" style="stroke: #000000; stroke-width: 0.8"/>
      </g>
     </g>
     <g id="text_14">
      <!-- 6000 -->
      <g transform="translate(27.240625 146.607596) scale(0.1 -0.1)">
       <defs>
        <path id="DejaVuSans-36" d="M 2113 2584 
Q 1688 2584 1439 2293 
Q 1191 2003 1191 1497 
Q 1191 994 1439 701 
Q 1688 409 2113 409 
Q 2538 409 2786 701 
Q 3034 994 3034 1497 
Q 3034 2003 2786 2293 
Q 2538 2584 2113 2584 
z
M 3366 4563 
L 3366 3988 
Q 3128 4100 2886 4159 
Q 2644 4219 2406 4219 
Q 1781 4219 1451 3797 
Q 1122 3375 1075 2522 
Q 1259 2794 1537 2939 
Q 1816 3084 2150 3084 
Q 2853 3084 3261 2657 
Q 3669 2231 3669 1497 
Q 3669 778 3244 343 
Q 2819 -91 2113 -91 
Q 1303 -91 875 529 
Q 447 1150 447 2328 
Q 447 3434 972 4092 
Q 1497 4750 2381 4750 
Q 2619 4750 2861 4703 
Q 3103 4656 3366 4563 
z
" transform="scale(0.015625)"/>
       </defs>
       <use xlink:href="#DejaVuSans-36"/>
       <use xlink:href="#DejaVuSans-30" transform="translate(63.623047 0)"/>
       <use xlink:href="#DejaVuSans-30" transform="translate(127.246094 0)"/>
       <use xlink:href="#DejaVuSans-30" transform="translate(190.869141 0)"/>
      </g>
     </g>
    </g>
    <g id="ytick_5">
     <g id="line2d_14">
      <g>
       <use xlink:href="#m0ff66baf2b" x="59.690625" y="117.972059" style="stroke: #000000; stroke-width: 0.8"/>
      </g>
     </g>
     <g id="text_15">
      <!-- 8000 -->
      <g transform="translate(27.240625 121.771277) scale(0.1 -0.1)">
       <defs>
        <path id="DejaVuSans-38" d="M 2034 2216 
Q 1584 2216 1326 1975 
Q 1069 1734 1069 1313 
Q 1069 891 1326 650 
Q 1584 409 2034 409 
Q 2484 409 2743 651 
Q 3003 894 3003 1313 
Q 3003 1734 2745 1975 
Q 2488 2216 2034 2216 
z
M 1403 2484 
Q 997 2584 770 2862 
Q 544 3141 544 3541 
Q 544 4100 942 4425 
Q 1341 4750 2034 4750 
Q 2731 4750 3128 4425 
Q 3525 4100 3525 3541 
Q 3525 3141 3298 2862 
Q 3072 2584 2669 2484 
Q 3125 2378 3379 2068 
Q 3634 1759 3634 1313 
Q 3634 634 3220 271 
Q 2806 -91 2034 -91 
Q 1263 -91 848 271 
Q 434 634 434 1313 
Q 434 1759 690 2068 
Q 947 2378 1403 2484 
z
M 1172 3481 
Q 1172 3119 1398 2916 
Q 1625 2713 2034 2713 
Q 2441 2713 2670 2916 
Q 2900 3119 2900 3481 
Q 2900 3844 2670 4047 
Q 2441 4250 2034 4250 
Q 1625 4250 1398 4047 
Q 1172 3844 1172 3481 
z
" transform="scale(0.015625)"/>
       </defs>
       <use xlink:href="#DejaVuSans-38"/>
       <use xlink:href="#DejaVuSans-30" transform="translate(63.623047 0)"/>
       <use xlink:href="#DejaVuSans-30" transform="translate(127.246094 0)"/>
       <use xlink:href="#DejaVuSans-30" transform="translate(190.869141 0)"/>
      </g>
     </g>
    </g>
    <g id="ytick_6">
     <g id="line2d_15">
      <g>
       <use xlink:href="#m0ff66baf2b" x="59.690625" y="93.13574" style="stroke: #000000; stroke-width: 0.8"/>
      </g>
     </g>
     <g id="text_16">
      <!-- 10000 -->
      <g transform="translate(20.878125 96.934959) scale(0.1 -0.1)">
       <use xlink:href="#DejaVuSans-31"/>
       <use xlink:href="#DejaVuSans-30" transform="translate(63.623047 0)"/>
       <use xlink:href="#DejaVuSans-30" transform="translate(127.246094 0)"/>
       <use xlink:href="#DejaVuSans-30" transform="translate(190.869141 0)"/>
       <use xlink:href="#DejaVuSans-30" transform="translate(254.492188 0)"/>
      </g>
     </g>
    </g>
    <g id="ytick_7">
     <g id="line2d_16">
      <g>
       <use xlink:href="#m0ff66baf2b" x="59.690625" y="68.299421" style="stroke: #000000; stroke-width: 0.8"/>
      </g>
     </g>
     <g id="text_17">
      <!-- 12000 -->
      <g transform="translate(20.878125 72.09864) scale(0.1 -0.1)">
       <use xlink:href="#DejaVuSans-31"/>
       <use xlink:href="#DejaVuSans-32" transform="translate(63.623047 0)"/>
       <use xlink:href="#DejaVuSans-30" transform="translate(127.246094 0)"/>
       <use xlink:href="#DejaVuSans-30" transform="translate(190.869141 0)"/>
       <use xlink:href="#DejaVuSans-30" transform="translate(254.492188 0)"/>
      </g>
     </g>
    </g>
    <g id="ytick_8">
     <g id="line2d_17">
      <g>
       <use xlink:href="#m0ff66baf2b" x="59.690625" y="43.463103" style="stroke: #000000; stroke-width: 0.8"/>
      </g>
     </g>
     <g id="text_18">
      <!-- 14000 -->
      <g transform="translate(20.878125 47.262322) scale(0.1 -0.1)">
       <use xlink:href="#DejaVuSans-31"/>
       <use xlink:href="#DejaVuSans-34" transform="translate(63.623047 0)"/>
       <use xlink:href="#DejaVuSans-30" transform="translate(127.246094 0)"/>
       <use xlink:href="#DejaVuSans-30" transform="translate(190.869141 0)"/>
       <use xlink:href="#DejaVuSans-30" transform="translate(254.492188 0)"/>
      </g>
     </g>
    </g>
    <g id="ytick_9">
     <g id="line2d_18">
      <g>
       <use xlink:href="#m0ff66baf2b" x="59.690625" y="18.626784" style="stroke: #000000; stroke-width: 0.8"/>
      </g>
     </g>
     <g id="text_19">
      <!-- 16000 -->
      <g transform="translate(20.878125 22.426003) scale(0.1 -0.1)">
       <use xlink:href="#DejaVuSans-31"/>
       <use xlink:href="#DejaVuSans-36" transform="translate(63.623047 0)"/>
       <use xlink:href="#DejaVuSans-30" transform="translate(127.246094 0)"/>
       <use xlink:href="#DejaVuSans-30" transform="translate(190.869141 0)"/>
       <use xlink:href="#DejaVuSans-30" transform="translate(254.492188 0)"/>
      </g>
     </g>
    </g>
    <g id="text_20">
     <!-- [dimensionless] -->
     <g transform="translate(14.798438 157.557344) rotate(-90) scale(0.1 -0.1)">
      <defs>
       <path id="DejaVuSans-6d" d="M 3328 2828 
Q 3544 3216 3844 3400 
Q 4144 3584 4550 3584 
Q 5097 3584 5394 3201 
Q 5691 2819 5691 2113 
L 5691 0 
L 5113 0 
L 5113 2094 
Q 5113 2597 4934 2840 
Q 4756 3084 4391 3084 
Q 3944 3084 3684 2787 
Q 3425 2491 3425 1978 
L 3425 0 
L 2847 0 
L 2847 2094 
Q 2847 2600 2669 2842 
Q 2491 3084 2119 3084 
Q 1678 3084 1418 2786 
Q 1159 2488 1159 1978 
L 1159 0 
L 581 0 
L 581 3500 
L 1159 3500 
L 1159 2956 
Q 1356 3278 1631 3431 
Q 1906 3584 2284 3584 
Q 2666 3584 2933 3390 
Q 3200 3197 3328 2828 
z
" transform="scale(0.015625)"/>
       <path id="DejaVuSans-65" d="M 3597 1894 
L 3597 1613 
L 953 1613 
Q 991 1019 1311 708 
Q 1631 397 2203 397 
Q 2534 397 2845 478 
Q 3156 559 3463 722 
L 3463 178 
Q 3153 47 2828 -22 
Q 2503 -91 2169 -91 
Q 1331 -91 842 396 
Q 353 884 353 1716 
Q 353 2575 817 3079 
Q 1281 3584 2069 3584 
Q 2775 3584 3186 3129 
Q 3597 2675 3597 1894 
z
M 3022 2063 
Q 3016 2534 2758 2815 
Q 2500 3097 2075 3097 
Q 1594 3097 1305 2825 
Q 1016 2553 972 2059 
L 3022 2063 
z
" transform="scale(0.015625)"/>
       <path id="DejaVuSans-6f" d="M 1959 3097 
Q 1497 3097 1228 2736 
Q 959 2375 959 1747 
Q 959 1119 1226 758 
Q 1494 397 1959 397 
Q 2419 397 2687 759 
Q 2956 1122 2956 1747 
Q 2956 2369 2687 2733 
Q 2419 3097 1959 3097 
z
M 1959 3584 
Q 2709 3584 3137 3096 
Q 3566 2609 3566 1747 
Q 3566 888 3137 398 
Q 2709 -91 1959 -91 
Q 1206 -91 779 398 
Q 353 888 353 1747 
Q 353 2609 779 3096 
Q 1206 3584 1959 3584 
z
" transform="scale(0.015625)"/>
       <path id="DejaVuSans-6c" d="M 603 4863 
L 1178 4863 
L 1178 0 
L 603 0 
L 603 4863 
z
" transform="scale(0.015625)"/>
      </defs>
      <use xlink:href="#DejaVuSans-5b"/>
      <use xlink:href="#DejaVuSans-64" transform="translate(39.013672 0)"/>
      <use xlink:href="#DejaVuSans-69" transform="translate(102.490234 0)"/>
      <use xlink:href="#DejaVuSans-6d" transform="translate(130.273438 0)"/>
      <use xlink:href="#DejaVuSans-65" transform="translate(227.685547 0)"/>
      <use xlink:href="#DejaVuSans-6e" transform="translate(289.208984 0)"/>
      <use xlink:href="#DejaVuSans-73" transform="translate(352.587891 0)"/>
      <use xlink:href="#DejaVuSans-69" transform="translate(404.6875 0)"/>
      <use xlink:href="#DejaVuSans-6f" transform="translate(432.470703 0)"/>
      <use xlink:href="#DejaVuSans-6e" transform="translate(493.652344 0)"/>
      <use xlink:href="#DejaVuSans-6c" transform="translate(557.03125 0)"/>
      <use xlink:href="#DejaVuSans-65" transform="translate(584.814453 0)"/>
      <use xlink:href="#DejaVuSans-73" transform="translate(646.337891 0)"/>
      <use xlink:href="#DejaVuSans-73" transform="translate(698.4375 0)"/>
      <use xlink:href="#DejaVuSans-5d" transform="translate(750.537109 0)"/>
     </g>
    </g>
   </g>
   <g id="line2d_19">
    <path d="M 74.908807 217.716695 
L 76.430625 217.716695 
L 76.430625 218.15167 
L 80.99608 218.193508 
L 80.99608 218.435795 
L 82.517898 218.435795 
L 82.517898 218.262571 
L 84.039716 218.262571 
L 84.039716 218.114876 
L 85.561534 218.114876 
L 85.561534 218.273196 
L 87.083352 218.273196 
L 87.083352 218.158911 
L 88.60517 218.158911 
L 88.60517 218.357816 
L 93.170625 218.274239 
L 93.170625 217.943505 
L 96.214261 217.837247 
L 96.214261 217.817542 
L 97.73608 217.817542 
L 97.73608 217.602347 
L 99.257898 217.602347 
L 99.257898 217.740595 
L 102.301534 217.676207 
L 102.301534 217.574461 
L 103.823352 217.574461 
L 103.823352 217.232205 
L 105.34517 217.232205 
L 105.34517 211.727495 
L 106.866989 211.727495 
L 106.866989 210.35778 
L 108.388807 210.35778 
L 108.388807 210.756424 
L 109.910625 210.756424 
L 109.910625 202.451656 
L 111.432443 202.451656 
L 111.432443 207.560665 
L 112.954261 207.560665 
L 112.954261 216.010757 
L 114.47608 216.010757 
L 114.47608 217.151707 
L 115.997898 217.151707 
L 115.997898 217.015981 
L 117.519716 217.015981 
L 117.519716 214.399278 
L 119.041534 214.399278 
L 119.041534 205.856445 
L 120.563352 205.856445 
L 120.563352 209.241329 
L 122.08517 209.241329 
L 122.08517 209.62118 
L 123.606989 209.62118 
L 123.606989 202.486866 
L 125.128807 202.486866 
L 125.128807 210.200523 
L 126.650625 210.200523 
L 126.650625 216.214993 
L 128.172443 216.214993 
L 128.172443 216.533239 
L 129.694261 216.533239 
L 129.694261 211.007602 
L 131.21608 211.007602 
L 131.21608 189.374649 
L 132.737898 189.374649 
L 132.737898 193.192241 
L 134.259716 193.192241 
L 134.259716 211.770057 
L 135.781534 211.770057 
L 135.781534 215.678928 
L 137.303352 215.678928 
L 137.303352 216.639004 
L 138.82517 216.639004 
L 138.82517 215.860716 
L 140.346989 215.860716 
L 140.346989 216.33904 
L 143.390625 216.275799 
L 143.390625 215.959786 
L 144.912443 215.959786 
L 144.912443 216.244446 
L 147.95608 216.301336 
L 147.95608 215.970453 
L 149.477898 215.970453 
L 149.477898 208.492191 
L 150.999716 208.492191 
L 150.999716 192.624511 
L 152.521534 192.624511 
L 152.521534 197.404793 
L 154.043352 197.404793 
L 154.043352 212.903612 
L 155.56517 212.903612 
L 155.56517 215.850656 
L 157.086989 215.850656 
L 157.086989 216.250339 
L 160.130625 216.193723 
L 160.130625 210.858339 
L 161.652443 210.858339 
L 161.652443 189.276051 
L 163.174261 189.276051 
L 163.174261 188.763377 
L 164.69608 188.763377 
L 164.69608 210.287356 
L 166.217898 210.287356 
L 166.217898 215.291789 
L 167.739716 215.291789 
L 167.739716 216.106576 
L 169.261534 216.106576 
L 169.261534 216.232086 
L 172.30517 216.336621 
L 172.30517 216.755357 
L 175.348807 216.854318 
L 175.348807 216.536768 
L 179.914261 216.533997 
L 179.914261 213.533778 
L 181.43608 213.533778 
L 181.43608 190.770271 
L 182.957898 190.770271 
L 182.957898 167.866539 
L 184.479716 167.866539 
L 184.479716 193.793597 
L 186.001534 193.793597 
L 186.001534 211.642854 
L 187.523352 211.642854 
L 187.523352 204.884789 
L 189.04517 204.884789 
L 189.04517 172.909171 
L 190.566989 172.909171 
L 190.566989 173.913381 
L 192.088807 173.913381 
L 192.088807 208.540058 
L 193.610625 208.540058 
L 193.610625 214.860793 
L 195.132443 214.860793 
L 195.132443 214.134454 
L 196.654261 214.134454 
L 196.654261 215.385013 
L 198.17608 215.385013 
L 198.17608 217.787846 
L 199.697898 217.787846 
L 199.697898 217.967629 
L 201.219716 217.967629 
L 201.219716 214.627932 
L 202.741534 214.627932 
L 202.741534 211.382307 
L 204.263352 211.382307 
L 204.263352 217.586751 
L 205.78517 217.586751 
L 205.78517 218.140938 
L 207.306989 218.140938 
L 207.306989 218.325411 
L 210.350625 218.352756 
L 210.350625 218.755078 
L 211.872443 218.755078 
L 211.872443 218.446322 
L 213.394261 218.446322 
L 213.394261 218.672278 
L 214.91608 218.672278 
L 214.91608 218.534626 
L 216.437898 218.534626 
L 216.437898 218.345485 
L 217.959716 218.345485 
L 217.959716 218.527634 
L 219.481534 218.527634 
L 219.481534 218.311972 
L 222.52517 218.255439 
L 222.52517 217.942351 
L 224.046989 217.942351 
L 224.046989 217.703722 
L 225.568807 217.703722 
L 225.568807 217.347001 
L 227.090625 217.347001 
L 227.090625 217.222381 
L 228.612443 217.222381 
L 228.612443 216.880061 
L 230.134261 216.880061 
L 230.134261 216.743326 
L 231.65608 216.743326 
L 231.65608 216.350295 
L 233.177898 216.350295 
L 233.177898 216.105226 
L 236.221534 216.006729 
L 236.221534 215.778839 
L 237.743352 215.778839 
L 237.743352 215.613362 
L 239.26517 215.613362 
L 239.26517 215.20861 
L 240.786989 215.20861 
L 240.786989 215.053992 
L 242.308807 215.053992 
L 242.308807 214.663659 
L 243.830625 214.663659 
L 243.830625 214.207194 
L 245.352443 214.207194 
L 245.352443 213.874009 
L 246.874261 213.874009 
L 246.874261 214.812993 
L 248.39608 214.812993 
L 248.39608 213.873415 
L 249.917898 213.873415 
L 249.917898 214.507962 
L 251.439716 214.507962 
L 251.439716 214.953262 
L 252.961534 214.953262 
L 252.961534 215.219494 
L 254.483352 215.219494 
L 254.483352 215.792572 
L 256.00517 215.792572 
L 256.00517 216.017182 
L 257.526989 216.017182 
L 257.526989 215.889091 
L 260.570625 215.837656 
L 260.570625 215.670717 
L 262.092443 215.670717 
L 262.092443 216.200573 
L 263.614261 216.200573 
L 263.614261 216.061818 
L 265.13608 216.061818 
L 265.13608 216.337464 
L 266.657898 216.337464 
L 266.657898 216.531679 
L 274.266989 216.530645 
L 274.266989 216.646067 
L 275.788807 216.646067 
L 275.788807 216.870118 
L 280.354261 216.822735 
L 280.354261 216.650743 
L 286.441534 216.541767 
L 286.441534 216.812515 
L 292.528807 216.817154 
L 292.528807 216.597702 
L 294.050625 216.597702 
L 294.050625 216.862662 
L 297.094261 216.854093 
L 297.094261 217.025017 
L 298.61608 217.025017 
L 298.61608 217.24236 
L 301.659716 217.194294 
L 301.659716 216.975033 
L 304.703352 216.884531 
L 304.703352 216.854674 
L 307.746989 216.847093 
L 307.746989 216.602723 
L 309.268807 216.602723 
L 309.268807 216.979253 
L 310.790625 216.979253 
L 310.790625 216.787738 
L 312.312443 216.787738 
L 312.312443 216.571014 
L 313.834261 216.571014 
L 313.834261 216.764302 
L 316.877898 216.733581 
L 316.877898 216.354539 
L 321.443352 216.332099 
L 321.443352 216.639164 
L 322.96517 216.639164 
L 322.96517 216.269474 
L 324.486989 216.269474 
L 324.486989 215.24755 
L 326.008807 215.24755 
L 326.008807 215.053456 
L 327.530625 215.053456 
L 327.530625 213.79451 
L 329.052443 213.79451 
L 329.052443 211.464236 
L 330.574261 211.464236 
L 330.574261 206.380041 
L 332.09608 206.380041 
L 332.09608 194.480182 
L 333.617898 194.480182 
L 333.617898 152.570511 
L 335.139716 152.570511 
L 335.139716 30.189614 
L 336.661534 30.189614 
L 336.661534 17.822109 
L 338.183352 17.822109 
L 338.183352 137.538106 
L 339.70517 137.538106 
L 339.70517 188.108943 
L 341.226989 188.108943 
L 341.226989 200.73039 
L 342.748807 200.73039 
L 342.748807 208.841994 
L 344.270625 208.841994 
L 344.270625 212.285609 
L 345.792443 212.285609 
L 345.792443 214.034155 
L 347.314261 214.034155 
L 347.314261 215.676645 
L 348.83608 215.676645 
L 348.83608 216.264155 
L 350.357898 216.264155 
L 350.357898 216.572482 
L 351.879716 216.572482 
L 351.879716 216.784233 
L 356.44517 216.81939 
L 356.44517 216.633171 
L 359.488807 216.566233 
L 359.488807 215.9964 
L 364.054261 216.079723 
L 364.054261 216.694613 
L 365.57608 216.694613 
L 365.57608 217.072856 
L 367.097898 217.072856 
L 367.097898 216.853004 
L 368.619716 216.853004 
L 368.619716 217.176723 
L 370.141534 217.176723 
L 370.141534 216.93555 
L 371.663352 216.93555 
L 371.663352 217.156483 
L 379.272443 217.157896 
L 379.272443 217.157896 
" clip-path="url(#p2da3701b18)" style="fill: none; stroke: #1f77b4; stroke-width: 1.5; stroke-linecap: square"/>
   </g>
   <g id="LineCollection_1">
    <path d="M 75.669716 217.783529 
L 75.669716 217.64986 
" clip-path="url(#p2da3701b18)" style="fill: none; stroke: #1f77b4; stroke-width: 1.5"/>
    <path d="M 77.191534 218.25412 
L 77.191534 218.049221 
" clip-path="url(#p2da3701b18)" style="fill: none; stroke: #1f77b4; stroke-width: 1.5"/>
    <path d="M 78.713352 218.259955 
L 78.713352 218.048678 
" clip-path="url(#p2da3701b18)" style="fill: none; stroke: #1f77b4; stroke-width: 1.5"/>
    <path d="M 80.23517 218.302258 
L 80.23517 218.084757 
" clip-path="url(#p2da3701b18)" style="fill: none; stroke: #1f77b4; stroke-width: 1.5"/>
    <path d="M 81.756989 218.552018 
L 81.756989 218.319572 
" clip-path="url(#p2da3701b18)" style="fill: none; stroke: #1f77b4; stroke-width: 1.5"/>
    <path d="M 83.278807 218.36205 
L 83.278807 218.163092 
" clip-path="url(#p2da3701b18)" style="fill: none; stroke: #1f77b4; stroke-width: 1.5"/>
    <path d="M 84.800625 218.221954 
L 84.800625 218.007797 
" clip-path="url(#p2da3701b18)" style="fill: none; stroke: #1f77b4; stroke-width: 1.5"/>
    <path d="M 86.322443 218.399202 
L 86.322443 218.14719 
" clip-path="url(#p2da3701b18)" style="fill: none; stroke: #1f77b4; stroke-width: 1.5"/>
    <path d="M 87.844261 218.289104 
L 87.844261 218.028717 
" clip-path="url(#p2da3701b18)" style="fill: none; stroke: #1f77b4; stroke-width: 1.5"/>
    <path d="M 89.36608 218.49294 
L 89.36608 218.222691 
" clip-path="url(#p2da3701b18)" style="fill: none; stroke: #1f77b4; stroke-width: 1.5"/>
    <path d="M 90.887898 218.436741 
L 90.887898 218.150489 
" clip-path="url(#p2da3701b18)" style="fill: none; stroke: #1f77b4; stroke-width: 1.5"/>
    <path d="M 92.409716 218.40645 
L 92.409716 218.142029 
" clip-path="url(#p2da3701b18)" style="fill: none; stroke: #1f77b4; stroke-width: 1.5"/>
    <path d="M 93.931534 218.082574 
L 93.931534 217.804436 
" clip-path="url(#p2da3701b18)" style="fill: none; stroke: #1f77b4; stroke-width: 1.5"/>
    <path d="M 95.453352 217.978975 
L 95.453352 217.695518 
" clip-path="url(#p2da3701b18)" style="fill: none; stroke: #1f77b4; stroke-width: 1.5"/>
    <path d="M 96.97517 217.953629 
L 96.97517 217.681455 
" clip-path="url(#p2da3701b18)" style="fill: none; stroke: #1f77b4; stroke-width: 1.5"/>
    <path d="M 98.496989 217.755796 
L 98.496989 217.448898 
" clip-path="url(#p2da3701b18)" style="fill: none; stroke: #1f77b4; stroke-width: 1.5"/>
    <path d="M 100.018807 217.89454 
L 100.018807 217.586649 
" clip-path="url(#p2da3701b18)" style="fill: none; stroke: #1f77b4; stroke-width: 1.5"/>
    <path d="M 101.540625 217.818085 
L 101.540625 217.534329 
" clip-path="url(#p2da3701b18)" style="fill: none; stroke: #1f77b4; stroke-width: 1.5"/>
    <path d="M 103.062443 217.716111 
L 103.062443 217.432812 
" clip-path="url(#p2da3701b18)" style="fill: none; stroke: #1f77b4; stroke-width: 1.5"/>
    <path d="M 104.584261 217.374275 
L 104.584261 217.090134 
" clip-path="url(#p2da3701b18)" style="fill: none; stroke: #1f77b4; stroke-width: 1.5"/>
    <path d="M 106.10608 211.952653 
L 106.10608 211.502336 
" clip-path="url(#p2da3701b18)" style="fill: none; stroke: #1f77b4; stroke-width: 1.5"/>
    <path d="M 107.627898 210.599929 
L 107.627898 210.115631 
" clip-path="url(#p2da3701b18)" style="fill: none; stroke: #1f77b4; stroke-width: 1.5"/>
    <path d="M 109.149716 210.990199 
L 109.149716 210.52265 
" clip-path="url(#p2da3701b18)" style="fill: none; stroke: #1f77b4; stroke-width: 1.5"/>
    <path d="M 110.671534 202.760017 
L 110.671534 202.143296 
" clip-path="url(#p2da3701b18)" style="fill: none; stroke: #1f77b4; stroke-width: 1.5"/>
    <path d="M 112.193352 207.818813 
L 112.193352 207.302516 
" clip-path="url(#p2da3701b18)" style="fill: none; stroke: #1f77b4; stroke-width: 1.5"/>
    <path d="M 113.71517 216.18269 
L 113.71517 215.838824 
" clip-path="url(#p2da3701b18)" style="fill: none; stroke: #1f77b4; stroke-width: 1.5"/>
    <path d="M 115.236989 217.289637 
L 115.236989 217.013777 
" clip-path="url(#p2da3701b18)" style="fill: none; stroke: #1f77b4; stroke-width: 1.5"/>
    <path d="M 116.758807 217.160767 
L 116.758807 216.871195 
" clip-path="url(#p2da3701b18)" style="fill: none; stroke: #1f77b4; stroke-width: 1.5"/>
    <path d="M 118.280625 214.568222 
L 118.280625 214.230334 
" clip-path="url(#p2da3701b18)" style="fill: none; stroke: #1f77b4; stroke-width: 1.5"/>
    <path d="M 119.802443 206.147166 
L 119.802443 205.565724 
" clip-path="url(#p2da3701b18)" style="fill: none; stroke: #1f77b4; stroke-width: 1.5"/>
    <path d="M 121.324261 209.48538 
L 121.324261 208.997278 
" clip-path="url(#p2da3701b18)" style="fill: none; stroke: #1f77b4; stroke-width: 1.5"/>
    <path d="M 122.84608 209.851191 
L 122.84608 209.391169 
" clip-path="url(#p2da3701b18)" style="fill: none; stroke: #1f77b4; stroke-width: 1.5"/>
    <path d="M 124.367898 202.789239 
L 124.367898 202.184494 
" clip-path="url(#p2da3701b18)" style="fill: none; stroke: #1f77b4; stroke-width: 1.5"/>
    <path d="M 125.889716 210.443186 
L 125.889716 209.957861 
" clip-path="url(#p2da3701b18)" style="fill: none; stroke: #1f77b4; stroke-width: 1.5"/>
    <path d="M 127.411534 216.393189 
L 127.411534 216.036798 
" clip-path="url(#p2da3701b18)" style="fill: none; stroke: #1f77b4; stroke-width: 1.5"/>
    <path d="M 128.933352 216.671649 
L 128.933352 216.394829 
" clip-path="url(#p2da3701b18)" style="fill: none; stroke: #1f77b4; stroke-width: 1.5"/>
    <path d="M 130.45517 211.219944 
L 130.45517 210.79526 
" clip-path="url(#p2da3701b18)" style="fill: none; stroke: #1f77b4; stroke-width: 1.5"/>
    <path d="M 131.976989 189.757735 
L 131.976989 188.991563 
" clip-path="url(#p2da3701b18)" style="fill: none; stroke: #1f77b4; stroke-width: 1.5"/>
    <path d="M 133.498807 193.52059 
L 133.498807 192.863893 
" clip-path="url(#p2da3701b18)" style="fill: none; stroke: #1f77b4; stroke-width: 1.5"/>
    <path d="M 135.020625 211.979064 
L 135.020625 211.56105 
" clip-path="url(#p2da3701b18)" style="fill: none; stroke: #1f77b4; stroke-width: 1.5"/>
    <path d="M 136.542443 215.845188 
L 136.542443 215.512669 
" clip-path="url(#p2da3701b18)" style="fill: none; stroke: #1f77b4; stroke-width: 1.5"/>
    <path d="M 138.064261 216.790395 
L 138.064261 216.487614 
" clip-path="url(#p2da3701b18)" style="fill: none; stroke: #1f77b4; stroke-width: 1.5"/>
    <path d="M 139.58608 216.016115 
L 139.58608 215.705317 
" clip-path="url(#p2da3701b18)" style="fill: none; stroke: #1f77b4; stroke-width: 1.5"/>
    <path d="M 141.107898 216.486284 
L 141.107898 216.191797 
" clip-path="url(#p2da3701b18)" style="fill: none; stroke: #1f77b4; stroke-width: 1.5"/>
    <path d="M 142.629716 216.429015 
L 142.629716 216.122584 
" clip-path="url(#p2da3701b18)" style="fill: none; stroke: #1f77b4; stroke-width: 1.5"/>
    <path d="M 144.151534 216.103064 
L 144.151534 215.816507 
" clip-path="url(#p2da3701b18)" style="fill: none; stroke: #1f77b4; stroke-width: 1.5"/>
    <path d="M 145.673352 216.38741 
L 145.673352 216.101483 
" clip-path="url(#p2da3701b18)" style="fill: none; stroke: #1f77b4; stroke-width: 1.5"/>
    <path d="M 147.19517 216.45337 
L 147.19517 216.149303 
" clip-path="url(#p2da3701b18)" style="fill: none; stroke: #1f77b4; stroke-width: 1.5"/>
    <path d="M 148.716989 216.121607 
L 148.716989 215.819299 
" clip-path="url(#p2da3701b18)" style="fill: none; stroke: #1f77b4; stroke-width: 1.5"/>
    <path d="M 150.238807 208.72212 
L 150.238807 208.262261 
" clip-path="url(#p2da3701b18)" style="fill: none; stroke: #1f77b4; stroke-width: 1.5"/>
    <path d="M 151.760625 192.933319 
L 151.760625 192.315703 
" clip-path="url(#p2da3701b18)" style="fill: none; stroke: #1f77b4; stroke-width: 1.5"/>
    <path d="M 153.282443 197.692442 
L 153.282443 197.117145 
" clip-path="url(#p2da3701b18)" style="fill: none; stroke: #1f77b4; stroke-width: 1.5"/>
    <path d="M 154.804261 213.09464 
L 154.804261 212.712585 
" clip-path="url(#p2da3701b18)" style="fill: none; stroke: #1f77b4; stroke-width: 1.5"/>
    <path d="M 156.32608 215.997726 
L 156.32608 215.703586 
" clip-path="url(#p2da3701b18)" style="fill: none; stroke: #1f77b4; stroke-width: 1.5"/>
    <path d="M 157.847898 216.380574 
L 157.847898 216.120104 
" clip-path="url(#p2da3701b18)" style="fill: none; stroke: #1f77b4; stroke-width: 1.5"/>
    <path d="M 159.369716 216.345133 
L 159.369716 216.042314 
" clip-path="url(#p2da3701b18)" style="fill: none; stroke: #1f77b4; stroke-width: 1.5"/>
    <path d="M 160.891534 211.045635 
L 160.891534 210.671043 
" clip-path="url(#p2da3701b18)" style="fill: none; stroke: #1f77b4; stroke-width: 1.5"/>
    <path d="M 162.413352 189.561789 
L 162.413352 188.990312 
" clip-path="url(#p2da3701b18)" style="fill: none; stroke: #1f77b4; stroke-width: 1.5"/>
    <path d="M 163.93517 189.08574 
L 163.93517 188.441013 
" clip-path="url(#p2da3701b18)" style="fill: none; stroke: #1f77b4; stroke-width: 1.5"/>
    <path d="M 165.456989 210.48589 
L 165.456989 210.088822 
" clip-path="url(#p2da3701b18)" style="fill: none; stroke: #1f77b4; stroke-width: 1.5"/>
    <path d="M 166.978807 215.440279 
L 166.978807 215.143298 
" clip-path="url(#p2da3701b18)" style="fill: none; stroke: #1f77b4; stroke-width: 1.5"/>
    <path d="M 168.500625 216.256694 
L 168.500625 215.956457 
" clip-path="url(#p2da3701b18)" style="fill: none; stroke: #1f77b4; stroke-width: 1.5"/>
    <path d="M 170.022443 216.386778 
L 170.022443 216.077393 
" clip-path="url(#p2da3701b18)" style="fill: none; stroke: #1f77b4; stroke-width: 1.5"/>
    <path d="M 171.544261 216.484962 
L 171.544261 216.188279 
" clip-path="url(#p2da3701b18)" style="fill: none; stroke: #1f77b4; stroke-width: 1.5"/>
    <path d="M 173.06608 216.888907 
L 173.06608 216.621806 
" clip-path="url(#p2da3701b18)" style="fill: none; stroke: #1f77b4; stroke-width: 1.5"/>
    <path d="M 174.587898 216.998002 
L 174.587898 216.710633 
" clip-path="url(#p2da3701b18)" style="fill: none; stroke: #1f77b4; stroke-width: 1.5"/>
    <path d="M 176.109716 216.663185 
L 176.109716 216.41035 
" clip-path="url(#p2da3701b18)" style="fill: none; stroke: #1f77b4; stroke-width: 1.5"/>
    <path d="M 177.631534 216.669795 
L 177.631534 216.414794 
" clip-path="url(#p2da3701b18)" style="fill: none; stroke: #1f77b4; stroke-width: 1.5"/>
    <path d="M 179.153352 216.673689 
L 179.153352 216.394305 
" clip-path="url(#p2da3701b18)" style="fill: none; stroke: #1f77b4; stroke-width: 1.5"/>
    <path d="M 180.67517 213.699493 
L 180.67517 213.368063 
" clip-path="url(#p2da3701b18)" style="fill: none; stroke: #1f77b4; stroke-width: 1.5"/>
    <path d="M 182.196989 191.100034 
L 182.196989 190.440507 
" clip-path="url(#p2da3701b18)" style="fill: none; stroke: #1f77b4; stroke-width: 1.5"/>
    <path d="M 183.718807 168.295856 
L 183.718807 167.437223 
" clip-path="url(#p2da3701b18)" style="fill: none; stroke: #1f77b4; stroke-width: 1.5"/>
    <path d="M 185.240625 194.074872 
L 185.240625 193.512322 
" clip-path="url(#p2da3701b18)" style="fill: none; stroke: #1f77b4; stroke-width: 1.5"/>
    <path d="M 186.762443 211.863292 
L 186.762443 211.422415 
" clip-path="url(#p2da3701b18)" style="fill: none; stroke: #1f77b4; stroke-width: 1.5"/>
    <path d="M 188.284261 205.121258 
L 188.284261 204.648319 
" clip-path="url(#p2da3701b18)" style="fill: none; stroke: #1f77b4; stroke-width: 1.5"/>
    <path d="M 189.80608 173.276215 
L 189.80608 172.542128 
" clip-path="url(#p2da3701b18)" style="fill: none; stroke: #1f77b4; stroke-width: 1.5"/>
    <path d="M 191.327898 174.269779 
L 191.327898 173.556982 
" clip-path="url(#p2da3701b18)" style="fill: none; stroke: #1f77b4; stroke-width: 1.5"/>
    <path d="M 192.849716 208.758112 
L 192.849716 208.322004 
" clip-path="url(#p2da3701b18)" style="fill: none; stroke: #1f77b4; stroke-width: 1.5"/>
    <path d="M 194.371534 215.0482 
L 194.371534 214.673386 
" clip-path="url(#p2da3701b18)" style="fill: none; stroke: #1f77b4; stroke-width: 1.5"/>
    <path d="M 195.893352 214.32778 
L 195.893352 213.941128 
" clip-path="url(#p2da3701b18)" style="fill: none; stroke: #1f77b4; stroke-width: 1.5"/>
    <path d="M 197.41517 215.542857 
L 197.41517 215.227169 
" clip-path="url(#p2da3701b18)" style="fill: none; stroke: #1f77b4; stroke-width: 1.5"/>
    <path d="M 198.936989 217.89873 
L 198.936989 217.676962 
" clip-path="url(#p2da3701b18)" style="fill: none; stroke: #1f77b4; stroke-width: 1.5"/>
    <path d="M 200.458807 218.072768 
L 200.458807 217.86249 
" clip-path="url(#p2da3701b18)" style="fill: none; stroke: #1f77b4; stroke-width: 1.5"/>
    <path d="M 201.980625 214.780123 
L 201.980625 214.475742 
" clip-path="url(#p2da3701b18)" style="fill: none; stroke: #1f77b4; stroke-width: 1.5"/>
    <path d="M 203.502443 211.54364 
L 203.502443 211.220973 
" clip-path="url(#p2da3701b18)" style="fill: none; stroke: #1f77b4; stroke-width: 1.5"/>
    <path d="M 205.024261 217.701705 
L 205.024261 217.471797 
" clip-path="url(#p2da3701b18)" style="fill: none; stroke: #1f77b4; stroke-width: 1.5"/>
    <path d="M 206.54608 218.254788 
L 206.54608 218.027089 
" clip-path="url(#p2da3701b18)" style="fill: none; stroke: #1f77b4; stroke-width: 1.5"/>
    <path d="M 208.067898 218.436312 
L 208.067898 218.214511 
" clip-path="url(#p2da3701b18)" style="fill: none; stroke: #1f77b4; stroke-width: 1.5"/>
    <path d="M 209.589716 218.464715 
L 209.589716 218.240797 
" clip-path="url(#p2da3701b18)" style="fill: none; stroke: #1f77b4; stroke-width: 1.5"/>
    <path d="M 211.111534 218.88 
L 211.111534 218.630156 
" clip-path="url(#p2da3701b18)" style="fill: none; stroke: #1f77b4; stroke-width: 1.5"/>
    <path d="M 212.633352 218.565532 
L 212.633352 218.327111 
" clip-path="url(#p2da3701b18)" style="fill: none; stroke: #1f77b4; stroke-width: 1.5"/>
    <path d="M 214.15517 218.783762 
L 214.15517 218.560793 
" clip-path="url(#p2da3701b18)" style="fill: none; stroke: #1f77b4; stroke-width: 1.5"/>
    <path d="M 215.676989 218.6497 
L 215.676989 218.419553 
" clip-path="url(#p2da3701b18)" style="fill: none; stroke: #1f77b4; stroke-width: 1.5"/>
    <path d="M 217.198807 218.461482 
L 217.198807 218.229488 
" clip-path="url(#p2da3701b18)" style="fill: none; stroke: #1f77b4; stroke-width: 1.5"/>
    <path d="M 218.720625 218.6492 
L 218.720625 218.406068 
" clip-path="url(#p2da3701b18)" style="fill: none; stroke: #1f77b4; stroke-width: 1.5"/>
    <path d="M 220.242443 218.421014 
L 220.242443 218.202929 
" clip-path="url(#p2da3701b18)" style="fill: none; stroke: #1f77b4; stroke-width: 1.5"/>
    <path d="M 221.764261 218.366397 
L 221.764261 218.144481 
" clip-path="url(#p2da3701b18)" style="fill: none; stroke: #1f77b4; stroke-width: 1.5"/>
    <path d="M 223.28608 218.057027 
L 223.28608 217.827674 
" clip-path="url(#p2da3701b18)" style="fill: none; stroke: #1f77b4; stroke-width: 1.5"/>
    <path d="M 224.807898 217.809213 
L 224.807898 217.598231 
" clip-path="url(#p2da3701b18)" style="fill: none; stroke: #1f77b4; stroke-width: 1.5"/>
    <path d="M 226.329716 217.454787 
L 226.329716 217.239215 
" clip-path="url(#p2da3701b18)" style="fill: none; stroke: #1f77b4; stroke-width: 1.5"/>
    <path d="M 227.851534 217.353366 
L 227.851534 217.091395 
" clip-path="url(#p2da3701b18)" style="fill: none; stroke: #1f77b4; stroke-width: 1.5"/>
    <path d="M 229.373352 217.000495 
L 229.373352 216.759627 
" clip-path="url(#p2da3701b18)" style="fill: none; stroke: #1f77b4; stroke-width: 1.5"/>
    <path d="M 230.89517 216.877128 
L 230.89517 216.609525 
" clip-path="url(#p2da3701b18)" style="fill: none; stroke: #1f77b4; stroke-width: 1.5"/>
    <path d="M 232.416989 216.470185 
L 232.416989 216.230405 
" clip-path="url(#p2da3701b18)" style="fill: none; stroke: #1f77b4; stroke-width: 1.5"/>
    <path d="M 233.938807 216.229237 
L 233.938807 215.981214 
" clip-path="url(#p2da3701b18)" style="fill: none; stroke: #1f77b4; stroke-width: 1.5"/>
    <path d="M 235.460625 216.13467 
L 235.460625 215.878788 
" clip-path="url(#p2da3701b18)" style="fill: none; stroke: #1f77b4; stroke-width: 1.5"/>
    <path d="M 236.982443 215.922517 
L 236.982443 215.635161 
" clip-path="url(#p2da3701b18)" style="fill: none; stroke: #1f77b4; stroke-width: 1.5"/>
    <path d="M 238.504261 215.737992 
L 238.504261 215.488731 
" clip-path="url(#p2da3701b18)" style="fill: none; stroke: #1f77b4; stroke-width: 1.5"/>
    <path d="M 240.02608 215.340045 
L 240.02608 215.077175 
" clip-path="url(#p2da3701b18)" style="fill: none; stroke: #1f77b4; stroke-width: 1.5"/>
    <path d="M 241.547898 215.207025 
L 241.547898 214.900959 
" clip-path="url(#p2da3701b18)" style="fill: none; stroke: #1f77b4; stroke-width: 1.5"/>
    <path d="M 243.069716 214.818068 
L 243.069716 214.509249 
" clip-path="url(#p2da3701b18)" style="fill: none; stroke: #1f77b4; stroke-width: 1.5"/>
    <path d="M 244.591534 214.390061 
L 244.591534 214.024327 
" clip-path="url(#p2da3701b18)" style="fill: none; stroke: #1f77b4; stroke-width: 1.5"/>
    <path d="M 246.113352 214.064587 
L 246.113352 213.683432 
" clip-path="url(#p2da3701b18)" style="fill: none; stroke: #1f77b4; stroke-width: 1.5"/>
    <path d="M 247.63517 214.963267 
L 247.63517 214.66272 
" clip-path="url(#p2da3701b18)" style="fill: none; stroke: #1f77b4; stroke-width: 1.5"/>
    <path d="M 249.156989 214.057505 
L 249.156989 213.689325 
" clip-path="url(#p2da3701b18)" style="fill: none; stroke: #1f77b4; stroke-width: 1.5"/>
    <path d="M 250.678807 214.670232 
L 250.678807 214.345692 
" clip-path="url(#p2da3701b18)" style="fill: none; stroke: #1f77b4; stroke-width: 1.5"/>
    <path d="M 252.200625 215.086842 
L 252.200625 214.819681 
" clip-path="url(#p2da3701b18)" style="fill: none; stroke: #1f77b4; stroke-width: 1.5"/>
    <path d="M 253.722443 215.350144 
L 253.722443 215.088844 
" clip-path="url(#p2da3701b18)" style="fill: none; stroke: #1f77b4; stroke-width: 1.5"/>
    <path d="M 255.244261 215.910595 
L 255.244261 215.674549 
" clip-path="url(#p2da3701b18)" style="fill: none; stroke: #1f77b4; stroke-width: 1.5"/>
    <path d="M 256.76608 216.136448 
L 256.76608 215.897916 
" clip-path="url(#p2da3701b18)" style="fill: none; stroke: #1f77b4; stroke-width: 1.5"/>
    <path d="M 258.287898 216.013401 
L 258.287898 215.764781 
" clip-path="url(#p2da3701b18)" style="fill: none; stroke: #1f77b4; stroke-width: 1.5"/>
    <path d="M 259.809716 215.95482 
L 259.809716 215.720492 
" clip-path="url(#p2da3701b18)" style="fill: none; stroke: #1f77b4; stroke-width: 1.5"/>
    <path d="M 261.331534 215.823348 
L 261.331534 215.518085 
" clip-path="url(#p2da3701b18)" style="fill: none; stroke: #1f77b4; stroke-width: 1.5"/>
    <path d="M 262.853352 216.330583 
L 262.853352 216.070564 
" clip-path="url(#p2da3701b18)" style="fill: none; stroke: #1f77b4; stroke-width: 1.5"/>
    <path d="M 264.37517 216.19868 
L 264.37517 215.924956 
" clip-path="url(#p2da3701b18)" style="fill: none; stroke: #1f77b4; stroke-width: 1.5"/>
    <path d="M 265.896989 216.442093 
L 265.896989 216.232835 
" clip-path="url(#p2da3701b18)" style="fill: none; stroke: #1f77b4; stroke-width: 1.5"/>
    <path d="M 267.418807 216.642139 
L 267.418807 216.42122 
" clip-path="url(#p2da3701b18)" style="fill: none; stroke: #1f77b4; stroke-width: 1.5"/>
    <path d="M 268.940625 216.763465 
L 268.940625 216.509891 
" clip-path="url(#p2da3701b18)" style="fill: none; stroke: #1f77b4; stroke-width: 1.5"/>
    <path d="M 270.462443 216.6982 
L 270.462443 216.456925 
" clip-path="url(#p2da3701b18)" style="fill: none; stroke: #1f77b4; stroke-width: 1.5"/>
    <path d="M 271.984261 216.642899 
L 271.984261 216.41269 
" clip-path="url(#p2da3701b18)" style="fill: none; stroke: #1f77b4; stroke-width: 1.5"/>
    <path d="M 273.50608 216.638476 
L 273.50608 216.422814 
" clip-path="url(#p2da3701b18)" style="fill: none; stroke: #1f77b4; stroke-width: 1.5"/>
    <path d="M 275.027898 216.758361 
L 275.027898 216.533773 
" clip-path="url(#p2da3701b18)" style="fill: none; stroke: #1f77b4; stroke-width: 1.5"/>
    <path d="M 276.549716 216.977133 
L 276.549716 216.763104 
" clip-path="url(#p2da3701b18)" style="fill: none; stroke: #1f77b4; stroke-width: 1.5"/>
    <path d="M 278.071534 216.92503 
L 278.071534 216.686782 
" clip-path="url(#p2da3701b18)" style="fill: none; stroke: #1f77b4; stroke-width: 1.5"/>
    <path d="M 279.593352 216.940082 
L 279.593352 216.705387 
" clip-path="url(#p2da3701b18)" style="fill: none; stroke: #1f77b4; stroke-width: 1.5"/>
    <path d="M 281.11517 216.778519 
L 281.11517 216.522967 
" clip-path="url(#p2da3701b18)" style="fill: none; stroke: #1f77b4; stroke-width: 1.5"/>
    <path d="M 282.636989 216.724242 
L 282.636989 216.482708 
" clip-path="url(#p2da3701b18)" style="fill: none; stroke: #1f77b4; stroke-width: 1.5"/>
    <path d="M 284.158807 216.807818 
L 284.158807 216.558941 
" clip-path="url(#p2da3701b18)" style="fill: none; stroke: #1f77b4; stroke-width: 1.5"/>
    <path d="M 285.680625 216.658847 
L 285.680625 216.424687 
" clip-path="url(#p2da3701b18)" style="fill: none; stroke: #1f77b4; stroke-width: 1.5"/>
    <path d="M 287.202443 216.927253 
L 287.202443 216.697777 
" clip-path="url(#p2da3701b18)" style="fill: none; stroke: #1f77b4; stroke-width: 1.5"/>
    <path d="M 288.724261 216.930614 
L 288.724261 216.702735 
" clip-path="url(#p2da3701b18)" style="fill: none; stroke: #1f77b4; stroke-width: 1.5"/>
    <path d="M 290.24608 216.967896 
L 290.24608 216.721494 
" clip-path="url(#p2da3701b18)" style="fill: none; stroke: #1f77b4; stroke-width: 1.5"/>
    <path d="M 291.767898 216.929242 
L 291.767898 216.705067 
" clip-path="url(#p2da3701b18)" style="fill: none; stroke: #1f77b4; stroke-width: 1.5"/>
    <path d="M 293.289716 216.726646 
L 293.289716 216.468758 
" clip-path="url(#p2da3701b18)" style="fill: none; stroke: #1f77b4; stroke-width: 1.5"/>
    <path d="M 294.811534 216.974894 
L 294.811534 216.750429 
" clip-path="url(#p2da3701b18)" style="fill: none; stroke: #1f77b4; stroke-width: 1.5"/>
    <path d="M 296.333352 216.982241 
L 296.333352 216.725945 
" clip-path="url(#p2da3701b18)" style="fill: none; stroke: #1f77b4; stroke-width: 1.5"/>
    <path d="M 297.85517 217.132765 
L 297.85517 216.917269 
" clip-path="url(#p2da3701b18)" style="fill: none; stroke: #1f77b4; stroke-width: 1.5"/>
    <path d="M 299.376989 217.368423 
L 299.376989 217.116297 
" clip-path="url(#p2da3701b18)" style="fill: none; stroke: #1f77b4; stroke-width: 1.5"/>
    <path d="M 300.898807 217.316916 
L 300.898807 217.071673 
" clip-path="url(#p2da3701b18)" style="fill: none; stroke: #1f77b4; stroke-width: 1.5"/>
    <path d="M 302.420625 217.079872 
L 302.420625 216.870193 
" clip-path="url(#p2da3701b18)" style="fill: none; stroke: #1f77b4; stroke-width: 1.5"/>
    <path d="M 303.942443 217.014078 
L 303.942443 216.754985 
" clip-path="url(#p2da3701b18)" style="fill: none; stroke: #1f77b4; stroke-width: 1.5"/>
    <path d="M 305.464261 216.960894 
L 305.464261 216.748453 
" clip-path="url(#p2da3701b18)" style="fill: none; stroke: #1f77b4; stroke-width: 1.5"/>
    <path d="M 306.98608 216.957623 
L 306.98608 216.736563 
" clip-path="url(#p2da3701b18)" style="fill: none; stroke: #1f77b4; stroke-width: 1.5"/>
    <path d="M 308.507898 216.717725 
L 308.507898 216.487722 
" clip-path="url(#p2da3701b18)" style="fill: none; stroke: #1f77b4; stroke-width: 1.5"/>
    <path d="M 310.029716 217.099939 
L 310.029716 216.858567 
" clip-path="url(#p2da3701b18)" style="fill: none; stroke: #1f77b4; stroke-width: 1.5"/>
    <path d="M 311.551534 216.898504 
L 311.551534 216.676972 
" clip-path="url(#p2da3701b18)" style="fill: none; stroke: #1f77b4; stroke-width: 1.5"/>
    <path d="M 313.073352 216.698235 
L 313.073352 216.443793 
" clip-path="url(#p2da3701b18)" style="fill: none; stroke: #1f77b4; stroke-width: 1.5"/>
    <path d="M 314.59517 216.891067 
L 314.59517 216.637537 
" clip-path="url(#p2da3701b18)" style="fill: none; stroke: #1f77b4; stroke-width: 1.5"/>
    <path d="M 316.116989 216.85939 
L 316.116989 216.607771 
" clip-path="url(#p2da3701b18)" style="fill: none; stroke: #1f77b4; stroke-width: 1.5"/>
    <path d="M 317.638807 216.470521 
L 317.638807 216.238557 
" clip-path="url(#p2da3701b18)" style="fill: none; stroke: #1f77b4; stroke-width: 1.5"/>
    <path d="M 319.160625 216.502319 
L 319.160625 216.241192 
" clip-path="url(#p2da3701b18)" style="fill: none; stroke: #1f77b4; stroke-width: 1.5"/>
    <path d="M 320.682443 216.443402 
L 320.682443 216.220796 
" clip-path="url(#p2da3701b18)" style="fill: none; stroke: #1f77b4; stroke-width: 1.5"/>
    <path d="M 322.204261 216.757385 
L 322.204261 216.520944 
" clip-path="url(#p2da3701b18)" style="fill: none; stroke: #1f77b4; stroke-width: 1.5"/>
    <path d="M 323.72608 216.401051 
L 323.72608 216.137896 
" clip-path="url(#p2da3701b18)" style="fill: none; stroke: #1f77b4; stroke-width: 1.5"/>
    <path d="M 325.247898 215.403776 
L 325.247898 215.091324 
" clip-path="url(#p2da3701b18)" style="fill: none; stroke: #1f77b4; stroke-width: 1.5"/>
    <path d="M 326.769716 215.20516 
L 326.769716 214.901753 
" clip-path="url(#p2da3701b18)" style="fill: none; stroke: #1f77b4; stroke-width: 1.5"/>
    <path d="M 328.291534 213.972069 
L 328.291534 213.61695 
" clip-path="url(#p2da3701b18)" style="fill: none; stroke: #1f77b4; stroke-width: 1.5"/>
    <path d="M 329.813352 211.669002 
L 329.813352 211.25947 
" clip-path="url(#p2da3701b18)" style="fill: none; stroke: #1f77b4; stroke-width: 1.5"/>
    <path d="M 331.33517 206.624122 
L 331.33517 206.135961 
" clip-path="url(#p2da3701b18)" style="fill: none; stroke: #1f77b4; stroke-width: 1.5"/>
    <path d="M 332.856989 194.816533 
L 332.856989 194.143831 
" clip-path="url(#p2da3701b18)" style="fill: none; stroke: #1f77b4; stroke-width: 1.5"/>
    <path d="M 334.378807 153.014541 
L 334.378807 152.126481 
" clip-path="url(#p2da3701b18)" style="fill: none; stroke: #1f77b4; stroke-width: 1.5"/>
    <path d="M 335.900625 30.732393 
L 335.900625 29.646836 
" clip-path="url(#p2da3701b18)" style="fill: none; stroke: #1f77b4; stroke-width: 1.5"/>
    <path d="M 337.422443 18.364218 
L 337.422443 17.28 
" clip-path="url(#p2da3701b18)" style="fill: none; stroke: #1f77b4; stroke-width: 1.5"/>
    <path d="M 338.944261 137.957838 
L 338.944261 137.118375 
" clip-path="url(#p2da3701b18)" style="fill: none; stroke: #1f77b4; stroke-width: 1.5"/>
    <path d="M 340.46608 188.453545 
L 340.46608 187.764342 
" clip-path="url(#p2da3701b18)" style="fill: none; stroke: #1f77b4; stroke-width: 1.5"/>
    <path d="M 341.987898 201.059651 
L 341.987898 200.401129 
" clip-path="url(#p2da3701b18)" style="fill: none; stroke: #1f77b4; stroke-width: 1.5"/>
    <path d="M 343.509716 209.093927 
L 343.509716 208.59006 
" clip-path="url(#p2da3701b18)" style="fill: none; stroke: #1f77b4; stroke-width: 1.5"/>
    <path d="M 345.031534 212.496456 
L 345.031534 212.074763 
" clip-path="url(#p2da3701b18)" style="fill: none; stroke: #1f77b4; stroke-width: 1.5"/>
    <path d="M 346.553352 214.222992 
L 346.553352 213.845317 
" clip-path="url(#p2da3701b18)" style="fill: none; stroke: #1f77b4; stroke-width: 1.5"/>
    <path d="M 348.07517 215.829411 
L 348.07517 215.523879 
" clip-path="url(#p2da3701b18)" style="fill: none; stroke: #1f77b4; stroke-width: 1.5"/>
    <path d="M 349.596989 216.410591 
L 349.596989 216.11772 
" clip-path="url(#p2da3701b18)" style="fill: none; stroke: #1f77b4; stroke-width: 1.5"/>
    <path d="M 351.118807 216.692016 
L 351.118807 216.452947 
" clip-path="url(#p2da3701b18)" style="fill: none; stroke: #1f77b4; stroke-width: 1.5"/>
    <path d="M 352.640625 216.911797 
L 352.640625 216.656669 
" clip-path="url(#p2da3701b18)" style="fill: none; stroke: #1f77b4; stroke-width: 1.5"/>
    <path d="M 354.162443 216.880641 
L 354.162443 216.701517 
" clip-path="url(#p2da3701b18)" style="fill: none; stroke: #1f77b4; stroke-width: 1.5"/>
    <path d="M 355.684261 216.901552 
L 355.684261 216.737227 
" clip-path="url(#p2da3701b18)" style="fill: none; stroke: #1f77b4; stroke-width: 1.5"/>
    <path d="M 357.20608 216.743244 
L 357.20608 216.523098 
" clip-path="url(#p2da3701b18)" style="fill: none; stroke: #1f77b4; stroke-width: 1.5"/>
    <path d="M 358.727898 216.664542 
L 358.727898 216.467923 
" clip-path="url(#p2da3701b18)" style="fill: none; stroke: #1f77b4; stroke-width: 1.5"/>
    <path d="M 360.249716 216.091511 
L 360.249716 215.901288 
" clip-path="url(#p2da3701b18)" style="fill: none; stroke: #1f77b4; stroke-width: 1.5"/>
    <path d="M 361.771534 216.139361 
L 361.771534 215.95731 
" clip-path="url(#p2da3701b18)" style="fill: none; stroke: #1f77b4; stroke-width: 1.5"/>
    <path d="M 363.293352 216.189099 
L 363.293352 215.970346 
" clip-path="url(#p2da3701b18)" style="fill: none; stroke: #1f77b4; stroke-width: 1.5"/>
    <path d="M 364.81517 216.791941 
L 364.81517 216.597286 
" clip-path="url(#p2da3701b18)" style="fill: none; stroke: #1f77b4; stroke-width: 1.5"/>
    <path d="M 366.336989 217.173217 
L 366.336989 216.972495 
" clip-path="url(#p2da3701b18)" style="fill: none; stroke: #1f77b4; stroke-width: 1.5"/>
    <path d="M 367.858807 216.941322 
L 367.858807 216.764687 
" clip-path="url(#p2da3701b18)" style="fill: none; stroke: #1f77b4; stroke-width: 1.5"/>
    <path d="M 369.380625 217.266505 
L 369.380625 217.08694 
" clip-path="url(#p2da3701b18)" style="fill: none; stroke: #1f77b4; stroke-width: 1.5"/>
    <path d="M 370.902443 217.04333 
L 370.902443 216.827769 
" clip-path="url(#p2da3701b18)" style="fill: none; stroke: #1f77b4; stroke-width: 1.5"/>
    <path d="M 372.424261 217.260472 
L 372.424261 217.052494 
" clip-path="url(#p2da3701b18)" style="fill: none; stroke: #1f77b4; stroke-width: 1.5"/>
    <path d="M 373.94608 217.264933 
L 373.94608 217.106262 
" clip-path="url(#p2da3701b18)" style="fill: none; stroke: #1f77b4; stroke-width: 1.5"/>
    <path d="M 375.467898 217.213193 
L 375.467898 217.051253 
" clip-path="url(#p2da3701b18)" style="fill: none; stroke: #1f77b4; stroke-width: 1.5"/>
    <path d="M 376.989716 217.229518 
L 376.989716 217.063353 
" clip-path="url(#p2da3701b18)" style="fill: none; stroke: #1f77b4; stroke-width: 1.5"/>
    <path d="M 378.511534 217.250554 
L 378.511534 217.065238 
" clip-path="url(#p2da3701b18)" style="fill: none; stroke: #1f77b4; stroke-width: 1.5"/>
   </g>
   <g id="patch_3">
    <path d="M 59.690625 228.96 
L 59.690625 7.2 
" style="fill: none; stroke: #000000; stroke-width: 0.8; stroke-linejoin: miter; stroke-linecap: square"/>
   </g>
   <g id="patch_4">
    <path d="M 394.490625 228.96 
L 394.490625 7.2 
" style="fill: none; stroke: #000000; stroke-width: 0.8; stroke-linejoin: miter; stroke-linecap: square"/>
   </g>
   <g id="patch_5">
    <path d="M 59.690625 228.96 
L 394.490625 228.96 
" style="fill: none; stroke: #000000; stroke-width: 0.8; stroke-linejoin: miter; stroke-linecap: square"/>
   </g>
   <g id="patch_6">
    <path d="M 59.690625 7.2 
L 394.490625 7.2 
" style="fill: none; stroke: #000000; stroke-width: 0.8; stroke-linejoin: miter; stroke-linecap: square"/>
   </g>
  </g>
 </g>
 <defs>
  <clipPath id="p2da3701b18">
   <rect x="59.690625" y="7.2" width="334.8" height="221.76"/>
  </clipPath>
 </defs>
</svg>
