<?xml version="1.0" encoding="UTF-8" standalone="no"?>
<!DOCTYPE svg PUBLIC "-//W3C//DTD SVG 1.1//EN"
 "http://www.w3.org/Graphics/SVG/1.1/DTD/svg11.dtd">
<!-- Generated by graphviz version 2.43.0 (0)
 -->
<!-- Title: %3 Pages: 1 -->
<svg width="3054pt" height="381pt"
 viewBox="0.00 0.00 3054.00 380.50" xmlns="http://www.w3.org/2000/svg" xmlns:xlink="http://www.w3.org/1999/xlink">
<g id="graph0" class="graph" transform="scale(1 1) rotate(0) translate(4 376.5)">
<title>%3</title>
<polygon fill="white" stroke="transparent" points="-4,4 -4,-376.5 3050,-376.5 3050,4 -4,4"/>
<g id="clust1" class="cluster">
<title>cluster_AccumulatedProtonCharge</title>
<polygon fill="#f0f0ff" stroke="#f0f0ff" points="1846,-268.5 1846,-364.5 2085,-364.5 2085,-268.5 1846,-268.5"/>
<text text-anchor="start" x="1869" y="-350.3" font-family="Times,serif" font-size="14.00">AccumulatedProtonCharge</text>
<text text-anchor="start" x="1854" y="-338.7" font-family="Times,serif" font-size="11.00">via:</text>
<text text-anchor="start" x="1875" y="-338.7" font-family="Times,serif" font-style="italic" font-size="11.00">extract_accumulated_proton_charge</text>
</g>
<g id="clust4" class="cluster">
<title>cluster_CorrectedDetector</title>
<polygon fill="#f0f0ff" stroke="#f0f0ff" points="1429,-160.5 1429,-256.5 1579,-256.5 1579,-160.5 1429,-160.5"/>
<text text-anchor="start" x="1437" y="-242.3" font-family="Times,serif" font-size="14.00">CorrectedDetector</text>
<text text-anchor="start" x="1457.5" y="-230.7" font-family="Times,serif" font-size="11.00">via:</text>
<text text-anchor="start" x="1478.5" y="-230.7" font-family="Times,serif" font-style="italic" font-size="11.00">apply_masks</text>
</g>
<g id="clust5" class="cluster">
<title>cluster_CorrectedDspacing</title>
<polygon fill="#f0f0ff" stroke="#f0f0ff" points="1846,-160.5 1846,-256.5 2084,-256.5 2084,-160.5 1846,-160.5"/>
<text text-anchor="start" x="1896" y="-242.3" font-family="Times,serif" font-size="14.00">CorrectedDspacing</text>
<text text-anchor="start" x="1854" y="-230.7" font-family="Times,serif" font-size="11.00">via:</text>
<text text-anchor="start" x="1875" y="-230.7" font-family="Times,serif" font-style="italic" font-size="11.00">focus_data_dspacing_and_two_theta</text>
</g>
<g id="clust8" class="cluster">
<title>cluster_DspacingDetector</title>
<polygon fill="#f0f0ff" stroke="#f0f0ff" points="1637,-160.5 1637,-256.5 1788,-256.5 1788,-160.5 1637,-160.5"/>
<text text-anchor="start" x="1648" y="-242.3" font-family="Times,serif" font-size="14.00">DspacingDetector</text>
<text text-anchor="start" x="1645" y="-230.7" font-family="Times,serif" font-size="11.00">via:</text>
<text text-anchor="start" x="1666" y="-230.7" font-family="Times,serif" font-style="italic" font-size="11.00">convert_to_dspacing</text>
</g>
<g id="clust9" class="cluster">
<title>cluster_ElasticCoordTransformGraph</title>
<polygon fill="#f0f0ff" stroke="#f0f0ff" points="742,-81.5 742,-177.5 1014,-177.5 1014,-81.5 742,-81.5"/>
<text text-anchor="start" x="772.5" y="-163.3" font-family="Times,serif" font-size="14.00">ElasticCoordTransformGraph</text>
<text text-anchor="start" x="750" y="-151.7" font-family="Times,serif" font-size="11.00">via:</text>
<text text-anchor="start" x="771" y="-151.7" font-family="Times,serif" font-style="italic" font-size="11.00">powder_coordinate_transformation_graph</text>
</g>
<g id="clust10" class="cluster">
<title>cluster_Filename</title>
<polygon fill="#f0f0ff" stroke="#f0f0ff" points="8,-108.5 8,-194.5 134,-194.5 134,-108.5 8,-108.5"/>
<text text-anchor="middle" x="71" y="-179.3" font-family="Times,serif" font-size="14.00">Filename</text>
</g>
<g id="clust11" class="cluster">
<title>cluster_FocussedDataDspacingTwoTheta</title>
<polygon fill="#f0f0ff" stroke="#f0f0ff" points="2410,-214.5 2410,-310.5 2662,-310.5 2662,-214.5 2410,-214.5"/>
<text text-anchor="start" x="2418" y="-296.3" font-family="Times,serif" font-size="14.00">FocussedDataDspacingTwoTheta</text>
<text text-anchor="start" x="2478.5" y="-284.7" font-family="Times,serif" font-size="11.00">via:</text>
<text text-anchor="start" x="2499.5" y="-284.7" font-family="Times,serif" font-style="italic" font-size="11.00">group_two_theta</text>
</g>
<g id="clust14" class="cluster">
<title>cluster_KeepEvents</title>
<polygon fill="#f0f0ff" stroke="#f0f0ff" points="1649,-34.5 1649,-120.5 1775,-120.5 1775,-34.5 1649,-34.5"/>
<text text-anchor="middle" x="1712" y="-105.3" font-family="Times,serif" font-size="14.00">KeepEvents</text>
</g>
<g id="clust17" class="cluster">
<title>cluster_NormalizedDspacing</title>
<polygon fill="#f0f0ff" stroke="#f0f0ff" points="2145,-214.5 2145,-310.5 2342,-310.5 2342,-214.5 2145,-214.5"/>
<text text-anchor="start" x="2169" y="-296.3" font-family="Times,serif" font-size="14.00">NormalizedDspacing</text>
<text text-anchor="start" x="2153" y="-284.7" font-family="Times,serif" font-size="11.00">via:</text>
<text text-anchor="start" x="2174" y="-284.7" font-family="Times,serif" font-style="italic" font-size="11.00">normalize_by_proton_charge</text>
</g>
<g id="clust18" class="cluster">
<title>cluster_Position</title>
<polygon fill="#f0f0ff" stroke="#f0f0ff" points="471,-41.5 471,-217.5 666,-217.5 666,-41.5 471,-41.5"/>
<text text-anchor="middle" x="568.5" y="-202.3" font-family="Times,serif" font-size="14.00">Position</text>
</g>
<g id="clust19" class="cluster">
<title>cluster_RawDataAndMetadata</title>
<polygon fill="#f0f0ff" stroke="#f0f0ff" points="208.5,-108.5 208.5,-204.5 385.5,-204.5 385.5,-108.5 208.5,-108.5"/>
<text text-anchor="start" x="216.5" y="-190.3" font-family="Times,serif" font-size="14.00">RawDataAndMetadata</text>
<text text-anchor="start" x="255" y="-178.7" font-family="Times,serif" font-size="11.00">via:</text>
<text text-anchor="start" x="276" y="-178.7" font-family="Times,serif" font-style="italic" font-size="11.00">pooch_load</text>
</g>
<g id="clust20" class="cluster">
<title>cluster_TofDetector</title>
<polygon fill="#f0f0ff" stroke="#f0f0ff" points="811,-205.5 811,-301.5 945,-301.5 945,-205.5 811,-205.5"/>
<text text-anchor="start" x="835.5" y="-287.3" font-family="Times,serif" font-size="14.00">TofDetector</text>
<text text-anchor="start" x="819" y="-275.7" font-family="Times,serif" font-size="11.00">via:</text>
<text text-anchor="start" x="840" y="-275.7" font-family="Times,serif" font-style="italic" font-size="11.00">extract_raw_data</text>
</g>
<g id="clust25" class="cluster">
<title>cluster_WavelengthDetector</title>
<polygon fill="#f0f0ff" stroke="#f0f0ff" points="1086,-199.5 1086,-295.5 1365,-295.5 1365,-199.5 1086,-199.5"/>
<text text-anchor="start" x="1152" y="-281.3" font-family="Times,serif" font-size="14.00">WavelengthDetector</text>
<text text-anchor="start" x="1094" y="-269.7" font-family="Times,serif" font-size="11.00">via:</text>
<text text-anchor="start" x="1115" y="-269.7" font-family="Times,serif" font-style="italic" font-size="11.00">add_scattering_coordinates_from_positions</text>
</g>
<!-- TofDetector[SampleRun] -->
<g id="node1" class="node">
<title>TofDetector[SampleRun]</title>
<polygon fill="none" stroke="black" points="925.5,-235 830.5,-235 830.5,-214 925.5,-214 925.5,-235"/>
<text text-anchor="start" x="838.5" y="-221.4" font-family="Times,serif" font-size="12.00">[SampleRun]</text>
</g>
<!-- AccumulatedProtonCharge[SampleRun] -->
<g id="node2" class="node">
<title>AccumulatedProtonCharge[SampleRun]</title>
<polygon fill="none" stroke="black" points="2012.5,-298 1917.5,-298 1917.5,-277 2012.5,-277 2012.5,-298"/>
<text text-anchor="start" x="1925.5" y="-284.4" font-family="Times,serif" font-size="12.00">[SampleRun]</text>
</g>
<!-- TofDetector[SampleRun]&#45;&gt;AccumulatedProtonCharge[SampleRun] -->
<g id="edge1" class="edge">
<title>TofDetector[SampleRun]:e&#45;&gt;AccumulatedProtonCharge[SampleRun]:w</title>
<path fill="none" stroke="black" d="M927,-224.5C966.24,-224.5 978.18,-223.49 1014,-239.5 1051.26,-256.15 1047.45,-283.09 1086,-296.5 1144.56,-316.87 1303,-297.01 1365,-296.5 1606.45,-294.53 1669.31,-287.7 1905.71,-287.5"/>
<polygon fill="black" stroke="black" points="1906,-291 1916,-287.5 1906,-284 1906,-291"/>
</g>
<!-- WavelengthDetector[SampleRun] -->
<g id="node8" class="node">
<title>WavelengthDetector[SampleRun]</title>
<polygon fill="none" stroke="black" points="1272.5,-229 1177.5,-229 1177.5,-208 1272.5,-208 1272.5,-229"/>
<text text-anchor="start" x="1185.5" y="-215.4" font-family="Times,serif" font-size="12.00">[SampleRun]</text>
</g>
<!-- TofDetector[SampleRun]&#45;&gt;WavelengthDetector[SampleRun] -->
<g id="edge46" class="edge">
<title>TofDetector[SampleRun]:e&#45;&gt;WavelengthDetector[SampleRun]:w</title>
<path fill="none" stroke="black" d="M927,-224.5C1034.24,-224.5 1063.49,-218.87 1165.86,-218.52"/>
<polygon fill="black" stroke="black" points="1166.01,-222.02 1176,-218.5 1165.99,-215.02 1166.01,-222.02"/>
</g>
<!-- NormalizedDspacing[SampleRun] -->
<g id="node33" class="node">
<title>NormalizedDspacing[SampleRun]</title>
<polygon fill="none" stroke="black" points="2290.5,-244 2195.5,-244 2195.5,-223 2290.5,-223 2290.5,-244"/>
<text text-anchor="start" x="2203.5" y="-230.4" font-family="Times,serif" font-size="12.00">[SampleRun]</text>
</g>
<!-- AccumulatedProtonCharge[SampleRun]&#45;&gt;NormalizedDspacing[SampleRun] -->
<g id="edge34" class="edge">
<title>AccumulatedProtonCharge[SampleRun]:e&#45;&gt;NormalizedDspacing[SampleRun]:w</title>
<path fill="none" stroke="black" d="M2014,-287.5C2093.93,-287.5 2109.23,-238.04 2183.61,-233.79"/>
<polygon fill="black" stroke="black" points="2184.1,-237.28 2194,-233.5 2183.91,-230.28 2184.1,-237.28"/>
</g>
<!-- TofDetector[VanadiumRun] -->
<g id="node3" class="node">
<title>TofDetector[VanadiumRun]</title>
<polygon fill="none" stroke="black" points="933,-260 823,-260 823,-239 933,-239 933,-260"/>
<text text-anchor="start" x="831" y="-246.4" font-family="Times,serif" font-size="12.00">[VanadiumRun]</text>
</g>
<!-- AccumulatedProtonCharge[VanadiumRun] -->
<g id="node4" class="node">
<title>AccumulatedProtonCharge[VanadiumRun]</title>
<polygon fill="none" stroke="black" points="2020,-323 1910,-323 1910,-302 2020,-302 2020,-323"/>
<text text-anchor="start" x="1918" y="-309.4" font-family="Times,serif" font-size="12.00">[VanadiumRun]</text>
</g>
<!-- TofDetector[VanadiumRun]&#45;&gt;AccumulatedProtonCharge[VanadiumRun] -->
<g id="edge2" class="edge">
<title>TofDetector[VanadiumRun]:e&#45;&gt;AccumulatedProtonCharge[VanadiumRun]:w</title>
<path fill="none" stroke="black" d="M934,-249.5C1005.84,-249.5 1015.3,-291.75 1086,-304.5 1442.65,-368.83 1541.38,-313.55 1898.89,-312.51"/>
<polygon fill="black" stroke="black" points="1899.01,-316.01 1909,-312.5 1898.99,-309.01 1899.01,-316.01"/>
</g>
<!-- WavelengthDetector[VanadiumRun] -->
<g id="node14" class="node">
<title>WavelengthDetector[VanadiumRun]</title>
<polygon fill="none" stroke="black" points="1280,-254 1170,-254 1170,-233 1280,-233 1280,-254"/>
<text text-anchor="start" x="1178" y="-240.4" font-family="Times,serif" font-size="12.00">[VanadiumRun]</text>
</g>
<!-- TofDetector[VanadiumRun]&#45;&gt;WavelengthDetector[VanadiumRun] -->
<g id="edge48" class="edge">
<title>TofDetector[VanadiumRun]:e&#45;&gt;WavelengthDetector[VanadiumRun]:w</title>
<path fill="none" stroke="black" d="M934,-249.5C1035.01,-249.5 1062.71,-243.89 1158.85,-243.52"/>
<polygon fill="black" stroke="black" points="1159.01,-247.02 1169,-243.5 1158.99,-240.02 1159.01,-247.02"/>
</g>
<!-- NormalizedDspacing[VanadiumRun] -->
<g id="node36" class="node">
<title>NormalizedDspacing[VanadiumRun]</title>
<polygon fill="none" stroke="black" points="2298,-269 2188,-269 2188,-248 2298,-248 2298,-269"/>
<text text-anchor="start" x="2196" y="-255.4" font-family="Times,serif" font-size="12.00">[VanadiumRun]</text>
</g>
<!-- AccumulatedProtonCharge[VanadiumRun]&#45;&gt;NormalizedDspacing[VanadiumRun] -->
<g id="edge36" class="edge">
<title>AccumulatedProtonCharge[VanadiumRun]:e&#45;&gt;NormalizedDspacing[VanadiumRun]:w</title>
<path fill="none" stroke="black" d="M2021,-312.5C2050.12,-312.5 2057.14,-306.95 2085,-298.5 2128.14,-285.41 2137.09,-262.27 2176.82,-258.91"/>
<polygon fill="black" stroke="black" points="2177.15,-262.4 2187,-258.5 2176.87,-255.41 2177.15,-262.4"/>
</g>
<!-- CalibrationFilename -->
<g id="node5" class="node">
<title>CalibrationFilename</title>
<polygon fill="none" stroke="black" points="649.5,-338 487.5,-338 487.5,-315 649.5,-315 649.5,-338"/>
<text text-anchor="middle" x="568.5" y="-322.8" font-family="Times,serif" font-size="14.00">CalibrationFilename</text>
</g>
<!-- CalibrationData -->
<g id="node6" class="node">
<title>CalibrationData</title>
<polygon fill="none" stroke="black" points="961,-343 795,-343 795,-310 961,-310 961,-343"/>
<text text-anchor="start" x="821" y="-328.8" font-family="Times,serif" font-size="14.00">CalibrationData</text>
<text text-anchor="start" x="803" y="-317.2" font-family="Times,serif" font-size="11.00">via:</text>
<text text-anchor="start" x="824" y="-317.2" font-family="Times,serif" font-style="italic" font-size="11.00">pooch_load_calibration</text>
</g>
<!-- CalibrationFilename&#45;&gt;CalibrationData -->
<g id="edge3" class="edge">
<title>CalibrationFilename:e&#45;&gt;CalibrationData:w</title>
<path fill="none" stroke="black" d="M650.5,-326.5C710.79,-326.5 728.34,-326.5 783.95,-326.5"/>
<polygon fill="black" stroke="black" points="784,-330 794,-326.5 784,-323 784,-330"/>
</g>
<!-- DspacingDetector[SampleRun] -->
<g id="node16" class="node">
<title>DspacingDetector[SampleRun]</title>
<polygon fill="none" stroke="black" points="1759.5,-190 1664.5,-190 1664.5,-169 1759.5,-169 1759.5,-190"/>
<text text-anchor="start" x="1672.5" y="-176.4" font-family="Times,serif" font-size="12.00">[SampleRun]</text>
</g>
<!-- CalibrationData&#45;&gt;DspacingDetector[SampleRun] -->
<g id="edge19" class="edge">
<title>CalibrationData:e&#45;&gt;DspacingDetector[SampleRun]:w</title>
<path fill="none" stroke="black" stroke-width="2" d="M962,-326.5C1237.93,-326.5 1337.31,-390.63 1579,-257.5 1609.37,-240.77 1613.71,-210.68 1629.45,-193.17"/>
<polygon fill="black" stroke="black" stroke-width="2" points="1631.82,-195.75 1637,-186.51 1627.19,-190.5 1631.82,-195.75"/>
</g>
<!-- DetectorBankSizes -->
<g id="node7" class="node">
<title>DetectorBankSizes</title>
<polygon fill="none" stroke="black" points="670,-300 467,-300 467,-267 670,-267 670,-300"/>
<text text-anchor="start" x="500.5" y="-285.8" font-family="Times,serif" font-size="14.00">DetectorBankSizes</text>
<text text-anchor="start" x="475" y="-274.2" font-family="Times,serif" font-size="11.00">via:</text>
<text text-anchor="start" x="496" y="-274.2" font-family="Times,serif" font-style="italic" font-size="11.00">powgen_detector_dimensions</text>
</g>
<!-- DetectorBankSizes&#45;&gt;TofDetector[SampleRun] -->
<g id="edge44" class="edge">
<title>DetectorBankSizes:e&#45;&gt;TofDetector[SampleRun]:w</title>
<path fill="none" stroke="black" stroke-width="2" d="M670,-283.5C707.5,-283.5 706.9,-252.7 742,-239.5 768.14,-229.67 781.27,-226.24 800.81,-225.07"/>
<polygon fill="black" stroke="black" stroke-width="2" points="801.15,-228.56 811,-224.66 800.87,-221.57 801.15,-228.56"/>
</g>
<!-- DetectorBankSizes&#45;&gt;CalibrationData -->
<g id="edge4" class="edge">
<title>DetectorBankSizes:e&#45;&gt;CalibrationData:w</title>
<path fill="none" stroke="black" d="M670,-283.5C724.8,-283.5 734.59,-321.45 783.94,-326.05"/>
<polygon fill="black" stroke="black" points="783.85,-329.55 794,-326.5 784.17,-322.55 783.85,-329.55"/>
</g>
<!-- CorrectedDetector[SampleRun] -->
<g id="node9" class="node">
<title>CorrectedDetector[SampleRun]</title>
<polygon fill="none" stroke="black" points="1551.5,-190 1456.5,-190 1456.5,-169 1551.5,-169 1551.5,-190"/>
<text text-anchor="start" x="1464.5" y="-176.4" font-family="Times,serif" font-size="12.00">[SampleRun]</text>
</g>
<!-- WavelengthDetector[SampleRun]&#45;&gt;CorrectedDetector[SampleRun] -->
<g id="edge5" class="edge">
<title>WavelengthDetector[SampleRun]:e&#45;&gt;CorrectedDetector[SampleRun]:w</title>
<path fill="none" stroke="black" d="M1274,-218.5C1352.75,-218.5 1371.18,-182.78 1444.75,-179.71"/>
<polygon fill="black" stroke="black" points="1445.07,-183.2 1455,-179.5 1444.93,-176.21 1445.07,-183.2"/>
</g>
<!-- CorrectedDetector[SampleRun]&#45;&gt;DspacingDetector[SampleRun] -->
<g id="edge17" class="edge">
<title>CorrectedDetector[SampleRun]:e&#45;&gt;DspacingDetector[SampleRun]:w</title>
<path fill="none" stroke="black" d="M1553,-179.5C1598.36,-179.5 1612.15,-179.5 1652.95,-179.5"/>
<polygon fill="black" stroke="black" points="1653,-183 1663,-179.5 1653,-176 1653,-183"/>
</g>
<!-- MaskedDetectorIDs -->
<g id="node10" class="node">
<title>MaskedDetectorIDs</title>
<polygon fill="none" stroke="black" points="1304,-137 1146,-137 1146,-114 1304,-114 1304,-137"/>
<text text-anchor="middle" x="1225" y="-121.8" font-family="Times,serif" font-size="14.00">MaskedDetectorIDs</text>
</g>
<!-- MaskedDetectorIDs&#45;&gt;CorrectedDetector[SampleRun] -->
<g id="edge6" class="edge">
<title>MaskedDetectorIDs:e&#45;&gt;CorrectedDetector[SampleRun]:w</title>
<path fill="none" stroke="black" stroke-width="2" d="M1305,-125.5C1332.6,-125.5 1338.89,-132.56 1365,-141.5 1391.23,-150.49 1402.96,-163.49 1419.31,-171.72"/>
<polygon fill="black" stroke="black" stroke-width="2" points="1418.42,-175.14 1429,-175.74 1421.11,-168.68 1418.42,-175.14"/>
</g>
<!-- TofMask -->
<g id="node11" class="node">
<title>TofMask</title>
<polygon fill="none" stroke="black" points="1263.5,-110 1186.5,-110 1186.5,-87 1263.5,-87 1263.5,-110"/>
<text text-anchor="middle" x="1225" y="-94.8" font-family="Times,serif" font-size="14.00">TofMask</text>
</g>
<!-- TofMask&#45;&gt;CorrectedDetector[SampleRun] -->
<g id="edge7" class="edge">
<title>TofMask:e&#45;&gt;CorrectedDetector[SampleRun]:w</title>
<path fill="none" stroke="black" stroke-width="2" d="M1265,-98.5C1309.94,-98.5 1323.45,-96.38 1365,-113.5 1395.97,-126.26 1403.53,-151.88 1420.45,-167.17"/>
<polygon fill="black" stroke="black" stroke-width="2" points="1418.86,-170.34 1429,-173.39 1422.97,-164.68 1418.86,-170.34"/>
</g>
<!-- WavelengthMask -->
<g id="node12" class="node">
<title>WavelengthMask</title>
<polygon fill="none" stroke="black" points="1294.5,-191 1155.5,-191 1155.5,-168 1294.5,-168 1294.5,-191"/>
<text text-anchor="middle" x="1225" y="-175.8" font-family="Times,serif" font-size="14.00">WavelengthMask</text>
</g>
<!-- WavelengthMask&#45;&gt;CorrectedDetector[SampleRun] -->
<g id="edge8" class="edge">
<title>WavelengthMask:e&#45;&gt;CorrectedDetector[SampleRun]:w</title>
<path fill="none" stroke="black" stroke-width="2" d="M1296,-179.5C1352.82,-179.5 1375.38,-179.5 1418.78,-179.5"/>
<polygon fill="black" stroke="black" stroke-width="2" points="1419,-183 1429,-179.5 1419,-176 1419,-183"/>
</g>
<!-- TwoThetaMask -->
<g id="node13" class="node">
<title>TwoThetaMask</title>
<polygon fill="none" stroke="black" points="1287.5,-164 1162.5,-164 1162.5,-141 1287.5,-141 1287.5,-164"/>
<text text-anchor="middle" x="1225" y="-148.8" font-family="Times,serif" font-size="14.00">TwoThetaMask</text>
</g>
<!-- TwoThetaMask&#45;&gt;CorrectedDetector[SampleRun] -->
<g id="edge9" class="edge">
<title>TwoThetaMask:e&#45;&gt;CorrectedDetector[SampleRun]:w</title>
<path fill="none" stroke="black" stroke-width="2" d="M1288,-152.5C1349.43,-152.5 1371.77,-170.52 1418.89,-177.12"/>
<polygon fill="black" stroke="black" stroke-width="2" points="1418.66,-180.62 1429,-178.31 1419.48,-173.66 1418.66,-180.62"/>
</g>
<!-- CorrectedDetector[VanadiumRun] -->
<g id="node15" class="node">
<title>CorrectedDetector[VanadiumRun]</title>
<polygon fill="none" stroke="black" points="1559,-215 1449,-215 1449,-194 1559,-194 1559,-215"/>
<text text-anchor="start" x="1457" y="-201.4" font-family="Times,serif" font-size="12.00">[VanadiumRun]</text>
</g>
<!-- WavelengthDetector[VanadiumRun]&#45;&gt;CorrectedDetector[VanadiumRun] -->
<g id="edge10" class="edge">
<title>WavelengthDetector[VanadiumRun]:e&#45;&gt;CorrectedDetector[VanadiumRun]:w</title>
<path fill="none" stroke="black" d="M1281,-243.5C1318.85,-243.5 1328.14,-238.09 1365,-229.5 1399,-221.58 1407.9,-207.48 1437.95,-204.91"/>
<polygon fill="black" stroke="black" points="1438.15,-208.4 1448,-204.5 1437.87,-201.41 1438.15,-208.4"/>
</g>
<!-- DspacingDetector[VanadiumRun] -->
<g id="node20" class="node">
<title>DspacingDetector[VanadiumRun]</title>
<polygon fill="none" stroke="black" points="1767,-215 1657,-215 1657,-194 1767,-194 1767,-215"/>
<text text-anchor="start" x="1665" y="-201.4" font-family="Times,serif" font-size="12.00">[VanadiumRun]</text>
</g>
<!-- CorrectedDetector[VanadiumRun]&#45;&gt;DspacingDetector[VanadiumRun] -->
<g id="edge20" class="edge">
<title>CorrectedDetector[VanadiumRun]:e&#45;&gt;DspacingDetector[VanadiumRun]:w</title>
<path fill="none" stroke="black" d="M1560,-204.5C1599,-204.5 1611.26,-204.5 1645.67,-204.5"/>
<polygon fill="black" stroke="black" points="1646,-208 1656,-204.5 1646,-201 1646,-208"/>
</g>
<!-- CorrectedDspacing[SampleRun] -->
<g id="node17" class="node">
<title>CorrectedDspacing[SampleRun]</title>
<polygon fill="none" stroke="black" points="2012.5,-190 1917.5,-190 1917.5,-169 2012.5,-169 2012.5,-190"/>
<text text-anchor="start" x="1925.5" y="-176.4" font-family="Times,serif" font-size="12.00">[SampleRun]</text>
</g>
<!-- DspacingDetector[SampleRun]&#45;&gt;CorrectedDspacing[SampleRun] -->
<g id="edge11" class="edge">
<title>DspacingDetector[SampleRun]:e&#45;&gt;CorrectedDspacing[SampleRun]:w</title>
<path fill="none" stroke="black" d="M1761,-179.5C1826.39,-179.5 1845.23,-179.5 1905.89,-179.5"/>
<polygon fill="black" stroke="black" points="1906,-183 1916,-179.5 1906,-176 1906,-183"/>
</g>
<!-- CorrectedDspacing[SampleRun]&#45;&gt;NormalizedDspacing[SampleRun] -->
<g id="edge33" class="edge">
<title>CorrectedDspacing[SampleRun]:e&#45;&gt;NormalizedDspacing[SampleRun]:w</title>
<path fill="none" stroke="black" d="M2014,-179.5C2046.25,-179.5 2053.97,-185.71 2085,-194.5 2131.03,-207.53 2141.21,-230.04 2183.76,-233.14"/>
<polygon fill="black" stroke="black" points="2183.88,-236.65 2194,-233.5 2184.13,-229.65 2183.88,-236.65"/>
</g>
<!-- DspacingBins -->
<g id="node18" class="node">
<title>DspacingBins</title>
<polygon fill="none" stroke="black" points="1769,-152 1655,-152 1655,-129 1769,-129 1769,-152"/>
<text text-anchor="middle" x="1712" y="-136.8" font-family="Times,serif" font-size="14.00">DspacingBins</text>
</g>
<!-- DspacingBins&#45;&gt;CorrectedDspacing[SampleRun] -->
<g id="edge12" class="edge">
<title>DspacingBins:e&#45;&gt;CorrectedDspacing[SampleRun]:w</title>
<path fill="none" stroke="black" stroke-width="2" d="M1770,-140.5C1800.05,-140.5 1818.99,-148.31 1836.76,-156.93"/>
<polygon fill="black" stroke="black" stroke-width="2" points="1835.49,-160.21 1846,-161.48 1838.58,-153.93 1835.49,-160.21"/>
</g>
<!-- KeepEvents[SampleRun] -->
<g id="node19" class="node">
<title>KeepEvents[SampleRun]</title>
<polygon fill="none" stroke="black" points="1759.5,-64 1664.5,-64 1664.5,-43 1759.5,-43 1759.5,-64"/>
<text text-anchor="start" x="1672.5" y="-50.4" font-family="Times,serif" font-size="12.00">[SampleRun]</text>
</g>
<!-- KeepEvents[SampleRun]&#45;&gt;CorrectedDspacing[SampleRun] -->
<g id="edge13" class="edge">
<title>KeepEvents[SampleRun]:e&#45;&gt;CorrectedDspacing[SampleRun]:w</title>
<path fill="none" stroke="black" d="M1761,-53.5C1846.14,-53.5 1828.88,-169.38 1905.62,-178.88"/>
<polygon fill="black" stroke="black" points="1905.81,-182.4 1916,-179.5 1906.23,-175.41 1905.81,-182.4"/>
</g>
<!-- CorrectedDspacing[VanadiumRun] -->
<g id="node21" class="node">
<title>CorrectedDspacing[VanadiumRun]</title>
<polygon fill="none" stroke="black" points="2020,-215 1910,-215 1910,-194 2020,-194 2020,-215"/>
<text text-anchor="start" x="1918" y="-201.4" font-family="Times,serif" font-size="12.00">[VanadiumRun]</text>
</g>
<!-- DspacingDetector[VanadiumRun]&#45;&gt;CorrectedDspacing[VanadiumRun] -->
<g id="edge14" class="edge">
<title>DspacingDetector[VanadiumRun]:e&#45;&gt;CorrectedDspacing[VanadiumRun]:w</title>
<path fill="none" stroke="black" d="M1768,-204.5C1827.12,-204.5 1844.41,-204.5 1898.79,-204.5"/>
<polygon fill="black" stroke="black" points="1899,-208 1909,-204.5 1899,-201 1899,-208"/>
</g>
<!-- CorrectedDspacing[VanadiumRun]&#45;&gt;NormalizedDspacing[VanadiumRun] -->
<g id="edge35" class="edge">
<title>CorrectedDspacing[VanadiumRun]:e&#45;&gt;NormalizedDspacing[VanadiumRun]:w</title>
<path fill="none" stroke="black" d="M2021,-204.5C2095.1,-204.5 2108.31,-253.76 2176.94,-258.18"/>
<polygon fill="black" stroke="black" points="2176.89,-261.68 2187,-258.5 2177.12,-254.69 2176.89,-261.68"/>
</g>
<!-- KeepEvents[VanadiumRun] -->
<g id="node22" class="node">
<title>KeepEvents[VanadiumRun]</title>
<polygon fill="none" stroke="black" points="1767,-89 1657,-89 1657,-68 1767,-68 1767,-89"/>
<text text-anchor="start" x="1665" y="-75.4" font-family="Times,serif" font-size="12.00">[VanadiumRun]</text>
</g>
<!-- KeepEvents[VanadiumRun]&#45;&gt;CorrectedDspacing[VanadiumRun] -->
<g id="edge15" class="edge">
<title>KeepEvents[VanadiumRun]:e&#45;&gt;CorrectedDspacing[VanadiumRun]:w</title>
<path fill="none" stroke="black" d="M1768,-78.5C1828.66,-78.5 1795.61,-156.72 1846,-190.5 1866.75,-204.41 1877.39,-204.71 1898.75,-204.56"/>
<polygon fill="black" stroke="black" points="1899.02,-208.05 1909,-204.5 1898.98,-201.05 1899.02,-208.05"/>
</g>
<!-- NeXusName[NXdetector] -->
<g id="node23" class="node">
<title>NeXusName[NXdetector]</title>
<polygon fill="none" stroke="black" points="395,-295 198,-295 198,-272 395,-272 395,-295"/>
<text text-anchor="middle" x="296.5" y="-279.8" font-family="Times,serif" font-size="14.00">NeXusName[NXdetector]</text>
</g>
<!-- NeXusName[NXdetector]&#45;&gt;DetectorBankSizes -->
<g id="edge16" class="edge">
<title>NeXusName[NXdetector]:e&#45;&gt;DetectorBankSizes:w</title>
<path fill="none" stroke="black" d="M395,-283.5C423.38,-283.5 432.88,-283.5 456.98,-283.5"/>
<polygon fill="black" stroke="black" points="457,-287 467,-283.5 457,-280 457,-287"/>
</g>
<!-- ElasticCoordTransformGraph[SampleRun] -->
<g id="node24" class="node">
<title>ElasticCoordTransformGraph[SampleRun]</title>
<polygon fill="none" stroke="black" points="925.5,-111 830.5,-111 830.5,-90 925.5,-90 925.5,-111"/>
<text text-anchor="start" x="838.5" y="-97.4" font-family="Times,serif" font-size="12.00">[SampleRun]</text>
</g>
<!-- ElasticCoordTransformGraph[SampleRun]&#45;&gt;WavelengthDetector[SampleRun] -->
<g id="edge47" class="edge">
<title>ElasticCoordTransformGraph[SampleRun]:e&#45;&gt;WavelengthDetector[SampleRun]:w</title>
<path fill="none" stroke="black" d="M927,-100.5C966.16,-100.5 979.55,-95.87 1014,-114.5 1055.79,-137.09 1045.53,-168.62 1086,-193.5 1118.32,-213.38 1132.07,-217.8 1165.89,-218.42"/>
<polygon fill="black" stroke="black" points="1165.97,-221.92 1176,-218.5 1166.03,-214.92 1165.97,-221.92"/>
</g>
<!-- ElasticCoordTransformGraph[SampleRun]&#45;&gt;DspacingDetector[SampleRun] -->
<g id="edge18" class="edge">
<title>ElasticCoordTransformGraph[SampleRun]:e&#45;&gt;DspacingDetector[SampleRun]:w</title>
<path fill="none" stroke="black" d="M927,-100.5C998.47,-100.5 1014.73,-81.85 1086,-76.5 1304.5,-60.1 1383.22,21.89 1579,-76.5 1628.48,-101.37 1607.1,-170.14 1652.9,-178.63"/>
<polygon fill="black" stroke="black" points="1652.74,-182.13 1663,-179.5 1653.34,-175.16 1652.74,-182.13"/>
</g>
<!-- ElasticCoordTransformGraph[VanadiumRun] -->
<g id="node25" class="node">
<title>ElasticCoordTransformGraph[VanadiumRun]</title>
<polygon fill="none" stroke="black" points="933,-136 823,-136 823,-115 933,-115 933,-136"/>
<text text-anchor="start" x="831" y="-122.4" font-family="Times,serif" font-size="12.00">[VanadiumRun]</text>
</g>
<!-- ElasticCoordTransformGraph[VanadiumRun]&#45;&gt;WavelengthDetector[VanadiumRun] -->
<g id="edge49" class="edge">
<title>ElasticCoordTransformGraph[VanadiumRun]:e&#45;&gt;WavelengthDetector[VanadiumRun]:w</title>
<path fill="none" stroke="black" d="M934,-125.5C1015.86,-125.5 1010.09,-198.87 1086,-229.5 1117.3,-242.13 1129.23,-243.37 1158.75,-243.49"/>
<polygon fill="black" stroke="black" points="1159,-246.99 1169,-243.5 1159,-239.99 1159,-246.99"/>
</g>
<!-- ElasticCoordTransformGraph[VanadiumRun]&#45;&gt;DspacingDetector[VanadiumRun] -->
<g id="edge21" class="edge">
<title>ElasticCoordTransformGraph[VanadiumRun]:e&#45;&gt;DspacingDetector[VanadiumRun]:w</title>
<path fill="none" stroke="black" d="M934,-125.5C970.1,-125.5 979.06,-120.56 1014,-111.5 1046.79,-103 1052.6,-92.13 1086,-86.5 1208.27,-65.88 1242.67,-66.21 1365,-86.5 1464.14,-102.94 1487.61,-117.72 1579,-159.5 1611.67,-174.44 1615.81,-199.26 1645.8,-203.78"/>
<polygon fill="black" stroke="black" points="1645.78,-207.29 1656,-204.5 1646.27,-200.31 1645.78,-207.29"/>
</g>
<!-- Position[NXsource, SampleRun] -->
<g id="node26" class="node">
<title>Position[NXsource, SampleRun]</title>
<polygon fill="none" stroke="black" points="649,-81 488,-81 488,-50 649,-50 649,-81"/>
<text text-anchor="start" x="496" y="-68.4" font-family="Times,serif" font-size="12.00">[NXsource, SampleRun]</text>
<text text-anchor="start" x="514" y="-57.2" font-family="Times,serif" font-size="11.00">via:</text>
<text text-anchor="start" x="535" y="-57.2" font-family="Times,serif" font-style="italic" font-size="11.00">source_position</text>
</g>
<!-- Position[NXsource, SampleRun]&#45;&gt;ElasticCoordTransformGraph[SampleRun] -->
<g id="edge22" class="edge">
<title>Position[NXsource, SampleRun]:e&#45;&gt;ElasticCoordTransformGraph[SampleRun]:w</title>
<path fill="none" stroke="black" d="M650.5,-65.5C727.87,-65.5 746.59,-97.56 818.92,-100.31"/>
<polygon fill="black" stroke="black" points="818.94,-103.81 829,-100.5 819.07,-96.81 818.94,-103.81"/>
</g>
<!-- Position[NXsample, SampleRun] -->
<g id="node27" class="node">
<title>Position[NXsample, SampleRun]</title>
<polygon fill="none" stroke="black" points="650.5,-116 486.5,-116 486.5,-85 650.5,-85 650.5,-116"/>
<text text-anchor="start" x="494.5" y="-103.4" font-family="Times,serif" font-size="12.00">[NXsample, SampleRun]</text>
<text text-anchor="start" x="512.5" y="-92.2" font-family="Times,serif" font-size="11.00">via:</text>
<text text-anchor="start" x="533.5" y="-92.2" font-family="Times,serif" font-style="italic" font-size="11.00">sample_position</text>
</g>
<!-- Position[NXsample, SampleRun]&#45;&gt;ElasticCoordTransformGraph[SampleRun] -->
<g id="edge23" class="edge">
<title>Position[NXsample, SampleRun]:e&#45;&gt;ElasticCoordTransformGraph[SampleRun]:w</title>
<path fill="none" stroke="black" d="M651.5,-100.5C726.85,-100.5 748.22,-100.5 818.72,-100.5"/>
<polygon fill="black" stroke="black" points="819,-104 829,-100.5 819,-97 819,-104"/>
</g>
<!-- GravityVector -->
<g id="node28" class="node">
<title>GravityVector</title>
<polygon fill="none" stroke="black" points="645.5,-33 491.5,-33 491.5,0 645.5,0 645.5,-33"/>
<text text-anchor="start" x="518.5" y="-18.8" font-family="Times,serif" font-size="14.00">GravityVector</text>
<text text-anchor="start" x="499.5" y="-7.2" font-family="Times,serif" font-size="11.00">via:</text>
<text text-anchor="start" x="520.5" y="-7.2" font-family="Times,serif" font-style="italic" font-size="11.00">gravity_vector_neg_y</text>
</g>
<!-- GravityVector&#45;&gt;ElasticCoordTransformGraph[SampleRun] -->
<g id="edge24" class="edge">
<title>GravityVector:e&#45;&gt;ElasticCoordTransformGraph[SampleRun]:w</title>
<path fill="none" stroke="black" stroke-width="2" d="M646.5,-16.5C703.46,-16.5 725.68,-50.68 757.48,-75.44"/>
<polygon fill="black" stroke="black" stroke-width="2" points="755.66,-78.44 765.8,-81.5 759.78,-72.78 755.66,-78.44"/>
</g>
<!-- Position[NXsource, VanadiumRun] -->
<g id="node29" class="node">
<title>Position[NXsource, VanadiumRun]</title>
<polygon fill="none" stroke="black" points="656.5,-151 480.5,-151 480.5,-120 656.5,-120 656.5,-151"/>
<text text-anchor="start" x="488.5" y="-138.4" font-family="Times,serif" font-size="12.00">[NXsource, VanadiumRun]</text>
<text text-anchor="start" x="514" y="-127.2" font-family="Times,serif" font-size="11.00">via:</text>
<text text-anchor="start" x="535" y="-127.2" font-family="Times,serif" font-style="italic" font-size="11.00">source_position</text>
</g>
<!-- Position[NXsource, VanadiumRun]&#45;&gt;ElasticCoordTransformGraph[VanadiumRun] -->
<g id="edge25" class="edge">
<title>Position[NXsource, VanadiumRun]:e&#45;&gt;ElasticCoordTransformGraph[VanadiumRun]:w</title>
<path fill="none" stroke="black" d="M657.5,-135.5C727.17,-135.5 746.86,-126.45 811.65,-125.57"/>
<polygon fill="black" stroke="black" points="812.02,-129.07 822,-125.5 811.98,-122.07 812.02,-129.07"/>
</g>
<!-- Position[NXsample, VanadiumRun] -->
<g id="node30" class="node">
<title>Position[NXsample, VanadiumRun]</title>
<polygon fill="none" stroke="black" points="658,-186 479,-186 479,-155 658,-155 658,-186"/>
<text text-anchor="start" x="487" y="-173.4" font-family="Times,serif" font-size="12.00">[NXsample, VanadiumRun]</text>
<text text-anchor="start" x="512.5" y="-162.2" font-family="Times,serif" font-size="11.00">via:</text>
<text text-anchor="start" x="533.5" y="-162.2" font-family="Times,serif" font-style="italic" font-size="11.00">sample_position</text>
</g>
<!-- Position[NXsample, VanadiumRun]&#45;&gt;ElasticCoordTransformGraph[VanadiumRun] -->
<g id="edge26" class="edge">
<title>Position[NXsample, VanadiumRun]:e&#45;&gt;ElasticCoordTransformGraph[VanadiumRun]:w</title>
<path fill="none" stroke="black" d="M659.5,-170.5C730.93,-170.5 745.74,-129.62 811.86,-125.79"/>
<polygon fill="black" stroke="black" points="812.1,-129.28 822,-125.5 811.9,-122.28 812.1,-129.28"/>
</g>
<!-- Filename[SampleRun] -->
<g id="node31" class="node">
<title>Filename[SampleRun]</title>
<polygon fill="none" stroke="black" points="118.5,-138 23.5,-138 23.5,-117 118.5,-117 118.5,-138"/>
<text text-anchor="start" x="31.5" y="-124.4" font-family="Times,serif" font-size="12.00">[SampleRun]</text>
</g>
<!-- RawDataAndMetadata[SampleRun] -->
<g id="node40" class="node">
<title>RawDataAndMetadata[SampleRun]</title>
<polygon fill="none" stroke="black" points="344,-138 249,-138 249,-117 344,-117 344,-138"/>
<text text-anchor="start" x="257" y="-124.4" font-family="Times,serif" font-size="12.00">[SampleRun]</text>
</g>
<!-- Filename[SampleRun]&#45;&gt;RawDataAndMetadata[SampleRun] -->
<g id="edge41" class="edge">
<title>Filename[SampleRun]:e&#45;&gt;RawDataAndMetadata[SampleRun]:w</title>
<path fill="none" stroke="black" d="M120,-127.5C173.12,-127.5 188.9,-127.5 237.35,-127.5"/>
<polygon fill="black" stroke="black" points="237.5,-131 247.5,-127.5 237.5,-124 237.5,-131"/>
</g>
<!-- Filename[VanadiumRun] -->
<g id="node32" class="node">
<title>Filename[VanadiumRun]</title>
<polygon fill="none" stroke="black" points="126,-163 16,-163 16,-142 126,-142 126,-163"/>
<text text-anchor="start" x="24" y="-149.4" font-family="Times,serif" font-size="12.00">[VanadiumRun]</text>
</g>
<!-- RawDataAndMetadata[VanadiumRun] -->
<g id="node41" class="node">
<title>RawDataAndMetadata[VanadiumRun]</title>
<polygon fill="none" stroke="black" points="351.5,-163 241.5,-163 241.5,-142 351.5,-142 351.5,-163"/>
<text text-anchor="start" x="249.5" y="-149.4" font-family="Times,serif" font-size="12.00">[VanadiumRun]</text>
</g>
<!-- Filename[VanadiumRun]&#45;&gt;RawDataAndMetadata[VanadiumRun] -->
<g id="edge42" class="edge">
<title>Filename[VanadiumRun]:e&#45;&gt;RawDataAndMetadata[VanadiumRun]:w</title>
<path fill="none" stroke="black" d="M127,-152.5C173.9,-152.5 188.1,-152.5 230.39,-152.5"/>
<polygon fill="black" stroke="black" points="230.5,-156 240.5,-152.5 230.5,-149 230.5,-156"/>
</g>
<!-- FocussedDataDspacingTwoTheta[SampleRun] -->
<g id="node34" class="node">
<title>FocussedDataDspacingTwoTheta[SampleRun]</title>
<polygon fill="none" stroke="black" points="2583.5,-244 2488.5,-244 2488.5,-223 2583.5,-223 2583.5,-244"/>
<text text-anchor="start" x="2496.5" y="-230.4" font-family="Times,serif" font-size="12.00">[SampleRun]</text>
</g>
<!-- NormalizedDspacing[SampleRun]&#45;&gt;FocussedDataDspacingTwoTheta[SampleRun] -->
<g id="edge27" class="edge">
<title>NormalizedDspacing[SampleRun]:e&#45;&gt;FocussedDataDspacingTwoTheta[SampleRun]:w</title>
<path fill="none" stroke="black" d="M2292,-233.5C2375.11,-233.5 2398.45,-233.5 2476.66,-233.5"/>
<polygon fill="black" stroke="black" points="2477,-237 2487,-233.5 2477,-230 2477,-237"/>
</g>
<!-- IntensityDspacingTwoTheta[SampleRun] -->
<g id="node38" class="node">
<title>IntensityDspacingTwoTheta[SampleRun]</title>
<polygon fill="none" stroke="black" points="3046,-250 2734,-250 2734,-217 3046,-217 3046,-250"/>
<text text-anchor="start" x="2744" y="-235.8" font-family="Times,serif" font-size="14.00">IntensityDspacingTwoTheta[SampleRun]</text>
<text text-anchor="start" x="2742" y="-224.2" font-family="Times,serif" font-size="11.00">via:</text>
<text text-anchor="start" x="2763" y="-224.2" font-family="Times,serif" font-style="italic" font-size="11.00">normalize_by_vanadium_dspacing_and_two_theta</text>
</g>
<!-- FocussedDataDspacingTwoTheta[SampleRun]&#45;&gt;IntensityDspacingTwoTheta[SampleRun] -->
<g id="edge30" class="edge">
<title>FocussedDataDspacingTwoTheta[SampleRun]:e&#45;&gt;IntensityDspacingTwoTheta[SampleRun]:w</title>
<path fill="none" stroke="black" d="M2585,-233.5C2647.73,-233.5 2665.89,-233.5 2723.92,-233.5"/>
<polygon fill="black" stroke="black" points="2724,-237 2734,-233.5 2724,-230 2724,-237"/>
</g>
<!-- TwoThetaBins -->
<g id="node35" class="node">
<title>TwoThetaBins</title>
<polygon fill="none" stroke="black" points="2302,-206 2184,-206 2184,-183 2302,-183 2302,-206"/>
<text text-anchor="middle" x="2243" y="-190.8" font-family="Times,serif" font-size="14.00">TwoThetaBins</text>
</g>
<!-- TwoThetaBins&#45;&gt;FocussedDataDspacingTwoTheta[SampleRun] -->
<g id="edge28" class="edge">
<title>TwoThetaBins:e&#45;&gt;FocussedDataDspacingTwoTheta[SampleRun]:w</title>
<path fill="none" stroke="black" stroke-width="2" d="M2303,-194.5C2347.77,-194.5 2373.39,-205.69 2400.37,-216.08"/>
<polygon fill="black" stroke="black" stroke-width="2" points="2399.41,-219.46 2410,-219.7 2401.87,-212.91 2399.41,-219.46"/>
</g>
<!-- FocussedDataDspacingTwoTheta[VanadiumRun] -->
<g id="node37" class="node">
<title>FocussedDataDspacingTwoTheta[VanadiumRun]</title>
<polygon fill="none" stroke="black" points="2591,-269 2481,-269 2481,-248 2591,-248 2591,-269"/>
<text text-anchor="start" x="2489" y="-255.4" font-family="Times,serif" font-size="12.00">[VanadiumRun]</text>
</g>
<!-- NormalizedDspacing[VanadiumRun]&#45;&gt;FocussedDataDspacingTwoTheta[VanadiumRun] -->
<g id="edge29" class="edge">
<title>NormalizedDspacing[VanadiumRun]:e&#45;&gt;FocussedDataDspacingTwoTheta[VanadiumRun]:w</title>
<path fill="none" stroke="black" d="M2299,-258.5C2375.99,-258.5 2397.72,-258.5 2469.95,-258.5"/>
<polygon fill="black" stroke="black" points="2470,-262 2480,-258.5 2470,-255 2470,-262"/>
</g>
<!-- FocussedDataDspacingTwoTheta[VanadiumRun]&#45;&gt;IntensityDspacingTwoTheta[SampleRun] -->
<g id="edge31" class="edge">
<title>FocussedDataDspacingTwoTheta[VanadiumRun]:e&#45;&gt;IntensityDspacingTwoTheta[SampleRun]:w</title>
<path fill="none" stroke="black" d="M2592,-258.5C2652.58,-258.5 2668.25,-236.16 2723.92,-233.72"/>
<polygon fill="black" stroke="black" points="2724.08,-237.21 2734,-233.5 2723.93,-230.22 2724.08,-237.21"/>
</g>
<!-- UncertaintyBroadcastMode -->
<g id="node39" class="node">
<title>UncertaintyBroadcastMode</title>
<polygon fill="none" stroke="black" points="2643,-206 2429,-206 2429,-183 2643,-183 2643,-206"/>
<text text-anchor="middle" x="2536" y="-190.8" font-family="Times,serif" font-size="14.00">UncertaintyBroadcastMode</text>
</g>
<!-- UncertaintyBroadcastMode&#45;&gt;IntensityDspacingTwoTheta[SampleRun] -->
<g id="edge32" class="edge">
<title>UncertaintyBroadcastMode:e&#45;&gt;IntensityDspacingTwoTheta[SampleRun]:w</title>
<path fill="none" stroke="black" d="M2644,-194.5C2683.85,-194.5 2689.62,-227.08 2723.61,-232.69"/>
<polygon fill="black" stroke="black" points="2723.76,-236.21 2734,-233.5 2724.3,-229.23 2723.76,-236.21"/>
</g>
<!-- RawDataAndMetadata[SampleRun]&#45;&gt;TofDetector[SampleRun] -->
<g id="edge43" class="edge">
<title>RawDataAndMetadata[SampleRun]:e&#45;&gt;TofDetector[SampleRun]:w</title>
<path fill="none" stroke="black" d="M345.5,-127.5C368.49,-127.5 375.44,-130.42 395,-142.5 434.59,-166.95 424.41,-199.76 467,-218.5 537.69,-249.6 732.11,-226.52 818.74,-224.62"/>
<polygon fill="black" stroke="black" points="819.04,-228.12 829,-224.5 818.96,-221.12 819.04,-228.12"/>
</g>
<!-- RawDataAndMetadata[SampleRun]&#45;&gt;Position[NXsource, SampleRun] -->
<g id="edge39" class="edge">
<title>RawDataAndMetadata[SampleRun]:e&#45;&gt;Position[NXsource, SampleRun]:w</title>
<path fill="none" stroke="black" d="M345.5,-127.5C410.35,-127.5 417.43,-71.87 476.19,-66"/>
<polygon fill="black" stroke="black" points="476.68,-69.48 486.5,-65.5 476.34,-62.49 476.68,-69.48"/>
</g>
<!-- RawDataAndMetadata[SampleRun]&#45;&gt;Position[NXsample, SampleRun] -->
<g id="edge37" class="edge">
<title>RawDataAndMetadata[SampleRun]:e&#45;&gt;Position[NXsample, SampleRun]:w</title>
<path fill="none" stroke="black" d="M345.5,-127.5C405.28,-127.5 420.47,-103.47 475.2,-100.75"/>
<polygon fill="black" stroke="black" points="475.59,-104.24 485.5,-100.5 475.42,-97.24 475.59,-104.24"/>
</g>
<!-- RawDataAndMetadata[VanadiumRun]&#45;&gt;TofDetector[VanadiumRun] -->
<g id="edge45" class="edge">
<title>RawDataAndMetadata[VanadiumRun]:e&#45;&gt;TofDetector[VanadiumRun]:w</title>
<path fill="none" stroke="black" d="M352.5,-152.5C414.07,-152.5 408.66,-210.8 467,-230.5 613.48,-279.98 661.92,-250.82 811.97,-249.54"/>
<polygon fill="black" stroke="black" points="812.01,-253.04 822,-249.5 811.99,-246.04 812.01,-253.04"/>
</g>
<!-- RawDataAndMetadata[VanadiumRun]&#45;&gt;Position[NXsource, VanadiumRun] -->
<g id="edge40" class="edge">
<title>RawDataAndMetadata[VanadiumRun]:e&#45;&gt;Position[NXsource, VanadiumRun]:w</title>
<path fill="none" stroke="black" d="M352.5,-152.5C405.89,-152.5 420.74,-137.56 469.31,-135.69"/>
<polygon fill="black" stroke="black" points="469.57,-139.19 479.5,-135.5 469.44,-132.19 469.57,-139.19"/>
</g>
<!-- RawDataAndMetadata[VanadiumRun]&#45;&gt;Position[NXsample, VanadiumRun] -->
<g id="edge38" class="edge">
<title>RawDataAndMetadata[VanadiumRun]:e&#45;&gt;Position[NXsample, VanadiumRun]:w</title>
<path fill="none" stroke="black" d="M352.5,-152.5C405.12,-152.5 419.61,-168.32 467.46,-170.3"/>
<polygon fill="black" stroke="black" points="467.43,-173.8 477.5,-170.5 467.57,-166.8 467.43,-173.8"/>
</g>
</g>
</svg>
