<?xml version="1.0" encoding="utf-8" standalone="no"?>
<!DOCTYPE svg PUBLIC "-//W3C//DTD SVG 1.1//EN"
  "http://www.w3.org/Graphics/SVG/1.1/DTD/svg11.dtd">
<svg xmlns:xlink="http://www.w3.org/1999/xlink" width="382.603125pt" height="268.200625pt" viewBox="0 0 382.603125 268.200625" xmlns="http://www.w3.org/2000/svg" version="1.1">
 <metadata>
  <rdf:RDF xmlns:dc="http://purl.org/dc/elements/1.1/" xmlns:cc="http://creativecommons.org/ns#" xmlns:rdf="http://www.w3.org/1999/02/22-rdf-syntax-ns#">
   <cc:Work>
    <dc:type rdf:resource="http://purl.org/dc/dcmitype/StillImage"/>
    <dc:date>2024-12-02T08:24:56.151809</dc:date>
    <dc:format>image/svg+xml</dc:format>
    <dc:creator>
     <cc:Agent>
      <dc:title>Matplotlib v3.9.2, https://matplotlib.org/</dc:title>
     </cc:Agent>
    </dc:creator>
   </cc:Work>
  </rdf:RDF>
 </metadata>
 <defs>
  <style type="text/css">*{stroke-linejoin: round; stroke-linecap: butt}</style>
 </defs>
 <g id="figure_1">
  <g id="patch_1">
   <path d="M 0 268.200625 
L 382.603125 268.200625 
L 382.603125 0 
L 0 0 
z
" style="fill: #ffffff"/>
  </g>
  <g id="axes_1">
   <g id="patch_2">
    <path d="M 40.603125 228.96 
L 375.403125 228.96 
L 375.403125 7.2 
L 40.603125 7.2 
z
" style="fill: #ffffff"/>
   </g>
   <g id="matplotlib.axis_1">
    <g id="xtick_1">
     <g id="line2d_1">
      <defs>
       <path id="mf4a49d4227" d="M 0 0 
L 0 3.5 
" style="stroke: #000000; stroke-width: 0.8"/>
      </defs>
      <g>
       <use xlink:href="#mf4a49d4227" x="55.465121" y="228.96" style="stroke: #000000; stroke-width: 0.8"/>
      </g>
     </g>
     <g id="text_1">
      <!-- 0.0 -->
      <g transform="translate(47.513558 243.558437) scale(0.1 -0.1)">
       <defs>
        <path id="DejaVuSans-30" d="M 2034 4250 
Q 1547 4250 1301 3770 
Q 1056 3291 1056 2328 
Q 1056 1369 1301 889 
Q 1547 409 2034 409 
Q 2525 409 2770 889 
Q 3016 1369 3016 2328 
Q 3016 3291 2770 3770 
Q 2525 4250 2034 4250 
z
M 2034 4750 
Q 2819 4750 3233 4129 
Q 3647 3509 3647 2328 
Q 3647 1150 3233 529 
Q 2819 -91 2034 -91 
Q 1250 -91 836 529 
Q 422 1150 422 2328 
Q 422 3509 836 4129 
Q 1250 4750 2034 4750 
z
" transform="scale(0.015625)"/>
        <path id="DejaVuSans-2e" d="M 684 794 
L 1344 794 
L 1344 0 
L 684 0 
L 684 794 
z
" transform="scale(0.015625)"/>
       </defs>
       <use xlink:href="#DejaVuSans-30"/>
       <use xlink:href="#DejaVuSans-2e" x="63.623047"/>
       <use xlink:href="#DejaVuSans-30" x="95.410156"/>
      </g>
     </g>
    </g>
    <g id="xtick_2">
     <g id="line2d_2">
      <g>
       <use xlink:href="#mf4a49d4227" x="113.198521" y="228.96" style="stroke: #000000; stroke-width: 0.8"/>
      </g>
     </g>
     <g id="text_2">
      <!-- 0.2 -->
      <g transform="translate(105.246959 243.558437) scale(0.1 -0.1)">
       <defs>
        <path id="DejaVuSans-32" d="M 1228 531 
L 3431 531 
L 3431 0 
L 469 0 
L 469 531 
Q 828 903 1448 1529 
Q 2069 2156 2228 2338 
Q 2531 2678 2651 2914 
Q 2772 3150 2772 3378 
Q 2772 3750 2511 3984 
Q 2250 4219 1831 4219 
Q 1534 4219 1204 4116 
Q 875 4013 500 3803 
L 500 4441 
Q 881 4594 1212 4672 
Q 1544 4750 1819 4750 
Q 2544 4750 2975 4387 
Q 3406 4025 3406 3419 
Q 3406 3131 3298 2873 
Q 3191 2616 2906 2266 
Q 2828 2175 2409 1742 
Q 1991 1309 1228 531 
z
" transform="scale(0.015625)"/>
       </defs>
       <use xlink:href="#DejaVuSans-30"/>
       <use xlink:href="#DejaVuSans-2e" x="63.623047"/>
       <use xlink:href="#DejaVuSans-32" x="95.410156"/>
      </g>
     </g>
    </g>
    <g id="xtick_3">
     <g id="line2d_3">
      <g>
       <use xlink:href="#mf4a49d4227" x="170.931921" y="228.96" style="stroke: #000000; stroke-width: 0.8"/>
      </g>
     </g>
     <g id="text_3">
      <!-- 0.4 -->
      <g transform="translate(162.980359 243.558437) scale(0.1 -0.1)">
       <defs>
        <path id="DejaVuSans-34" d="M 2419 4116 
L 825 1625 
L 2419 1625 
L 2419 4116 
z
M 2253 4666 
L 3047 4666 
L 3047 1625 
L 3713 1625 
L 3713 1100 
L 3047 1100 
L 3047 0 
L 2419 0 
L 2419 1100 
L 313 1100 
L 313 1709 
L 2253 4666 
z
" transform="scale(0.015625)"/>
       </defs>
       <use xlink:href="#DejaVuSans-30"/>
       <use xlink:href="#DejaVuSans-2e" x="63.623047"/>
       <use xlink:href="#DejaVuSans-34" x="95.410156"/>
      </g>
     </g>
    </g>
    <g id="xtick_4">
     <g id="line2d_4">
      <g>
       <use xlink:href="#mf4a49d4227" x="228.665322" y="228.96" style="stroke: #000000; stroke-width: 0.8"/>
      </g>
     </g>
     <g id="text_4">
      <!-- 0.6 -->
      <g transform="translate(220.713759 243.558437) scale(0.1 -0.1)">
       <defs>
        <path id="DejaVuSans-36" d="M 2113 2584 
Q 1688 2584 1439 2293 
Q 1191 2003 1191 1497 
Q 1191 994 1439 701 
Q 1688 409 2113 409 
Q 2538 409 2786 701 
Q 3034 994 3034 1497 
Q 3034 2003 2786 2293 
Q 2538 2584 2113 2584 
z
M 3366 4563 
L 3366 3988 
Q 3128 4100 2886 4159 
Q 2644 4219 2406 4219 
Q 1781 4219 1451 3797 
Q 1122 3375 1075 2522 
Q 1259 2794 1537 2939 
Q 1816 3084 2150 3084 
Q 2853 3084 3261 2657 
Q 3669 2231 3669 1497 
Q 3669 778 3244 343 
Q 2819 -91 2113 -91 
Q 1303 -91 875 529 
Q 447 1150 447 2328 
Q 447 3434 972 4092 
Q 1497 4750 2381 4750 
Q 2619 4750 2861 4703 
Q 3103 4656 3366 4563 
z
" transform="scale(0.015625)"/>
       </defs>
       <use xlink:href="#DejaVuSans-30"/>
       <use xlink:href="#DejaVuSans-2e" x="63.623047"/>
       <use xlink:href="#DejaVuSans-36" x="95.410156"/>
      </g>
     </g>
    </g>
    <g id="xtick_5">
     <g id="line2d_5">
      <g>
       <use xlink:href="#mf4a49d4227" x="286.398722" y="228.96" style="stroke: #000000; stroke-width: 0.8"/>
      </g>
     </g>
     <g id="text_5">
      <!-- 0.8 -->
      <g transform="translate(278.447159 243.558437) scale(0.1 -0.1)">
       <defs>
        <path id="DejaVuSans-38" d="M 2034 2216 
Q 1584 2216 1326 1975 
Q 1069 1734 1069 1313 
Q 1069 891 1326 650 
Q 1584 409 2034 409 
Q 2484 409 2743 651 
Q 3003 894 3003 1313 
Q 3003 1734 2745 1975 
Q 2488 2216 2034 2216 
z
M 1403 2484 
Q 997 2584 770 2862 
Q 544 3141 544 3541 
Q 544 4100 942 4425 
Q 1341 4750 2034 4750 
Q 2731 4750 3128 4425 
Q 3525 4100 3525 3541 
Q 3525 3141 3298 2862 
Q 3072 2584 2669 2484 
Q 3125 2378 3379 2068 
Q 3634 1759 3634 1313 
Q 3634 634 3220 271 
Q 2806 -91 2034 -91 
Q 1263 -91 848 271 
Q 434 634 434 1313 
Q 434 1759 690 2068 
Q 947 2378 1403 2484 
z
M 1172 3481 
Q 1172 3119 1398 2916 
Q 1625 2713 2034 2713 
Q 2441 2713 2670 2916 
Q 2900 3119 2900 3481 
Q 2900 3844 2670 4047 
Q 2441 4250 2034 4250 
Q 1625 4250 1398 4047 
Q 1172 3844 1172 3481 
z
" transform="scale(0.015625)"/>
       </defs>
       <use xlink:href="#DejaVuSans-30"/>
       <use xlink:href="#DejaVuSans-2e" x="63.623047"/>
       <use xlink:href="#DejaVuSans-38" x="95.410156"/>
      </g>
     </g>
    </g>
    <g id="xtick_6">
     <g id="line2d_6">
      <g>
       <use xlink:href="#mf4a49d4227" x="344.132122" y="228.96" style="stroke: #000000; stroke-width: 0.8"/>
      </g>
     </g>
     <g id="text_6">
      <!-- 1.0 -->
      <g transform="translate(336.180559 243.558437) scale(0.1 -0.1)">
       <defs>
        <path id="DejaVuSans-31" d="M 794 531 
L 1825 531 
L 1825 4091 
L 703 3866 
L 703 4441 
L 1819 4666 
L 2450 4666 
L 2450 531 
L 3481 531 
L 3481 0 
L 794 0 
L 794 531 
z
" transform="scale(0.015625)"/>
       </defs>
       <use xlink:href="#DejaVuSans-31"/>
       <use xlink:href="#DejaVuSans-2e" x="63.623047"/>
       <use xlink:href="#DejaVuSans-30" x="95.410156"/>
      </g>
     </g>
    </g>
    <g id="text_7">
     <!-- wavelength [Å] -->
     <g transform="translate(169.965625 258.920937) scale(0.1 -0.1)">
      <defs>
       <path id="DejaVuSans-77" d="M 269 3500 
L 844 3500 
L 1563 769 
L 2278 3500 
L 2956 3500 
L 3675 769 
L 4391 3500 
L 4966 3500 
L 4050 0 
L 3372 0 
L 2619 2869 
L 1863 0 
L 1184 0 
L 269 3500 
z
" transform="scale(0.015625)"/>
       <path id="DejaVuSans-61" d="M 2194 1759 
Q 1497 1759 1228 1600 
Q 959 1441 959 1056 
Q 959 750 1161 570 
Q 1363 391 1709 391 
Q 2188 391 2477 730 
Q 2766 1069 2766 1631 
L 2766 1759 
L 2194 1759 
z
M 3341 1997 
L 3341 0 
L 2766 0 
L 2766 531 
Q 2569 213 2275 61 
Q 1981 -91 1556 -91 
Q 1019 -91 701 211 
Q 384 513 384 1019 
Q 384 1609 779 1909 
Q 1175 2209 1959 2209 
L 2766 2209 
L 2766 2266 
Q 2766 2663 2505 2880 
Q 2244 3097 1772 3097 
Q 1472 3097 1187 3025 
Q 903 2953 641 2809 
L 641 3341 
Q 956 3463 1253 3523 
Q 1550 3584 1831 3584 
Q 2591 3584 2966 3190 
Q 3341 2797 3341 1997 
z
" transform="scale(0.015625)"/>
       <path id="DejaVuSans-76" d="M 191 3500 
L 800 3500 
L 1894 563 
L 2988 3500 
L 3597 3500 
L 2284 0 
L 1503 0 
L 191 3500 
z
" transform="scale(0.015625)"/>
       <path id="DejaVuSans-65" d="M 3597 1894 
L 3597 1613 
L 953 1613 
Q 991 1019 1311 708 
Q 1631 397 2203 397 
Q 2534 397 2845 478 
Q 3156 559 3463 722 
L 3463 178 
Q 3153 47 2828 -22 
Q 2503 -91 2169 -91 
Q 1331 -91 842 396 
Q 353 884 353 1716 
Q 353 2575 817 3079 
Q 1281 3584 2069 3584 
Q 2775 3584 3186 3129 
Q 3597 2675 3597 1894 
z
M 3022 2063 
Q 3016 2534 2758 2815 
Q 2500 3097 2075 3097 
Q 1594 3097 1305 2825 
Q 1016 2553 972 2059 
L 3022 2063 
z
" transform="scale(0.015625)"/>
       <path id="DejaVuSans-6c" d="M 603 4863 
L 1178 4863 
L 1178 0 
L 603 0 
L 603 4863 
z
" transform="scale(0.015625)"/>
       <path id="DejaVuSans-6e" d="M 3513 2113 
L 3513 0 
L 2938 0 
L 2938 2094 
Q 2938 2591 2744 2837 
Q 2550 3084 2163 3084 
Q 1697 3084 1428 2787 
Q 1159 2491 1159 1978 
L 1159 0 
L 581 0 
L 581 3500 
L 1159 3500 
L 1159 2956 
Q 1366 3272 1645 3428 
Q 1925 3584 2291 3584 
Q 2894 3584 3203 3211 
Q 3513 2838 3513 2113 
z
" transform="scale(0.015625)"/>
       <path id="DejaVuSans-67" d="M 2906 1791 
Q 2906 2416 2648 2759 
Q 2391 3103 1925 3103 
Q 1463 3103 1205 2759 
Q 947 2416 947 1791 
Q 947 1169 1205 825 
Q 1463 481 1925 481 
Q 2391 481 2648 825 
Q 2906 1169 2906 1791 
z
M 3481 434 
Q 3481 -459 3084 -895 
Q 2688 -1331 1869 -1331 
Q 1566 -1331 1297 -1286 
Q 1028 -1241 775 -1147 
L 775 -588 
Q 1028 -725 1275 -790 
Q 1522 -856 1778 -856 
Q 2344 -856 2625 -561 
Q 2906 -266 2906 331 
L 2906 616 
Q 2728 306 2450 153 
Q 2172 0 1784 0 
Q 1141 0 747 490 
Q 353 981 353 1791 
Q 353 2603 747 3093 
Q 1141 3584 1784 3584 
Q 2172 3584 2450 3431 
Q 2728 3278 2906 2969 
L 2906 3500 
L 3481 3500 
L 3481 434 
z
" transform="scale(0.015625)"/>
       <path id="DejaVuSans-74" d="M 1172 4494 
L 1172 3500 
L 2356 3500 
L 2356 3053 
L 1172 3053 
L 1172 1153 
Q 1172 725 1289 603 
Q 1406 481 1766 481 
L 2356 481 
L 2356 0 
L 1766 0 
Q 1100 0 847 248 
Q 594 497 594 1153 
L 594 3053 
L 172 3053 
L 172 3500 
L 594 3500 
L 594 4494 
L 1172 4494 
z
" transform="scale(0.015625)"/>
       <path id="DejaVuSans-68" d="M 3513 2113 
L 3513 0 
L 2938 0 
L 2938 2094 
Q 2938 2591 2744 2837 
Q 2550 3084 2163 3084 
Q 1697 3084 1428 2787 
Q 1159 2491 1159 1978 
L 1159 0 
L 581 0 
L 581 4863 
L 1159 4863 
L 1159 2956 
Q 1366 3272 1645 3428 
Q 1925 3584 2291 3584 
Q 2894 3584 3203 3211 
Q 3513 2838 3513 2113 
z
" transform="scale(0.015625)"/>
       <path id="DejaVuSans-20" transform="scale(0.015625)"/>
       <path id="DejaVuSans-5b" d="M 550 4863 
L 1875 4863 
L 1875 4416 
L 1125 4416 
L 1125 -397 
L 1875 -397 
L 1875 -844 
L 550 -844 
L 550 4863 
z
" transform="scale(0.015625)"/>
       <path id="DejaVuSans-c5" d="M 2663 5081 
Q 2663 5278 2523 5417 
Q 2384 5556 2188 5556 
Q 1988 5556 1852 5420 
Q 1716 5284 1716 5081 
Q 1716 4884 1853 4746 
Q 1991 4609 2188 4609 
Q 2384 4609 2523 4746 
Q 2663 4884 2663 5081 
z
M 2188 4044 
L 1338 1722 
L 3041 1722 
L 2188 4044 
z
M 1716 4366 
Q 1525 4494 1428 4673 
Q 1331 4853 1331 5081 
Q 1331 5441 1579 5691 
Q 1828 5941 2188 5941 
Q 2544 5941 2795 5689 
Q 3047 5438 3047 5081 
Q 3047 4863 2948 4678 
Q 2850 4494 2663 4366 
L 4325 0 
L 3669 0 
L 3244 1197 
L 1141 1197 
L 716 0 
L 50 0 
L 1716 4366 
z
" transform="scale(0.015625)"/>
       <path id="DejaVuSans-5d" d="M 1947 4863 
L 1947 -844 
L 622 -844 
L 622 -397 
L 1369 -397 
L 1369 4416 
L 622 4416 
L 622 4863 
L 1947 4863 
z
" transform="scale(0.015625)"/>
      </defs>
      <use xlink:href="#DejaVuSans-77"/>
      <use xlink:href="#DejaVuSans-61" x="81.787109"/>
      <use xlink:href="#DejaVuSans-76" x="143.066406"/>
      <use xlink:href="#DejaVuSans-65" x="202.246094"/>
      <use xlink:href="#DejaVuSans-6c" x="263.769531"/>
      <use xlink:href="#DejaVuSans-65" x="291.552734"/>
      <use xlink:href="#DejaVuSans-6e" x="353.076172"/>
      <use xlink:href="#DejaVuSans-67" x="416.455078"/>
      <use xlink:href="#DejaVuSans-74" x="479.931641"/>
      <use xlink:href="#DejaVuSans-68" x="519.140625"/>
      <use xlink:href="#DejaVuSans-20" x="582.519531"/>
      <use xlink:href="#DejaVuSans-5b" x="614.306641"/>
      <use xlink:href="#DejaVuSans-c5" x="653.320312"/>
      <use xlink:href="#DejaVuSans-5d" x="721.728516"/>
     </g>
    </g>
   </g>
   <g id="matplotlib.axis_2">
    <g id="ytick_1">
     <g id="line2d_7">
      <defs>
       <path id="macd8631013" d="M 0 0 
L -3.5 0 
" style="stroke: #000000; stroke-width: 0.8"/>
      </defs>
      <g>
       <use xlink:href="#macd8631013" x="40.603125" y="219.611496" style="stroke: #000000; stroke-width: 0.8"/>
      </g>
     </g>
     <g id="text_8">
      <!-- 0 -->
      <g transform="translate(27.240625 223.410715) scale(0.1 -0.1)">
       <use xlink:href="#DejaVuSans-30"/>
      </g>
     </g>
    </g>
    <g id="ytick_2">
     <g id="line2d_8">
      <g>
       <use xlink:href="#macd8631013" x="40.603125" y="191.595808" style="stroke: #000000; stroke-width: 0.8"/>
      </g>
     </g>
     <g id="text_9">
      <!-- 10 -->
      <g transform="translate(20.878125 195.395027) scale(0.1 -0.1)">
       <use xlink:href="#DejaVuSans-31"/>
       <use xlink:href="#DejaVuSans-30" x="63.623047"/>
      </g>
     </g>
    </g>
    <g id="ytick_3">
     <g id="line2d_9">
      <g>
       <use xlink:href="#macd8631013" x="40.603125" y="163.58012" style="stroke: #000000; stroke-width: 0.8"/>
      </g>
     </g>
     <g id="text_10">
      <!-- 20 -->
      <g transform="translate(20.878125 167.379338) scale(0.1 -0.1)">
       <use xlink:href="#DejaVuSans-32"/>
       <use xlink:href="#DejaVuSans-30" x="63.623047"/>
      </g>
     </g>
    </g>
    <g id="ytick_4">
     <g id="line2d_10">
      <g>
       <use xlink:href="#macd8631013" x="40.603125" y="135.564431" style="stroke: #000000; stroke-width: 0.8"/>
      </g>
     </g>
     <g id="text_11">
      <!-- 30 -->
      <g transform="translate(20.878125 139.36365) scale(0.1 -0.1)">
       <defs>
        <path id="DejaVuSans-33" d="M 2597 2516 
Q 3050 2419 3304 2112 
Q 3559 1806 3559 1356 
Q 3559 666 3084 287 
Q 2609 -91 1734 -91 
Q 1441 -91 1130 -33 
Q 819 25 488 141 
L 488 750 
Q 750 597 1062 519 
Q 1375 441 1716 441 
Q 2309 441 2620 675 
Q 2931 909 2931 1356 
Q 2931 1769 2642 2001 
Q 2353 2234 1838 2234 
L 1294 2234 
L 1294 2753 
L 1863 2753 
Q 2328 2753 2575 2939 
Q 2822 3125 2822 3475 
Q 2822 3834 2567 4026 
Q 2313 4219 1838 4219 
Q 1578 4219 1281 4162 
Q 984 4106 628 3988 
L 628 4550 
Q 988 4650 1302 4700 
Q 1616 4750 1894 4750 
Q 2613 4750 3031 4423 
Q 3450 4097 3450 3541 
Q 3450 3153 3228 2886 
Q 3006 2619 2597 2516 
z
" transform="scale(0.015625)"/>
       </defs>
       <use xlink:href="#DejaVuSans-33"/>
       <use xlink:href="#DejaVuSans-30" x="63.623047"/>
      </g>
     </g>
    </g>
    <g id="ytick_5">
     <g id="line2d_11">
      <g>
       <use xlink:href="#macd8631013" x="40.603125" y="107.548743" style="stroke: #000000; stroke-width: 0.8"/>
      </g>
     </g>
     <g id="text_12">
      <!-- 40 -->
      <g transform="translate(20.878125 111.347962) scale(0.1 -0.1)">
       <use xlink:href="#DejaVuSans-34"/>
       <use xlink:href="#DejaVuSans-30" x="63.623047"/>
      </g>
     </g>
    </g>
    <g id="ytick_6">
     <g id="line2d_12">
      <g>
       <use xlink:href="#macd8631013" x="40.603125" y="79.533054" style="stroke: #000000; stroke-width: 0.8"/>
      </g>
     </g>
     <g id="text_13">
      <!-- 50 -->
      <g transform="translate(20.878125 83.332273) scale(0.1 -0.1)">
       <defs>
        <path id="DejaVuSans-35" d="M 691 4666 
L 3169 4666 
L 3169 4134 
L 1269 4134 
L 1269 2991 
Q 1406 3038 1543 3061 
Q 1681 3084 1819 3084 
Q 2600 3084 3056 2656 
Q 3513 2228 3513 1497 
Q 3513 744 3044 326 
Q 2575 -91 1722 -91 
Q 1428 -91 1123 -41 
Q 819 9 494 109 
L 494 744 
Q 775 591 1075 516 
Q 1375 441 1709 441 
Q 2250 441 2565 725 
Q 2881 1009 2881 1497 
Q 2881 1984 2565 2268 
Q 2250 2553 1709 2553 
Q 1456 2553 1204 2497 
Q 953 2441 691 2322 
L 691 4666 
z
" transform="scale(0.015625)"/>
       </defs>
       <use xlink:href="#DejaVuSans-35"/>
       <use xlink:href="#DejaVuSans-30" x="63.623047"/>
      </g>
     </g>
    </g>
    <g id="ytick_7">
     <g id="line2d_13">
      <g>
       <use xlink:href="#macd8631013" x="40.603125" y="51.517366" style="stroke: #000000; stroke-width: 0.8"/>
      </g>
     </g>
     <g id="text_14">
      <!-- 60 -->
      <g transform="translate(20.878125 55.316585) scale(0.1 -0.1)">
       <use xlink:href="#DejaVuSans-36"/>
       <use xlink:href="#DejaVuSans-30" x="63.623047"/>
      </g>
     </g>
    </g>
    <g id="ytick_8">
     <g id="line2d_14">
      <g>
       <use xlink:href="#macd8631013" x="40.603125" y="23.501678" style="stroke: #000000; stroke-width: 0.8"/>
      </g>
     </g>
     <g id="text_15">
      <!-- 70 -->
      <g transform="translate(20.878125 27.300896) scale(0.1 -0.1)">
       <defs>
        <path id="DejaVuSans-37" d="M 525 4666 
L 3525 4666 
L 3525 4397 
L 1831 0 
L 1172 0 
L 2766 4134 
L 525 4134 
L 525 4666 
z
" transform="scale(0.015625)"/>
       </defs>
       <use xlink:href="#DejaVuSans-37"/>
       <use xlink:href="#DejaVuSans-30" x="63.623047"/>
      </g>
     </g>
    </g>
    <g id="text_16">
     <!-- [counts/uAh] -->
     <g transform="translate(14.798438 150.134687) rotate(-90) scale(0.1 -0.1)">
      <defs>
       <path id="DejaVuSans-63" d="M 3122 3366 
L 3122 2828 
Q 2878 2963 2633 3030 
Q 2388 3097 2138 3097 
Q 1578 3097 1268 2742 
Q 959 2388 959 1747 
Q 959 1106 1268 751 
Q 1578 397 2138 397 
Q 2388 397 2633 464 
Q 2878 531 3122 666 
L 3122 134 
Q 2881 22 2623 -34 
Q 2366 -91 2075 -91 
Q 1284 -91 818 406 
Q 353 903 353 1747 
Q 353 2603 823 3093 
Q 1294 3584 2113 3584 
Q 2378 3584 2631 3529 
Q 2884 3475 3122 3366 
z
" transform="scale(0.015625)"/>
       <path id="DejaVuSans-6f" d="M 1959 3097 
Q 1497 3097 1228 2736 
Q 959 2375 959 1747 
Q 959 1119 1226 758 
Q 1494 397 1959 397 
Q 2419 397 2687 759 
Q 2956 1122 2956 1747 
Q 2956 2369 2687 2733 
Q 2419 3097 1959 3097 
z
M 1959 3584 
Q 2709 3584 3137 3096 
Q 3566 2609 3566 1747 
Q 3566 888 3137 398 
Q 2709 -91 1959 -91 
Q 1206 -91 779 398 
Q 353 888 353 1747 
Q 353 2609 779 3096 
Q 1206 3584 1959 3584 
z
" transform="scale(0.015625)"/>
       <path id="DejaVuSans-75" d="M 544 1381 
L 544 3500 
L 1119 3500 
L 1119 1403 
Q 1119 906 1312 657 
Q 1506 409 1894 409 
Q 2359 409 2629 706 
Q 2900 1003 2900 1516 
L 2900 3500 
L 3475 3500 
L 3475 0 
L 2900 0 
L 2900 538 
Q 2691 219 2414 64 
Q 2138 -91 1772 -91 
Q 1169 -91 856 284 
Q 544 659 544 1381 
z
M 1991 3584 
L 1991 3584 
z
" transform="scale(0.015625)"/>
       <path id="DejaVuSans-73" d="M 2834 3397 
L 2834 2853 
Q 2591 2978 2328 3040 
Q 2066 3103 1784 3103 
Q 1356 3103 1142 2972 
Q 928 2841 928 2578 
Q 928 2378 1081 2264 
Q 1234 2150 1697 2047 
L 1894 2003 
Q 2506 1872 2764 1633 
Q 3022 1394 3022 966 
Q 3022 478 2636 193 
Q 2250 -91 1575 -91 
Q 1294 -91 989 -36 
Q 684 19 347 128 
L 347 722 
Q 666 556 975 473 
Q 1284 391 1588 391 
Q 1994 391 2212 530 
Q 2431 669 2431 922 
Q 2431 1156 2273 1281 
Q 2116 1406 1581 1522 
L 1381 1569 
Q 847 1681 609 1914 
Q 372 2147 372 2553 
Q 372 3047 722 3315 
Q 1072 3584 1716 3584 
Q 2034 3584 2315 3537 
Q 2597 3491 2834 3397 
z
" transform="scale(0.015625)"/>
       <path id="DejaVuSans-2f" d="M 1625 4666 
L 2156 4666 
L 531 -594 
L 0 -594 
L 1625 4666 
z
" transform="scale(0.015625)"/>
       <path id="DejaVuSans-41" d="M 2188 4044 
L 1331 1722 
L 3047 1722 
L 2188 4044 
z
M 1831 4666 
L 2547 4666 
L 4325 0 
L 3669 0 
L 3244 1197 
L 1141 1197 
L 716 0 
L 50 0 
L 1831 4666 
z
" transform="scale(0.015625)"/>
      </defs>
      <use xlink:href="#DejaVuSans-5b"/>
      <use xlink:href="#DejaVuSans-63" x="39.013672"/>
      <use xlink:href="#DejaVuSans-6f" x="93.994141"/>
      <use xlink:href="#DejaVuSans-75" x="155.175781"/>
      <use xlink:href="#DejaVuSans-6e" x="218.554688"/>
      <use xlink:href="#DejaVuSans-74" x="281.933594"/>
      <use xlink:href="#DejaVuSans-73" x="321.142578"/>
      <use xlink:href="#DejaVuSans-2f" x="373.242188"/>
      <use xlink:href="#DejaVuSans-75" x="406.933594"/>
      <use xlink:href="#DejaVuSans-41" x="470.3125"/>
      <use xlink:href="#DejaVuSans-68" x="538.720703"/>
      <use xlink:href="#DejaVuSans-5d" x="602.099609"/>
     </g>
    </g>
   </g>
   <g id="patch_3">
    <path d="M 40.603125 228.96 
L 40.603125 7.2 
" style="fill: none; stroke: #000000; stroke-width: 0.8; stroke-linejoin: miter; stroke-linecap: square"/>
   </g>
   <g id="patch_4">
    <path d="M 375.403125 228.96 
L 375.403125 7.2 
" style="fill: none; stroke: #000000; stroke-width: 0.8; stroke-linejoin: miter; stroke-linecap: square"/>
   </g>
   <g id="patch_5">
    <path d="M 40.603125 228.96 
L 375.403125 228.96 
" style="fill: none; stroke: #000000; stroke-width: 0.8; stroke-linejoin: miter; stroke-linecap: square"/>
   </g>
   <g id="patch_6">
    <path d="M 40.603125 7.2 
L 375.403125 7.2 
" style="fill: none; stroke: #000000; stroke-width: 0.8; stroke-linejoin: miter; stroke-linecap: square"/>
   </g>
   <g id="line2d_15">
    <path d="M 55.821307 195.357371 
L 56.835852 195.357371 
L 56.835852 200.009305 
L 57.850398 200.009305 
L 57.850398 201.419707 
L 58.864943 201.419707 
L 58.864943 202.815765 
L 59.879489 202.815765 
L 59.879489 203.750455 
L 60.894034 203.750455 
L 60.894034 203.95843 
L 61.90858 203.95843 
L 61.90858 204.620601 
L 62.923125 204.620601 
L 62.923125 205.244525 
L 63.93767 205.244525 
L 63.93767 204.257243 
L 64.952216 204.257243 
L 64.952216 201.598995 
L 65.966761 201.598995 
L 65.966761 198.794926 
L 66.981307 198.794926 
L 66.981307 197.876969 
L 67.995852 197.876969 
L 67.995852 196.347042 
L 69.010398 196.347042 
L 69.010398 196.012371 
L 70.024943 196.012371 
L 70.024943 194.884049 
L 71.039489 194.884049 
L 71.039489 193.540582 
L 72.054034 193.540582 
L 72.054034 192.785181 
L 73.06858 192.785181 
L 73.06858 191.585144 
L 74.083125 191.585144 
L 74.083125 190.342078 
L 75.09767 190.342078 
L 75.09767 188.733264 
L 76.112216 188.733264 
L 76.112216 187.423264 
L 77.126761 187.423264 
L 77.126761 185.539541 
L 78.141307 185.539541 
L 78.141307 184.08133 
L 79.155852 184.08133 
L 79.155852 182.348209 
L 80.170398 182.348209 
L 80.170398 179.943355 
L 81.184943 179.943355 
L 81.184943 177.710617 
L 82.199489 177.710617 
L 82.199489 175.561548 
L 83.214034 175.561548 
L 83.214034 173.249924 
L 84.22858 173.249924 
L 84.22858 170.65861 
L 85.243125 170.65861 
L 85.243125 168.700781 
L 86.25767 168.700781 
L 86.25767 165.824996 
L 87.272216 165.824996 
L 87.272216 163.200215 
L 88.286761 163.200215 
L 88.286761 162.220105 
L 89.301307 162.220105 
L 89.301307 158.648682 
L 90.315852 158.648682 
L 90.315852 156.043025 
L 91.330398 156.043025 
L 91.330398 153.858097 
L 92.344943 153.858097 
L 92.344943 151.818991 
L 93.359489 151.818991 
L 93.359489 149.684265 
L 94.374034 149.684265 
L 94.374034 147.862696 
L 95.38858 147.862696 
L 95.38858 144.922367 
L 96.403125 144.922367 
L 96.403125 144.42275 
L 97.41767 144.42275 
L 97.41767 144.018754 
L 98.432216 144.018754 
L 98.432216 142.292805 
L 99.446761 142.292805 
L 99.446761 142.823498 
L 100.461307 142.823498 
L 100.461307 141.083206 
L 101.475852 141.083206 
L 101.475852 139.88556 
L 102.490398 139.88556 
L 102.490398 140.660086 
L 103.504943 140.660086 
L 103.504943 139.974009 
L 104.519489 139.974009 
L 104.519489 142.204356 
L 106.54858 142.22587 
L 106.54858 144.79567 
L 107.563125 144.79567 
L 107.563125 143.423516 
L 108.57767 143.423516 
L 108.57767 139.959666 
L 109.592216 139.959666 
L 109.592216 138.386709 
L 110.606761 138.386709 
L 110.606761 136.904593 
L 111.621307 136.904593 
L 111.621307 135.601764 
L 112.635852 135.601764 
L 112.635852 136.251983 
L 113.650398 136.251983 
L 113.650398 136.651198 
L 114.664943 136.651198 
L 114.664943 134.081399 
L 115.679489 134.081399 
L 115.679489 132.690121 
L 116.694034 132.690121 
L 116.694034 131.055012 
L 117.70858 131.055012 
L 117.70858 130.787275 
L 118.723125 130.787275 
L 118.723125 129.957767 
L 119.73767 129.957767 
L 119.73767 126.575194 
L 120.752216 126.575194 
L 120.752216 125.927366 
L 121.766761 125.927366 
L 121.766761 125.212603 
L 122.781307 125.212603 
L 122.781307 124.108187 
L 123.795852 124.108187 
L 123.795852 122.587821 
L 124.810398 122.587821 
L 124.810398 122.355942 
L 125.824943 122.355942 
L 125.824943 120.316836 
L 126.839489 120.316836 
L 126.839489 118.949464 
L 127.854034 118.949464 
L 127.854034 117.371726 
L 128.86858 117.371726 
L 128.86858 116.166909 
L 129.883125 116.166909 
L 129.883125 115.655339 
L 130.89767 115.655339 
L 130.89767 113.107054 
L 131.912216 113.107054 
L 131.912216 111.809007 
L 132.926761 111.809007 
L 132.926761 110.530083 
L 133.941307 110.530083 
L 133.941307 108.660704 
L 134.955852 108.660704 
L 134.955852 108.294955 
L 135.970398 108.294955 
L 135.970398 105.201634 
L 136.984943 105.201634 
L 136.984943 102.904353 
L 137.999489 102.904353 
L 137.999489 102.765703 
L 139.014034 102.765703 
L 139.014034 100.066816 
L 140.02858 100.066816 
L 140.02858 98.204608 
L 141.043125 98.204608 
L 141.043125 98.422145 
L 142.05767 98.422145 
L 142.05767 94.970246 
L 143.072216 94.970246 
L 143.072216 93.158239 
L 144.086761 93.158239 
L 144.086761 90.662545 
L 145.101307 90.662545 
L 145.101307 87.856085 
L 146.115852 87.856085 
L 146.115852 86.957253 
L 147.130398 86.957253 
L 147.130398 86.024954 
L 148.144943 86.024954 
L 148.144943 83.569899 
L 149.159489 83.569899 
L 149.159489 82.176231 
L 150.174034 82.176231 
L 150.174034 80.046286 
L 151.18858 80.046286 
L 151.18858 79.188092 
L 152.203125 79.188092 
L 152.203125 76.93384 
L 153.21767 76.93384 
L 153.21767 75.705117 
L 154.232216 75.705117 
L 154.232216 73.785537 
L 155.246761 73.785537 
L 155.246761 73.046869 
L 156.261307 73.046869 
L 156.261307 69.771869 
L 157.275852 69.771869 
L 157.275852 69.480226 
L 158.290398 69.480226 
L 158.290398 68.179788 
L 159.304943 68.179788 
L 159.304943 66.135901 
L 160.319489 66.135901 
L 160.319489 63.491996 
L 161.334034 63.491996 
L 161.334034 62.404313 
L 162.34858 62.404313 
L 162.34858 61.682379 
L 163.363125 61.682379 
L 163.363125 59.561996 
L 164.37767 59.561996 
L 164.37767 57.518109 
L 165.392216 57.518109 
L 165.392216 57.145189 
L 166.406761 57.145189 
L 166.406761 55.675025 
L 167.421307 55.675025 
L 167.421307 54.245499 
L 168.435852 54.245499 
L 168.435852 53.470973 
L 169.450398 53.470973 
L 169.450398 51.460554 
L 170.464943 51.460554 
L 170.464943 49.440572 
L 171.479489 49.440572 
L 171.479489 49.079604 
L 172.494034 49.079604 
L 172.494034 46.433309 
L 173.50858 46.433309 
L 173.50858 44.841228 
L 174.523125 44.841228 
L 174.523125 43.942396 
L 175.53767 43.942396 
L 175.53767 44.255553 
L 176.552216 44.255553 
L 176.552216 42.718454 
L 177.566761 42.718454 
L 177.566761 41.221994 
L 178.581307 41.221994 
L 178.581307 40.935133 
L 179.595852 40.935133 
L 179.595852 39.335881 
L 180.610398 39.335881 
L 180.610398 38.231465 
L 181.624943 38.231465 
L 181.624943 39.130297 
L 182.639489 39.130297 
L 182.639489 37.401958 
L 183.654034 37.401958 
L 183.654034 35.881593 
L 184.66858 35.881593 
L 184.66858 35.319822 
L 185.683125 35.319822 
L 185.683125 34.452067 
L 186.69767 34.452067 
L 186.69767 33.67037 
L 187.712216 33.67037 
L 187.712216 33.333308 
L 188.726761 33.333308 
L 188.726761 34.236921 
L 189.741307 34.236921 
L 189.741307 33.503034 
L 190.755852 33.503034 
L 190.755852 31.903782 
L 191.770398 31.903782 
L 191.770398 32.329293 
L 192.784943 32.329293 
L 192.784943 30.464694 
L 193.799489 30.464694 
L 193.799489 28.635953 
L 194.814034 28.635953 
L 194.814034 29.831209 
L 195.82858 29.831209 
L 195.82858 30.761118 
L 196.843125 30.761118 
L 196.843125 30.543581 
L 197.85767 30.543581 
L 197.85767 28.812851 
L 198.872216 28.812851 
L 198.872216 29.200114 
L 199.886761 29.200114 
L 199.886761 29.446337 
L 200.901307 29.446337 
L 200.901307 28.274986 
L 201.915852 28.274986 
L 201.915852 27.854256 
L 202.930398 27.854256 
L 202.930398 28.427979 
L 203.944943 28.427979 
L 203.944943 27.261409 
L 204.959489 27.261409 
L 204.959489 27.486117 
L 205.974034 27.486117 
L 205.974034 28.043107 
L 206.98858 28.043107 
L 206.98858 27.720388 
L 208.003125 27.720388 
L 208.003125 25.867741 
L 209.01767 25.867741 
L 209.01767 26.018344 
L 210.032216 26.018344 
L 210.032216 26.362577 
L 211.046761 26.362577 
L 211.046761 25.246209 
L 212.061307 25.246209 
L 212.061307 25.078873 
L 213.075852 25.078873 
L 213.075852 24.961738 
L 214.090398 24.961738 
L 214.090398 25.571318 
L 215.104943 25.571318 
L 215.104943 26.910004 
L 216.119489 26.910004 
L 216.119489 27.923581 
L 217.134034 27.923581 
L 217.134034 26.644658 
L 218.14858 26.644658 
L 218.14858 26.168946 
L 219.163125 26.168946 
L 219.163125 27.744293 
L 220.17767 27.744293 
L 220.17767 28.234347 
L 221.192216 28.234347 
L 221.192216 26.04703 
L 222.206761 26.04703 
L 222.206761 25.131464 
L 223.221307 25.131464 
L 223.221307 25.870132 
L 224.235852 25.870132 
L 224.235852 24.935442 
L 225.250398 24.935442 
L 225.250398 24.574475 
L 226.264943 24.574475 
L 226.264943 25.870132 
L 227.279489 25.870132 
L 227.279489 25.148198 
L 228.294034 25.148198 
L 228.294034 23.505916 
L 229.30858 23.505916 
L 229.30858 25.047796 
L 230.323125 25.047796 
L 230.323125 24.799183 
L 231.33767 24.799183 
L 231.33767 23.297942 
L 232.352216 23.297942 
L 232.352216 22.58796 
L 233.366761 22.58796 
L 233.366761 20.491482 
L 234.381307 20.491482 
L 234.381307 23.132997 
L 235.395852 23.132997 
L 235.395852 20.921774 
L 236.410398 20.921774 
L 236.410398 20.656427 
L 237.424943 20.656427 
L 237.424943 19.164748 
L 238.439489 19.164748 
L 238.439489 17.976664 
L 239.454034 17.976664 
L 239.454034 20.67077 
L 240.46858 20.67077 
L 240.46858 19.344037 
L 241.483125 19.344037 
L 241.483125 17.974274 
L 242.49767 17.974274 
L 242.49767 19.059566 
L 243.512216 19.059566 
L 243.512216 20.804639 
L 244.526761 20.804639 
L 244.526761 22.614256 
L 245.541307 22.614256 
L 245.541307 23.611099 
L 246.555852 23.611099 
L 246.555852 21.88515 
L 247.570398 21.88515 
L 247.570398 21.672394 
L 248.584943 21.672394 
L 248.584943 22.272413 
L 249.599489 22.272413 
L 249.599489 20.675551 
L 250.614034 20.675551 
L 250.614034 20.986318 
L 251.62858 20.986318 
L 251.62858 21.471592 
L 252.643125 21.471592 
L 252.643125 21.670004 
L 254.672216 21.684347 
L 254.672216 20.630132 
L 255.686761 20.630132 
L 255.686761 21.015004 
L 256.701307 21.015004 
L 256.701307 21.254055 
L 257.715852 21.254055 
L 257.715852 22.652504 
L 258.730398 22.652504 
L 258.730398 23.345752 
L 259.744943 23.345752 
L 259.744943 21.473982 
L 260.759489 21.473982 
L 260.759489 21.289913 
L 261.774034 21.289913 
L 261.774034 18.980679 
L 262.78858 18.980679 
L 262.78858 19.454 
L 263.803125 19.454 
L 263.803125 23.214274 
L 264.81767 23.214274 
L 264.81767 22.083562 
L 265.832216 22.083562 
L 265.832216 21.870807 
L 266.846761 21.870807 
L 266.846761 22.518635 
L 267.861307 22.518635 
L 267.861307 25.755387 
L 268.875852 25.755387 
L 268.875852 24.445387 
L 269.890398 24.445387 
L 269.890398 24.600771 
L 270.904943 24.600771 
L 270.904943 23.109092 
L 271.919489 23.109092 
L 271.919489 23.436592 
L 272.934034 23.436592 
L 272.934034 21.6963 
L 274.963125 21.713033 
L 274.963125 22.226993 
L 275.97767 22.226993 
L 275.97767 24.306738 
L 278.006761 24.31869 
L 278.006761 24.825479 
L 279.021307 24.825479 
L 279.021307 26.828727 
L 280.035852 26.828727 
L 280.035852 28.272596 
L 281.050398 28.272596 
L 281.050398 29.204895 
L 282.064943 29.204895 
L 282.064943 29.723636 
L 283.079489 29.723636 
L 283.079489 30.110899 
L 284.094034 30.110899 
L 284.094034 29.814475 
L 285.10858 29.814475 
L 285.10858 29.637578 
L 286.123125 29.637578 
L 286.123125 30.051136 
L 287.13767 30.051136 
L 287.13767 29.656702 
L 288.152216 29.656702 
L 288.152216 29.479804 
L 289.166761 29.479804 
L 289.166761 31.265516 
L 290.181307 31.265516 
L 290.181307 28.984968 
L 291.195852 28.984968 
L 291.195852 28.093307 
L 293.224943 28.174585 
L 293.224943 28.592924 
L 294.239489 28.592924 
L 294.239489 31.509348 
L 295.254034 31.509348 
L 295.254034 33.780333 
L 296.26858 33.780333 
L 296.26858 35.549312 
L 297.283125 35.549312 
L 297.283125 38.092815 
L 298.29767 38.092815 
L 298.29767 40.662615 
L 299.312216 40.662615 
L 299.312216 41.853089 
L 300.326761 41.853089 
L 300.326761 41.504075 
L 302.355852 41.525589 
L 302.355852 40.179732 
L 303.370398 40.179732 
L 303.370398 39.28568 
L 304.384943 39.28568 
L 304.384943 40.234713 
L 305.399489 40.234713 
L 305.399489 39.775735 
L 306.414034 39.775735 
L 306.414034 40.373363 
L 308.443125 40.308819 
L 308.443125 40.674567 
L 310.472216 40.665005 
L 310.472216 40.134312 
L 311.486761 40.134312 
L 311.486761 41.262633 
L 312.501307 41.262633 
L 312.501307 41.037925 
L 313.515852 41.037925 
L 313.515852 38.386848 
L 314.530398 38.386848 
L 314.530398 36.472049 
L 315.544943 36.472049 
L 315.544943 37.062505 
L 316.559489 37.062505 
L 316.559489 37.437815 
L 317.574034 37.437815 
L 317.574034 38.315133 
L 318.58858 38.315133 
L 318.58858 37.839421 
L 319.603125 37.839421 
L 319.603125 39.976538 
L 320.61767 39.976538 
L 320.61767 41.568619 
L 321.632216 41.568619 
L 321.632216 40.445078 
L 322.646761 40.445078 
L 322.646761 41.406064 
L 323.661307 41.406064 
L 323.661307 40.801264 
L 324.675852 40.801264 
L 324.675852 43.72486 
L 325.690398 43.72486 
L 325.690398 44.300973 
L 326.704943 44.300973 
L 326.704943 45.83329 
L 327.719489 45.83329 
L 327.719489 47.078747 
L 328.734034 47.078747 
L 328.734034 48.230973 
L 329.74858 48.230973 
L 329.74858 48.670827 
L 330.763125 48.670827 
L 330.763125 49.380809 
L 331.77767 49.380809 
L 331.77767 51.166521 
L 332.792216 51.166521 
L 332.792216 52.361776 
L 333.806761 52.361776 
L 333.806761 51.137835 
L 334.821307 51.137835 
L 334.821307 53.470973 
L 335.835852 53.470973 
L 335.835852 54.185736 
L 336.850398 54.185736 
L 336.850398 56.282214 
L 337.864943 56.282214 
L 337.864943 56.143565 
L 338.879489 56.143565 
L 338.879489 55.550718 
L 339.894034 55.550718 
L 339.894034 57.121284 
L 340.90858 57.121284 
L 340.90858 59.655226 
L 341.923125 59.655226 
L 341.923125 59.91101 
L 342.93767 59.91101 
L 342.93767 58.820937 
L 343.952216 58.820937 
L 343.952216 57.769112 
L 344.966761 57.769112 
L 344.966761 60.501467 
L 345.981307 60.501467 
L 345.981307 65.547836 
L 346.995852 65.547836 
L 346.995852 74.254077 
L 348.010398 74.254077 
L 348.010398 103.525886 
L 349.024943 103.525886 
L 349.024943 137.404209 
L 350.039489 137.404209 
L 350.039489 170.646657 
L 351.054034 170.646657 
L 351.054034 188.135636 
L 352.06858 188.135636 
L 352.06858 194.298374 
L 353.083125 194.298374 
L 353.083125 199.449926 
L 354.09767 199.449926 
L 354.09767 202.861185 
L 355.112216 202.861185 
L 355.112216 205.87801 
L 356.126761 205.87801 
L 356.126761 208.689251 
L 357.141307 208.689251 
L 357.141307 212.251113 
L 358.155852 212.251113 
L 358.155852 215.891861 
L 359.170398 215.891861 
L 359.170398 218.836971 
L 360.184943 218.836971 
L 360.184943 218.836971 
" clip-path="url(#p60b076812c)" style="fill: none; stroke: #1f77b4; stroke-width: 1.5; stroke-linecap: square"/>
   </g>
   <g id="LineCollection_1">
    <path d="M 56.32858 195.59816 
L 56.32858 195.116581 
" clip-path="url(#p60b076812c)" style="fill: none; stroke: #1f77b4; stroke-width: 1.5"/>
    <path d="M 57.343125 200.225775 
L 57.343125 199.792835 
" clip-path="url(#p60b076812c)" style="fill: none; stroke: #1f77b4; stroke-width: 1.5"/>
    <path d="M 58.35767 201.628244 
L 58.35767 201.21117 
" clip-path="url(#p60b076812c)" style="fill: none; stroke: #1f77b4; stroke-width: 1.5"/>
    <path d="M 59.372216 203.016141 
L 59.372216 202.61539 
" clip-path="url(#p60b076812c)" style="fill: none; stroke: #1f77b4; stroke-width: 1.5"/>
    <path d="M 60.386761 203.945175 
L 60.386761 203.555735 
" clip-path="url(#p60b076812c)" style="fill: none; stroke: #1f77b4; stroke-width: 1.5"/>
    <path d="M 61.401307 204.151869 
L 61.401307 203.76499 
" clip-path="url(#p60b076812c)" style="fill: none; stroke: #1f77b4; stroke-width: 1.5"/>
    <path d="M 62.415852 204.809905 
L 62.415852 204.431297 
" clip-path="url(#p60b076812c)" style="fill: none; stroke: #1f77b4; stroke-width: 1.5"/>
    <path d="M 63.430398 205.429847 
L 63.430398 205.059202 
" clip-path="url(#p60b076812c)" style="fill: none; stroke: #1f77b4; stroke-width: 1.5"/>
    <path d="M 64.444943 204.448828 
L 64.444943 204.065659 
" clip-path="url(#p60b076812c)" style="fill: none; stroke: #1f77b4; stroke-width: 1.5"/>
    <path d="M 65.459489 201.806502 
L 65.459489 201.391488 
" clip-path="url(#p60b076812c)" style="fill: none; stroke: #1f77b4; stroke-width: 1.5"/>
    <path d="M 66.474034 199.018 
L 66.474034 198.571851 
" clip-path="url(#p60b076812c)" style="fill: none; stroke: #1f77b4; stroke-width: 1.5"/>
    <path d="M 67.48858 198.104909 
L 67.48858 197.649029 
" clip-path="url(#p60b076812c)" style="fill: none; stroke: #1f77b4; stroke-width: 1.5"/>
    <path d="M 68.503125 196.582868 
L 68.503125 196.111216 
" clip-path="url(#p60b076812c)" style="fill: none; stroke: #1f77b4; stroke-width: 1.5"/>
    <path d="M 69.51767 196.249887 
L 69.51767 195.774854 
" clip-path="url(#p60b076812c)" style="fill: none; stroke: #1f77b4; stroke-width: 1.5"/>
    <path d="M 70.532216 195.127177 
L 70.532216 194.640921 
" clip-path="url(#p60b076812c)" style="fill: none; stroke: #1f77b4; stroke-width: 1.5"/>
    <path d="M 71.546761 193.790227 
L 71.546761 193.290937 
" clip-path="url(#p60b076812c)" style="fill: none; stroke: #1f77b4; stroke-width: 1.5"/>
    <path d="M 72.561307 193.038417 
L 72.561307 192.531944 
" clip-path="url(#p60b076812c)" style="fill: none; stroke: #1f77b4; stroke-width: 1.5"/>
    <path d="M 73.575852 191.843982 
L 73.575852 191.326306 
" clip-path="url(#p60b076812c)" style="fill: none; stroke: #1f77b4; stroke-width: 1.5"/>
    <path d="M 74.590398 190.606595 
L 74.590398 190.077562 
" clip-path="url(#p60b076812c)" style="fill: none; stroke: #1f77b4; stroke-width: 1.5"/>
    <path d="M 75.604943 189.004953 
L 75.604943 188.461576 
" clip-path="url(#p60b076812c)" style="fill: none; stroke: #1f77b4; stroke-width: 1.5"/>
    <path d="M 76.619489 187.700656 
L 76.619489 187.145872 
" clip-path="url(#p60b076812c)" style="fill: none; stroke: #1f77b4; stroke-width: 1.5"/>
    <path d="M 77.634034 185.824935 
L 77.634034 185.254148 
" clip-path="url(#p60b076812c)" style="fill: none; stroke: #1f77b4; stroke-width: 1.5"/>
    <path d="M 78.64858 184.372766 
L 78.64858 183.789893 
" clip-path="url(#p60b076812c)" style="fill: none; stroke: #1f77b4; stroke-width: 1.5"/>
    <path d="M 79.663125 182.646669 
L 79.663125 182.049749 
" clip-path="url(#p60b076812c)" style="fill: none; stroke: #1f77b4; stroke-width: 1.5"/>
    <path d="M 80.67767 180.251295 
L 80.67767 179.635415 
" clip-path="url(#p60b076812c)" style="fill: none; stroke: #1f77b4; stroke-width: 1.5"/>
    <path d="M 81.692216 178.027105 
L 81.692216 177.39413 
" clip-path="url(#p60b076812c)" style="fill: none; stroke: #1f77b4; stroke-width: 1.5"/>
    <path d="M 82.706761 175.88605 
L 82.706761 175.237045 
" clip-path="url(#p60b076812c)" style="fill: none; stroke: #1f77b4; stroke-width: 1.5"/>
    <path d="M 83.721307 173.582832 
L 83.721307 172.917016 
" clip-path="url(#p60b076812c)" style="fill: none; stroke: #1f77b4; stroke-width: 1.5"/>
    <path d="M 84.735852 171.000695 
L 84.735852 170.316524 
" clip-path="url(#p60b076812c)" style="fill: none; stroke: #1f77b4; stroke-width: 1.5"/>
    <path d="M 85.750398 169.04964 
L 85.750398 168.351922 
" clip-path="url(#p60b076812c)" style="fill: none; stroke: #1f77b4; stroke-width: 1.5"/>
    <path d="M 86.764943 166.183573 
L 86.764943 165.466419 
" clip-path="url(#p60b076812c)" style="fill: none; stroke: #1f77b4; stroke-width: 1.5"/>
    <path d="M 87.779489 163.567437 
L 87.779489 162.832993 
" clip-path="url(#p60b076812c)" style="fill: none; stroke: #1f77b4; stroke-width: 1.5"/>
    <path d="M 88.794034 162.590503 
L 88.794034 161.849707 
" clip-path="url(#p60b076812c)" style="fill: none; stroke: #1f77b4; stroke-width: 1.5"/>
    <path d="M 89.80858 159.030431 
L 89.80858 158.266933 
" clip-path="url(#p60b076812c)" style="fill: none; stroke: #1f77b4; stroke-width: 1.5"/>
    <path d="M 90.823125 156.432847 
L 90.823125 155.653203 
" clip-path="url(#p60b076812c)" style="fill: none; stroke: #1f77b4; stroke-width: 1.5"/>
    <path d="M 91.83767 154.254562 
L 91.83767 153.461633 
" clip-path="url(#p60b076812c)" style="fill: none; stroke: #1f77b4; stroke-width: 1.5"/>
    <path d="M 92.852216 152.221557 
L 92.852216 151.416426 
" clip-path="url(#p60b076812c)" style="fill: none; stroke: #1f77b4; stroke-width: 1.5"/>
    <path d="M 93.866761 150.093119 
L 93.866761 149.275411 
" clip-path="url(#p60b076812c)" style="fill: none; stroke: #1f77b4; stroke-width: 1.5"/>
    <path d="M 94.881307 148.276841 
L 94.881307 147.44855 
" clip-path="url(#p60b076812c)" style="fill: none; stroke: #1f77b4; stroke-width: 1.5"/>
    <path d="M 95.895852 145.344913 
L 95.895852 144.499821 
" clip-path="url(#p60b076812c)" style="fill: none; stroke: #1f77b4; stroke-width: 1.5"/>
    <path d="M 96.910398 144.846707 
L 96.910398 143.998793 
" clip-path="url(#p60b076812c)" style="fill: none; stroke: #1f77b4; stroke-width: 1.5"/>
    <path d="M 97.924943 144.443848 
L 97.924943 143.593659 
" clip-path="url(#p60b076812c)" style="fill: none; stroke: #1f77b4; stroke-width: 1.5"/>
    <path d="M 98.939489 142.722725 
L 98.939489 141.862885 
" clip-path="url(#p60b076812c)" style="fill: none; stroke: #1f77b4; stroke-width: 1.5"/>
    <path d="M 99.954034 143.25194 
L 99.954034 142.395056 
" clip-path="url(#p60b076812c)" style="fill: none; stroke: #1f77b4; stroke-width: 1.5"/>
    <path d="M 100.96858 141.516476 
L 100.96858 140.649936 
" clip-path="url(#p60b076812c)" style="fill: none; stroke: #1f77b4; stroke-width: 1.5"/>
    <path d="M 101.983125 140.322121 
L 101.983125 139.448999 
" clip-path="url(#p60b076812c)" style="fill: none; stroke: #1f77b4; stroke-width: 1.5"/>
    <path d="M 102.99767 141.094521 
L 102.99767 140.22565 
" clip-path="url(#p60b076812c)" style="fill: none; stroke: #1f77b4; stroke-width: 1.5"/>
    <path d="M 104.012216 140.410328 
L 104.012216 139.53769 
" clip-path="url(#p60b076812c)" style="fill: none; stroke: #1f77b4; stroke-width: 1.5"/>
    <path d="M 105.026761 142.634522 
L 105.026761 141.77419 
" clip-path="url(#p60b076812c)" style="fill: none; stroke: #1f77b4; stroke-width: 1.5"/>
    <path d="M 106.041307 142.655976 
L 106.041307 141.795764 
" clip-path="url(#p60b076812c)" style="fill: none; stroke: #1f77b4; stroke-width: 1.5"/>
    <path d="M 107.055852 145.218574 
L 107.055852 144.372765 
" clip-path="url(#p60b076812c)" style="fill: none; stroke: #1f77b4; stroke-width: 1.5"/>
    <path d="M 108.070398 143.850281 
L 108.070398 142.996752 
" clip-path="url(#p60b076812c)" style="fill: none; stroke: #1f77b4; stroke-width: 1.5"/>
    <path d="M 109.084943 140.396024 
L 109.084943 139.523307 
" clip-path="url(#p60b076812c)" style="fill: none; stroke: #1f77b4; stroke-width: 1.5"/>
    <path d="M 110.099489 138.827355 
L 110.099489 137.946064 
" clip-path="url(#p60b076812c)" style="fill: none; stroke: #1f77b4; stroke-width: 1.5"/>
    <path d="M 111.114034 137.349241 
L 111.114034 136.459945 
" clip-path="url(#p60b076812c)" style="fill: none; stroke: #1f77b4; stroke-width: 1.5"/>
    <path d="M 112.12858 136.0499 
L 112.12858 135.153628 
" clip-path="url(#p60b076812c)" style="fill: none; stroke: #1f77b4; stroke-width: 1.5"/>
    <path d="M 113.143125 136.698382 
L 113.143125 135.805584 
" clip-path="url(#p60b076812c)" style="fill: none; stroke: #1f77b4; stroke-width: 1.5"/>
    <path d="M 114.15767 137.096527 
L 114.15767 136.20587 
" clip-path="url(#p60b076812c)" style="fill: none; stroke: #1f77b4; stroke-width: 1.5"/>
    <path d="M 115.172216 134.533572 
L 115.172216 133.629226 
" clip-path="url(#p60b076812c)" style="fill: none; stroke: #1f77b4; stroke-width: 1.5"/>
    <path d="M 116.186761 133.145958 
L 116.186761 132.234285 
" clip-path="url(#p60b076812c)" style="fill: none; stroke: #1f77b4; stroke-width: 1.5"/>
    <path d="M 117.201307 131.515115 
L 117.201307 130.594908 
" clip-path="url(#p60b076812c)" style="fill: none; stroke: #1f77b4; stroke-width: 1.5"/>
    <path d="M 118.215852 131.248073 
L 118.215852 130.326476 
" clip-path="url(#p60b076812c)" style="fill: none; stroke: #1f77b4; stroke-width: 1.5"/>
    <path d="M 119.230398 130.420712 
L 119.230398 129.494822 
" clip-path="url(#p60b076812c)" style="fill: none; stroke: #1f77b4; stroke-width: 1.5"/>
    <path d="M 120.244943 127.046792 
L 120.244943 126.103596 
" clip-path="url(#p60b076812c)" style="fill: none; stroke: #1f77b4; stroke-width: 1.5"/>
    <path d="M 121.259489 126.400602 
L 121.259489 125.454129 
" clip-path="url(#p60b076812c)" style="fill: none; stroke: #1f77b4; stroke-width: 1.5"/>
    <path d="M 122.274034 125.687641 
L 122.274034 124.737564 
" clip-path="url(#p60b076812c)" style="fill: none; stroke: #1f77b4; stroke-width: 1.5"/>
    <path d="M 123.28858 124.585996 
L 123.28858 123.630377 
" clip-path="url(#p60b076812c)" style="fill: none; stroke: #1f77b4; stroke-width: 1.5"/>
    <path d="M 124.303125 123.069419 
L 124.303125 122.106224 
" clip-path="url(#p60b076812c)" style="fill: none; stroke: #1f77b4; stroke-width: 1.5"/>
    <path d="M 125.31767 122.838115 
L 125.31767 121.873769 
" clip-path="url(#p60b076812c)" style="fill: none; stroke: #1f77b4; stroke-width: 1.5"/>
    <path d="M 126.332216 120.804037 
L 126.332216 119.829635 
" clip-path="url(#p60b076812c)" style="fill: none; stroke: #1f77b4; stroke-width: 1.5"/>
    <path d="M 127.346761 119.440008 
L 127.346761 118.458919 
" clip-path="url(#p60b076812c)" style="fill: none; stroke: #1f77b4; stroke-width: 1.5"/>
    <path d="M 128.361307 117.8661 
L 128.361307 116.877353 
" clip-path="url(#p60b076812c)" style="fill: none; stroke: #1f77b4; stroke-width: 1.5"/>
    <path d="M 129.375852 116.664187 
L 129.375852 115.669631 
" clip-path="url(#p60b076812c)" style="fill: none; stroke: #1f77b4; stroke-width: 1.5"/>
    <path d="M 130.390398 116.153845 
L 130.390398 115.156833 
" clip-path="url(#p60b076812c)" style="fill: none; stroke: #1f77b4; stroke-width: 1.5"/>
    <path d="M 131.404943 113.611633 
L 131.404943 112.602475 
" clip-path="url(#p60b076812c)" style="fill: none; stroke: #1f77b4; stroke-width: 1.5"/>
    <path d="M 132.419489 112.316651 
L 132.419489 111.301362 
" clip-path="url(#p60b076812c)" style="fill: none; stroke: #1f77b4; stroke-width: 1.5"/>
    <path d="M 133.434034 111.04073 
L 133.434034 110.019436 
" clip-path="url(#p60b076812c)" style="fill: none; stroke: #1f77b4; stroke-width: 1.5"/>
    <path d="M 134.44858 109.175708 
L 134.44858 108.1457 
" clip-path="url(#p60b076812c)" style="fill: none; stroke: #1f77b4; stroke-width: 1.5"/>
    <path d="M 135.463125 108.810808 
L 135.463125 107.779103 
" clip-path="url(#p60b076812c)" style="fill: none; stroke: #1f77b4; stroke-width: 1.5"/>
    <path d="M 136.47767 105.724604 
L 136.47767 104.678664 
" clip-path="url(#p60b076812c)" style="fill: none; stroke: #1f77b4; stroke-width: 1.5"/>
    <path d="M 137.492216 103.432548 
L 137.492216 102.376158 
" clip-path="url(#p60b076812c)" style="fill: none; stroke: #1f77b4; stroke-width: 1.5"/>
    <path d="M 138.506761 103.294212 
L 138.506761 102.237195 
" clip-path="url(#p60b076812c)" style="fill: none; stroke: #1f77b4; stroke-width: 1.5"/>
    <path d="M 139.521307 100.601393 
L 139.521307 99.532239 
" clip-path="url(#p60b076812c)" style="fill: none; stroke: #1f77b4; stroke-width: 1.5"/>
    <path d="M 140.535852 98.743333 
L 140.535852 97.665883 
" clip-path="url(#p60b076812c)" style="fill: none; stroke: #1f77b4; stroke-width: 1.5"/>
    <path d="M 141.550398 98.960387 
L 141.550398 97.883903 
" clip-path="url(#p60b076812c)" style="fill: none; stroke: #1f77b4; stroke-width: 1.5"/>
    <path d="M 142.564943 95.5161 
L 142.564943 94.424393 
" clip-path="url(#p60b076812c)" style="fill: none; stroke: #1f77b4; stroke-width: 1.5"/>
    <path d="M 143.579489 93.708046 
L 143.579489 92.608432 
" clip-path="url(#p60b076812c)" style="fill: none; stroke: #1f77b4; stroke-width: 1.5"/>
    <path d="M 144.594034 91.217752 
L 144.594034 90.107339 
" clip-path="url(#p60b076812c)" style="fill: none; stroke: #1f77b4; stroke-width: 1.5"/>
    <path d="M 145.60858 88.417301 
L 145.60858 87.29487 
" clip-path="url(#p60b076812c)" style="fill: none; stroke: #1f77b4; stroke-width: 1.5"/>
    <path d="M 146.623125 87.52038 
L 146.623125 86.394127 
" clip-path="url(#p60b076812c)" style="fill: none; stroke: #1f77b4; stroke-width: 1.5"/>
    <path d="M 147.63767 86.590056 
L 147.63767 85.459852 
" clip-path="url(#p60b076812c)" style="fill: none; stroke: #1f77b4; stroke-width: 1.5"/>
    <path d="M 148.652216 84.14017 
L 148.652216 82.999628 
" clip-path="url(#p60b076812c)" style="fill: none; stroke: #1f77b4; stroke-width: 1.5"/>
    <path d="M 149.666761 82.749416 
L 149.666761 81.603046 
" clip-path="url(#p60b076812c)" style="fill: none; stroke: #1f77b4; stroke-width: 1.5"/>
    <path d="M 150.681307 80.623895 
L 150.681307 79.468677 
" clip-path="url(#p60b076812c)" style="fill: none; stroke: #1f77b4; stroke-width: 1.5"/>
    <path d="M 151.695852 79.767474 
L 151.695852 78.60871 
" clip-path="url(#p60b076812c)" style="fill: none; stroke: #1f77b4; stroke-width: 1.5"/>
    <path d="M 152.710398 77.517854 
L 152.710398 76.349826 
" clip-path="url(#p60b076812c)" style="fill: none; stroke: #1f77b4; stroke-width: 1.5"/>
    <path d="M 153.724943 76.291641 
L 153.724943 75.118594 
" clip-path="url(#p60b076812c)" style="fill: none; stroke: #1f77b4; stroke-width: 1.5"/>
    <path d="M 154.739489 74.375959 
L 154.739489 73.195115 
" clip-path="url(#p60b076812c)" style="fill: none; stroke: #1f77b4; stroke-width: 1.5"/>
    <path d="M 155.754034 73.638785 
L 155.754034 72.454953 
" clip-path="url(#p60b076812c)" style="fill: none; stroke: #1f77b4; stroke-width: 1.5"/>
    <path d="M 156.76858 70.370361 
L 156.76858 69.173376 
" clip-path="url(#p60b076812c)" style="fill: none; stroke: #1f77b4; stroke-width: 1.5"/>
    <path d="M 157.783125 70.079301 
L 157.783125 68.881152 
" clip-path="url(#p60b076812c)" style="fill: none; stroke: #1f77b4; stroke-width: 1.5"/>
    <path d="M 158.79767 68.781452 
L 158.79767 67.578125 
" clip-path="url(#p60b076812c)" style="fill: none; stroke: #1f77b4; stroke-width: 1.5"/>
    <path d="M 159.812216 66.741612 
L 159.812216 65.530191 
" clip-path="url(#p60b076812c)" style="fill: none; stroke: #1f77b4; stroke-width: 1.5"/>
    <path d="M 160.826761 64.102901 
L 160.826761 62.881091 
" clip-path="url(#p60b076812c)" style="fill: none; stroke: #1f77b4; stroke-width: 1.5"/>
    <path d="M 161.841307 63.017343 
L 161.841307 61.791284 
" clip-path="url(#p60b076812c)" style="fill: none; stroke: #1f77b4; stroke-width: 1.5"/>
    <path d="M 162.855852 62.296815 
L 162.855852 61.067943 
" clip-path="url(#p60b076812c)" style="fill: none; stroke: #1f77b4; stroke-width: 1.5"/>
    <path d="M 163.870398 60.180543 
L 163.870398 58.943449 
" clip-path="url(#p60b076812c)" style="fill: none; stroke: #1f77b4; stroke-width: 1.5"/>
    <path d="M 164.884943 58.140592 
L 164.884943 56.895625 
" clip-path="url(#p60b076812c)" style="fill: none; stroke: #1f77b4; stroke-width: 1.5"/>
    <path d="M 165.899489 57.768388 
L 165.899489 56.52199 
" clip-path="url(#p60b076812c)" style="fill: none; stroke: #1f77b4; stroke-width: 1.5"/>
    <path d="M 166.914034 56.301037 
L 166.914034 55.049012 
" clip-path="url(#p60b076812c)" style="fill: none; stroke: #1f77b4; stroke-width: 1.5"/>
    <path d="M 167.92858 54.874235 
L 167.92858 53.616763 
" clip-path="url(#p60b076812c)" style="fill: none; stroke: #1f77b4; stroke-width: 1.5"/>
    <path d="M 168.943125 54.10118 
L 168.943125 52.840766 
" clip-path="url(#p60b076812c)" style="fill: none; stroke: #1f77b4; stroke-width: 1.5"/>
    <path d="M 169.95767 52.094562 
L 169.95767 50.826545 
" clip-path="url(#p60b076812c)" style="fill: none; stroke: #1f77b4; stroke-width: 1.5"/>
    <path d="M 170.972216 50.078377 
L 170.972216 48.802766 
" clip-path="url(#p60b076812c)" style="fill: none; stroke: #1f77b4; stroke-width: 1.5"/>
    <path d="M 171.986761 49.718086 
L 171.986761 48.441123 
" clip-path="url(#p60b076812c)" style="fill: none; stroke: #1f77b4; stroke-width: 1.5"/>
    <path d="M 173.001307 47.076725 
L 173.001307 45.789892 
" clip-path="url(#p60b076812c)" style="fill: none; stroke: #1f77b4; stroke-width: 1.5"/>
    <path d="M 174.015852 45.487595 
L 174.015852 44.194861 
" clip-path="url(#p60b076812c)" style="fill: none; stroke: #1f77b4; stroke-width: 1.5"/>
    <path d="M 175.030398 44.590423 
L 175.030398 43.294369 
" clip-path="url(#p60b076812c)" style="fill: none; stroke: #1f77b4; stroke-width: 1.5"/>
    <path d="M 176.044943 44.903002 
L 176.044943 43.608104 
" clip-path="url(#p60b076812c)" style="fill: none; stroke: #1f77b4; stroke-width: 1.5"/>
    <path d="M 177.059489 43.368735 
L 177.059489 42.068174 
" clip-path="url(#p60b076812c)" style="fill: none; stroke: #1f77b4; stroke-width: 1.5"/>
    <path d="M 178.074034 41.87502 
L 178.074034 40.568969 
" clip-path="url(#p60b076812c)" style="fill: none; stroke: #1f77b4; stroke-width: 1.5"/>
    <path d="M 179.08858 41.588683 
L 179.08858 40.281583 
" clip-path="url(#p60b076812c)" style="fill: none; stroke: #1f77b4; stroke-width: 1.5"/>
    <path d="M 180.103125 39.99235 
L 180.103125 38.679413 
" clip-path="url(#p60b076812c)" style="fill: none; stroke: #1f77b4; stroke-width: 1.5"/>
    <path d="M 181.11767 38.889941 
L 181.11767 37.572989 
" clip-path="url(#p60b076812c)" style="fill: none; stroke: #1f77b4; stroke-width: 1.5"/>
    <path d="M 182.132216 39.78714 
L 182.132216 38.473454 
" clip-path="url(#p60b076812c)" style="fill: none; stroke: #1f77b4; stroke-width: 1.5"/>
    <path d="M 183.146761 38.061938 
L 183.146761 36.741977 
" clip-path="url(#p60b076812c)" style="fill: none; stroke: #1f77b4; stroke-width: 1.5"/>
    <path d="M 184.161307 36.544321 
L 184.161307 35.218865 
" clip-path="url(#p60b076812c)" style="fill: none; stroke: #1f77b4; stroke-width: 1.5"/>
    <path d="M 185.175852 35.983563 
L 185.175852 34.656082 
" clip-path="url(#p60b076812c)" style="fill: none; stroke: #1f77b4; stroke-width: 1.5"/>
    <path d="M 186.190398 35.117368 
L 186.190398 33.786766 
" clip-path="url(#p60b076812c)" style="fill: none; stroke: #1f77b4; stroke-width: 1.5"/>
    <path d="M 187.204943 34.337074 
L 187.204943 33.003666 
" clip-path="url(#p60b076812c)" style="fill: none; stroke: #1f77b4; stroke-width: 1.5"/>
    <path d="M 188.219489 34.000616 
L 188.219489 32.666 
" clip-path="url(#p60b076812c)" style="fill: none; stroke: #1f77b4; stroke-width: 1.5"/>
    <path d="M 189.234034 34.902609 
L 189.234034 33.571233 
" clip-path="url(#p60b076812c)" style="fill: none; stroke: #1f77b4; stroke-width: 1.5"/>
    <path d="M 190.24858 34.170038 
L 190.24858 32.83603 
" clip-path="url(#p60b076812c)" style="fill: none; stroke: #1f77b4; stroke-width: 1.5"/>
    <path d="M 191.263125 32.573646 
L 191.263125 31.233918 
" clip-path="url(#p60b076812c)" style="fill: none; stroke: #1f77b4; stroke-width: 1.5"/>
    <path d="M 192.27767 32.998397 
L 192.27767 31.660189 
" clip-path="url(#p60b076812c)" style="fill: none; stroke: #1f77b4; stroke-width: 1.5"/>
    <path d="M 193.292216 31.137121 
L 193.292216 29.792268 
" clip-path="url(#p60b076812c)" style="fill: none; stroke: #1f77b4; stroke-width: 1.5"/>
    <path d="M 194.306761 29.311623 
L 194.306761 27.960284 
" clip-path="url(#p60b076812c)" style="fill: none; stroke: #1f77b4; stroke-width: 1.5"/>
    <path d="M 195.321307 30.504761 
L 195.321307 29.157657 
" clip-path="url(#p60b076812c)" style="fill: none; stroke: #1f77b4; stroke-width: 1.5"/>
    <path d="M 196.335852 31.433017 
L 196.335852 30.089218 
" clip-path="url(#p60b076812c)" style="fill: none; stroke: #1f77b4; stroke-width: 1.5"/>
    <path d="M 197.350398 31.215868 
L 197.350398 29.871295 
" clip-path="url(#p60b076812c)" style="fill: none; stroke: #1f77b4; stroke-width: 1.5"/>
    <path d="M 198.364943 29.488208 
L 198.364943 28.137495 
" clip-path="url(#p60b076812c)" style="fill: none; stroke: #1f77b4; stroke-width: 1.5"/>
    <path d="M 199.379489 29.874785 
L 199.379489 28.525443 
" clip-path="url(#p60b076812c)" style="fill: none; stroke: #1f77b4; stroke-width: 1.5"/>
    <path d="M 200.394034 30.120571 
L 200.394034 28.772102 
" clip-path="url(#p60b076812c)" style="fill: none; stroke: #1f77b4; stroke-width: 1.5"/>
    <path d="M 201.40858 28.951294 
L 201.40858 27.598679 
" clip-path="url(#p60b076812c)" style="fill: none; stroke: #1f77b4; stroke-width: 1.5"/>
    <path d="M 202.423125 28.531307 
L 202.423125 27.177205 
" clip-path="url(#p60b076812c)" style="fill: none; stroke: #1f77b4; stroke-width: 1.5"/>
    <path d="M 203.43767 29.104016 
L 203.43767 27.751942 
" clip-path="url(#p60b076812c)" style="fill: none; stroke: #1f77b4; stroke-width: 1.5"/>
    <path d="M 204.452216 27.939506 
L 204.452216 26.583313 
" clip-path="url(#p60b076812c)" style="fill: none; stroke: #1f77b4; stroke-width: 1.5"/>
    <path d="M 205.466761 28.163818 
L 205.466761 26.808417 
" clip-path="url(#p60b076812c)" style="fill: none; stroke: #1f77b4; stroke-width: 1.5"/>
    <path d="M 206.481307 28.719824 
L 206.481307 27.366389 
" clip-path="url(#p60b076812c)" style="fill: none; stroke: #1f77b4; stroke-width: 1.5"/>
    <path d="M 207.495852 28.397675 
L 207.495852 27.0431 
" clip-path="url(#p60b076812c)" style="fill: none; stroke: #1f77b4; stroke-width: 1.5"/>
    <path d="M 208.510398 26.54829 
L 208.510398 25.187193 
" clip-path="url(#p60b076812c)" style="fill: none; stroke: #1f77b4; stroke-width: 1.5"/>
    <path d="M 209.524943 26.698628 
L 209.524943 25.338059 
" clip-path="url(#p60b076812c)" style="fill: none; stroke: #1f77b4; stroke-width: 1.5"/>
    <path d="M 210.539489 27.042256 
L 210.539489 25.682898 
" clip-path="url(#p60b076812c)" style="fill: none; stroke: #1f77b4; stroke-width: 1.5"/>
    <path d="M 211.554034 25.927848 
L 211.554034 24.564569 
" clip-path="url(#p60b076812c)" style="fill: none; stroke: #1f77b4; stroke-width: 1.5"/>
    <path d="M 212.56858 25.760806 
L 212.56858 24.39694 
" clip-path="url(#p60b076812c)" style="fill: none; stroke: #1f77b4; stroke-width: 1.5"/>
    <path d="M 213.583125 25.643876 
L 213.583125 24.2796 
" clip-path="url(#p60b076812c)" style="fill: none; stroke: #1f77b4; stroke-width: 1.5"/>
    <path d="M 214.59767 26.252387 
L 214.59767 24.890249 
" clip-path="url(#p60b076812c)" style="fill: none; stroke: #1f77b4; stroke-width: 1.5"/>
    <path d="M 215.612216 27.58872 
L 215.612216 26.231289 
" clip-path="url(#p60b076812c)" style="fill: none; stroke: #1f77b4; stroke-width: 1.5"/>
    <path d="M 216.626761 28.600509 
L 216.626761 27.246653 
" clip-path="url(#p60b076812c)" style="fill: none; stroke: #1f77b4; stroke-width: 1.5"/>
    <path d="M 217.641307 27.32384 
L 217.641307 25.965475 
" clip-path="url(#p60b076812c)" style="fill: none; stroke: #1f77b4; stroke-width: 1.5"/>
    <path d="M 218.655852 26.848965 
L 218.655852 25.488926 
" clip-path="url(#p60b076812c)" style="fill: none; stroke: #1f77b4; stroke-width: 1.5"/>
    <path d="M 219.670398 28.421538 
L 219.670398 27.067048 
" clip-path="url(#p60b076812c)" style="fill: none; stroke: #1f77b4; stroke-width: 1.5"/>
    <path d="M 220.684943 28.910727 
L 220.684943 27.557968 
" clip-path="url(#p60b076812c)" style="fill: none; stroke: #1f77b4; stroke-width: 1.5"/>
    <path d="M 221.699489 26.727264 
L 221.699489 25.366796 
" clip-path="url(#p60b076812c)" style="fill: none; stroke: #1f77b4; stroke-width: 1.5"/>
    <path d="M 222.714034 25.813305 
L 222.714034 24.449623 
" clip-path="url(#p60b076812c)" style="fill: none; stroke: #1f77b4; stroke-width: 1.5"/>
    <path d="M 223.72858 26.550677 
L 223.72858 25.189587 
" clip-path="url(#p60b076812c)" style="fill: none; stroke: #1f77b4; stroke-width: 1.5"/>
    <path d="M 224.743125 25.617626 
L 224.743125 24.253258 
" clip-path="url(#p60b076812c)" style="fill: none; stroke: #1f77b4; stroke-width: 1.5"/>
    <path d="M 225.75767 25.257291 
L 225.75767 23.891659 
" clip-path="url(#p60b076812c)" style="fill: none; stroke: #1f77b4; stroke-width: 1.5"/>
    <path d="M 226.772216 26.550677 
L 226.772216 25.189587 
" clip-path="url(#p60b076812c)" style="fill: none; stroke: #1f77b4; stroke-width: 1.5"/>
    <path d="M 227.786761 25.830009 
L 227.786761 24.466386 
" clip-path="url(#p60b076812c)" style="fill: none; stroke: #1f77b4; stroke-width: 1.5"/>
    <path d="M 228.801307 24.190601 
L 228.801307 22.821232 
" clip-path="url(#p60b076812c)" style="fill: none; stroke: #1f77b4; stroke-width: 1.5"/>
    <path d="M 229.815852 25.729783 
L 229.815852 24.365809 
" clip-path="url(#p60b076812c)" style="fill: none; stroke: #1f77b4; stroke-width: 1.5"/>
    <path d="M 230.830398 25.481606 
L 230.830398 24.11676 
" clip-path="url(#p60b076812c)" style="fill: none; stroke: #1f77b4; stroke-width: 1.5"/>
    <path d="M 231.844943 23.982989 
L 231.844943 22.612895 
" clip-path="url(#p60b076812c)" style="fill: none; stroke: #1f77b4; stroke-width: 1.5"/>
    <path d="M 232.859489 23.274245 
L 232.859489 21.901675 
" clip-path="url(#p60b076812c)" style="fill: none; stroke: #1f77b4; stroke-width: 1.5"/>
    <path d="M 233.874034 21.181408 
L 233.874034 19.801555 
" clip-path="url(#p60b076812c)" style="fill: none; stroke: #1f77b4; stroke-width: 1.5"/>
    <path d="M 234.88858 23.818332 
L 234.88858 22.447662 
" clip-path="url(#p60b076812c)" style="fill: none; stroke: #1f77b4; stroke-width: 1.5"/>
    <path d="M 235.903125 21.610955 
L 235.903125 20.232593 
" clip-path="url(#p60b076812c)" style="fill: none; stroke: #1f77b4; stroke-width: 1.5"/>
    <path d="M 236.91767 21.346068 
L 236.91767 19.966787 
" clip-path="url(#p60b076812c)" style="fill: none; stroke: #1f77b4; stroke-width: 1.5"/>
    <path d="M 237.932216 19.856969 
L 237.932216 18.472527 
" clip-path="url(#p60b076812c)" style="fill: none; stroke: #1f77b4; stroke-width: 1.5"/>
    <path d="M 238.946761 18.670934 
L 238.946761 17.282395 
" clip-path="url(#p60b076812c)" style="fill: none; stroke: #1f77b4; stroke-width: 1.5"/>
    <path d="M 239.961307 21.360386 
L 239.961307 19.981154 
" clip-path="url(#p60b076812c)" style="fill: none; stroke: #1f77b4; stroke-width: 1.5"/>
    <path d="M 240.975852 20.035948 
L 240.975852 18.652125 
" clip-path="url(#p60b076812c)" style="fill: none; stroke: #1f77b4; stroke-width: 1.5"/>
    <path d="M 241.990398 18.668547 
L 241.990398 17.28 
" clip-path="url(#p60b076812c)" style="fill: none; stroke: #1f77b4; stroke-width: 1.5"/>
    <path d="M 243.004943 19.751969 
L 243.004943 18.367163 
" clip-path="url(#p60b076812c)" style="fill: none; stroke: #1f77b4; stroke-width: 1.5"/>
    <path d="M 244.019489 21.494023 
L 244.019489 20.115255 
" clip-path="url(#p60b076812c)" style="fill: none; stroke: #1f77b4; stroke-width: 1.5"/>
    <path d="M 245.034034 23.300495 
L 245.034034 21.928017 
" clip-path="url(#p60b076812c)" style="fill: none; stroke: #1f77b4; stroke-width: 1.5"/>
    <path d="M 246.04858 24.2956 
L 246.04858 22.926598 
" clip-path="url(#p60b076812c)" style="fill: none; stroke: #1f77b4; stroke-width: 1.5"/>
    <path d="M 247.063125 22.572658 
L 247.063125 21.197642 
" clip-path="url(#p60b076812c)" style="fill: none; stroke: #1f77b4; stroke-width: 1.5"/>
    <path d="M 248.07767 22.360272 
L 248.07767 20.984517 
" clip-path="url(#p60b076812c)" style="fill: none; stroke: #1f77b4; stroke-width: 1.5"/>
    <path d="M 249.092216 22.959247 
L 249.092216 21.585578 
" clip-path="url(#p60b076812c)" style="fill: none; stroke: #1f77b4; stroke-width: 1.5"/>
    <path d="M 250.106761 21.365159 
L 250.106761 19.985944 
" clip-path="url(#p60b076812c)" style="fill: none; stroke: #1f77b4; stroke-width: 1.5"/>
    <path d="M 251.121307 21.675386 
L 251.121307 20.297249 
" clip-path="url(#p60b076812c)" style="fill: none; stroke: #1f77b4; stroke-width: 1.5"/>
    <path d="M 252.135852 22.159818 
L 252.135852 20.783365 
" clip-path="url(#p60b076812c)" style="fill: none; stroke: #1f77b4; stroke-width: 1.5"/>
    <path d="M 253.150398 22.357886 
L 253.150398 20.982122 
" clip-path="url(#p60b076812c)" style="fill: none; stroke: #1f77b4; stroke-width: 1.5"/>
    <path d="M 254.164943 22.372204 
L 254.164943 20.99649 
" clip-path="url(#p60b076812c)" style="fill: none; stroke: #1f77b4; stroke-width: 1.5"/>
    <path d="M 255.179489 21.319818 
L 255.179489 19.940445 
" clip-path="url(#p60b076812c)" style="fill: none; stroke: #1f77b4; stroke-width: 1.5"/>
    <path d="M 256.194034 21.704023 
L 256.194034 20.325985 
" clip-path="url(#p60b076812c)" style="fill: none; stroke: #1f77b4; stroke-width: 1.5"/>
    <path d="M 257.20858 21.942659 
L 257.20858 20.565451 
" clip-path="url(#p60b076812c)" style="fill: none; stroke: #1f77b4; stroke-width: 1.5"/>
    <path d="M 258.223125 23.338676 
L 258.223125 21.966332 
" clip-path="url(#p60b076812c)" style="fill: none; stroke: #1f77b4; stroke-width: 1.5"/>
    <path d="M 259.23767 24.030716 
L 259.23767 22.660788 
" clip-path="url(#p60b076812c)" style="fill: none; stroke: #1f77b4; stroke-width: 1.5"/>
    <path d="M 260.252216 22.162204 
L 260.252216 20.78576 
" clip-path="url(#p60b076812c)" style="fill: none; stroke: #1f77b4; stroke-width: 1.5"/>
    <path d="M 261.266761 21.978455 
L 261.266761 20.601371 
" clip-path="url(#p60b076812c)" style="fill: none; stroke: #1f77b4; stroke-width: 1.5"/>
    <path d="M 262.281307 19.673218 
L 262.281307 18.28814 
" clip-path="url(#p60b076812c)" style="fill: none; stroke: #1f77b4; stroke-width: 1.5"/>
    <path d="M 263.295852 20.145722 
L 263.295852 18.762279 
" clip-path="url(#p60b076812c)" style="fill: none; stroke: #1f77b4; stroke-width: 1.5"/>
    <path d="M 264.310398 23.899467 
L 264.310398 22.529081 
" clip-path="url(#p60b076812c)" style="fill: none; stroke: #1f77b4; stroke-width: 1.5"/>
    <path d="M 265.324943 22.770725 
L 265.324943 21.3964 
" clip-path="url(#p60b076812c)" style="fill: none; stroke: #1f77b4; stroke-width: 1.5"/>
    <path d="M 266.339489 22.55834 
L 266.339489 21.183274 
" clip-path="url(#p60b076812c)" style="fill: none; stroke: #1f77b4; stroke-width: 1.5"/>
    <path d="M 267.354034 23.205041 
L 267.354034 21.83223 
" clip-path="url(#p60b076812c)" style="fill: none; stroke: #1f77b4; stroke-width: 1.5"/>
    <path d="M 268.36858 26.436133 
L 268.36858 25.074641 
" clip-path="url(#p60b076812c)" style="fill: none; stroke: #1f77b4; stroke-width: 1.5"/>
    <path d="M 269.383125 25.12843 
L 269.383125 23.762345 
" clip-path="url(#p60b076812c)" style="fill: none; stroke: #1f77b4; stroke-width: 1.5"/>
    <path d="M 270.39767 25.283541 
L 270.39767 23.918 
" clip-path="url(#p60b076812c)" style="fill: none; stroke: #1f77b4; stroke-width: 1.5"/>
    <path d="M 271.412216 23.794468 
L 271.412216 22.423715 
" clip-path="url(#p60b076812c)" style="fill: none; stroke: #1f77b4; stroke-width: 1.5"/>
    <path d="M 272.426761 24.121397 
L 272.426761 22.751786 
" clip-path="url(#p60b076812c)" style="fill: none; stroke: #1f77b4; stroke-width: 1.5"/>
    <path d="M 273.441307 22.384136 
L 273.441307 21.008463 
" clip-path="url(#p60b076812c)" style="fill: none; stroke: #1f77b4; stroke-width: 1.5"/>
    <path d="M 274.455852 22.40084 
L 274.455852 21.025226 
" clip-path="url(#p60b076812c)" style="fill: none; stroke: #1f77b4; stroke-width: 1.5"/>
    <path d="M 275.470398 22.913906 
L 275.470398 21.54008 
" clip-path="url(#p60b076812c)" style="fill: none; stroke: #1f77b4; stroke-width: 1.5"/>
    <path d="M 276.484943 24.990023 
L 276.484943 23.623453 
" clip-path="url(#p60b076812c)" style="fill: none; stroke: #1f77b4; stroke-width: 1.5"/>
    <path d="M 277.499489 25.001954 
L 277.499489 23.635426 
" clip-path="url(#p60b076812c)" style="fill: none; stroke: #1f77b4; stroke-width: 1.5"/>
    <path d="M 278.514034 25.507855 
L 278.514034 24.143102 
" clip-path="url(#p60b076812c)" style="fill: none; stroke: #1f77b4; stroke-width: 1.5"/>
    <path d="M 279.52858 27.507586 
L 279.52858 26.149868 
" clip-path="url(#p60b076812c)" style="fill: none; stroke: #1f77b4; stroke-width: 1.5"/>
    <path d="M 280.543125 28.948908 
L 280.543125 27.596284 
" clip-path="url(#p60b076812c)" style="fill: none; stroke: #1f77b4; stroke-width: 1.5"/>
    <path d="M 281.55767 29.879557 
L 281.55767 28.530233 
" clip-path="url(#p60b076812c)" style="fill: none; stroke: #1f77b4; stroke-width: 1.5"/>
    <path d="M 282.572216 30.397378 
L 282.572216 29.049893 
" clip-path="url(#p60b076812c)" style="fill: none; stroke: #1f77b4; stroke-width: 1.5"/>
    <path d="M 283.586761 30.783954 
L 283.586761 29.437844 
" clip-path="url(#p60b076812c)" style="fill: none; stroke: #1f77b4; stroke-width: 1.5"/>
    <path d="M 284.601307 30.488057 
L 284.601307 29.140894 
" clip-path="url(#p60b076812c)" style="fill: none; stroke: #1f77b4; stroke-width: 1.5"/>
    <path d="M 285.615852 30.311473 
L 285.615852 28.963682 
" clip-path="url(#p60b076812c)" style="fill: none; stroke: #1f77b4; stroke-width: 1.5"/>
    <path d="M 286.630398 30.724297 
L 286.630398 29.377975 
" clip-path="url(#p60b076812c)" style="fill: none; stroke: #1f77b4; stroke-width: 1.5"/>
    <path d="M 287.644943 30.330563 
L 287.644943 28.98284 
" clip-path="url(#p60b076812c)" style="fill: none; stroke: #1f77b4; stroke-width: 1.5"/>
    <path d="M 288.659489 30.153979 
L 288.659489 28.805629 
" clip-path="url(#p60b076812c)" style="fill: none; stroke: #1f77b4; stroke-width: 1.5"/>
    <path d="M 289.674034 31.936517 
L 289.674034 30.594514 
" clip-path="url(#p60b076812c)" style="fill: none; stroke: #1f77b4; stroke-width: 1.5"/>
    <path d="M 290.68858 29.66002 
L 290.68858 28.309916 
" clip-path="url(#p60b076812c)" style="fill: none; stroke: #1f77b4; stroke-width: 1.5"/>
    <path d="M 291.703125 28.769936 
L 291.703125 27.416679 
" clip-path="url(#p60b076812c)" style="fill: none; stroke: #1f77b4; stroke-width: 1.5"/>
    <path d="M 292.71767 28.85107 
L 292.71767 27.4981 
" clip-path="url(#p60b076812c)" style="fill: none; stroke: #1f77b4; stroke-width: 1.5"/>
    <path d="M 293.732216 29.26867 
L 293.732216 27.917179 
" clip-path="url(#p60b076812c)" style="fill: none; stroke: #1f77b4; stroke-width: 1.5"/>
    <path d="M 294.746761 32.179915 
L 294.746761 30.838781 
" clip-path="url(#p60b076812c)" style="fill: none; stroke: #1f77b4; stroke-width: 1.5"/>
    <path d="M 295.761307 34.44684 
L 295.761307 33.113826 
" clip-path="url(#p60b076812c)" style="fill: none; stroke: #1f77b4; stroke-width: 1.5"/>
    <path d="M 296.775852 36.212639 
L 296.775852 34.885985 
" clip-path="url(#p60b076812c)" style="fill: none; stroke: #1f77b4; stroke-width: 1.5"/>
    <path d="M 297.790398 38.751543 
L 297.790398 37.434087 
" clip-path="url(#p60b076812c)" style="fill: none; stroke: #1f77b4; stroke-width: 1.5"/>
    <path d="M 298.804943 41.316663 
L 298.804943 40.008566 
" clip-path="url(#p60b076812c)" style="fill: none; stroke: #1f77b4; stroke-width: 1.5"/>
    <path d="M 299.819489 42.504959 
L 299.819489 41.20122 
" clip-path="url(#p60b076812c)" style="fill: none; stroke: #1f77b4; stroke-width: 1.5"/>
    <path d="M 300.834034 42.156584 
L 300.834034 40.851566 
" clip-path="url(#p60b076812c)" style="fill: none; stroke: #1f77b4; stroke-width: 1.5"/>
    <path d="M 301.84858 42.178059 
L 301.84858 40.87312 
" clip-path="url(#p60b076812c)" style="fill: none; stroke: #1f77b4; stroke-width: 1.5"/>
    <path d="M 302.863125 40.834662 
L 302.863125 39.524801 
" clip-path="url(#p60b076812c)" style="fill: none; stroke: #1f77b4; stroke-width: 1.5"/>
    <path d="M 303.87767 39.94224 
L 303.87767 38.629121 
" clip-path="url(#p60b076812c)" style="fill: none; stroke: #1f77b4; stroke-width: 1.5"/>
    <path d="M 304.892216 40.889543 
L 304.892216 39.579883 
" clip-path="url(#p60b076812c)" style="fill: none; stroke: #1f77b4; stroke-width: 1.5"/>
    <path d="M 305.906761 40.431402 
L 305.906761 39.120068 
" clip-path="url(#p60b076812c)" style="fill: none; stroke: #1f77b4; stroke-width: 1.5"/>
    <path d="M 306.921307 41.02794 
L 306.921307 39.718786 
" clip-path="url(#p60b076812c)" style="fill: none; stroke: #1f77b4; stroke-width: 1.5"/>
    <path d="M 307.935852 40.963514 
L 307.935852 39.654125 
" clip-path="url(#p60b076812c)" style="fill: none; stroke: #1f77b4; stroke-width: 1.5"/>
    <path d="M 308.950398 41.328594 
L 308.950398 40.020541 
" clip-path="url(#p60b076812c)" style="fill: none; stroke: #1f77b4; stroke-width: 1.5"/>
    <path d="M 309.964943 41.319049 
L 309.964943 40.010961 
" clip-path="url(#p60b076812c)" style="fill: none; stroke: #1f77b4; stroke-width: 1.5"/>
    <path d="M 310.979489 40.789325 
L 310.979489 39.479299 
" clip-path="url(#p60b076812c)" style="fill: none; stroke: #1f77b4; stroke-width: 1.5"/>
    <path d="M 311.994034 41.915584 
L 311.994034 40.609682 
" clip-path="url(#p60b076812c)" style="fill: none; stroke: #1f77b4; stroke-width: 1.5"/>
    <path d="M 313.00858 41.691287 
L 313.00858 40.384563 
" clip-path="url(#p60b076812c)" style="fill: none; stroke: #1f77b4; stroke-width: 1.5"/>
    <path d="M 314.023125 39.045042 
L 314.023125 37.728654 
" clip-path="url(#p60b076812c)" style="fill: none; stroke: #1f77b4; stroke-width: 1.5"/>
    <path d="M 315.03767 37.133711 
L 315.03767 35.810387 
" clip-path="url(#p60b076812c)" style="fill: none; stroke: #1f77b4; stroke-width: 1.5"/>
    <path d="M 316.052216 37.7231 
L 316.052216 36.40191 
" clip-path="url(#p60b076812c)" style="fill: none; stroke: #1f77b4; stroke-width: 1.5"/>
    <path d="M 317.066761 38.097731 
L 317.066761 36.7779 
" clip-path="url(#p60b076812c)" style="fill: none; stroke: #1f77b4; stroke-width: 1.5"/>
    <path d="M 318.081307 38.973457 
L 318.081307 37.656809 
" clip-path="url(#p60b076812c)" style="fill: none; stroke: #1f77b4; stroke-width: 1.5"/>
    <path d="M 319.095852 38.498609 
L 319.095852 37.180234 
" clip-path="url(#p60b076812c)" style="fill: none; stroke: #1f77b4; stroke-width: 1.5"/>
    <path d="M 320.110398 40.631839 
L 320.110398 39.321237 
" clip-path="url(#p60b076812c)" style="fill: none; stroke: #1f77b4; stroke-width: 1.5"/>
    <path d="M 321.124943 42.221009 
L 321.124943 40.916228 
" clip-path="url(#p60b076812c)" style="fill: none; stroke: #1f77b4; stroke-width: 1.5"/>
    <path d="M 322.139489 41.099524 
L 322.139489 39.790632 
" clip-path="url(#p60b076812c)" style="fill: none; stroke: #1f77b4; stroke-width: 1.5"/>
    <path d="M 323.154034 42.058752 
L 323.154034 40.753375 
" clip-path="url(#p60b076812c)" style="fill: none; stroke: #1f77b4; stroke-width: 1.5"/>
    <path d="M 324.16858 41.455059 
L 324.16858 40.147469 
" clip-path="url(#p60b076812c)" style="fill: none; stroke: #1f77b4; stroke-width: 1.5"/>
    <path d="M 325.183125 44.373288 
L 325.183125 43.076431 
" clip-path="url(#p60b076812c)" style="fill: none; stroke: #1f77b4; stroke-width: 1.5"/>
    <path d="M 326.19767 44.948338 
L 326.19767 43.653607 
" clip-path="url(#p60b076812c)" style="fill: none; stroke: #1f77b4; stroke-width: 1.5"/>
    <path d="M 327.212216 46.47782 
L 327.212216 45.188761 
" clip-path="url(#p60b076812c)" style="fill: none; stroke: #1f77b4; stroke-width: 1.5"/>
    <path d="M 328.226761 47.720963 
L 328.226761 46.436531 
" clip-path="url(#p60b076812c)" style="fill: none; stroke: #1f77b4; stroke-width: 1.5"/>
    <path d="M 329.241307 48.871041 
L 329.241307 47.590905 
" clip-path="url(#p60b076812c)" style="fill: none; stroke: #1f77b4; stroke-width: 1.5"/>
    <path d="M 330.255852 49.310073 
L 330.255852 48.031581 
" clip-path="url(#p60b076812c)" style="fill: none; stroke: #1f77b4; stroke-width: 1.5"/>
    <path d="M 331.270398 50.018726 
L 331.270398 48.742892 
" clip-path="url(#p60b076812c)" style="fill: none; stroke: #1f77b4; stroke-width: 1.5"/>
    <path d="M 332.284943 51.801083 
L 332.284943 50.531958 
" clip-path="url(#p60b076812c)" style="fill: none; stroke: #1f77b4; stroke-width: 1.5"/>
    <path d="M 333.299489 52.994083 
L 333.299489 51.729469 
" clip-path="url(#p60b076812c)" style="fill: none; stroke: #1f77b4; stroke-width: 1.5"/>
    <path d="M 334.314034 51.772451 
L 334.314034 50.503218 
" clip-path="url(#p60b076812c)" style="fill: none; stroke: #1f77b4; stroke-width: 1.5"/>
    <path d="M 335.32858 54.10118 
L 335.32858 52.840766 
" clip-path="url(#p60b076812c)" style="fill: none; stroke: #1f77b4; stroke-width: 1.5"/>
    <path d="M 336.343125 54.814586 
L 336.343125 53.556886 
" clip-path="url(#p60b076812c)" style="fill: none; stroke: #1f77b4; stroke-width: 1.5"/>
    <path d="M 337.35767 56.907067 
L 337.35767 55.657362 
" clip-path="url(#p60b076812c)" style="fill: none; stroke: #1f77b4; stroke-width: 1.5"/>
    <path d="M 338.372216 56.768682 
L 338.372216 55.518447 
" clip-path="url(#p60b076812c)" style="fill: none; stroke: #1f77b4; stroke-width: 1.5"/>
    <path d="M 339.386761 56.176968 
L 339.386761 54.924468 
" clip-path="url(#p60b076812c)" style="fill: none; stroke: #1f77b4; stroke-width: 1.5"/>
    <path d="M 340.401307 57.744529 
L 340.401307 56.498039 
" clip-path="url(#p60b076812c)" style="fill: none; stroke: #1f77b4; stroke-width: 1.5"/>
    <path d="M 341.415852 60.273592 
L 341.415852 59.036859 
" clip-path="url(#p60b076812c)" style="fill: none; stroke: #1f77b4; stroke-width: 1.5"/>
    <path d="M 342.430398 60.528882 
L 342.430398 59.293138 
" clip-path="url(#p60b076812c)" style="fill: none; stroke: #1f77b4; stroke-width: 1.5"/>
    <path d="M 343.444943 59.440914 
L 343.444943 58.20096 
" clip-path="url(#p60b076812c)" style="fill: none; stroke: #1f77b4; stroke-width: 1.5"/>
    <path d="M 344.459489 58.391114 
L 344.459489 57.147111 
" clip-path="url(#p60b076812c)" style="fill: none; stroke: #1f77b4; stroke-width: 1.5"/>
    <path d="M 345.474034 61.118195 
L 345.474034 59.884738 
" clip-path="url(#p60b076812c)" style="fill: none; stroke: #1f77b4; stroke-width: 1.5"/>
    <path d="M 346.48858 66.154705 
L 346.48858 64.940966 
" clip-path="url(#p60b076812c)" style="fill: none; stroke: #1f77b4; stroke-width: 1.5"/>
    <path d="M 347.503125 74.84355 
L 347.503125 73.664604 
" clip-path="url(#p60b076812c)" style="fill: none; stroke: #1f77b4; stroke-width: 1.5"/>
    <path d="M 348.51767 104.052672 
L 348.51767 102.999099 
" clip-path="url(#p60b076812c)" style="fill: none; stroke: #1f77b4; stroke-width: 1.5"/>
    <path d="M 349.532216 137.847512 
L 349.532216 136.960907 
" clip-path="url(#p60b076812c)" style="fill: none; stroke: #1f77b4; stroke-width: 1.5"/>
    <path d="M 350.546761 170.988784 
L 350.546761 170.30453 
" clip-path="url(#p60b076812c)" style="fill: none; stroke: #1f77b4; stroke-width: 1.5"/>
    <path d="M 351.561307 188.409942 
L 351.561307 187.861331 
" clip-path="url(#p60b076812c)" style="fill: none; stroke: #1f77b4; stroke-width: 1.5"/>
    <path d="M 352.575852 194.544365 
L 352.575852 194.052384 
" clip-path="url(#p60b076812c)" style="fill: none; stroke: #1f77b4; stroke-width: 1.5"/>
    <path d="M 353.590398 199.669463 
L 353.590398 199.230389 
" clip-path="url(#p60b076812c)" style="fill: none; stroke: #1f77b4; stroke-width: 1.5"/>
    <path d="M 354.604943 203.061289 
L 354.604943 202.66108 
" clip-path="url(#p60b076812c)" style="fill: none; stroke: #1f77b4; stroke-width: 1.5"/>
    <path d="M 355.619489 206.059201 
L 355.619489 205.696819 
" clip-path="url(#p60b076812c)" style="fill: none; stroke: #1f77b4; stroke-width: 1.5"/>
    <path d="M 356.634034 208.850836 
L 356.634034 208.527666 
" clip-path="url(#p60b076812c)" style="fill: none; stroke: #1f77b4; stroke-width: 1.5"/>
    <path d="M 357.64858 212.383759 
L 357.64858 212.118466 
" clip-path="url(#p60b076812c)" style="fill: none; stroke: #1f77b4; stroke-width: 1.5"/>
    <path d="M 358.663125 215.986158 
L 358.663125 215.797565 
" clip-path="url(#p60b076812c)" style="fill: none; stroke: #1f77b4; stroke-width: 1.5"/>
    <path d="M 359.67767 218.88 
L 359.67767 218.793942 
" clip-path="url(#p60b076812c)" style="fill: none; stroke: #1f77b4; stroke-width: 1.5"/>
   </g>
  </g>
 </g>
 <defs>
  <clipPath id="p60b076812c">
   <rect x="40.603125" y="7.2" width="334.8" height="221.76"/>
  </clipPath>
 </defs>
</svg>
