<?xml version="1.0" encoding="UTF-8" standalone="no"?>
<!DOCTYPE svg PUBLIC "-//W3C//DTD SVG 1.1//EN"
 "http://www.w3.org/Graphics/SVG/1.1/DTD/svg11.dtd">
<!-- Generated by graphviz version 2.43.0 (0)
 -->
<!-- Title: %3 Pages: 1 -->
<svg width="3445pt" height="412pt"
 viewBox="0.00 0.00 3445.00 412.00" xmlns="http://www.w3.org/2000/svg" xmlns:xlink="http://www.w3.org/1999/xlink">
<g id="graph0" class="graph" transform="scale(1 1) rotate(0) translate(4 408)">
<title>%3</title>
<polygon fill="white" stroke="transparent" points="-4,4 -4,-408 3441,-408 3441,4 -4,4"/>
<g id="clust1" class="cluster">
<title>cluster_AccumulatedProtonCharge</title>
<polygon fill="#f0f0ff" stroke="#f0f0ff" points="2372,-269.5 2372,-355.5 2581,-355.5 2581,-269.5 2372,-269.5"/>
<text text-anchor="middle" x="2476.5" y="-340.3" font-family="Times,serif" font-size="14.00">AccumulatedProtonCharge</text>
</g>
<g id="clust2" class="cluster">
<title>cluster_AllRawDetectors</title>
<polygon fill="#f0f0ff" stroke="#f0f0ff" points="228.5,-87.5 228.5,-183.5 364.5,-183.5 364.5,-87.5 228.5,-87.5"/>
<text text-anchor="start" x="236.5" y="-169.3" font-family="Times,serif" font-size="14.00">AllRawDetectors</text>
<text text-anchor="start" x="240.5" y="-157.7" font-family="Times,serif" font-size="11.00">via:</text>
<text text-anchor="start" x="261.5" y="-157.7" font-family="Times,serif" font-style="italic" font-size="11.00">load_geant4_csv</text>
</g>
<g id="clust5" class="cluster">
<title>cluster_CorrectedDetector</title>
<polygon fill="#f0f0ff" stroke="#f0f0ff" points="2105,-204.5 2105,-300.5 2299,-300.5 2299,-204.5 2105,-204.5"/>
<text text-anchor="start" x="2135" y="-286.3" font-family="Times,serif" font-size="14.00">CorrectedDetector</text>
<text text-anchor="start" x="2113" y="-274.7" font-family="Times,serif" font-size="11.00">via:</text>
<text text-anchor="start" x="2134" y="-274.7" font-family="Times,serif" font-style="italic" font-size="11.00">add_masks_and_corrections</text>
</g>
<g id="clust6" class="cluster">
<title>cluster_CorrectedDspacing</title>
<polygon fill="#f0f0ff" stroke="#f0f0ff" points="2357,-165.5 2357,-261.5 2595,-261.5 2595,-165.5 2357,-165.5"/>
<text text-anchor="start" x="2407" y="-247.3" font-family="Times,serif" font-size="14.00">CorrectedDspacing</text>
<text text-anchor="start" x="2365" y="-235.7" font-family="Times,serif" font-size="11.00">via:</text>
<text text-anchor="start" x="2386" y="-235.7" font-family="Times,serif" font-style="italic" font-size="11.00">focus_data_dspacing_and_two_theta</text>
</g>
<g id="clust7" class="cluster">
<title>cluster_DetectorLtotal</title>
<polygon fill="#f0f0ff" stroke="#f0f0ff" points="1107,-172.5 1107,-268.5 1421,-268.5 1421,-172.5 1107,-172.5"/>
<text text-anchor="start" x="1211.5" y="-254.3" font-family="Times,serif" font-size="14.00">DetectorLtotal</text>
<text text-anchor="start" x="1115" y="-242.7" font-family="Times,serif" font-size="11.00">via:</text>
<text text-anchor="start" x="1136" y="-242.7" font-family="Times,serif" font-style="italic" font-size="11.00">detector_ltotal_from_straight_line_approximation</text>
</g>
<g id="clust11" class="cluster">
<title>cluster_Filename</title>
<polygon fill="#f0f0ff" stroke="#f0f0ff" points="8,-87.5 8,-173.5 134,-173.5 134,-87.5 8,-87.5"/>
<text text-anchor="middle" x="71" y="-158.3" font-family="Times,serif" font-size="14.00">Filename</text>
</g>
<g id="clust9" class="cluster">
<title>cluster_ElasticCoordTransformGraph</title>
<polygon fill="#f0f0ff" stroke="#f0f0ff" points="1128,-276.5 1128,-372.5 1400,-372.5 1400,-276.5 1128,-276.5"/>
<text text-anchor="start" x="1158.5" y="-358.3" font-family="Times,serif" font-size="14.00">ElasticCoordTransformGraph</text>
<text text-anchor="start" x="1136" y="-346.7" font-family="Times,serif" font-size="11.00">via:</text>
<text text-anchor="start" x="1157" y="-346.7" font-family="Times,serif" font-style="italic" font-size="11.00">powder_coordinate_transformation_graph</text>
</g>
<g id="clust10" class="cluster">
<title>cluster_EmptyDetector</title>
<polygon fill="#f0f0ff" stroke="#f0f0ff" points="777,-68.5 777,-164.5 991,-164.5 991,-68.5 777,-68.5"/>
<text text-anchor="start" x="829" y="-150.3" font-family="Times,serif" font-size="14.00">EmptyDetector</text>
<text text-anchor="start" x="785" y="-138.7" font-family="Times,serif" font-size="11.00">via:</text>
<text text-anchor="start" x="806" y="-138.7" font-family="Times,serif" font-style="italic" font-size="11.00">get_calibrated_geant4_detector</text>
</g>
<g id="clust12" class="cluster">
<title>cluster_FocussedDataDspacing</title>
<polygon fill="#f0f0ff" stroke="#f0f0ff" points="2928,-215.5 2928,-311.5 3110,-311.5 3110,-215.5 2928,-215.5"/>
<text text-anchor="start" x="2936" y="-297.3" font-family="Times,serif" font-size="14.00">FocussedDataDspacing</text>
<text text-anchor="start" x="2952" y="-285.7" font-family="Times,serif" font-size="11.00">via:</text>
<text text-anchor="start" x="2973" y="-285.7" font-family="Times,serif" font-style="italic" font-size="11.00">integrate_two_theta</text>
</g>
<g id="clust16" class="cluster">
<title>cluster_KeepEvents</title>
<polygon fill="#f0f0ff" stroke="#f0f0ff" points="2139,-78.5 2139,-164.5 2265,-164.5 2265,-78.5 2139,-78.5"/>
<text text-anchor="middle" x="2202" y="-149.3" font-family="Times,serif" font-size="14.00">KeepEvents</text>
</g>
<g id="clust18" class="cluster">
<title>cluster_NeXusComponent</title>
<polygon fill="#f0f0ff" stroke="#f0f0ff" points="463.5,-68.5 463.5,-164.5 664.5,-164.5 664.5,-68.5 463.5,-68.5"/>
<text text-anchor="start" x="499.5" y="-150.3" font-family="Times,serif" font-size="14.00">NeXusComponent</text>
<text text-anchor="start" x="485.5" y="-138.7" font-family="Times,serif" font-size="11.00">via:</text>
<text text-anchor="start" x="506.5" y="-138.7" font-family="Times,serif" font-style="italic" font-size="11.00">extract_geant4_detector</text>
</g>
<g id="clust21" class="cluster">
<title>cluster_Position</title>
<polygon fill="#f0f0ff" stroke="#f0f0ff" points="786.5,-223.5 786.5,-359.5 981.5,-359.5 981.5,-223.5 786.5,-223.5"/>
<text text-anchor="middle" x="884" y="-344.3" font-family="Times,serif" font-size="14.00">Position</text>
</g>
<g id="clust20" class="cluster">
<title>cluster_NormalizedDspacing</title>
<polygon fill="#f0f0ff" stroke="#f0f0ff" points="2651,-215.5 2651,-311.5 2848,-311.5 2848,-215.5 2651,-215.5"/>
<text text-anchor="start" x="2675" y="-297.3" font-family="Times,serif" font-size="14.00">NormalizedDspacing</text>
<text text-anchor="start" x="2659" y="-285.7" font-family="Times,serif" font-size="11.00">via:</text>
<text text-anchor="start" x="2680" y="-285.7" font-family="Times,serif" font-style="italic" font-size="11.00">normalize_by_proton_charge</text>
</g>
<g id="clust23" class="cluster">
<title>cluster_RawDetector</title>
<polygon fill="#f0f0ff" stroke="#f0f0ff" points="1178,-68.5 1178,-164.5 1351,-164.5 1351,-68.5 1178,-68.5"/>
<text text-anchor="start" x="1217.5" y="-150.3" font-family="Times,serif" font-size="14.00">RawDetector</text>
<text text-anchor="start" x="1186" y="-138.7" font-family="Times,serif" font-size="11.00">via:</text>
<text text-anchor="start" x="1207" y="-138.7" font-family="Times,serif" font-style="italic" font-size="11.00">assemble_detector_data</text>
</g>
<g id="clust24" class="cluster">
<title>cluster_TofDetector</title>
<polygon fill="#f0f0ff" stroke="#f0f0ff" points="1492.5,-116.5 1492.5,-212.5 1688.5,-212.5 1688.5,-116.5 1492.5,-116.5"/>
<text text-anchor="start" x="1548" y="-198.3" font-family="Times,serif" font-size="14.00">TofDetector</text>
<text text-anchor="start" x="1500.5" y="-186.7" font-family="Times,serif" font-size="11.00">via:</text>
<text text-anchor="start" x="1521.5" y="-186.7" font-family="Times,serif" font-style="italic" font-size="11.00">detector_time_of_flight_data</text>
</g>
<g id="clust30" class="cluster">
<title>cluster_WavelengthDetector</title>
<polygon fill="#f0f0ff" stroke="#f0f0ff" points="1760,-253.5 1760,-349.5 2039,-349.5 2039,-253.5 1760,-253.5"/>
<text text-anchor="start" x="1826" y="-335.3" font-family="Times,serif" font-size="14.00">WavelengthDetector</text>
<text text-anchor="start" x="1768" y="-323.7" font-family="Times,serif" font-size="11.00">via:</text>
<text text-anchor="start" x="1789" y="-323.7" font-family="Times,serif" font-style="italic" font-size="11.00">add_scattering_coordinates_from_positions</text>
</g>
<!-- AccumulatedProtonCharge[SampleRun] -->
<g id="node1" class="node">
<title>AccumulatedProtonCharge[SampleRun]</title>
<polygon fill="none" stroke="black" points="2523.5,-299 2428.5,-299 2428.5,-278 2523.5,-278 2523.5,-299"/>
<text text-anchor="start" x="2436.5" y="-285.4" font-family="Times,serif" font-size="12.00">[SampleRun]</text>
</g>
<!-- NormalizedDspacing[SampleRun] -->
<g id="node35" class="node">
<title>NormalizedDspacing[SampleRun]</title>
<polygon fill="none" stroke="black" points="2796.5,-245 2701.5,-245 2701.5,-224 2796.5,-224 2796.5,-245"/>
<text text-anchor="start" x="2709.5" y="-231.4" font-family="Times,serif" font-size="12.00">[SampleRun]</text>
</g>
<!-- AccumulatedProtonCharge[SampleRun]&#45;&gt;NormalizedDspacing[SampleRun] -->
<g id="edge39" class="edge">
<title>AccumulatedProtonCharge[SampleRun]:e&#45;&gt;NormalizedDspacing[SampleRun]:w</title>
<path fill="none" stroke="black" d="M2525,-288.5C2602.9,-288.5 2617.43,-239.04 2689.88,-234.79"/>
<polygon fill="black" stroke="black" points="2690.1,-238.29 2700,-234.5 2689.9,-231.29 2690.1,-238.29"/>
</g>
<!-- AccumulatedProtonCharge[VanadiumRun] -->
<g id="node2" class="node">
<title>AccumulatedProtonCharge[VanadiumRun]</title>
<polygon fill="none" stroke="black" points="2531,-324 2421,-324 2421,-303 2531,-303 2531,-324"/>
<text text-anchor="start" x="2429" y="-310.4" font-family="Times,serif" font-size="12.00">[VanadiumRun]</text>
</g>
<!-- NormalizedDspacing[VanadiumRun] -->
<g id="node37" class="node">
<title>NormalizedDspacing[VanadiumRun]</title>
<polygon fill="none" stroke="black" points="2804,-270 2694,-270 2694,-249 2804,-249 2804,-270"/>
<text text-anchor="start" x="2702" y="-256.4" font-family="Times,serif" font-size="12.00">[VanadiumRun]</text>
</g>
<!-- AccumulatedProtonCharge[VanadiumRun]&#45;&gt;NormalizedDspacing[VanadiumRun] -->
<g id="edge41" class="edge">
<title>AccumulatedProtonCharge[VanadiumRun]:e&#45;&gt;NormalizedDspacing[VanadiumRun]:w</title>
<path fill="none" stroke="black" d="M2532,-313.5C2560.68,-313.5 2567.62,-308.06 2595,-299.5 2636.39,-286.56 2644.77,-263.48 2682.69,-259.96"/>
<polygon fill="black" stroke="black" points="2683.16,-263.44 2693,-259.5 2682.85,-256.45 2683.16,-263.44"/>
</g>
<!-- Filename[SampleRun] -->
<g id="node3" class="node">
<title>Filename[SampleRun]</title>
<polygon fill="none" stroke="black" points="118.5,-117 23.5,-117 23.5,-96 118.5,-96 118.5,-117"/>
<text text-anchor="start" x="31.5" y="-103.4" font-family="Times,serif" font-size="12.00">[SampleRun]</text>
</g>
<!-- AllRawDetectors[SampleRun] -->
<g id="node4" class="node">
<title>AllRawDetectors[SampleRun]</title>
<polygon fill="none" stroke="black" points="344,-117 249,-117 249,-96 344,-96 344,-117"/>
<text text-anchor="start" x="257" y="-103.4" font-family="Times,serif" font-size="12.00">[SampleRun]</text>
</g>
<!-- Filename[SampleRun]&#45;&gt;AllRawDetectors[SampleRun] -->
<g id="edge1" class="edge">
<title>Filename[SampleRun]:e&#45;&gt;AllRawDetectors[SampleRun]:w</title>
<path fill="none" stroke="black" d="M120,-106.5C173.12,-106.5 188.9,-106.5 237.35,-106.5"/>
<polygon fill="black" stroke="black" points="237.5,-110 247.5,-106.5 237.5,-103 237.5,-110"/>
</g>
<!-- NeXusComponent[NXdetector, SampleRun] -->
<g id="node33" class="node">
<title>NeXusComponent[NXdetector, SampleRun]</title>
<polygon fill="none" stroke="black" points="649,-98 479,-98 479,-77 649,-77 649,-98"/>
<text text-anchor="start" x="487" y="-84.4" font-family="Times,serif" font-size="12.00">[NXdetector, SampleRun]</text>
</g>
<!-- AllRawDetectors[SampleRun]&#45;&gt;NeXusComponent[NXdetector, SampleRun] -->
<g id="edge34" class="edge">
<title>AllRawDetectors[SampleRun]:e&#45;&gt;NeXusComponent[NXdetector, SampleRun]:w</title>
<path fill="none" stroke="black" d="M345.5,-106.5C401.51,-106.5 416.77,-89.66 468,-87.69"/>
<polygon fill="black" stroke="black" points="468.07,-91.19 478,-87.5 467.94,-84.19 468.07,-91.19"/>
</g>
<!-- Filename[VanadiumRun] -->
<g id="node5" class="node">
<title>Filename[VanadiumRun]</title>
<polygon fill="none" stroke="black" points="126,-142 16,-142 16,-121 126,-121 126,-142"/>
<text text-anchor="start" x="24" y="-128.4" font-family="Times,serif" font-size="12.00">[VanadiumRun]</text>
</g>
<!-- AllRawDetectors[VanadiumRun] -->
<g id="node6" class="node">
<title>AllRawDetectors[VanadiumRun]</title>
<polygon fill="none" stroke="black" points="351.5,-142 241.5,-142 241.5,-121 351.5,-121 351.5,-142"/>
<text text-anchor="start" x="249.5" y="-128.4" font-family="Times,serif" font-size="12.00">[VanadiumRun]</text>
</g>
<!-- Filename[VanadiumRun]&#45;&gt;AllRawDetectors[VanadiumRun] -->
<g id="edge2" class="edge">
<title>Filename[VanadiumRun]:e&#45;&gt;AllRawDetectors[VanadiumRun]:w</title>
<path fill="none" stroke="black" d="M127,-131.5C173.9,-131.5 188.1,-131.5 230.39,-131.5"/>
<polygon fill="black" stroke="black" points="230.5,-135 240.5,-131.5 230.5,-128 230.5,-135"/>
</g>
<!-- NeXusComponent[NXdetector, VanadiumRun] -->
<g id="node34" class="node">
<title>NeXusComponent[NXdetector, VanadiumRun]</title>
<polygon fill="none" stroke="black" points="656.5,-123 471.5,-123 471.5,-102 656.5,-102 656.5,-123"/>
<text text-anchor="start" x="479.5" y="-109.4" font-family="Times,serif" font-size="12.00">[NXdetector, VanadiumRun]</text>
</g>
<!-- AllRawDetectors[VanadiumRun]&#45;&gt;NeXusComponent[NXdetector, VanadiumRun] -->
<g id="edge36" class="edge">
<title>AllRawDetectors[VanadiumRun]:e&#45;&gt;NeXusComponent[NXdetector, VanadiumRun]:w</title>
<path fill="none" stroke="black" d="M352.5,-131.5C402.3,-131.5 415.91,-114.94 460.9,-112.74"/>
<polygon fill="black" stroke="black" points="461.09,-116.24 471,-112.5 460.92,-109.24 461.09,-116.24"/>
</g>
<!-- CalibrationFilename -->
<g id="node7" class="node">
<title>CalibrationFilename</title>
<polygon fill="none" stroke="black" points="1345,-404 1183,-404 1183,-381 1345,-381 1345,-404"/>
<text text-anchor="middle" x="1264" y="-388.8" font-family="Times,serif" font-size="14.00">CalibrationFilename</text>
</g>
<!-- CalibrationData -->
<g id="node8" class="node">
<title>CalibrationData</title>
<polygon fill="none" stroke="black" points="1676,-313 1505,-313 1505,-280 1676,-280 1676,-313"/>
<text text-anchor="start" x="1533.5" y="-298.8" font-family="Times,serif" font-size="14.00">CalibrationData</text>
<text text-anchor="start" x="1513" y="-287.2" font-family="Times,serif" font-size="11.00">via:</text>
<text text-anchor="start" x="1534" y="-287.2" font-family="Times,serif" font-style="italic" font-size="11.00">geant4_load_calibration</text>
</g>
<!-- CalibrationFilename&#45;&gt;CalibrationData -->
<g id="edge3" class="edge">
<title>CalibrationFilename:e&#45;&gt;CalibrationData:w</title>
<path fill="none" stroke="black" d="M1346,-392.5C1380.39,-392.5 1390.82,-389.97 1421,-373.5 1461.76,-351.26 1454.77,-304.2 1493.31,-297.34"/>
<polygon fill="black" stroke="black" points="1493.82,-300.81 1503.5,-296.5 1493.25,-293.84 1493.82,-300.81"/>
</g>
<!-- WavelengthDetector[SampleRun] -->
<g id="node9" class="node">
<title>WavelengthDetector[SampleRun]</title>
<polygon fill="none" stroke="black" points="1946.5,-283 1851.5,-283 1851.5,-262 1946.5,-262 1946.5,-283"/>
<text text-anchor="start" x="1859.5" y="-269.4" font-family="Times,serif" font-size="12.00">[SampleRun]</text>
</g>
<!-- CalibrationData&#45;&gt;WavelengthDetector[SampleRun] -->
<g id="edge54" class="edge">
<title>CalibrationData:e&#45;&gt;WavelengthDetector[SampleRun]:w</title>
<path fill="none" stroke="black" stroke-width="2" d="M1677.5,-296.5C1708.87,-296.5 1730.43,-292.56 1750.14,-287.87"/>
<polygon fill="black" stroke="black" stroke-width="2" points="1751.13,-291.23 1760,-285.44 1749.46,-284.43 1751.13,-291.23"/>
</g>
<!-- CorrectedDetector[SampleRun] -->
<g id="node10" class="node">
<title>CorrectedDetector[SampleRun]</title>
<polygon fill="none" stroke="black" points="2249.5,-234 2154.5,-234 2154.5,-213 2249.5,-213 2249.5,-234"/>
<text text-anchor="start" x="2162.5" y="-220.4" font-family="Times,serif" font-size="12.00">[SampleRun]</text>
</g>
<!-- WavelengthDetector[SampleRun]&#45;&gt;CorrectedDetector[SampleRun] -->
<g id="edge4" class="edge">
<title>WavelengthDetector[SampleRun]:e&#45;&gt;CorrectedDetector[SampleRun]:w</title>
<path fill="none" stroke="black" d="M1948,-272.5C2038.2,-272.5 2057.91,-227.07 2142.88,-223.7"/>
<polygon fill="black" stroke="black" points="2143.07,-227.19 2153,-223.5 2142.93,-220.2 2143.07,-227.19"/>
</g>
<!-- CorrectedDspacing[SampleRun] -->
<g id="node17" class="node">
<title>CorrectedDspacing[SampleRun]</title>
<polygon fill="none" stroke="black" points="2523.5,-195 2428.5,-195 2428.5,-174 2523.5,-174 2523.5,-195"/>
<text text-anchor="start" x="2436.5" y="-181.4" font-family="Times,serif" font-size="12.00">[SampleRun]</text>
</g>
<!-- CorrectedDetector[SampleRun]&#45;&gt;CorrectedDspacing[SampleRun] -->
<g id="edge10" class="edge">
<title>CorrectedDetector[SampleRun]:e&#45;&gt;CorrectedDspacing[SampleRun]:w</title>
<path fill="none" stroke="black" d="M2251,-223.5C2327.52,-223.5 2345.33,-187.93 2416.58,-184.73"/>
<polygon fill="black" stroke="black" points="2417.08,-188.22 2427,-184.5 2416.93,-181.22 2417.08,-188.22"/>
</g>
<!-- MaskedDetectorIDs -->
<g id="node11" class="node">
<title>MaskedDetectorIDs</title>
<polygon fill="none" stroke="black" points="1978,-191 1820,-191 1820,-168 1978,-168 1978,-191"/>
<text text-anchor="middle" x="1899" y="-175.8" font-family="Times,serif" font-size="14.00">MaskedDetectorIDs</text>
</g>
<!-- MaskedDetectorIDs&#45;&gt;CorrectedDetector[SampleRun] -->
<g id="edge5" class="edge">
<title>MaskedDetectorIDs:e&#45;&gt;CorrectedDetector[SampleRun]:w</title>
<path fill="none" stroke="black" stroke-width="2" d="M1979,-179.5C2034.87,-179.5 2058.7,-201.08 2095.37,-214.02"/>
<polygon fill="black" stroke="black" stroke-width="2" points="2094.41,-217.38 2105,-217.1 2096.55,-210.72 2094.41,-217.38"/>
</g>
<!-- TofMask -->
<g id="node12" class="node">
<title>TofMask</title>
<polygon fill="none" stroke="black" points="1937.5,-164 1860.5,-164 1860.5,-141 1937.5,-141 1937.5,-164"/>
<text text-anchor="middle" x="1899" y="-148.8" font-family="Times,serif" font-size="14.00">TofMask</text>
</g>
<!-- TofMask&#45;&gt;CorrectedDetector[SampleRun] -->
<g id="edge6" class="edge">
<title>TofMask:e&#45;&gt;CorrectedDetector[SampleRun]:w</title>
<path fill="none" stroke="black" stroke-width="2" d="M1939,-152.5C1984.01,-152.5 1996.06,-155.02 2039,-168.5 2066.91,-177.26 2081.4,-191.77 2096.8,-203.7"/>
<polygon fill="black" stroke="black" stroke-width="2" points="2094.85,-206.61 2105,-209.65 2098.96,-200.94 2094.85,-206.61"/>
</g>
<!-- WavelengthMask -->
<g id="node13" class="node">
<title>WavelengthMask</title>
<polygon fill="none" stroke="black" points="1968.5,-245 1829.5,-245 1829.5,-222 1968.5,-222 1968.5,-245"/>
<text text-anchor="middle" x="1899" y="-229.8" font-family="Times,serif" font-size="14.00">WavelengthMask</text>
</g>
<!-- WavelengthMask&#45;&gt;CorrectedDetector[SampleRun] -->
<g id="edge7" class="edge">
<title>WavelengthMask:e&#45;&gt;CorrectedDetector[SampleRun]:w</title>
<path fill="none" stroke="black" stroke-width="2" d="M1970,-233.5C2027.93,-233.5 2054.82,-228.44 2094.82,-225.52"/>
<polygon fill="black" stroke="black" stroke-width="2" points="2095.26,-229 2105,-224.85 2094.79,-222.01 2095.26,-229"/>
</g>
<!-- TwoThetaMask -->
<g id="node14" class="node">
<title>TwoThetaMask</title>
<polygon fill="none" stroke="black" points="1961.5,-218 1836.5,-218 1836.5,-195 1961.5,-195 1961.5,-218"/>
<text text-anchor="middle" x="1899" y="-202.8" font-family="Times,serif" font-size="14.00">TwoThetaMask</text>
</g>
<!-- TwoThetaMask&#45;&gt;CorrectedDetector[SampleRun] -->
<g id="edge8" class="edge">
<title>TwoThetaMask:e&#45;&gt;CorrectedDetector[SampleRun]:w</title>
<path fill="none" stroke="black" stroke-width="2" d="M1962,-206.5C2023.9,-206.5 2051.68,-215.47 2094.91,-220.38"/>
<polygon fill="black" stroke="black" stroke-width="2" points="2094.7,-223.87 2105,-221.42 2095.41,-216.91 2094.7,-223.87"/>
</g>
<!-- WavelengthDetector[VanadiumRun] -->
<g id="node15" class="node">
<title>WavelengthDetector[VanadiumRun]</title>
<polygon fill="none" stroke="black" points="1954,-308 1844,-308 1844,-287 1954,-287 1954,-308"/>
<text text-anchor="start" x="1852" y="-294.4" font-family="Times,serif" font-size="12.00">[VanadiumRun]</text>
</g>
<!-- CorrectedDetector[VanadiumRun] -->
<g id="node16" class="node">
<title>CorrectedDetector[VanadiumRun]</title>
<polygon fill="none" stroke="black" points="2257,-259 2147,-259 2147,-238 2257,-238 2257,-259"/>
<text text-anchor="start" x="2155" y="-245.4" font-family="Times,serif" font-size="12.00">[VanadiumRun]</text>
</g>
<!-- WavelengthDetector[VanadiumRun]&#45;&gt;CorrectedDetector[VanadiumRun] -->
<g id="edge9" class="edge">
<title>WavelengthDetector[VanadiumRun]:e&#45;&gt;CorrectedDetector[VanadiumRun]:w</title>
<path fill="none" stroke="black" d="M1955,-297.5C1992.85,-297.5 2002.24,-292.52 2039,-283.5 2084.08,-272.44 2094.54,-251.78 2135.77,-248.85"/>
<polygon fill="black" stroke="black" points="2136.13,-252.34 2146,-248.5 2135.89,-245.34 2136.13,-252.34"/>
</g>
<!-- CorrectedDspacing[VanadiumRun] -->
<g id="node20" class="node">
<title>CorrectedDspacing[VanadiumRun]</title>
<polygon fill="none" stroke="black" points="2531,-220 2421,-220 2421,-199 2531,-199 2531,-220"/>
<text text-anchor="start" x="2429" y="-206.4" font-family="Times,serif" font-size="12.00">[VanadiumRun]</text>
</g>
<!-- CorrectedDetector[VanadiumRun]&#45;&gt;CorrectedDspacing[VanadiumRun] -->
<g id="edge13" class="edge">
<title>CorrectedDetector[VanadiumRun]:e&#45;&gt;CorrectedDspacing[VanadiumRun]:w</title>
<path fill="none" stroke="black" d="M2258,-248.5C2328.59,-248.5 2344.51,-213.07 2409.97,-209.75"/>
<polygon fill="black" stroke="black" points="2410.09,-213.25 2420,-209.5 2409.92,-206.25 2410.09,-213.25"/>
</g>
<!-- CorrectedDspacing[SampleRun]&#45;&gt;NormalizedDspacing[SampleRun] -->
<g id="edge38" class="edge">
<title>CorrectedDspacing[SampleRun]:e&#45;&gt;NormalizedDspacing[SampleRun]:w</title>
<path fill="none" stroke="black" d="M2525,-184.5C2556.82,-184.5 2564.31,-191.12 2595,-199.5 2639.03,-211.52 2649.4,-231.36 2689.95,-234.17"/>
<polygon fill="black" stroke="black" points="2689.89,-237.67 2700,-234.5 2690.12,-230.67 2689.89,-237.67"/>
</g>
<!-- DspacingBins -->
<g id="node18" class="node">
<title>DspacingBins</title>
<polygon fill="none" stroke="black" points="2259,-196 2145,-196 2145,-173 2259,-173 2259,-196"/>
<text text-anchor="middle" x="2202" y="-180.8" font-family="Times,serif" font-size="14.00">DspacingBins</text>
</g>
<!-- DspacingBins&#45;&gt;CorrectedDspacing[SampleRun] -->
<g id="edge11" class="edge">
<title>DspacingBins:e&#45;&gt;CorrectedDspacing[SampleRun]:w</title>
<path fill="none" stroke="black" stroke-width="2" d="M2260,-184.5C2298.9,-184.5 2322.51,-184.5 2346.86,-184.5"/>
<polygon fill="black" stroke="black" stroke-width="2" points="2347,-188 2357,-184.5 2347,-181 2347,-188"/>
</g>
<!-- KeepEvents[SampleRun] -->
<g id="node19" class="node">
<title>KeepEvents[SampleRun]</title>
<polygon fill="none" stroke="black" points="2249.5,-108 2154.5,-108 2154.5,-87 2249.5,-87 2249.5,-108"/>
<text text-anchor="start" x="2162.5" y="-94.4" font-family="Times,serif" font-size="12.00">[SampleRun]</text>
</g>
<!-- KeepEvents[SampleRun]&#45;&gt;CorrectedDspacing[SampleRun] -->
<g id="edge12" class="edge">
<title>KeepEvents[SampleRun]:e&#45;&gt;CorrectedDspacing[SampleRun]:w</title>
<path fill="none" stroke="black" d="M2251,-97.5C2334.68,-97.5 2339.48,-177.51 2416.68,-184.07"/>
<polygon fill="black" stroke="black" points="2416.86,-187.58 2427,-184.5 2417.15,-180.59 2416.86,-187.58"/>
</g>
<!-- CorrectedDspacing[VanadiumRun]&#45;&gt;NormalizedDspacing[VanadiumRun] -->
<g id="edge40" class="edge">
<title>CorrectedDspacing[VanadiumRun]:e&#45;&gt;NormalizedDspacing[VanadiumRun]:w</title>
<path fill="none" stroke="black" d="M2532,-209.5C2603.41,-209.5 2616.89,-254.92 2682.87,-259.18"/>
<polygon fill="black" stroke="black" points="2682.89,-262.68 2693,-259.5 2683.12,-255.69 2682.89,-262.68"/>
</g>
<!-- KeepEvents[VanadiumRun] -->
<g id="node21" class="node">
<title>KeepEvents[VanadiumRun]</title>
<polygon fill="none" stroke="black" points="2257,-133 2147,-133 2147,-112 2257,-112 2257,-133"/>
<text text-anchor="start" x="2155" y="-119.4" font-family="Times,serif" font-size="12.00">[VanadiumRun]</text>
</g>
<!-- KeepEvents[VanadiumRun]&#45;&gt;CorrectedDspacing[VanadiumRun] -->
<g id="edge14" class="edge">
<title>KeepEvents[VanadiumRun]:e&#45;&gt;CorrectedDspacing[VanadiumRun]:w</title>
<path fill="none" stroke="black" d="M2258,-122.5C2312.67,-122.5 2307.24,-172.86 2357,-195.5 2379.74,-205.85 2388.9,-208.79 2409.85,-209.38"/>
<polygon fill="black" stroke="black" points="2409.96,-212.88 2420,-209.5 2410.04,-205.88 2409.96,-212.88"/>
</g>
<!-- EmptyDetector[SampleRun] -->
<g id="node22" class="node">
<title>EmptyDetector[SampleRun]</title>
<polygon fill="none" stroke="black" points="931.5,-98 836.5,-98 836.5,-77 931.5,-77 931.5,-98"/>
<text text-anchor="start" x="844.5" y="-84.4" font-family="Times,serif" font-size="12.00">[SampleRun]</text>
</g>
<!-- DetectorLtotal[SampleRun] -->
<g id="node23" class="node">
<title>DetectorLtotal[SampleRun]</title>
<polygon fill="none" stroke="black" points="1311.5,-202 1216.5,-202 1216.5,-181 1311.5,-181 1311.5,-202"/>
<text text-anchor="start" x="1224.5" y="-188.4" font-family="Times,serif" font-size="12.00">[SampleRun]</text>
</g>
<!-- EmptyDetector[SampleRun]&#45;&gt;DetectorLtotal[SampleRun] -->
<g id="edge15" class="edge">
<title>EmptyDetector[SampleRun]:e&#45;&gt;DetectorLtotal[SampleRun]:w</title>
<path fill="none" stroke="black" d="M933,-87.5C978.82,-87.5 993.4,-83.3 1035,-102.5 1073.61,-120.32 1069.24,-145.96 1107,-165.5 1147.68,-186.55 1163.34,-190.92 1204.81,-191.44"/>
<polygon fill="black" stroke="black" points="1204.98,-194.94 1215,-191.5 1205.02,-187.94 1204.98,-194.94"/>
</g>
<!-- RawDetector[SampleRun] -->
<g id="node44" class="node">
<title>RawDetector[SampleRun]</title>
<polygon fill="none" stroke="black" points="1311.5,-98 1216.5,-98 1216.5,-77 1311.5,-77 1311.5,-98"/>
<text text-anchor="start" x="1224.5" y="-84.4" font-family="Times,serif" font-size="12.00">[SampleRun]</text>
</g>
<!-- EmptyDetector[SampleRun]&#45;&gt;RawDetector[SampleRun] -->
<g id="edge42" class="edge">
<title>EmptyDetector[SampleRun]:e&#45;&gt;RawDetector[SampleRun]:w</title>
<path fill="none" stroke="black" d="M933,-87.5C1054.91,-87.5 1087.88,-87.5 1204.93,-87.5"/>
<polygon fill="black" stroke="black" points="1205,-91 1215,-87.5 1205,-84 1205,-91"/>
</g>
<!-- TofDetector[SampleRun] -->
<g id="node46" class="node">
<title>TofDetector[SampleRun]</title>
<polygon fill="none" stroke="black" points="1638,-146 1543,-146 1543,-125 1638,-125 1638,-146"/>
<text text-anchor="start" x="1551" y="-132.4" font-family="Times,serif" font-size="12.00">[SampleRun]</text>
</g>
<!-- DetectorLtotal[SampleRun]&#45;&gt;TofDetector[SampleRun] -->
<g id="edge46" class="edge">
<title>DetectorLtotal[SampleRun]:e&#45;&gt;TofDetector[SampleRun]:w</title>
<path fill="none" stroke="black" d="M1313,-191.5C1414.09,-191.5 1435.56,-139.16 1531.36,-135.68"/>
<polygon fill="black" stroke="black" points="1531.56,-139.18 1541.5,-135.5 1531.44,-132.18 1531.56,-139.18"/>
</g>
<!-- Position[NXsource, SampleRun] -->
<g id="node24" class="node">
<title>Position[NXsource, SampleRun]</title>
<polygon fill="none" stroke="black" points="964.5,-253 803.5,-253 803.5,-232 964.5,-232 964.5,-253"/>
<text text-anchor="start" x="811.5" y="-239.4" font-family="Times,serif" font-size="12.00">[NXsource, SampleRun]</text>
</g>
<!-- Position[NXsource, SampleRun]&#45;&gt;DetectorLtotal[SampleRun] -->
<g id="edge16" class="edge">
<title>Position[NXsource, SampleRun]:e&#45;&gt;DetectorLtotal[SampleRun]:w</title>
<path fill="none" stroke="black" d="M966,-242.5C1030.68,-242.5 1043.54,-218.97 1107,-206.5 1151.02,-197.85 1164.56,-192.36 1204.78,-191.59"/>
<polygon fill="black" stroke="black" points="1205.03,-195.09 1215,-191.5 1204.97,-188.09 1205.03,-195.09"/>
</g>
<!-- ElasticCoordTransformGraph[SampleRun] -->
<g id="node31" class="node">
<title>ElasticCoordTransformGraph[SampleRun]</title>
<polygon fill="none" stroke="black" points="1311.5,-306 1216.5,-306 1216.5,-285 1311.5,-285 1311.5,-306"/>
<text text-anchor="start" x="1224.5" y="-292.4" font-family="Times,serif" font-size="12.00">[SampleRun]</text>
</g>
<!-- Position[NXsource, SampleRun]&#45;&gt;ElasticCoordTransformGraph[SampleRun] -->
<g id="edge22" class="edge">
<title>Position[NXsource, SampleRun]:e&#45;&gt;ElasticCoordTransformGraph[SampleRun]:w</title>
<path fill="none" stroke="black" d="M966,-242.5C1075.72,-242.5 1100.4,-292.34 1204.97,-295.36"/>
<polygon fill="black" stroke="black" points="1204.95,-298.86 1215,-295.5 1205.05,-291.86 1204.95,-298.86"/>
</g>
<!-- Position[NXsample, SampleRun] -->
<g id="node25" class="node">
<title>Position[NXsample, SampleRun]</title>
<polygon fill="none" stroke="black" points="966,-278 802,-278 802,-257 966,-257 966,-278"/>
<text text-anchor="start" x="810" y="-264.4" font-family="Times,serif" font-size="12.00">[NXsample, SampleRun]</text>
</g>
<!-- Position[NXsample, SampleRun]&#45;&gt;DetectorLtotal[SampleRun] -->
<g id="edge17" class="edge">
<title>Position[NXsample, SampleRun]:e&#45;&gt;DetectorLtotal[SampleRun]:w</title>
<path fill="none" stroke="black" d="M967,-267.5C997.86,-267.5 1006.47,-265.25 1035,-253.5 1070.33,-238.95 1071.21,-219.9 1107,-206.5 1149.02,-190.77 1164.27,-191.31 1204.75,-191.48"/>
<polygon fill="black" stroke="black" points="1204.99,-194.98 1215,-191.5 1205.01,-187.98 1204.99,-194.98"/>
</g>
<!-- Position[NXsample, SampleRun]&#45;&gt;ElasticCoordTransformGraph[SampleRun] -->
<g id="edge23" class="edge">
<title>Position[NXsample, SampleRun]:e&#45;&gt;ElasticCoordTransformGraph[SampleRun]:w</title>
<path fill="none" stroke="black" d="M967,-267.5C1074.46,-267.5 1102.36,-293.78 1204.84,-295.42"/>
<polygon fill="black" stroke="black" points="1204.97,-298.92 1215,-295.5 1205.03,-291.92 1204.97,-298.92"/>
</g>
<!-- GravityVector -->
<g id="node26" class="node">
<title>GravityVector</title>
<polygon fill="none" stroke="black" points="961,-210 807,-210 807,-177 961,-177 961,-210"/>
<text text-anchor="start" x="834" y="-195.8" font-family="Times,serif" font-size="14.00">GravityVector</text>
<text text-anchor="start" x="815" y="-184.2" font-family="Times,serif" font-size="11.00">via:</text>
<text text-anchor="start" x="836" y="-184.2" font-family="Times,serif" font-style="italic" font-size="11.00">gravity_vector_neg_y</text>
</g>
<!-- GravityVector&#45;&gt;DetectorLtotal[SampleRun] -->
<g id="edge18" class="edge">
<title>GravityVector:e&#45;&gt;DetectorLtotal[SampleRun]:w</title>
<path fill="none" stroke="black" stroke-width="2" d="M962,-193.5C1022.62,-193.5 1058.72,-192.92 1096.74,-192.38"/>
<polygon fill="black" stroke="black" stroke-width="2" points="1097.05,-195.88 1107,-192.24 1096.95,-188.88 1097.05,-195.88"/>
</g>
<!-- GravityVector&#45;&gt;ElasticCoordTransformGraph[SampleRun] -->
<g id="edge24" class="edge">
<title>GravityVector:e&#45;&gt;ElasticCoordTransformGraph[SampleRun]:w</title>
<path fill="none" stroke="black" stroke-width="2" d="M962,-193.5C996.91,-193.5 1004.01,-206.43 1035,-222.5 1068.93,-240.09 1071.91,-254.36 1107,-269.5 1111.17,-271.3 1115.06,-272.98 1118.74,-274.56"/>
<polygon fill="black" stroke="black" stroke-width="2" points="1117.43,-277.81 1128,-278.51 1120.17,-271.37 1117.43,-277.81"/>
</g>
<!-- EmptyDetector[VanadiumRun] -->
<g id="node27" class="node">
<title>EmptyDetector[VanadiumRun]</title>
<polygon fill="none" stroke="black" points="939,-123 829,-123 829,-102 939,-102 939,-123"/>
<text text-anchor="start" x="837" y="-109.4" font-family="Times,serif" font-size="12.00">[VanadiumRun]</text>
</g>
<!-- DetectorLtotal[VanadiumRun] -->
<g id="node28" class="node">
<title>DetectorLtotal[VanadiumRun]</title>
<polygon fill="none" stroke="black" points="1319,-227 1209,-227 1209,-206 1319,-206 1319,-227"/>
<text text-anchor="start" x="1217" y="-213.4" font-family="Times,serif" font-size="12.00">[VanadiumRun]</text>
</g>
<!-- EmptyDetector[VanadiumRun]&#45;&gt;DetectorLtotal[VanadiumRun] -->
<g id="edge19" class="edge">
<title>EmptyDetector[VanadiumRun]:e&#45;&gt;DetectorLtotal[VanadiumRun]:w</title>
<path fill="none" stroke="black" d="M940,-112.5C1024.31,-112.5 1026.86,-176.3 1107,-202.5 1146.71,-215.48 1160.53,-216.43 1197.95,-216.49"/>
<polygon fill="black" stroke="black" points="1198,-219.99 1208,-216.5 1198,-212.99 1198,-219.99"/>
</g>
<!-- RawDetector[VanadiumRun] -->
<g id="node45" class="node">
<title>RawDetector[VanadiumRun]</title>
<polygon fill="none" stroke="black" points="1319,-123 1209,-123 1209,-102 1319,-102 1319,-123"/>
<text text-anchor="start" x="1217" y="-109.4" font-family="Times,serif" font-size="12.00">[VanadiumRun]</text>
</g>
<!-- EmptyDetector[VanadiumRun]&#45;&gt;RawDetector[VanadiumRun] -->
<g id="edge43" class="edge">
<title>EmptyDetector[VanadiumRun]:e&#45;&gt;RawDetector[VanadiumRun]:w</title>
<path fill="none" stroke="black" d="M940,-112.5C1055.62,-112.5 1087.07,-112.5 1197.76,-112.5"/>
<polygon fill="black" stroke="black" points="1198,-116 1208,-112.5 1198,-109 1198,-116"/>
</g>
<!-- TofDetector[VanadiumRun] -->
<g id="node48" class="node">
<title>TofDetector[VanadiumRun]</title>
<polygon fill="none" stroke="black" points="1645.5,-171 1535.5,-171 1535.5,-150 1645.5,-150 1645.5,-171"/>
<text text-anchor="start" x="1543.5" y="-157.4" font-family="Times,serif" font-size="12.00">[VanadiumRun]</text>
</g>
<!-- DetectorLtotal[VanadiumRun]&#45;&gt;TofDetector[VanadiumRun] -->
<g id="edge49" class="edge">
<title>DetectorLtotal[VanadiumRun]:e&#45;&gt;TofDetector[VanadiumRun]:w</title>
<path fill="none" stroke="black" d="M1320,-216.5C1365.32,-216.5 1377.05,-213.54 1421,-202.5 1469.7,-190.27 1479.51,-164.27 1524.37,-160.87"/>
<polygon fill="black" stroke="black" points="1524.63,-164.36 1534.5,-160.5 1524.38,-157.37 1524.63,-164.36"/>
</g>
<!-- Position[NXsource, VanadiumRun] -->
<g id="node29" class="node">
<title>Position[NXsource, VanadiumRun]</title>
<polygon fill="none" stroke="black" points="972,-303 796,-303 796,-282 972,-282 972,-303"/>
<text text-anchor="start" x="804" y="-289.4" font-family="Times,serif" font-size="12.00">[NXsource, VanadiumRun]</text>
</g>
<!-- Position[NXsource, VanadiumRun]&#45;&gt;DetectorLtotal[VanadiumRun] -->
<g id="edge20" class="edge">
<title>Position[NXsource, VanadiumRun]:e&#45;&gt;DetectorLtotal[VanadiumRun]:w</title>
<path fill="none" stroke="black" d="M973,-292.5C1079.34,-292.5 1097.17,-221.18 1197.98,-216.72"/>
<polygon fill="black" stroke="black" points="1198.08,-220.22 1208,-216.5 1197.93,-213.22 1198.08,-220.22"/>
</g>
<!-- ElasticCoordTransformGraph[VanadiumRun] -->
<g id="node32" class="node">
<title>ElasticCoordTransformGraph[VanadiumRun]</title>
<polygon fill="none" stroke="black" points="1319,-331 1209,-331 1209,-310 1319,-310 1319,-331"/>
<text text-anchor="start" x="1217" y="-317.4" font-family="Times,serif" font-size="12.00">[VanadiumRun]</text>
</g>
<!-- Position[NXsource, VanadiumRun]&#45;&gt;ElasticCoordTransformGraph[VanadiumRun] -->
<g id="edge25" class="edge">
<title>Position[NXsource, VanadiumRun]:e&#45;&gt;ElasticCoordTransformGraph[VanadiumRun]:w</title>
<path fill="none" stroke="black" d="M973,-292.5C1074.69,-292.5 1101.09,-318.67 1197.78,-320.41"/>
<polygon fill="black" stroke="black" points="1197.97,-323.91 1208,-320.5 1198.03,-316.91 1197.97,-323.91"/>
</g>
<!-- Position[NXsample, VanadiumRun] -->
<g id="node30" class="node">
<title>Position[NXsample, VanadiumRun]</title>
<polygon fill="none" stroke="black" points="973.5,-328 794.5,-328 794.5,-307 973.5,-307 973.5,-328"/>
<text text-anchor="start" x="802.5" y="-314.4" font-family="Times,serif" font-size="12.00">[NXsample, VanadiumRun]</text>
</g>
<!-- Position[NXsample, VanadiumRun]&#45;&gt;DetectorLtotal[VanadiumRun] -->
<g id="edge21" class="edge">
<title>Position[NXsample, VanadiumRun]:e&#45;&gt;DetectorLtotal[VanadiumRun]:w</title>
<path fill="none" stroke="black" d="M975,-317.5C1084.34,-317.5 1094.58,-222.71 1197.72,-216.79"/>
<polygon fill="black" stroke="black" points="1198.1,-220.28 1208,-216.5 1197.91,-213.28 1198.1,-220.28"/>
</g>
<!-- Position[NXsample, VanadiumRun]&#45;&gt;ElasticCoordTransformGraph[VanadiumRun] -->
<g id="edge26" class="edge">
<title>Position[NXsample, VanadiumRun]:e&#45;&gt;ElasticCoordTransformGraph[VanadiumRun]:w</title>
<path fill="none" stroke="black" d="M975,-317.5C1075.13,-317.5 1102.63,-320.3 1197.94,-320.49"/>
<polygon fill="black" stroke="black" points="1198,-323.99 1208,-320.5 1198,-316.99 1198,-323.99"/>
</g>
<!-- ElasticCoordTransformGraph[SampleRun]&#45;&gt;WavelengthDetector[SampleRun] -->
<g id="edge53" class="edge">
<title>ElasticCoordTransformGraph[SampleRun]:e&#45;&gt;WavelengthDetector[SampleRun]:w</title>
<path fill="none" stroke="black" d="M1313,-295.5C1393.09,-295.5 1412.52,-283.84 1492.5,-279.5 1647.78,-271.07 1689.31,-272.44 1839.92,-272.5"/>
<polygon fill="black" stroke="black" points="1840,-276 1850,-272.5 1840,-269 1840,-276"/>
</g>
<!-- ElasticCoordTransformGraph[VanadiumRun]&#45;&gt;WavelengthDetector[VanadiumRun] -->
<g id="edge56" class="edge">
<title>ElasticCoordTransformGraph[VanadiumRun]:e&#45;&gt;WavelengthDetector[VanadiumRun]:w</title>
<path fill="none" stroke="black" d="M1320,-320.5C1483.81,-320.5 1525,-323.5 1688.5,-313.5 1753.91,-309.5 1772.15,-298.68 1832.88,-297.59"/>
<polygon fill="black" stroke="black" points="1833.03,-301.09 1843,-297.5 1832.97,-294.09 1833.03,-301.09"/>
</g>
<!-- NeXusComponent[NXdetector, SampleRun]&#45;&gt;EmptyDetector[SampleRun] -->
<g id="edge27" class="edge">
<title>NeXusComponent[NXdetector, SampleRun]:e&#45;&gt;EmptyDetector[SampleRun]:w</title>
<path fill="none" stroke="black" d="M650,-87.5C728.69,-87.5 750.9,-87.5 824.73,-87.5"/>
<polygon fill="black" stroke="black" points="825,-91 835,-87.5 825,-84 825,-91"/>
</g>
<!-- NeXusComponent[NXdetector, VanadiumRun]&#45;&gt;EmptyDetector[VanadiumRun] -->
<g id="edge28" class="edge">
<title>NeXusComponent[NXdetector, VanadiumRun]:e&#45;&gt;EmptyDetector[VanadiumRun]:w</title>
<path fill="none" stroke="black" d="M657,-112.5C729.44,-112.5 750.09,-112.5 817.68,-112.5"/>
<polygon fill="black" stroke="black" points="818,-116 828,-112.5 818,-109 818,-116"/>
</g>
<!-- FocussedDataDspacing[SampleRun] -->
<g id="node36" class="node">
<title>FocussedDataDspacing[SampleRun]</title>
<polygon fill="none" stroke="black" points="3066.5,-245 2971.5,-245 2971.5,-224 3066.5,-224 3066.5,-245"/>
<text text-anchor="start" x="2979.5" y="-231.4" font-family="Times,serif" font-size="12.00">[SampleRun]</text>
</g>
<!-- NormalizedDspacing[SampleRun]&#45;&gt;FocussedDataDspacing[SampleRun] -->
<g id="edge29" class="edge">
<title>NormalizedDspacing[SampleRun]:e&#45;&gt;FocussedDataDspacing[SampleRun]:w</title>
<path fill="none" stroke="black" d="M2798,-234.5C2870.86,-234.5 2891.64,-234.5 2959.62,-234.5"/>
<polygon fill="black" stroke="black" points="2960,-238 2970,-234.5 2960,-231 2960,-238"/>
</g>
<!-- IntensityDspacing[SampleRun] -->
<g id="node40" class="node">
<title>IntensityDspacing[SampleRun]</title>
<polygon fill="none" stroke="black" points="3437,-251 3198,-251 3198,-218 3437,-218 3437,-251"/>
<text text-anchor="start" x="3206" y="-236.8" font-family="Times,serif" font-size="14.00">IntensityDspacing[SampleRun]</text>
<text text-anchor="start" x="3212.5" y="-225.2" font-family="Times,serif" font-size="11.00">via:</text>
<text text-anchor="start" x="3233.5" y="-225.2" font-family="Times,serif" font-style="italic" font-size="11.00">normalize_by_vanadium_dspacing</text>
</g>
<!-- FocussedDataDspacing[SampleRun]&#45;&gt;IntensityDspacing[SampleRun] -->
<g id="edge31" class="edge">
<title>FocussedDataDspacing[SampleRun]:e&#45;&gt;IntensityDspacing[SampleRun]:w</title>
<path fill="none" stroke="black" d="M3068,-234.5C3122.28,-234.5 3138.31,-234.5 3187.96,-234.5"/>
<polygon fill="black" stroke="black" points="3188,-238 3198,-234.5 3188,-231 3188,-238"/>
</g>
<!-- FocussedDataDspacing[VanadiumRun] -->
<g id="node38" class="node">
<title>FocussedDataDspacing[VanadiumRun]</title>
<polygon fill="none" stroke="black" points="3074,-270 2964,-270 2964,-249 3074,-249 3074,-270"/>
<text text-anchor="start" x="2972" y="-256.4" font-family="Times,serif" font-size="12.00">[VanadiumRun]</text>
</g>
<!-- NormalizedDspacing[VanadiumRun]&#45;&gt;FocussedDataDspacing[VanadiumRun] -->
<g id="edge30" class="edge">
<title>NormalizedDspacing[VanadiumRun]:e&#45;&gt;FocussedDataDspacing[VanadiumRun]:w</title>
<path fill="none" stroke="black" d="M2805,-259.5C2871.66,-259.5 2890.86,-259.5 2952.7,-259.5"/>
<polygon fill="black" stroke="black" points="2953,-263 2963,-259.5 2953,-256 2953,-263"/>
</g>
<!-- FocussedDataDspacing[VanadiumRun]&#45;&gt;IntensityDspacing[SampleRun] -->
<g id="edge32" class="edge">
<title>FocussedDataDspacing[VanadiumRun]:e&#45;&gt;IntensityDspacing[SampleRun]:w</title>
<path fill="none" stroke="black" d="M3075,-259.5C3127.19,-259.5 3140.56,-237.62 3187.74,-234.8"/>
<polygon fill="black" stroke="black" points="3188.11,-238.29 3198,-234.5 3187.9,-231.29 3188.11,-238.29"/>
</g>
<!-- InstrumentConfiguration -->
<g id="node39" class="node">
<title>InstrumentConfiguration</title>
<polygon fill="none" stroke="black" points="661,-28 467,-28 467,-5 661,-5 661,-28"/>
<text text-anchor="middle" x="564" y="-12.8" font-family="Times,serif" font-size="14.00">InstrumentConfiguration</text>
</g>
<!-- TofLookupTableFilename -->
<g id="node49" class="node">
<title>TofLookupTableFilename</title>
<polygon fill="none" stroke="black" points="1035,-33 733,-33 733,0 1035,0 1035,-33"/>
<text text-anchor="start" x="795" y="-18.8" font-family="Times,serif" font-size="14.00">TofLookupTableFilename</text>
<text text-anchor="start" x="741" y="-7.2" font-family="Times,serif" font-size="11.00">via:</text>
<text text-anchor="start" x="762" y="-7.2" font-family="Times,serif" font-style="italic" font-size="11.00">_get_lookup_table_filename_from_configuration</text>
</g>
<!-- InstrumentConfiguration&#45;&gt;TofLookupTableFilename -->
<g id="edge51" class="edge">
<title>InstrumentConfiguration:e&#45;&gt;TofLookupTableFilename:w</title>
<path fill="none" stroke="black" d="M662,-16.5C689.86,-16.5 699.27,-16.5 722.81,-16.5"/>
<polygon fill="black" stroke="black" points="723,-20 733,-16.5 723,-13 723,-20"/>
</g>
<!-- UncertaintyBroadcastMode -->
<g id="node41" class="node">
<title>UncertaintyBroadcastMode</title>
<polygon fill="none" stroke="black" points="3126,-207 2912,-207 2912,-184 3126,-184 3126,-207"/>
<text text-anchor="middle" x="3019" y="-191.8" font-family="Times,serif" font-size="14.00">UncertaintyBroadcastMode</text>
</g>
<!-- UncertaintyBroadcastMode&#45;&gt;IntensityDspacing[SampleRun] -->
<g id="edge33" class="edge">
<title>UncertaintyBroadcastMode:e&#45;&gt;IntensityDspacing[SampleRun]:w</title>
<path fill="none" stroke="black" d="M3126,-195.5C3158.7,-195.5 3161.38,-226.98 3187.98,-233.37"/>
<polygon fill="black" stroke="black" points="3187.67,-236.86 3198,-234.5 3188.45,-229.91 3187.67,-236.86"/>
</g>
<!-- NeXusName[NXdetector] -->
<g id="node42" class="node">
<title>NeXusName[NXdetector]</title>
<polygon fill="none" stroke="black" points="395,-79 198,-79 198,-56 395,-56 395,-79"/>
<text text-anchor="middle" x="296.5" y="-63.8" font-family="Times,serif" font-size="14.00">NeXusName[NXdetector]</text>
</g>
<!-- NeXusName[NXdetector]&#45;&gt;NeXusComponent[NXdetector, SampleRun] -->
<g id="edge35" class="edge">
<title>NeXusName[NXdetector]:e&#45;&gt;NeXusComponent[NXdetector, SampleRun]:w</title>
<path fill="none" stroke="black" d="M395,-67.5C429.24,-67.5 438.37,-83.78 467.71,-86.97"/>
<polygon fill="black" stroke="black" points="467.83,-90.48 478,-87.5 468.2,-83.49 467.83,-90.48"/>
</g>
<!-- NeXusName[NXdetector]&#45;&gt;NeXusComponent[NXdetector, VanadiumRun] -->
<g id="edge37" class="edge">
<title>NeXusName[NXdetector]:e&#45;&gt;NeXusComponent[NXdetector, VanadiumRun]:w</title>
<path fill="none" stroke="black" d="M395,-67.5C430.57,-67.5 431.85,-104.46 460.99,-111.39"/>
<polygon fill="black" stroke="black" points="460.67,-114.87 471,-112.5 461.45,-107.92 460.67,-114.87"/>
</g>
<!-- PulseStrideOffset -->
<g id="node43" class="node">
<title>PulseStrideOffset</title>
<polygon fill="none" stroke="black" points="1335.5,-60 1192.5,-60 1192.5,-37 1335.5,-37 1335.5,-60"/>
<text text-anchor="middle" x="1264" y="-44.8" font-family="Times,serif" font-size="14.00">PulseStrideOffset</text>
</g>
<!-- PulseStrideOffset&#45;&gt;TofDetector[SampleRun] -->
<g id="edge47" class="edge">
<title>PulseStrideOffset:e&#45;&gt;TofDetector[SampleRun]:w</title>
<path fill="none" stroke="black" stroke-width="2" d="M1337,-48.5C1375.28,-48.5 1385.29,-53.73 1421,-67.5 1452.61,-79.69 1467.3,-99.09 1484.4,-114.05"/>
<polygon fill="black" stroke="black" stroke-width="2" points="1482.52,-117.03 1492.5,-120.57 1486.91,-111.58 1482.52,-117.03"/>
</g>
<!-- RawDetector[SampleRun]&#45;&gt;TofDetector[SampleRun] -->
<g id="edge44" class="edge">
<title>RawDetector[SampleRun]:e&#45;&gt;TofDetector[SampleRun]:w</title>
<path fill="none" stroke="black" d="M1313,-87.5C1361.46,-87.5 1373.53,-92.75 1421,-102.5 1471.89,-112.96 1484.43,-132.73 1531.3,-135.24"/>
<polygon fill="black" stroke="black" points="1531.41,-138.74 1541.5,-135.5 1531.59,-131.74 1531.41,-138.74"/>
</g>
<!-- RawDetector[VanadiumRun]&#45;&gt;TofDetector[VanadiumRun] -->
<g id="edge48" class="edge">
<title>RawDetector[VanadiumRun]:e&#45;&gt;TofDetector[VanadiumRun]:w</title>
<path fill="none" stroke="black" d="M1320,-112.5C1414.26,-112.5 1435.37,-157.18 1524.48,-160.33"/>
<polygon fill="black" stroke="black" points="1524.44,-163.83 1534.5,-160.5 1524.56,-156.83 1524.44,-163.83"/>
</g>
<!-- TofDetector[SampleRun]&#45;&gt;WavelengthDetector[SampleRun] -->
<g id="edge52" class="edge">
<title>TofDetector[SampleRun]:e&#45;&gt;WavelengthDetector[SampleRun]:w</title>
<path fill="none" stroke="black" d="M1639.5,-135.5C1662.28,-135.5 1669.92,-137.33 1688.5,-150.5 1732.2,-181.46 1715.9,-217.11 1760,-247.5 1791.25,-269.03 1805.88,-272.09 1839.87,-272.45"/>
<polygon fill="black" stroke="black" points="1839.98,-275.96 1850,-272.5 1840.02,-268.96 1839.98,-275.96"/>
</g>
<!-- TofLookupTable -->
<g id="node47" class="node">
<title>TofLookupTable</title>
<polygon fill="none" stroke="black" points="1343,-33 1185,-33 1185,0 1343,0 1343,-33"/>
<text text-anchor="start" x="1208" y="-18.8" font-family="Times,serif" font-size="14.00">TofLookupTable</text>
<text text-anchor="start" x="1193" y="-7.2" font-family="Times,serif" font-size="11.00">via:</text>
<text text-anchor="start" x="1214" y="-7.2" font-family="Times,serif" font-style="italic" font-size="11.00">load_tof_lookup_table</text>
</g>
<!-- TofLookupTable&#45;&gt;TofDetector[SampleRun] -->
<g id="edge45" class="edge">
<title>TofLookupTable:e&#45;&gt;TofDetector[SampleRun]:w</title>
<path fill="none" stroke="black" stroke-width="2" d="M1344,-16.5C1379.47,-16.5 1389.45,-21.29 1421,-37.5 1457.13,-56.06 1468.56,-86.71 1485.91,-108.79"/>
<polygon fill="black" stroke="black" stroke-width="2" points="1483.42,-111.26 1492.63,-116.5 1488.7,-106.66 1483.42,-111.26"/>
</g>
<!-- TofDetector[VanadiumRun]&#45;&gt;WavelengthDetector[VanadiumRun] -->
<g id="edge55" class="edge">
<title>TofDetector[VanadiumRun]:e&#45;&gt;WavelengthDetector[VanadiumRun]:w</title>
<path fill="none" stroke="black" d="M1646.5,-160.5C1720.88,-160.5 1694.59,-248.08 1760,-283.5 1789.68,-299.57 1802.92,-298.04 1832.71,-297.59"/>
<polygon fill="black" stroke="black" points="1833.03,-301.08 1843,-297.5 1832.97,-294.08 1833.03,-301.08"/>
</g>
<!-- TofLookupTableFilename&#45;&gt;TofLookupTable -->
<g id="edge50" class="edge">
<title>TofLookupTableFilename:e&#45;&gt;TofLookupTable:w</title>
<path fill="none" stroke="black" d="M1035,-16.5C1097.73,-16.5 1115.89,-16.5 1173.92,-16.5"/>
<polygon fill="black" stroke="black" points="1174,-20 1184,-16.5 1174,-13 1174,-20"/>
</g>
</g>
</svg>
