<?xml version="1.0" encoding="utf-8" standalone="no"?>
<!DOCTYPE svg PUBLIC "-//W3C//DTD SVG 1.1//EN"
  "http://www.w3.org/Graphics/SVG/1.1/DTD/svg11.dtd">
<svg xmlns:xlink="http://www.w3.org/1999/xlink" width="382.603125pt" height="268.200625pt" viewBox="0 0 382.603125 268.200625" xmlns="http://www.w3.org/2000/svg" version="1.1">
 <metadata>
  <rdf:RDF xmlns:dc="http://purl.org/dc/elements/1.1/" xmlns:cc="http://creativecommons.org/ns#" xmlns:rdf="http://www.w3.org/1999/02/22-rdf-syntax-ns#">
   <cc:Work>
    <dc:type rdf:resource="http://purl.org/dc/dcmitype/StillImage"/>
    <dc:date>2026-03-02T09:55:52.250459</dc:date>
    <dc:format>image/svg+xml</dc:format>
    <dc:creator>
     <cc:Agent>
      <dc:title>Matplotlib v3.10.8, https://matplotlib.org/</dc:title>
     </cc:Agent>
    </dc:creator>
   </cc:Work>
  </rdf:RDF>
 </metadata>
 <defs>
  <style type="text/css">*{stroke-linejoin: round; stroke-linecap: butt}</style>
 </defs>
 <g id="figure_1">
  <g id="patch_1">
   <path d="M 0 268.200625 
L 382.603125 268.200625 
L 382.603125 0 
L 0 0 
z
" style="fill: #ffffff"/>
  </g>
  <g id="axes_1">
   <g id="patch_2">
    <path d="M 40.603125 228.96 
L 375.403125 228.96 
L 375.403125 7.2 
L 40.603125 7.2 
z
" style="fill: #ffffff"/>
   </g>
   <g id="matplotlib.axis_1">
    <g id="xtick_1">
     <g id="line2d_1">
      <defs>
       <path id="m0fc98ae1fd" d="M 0 0 
L 0 3.5 
" style="stroke: #000000; stroke-width: 0.8"/>
      </defs>
      <g>
       <use xlink:href="#m0fc98ae1fd" x="55.821307" y="228.96" style="stroke: #000000; stroke-width: 0.8"/>
      </g>
     </g>
     <g id="text_1">
      <!-- 0.0 -->
      <g transform="translate(47.869744 243.558437) scale(0.1 -0.1)">
       <defs>
        <path id="DejaVuSans-30" d="M 2034 4250 
Q 1547 4250 1301 3770 
Q 1056 3291 1056 2328 
Q 1056 1369 1301 889 
Q 1547 409 2034 409 
Q 2525 409 2770 889 
Q 3016 1369 3016 2328 
Q 3016 3291 2770 3770 
Q 2525 4250 2034 4250 
z
M 2034 4750 
Q 2819 4750 3233 4129 
Q 3647 3509 3647 2328 
Q 3647 1150 3233 529 
Q 2819 -91 2034 -91 
Q 1250 -91 836 529 
Q 422 1150 422 2328 
Q 422 3509 836 4129 
Q 1250 4750 2034 4750 
z
" transform="scale(0.015625)"/>
        <path id="DejaVuSans-2e" d="M 684 794 
L 1344 794 
L 1344 0 
L 684 0 
L 684 794 
z
" transform="scale(0.015625)"/>
       </defs>
       <use xlink:href="#DejaVuSans-30"/>
       <use xlink:href="#DejaVuSans-2e" transform="translate(63.623047 0)"/>
       <use xlink:href="#DejaVuSans-30" transform="translate(95.410156 0)"/>
      </g>
     </g>
    </g>
    <g id="xtick_2">
     <g id="line2d_2">
      <g>
       <use xlink:href="#m0fc98ae1fd" x="120.761914" y="228.96" style="stroke: #000000; stroke-width: 0.8"/>
      </g>
     </g>
     <g id="text_2">
      <!-- 0.5 -->
      <g transform="translate(112.810351 243.558437) scale(0.1 -0.1)">
       <defs>
        <path id="DejaVuSans-35" d="M 691 4666 
L 3169 4666 
L 3169 4134 
L 1269 4134 
L 1269 2991 
Q 1406 3038 1543 3061 
Q 1681 3084 1819 3084 
Q 2600 3084 3056 2656 
Q 3513 2228 3513 1497 
Q 3513 744 3044 326 
Q 2575 -91 1722 -91 
Q 1428 -91 1123 -41 
Q 819 9 494 109 
L 494 744 
Q 775 591 1075 516 
Q 1375 441 1709 441 
Q 2250 441 2565 725 
Q 2881 1009 2881 1497 
Q 2881 1984 2565 2268 
Q 2250 2553 1709 2553 
Q 1456 2553 1204 2497 
Q 953 2441 691 2322 
L 691 4666 
z
" transform="scale(0.015625)"/>
       </defs>
       <use xlink:href="#DejaVuSans-30"/>
       <use xlink:href="#DejaVuSans-2e" transform="translate(63.623047 0)"/>
       <use xlink:href="#DejaVuSans-35" transform="translate(95.410156 0)"/>
      </g>
     </g>
    </g>
    <g id="xtick_3">
     <g id="line2d_3">
      <g>
       <use xlink:href="#m0fc98ae1fd" x="185.702521" y="228.96" style="stroke: #000000; stroke-width: 0.8"/>
      </g>
     </g>
     <g id="text_3">
      <!-- 1.0 -->
      <g transform="translate(177.750958 243.558437) scale(0.1 -0.1)">
       <defs>
        <path id="DejaVuSans-31" d="M 794 531 
L 1825 531 
L 1825 4091 
L 703 3866 
L 703 4441 
L 1819 4666 
L 2450 4666 
L 2450 531 
L 3481 531 
L 3481 0 
L 794 0 
L 794 531 
z
" transform="scale(0.015625)"/>
       </defs>
       <use xlink:href="#DejaVuSans-31"/>
       <use xlink:href="#DejaVuSans-2e" transform="translate(63.623047 0)"/>
       <use xlink:href="#DejaVuSans-30" transform="translate(95.410156 0)"/>
      </g>
     </g>
    </g>
    <g id="xtick_4">
     <g id="line2d_4">
      <g>
       <use xlink:href="#m0fc98ae1fd" x="250.643127" y="228.96" style="stroke: #000000; stroke-width: 0.8"/>
      </g>
     </g>
     <g id="text_4">
      <!-- 1.5 -->
      <g transform="translate(242.691565 243.558437) scale(0.1 -0.1)">
       <use xlink:href="#DejaVuSans-31"/>
       <use xlink:href="#DejaVuSans-2e" transform="translate(63.623047 0)"/>
       <use xlink:href="#DejaVuSans-35" transform="translate(95.410156 0)"/>
      </g>
     </g>
    </g>
    <g id="xtick_5">
     <g id="line2d_5">
      <g>
       <use xlink:href="#m0fc98ae1fd" x="315.583734" y="228.96" style="stroke: #000000; stroke-width: 0.8"/>
      </g>
     </g>
     <g id="text_5">
      <!-- 2.0 -->
      <g transform="translate(307.632172 243.558437) scale(0.1 -0.1)">
       <defs>
        <path id="DejaVuSans-32" d="M 1228 531 
L 3431 531 
L 3431 0 
L 469 0 
L 469 531 
Q 828 903 1448 1529 
Q 2069 2156 2228 2338 
Q 2531 2678 2651 2914 
Q 2772 3150 2772 3378 
Q 2772 3750 2511 3984 
Q 2250 4219 1831 4219 
Q 1534 4219 1204 4116 
Q 875 4013 500 3803 
L 500 4441 
Q 881 4594 1212 4672 
Q 1544 4750 1819 4750 
Q 2544 4750 2975 4387 
Q 3406 4025 3406 3419 
Q 3406 3131 3298 2873 
Q 3191 2616 2906 2266 
Q 2828 2175 2409 1742 
Q 1991 1309 1228 531 
z
" transform="scale(0.015625)"/>
       </defs>
       <use xlink:href="#DejaVuSans-32"/>
       <use xlink:href="#DejaVuSans-2e" transform="translate(63.623047 0)"/>
       <use xlink:href="#DejaVuSans-30" transform="translate(95.410156 0)"/>
      </g>
     </g>
    </g>
    <g id="text_6">
     <!-- dspacing [Å] -->
     <g transform="translate(176.59375 258.920937) scale(0.1 -0.1)">
      <defs>
       <path id="DejaVuSans-64" d="M 2906 2969 
L 2906 4863 
L 3481 4863 
L 3481 0 
L 2906 0 
L 2906 525 
Q 2725 213 2448 61 
Q 2172 -91 1784 -91 
Q 1150 -91 751 415 
Q 353 922 353 1747 
Q 353 2572 751 3078 
Q 1150 3584 1784 3584 
Q 2172 3584 2448 3432 
Q 2725 3281 2906 2969 
z
M 947 1747 
Q 947 1113 1208 752 
Q 1469 391 1925 391 
Q 2381 391 2643 752 
Q 2906 1113 2906 1747 
Q 2906 2381 2643 2742 
Q 2381 3103 1925 3103 
Q 1469 3103 1208 2742 
Q 947 2381 947 1747 
z
" transform="scale(0.015625)"/>
       <path id="DejaVuSans-73" d="M 2834 3397 
L 2834 2853 
Q 2591 2978 2328 3040 
Q 2066 3103 1784 3103 
Q 1356 3103 1142 2972 
Q 928 2841 928 2578 
Q 928 2378 1081 2264 
Q 1234 2150 1697 2047 
L 1894 2003 
Q 2506 1872 2764 1633 
Q 3022 1394 3022 966 
Q 3022 478 2636 193 
Q 2250 -91 1575 -91 
Q 1294 -91 989 -36 
Q 684 19 347 128 
L 347 722 
Q 666 556 975 473 
Q 1284 391 1588 391 
Q 1994 391 2212 530 
Q 2431 669 2431 922 
Q 2431 1156 2273 1281 
Q 2116 1406 1581 1522 
L 1381 1569 
Q 847 1681 609 1914 
Q 372 2147 372 2553 
Q 372 3047 722 3315 
Q 1072 3584 1716 3584 
Q 2034 3584 2315 3537 
Q 2597 3491 2834 3397 
z
" transform="scale(0.015625)"/>
       <path id="DejaVuSans-70" d="M 1159 525 
L 1159 -1331 
L 581 -1331 
L 581 3500 
L 1159 3500 
L 1159 2969 
Q 1341 3281 1617 3432 
Q 1894 3584 2278 3584 
Q 2916 3584 3314 3078 
Q 3713 2572 3713 1747 
Q 3713 922 3314 415 
Q 2916 -91 2278 -91 
Q 1894 -91 1617 61 
Q 1341 213 1159 525 
z
M 3116 1747 
Q 3116 2381 2855 2742 
Q 2594 3103 2138 3103 
Q 1681 3103 1420 2742 
Q 1159 2381 1159 1747 
Q 1159 1113 1420 752 
Q 1681 391 2138 391 
Q 2594 391 2855 752 
Q 3116 1113 3116 1747 
z
" transform="scale(0.015625)"/>
       <path id="DejaVuSans-61" d="M 2194 1759 
Q 1497 1759 1228 1600 
Q 959 1441 959 1056 
Q 959 750 1161 570 
Q 1363 391 1709 391 
Q 2188 391 2477 730 
Q 2766 1069 2766 1631 
L 2766 1759 
L 2194 1759 
z
M 3341 1997 
L 3341 0 
L 2766 0 
L 2766 531 
Q 2569 213 2275 61 
Q 1981 -91 1556 -91 
Q 1019 -91 701 211 
Q 384 513 384 1019 
Q 384 1609 779 1909 
Q 1175 2209 1959 2209 
L 2766 2209 
L 2766 2266 
Q 2766 2663 2505 2880 
Q 2244 3097 1772 3097 
Q 1472 3097 1187 3025 
Q 903 2953 641 2809 
L 641 3341 
Q 956 3463 1253 3523 
Q 1550 3584 1831 3584 
Q 2591 3584 2966 3190 
Q 3341 2797 3341 1997 
z
" transform="scale(0.015625)"/>
       <path id="DejaVuSans-63" d="M 3122 3366 
L 3122 2828 
Q 2878 2963 2633 3030 
Q 2388 3097 2138 3097 
Q 1578 3097 1268 2742 
Q 959 2388 959 1747 
Q 959 1106 1268 751 
Q 1578 397 2138 397 
Q 2388 397 2633 464 
Q 2878 531 3122 666 
L 3122 134 
Q 2881 22 2623 -34 
Q 2366 -91 2075 -91 
Q 1284 -91 818 406 
Q 353 903 353 1747 
Q 353 2603 823 3093 
Q 1294 3584 2113 3584 
Q 2378 3584 2631 3529 
Q 2884 3475 3122 3366 
z
" transform="scale(0.015625)"/>
       <path id="DejaVuSans-69" d="M 603 3500 
L 1178 3500 
L 1178 0 
L 603 0 
L 603 3500 
z
M 603 4863 
L 1178 4863 
L 1178 4134 
L 603 4134 
L 603 4863 
z
" transform="scale(0.015625)"/>
       <path id="DejaVuSans-6e" d="M 3513 2113 
L 3513 0 
L 2938 0 
L 2938 2094 
Q 2938 2591 2744 2837 
Q 2550 3084 2163 3084 
Q 1697 3084 1428 2787 
Q 1159 2491 1159 1978 
L 1159 0 
L 581 0 
L 581 3500 
L 1159 3500 
L 1159 2956 
Q 1366 3272 1645 3428 
Q 1925 3584 2291 3584 
Q 2894 3584 3203 3211 
Q 3513 2838 3513 2113 
z
" transform="scale(0.015625)"/>
       <path id="DejaVuSans-67" d="M 2906 1791 
Q 2906 2416 2648 2759 
Q 2391 3103 1925 3103 
Q 1463 3103 1205 2759 
Q 947 2416 947 1791 
Q 947 1169 1205 825 
Q 1463 481 1925 481 
Q 2391 481 2648 825 
Q 2906 1169 2906 1791 
z
M 3481 434 
Q 3481 -459 3084 -895 
Q 2688 -1331 1869 -1331 
Q 1566 -1331 1297 -1286 
Q 1028 -1241 775 -1147 
L 775 -588 
Q 1028 -725 1275 -790 
Q 1522 -856 1778 -856 
Q 2344 -856 2625 -561 
Q 2906 -266 2906 331 
L 2906 616 
Q 2728 306 2450 153 
Q 2172 0 1784 0 
Q 1141 0 747 490 
Q 353 981 353 1791 
Q 353 2603 747 3093 
Q 1141 3584 1784 3584 
Q 2172 3584 2450 3431 
Q 2728 3278 2906 2969 
L 2906 3500 
L 3481 3500 
L 3481 434 
z
" transform="scale(0.015625)"/>
       <path id="DejaVuSans-20" transform="scale(0.015625)"/>
       <path id="DejaVuSans-5b" d="M 550 4863 
L 1875 4863 
L 1875 4416 
L 1125 4416 
L 1125 -397 
L 1875 -397 
L 1875 -844 
L 550 -844 
L 550 4863 
z
" transform="scale(0.015625)"/>
       <path id="DejaVuSans-c5" d="M 2663 5081 
Q 2663 5278 2523 5417 
Q 2384 5556 2188 5556 
Q 1988 5556 1852 5420 
Q 1716 5284 1716 5081 
Q 1716 4884 1853 4746 
Q 1991 4609 2188 4609 
Q 2384 4609 2523 4746 
Q 2663 4884 2663 5081 
z
M 2188 4044 
L 1338 1722 
L 3041 1722 
L 2188 4044 
z
M 1716 4366 
Q 1525 4494 1428 4673 
Q 1331 4853 1331 5081 
Q 1331 5441 1579 5691 
Q 1828 5941 2188 5941 
Q 2544 5941 2795 5689 
Q 3047 5438 3047 5081 
Q 3047 4863 2948 4678 
Q 2850 4494 2663 4366 
L 4325 0 
L 3669 0 
L 3244 1197 
L 1141 1197 
L 716 0 
L 50 0 
L 1716 4366 
z
" transform="scale(0.015625)"/>
       <path id="DejaVuSans-5d" d="M 1947 4863 
L 1947 -844 
L 622 -844 
L 622 -397 
L 1369 -397 
L 1369 4416 
L 622 4416 
L 622 4863 
L 1947 4863 
z
" transform="scale(0.015625)"/>
      </defs>
      <use xlink:href="#DejaVuSans-64"/>
      <use xlink:href="#DejaVuSans-73" transform="translate(63.476562 0)"/>
      <use xlink:href="#DejaVuSans-70" transform="translate(115.576172 0)"/>
      <use xlink:href="#DejaVuSans-61" transform="translate(179.052734 0)"/>
      <use xlink:href="#DejaVuSans-63" transform="translate(240.332031 0)"/>
      <use xlink:href="#DejaVuSans-69" transform="translate(295.3125 0)"/>
      <use xlink:href="#DejaVuSans-6e" transform="translate(323.095703 0)"/>
      <use xlink:href="#DejaVuSans-67" transform="translate(386.474609 0)"/>
      <use xlink:href="#DejaVuSans-20" transform="translate(449.951172 0)"/>
      <use xlink:href="#DejaVuSans-5b" transform="translate(481.738281 0)"/>
      <use xlink:href="#DejaVuSans-c5" transform="translate(520.751953 0)"/>
      <use xlink:href="#DejaVuSans-5d" transform="translate(589.160156 0)"/>
     </g>
    </g>
   </g>
   <g id="matplotlib.axis_2">
    <g id="ytick_1">
     <g id="line2d_6">
      <defs>
       <path id="maae9df4e9f" d="M 0 0 
L -3.5 0 
" style="stroke: #000000; stroke-width: 0.8"/>
      </defs>
      <g>
       <use xlink:href="#maae9df4e9f" x="40.603125" y="218.88" style="stroke: #000000; stroke-width: 0.8"/>
      </g>
     </g>
     <g id="text_7">
      <!-- 0 -->
      <g transform="translate(27.240625 222.679219) scale(0.1 -0.1)">
       <use xlink:href="#DejaVuSans-30"/>
      </g>
     </g>
    </g>
    <g id="ytick_2">
     <g id="line2d_7">
      <g>
       <use xlink:href="#maae9df4e9f" x="40.603125" y="180.037273" style="stroke: #000000; stroke-width: 0.8"/>
      </g>
     </g>
     <g id="text_8">
      <!-- 10 -->
      <g transform="translate(20.878125 183.836492) scale(0.1 -0.1)">
       <use xlink:href="#DejaVuSans-31"/>
       <use xlink:href="#DejaVuSans-30" transform="translate(63.623047 0)"/>
      </g>
     </g>
    </g>
    <g id="ytick_3">
     <g id="line2d_8">
      <g>
       <use xlink:href="#maae9df4e9f" x="40.603125" y="141.194546" style="stroke: #000000; stroke-width: 0.8"/>
      </g>
     </g>
     <g id="text_9">
      <!-- 20 -->
      <g transform="translate(20.878125 144.993765) scale(0.1 -0.1)">
       <use xlink:href="#DejaVuSans-32"/>
       <use xlink:href="#DejaVuSans-30" transform="translate(63.623047 0)"/>
      </g>
     </g>
    </g>
    <g id="ytick_4">
     <g id="line2d_9">
      <g>
       <use xlink:href="#maae9df4e9f" x="40.603125" y="102.35182" style="stroke: #000000; stroke-width: 0.8"/>
      </g>
     </g>
     <g id="text_10">
      <!-- 30 -->
      <g transform="translate(20.878125 106.151038) scale(0.1 -0.1)">
       <defs>
        <path id="DejaVuSans-33" d="M 2597 2516 
Q 3050 2419 3304 2112 
Q 3559 1806 3559 1356 
Q 3559 666 3084 287 
Q 2609 -91 1734 -91 
Q 1441 -91 1130 -33 
Q 819 25 488 141 
L 488 750 
Q 750 597 1062 519 
Q 1375 441 1716 441 
Q 2309 441 2620 675 
Q 2931 909 2931 1356 
Q 2931 1769 2642 2001 
Q 2353 2234 1838 2234 
L 1294 2234 
L 1294 2753 
L 1863 2753 
Q 2328 2753 2575 2939 
Q 2822 3125 2822 3475 
Q 2822 3834 2567 4026 
Q 2313 4219 1838 4219 
Q 1578 4219 1281 4162 
Q 984 4106 628 3988 
L 628 4550 
Q 988 4650 1302 4700 
Q 1616 4750 1894 4750 
Q 2613 4750 3031 4423 
Q 3450 4097 3450 3541 
Q 3450 3153 3228 2886 
Q 3006 2619 2597 2516 
z
" transform="scale(0.015625)"/>
       </defs>
       <use xlink:href="#DejaVuSans-33"/>
       <use xlink:href="#DejaVuSans-30" transform="translate(63.623047 0)"/>
      </g>
     </g>
    </g>
    <g id="ytick_5">
     <g id="line2d_10">
      <g>
       <use xlink:href="#maae9df4e9f" x="40.603125" y="63.509093" style="stroke: #000000; stroke-width: 0.8"/>
      </g>
     </g>
     <g id="text_11">
      <!-- 40 -->
      <g transform="translate(20.878125 67.308312) scale(0.1 -0.1)">
       <defs>
        <path id="DejaVuSans-34" d="M 2419 4116 
L 825 1625 
L 2419 1625 
L 2419 4116 
z
M 2253 4666 
L 3047 4666 
L 3047 1625 
L 3713 1625 
L 3713 1100 
L 3047 1100 
L 3047 0 
L 2419 0 
L 2419 1100 
L 313 1100 
L 313 1709 
L 2253 4666 
z
" transform="scale(0.015625)"/>
       </defs>
       <use xlink:href="#DejaVuSans-34"/>
       <use xlink:href="#DejaVuSans-30" transform="translate(63.623047 0)"/>
      </g>
     </g>
    </g>
    <g id="ytick_6">
     <g id="line2d_11">
      <g>
       <use xlink:href="#maae9df4e9f" x="40.603125" y="24.666366" style="stroke: #000000; stroke-width: 0.8"/>
      </g>
     </g>
     <g id="text_12">
      <!-- 50 -->
      <g transform="translate(20.878125 28.465585) scale(0.1 -0.1)">
       <use xlink:href="#DejaVuSans-35"/>
       <use xlink:href="#DejaVuSans-30" transform="translate(63.623047 0)"/>
      </g>
     </g>
    </g>
    <g id="text_13">
     <!-- [dimensionless] -->
     <g transform="translate(14.798438 157.557344) rotate(-90) scale(0.1 -0.1)">
      <defs>
       <path id="DejaVuSans-6d" d="M 3328 2828 
Q 3544 3216 3844 3400 
Q 4144 3584 4550 3584 
Q 5097 3584 5394 3201 
Q 5691 2819 5691 2113 
L 5691 0 
L 5113 0 
L 5113 2094 
Q 5113 2597 4934 2840 
Q 4756 3084 4391 3084 
Q 3944 3084 3684 2787 
Q 3425 2491 3425 1978 
L 3425 0 
L 2847 0 
L 2847 2094 
Q 2847 2600 2669 2842 
Q 2491 3084 2119 3084 
Q 1678 3084 1418 2786 
Q 1159 2488 1159 1978 
L 1159 0 
L 581 0 
L 581 3500 
L 1159 3500 
L 1159 2956 
Q 1356 3278 1631 3431 
Q 1906 3584 2284 3584 
Q 2666 3584 2933 3390 
Q 3200 3197 3328 2828 
z
" transform="scale(0.015625)"/>
       <path id="DejaVuSans-65" d="M 3597 1894 
L 3597 1613 
L 953 1613 
Q 991 1019 1311 708 
Q 1631 397 2203 397 
Q 2534 397 2845 478 
Q 3156 559 3463 722 
L 3463 178 
Q 3153 47 2828 -22 
Q 2503 -91 2169 -91 
Q 1331 -91 842 396 
Q 353 884 353 1716 
Q 353 2575 817 3079 
Q 1281 3584 2069 3584 
Q 2775 3584 3186 3129 
Q 3597 2675 3597 1894 
z
M 3022 2063 
Q 3016 2534 2758 2815 
Q 2500 3097 2075 3097 
Q 1594 3097 1305 2825 
Q 1016 2553 972 2059 
L 3022 2063 
z
" transform="scale(0.015625)"/>
       <path id="DejaVuSans-6f" d="M 1959 3097 
Q 1497 3097 1228 2736 
Q 959 2375 959 1747 
Q 959 1119 1226 758 
Q 1494 397 1959 397 
Q 2419 397 2687 759 
Q 2956 1122 2956 1747 
Q 2956 2369 2687 2733 
Q 2419 3097 1959 3097 
z
M 1959 3584 
Q 2709 3584 3137 3096 
Q 3566 2609 3566 1747 
Q 3566 888 3137 398 
Q 2709 -91 1959 -91 
Q 1206 -91 779 398 
Q 353 888 353 1747 
Q 353 2609 779 3096 
Q 1206 3584 1959 3584 
z
" transform="scale(0.015625)"/>
       <path id="DejaVuSans-6c" d="M 603 4863 
L 1178 4863 
L 1178 0 
L 603 0 
L 603 4863 
z
" transform="scale(0.015625)"/>
      </defs>
      <use xlink:href="#DejaVuSans-5b"/>
      <use xlink:href="#DejaVuSans-64" transform="translate(39.013672 0)"/>
      <use xlink:href="#DejaVuSans-69" transform="translate(102.490234 0)"/>
      <use xlink:href="#DejaVuSans-6d" transform="translate(130.273438 0)"/>
      <use xlink:href="#DejaVuSans-65" transform="translate(227.685547 0)"/>
      <use xlink:href="#DejaVuSans-6e" transform="translate(289.208984 0)"/>
      <use xlink:href="#DejaVuSans-73" transform="translate(352.587891 0)"/>
      <use xlink:href="#DejaVuSans-69" transform="translate(404.6875 0)"/>
      <use xlink:href="#DejaVuSans-6f" transform="translate(432.470703 0)"/>
      <use xlink:href="#DejaVuSans-6e" transform="translate(493.652344 0)"/>
      <use xlink:href="#DejaVuSans-6c" transform="translate(557.03125 0)"/>
      <use xlink:href="#DejaVuSans-65" transform="translate(584.814453 0)"/>
      <use xlink:href="#DejaVuSans-73" transform="translate(646.337891 0)"/>
      <use xlink:href="#DejaVuSans-73" transform="translate(698.4375 0)"/>
      <use xlink:href="#DejaVuSans-5d" transform="translate(750.537109 0)"/>
     </g>
    </g>
   </g>
   <g id="line2d_12">
    <path d="M 55.821307 218.88 
L 95.38858 218.88 
L 95.38858 218.326881 
L 96.910398 218.326881 
L 96.910398 218.679819 
L 98.432216 218.679819 
L 98.432216 218.503151 
L 99.954034 218.503151 
L 99.954034 218.661997 
L 102.99767 218.644183 
L 102.99767 218.548416 
L 106.041307 218.510179 
L 106.041307 218.260928 
L 112.12858 218.168967 
L 112.12858 218.139217 
L 115.172216 218.092397 
L 115.172216 217.897539 
L 118.215852 217.879314 
L 118.215852 217.777071 
L 119.73767 217.777071 
L 119.73767 217.571248 
L 121.259489 217.571248 
L 121.259489 213.307876 
L 122.781307 213.307876 
L 122.781307 212.210767 
L 124.303125 212.210767 
L 124.303125 209.680352 
L 125.824943 209.680352 
L 125.824943 207.440794 
L 127.346761 207.440794 
L 127.346761 213.659614 
L 128.86858 213.659614 
L 128.86858 217.039867 
L 130.390398 217.039867 
L 130.390398 217.372763 
L 131.912216 217.372763 
L 131.912216 214.839656 
L 133.434034 214.839656 
L 133.434034 210.22422 
L 134.955852 210.22422 
L 134.955852 212.703368 
L 136.47767 212.703368 
L 136.47767 209.675078 
L 137.999489 209.675078 
L 137.999489 210.90796 
L 139.521307 210.90796 
L 139.521307 216.200003 
L 141.043125 216.200003 
L 141.043125 217.025203 
L 142.564943 217.025203 
L 142.564943 210.909121 
L 144.086761 210.909121 
L 144.086761 197.93595 
L 145.60858 197.93595 
L 145.60858 205.23727 
L 147.130398 205.23727 
L 147.130398 215.715729 
L 148.652216 215.715729 
L 148.652216 216.931156 
L 157.783125 216.879021 
L 157.783125 216.562558 
L 159.304943 216.562558 
L 159.304943 213.382627 
L 160.826761 213.382627 
L 160.826761 201.710645 
L 162.34858 201.710645 
L 162.34858 204.635658 
L 163.870398 204.635658 
L 163.870398 214.698528 
L 165.392216 214.698528 
L 165.392216 216.329575 
L 166.914034 216.329575 
L 166.914034 216.505843 
L 168.435852 216.505843 
L 168.435852 214.85925 
L 169.95767 214.85925 
L 169.95767 202.202542 
L 171.479489 202.202542 
L 171.479489 199.100712 
L 173.001307 199.100712 
L 173.001307 212.537826 
L 174.523125 212.537826 
L 174.523125 216.286261 
L 176.044943 216.286261 
L 176.044943 216.542885 
L 180.610398 216.648112 
L 180.610398 216.73707 
L 182.132216 216.73707 
L 182.132216 216.355821 
L 183.654034 216.355821 
L 183.654034 216.615262 
L 185.175852 216.615262 
L 185.175852 216.442451 
L 186.69767 216.442451 
L 186.69767 210.725456 
L 188.219489 210.725456 
L 188.219489 190.586025 
L 189.741307 190.586025 
L 189.741307 192.685681 
L 191.263125 192.685681 
L 191.263125 212.528223 
L 192.784943 212.528223 
L 192.784943 209.085229 
L 194.306761 209.085229 
L 194.306761 187.154488 
L 195.82858 187.154488 
L 195.82858 192.843693 
L 197.350398 192.843693 
L 197.350398 213.81025 
L 198.872216 213.81025 
L 198.872216 216.567839 
L 200.394034 216.567839 
L 200.394034 216.780282 
L 201.915852 216.780282 
L 201.915852 216.376011 
L 203.43767 216.376011 
L 203.43767 216.826908 
L 206.481307 216.913438 
L 206.481307 216.694246 
L 208.003125 216.694246 
L 208.003125 216.138154 
L 209.524943 216.138154 
L 209.524943 216.840761 
L 211.046761 216.840761 
L 211.046761 216.984456 
L 212.56858 216.984456 
L 212.56858 217.148515 
L 215.612216 217.163797 
L 215.612216 217.348147 
L 220.17767 217.306234 
L 220.17767 217.468241 
L 229.30858 217.523119 
L 229.30858 217.778611 
L 232.352216 217.716568 
L 232.352216 217.614556 
L 241.483125 217.508483 
L 241.483125 217.470685 
L 244.526761 217.426227 
L 244.526761 217.348687 
L 258.223125 217.304874 
L 258.223125 217.219976 
L 259.744943 217.219976 
L 259.744943 217.034506 
L 268.875852 217.061538 
L 268.875852 216.921608 
L 276.484943 216.840391 
L 276.484943 216.678062 
L 287.13767 216.668658 
L 287.13767 216.564753 
L 291.703125 216.463543 
L 291.703125 216.432311 
L 296.26858 216.350372 
L 296.26858 216.132672 
L 303.87767 216.183286 
L 303.87767 216.28371 
L 305.399489 216.28371 
L 305.399489 216.136249 
L 311.486761 216.126442 
L 311.486761 216.009018 
L 316.052216 215.977702 
L 316.052216 215.520644 
L 317.574034 215.520644 
L 317.574034 214.747704 
L 319.095852 214.747704 
L 319.095852 205.876746 
L 320.61767 205.876746 
L 320.61767 136.560049 
L 322.139489 136.560049 
L 322.139489 17.649849 
L 323.661307 17.649849 
L 323.661307 81.705751 
L 325.183125 81.705751 
L 325.183125 190.21802 
L 326.704943 190.21802 
L 326.704943 213.090688 
L 328.226761 213.090688 
L 328.226761 215.450108 
L 329.74858 215.450108 
L 329.74858 215.898124 
L 331.270398 215.898124 
L 331.270398 216.473803 
L 332.792216 216.473803 
L 332.792216 216.907559 
L 334.314034 216.907559 
L 334.314034 216.546871 
L 335.835852 216.546871 
L 335.835852 216.267758 
L 338.879489 216.160818 
L 338.879489 216.002367 
L 340.401307 216.002367 
L 340.401307 216.132931 
L 341.923125 216.132931 
L 341.923125 215.85848 
L 343.444943 215.85848 
L 343.444943 215.522682 
L 344.966761 215.522682 
L 344.966761 215.841823 
L 346.48858 215.841823 
L 346.48858 216.077788 
L 351.054034 216.187452 
L 351.054034 216.293448 
L 360.184943 216.365288 
L 360.184943 216.365288 
" clip-path="url(#pfe60cd2931)" style="fill: none; stroke: #1f77b4; stroke-width: 1.5; stroke-linecap: square"/>
   </g>
   <g id="LineCollection_1">
    <path d="M 56.582216 218.88 
L 56.582216 218.88 
" clip-path="url(#pfe60cd2931)" style="fill: none; stroke: #1f77b4; stroke-width: 1.5"/>
    <path d="M 58.104034 218.88 
L 58.104034 218.88 
" clip-path="url(#pfe60cd2931)" style="fill: none; stroke: #1f77b4; stroke-width: 1.5"/>
    <path d="M 59.625852 218.88 
L 59.625852 218.88 
" clip-path="url(#pfe60cd2931)" style="fill: none; stroke: #1f77b4; stroke-width: 1.5"/>
    <path d="M 61.14767 218.88 
L 61.14767 218.88 
" clip-path="url(#pfe60cd2931)" style="fill: none; stroke: #1f77b4; stroke-width: 1.5"/>
    <path d="M 62.669489 218.88 
L 62.669489 218.88 
" clip-path="url(#pfe60cd2931)" style="fill: none; stroke: #1f77b4; stroke-width: 1.5"/>
    <path d="M 64.191307 218.88 
L 64.191307 218.88 
" clip-path="url(#pfe60cd2931)" style="fill: none; stroke: #1f77b4; stroke-width: 1.5"/>
    <path d="M 65.713125 218.88 
L 65.713125 218.88 
" clip-path="url(#pfe60cd2931)" style="fill: none; stroke: #1f77b4; stroke-width: 1.5"/>
    <path d="M 67.234943 218.88 
L 67.234943 218.88 
" clip-path="url(#pfe60cd2931)" style="fill: none; stroke: #1f77b4; stroke-width: 1.5"/>
    <path d="M 68.756761 218.88 
L 68.756761 218.88 
" clip-path="url(#pfe60cd2931)" style="fill: none; stroke: #1f77b4; stroke-width: 1.5"/>
    <path d="M 70.27858 218.88 
L 70.27858 218.88 
" clip-path="url(#pfe60cd2931)" style="fill: none; stroke: #1f77b4; stroke-width: 1.5"/>
    <path d="M 71.800398 218.88 
L 71.800398 218.88 
" clip-path="url(#pfe60cd2931)" style="fill: none; stroke: #1f77b4; stroke-width: 1.5"/>
    <path d="M 73.322216 218.88 
L 73.322216 218.88 
" clip-path="url(#pfe60cd2931)" style="fill: none; stroke: #1f77b4; stroke-width: 1.5"/>
    <path d="M 74.844034 218.88 
L 74.844034 218.88 
" clip-path="url(#pfe60cd2931)" style="fill: none; stroke: #1f77b4; stroke-width: 1.5"/>
    <path d="M 76.365852 218.88 
L 76.365852 218.88 
" clip-path="url(#pfe60cd2931)" style="fill: none; stroke: #1f77b4; stroke-width: 1.5"/>
    <path d="M 77.88767 218.88 
L 77.88767 218.88 
" clip-path="url(#pfe60cd2931)" style="fill: none; stroke: #1f77b4; stroke-width: 1.5"/>
    <path d="M 79.409489 218.88 
L 79.409489 218.88 
" clip-path="url(#pfe60cd2931)" style="fill: none; stroke: #1f77b4; stroke-width: 1.5"/>
    <path d="M 80.931307 218.88 
L 80.931307 218.88 
" clip-path="url(#pfe60cd2931)" style="fill: none; stroke: #1f77b4; stroke-width: 1.5"/>
    <path d="M 82.453125 218.88 
L 82.453125 218.88 
" clip-path="url(#pfe60cd2931)" style="fill: none; stroke: #1f77b4; stroke-width: 1.5"/>
    <path d="M 83.974943 218.88 
L 83.974943 218.88 
" clip-path="url(#pfe60cd2931)" style="fill: none; stroke: #1f77b4; stroke-width: 1.5"/>
    <path d="M 85.496761 218.88 
L 85.496761 218.88 
" clip-path="url(#pfe60cd2931)" style="fill: none; stroke: #1f77b4; stroke-width: 1.5"/>
    <path d="M 87.01858 218.88 
L 87.01858 218.88 
" clip-path="url(#pfe60cd2931)" style="fill: none; stroke: #1f77b4; stroke-width: 1.5"/>
    <path d="M 88.540398 218.88 
L 88.540398 218.88 
" clip-path="url(#pfe60cd2931)" style="fill: none; stroke: #1f77b4; stroke-width: 1.5"/>
    <path d="M 90.062216 218.88 
L 90.062216 218.88 
" clip-path="url(#pfe60cd2931)" style="fill: none; stroke: #1f77b4; stroke-width: 1.5"/>
    <path d="M 91.584034 218.88 
L 91.584034 218.88 
" clip-path="url(#pfe60cd2931)" style="fill: none; stroke: #1f77b4; stroke-width: 1.5"/>
    <path d="M 93.105852 218.88 
L 93.105852 218.88 
" clip-path="url(#pfe60cd2931)" style="fill: none; stroke: #1f77b4; stroke-width: 1.5"/>
    <path d="M 94.62767 218.88 
L 94.62767 218.88 
" clip-path="url(#pfe60cd2931)" style="fill: none; stroke: #1f77b4; stroke-width: 1.5"/>
    <path d="M 96.149489 218.469757 
L 96.149489 218.184005 
" clip-path="url(#pfe60cd2931)" style="fill: none; stroke: #1f77b4; stroke-width: 1.5"/>
    <path d="M 97.671307 218.755554 
L 97.671307 218.604084 
" clip-path="url(#pfe60cd2931)" style="fill: none; stroke: #1f77b4; stroke-width: 1.5"/>
    <path d="M 99.193125 218.589718 
L 99.193125 218.416585 
" clip-path="url(#pfe60cd2931)" style="fill: none; stroke: #1f77b4; stroke-width: 1.5"/>
    <path d="M 100.714943 218.7166 
L 100.714943 218.607394 
" clip-path="url(#pfe60cd2931)" style="fill: none; stroke: #1f77b4; stroke-width: 1.5"/>
    <path d="M 102.236761 218.695773 
L 102.236761 218.592593 
" clip-path="url(#pfe60cd2931)" style="fill: none; stroke: #1f77b4; stroke-width: 1.5"/>
    <path d="M 103.75858 218.603821 
L 103.75858 218.493012 
" clip-path="url(#pfe60cd2931)" style="fill: none; stroke: #1f77b4; stroke-width: 1.5"/>
    <path d="M 105.280398 218.570284 
L 105.280398 218.450074 
" clip-path="url(#pfe60cd2931)" style="fill: none; stroke: #1f77b4; stroke-width: 1.5"/>
    <path d="M 106.802216 218.334126 
L 106.802216 218.187729 
" clip-path="url(#pfe60cd2931)" style="fill: none; stroke: #1f77b4; stroke-width: 1.5"/>
    <path d="M 108.324034 218.244799 
L 108.324034 218.100721 
" clip-path="url(#pfe60cd2931)" style="fill: none; stroke: #1f77b4; stroke-width: 1.5"/>
    <path d="M 109.845852 218.225188 
L 109.845852 218.083038 
" clip-path="url(#pfe60cd2931)" style="fill: none; stroke: #1f77b4; stroke-width: 1.5"/>
    <path d="M 111.36767 218.233353 
L 111.36767 218.10458 
" clip-path="url(#pfe60cd2931)" style="fill: none; stroke: #1f77b4; stroke-width: 1.5"/>
    <path d="M 112.889489 218.203724 
L 112.889489 218.074709 
" clip-path="url(#pfe60cd2931)" style="fill: none; stroke: #1f77b4; stroke-width: 1.5"/>
    <path d="M 114.411307 218.154226 
L 114.411307 218.030569 
" clip-path="url(#pfe60cd2931)" style="fill: none; stroke: #1f77b4; stroke-width: 1.5"/>
    <path d="M 115.933125 217.965701 
L 115.933125 217.829376 
" clip-path="url(#pfe60cd2931)" style="fill: none; stroke: #1f77b4; stroke-width: 1.5"/>
    <path d="M 117.454943 217.945766 
L 117.454943 217.812861 
" clip-path="url(#pfe60cd2931)" style="fill: none; stroke: #1f77b4; stroke-width: 1.5"/>
    <path d="M 118.976761 217.845495 
L 118.976761 217.708647 
" clip-path="url(#pfe60cd2931)" style="fill: none; stroke: #1f77b4; stroke-width: 1.5"/>
    <path d="M 120.49858 217.644704 
L 120.49858 217.497792 
" clip-path="url(#pfe60cd2931)" style="fill: none; stroke: #1f77b4; stroke-width: 1.5"/>
    <path d="M 122.020398 213.452065 
L 122.020398 213.163687 
" clip-path="url(#pfe60cd2931)" style="fill: none; stroke: #1f77b4; stroke-width: 1.5"/>
    <path d="M 123.542216 212.367397 
L 123.542216 212.054137 
" clip-path="url(#pfe60cd2931)" style="fill: none; stroke: #1f77b4; stroke-width: 1.5"/>
    <path d="M 125.064034 209.854786 
L 125.064034 209.505918 
" clip-path="url(#pfe60cd2931)" style="fill: none; stroke: #1f77b4; stroke-width: 1.5"/>
    <path d="M 126.585852 207.625812 
L 126.585852 207.255776 
" clip-path="url(#pfe60cd2931)" style="fill: none; stroke: #1f77b4; stroke-width: 1.5"/>
    <path d="M 128.10767 213.786876 
L 128.10767 213.532352 
" clip-path="url(#pfe60cd2931)" style="fill: none; stroke: #1f77b4; stroke-width: 1.5"/>
    <path d="M 129.629489 217.113857 
L 129.629489 216.965877 
" clip-path="url(#pfe60cd2931)" style="fill: none; stroke: #1f77b4; stroke-width: 1.5"/>
    <path d="M 131.151307 217.43924 
L 131.151307 217.306286 
" clip-path="url(#pfe60cd2931)" style="fill: none; stroke: #1f77b4; stroke-width: 1.5"/>
    <path d="M 132.673125 214.943512 
L 132.673125 214.7358 
" clip-path="url(#pfe60cd2931)" style="fill: none; stroke: #1f77b4; stroke-width: 1.5"/>
    <path d="M 134.194943 210.376902 
L 134.194943 210.071539 
" clip-path="url(#pfe60cd2931)" style="fill: none; stroke: #1f77b4; stroke-width: 1.5"/>
    <path d="M 135.716761 212.827621 
L 135.716761 212.579115 
" clip-path="url(#pfe60cd2931)" style="fill: none; stroke: #1f77b4; stroke-width: 1.5"/>
    <path d="M 137.23858 209.829517 
L 137.23858 209.520639 
" clip-path="url(#pfe60cd2931)" style="fill: none; stroke: #1f77b4; stroke-width: 1.5"/>
    <path d="M 138.760398 211.04154 
L 138.760398 210.774379 
" clip-path="url(#pfe60cd2931)" style="fill: none; stroke: #1f77b4; stroke-width: 1.5"/>
    <path d="M 140.282216 216.279201 
L 140.282216 216.120804 
" clip-path="url(#pfe60cd2931)" style="fill: none; stroke: #1f77b4; stroke-width: 1.5"/>
    <path d="M 141.804034 217.091126 
L 141.804034 216.959279 
" clip-path="url(#pfe60cd2931)" style="fill: none; stroke: #1f77b4; stroke-width: 1.5"/>
    <path d="M 143.325852 211.044013 
L 143.325852 210.774229 
" clip-path="url(#pfe60cd2931)" style="fill: none; stroke: #1f77b4; stroke-width: 1.5"/>
    <path d="M 144.84767 198.149862 
L 144.84767 197.722038 
" clip-path="url(#pfe60cd2931)" style="fill: none; stroke: #1f77b4; stroke-width: 1.5"/>
    <path d="M 146.369489 205.405788 
L 146.369489 205.068752 
" clip-path="url(#pfe60cd2931)" style="fill: none; stroke: #1f77b4; stroke-width: 1.5"/>
    <path d="M 147.891307 215.791994 
L 147.891307 215.639465 
" clip-path="url(#pfe60cd2931)" style="fill: none; stroke: #1f77b4; stroke-width: 1.5"/>
    <path d="M 149.413125 216.993815 
L 149.413125 216.868497 
" clip-path="url(#pfe60cd2931)" style="fill: none; stroke: #1f77b4; stroke-width: 1.5"/>
    <path d="M 150.934943 217.093615 
L 150.934943 216.975273 
" clip-path="url(#pfe60cd2931)" style="fill: none; stroke: #1f77b4; stroke-width: 1.5"/>
    <path d="M 152.456761 216.920573 
L 152.456761 216.794952 
" clip-path="url(#pfe60cd2931)" style="fill: none; stroke: #1f77b4; stroke-width: 1.5"/>
    <path d="M 153.97858 217.066983 
L 153.97858 216.949185 
" clip-path="url(#pfe60cd2931)" style="fill: none; stroke: #1f77b4; stroke-width: 1.5"/>
    <path d="M 155.500398 217.009886 
L 155.500398 216.889819 
" clip-path="url(#pfe60cd2931)" style="fill: none; stroke: #1f77b4; stroke-width: 1.5"/>
    <path d="M 157.022216 216.938202 
L 157.022216 216.819841 
" clip-path="url(#pfe60cd2931)" style="fill: none; stroke: #1f77b4; stroke-width: 1.5"/>
    <path d="M 158.544034 216.628828 
L 158.544034 216.496289 
" clip-path="url(#pfe60cd2931)" style="fill: none; stroke: #1f77b4; stroke-width: 1.5"/>
    <path d="M 160.065852 213.479353 
L 160.065852 213.2859 
" clip-path="url(#pfe60cd2931)" style="fill: none; stroke: #1f77b4; stroke-width: 1.5"/>
    <path d="M 161.58767 201.887575 
L 161.58767 201.533715 
" clip-path="url(#pfe60cd2931)" style="fill: none; stroke: #1f77b4; stroke-width: 1.5"/>
    <path d="M 163.109489 204.787469 
L 163.109489 204.483847 
" clip-path="url(#pfe60cd2931)" style="fill: none; stroke: #1f77b4; stroke-width: 1.5"/>
    <path d="M 164.631307 214.779096 
L 164.631307 214.61796 
" clip-path="url(#pfe60cd2931)" style="fill: none; stroke: #1f77b4; stroke-width: 1.5"/>
    <path d="M 166.153125 216.393061 
L 166.153125 216.26609 
" clip-path="url(#pfe60cd2931)" style="fill: none; stroke: #1f77b4; stroke-width: 1.5"/>
    <path d="M 167.674943 216.566213 
L 167.674943 216.445472 
" clip-path="url(#pfe60cd2931)" style="fill: none; stroke: #1f77b4; stroke-width: 1.5"/>
    <path d="M 169.196761 214.935894 
L 169.196761 214.782606 
" clip-path="url(#pfe60cd2931)" style="fill: none; stroke: #1f77b4; stroke-width: 1.5"/>
    <path d="M 170.71858 202.362359 
L 170.71858 202.042725 
" clip-path="url(#pfe60cd2931)" style="fill: none; stroke: #1f77b4; stroke-width: 1.5"/>
    <path d="M 172.240398 199.27254 
L 172.240398 198.928884 
" clip-path="url(#pfe60cd2931)" style="fill: none; stroke: #1f77b4; stroke-width: 1.5"/>
    <path d="M 173.762216 212.629609 
L 173.762216 212.446043 
" clip-path="url(#pfe60cd2931)" style="fill: none; stroke: #1f77b4; stroke-width: 1.5"/>
    <path d="M 175.284034 216.347385 
L 175.284034 216.225136 
" clip-path="url(#pfe60cd2931)" style="fill: none; stroke: #1f77b4; stroke-width: 1.5"/>
    <path d="M 176.805852 216.601274 
L 176.805852 216.484495 
" clip-path="url(#pfe60cd2931)" style="fill: none; stroke: #1f77b4; stroke-width: 1.5"/>
    <path d="M 178.32767 216.657333 
L 178.32767 216.541496 
" clip-path="url(#pfe60cd2931)" style="fill: none; stroke: #1f77b4; stroke-width: 1.5"/>
    <path d="M 179.849489 216.703254 
L 179.849489 216.592971 
" clip-path="url(#pfe60cd2931)" style="fill: none; stroke: #1f77b4; stroke-width: 1.5"/>
    <path d="M 181.371307 216.790583 
L 181.371307 216.683558 
" clip-path="url(#pfe60cd2931)" style="fill: none; stroke: #1f77b4; stroke-width: 1.5"/>
    <path d="M 182.893125 216.416603 
L 182.893125 216.295038 
" clip-path="url(#pfe60cd2931)" style="fill: none; stroke: #1f77b4; stroke-width: 1.5"/>
    <path d="M 184.414943 216.669758 
L 184.414943 216.560766 
" clip-path="url(#pfe60cd2931)" style="fill: none; stroke: #1f77b4; stroke-width: 1.5"/>
    <path d="M 185.936761 216.499064 
L 185.936761 216.385838 
" clip-path="url(#pfe60cd2931)" style="fill: none; stroke: #1f77b4; stroke-width: 1.5"/>
    <path d="M 187.45858 210.828303 
L 187.45858 210.622608 
" clip-path="url(#pfe60cd2931)" style="fill: none; stroke: #1f77b4; stroke-width: 1.5"/>
    <path d="M 188.980398 190.781407 
L 188.980398 190.390643 
" clip-path="url(#pfe60cd2931)" style="fill: none; stroke: #1f77b4; stroke-width: 1.5"/>
    <path d="M 190.502216 192.873718 
L 190.502216 192.497644 
" clip-path="url(#pfe60cd2931)" style="fill: none; stroke: #1f77b4; stroke-width: 1.5"/>
    <path d="M 192.024034 212.614629 
L 192.024034 212.441817 
" clip-path="url(#pfe60cd2931)" style="fill: none; stroke: #1f77b4; stroke-width: 1.5"/>
    <path d="M 193.545852 209.192779 
L 193.545852 208.97768 
" clip-path="url(#pfe60cd2931)" style="fill: none; stroke: #1f77b4; stroke-width: 1.5"/>
    <path d="M 195.06767 187.355157 
L 195.06767 186.953818 
" clip-path="url(#pfe60cd2931)" style="fill: none; stroke: #1f77b4; stroke-width: 1.5"/>
    <path d="M 196.589489 193.02687 
L 196.589489 192.660515 
" clip-path="url(#pfe60cd2931)" style="fill: none; stroke: #1f77b4; stroke-width: 1.5"/>
    <path d="M 198.111307 213.884895 
L 198.111307 213.735605 
" clip-path="url(#pfe60cd2931)" style="fill: none; stroke: #1f77b4; stroke-width: 1.5"/>
    <path d="M 199.633125 216.619001 
L 199.633125 216.516677 
" clip-path="url(#pfe60cd2931)" style="fill: none; stroke: #1f77b4; stroke-width: 1.5"/>
    <path d="M 201.154943 216.830313 
L 201.154943 216.730251 
" clip-path="url(#pfe60cd2931)" style="fill: none; stroke: #1f77b4; stroke-width: 1.5"/>
    <path d="M 202.676761 216.430228 
L 202.676761 216.321795 
" clip-path="url(#pfe60cd2931)" style="fill: none; stroke: #1f77b4; stroke-width: 1.5"/>
    <path d="M 204.19858 216.87475 
L 204.19858 216.779065 
" clip-path="url(#pfe60cd2931)" style="fill: none; stroke: #1f77b4; stroke-width: 1.5"/>
    <path d="M 205.720398 216.959839 
L 205.720398 216.867038 
" clip-path="url(#pfe60cd2931)" style="fill: none; stroke: #1f77b4; stroke-width: 1.5"/>
    <path d="M 207.242216 216.744619 
L 207.242216 216.643873 
" clip-path="url(#pfe60cd2931)" style="fill: none; stroke: #1f77b4; stroke-width: 1.5"/>
    <path d="M 208.764034 216.194535 
L 208.764034 216.081772 
" clip-path="url(#pfe60cd2931)" style="fill: none; stroke: #1f77b4; stroke-width: 1.5"/>
    <path d="M 210.285852 216.888094 
L 210.285852 216.793428 
" clip-path="url(#pfe60cd2931)" style="fill: none; stroke: #1f77b4; stroke-width: 1.5"/>
    <path d="M 211.80767 217.029196 
L 211.80767 216.939715 
" clip-path="url(#pfe60cd2931)" style="fill: none; stroke: #1f77b4; stroke-width: 1.5"/>
    <path d="M 213.329489 217.19095 
L 213.329489 217.10608 
" clip-path="url(#pfe60cd2931)" style="fill: none; stroke: #1f77b4; stroke-width: 1.5"/>
    <path d="M 214.851307 217.206008 
L 214.851307 217.121586 
" clip-path="url(#pfe60cd2931)" style="fill: none; stroke: #1f77b4; stroke-width: 1.5"/>
    <path d="M 216.373125 217.386121 
L 216.373125 217.310173 
" clip-path="url(#pfe60cd2931)" style="fill: none; stroke: #1f77b4; stroke-width: 1.5"/>
    <path d="M 217.894943 217.335245 
L 217.894943 217.255359 
" clip-path="url(#pfe60cd2931)" style="fill: none; stroke: #1f77b4; stroke-width: 1.5"/>
    <path d="M 219.416761 217.34579 
L 219.416761 217.266679 
" clip-path="url(#pfe60cd2931)" style="fill: none; stroke: #1f77b4; stroke-width: 1.5"/>
    <path d="M 220.93858 217.505385 
L 220.93858 217.431098 
" clip-path="url(#pfe60cd2931)" style="fill: none; stroke: #1f77b4; stroke-width: 1.5"/>
    <path d="M 222.460398 217.475712 
L 222.460398 217.399359 
" clip-path="url(#pfe60cd2931)" style="fill: none; stroke: #1f77b4; stroke-width: 1.5"/>
    <path d="M 223.982216 217.489704 
L 223.982216 217.414532 
" clip-path="url(#pfe60cd2931)" style="fill: none; stroke: #1f77b4; stroke-width: 1.5"/>
    <path d="M 225.504034 217.507252 
L 225.504034 217.431749 
" clip-path="url(#pfe60cd2931)" style="fill: none; stroke: #1f77b4; stroke-width: 1.5"/>
    <path d="M 227.025852 217.587818 
L 227.025852 217.516141 
" clip-path="url(#pfe60cd2931)" style="fill: none; stroke: #1f77b4; stroke-width: 1.5"/>
    <path d="M 228.54767 217.560076 
L 228.54767 217.486163 
" clip-path="url(#pfe60cd2931)" style="fill: none; stroke: #1f77b4; stroke-width: 1.5"/>
    <path d="M 230.069489 217.810837 
L 230.069489 217.746385 
" clip-path="url(#pfe60cd2931)" style="fill: none; stroke: #1f77b4; stroke-width: 1.5"/>
    <path d="M 231.591307 217.749761 
L 231.591307 217.683376 
" clip-path="url(#pfe60cd2931)" style="fill: none; stroke: #1f77b4; stroke-width: 1.5"/>
    <path d="M 233.113125 217.649952 
L 233.113125 217.579161 
" clip-path="url(#pfe60cd2931)" style="fill: none; stroke: #1f77b4; stroke-width: 1.5"/>
    <path d="M 234.634943 217.649127 
L 234.634943 217.576541 
" clip-path="url(#pfe60cd2931)" style="fill: none; stroke: #1f77b4; stroke-width: 1.5"/>
    <path d="M 236.156761 217.664882 
L 236.156761 217.593901 
" clip-path="url(#pfe60cd2931)" style="fill: none; stroke: #1f77b4; stroke-width: 1.5"/>
    <path d="M 237.67858 217.684898 
L 237.67858 217.616348 
" clip-path="url(#pfe60cd2931)" style="fill: none; stroke: #1f77b4; stroke-width: 1.5"/>
    <path d="M 239.200398 217.603949 
L 239.200398 217.531952 
" clip-path="url(#pfe60cd2931)" style="fill: none; stroke: #1f77b4; stroke-width: 1.5"/>
    <path d="M 240.722216 217.545758 
L 240.722216 217.471207 
" clip-path="url(#pfe60cd2931)" style="fill: none; stroke: #1f77b4; stroke-width: 1.5"/>
    <path d="M 242.244034 217.507991 
L 242.244034 217.433379 
" clip-path="url(#pfe60cd2931)" style="fill: none; stroke: #1f77b4; stroke-width: 1.5"/>
    <path d="M 243.765852 217.464155 
L 243.765852 217.388298 
" clip-path="url(#pfe60cd2931)" style="fill: none; stroke: #1f77b4; stroke-width: 1.5"/>
    <path d="M 245.28767 217.388959 
L 245.28767 217.308414 
" clip-path="url(#pfe60cd2931)" style="fill: none; stroke: #1f77b4; stroke-width: 1.5"/>
    <path d="M 246.809489 217.422516 
L 246.809489 217.344487 
" clip-path="url(#pfe60cd2931)" style="fill: none; stroke: #1f77b4; stroke-width: 1.5"/>
    <path d="M 248.331307 217.356531 
L 248.331307 217.279195 
" clip-path="url(#pfe60cd2931)" style="fill: none; stroke: #1f77b4; stroke-width: 1.5"/>
    <path d="M 249.853125 217.436823 
L 249.853125 217.362178 
" clip-path="url(#pfe60cd2931)" style="fill: none; stroke: #1f77b4; stroke-width: 1.5"/>
    <path d="M 251.374943 217.49215 
L 251.374943 217.421777 
" clip-path="url(#pfe60cd2931)" style="fill: none; stroke: #1f77b4; stroke-width: 1.5"/>
    <path d="M 252.896761 217.49149 
L 252.896761 217.421226 
" clip-path="url(#pfe60cd2931)" style="fill: none; stroke: #1f77b4; stroke-width: 1.5"/>
    <path d="M 254.41858 217.326784 
L 254.41858 217.248603 
" clip-path="url(#pfe60cd2931)" style="fill: none; stroke: #1f77b4; stroke-width: 1.5"/>
    <path d="M 255.940398 217.323235 
L 255.940398 217.246396 
" clip-path="url(#pfe60cd2931)" style="fill: none; stroke: #1f77b4; stroke-width: 1.5"/>
    <path d="M 257.462216 217.34313 
L 257.462216 217.266617 
" clip-path="url(#pfe60cd2931)" style="fill: none; stroke: #1f77b4; stroke-width: 1.5"/>
    <path d="M 258.984034 217.259797 
L 258.984034 217.180155 
" clip-path="url(#pfe60cd2931)" style="fill: none; stroke: #1f77b4; stroke-width: 1.5"/>
    <path d="M 260.505852 217.077124 
L 260.505852 216.991888 
" clip-path="url(#pfe60cd2931)" style="fill: none; stroke: #1f77b4; stroke-width: 1.5"/>
    <path d="M 262.02767 217.135098 
L 262.02767 217.053271 
" clip-path="url(#pfe60cd2931)" style="fill: none; stroke: #1f77b4; stroke-width: 1.5"/>
    <path d="M 263.549489 217.123503 
L 263.549489 217.043148 
" clip-path="url(#pfe60cd2931)" style="fill: none; stroke: #1f77b4; stroke-width: 1.5"/>
    <path d="M 265.071307 217.02242 
L 265.071307 216.938152 
" clip-path="url(#pfe60cd2931)" style="fill: none; stroke: #1f77b4; stroke-width: 1.5"/>
    <path d="M 266.593125 217.035906 
L 266.593125 216.952864 
" clip-path="url(#pfe60cd2931)" style="fill: none; stroke: #1f77b4; stroke-width: 1.5"/>
    <path d="M 268.114943 217.101121 
L 268.114943 217.021955 
" clip-path="url(#pfe60cd2931)" style="fill: none; stroke: #1f77b4; stroke-width: 1.5"/>
    <path d="M 269.636761 216.96302 
L 269.636761 216.880197 
" clip-path="url(#pfe60cd2931)" style="fill: none; stroke: #1f77b4; stroke-width: 1.5"/>
    <path d="M 271.15858 217.018637 
L 271.15858 216.938293 
" clip-path="url(#pfe60cd2931)" style="fill: none; stroke: #1f77b4; stroke-width: 1.5"/>
    <path d="M 272.680398 216.9499 
L 272.680398 216.868185 
" clip-path="url(#pfe60cd2931)" style="fill: none; stroke: #1f77b4; stroke-width: 1.5"/>
    <path d="M 274.202216 216.992004 
L 274.202216 216.910042 
" clip-path="url(#pfe60cd2931)" style="fill: none; stroke: #1f77b4; stroke-width: 1.5"/>
    <path d="M 275.724034 216.881922 
L 275.724034 216.79886 
" clip-path="url(#pfe60cd2931)" style="fill: none; stroke: #1f77b4; stroke-width: 1.5"/>
    <path d="M 277.245852 216.721985 
L 277.245852 216.634139 
" clip-path="url(#pfe60cd2931)" style="fill: none; stroke: #1f77b4; stroke-width: 1.5"/>
    <path d="M 278.76767 216.702575 
L 278.76767 216.615112 
" clip-path="url(#pfe60cd2931)" style="fill: none; stroke: #1f77b4; stroke-width: 1.5"/>
    <path d="M 280.289489 216.802711 
L 280.289489 216.718992 
" clip-path="url(#pfe60cd2931)" style="fill: none; stroke: #1f77b4; stroke-width: 1.5"/>
    <path d="M 281.811307 216.72044 
L 281.811307 216.635312 
" clip-path="url(#pfe60cd2931)" style="fill: none; stroke: #1f77b4; stroke-width: 1.5"/>
    <path d="M 283.333125 216.748584 
L 283.333125 216.663777 
" clip-path="url(#pfe60cd2931)" style="fill: none; stroke: #1f77b4; stroke-width: 1.5"/>
    <path d="M 284.854943 216.642896 
L 284.854943 216.5565 
" clip-path="url(#pfe60cd2931)" style="fill: none; stroke: #1f77b4; stroke-width: 1.5"/>
    <path d="M 286.376761 216.710535 
L 286.376761 216.626781 
" clip-path="url(#pfe60cd2931)" style="fill: none; stroke: #1f77b4; stroke-width: 1.5"/>
    <path d="M 287.89858 216.607349 
L 287.89858 216.522156 
" clip-path="url(#pfe60cd2931)" style="fill: none; stroke: #1f77b4; stroke-width: 1.5"/>
    <path d="M 289.420398 216.642725 
L 289.420398 216.558669 
" clip-path="url(#pfe60cd2931)" style="fill: none; stroke: #1f77b4; stroke-width: 1.5"/>
    <path d="M 290.942216 216.50695 
L 290.942216 216.420135 
" clip-path="url(#pfe60cd2931)" style="fill: none; stroke: #1f77b4; stroke-width: 1.5"/>
    <path d="M 292.464034 216.476035 
L 292.464034 216.388588 
" clip-path="url(#pfe60cd2931)" style="fill: none; stroke: #1f77b4; stroke-width: 1.5"/>
    <path d="M 293.985852 216.400651 
L 293.985852 216.312158 
" clip-path="url(#pfe60cd2931)" style="fill: none; stroke: #1f77b4; stroke-width: 1.5"/>
    <path d="M 295.50767 216.39417 
L 295.50767 216.306574 
" clip-path="url(#pfe60cd2931)" style="fill: none; stroke: #1f77b4; stroke-width: 1.5"/>
    <path d="M 297.029489 216.178708 
L 297.029489 216.086636 
" clip-path="url(#pfe60cd2931)" style="fill: none; stroke: #1f77b4; stroke-width: 1.5"/>
    <path d="M 298.551307 216.119955 
L 298.551307 216.027272 
" clip-path="url(#pfe60cd2931)" style="fill: none; stroke: #1f77b4; stroke-width: 1.5"/>
    <path d="M 300.073125 216.156942 
L 300.073125 216.065397 
" clip-path="url(#pfe60cd2931)" style="fill: none; stroke: #1f77b4; stroke-width: 1.5"/>
    <path d="M 301.594943 216.113706 
L 301.594943 216.021461 
" clip-path="url(#pfe60cd2931)" style="fill: none; stroke: #1f77b4; stroke-width: 1.5"/>
    <path d="M 303.116761 216.22738 
L 303.116761 216.139192 
" clip-path="url(#pfe60cd2931)" style="fill: none; stroke: #1f77b4; stroke-width: 1.5"/>
    <path d="M 304.63858 216.326688 
L 304.63858 216.240732 
" clip-path="url(#pfe60cd2931)" style="fill: none; stroke: #1f77b4; stroke-width: 1.5"/>
    <path d="M 306.160398 216.180769 
L 306.160398 216.091728 
" clip-path="url(#pfe60cd2931)" style="fill: none; stroke: #1f77b4; stroke-width: 1.5"/>
    <path d="M 307.682216 216.080224 
L 307.682216 215.988467 
" clip-path="url(#pfe60cd2931)" style="fill: none; stroke: #1f77b4; stroke-width: 1.5"/>
    <path d="M 309.204034 216.110191 
L 309.204034 216.019511 
" clip-path="url(#pfe60cd2931)" style="fill: none; stroke: #1f77b4; stroke-width: 1.5"/>
    <path d="M 310.725852 216.17013 
L 310.725852 216.082753 
" clip-path="url(#pfe60cd2931)" style="fill: none; stroke: #1f77b4; stroke-width: 1.5"/>
    <path d="M 312.24767 216.053723 
L 312.24767 215.964312 
" clip-path="url(#pfe60cd2931)" style="fill: none; stroke: #1f77b4; stroke-width: 1.5"/>
    <path d="M 313.769489 216.00432 
L 313.769489 215.914563 
" clip-path="url(#pfe60cd2931)" style="fill: none; stroke: #1f77b4; stroke-width: 1.5"/>
    <path d="M 315.291307 216.022012 
L 315.291307 215.933393 
" clip-path="url(#pfe60cd2931)" style="fill: none; stroke: #1f77b4; stroke-width: 1.5"/>
    <path d="M 316.813125 215.568415 
L 316.813125 215.472874 
" clip-path="url(#pfe60cd2931)" style="fill: none; stroke: #1f77b4; stroke-width: 1.5"/>
    <path d="M 318.334943 214.798589 
L 318.334943 214.69682 
" clip-path="url(#pfe60cd2931)" style="fill: none; stroke: #1f77b4; stroke-width: 1.5"/>
    <path d="M 319.856761 205.965226 
L 319.856761 205.788266 
" clip-path="url(#pfe60cd2931)" style="fill: none; stroke: #1f77b4; stroke-width: 1.5"/>
    <path d="M 321.37858 136.789743 
L 321.37858 136.330355 
" clip-path="url(#pfe60cd2931)" style="fill: none; stroke: #1f77b4; stroke-width: 1.5"/>
    <path d="M 322.900398 18.019699 
L 322.900398 17.28 
" clip-path="url(#pfe60cd2931)" style="fill: none; stroke: #1f77b4; stroke-width: 1.5"/>
    <path d="M 324.422216 82.003863 
L 324.422216 81.407639 
" clip-path="url(#pfe60cd2931)" style="fill: none; stroke: #1f77b4; stroke-width: 1.5"/>
    <path d="M 325.944034 190.346068 
L 325.944034 190.089971 
" clip-path="url(#pfe60cd2931)" style="fill: none; stroke: #1f77b4; stroke-width: 1.5"/>
    <path d="M 327.465852 213.147805 
L 327.465852 213.033571 
" clip-path="url(#pfe60cd2931)" style="fill: none; stroke: #1f77b4; stroke-width: 1.5"/>
    <path d="M 328.98767 215.496574 
L 328.98767 215.403642 
" clip-path="url(#pfe60cd2931)" style="fill: none; stroke: #1f77b4; stroke-width: 1.5"/>
    <path d="M 330.509489 215.941022 
L 330.509489 215.855225 
" clip-path="url(#pfe60cd2931)" style="fill: none; stroke: #1f77b4; stroke-width: 1.5"/>
    <path d="M 332.031307 216.508484 
L 332.031307 216.439122 
" clip-path="url(#pfe60cd2931)" style="fill: none; stroke: #1f77b4; stroke-width: 1.5"/>
    <path d="M 333.553125 216.93657 
L 333.553125 216.878547 
" clip-path="url(#pfe60cd2931)" style="fill: none; stroke: #1f77b4; stroke-width: 1.5"/>
    <path d="M 335.074943 216.581488 
L 335.074943 216.512254 
" clip-path="url(#pfe60cd2931)" style="fill: none; stroke: #1f77b4; stroke-width: 1.5"/>
    <path d="M 336.596761 216.307195 
L 336.596761 216.228321 
" clip-path="url(#pfe60cd2931)" style="fill: none; stroke: #1f77b4; stroke-width: 1.5"/>
    <path d="M 338.11858 216.202492 
L 338.11858 216.119145 
" clip-path="url(#pfe60cd2931)" style="fill: none; stroke: #1f77b4; stroke-width: 1.5"/>
    <path d="M 339.640398 216.045784 
L 339.640398 215.958951 
" clip-path="url(#pfe60cd2931)" style="fill: none; stroke: #1f77b4; stroke-width: 1.5"/>
    <path d="M 341.162216 216.175126 
L 341.162216 216.090735 
" clip-path="url(#pfe60cd2931)" style="fill: none; stroke: #1f77b4; stroke-width: 1.5"/>
    <path d="M 342.684034 215.90142 
L 342.684034 215.81554 
" clip-path="url(#pfe60cd2931)" style="fill: none; stroke: #1f77b4; stroke-width: 1.5"/>
    <path d="M 344.205852 215.569558 
L 344.205852 215.475807 
" clip-path="url(#pfe60cd2931)" style="fill: none; stroke: #1f77b4; stroke-width: 1.5"/>
    <path d="M 345.72767 215.886218 
L 345.72767 215.797428 
" clip-path="url(#pfe60cd2931)" style="fill: none; stroke: #1f77b4; stroke-width: 1.5"/>
    <path d="M 347.249489 216.120518 
L 347.249489 216.035059 
" clip-path="url(#pfe60cd2931)" style="fill: none; stroke: #1f77b4; stroke-width: 1.5"/>
    <path d="M 348.771307 216.209151 
L 348.771307 216.121818 
" clip-path="url(#pfe60cd2931)" style="fill: none; stroke: #1f77b4; stroke-width: 1.5"/>
    <path d="M 350.293125 216.230805 
L 350.293125 216.144099 
" clip-path="url(#pfe60cd2931)" style="fill: none; stroke: #1f77b4; stroke-width: 1.5"/>
    <path d="M 351.814943 216.336686 
L 351.814943 216.250209 
" clip-path="url(#pfe60cd2931)" style="fill: none; stroke: #1f77b4; stroke-width: 1.5"/>
    <path d="M 353.336761 216.412475 
L 353.336761 216.327072 
" clip-path="url(#pfe60cd2931)" style="fill: none; stroke: #1f77b4; stroke-width: 1.5"/>
    <path d="M 354.85858 216.430027 
L 354.85858 216.344015 
" clip-path="url(#pfe60cd2931)" style="fill: none; stroke: #1f77b4; stroke-width: 1.5"/>
    <path d="M 356.380398 216.334193 
L 356.380398 216.244964 
" clip-path="url(#pfe60cd2931)" style="fill: none; stroke: #1f77b4; stroke-width: 1.5"/>
    <path d="M 357.902216 216.30207 
L 357.902216 216.212046 
" clip-path="url(#pfe60cd2931)" style="fill: none; stroke: #1f77b4; stroke-width: 1.5"/>
    <path d="M 359.424034 216.40976 
L 359.424034 216.320817 
" clip-path="url(#pfe60cd2931)" style="fill: none; stroke: #1f77b4; stroke-width: 1.5"/>
   </g>
   <g id="patch_3">
    <path d="M 40.603125 228.96 
L 40.603125 7.2 
" style="fill: none; stroke: #000000; stroke-width: 0.8; stroke-linejoin: miter; stroke-linecap: square"/>
   </g>
   <g id="patch_4">
    <path d="M 375.403125 228.96 
L 375.403125 7.2 
" style="fill: none; stroke: #000000; stroke-width: 0.8; stroke-linejoin: miter; stroke-linecap: square"/>
   </g>
   <g id="patch_5">
    <path d="M 40.603125 228.96 
L 375.403125 228.96 
" style="fill: none; stroke: #000000; stroke-width: 0.8; stroke-linejoin: miter; stroke-linecap: square"/>
   </g>
   <g id="patch_6">
    <path d="M 40.603125 7.2 
L 375.403125 7.2 
" style="fill: none; stroke: #000000; stroke-width: 0.8; stroke-linejoin: miter; stroke-linecap: square"/>
   </g>
  </g>
 </g>
 <defs>
  <clipPath id="pfe60cd2931">
   <rect x="40.603125" y="7.2" width="334.8" height="221.76"/>
  </clipPath>
 </defs>
</svg>
