<?xml version="1.0" encoding="utf-8" standalone="no"?>
<!DOCTYPE svg PUBLIC "-//W3C//DTD SVG 1.1//EN"
  "http://www.w3.org/Graphics/SVG/1.1/DTD/svg11.dtd">
<svg xmlns:xlink="http://www.w3.org/1999/xlink" width="423.402101pt" height="266.51625pt" viewBox="0 0 423.402101 266.51625" xmlns="http://www.w3.org/2000/svg" version="1.1">
 <metadata>
  <rdf:RDF xmlns:dc="http://purl.org/dc/elements/1.1/" xmlns:cc="http://creativecommons.org/ns#" xmlns:rdf="http://www.w3.org/1999/02/22-rdf-syntax-ns#">
   <cc:Work>
    <dc:type rdf:resource="http://purl.org/dc/dcmitype/StillImage"/>
    <dc:date>2025-08-06T10:44:58.537286</dc:date>
    <dc:format>image/svg+xml</dc:format>
    <dc:creator>
     <cc:Agent>
      <dc:title>Matplotlib v3.10.5, https://matplotlib.org/</dc:title>
     </cc:Agent>
    </dc:creator>
   </cc:Work>
  </rdf:RDF>
 </metadata>
 <defs>
  <style type="text/css">*{stroke-linejoin: round; stroke-linecap: butt}</style>
 </defs>
 <g id="figure_1">
  <g id="patch_1">
   <path d="M 0 266.51625 
L 423.402101 266.51625 
L 423.402101 0 
L 0 0 
z
" style="fill: #ffffff"/>
  </g>
  <g id="axes_1">
   <g id="patch_2">
    <path d="M 66.053125 228.96 
L 400.853125 228.96 
L 400.853125 7.2 
L 66.053125 7.2 
z
" style="fill: #ffffff"/>
   </g>
   <g id="matplotlib.axis_1">
    <g id="xtick_1">
     <g id="line2d_1">
      <defs>
       <path id="m6a72e2e49b" d="M 0 0 
L 0 3.5 
" style="stroke: #000000; stroke-width: 0.8"/>
      </defs>
      <g>
       <use xlink:href="#m6a72e2e49b" x="80.90629" y="228.96" style="stroke: #000000; stroke-width: 0.8"/>
      </g>
     </g>
     <g id="text_1">
      <!-- 0 -->
      <g transform="translate(77.72504 243.558437) scale(0.1 -0.1)">
       <defs>
        <path id="DejaVuSans-30" d="M 2034 4250 
Q 1547 4250 1301 3770 
Q 1056 3291 1056 2328 
Q 1056 1369 1301 889 
Q 1547 409 2034 409 
Q 2525 409 2770 889 
Q 3016 1369 3016 2328 
Q 3016 3291 2770 3770 
Q 2525 4250 2034 4250 
z
M 2034 4750 
Q 2819 4750 3233 4129 
Q 3647 3509 3647 2328 
Q 3647 1150 3233 529 
Q 2819 -91 2034 -91 
Q 1250 -91 836 529 
Q 422 1150 422 2328 
Q 422 3509 836 4129 
Q 1250 4750 2034 4750 
z
" transform="scale(0.015625)"/>
       </defs>
       <use xlink:href="#DejaVuSans-30"/>
      </g>
     </g>
    </g>
    <g id="xtick_2">
     <g id="line2d_2">
      <g>
       <use xlink:href="#m6a72e2e49b" x="126.53337" y="228.96" style="stroke: #000000; stroke-width: 0.8"/>
      </g>
     </g>
     <g id="text_2">
      <!-- 2500 -->
      <g transform="translate(113.80837 243.558437) scale(0.1 -0.1)">
       <defs>
        <path id="DejaVuSans-32" d="M 1228 531 
L 3431 531 
L 3431 0 
L 469 0 
L 469 531 
Q 828 903 1448 1529 
Q 2069 2156 2228 2338 
Q 2531 2678 2651 2914 
Q 2772 3150 2772 3378 
Q 2772 3750 2511 3984 
Q 2250 4219 1831 4219 
Q 1534 4219 1204 4116 
Q 875 4013 500 3803 
L 500 4441 
Q 881 4594 1212 4672 
Q 1544 4750 1819 4750 
Q 2544 4750 2975 4387 
Q 3406 4025 3406 3419 
Q 3406 3131 3298 2873 
Q 3191 2616 2906 2266 
Q 2828 2175 2409 1742 
Q 1991 1309 1228 531 
z
" transform="scale(0.015625)"/>
        <path id="DejaVuSans-35" d="M 691 4666 
L 3169 4666 
L 3169 4134 
L 1269 4134 
L 1269 2991 
Q 1406 3038 1543 3061 
Q 1681 3084 1819 3084 
Q 2600 3084 3056 2656 
Q 3513 2228 3513 1497 
Q 3513 744 3044 326 
Q 2575 -91 1722 -91 
Q 1428 -91 1123 -41 
Q 819 9 494 109 
L 494 744 
Q 775 591 1075 516 
Q 1375 441 1709 441 
Q 2250 441 2565 725 
Q 2881 1009 2881 1497 
Q 2881 1984 2565 2268 
Q 2250 2553 1709 2553 
Q 1456 2553 1204 2497 
Q 953 2441 691 2322 
L 691 4666 
z
" transform="scale(0.015625)"/>
       </defs>
       <use xlink:href="#DejaVuSans-32"/>
       <use xlink:href="#DejaVuSans-35" transform="translate(63.623047 0)"/>
       <use xlink:href="#DejaVuSans-30" transform="translate(127.246094 0)"/>
       <use xlink:href="#DejaVuSans-30" transform="translate(190.869141 0)"/>
      </g>
     </g>
    </g>
    <g id="xtick_3">
     <g id="line2d_3">
      <g>
       <use xlink:href="#m6a72e2e49b" x="172.16045" y="228.96" style="stroke: #000000; stroke-width: 0.8"/>
      </g>
     </g>
     <g id="text_3">
      <!-- 5000 -->
      <g transform="translate(159.43545 243.558437) scale(0.1 -0.1)">
       <use xlink:href="#DejaVuSans-35"/>
       <use xlink:href="#DejaVuSans-30" transform="translate(63.623047 0)"/>
       <use xlink:href="#DejaVuSans-30" transform="translate(127.246094 0)"/>
       <use xlink:href="#DejaVuSans-30" transform="translate(190.869141 0)"/>
      </g>
     </g>
    </g>
    <g id="xtick_4">
     <g id="line2d_4">
      <g>
       <use xlink:href="#m6a72e2e49b" x="217.78753" y="228.96" style="stroke: #000000; stroke-width: 0.8"/>
      </g>
     </g>
     <g id="text_4">
      <!-- 7500 -->
      <g transform="translate(205.06253 243.558437) scale(0.1 -0.1)">
       <defs>
        <path id="DejaVuSans-37" d="M 525 4666 
L 3525 4666 
L 3525 4397 
L 1831 0 
L 1172 0 
L 2766 4134 
L 525 4134 
L 525 4666 
z
" transform="scale(0.015625)"/>
       </defs>
       <use xlink:href="#DejaVuSans-37"/>
       <use xlink:href="#DejaVuSans-35" transform="translate(63.623047 0)"/>
       <use xlink:href="#DejaVuSans-30" transform="translate(127.246094 0)"/>
       <use xlink:href="#DejaVuSans-30" transform="translate(190.869141 0)"/>
      </g>
     </g>
    </g>
    <g id="xtick_5">
     <g id="line2d_5">
      <g>
       <use xlink:href="#m6a72e2e49b" x="263.414611" y="228.96" style="stroke: #000000; stroke-width: 0.8"/>
      </g>
     </g>
     <g id="text_5">
      <!-- 10000 -->
      <g transform="translate(247.508361 243.558437) scale(0.1 -0.1)">
       <defs>
        <path id="DejaVuSans-31" d="M 794 531 
L 1825 531 
L 1825 4091 
L 703 3866 
L 703 4441 
L 1819 4666 
L 2450 4666 
L 2450 531 
L 3481 531 
L 3481 0 
L 794 0 
L 794 531 
z
" transform="scale(0.015625)"/>
       </defs>
       <use xlink:href="#DejaVuSans-31"/>
       <use xlink:href="#DejaVuSans-30" transform="translate(63.623047 0)"/>
       <use xlink:href="#DejaVuSans-30" transform="translate(127.246094 0)"/>
       <use xlink:href="#DejaVuSans-30" transform="translate(190.869141 0)"/>
       <use xlink:href="#DejaVuSans-30" transform="translate(254.492188 0)"/>
      </g>
     </g>
    </g>
    <g id="xtick_6">
     <g id="line2d_6">
      <g>
       <use xlink:href="#m6a72e2e49b" x="309.041691" y="228.96" style="stroke: #000000; stroke-width: 0.8"/>
      </g>
     </g>
     <g id="text_6">
      <!-- 12500 -->
      <g transform="translate(293.135441 243.558437) scale(0.1 -0.1)">
       <use xlink:href="#DejaVuSans-31"/>
       <use xlink:href="#DejaVuSans-32" transform="translate(63.623047 0)"/>
       <use xlink:href="#DejaVuSans-35" transform="translate(127.246094 0)"/>
       <use xlink:href="#DejaVuSans-30" transform="translate(190.869141 0)"/>
       <use xlink:href="#DejaVuSans-30" transform="translate(254.492188 0)"/>
      </g>
     </g>
    </g>
    <g id="xtick_7">
     <g id="line2d_7">
      <g>
       <use xlink:href="#m6a72e2e49b" x="354.668771" y="228.96" style="stroke: #000000; stroke-width: 0.8"/>
      </g>
     </g>
     <g id="text_7">
      <!-- 15000 -->
      <g transform="translate(338.762521 243.558437) scale(0.1 -0.1)">
       <use xlink:href="#DejaVuSans-31"/>
       <use xlink:href="#DejaVuSans-35" transform="translate(63.623047 0)"/>
       <use xlink:href="#DejaVuSans-30" transform="translate(127.246094 0)"/>
       <use xlink:href="#DejaVuSans-30" transform="translate(190.869141 0)"/>
       <use xlink:href="#DejaVuSans-30" transform="translate(254.492188 0)"/>
      </g>
     </g>
    </g>
    <g id="xtick_8">
     <g id="line2d_8">
      <g>
       <use xlink:href="#m6a72e2e49b" x="400.295851" y="228.96" style="stroke: #000000; stroke-width: 0.8"/>
      </g>
     </g>
     <g id="text_8">
      <!-- 17500 -->
      <g transform="translate(384.389601 243.558437) scale(0.1 -0.1)">
       <use xlink:href="#DejaVuSans-31"/>
       <use xlink:href="#DejaVuSans-37" transform="translate(63.623047 0)"/>
       <use xlink:href="#DejaVuSans-35" transform="translate(127.246094 0)"/>
       <use xlink:href="#DejaVuSans-30" transform="translate(190.869141 0)"/>
       <use xlink:href="#DejaVuSans-30" transform="translate(254.492188 0)"/>
      </g>
     </g>
    </g>
    <g id="text_9">
     <!-- tof [µs] -->
     <g transform="translate(215.396875 257.236562) scale(0.1 -0.1)">
      <defs>
       <path id="DejaVuSans-74" d="M 1172 4494 
L 1172 3500 
L 2356 3500 
L 2356 3053 
L 1172 3053 
L 1172 1153 
Q 1172 725 1289 603 
Q 1406 481 1766 481 
L 2356 481 
L 2356 0 
L 1766 0 
Q 1100 0 847 248 
Q 594 497 594 1153 
L 594 3053 
L 172 3053 
L 172 3500 
L 594 3500 
L 594 4494 
L 1172 4494 
z
" transform="scale(0.015625)"/>
       <path id="DejaVuSans-6f" d="M 1959 3097 
Q 1497 3097 1228 2736 
Q 959 2375 959 1747 
Q 959 1119 1226 758 
Q 1494 397 1959 397 
Q 2419 397 2687 759 
Q 2956 1122 2956 1747 
Q 2956 2369 2687 2733 
Q 2419 3097 1959 3097 
z
M 1959 3584 
Q 2709 3584 3137 3096 
Q 3566 2609 3566 1747 
Q 3566 888 3137 398 
Q 2709 -91 1959 -91 
Q 1206 -91 779 398 
Q 353 888 353 1747 
Q 353 2609 779 3096 
Q 1206 3584 1959 3584 
z
" transform="scale(0.015625)"/>
       <path id="DejaVuSans-66" d="M 2375 4863 
L 2375 4384 
L 1825 4384 
Q 1516 4384 1395 4259 
Q 1275 4134 1275 3809 
L 1275 3500 
L 2222 3500 
L 2222 3053 
L 1275 3053 
L 1275 0 
L 697 0 
L 697 3053 
L 147 3053 
L 147 3500 
L 697 3500 
L 697 3744 
Q 697 4328 969 4595 
Q 1241 4863 1831 4863 
L 2375 4863 
z
" transform="scale(0.015625)"/>
       <path id="DejaVuSans-20" transform="scale(0.015625)"/>
       <path id="DejaVuSans-5b" d="M 550 4863 
L 1875 4863 
L 1875 4416 
L 1125 4416 
L 1125 -397 
L 1875 -397 
L 1875 -844 
L 550 -844 
L 550 4863 
z
" transform="scale(0.015625)"/>
       <path id="DejaVuSans-b5" d="M 544 -1331 
L 544 3500 
L 1119 3500 
L 1119 1325 
Q 1119 872 1334 640 
Q 1550 409 1972 409 
Q 2434 409 2667 671 
Q 2900 934 2900 1459 
L 2900 3500 
L 3475 3500 
L 3475 806 
Q 3475 619 3529 530 
Q 3584 441 3700 441 
Q 3728 441 3778 458 
Q 3828 475 3916 513 
L 3916 50 
Q 3788 -22 3673 -56 
Q 3559 -91 3450 -91 
Q 3234 -91 3106 31 
Q 2978 153 2931 403 
Q 2775 156 2548 32 
Q 2322 -91 2016 -91 
Q 1697 -91 1473 31 
Q 1250 153 1119 397 
L 1119 -1331 
L 544 -1331 
z
" transform="scale(0.015625)"/>
       <path id="DejaVuSans-73" d="M 2834 3397 
L 2834 2853 
Q 2591 2978 2328 3040 
Q 2066 3103 1784 3103 
Q 1356 3103 1142 2972 
Q 928 2841 928 2578 
Q 928 2378 1081 2264 
Q 1234 2150 1697 2047 
L 1894 2003 
Q 2506 1872 2764 1633 
Q 3022 1394 3022 966 
Q 3022 478 2636 193 
Q 2250 -91 1575 -91 
Q 1294 -91 989 -36 
Q 684 19 347 128 
L 347 722 
Q 666 556 975 473 
Q 1284 391 1588 391 
Q 1994 391 2212 530 
Q 2431 669 2431 922 
Q 2431 1156 2273 1281 
Q 2116 1406 1581 1522 
L 1381 1569 
Q 847 1681 609 1914 
Q 372 2147 372 2553 
Q 372 3047 722 3315 
Q 1072 3584 1716 3584 
Q 2034 3584 2315 3537 
Q 2597 3491 2834 3397 
z
" transform="scale(0.015625)"/>
       <path id="DejaVuSans-5d" d="M 1947 4863 
L 1947 -844 
L 622 -844 
L 622 -397 
L 1369 -397 
L 1369 4416 
L 622 4416 
L 622 4863 
L 1947 4863 
z
" transform="scale(0.015625)"/>
      </defs>
      <use xlink:href="#DejaVuSans-74"/>
      <use xlink:href="#DejaVuSans-6f" transform="translate(39.208984 0)"/>
      <use xlink:href="#DejaVuSans-66" transform="translate(100.390625 0)"/>
      <use xlink:href="#DejaVuSans-20" transform="translate(135.595703 0)"/>
      <use xlink:href="#DejaVuSans-5b" transform="translate(167.382812 0)"/>
      <use xlink:href="#DejaVuSans-b5" transform="translate(206.396484 0)"/>
      <use xlink:href="#DejaVuSans-73" transform="translate(270.019531 0)"/>
      <use xlink:href="#DejaVuSans-5d" transform="translate(322.119141 0)"/>
     </g>
    </g>
   </g>
   <g id="matplotlib.axis_2">
    <g id="ytick_1">
     <g id="line2d_9">
      <defs>
       <path id="m4118dc7696" d="M 0 0 
L -3.5 0 
" style="stroke: #000000; stroke-width: 0.8"/>
      </defs>
      <g>
       <use xlink:href="#m4118dc7696" x="66.053125" y="184.147082" style="stroke: #000000; stroke-width: 0.8"/>
      </g>
     </g>
     <g id="text_10">
      <!-- 200000 -->
      <g transform="translate(20.878125 187.9463) scale(0.1 -0.1)">
       <use xlink:href="#DejaVuSans-32"/>
       <use xlink:href="#DejaVuSans-30" transform="translate(63.623047 0)"/>
       <use xlink:href="#DejaVuSans-30" transform="translate(127.246094 0)"/>
       <use xlink:href="#DejaVuSans-30" transform="translate(190.869141 0)"/>
       <use xlink:href="#DejaVuSans-30" transform="translate(254.492188 0)"/>
       <use xlink:href="#DejaVuSans-30" transform="translate(318.115234 0)"/>
      </g>
     </g>
    </g>
    <g id="ytick_2">
     <g id="line2d_10">
      <g>
       <use xlink:href="#m4118dc7696" x="66.053125" y="137.766226" style="stroke: #000000; stroke-width: 0.8"/>
      </g>
     </g>
     <g id="text_11">
      <!-- 400000 -->
      <g transform="translate(20.878125 141.565444) scale(0.1 -0.1)">
       <defs>
        <path id="DejaVuSans-34" d="M 2419 4116 
L 825 1625 
L 2419 1625 
L 2419 4116 
z
M 2253 4666 
L 3047 4666 
L 3047 1625 
L 3713 1625 
L 3713 1100 
L 3047 1100 
L 3047 0 
L 2419 0 
L 2419 1100 
L 313 1100 
L 313 1709 
L 2253 4666 
z
" transform="scale(0.015625)"/>
       </defs>
       <use xlink:href="#DejaVuSans-34"/>
       <use xlink:href="#DejaVuSans-30" transform="translate(63.623047 0)"/>
       <use xlink:href="#DejaVuSans-30" transform="translate(127.246094 0)"/>
       <use xlink:href="#DejaVuSans-30" transform="translate(190.869141 0)"/>
       <use xlink:href="#DejaVuSans-30" transform="translate(254.492188 0)"/>
       <use xlink:href="#DejaVuSans-30" transform="translate(318.115234 0)"/>
      </g>
     </g>
    </g>
    <g id="ytick_3">
     <g id="line2d_11">
      <g>
       <use xlink:href="#m4118dc7696" x="66.053125" y="91.38537" style="stroke: #000000; stroke-width: 0.8"/>
      </g>
     </g>
     <g id="text_12">
      <!-- 600000 -->
      <g transform="translate(20.878125 95.184589) scale(0.1 -0.1)">
       <defs>
        <path id="DejaVuSans-36" d="M 2113 2584 
Q 1688 2584 1439 2293 
Q 1191 2003 1191 1497 
Q 1191 994 1439 701 
Q 1688 409 2113 409 
Q 2538 409 2786 701 
Q 3034 994 3034 1497 
Q 3034 2003 2786 2293 
Q 2538 2584 2113 2584 
z
M 3366 4563 
L 3366 3988 
Q 3128 4100 2886 4159 
Q 2644 4219 2406 4219 
Q 1781 4219 1451 3797 
Q 1122 3375 1075 2522 
Q 1259 2794 1537 2939 
Q 1816 3084 2150 3084 
Q 2853 3084 3261 2657 
Q 3669 2231 3669 1497 
Q 3669 778 3244 343 
Q 2819 -91 2113 -91 
Q 1303 -91 875 529 
Q 447 1150 447 2328 
Q 447 3434 972 4092 
Q 1497 4750 2381 4750 
Q 2619 4750 2861 4703 
Q 3103 4656 3366 4563 
z
" transform="scale(0.015625)"/>
       </defs>
       <use xlink:href="#DejaVuSans-36"/>
       <use xlink:href="#DejaVuSans-30" transform="translate(63.623047 0)"/>
       <use xlink:href="#DejaVuSans-30" transform="translate(127.246094 0)"/>
       <use xlink:href="#DejaVuSans-30" transform="translate(190.869141 0)"/>
       <use xlink:href="#DejaVuSans-30" transform="translate(254.492188 0)"/>
       <use xlink:href="#DejaVuSans-30" transform="translate(318.115234 0)"/>
      </g>
     </g>
    </g>
    <g id="ytick_4">
     <g id="line2d_12">
      <g>
       <use xlink:href="#m4118dc7696" x="66.053125" y="45.004514" style="stroke: #000000; stroke-width: 0.8"/>
      </g>
     </g>
     <g id="text_13">
      <!-- 800000 -->
      <g transform="translate(20.878125 48.803733) scale(0.1 -0.1)">
       <defs>
        <path id="DejaVuSans-38" d="M 2034 2216 
Q 1584 2216 1326 1975 
Q 1069 1734 1069 1313 
Q 1069 891 1326 650 
Q 1584 409 2034 409 
Q 2484 409 2743 651 
Q 3003 894 3003 1313 
Q 3003 1734 2745 1975 
Q 2488 2216 2034 2216 
z
M 1403 2484 
Q 997 2584 770 2862 
Q 544 3141 544 3541 
Q 544 4100 942 4425 
Q 1341 4750 2034 4750 
Q 2731 4750 3128 4425 
Q 3525 4100 3525 3541 
Q 3525 3141 3298 2862 
Q 3072 2584 2669 2484 
Q 3125 2378 3379 2068 
Q 3634 1759 3634 1313 
Q 3634 634 3220 271 
Q 2806 -91 2034 -91 
Q 1263 -91 848 271 
Q 434 634 434 1313 
Q 434 1759 690 2068 
Q 947 2378 1403 2484 
z
M 1172 3481 
Q 1172 3119 1398 2916 
Q 1625 2713 2034 2713 
Q 2441 2713 2670 2916 
Q 2900 3119 2900 3481 
Q 2900 3844 2670 4047 
Q 2441 4250 2034 4250 
Q 1625 4250 1398 4047 
Q 1172 3844 1172 3481 
z
" transform="scale(0.015625)"/>
       </defs>
       <use xlink:href="#DejaVuSans-38"/>
       <use xlink:href="#DejaVuSans-30" transform="translate(63.623047 0)"/>
       <use xlink:href="#DejaVuSans-30" transform="translate(127.246094 0)"/>
       <use xlink:href="#DejaVuSans-30" transform="translate(190.869141 0)"/>
       <use xlink:href="#DejaVuSans-30" transform="translate(254.492188 0)"/>
       <use xlink:href="#DejaVuSans-30" transform="translate(318.115234 0)"/>
      </g>
     </g>
    </g>
    <g id="text_14">
     <!-- [counts] -->
     <g transform="translate(14.798438 138.6925) rotate(-90) scale(0.1 -0.1)">
      <defs>
       <path id="DejaVuSans-63" d="M 3122 3366 
L 3122 2828 
Q 2878 2963 2633 3030 
Q 2388 3097 2138 3097 
Q 1578 3097 1268 2742 
Q 959 2388 959 1747 
Q 959 1106 1268 751 
Q 1578 397 2138 397 
Q 2388 397 2633 464 
Q 2878 531 3122 666 
L 3122 134 
Q 2881 22 2623 -34 
Q 2366 -91 2075 -91 
Q 1284 -91 818 406 
Q 353 903 353 1747 
Q 353 2603 823 3093 
Q 1294 3584 2113 3584 
Q 2378 3584 2631 3529 
Q 2884 3475 3122 3366 
z
" transform="scale(0.015625)"/>
       <path id="DejaVuSans-75" d="M 544 1381 
L 544 3500 
L 1119 3500 
L 1119 1403 
Q 1119 906 1312 657 
Q 1506 409 1894 409 
Q 2359 409 2629 706 
Q 2900 1003 2900 1516 
L 2900 3500 
L 3475 3500 
L 3475 0 
L 2900 0 
L 2900 538 
Q 2691 219 2414 64 
Q 2138 -91 1772 -91 
Q 1169 -91 856 284 
Q 544 659 544 1381 
z
M 1991 3584 
L 1991 3584 
z
" transform="scale(0.015625)"/>
       <path id="DejaVuSans-6e" d="M 3513 2113 
L 3513 0 
L 2938 0 
L 2938 2094 
Q 2938 2591 2744 2837 
Q 2550 3084 2163 3084 
Q 1697 3084 1428 2787 
Q 1159 2491 1159 1978 
L 1159 0 
L 581 0 
L 581 3500 
L 1159 3500 
L 1159 2956 
Q 1366 3272 1645 3428 
Q 1925 3584 2291 3584 
Q 2894 3584 3203 3211 
Q 3513 2838 3513 2113 
z
" transform="scale(0.015625)"/>
      </defs>
      <use xlink:href="#DejaVuSans-5b"/>
      <use xlink:href="#DejaVuSans-63" transform="translate(39.013672 0)"/>
      <use xlink:href="#DejaVuSans-6f" transform="translate(93.994141 0)"/>
      <use xlink:href="#DejaVuSans-75" transform="translate(155.175781 0)"/>
      <use xlink:href="#DejaVuSans-6e" transform="translate(218.554688 0)"/>
      <use xlink:href="#DejaVuSans-74" transform="translate(281.933594 0)"/>
      <use xlink:href="#DejaVuSans-73" transform="translate(321.142578 0)"/>
      <use xlink:href="#DejaVuSans-5d" transform="translate(373.242188 0)"/>
     </g>
    </g>
   </g>
   <g id="line2d_13">
    <path d="M 81.271307 224.535995 
L 84.314323 224.535995 
L 84.314323 225.877329 
L 87.357339 225.877329 
L 87.357339 226.235389 
L 90.400355 226.235389 
L 90.400355 224.749579 
L 93.443371 224.749579 
L 93.443371 223.668673 
L 96.486387 223.668673 
L 96.486387 222.780015 
L 99.529404 222.780015 
L 99.529404 221.71256 
L 102.57242 221.71256 
L 102.57242 220.36195 
L 105.615436 220.36195 
L 105.615436 218.596694 
L 108.658452 218.596694 
L 108.658452 216.614144 
L 111.701468 216.614144 
L 111.701468 214.621159 
L 114.744484 214.621159 
L 114.744484 212.42317 
L 117.7875 212.42317 
L 117.7875 210.570023 
L 120.830516 210.570023 
L 120.830516 208.918169 
L 123.873533 208.918169 
L 123.873533 208.282288 
L 126.916549 208.282288 
L 126.916549 207.649189 
L 129.959565 207.649189 
L 129.959565 208.274635 
L 133.002581 208.274635 
L 133.002581 208.022787 
L 136.045597 208.022787 
L 136.045597 206.607243 
L 139.088613 206.607243 
L 139.088613 206.185641 
L 142.131629 206.185641 
L 142.131629 204.945881 
L 145.174645 204.945881 
L 145.174645 203.761777 
L 148.217661 203.761777 
L 148.217661 202.797751 
L 151.260678 202.797751 
L 151.260678 201.702236 
L 154.303694 201.702236 
L 154.303694 200.631765 
L 157.34671 200.631765 
L 157.34671 199.298084 
L 160.389726 199.298084 
L 160.389726 197.993158 
L 163.432742 197.993158 
L 163.432742 196.43824 
L 166.475758 196.43824 
L 166.475758 195.117777 
L 169.518774 195.117777 
L 169.518774 193.145663 
L 172.56179 193.145663 
L 172.56179 191.742411 
L 175.604807 191.742411 
L 175.604807 190.303676 
L 178.647823 190.303676 
L 178.647823 188.892771 
L 181.690839 188.892771 
L 181.690839 187.589005 
L 184.733855 187.589005 
L 184.733855 186.170678 
L 187.776871 186.170678 
L 187.776871 184.701797 
L 190.819887 184.701797 
L 190.819887 183.554334 
L 193.862903 183.554334 
L 193.862903 182.342171 
L 196.905919 182.342171 
L 196.905919 181.252684 
L 199.948936 181.252684 
L 199.948936 180.050492 
L 202.991952 180.050492 
L 202.991952 179.121484 
L 206.034968 179.121484 
L 206.034968 178.286165 
L 209.077984 178.286165 
L 209.077984 177.736783 
L 212.121 177.736783 
L 212.121 176.997473 
L 215.164016 176.997473 
L 215.164016 176.782497 
L 218.207032 176.782497 
L 218.207032 176.017909 
L 221.250048 176.017909 
L 221.250048 175.755393 
L 227.336081 175.676778 
L 227.336081 175.338429 
L 230.379097 175.338429 
L 230.379097 175.184213 
L 233.422113 175.184213 
L 233.422113 174.928423 
L 236.465129 174.928423 
L 236.465129 174.476209 
L 242.551161 174.514705 
L 242.551161 174.730144 
L 245.594177 174.730144 
L 245.594177 175.068725 
L 248.637193 175.068725 
L 248.637193 174.762147 
L 251.68021 174.762147 
L 251.68021 174.334052 
L 254.723226 174.334052 
L 254.723226 174.164298 
L 257.766242 174.164298 
L 257.766242 174.481775 
L 260.809258 174.481775 
L 260.809258 173.135339 
L 263.852274 173.135339 
L 263.852274 172.52172 
L 266.89529 172.52172 
L 266.89529 172.92477 
L 269.938306 172.92477 
L 269.938306 173.513111 
L 272.981322 173.513111 
L 272.981322 173.799513 
L 276.024339 173.799513 
L 276.024339 172.691706 
L 279.067355 172.691706 
L 279.067355 173.305788 
L 285.153387 173.328747 
L 285.153387 173.537693 
L 288.196403 173.537693 
L 288.196403 173.27309 
L 291.239419 173.27309 
L 291.239419 173.388114 
L 294.282435 173.388114 
L 294.282435 173.975992 
L 297.325451 173.975992 
L 297.325451 174.224825 
L 300.368467 174.224825 
L 300.368467 173.409218 
L 303.411484 173.409218 
L 303.411484 174.072696 
L 306.4545 174.072696 
L 306.4545 175.483138 
L 309.497516 175.483138 
L 309.497516 175.736377 
L 312.540532 175.736377 
L 312.540532 175.57961 
L 321.66958 175.63805 
L 321.66958 176.803137 
L 324.712596 176.803137 
L 324.712596 178.584162 
L 327.755613 178.584162 
L 327.755613 178.842735 
L 330.798629 178.842735 
L 330.798629 179.182475 
L 336.884661 179.081828 
L 336.884661 178.746263 
L 339.927677 178.746263 
L 339.927677 177.971007 
L 346.013709 177.922307 
L 346.013709 178.908596 
L 349.056725 178.908596 
L 349.056725 179.227 
L 352.099742 179.227 
L 352.099742 179.75551 
L 355.142758 179.75551 
L 355.142758 180.499459 
L 358.185774 180.499459 
L 358.185774 181.276802 
L 361.22879 181.276802 
L 361.22879 182.677504 
L 364.271806 182.677504 
L 364.271806 183.767454 
L 367.314822 183.767454 
L 367.314822 184.429541 
L 370.357838 184.429541 
L 370.357838 184.699709 
L 373.400854 184.699709 
L 373.400854 191.21135 
L 376.443871 191.21135 
L 376.443871 208.319392 
L 379.486887 208.319392 
L 379.486887 221.709313 
L 382.529903 221.709313 
L 382.529903 225.272291 
L 385.572919 225.272291 
L 385.572919 225.272291 
" clip-path="url(#pd0aef118e4)" style="fill: none; stroke: #1f77b4; stroke-width: 1.5; stroke-linecap: square"/>
   </g>
   <g id="LineCollection_1">
    <path d="M 82.792815 224.573271 
L 82.792815 224.498718 
" clip-path="url(#pd0aef118e4)" style="fill: none; stroke: #1f77b4; stroke-width: 1.5"/>
    <path d="M 85.835831 225.910169 
L 85.835831 225.844489 
" clip-path="url(#pd0aef118e4)" style="fill: none; stroke: #1f77b4; stroke-width: 1.5"/>
    <path d="M 88.878847 226.26694 
L 88.878847 226.203838 
" clip-path="url(#pd0aef118e4)" style="fill: none; stroke: #1f77b4; stroke-width: 1.5"/>
    <path d="M 91.921863 224.786185 
L 91.921863 224.712972 
" clip-path="url(#pd0aef118e4)" style="fill: none; stroke: #1f77b4; stroke-width: 1.5"/>
    <path d="M 94.964879 223.708556 
L 94.964879 223.628789 
" clip-path="url(#pd0aef118e4)" style="fill: none; stroke: #1f77b4; stroke-width: 1.5"/>
    <path d="M 98.007895 222.822404 
L 98.007895 222.737627 
" clip-path="url(#pd0aef118e4)" style="fill: none; stroke: #1f77b4; stroke-width: 1.5"/>
    <path d="M 101.050912 221.757774 
L 101.050912 221.667346 
" clip-path="url(#pd0aef118e4)" style="fill: none; stroke: #1f77b4; stroke-width: 1.5"/>
    <path d="M 104.093928 220.410504 
L 104.093928 220.313395 
" clip-path="url(#pd0aef118e4)" style="fill: none; stroke: #1f77b4; stroke-width: 1.5"/>
    <path d="M 107.136944 218.649296 
L 107.136944 218.544093 
" clip-path="url(#pd0aef118e4)" style="fill: none; stroke: #1f77b4; stroke-width: 1.5"/>
    <path d="M 110.17996 216.670948 
L 110.17996 216.557341 
" clip-path="url(#pd0aef118e4)" style="fill: none; stroke: #1f77b4; stroke-width: 1.5"/>
    <path d="M 113.222976 214.681895 
L 113.222976 214.560423 
" clip-path="url(#pd0aef118e4)" style="fill: none; stroke: #1f77b4; stroke-width: 1.5"/>
    <path d="M 116.265992 212.487967 
L 116.265992 212.358374 
" clip-path="url(#pd0aef118e4)" style="fill: none; stroke: #1f77b4; stroke-width: 1.5"/>
    <path d="M 119.309008 210.638055 
L 119.309008 210.501991 
" clip-path="url(#pd0aef118e4)" style="fill: none; stroke: #1f77b4; stroke-width: 1.5"/>
    <path d="M 122.352024 208.98896 
L 122.352024 208.847378 
" clip-path="url(#pd0aef118e4)" style="fill: none; stroke: #1f77b4; stroke-width: 1.5"/>
    <path d="M 125.395041 208.354113 
L 125.395041 208.210462 
" clip-path="url(#pd0aef118e4)" style="fill: none; stroke: #1f77b4; stroke-width: 1.5"/>
    <path d="M 128.438057 207.722029 
L 128.438057 207.576349 
" clip-path="url(#pd0aef118e4)" style="fill: none; stroke: #1f77b4; stroke-width: 1.5"/>
    <path d="M 131.481073 208.346472 
L 131.481073 208.202797 
" clip-path="url(#pd0aef118e4)" style="fill: none; stroke: #1f77b4; stroke-width: 1.5"/>
    <path d="M 134.524089 208.09503 
L 134.524089 207.950544 
" clip-path="url(#pd0aef118e4)" style="fill: none; stroke: #1f77b4; stroke-width: 1.5"/>
    <path d="M 137.567105 206.681723 
L 137.567105 206.532763 
" clip-path="url(#pd0aef118e4)" style="fill: none; stroke: #1f77b4; stroke-width: 1.5"/>
    <path d="M 140.610121 206.260775 
L 140.610121 206.110507 
" clip-path="url(#pd0aef118e4)" style="fill: none; stroke: #1f77b4; stroke-width: 1.5"/>
    <path d="M 143.653137 205.022904 
L 143.653137 204.868857 
" clip-path="url(#pd0aef118e4)" style="fill: none; stroke: #1f77b4; stroke-width: 1.5"/>
    <path d="M 146.696153 203.840563 
L 146.696153 203.682992 
" clip-path="url(#pd0aef118e4)" style="fill: none; stroke: #1f77b4; stroke-width: 1.5"/>
    <path d="M 149.73917 202.877943 
L 149.73917 202.717559 
" clip-path="url(#pd0aef118e4)" style="fill: none; stroke: #1f77b4; stroke-width: 1.5"/>
    <path d="M 152.782186 201.783996 
L 152.782186 201.620475 
" clip-path="url(#pd0aef118e4)" style="fill: none; stroke: #1f77b4; stroke-width: 1.5"/>
    <path d="M 155.825202 200.71503 
L 155.825202 200.5485 
" clip-path="url(#pd0aef118e4)" style="fill: none; stroke: #1f77b4; stroke-width: 1.5"/>
    <path d="M 158.868218 199.383186 
L 158.868218 199.212982 
" clip-path="url(#pd0aef118e4)" style="fill: none; stroke: #1f77b4; stroke-width: 1.5"/>
    <path d="M 161.911234 198.08002 
L 161.911234 197.906297 
" clip-path="url(#pd0aef118e4)" style="fill: none; stroke: #1f77b4; stroke-width: 1.5"/>
    <path d="M 164.95425 196.527153 
L 164.95425 196.349327 
" clip-path="url(#pd0aef118e4)" style="fill: none; stroke: #1f77b4; stroke-width: 1.5"/>
    <path d="M 167.997266 195.208396 
L 167.997266 195.027158 
" clip-path="url(#pd0aef118e4)" style="fill: none; stroke: #1f77b4; stroke-width: 1.5"/>
    <path d="M 171.040282 193.238771 
L 171.040282 193.052555 
" clip-path="url(#pd0aef118e4)" style="fill: none; stroke: #1f77b4; stroke-width: 1.5"/>
    <path d="M 174.083298 191.83725 
L 174.083298 191.647571 
" clip-path="url(#pd0aef118e4)" style="fill: none; stroke: #1f77b4; stroke-width: 1.5"/>
    <path d="M 177.126315 190.400259 
L 177.126315 190.207094 
" clip-path="url(#pd0aef118e4)" style="fill: none; stroke: #1f77b4; stroke-width: 1.5"/>
    <path d="M 180.169331 188.991032 
L 180.169331 188.794509 
" clip-path="url(#pd0aef118e4)" style="fill: none; stroke: #1f77b4; stroke-width: 1.5"/>
    <path d="M 183.212347 187.688793 
L 183.212347 187.489216 
" clip-path="url(#pd0aef118e4)" style="fill: none; stroke: #1f77b4; stroke-width: 1.5"/>
    <path d="M 186.255363 186.272101 
L 186.255363 186.069255 
" clip-path="url(#pd0aef118e4)" style="fill: none; stroke: #1f77b4; stroke-width: 1.5"/>
    <path d="M 189.298379 184.804885 
L 189.298379 184.598708 
" clip-path="url(#pd0aef118e4)" style="fill: none; stroke: #1f77b4; stroke-width: 1.5"/>
    <path d="M 192.341395 183.658706 
L 192.341395 183.449963 
" clip-path="url(#pd0aef118e4)" style="fill: none; stroke: #1f77b4; stroke-width: 1.5"/>
    <path d="M 195.384411 182.44788 
L 195.384411 182.236461 
" clip-path="url(#pd0aef118e4)" style="fill: none; stroke: #1f77b4; stroke-width: 1.5"/>
    <path d="M 198.427427 181.359582 
L 198.427427 181.145786 
" clip-path="url(#pd0aef118e4)" style="fill: none; stroke: #1f77b4; stroke-width: 1.5"/>
    <path d="M 201.470444 180.158686 
L 201.470444 179.942298 
" clip-path="url(#pd0aef118e4)" style="fill: none; stroke: #1f77b4; stroke-width: 1.5"/>
    <path d="M 204.51346 179.230669 
L 204.51346 179.012299 
" clip-path="url(#pd0aef118e4)" style="fill: none; stroke: #1f77b4; stroke-width: 1.5"/>
    <path d="M 207.556476 178.396233 
L 207.556476 178.176096 
" clip-path="url(#pd0aef118e4)" style="fill: none; stroke: #1f77b4; stroke-width: 1.5"/>
    <path d="M 210.599492 177.847429 
L 210.599492 177.626138 
" clip-path="url(#pd0aef118e4)" style="fill: none; stroke: #1f77b4; stroke-width: 1.5"/>
    <path d="M 213.642508 177.10889 
L 213.642508 176.886055 
" clip-path="url(#pd0aef118e4)" style="fill: none; stroke: #1f77b4; stroke-width: 1.5"/>
    <path d="M 216.685524 176.894139 
L 216.685524 176.670856 
" clip-path="url(#pd0aef118e4)" style="fill: none; stroke: #1f77b4; stroke-width: 1.5"/>
    <path d="M 219.72854 176.130342 
L 219.72854 175.905476 
" clip-path="url(#pd0aef118e4)" style="fill: none; stroke: #1f77b4; stroke-width: 1.5"/>
    <path d="M 222.771556 175.868096 
L 222.771556 175.64269 
" clip-path="url(#pd0aef118e4)" style="fill: none; stroke: #1f77b4; stroke-width: 1.5"/>
    <path d="M 225.814573 175.789562 
L 225.814573 175.563994 
" clip-path="url(#pd0aef118e4)" style="fill: none; stroke: #1f77b4; stroke-width: 1.5"/>
    <path d="M 228.857589 175.451561 
L 228.857589 175.225298 
" clip-path="url(#pd0aef118e4)" style="fill: none; stroke: #1f77b4; stroke-width: 1.5"/>
    <path d="M 231.900605 175.297502 
L 231.900605 175.070924 
" clip-path="url(#pd0aef118e4)" style="fill: none; stroke: #1f77b4; stroke-width: 1.5"/>
    <path d="M 234.943621 175.041973 
L 234.943621 174.814872 
" clip-path="url(#pd0aef118e4)" style="fill: none; stroke: #1f77b4; stroke-width: 1.5"/>
    <path d="M 237.986637 174.590221 
L 237.986637 174.362198 
" clip-path="url(#pd0aef118e4)" style="fill: none; stroke: #1f77b4; stroke-width: 1.5"/>
    <path d="M 241.029653 174.628678 
L 241.029653 174.400733 
" clip-path="url(#pd0aef118e4)" style="fill: none; stroke: #1f77b4; stroke-width: 1.5"/>
    <path d="M 244.072669 174.843897 
L 244.072669 174.616391 
" clip-path="url(#pd0aef118e4)" style="fill: none; stroke: #1f77b4; stroke-width: 1.5"/>
    <path d="M 247.115685 175.182132 
L 247.115685 174.955317 
" clip-path="url(#pd0aef118e4)" style="fill: none; stroke: #1f77b4; stroke-width: 1.5"/>
    <path d="M 250.158702 174.875868 
L 250.158702 174.648427 
" clip-path="url(#pd0aef118e4)" style="fill: none; stroke: #1f77b4; stroke-width: 1.5"/>
    <path d="M 253.201718 174.448208 
L 253.201718 174.219896 
" clip-path="url(#pd0aef118e4)" style="fill: none; stroke: #1f77b4; stroke-width: 1.5"/>
    <path d="M 256.244734 174.278626 
L 256.244734 174.04997 
" clip-path="url(#pd0aef118e4)" style="fill: none; stroke: #1f77b4; stroke-width: 1.5"/>
    <path d="M 259.28775 174.595781 
L 259.28775 174.367769 
" clip-path="url(#pd0aef118e4)" style="fill: none; stroke: #1f77b4; stroke-width: 1.5"/>
    <path d="M 262.330766 173.250706 
L 262.330766 173.019972 
" clip-path="url(#pd0aef118e4)" style="fill: none; stroke: #1f77b4; stroke-width: 1.5"/>
    <path d="M 265.373782 172.637702 
L 265.373782 172.405738 
" clip-path="url(#pd0aef118e4)" style="fill: none; stroke: #1f77b4; stroke-width: 1.5"/>
    <path d="M 268.416798 173.040348 
L 268.416798 172.809191 
" clip-path="url(#pd0aef118e4)" style="fill: none; stroke: #1f77b4; stroke-width: 1.5"/>
    <path d="M 271.459814 173.628098 
L 271.459814 173.398124 
" clip-path="url(#pd0aef118e4)" style="fill: none; stroke: #1f77b4; stroke-width: 1.5"/>
    <path d="M 274.50283 173.91421 
L 274.50283 173.684815 
" clip-path="url(#pd0aef118e4)" style="fill: none; stroke: #1f77b4; stroke-width: 1.5"/>
    <path d="M 277.545847 172.807518 
L 277.545847 172.575894 
" clip-path="url(#pd0aef118e4)" style="fill: none; stroke: #1f77b4; stroke-width: 1.5"/>
    <path d="M 280.588863 173.420984 
L 280.588863 173.190593 
" clip-path="url(#pd0aef118e4)" style="fill: none; stroke: #1f77b4; stroke-width: 1.5"/>
    <path d="M 283.631879 173.44392 
L 283.631879 173.213574 
" clip-path="url(#pd0aef118e4)" style="fill: none; stroke: #1f77b4; stroke-width: 1.5"/>
    <path d="M 286.674895 173.652655 
L 286.674895 173.422731 
" clip-path="url(#pd0aef118e4)" style="fill: none; stroke: #1f77b4; stroke-width: 1.5"/>
    <path d="M 289.717911 173.388319 
L 289.717911 173.157861 
" clip-path="url(#pd0aef118e4)" style="fill: none; stroke: #1f77b4; stroke-width: 1.5"/>
    <path d="M 292.760927 173.503227 
L 292.760927 173.273002 
" clip-path="url(#pd0aef118e4)" style="fill: none; stroke: #1f77b4; stroke-width: 1.5"/>
    <path d="M 295.803943 174.090511 
L 295.803943 173.861473 
" clip-path="url(#pd0aef118e4)" style="fill: none; stroke: #1f77b4; stroke-width: 1.5"/>
    <path d="M 298.846959 174.339092 
L 298.846959 174.110558 
" clip-path="url(#pd0aef118e4)" style="fill: none; stroke: #1f77b4; stroke-width: 1.5"/>
    <path d="M 301.889976 173.524309 
L 301.889976 173.294126 
" clip-path="url(#pd0aef118e4)" style="fill: none; stroke: #1f77b4; stroke-width: 1.5"/>
    <path d="M 304.932992 174.187117 
L 304.932992 173.958275 
" clip-path="url(#pd0aef118e4)" style="fill: none; stroke: #1f77b4; stroke-width: 1.5"/>
    <path d="M 307.976008 175.596121 
L 307.976008 175.370155 
" clip-path="url(#pd0aef118e4)" style="fill: none; stroke: #1f77b4; stroke-width: 1.5"/>
    <path d="M 311.019024 175.8491 
L 311.019024 175.623654 
" clip-path="url(#pd0aef118e4)" style="fill: none; stroke: #1f77b4; stroke-width: 1.5"/>
    <path d="M 314.06204 175.692494 
L 314.06204 175.466726 
" clip-path="url(#pd0aef118e4)" style="fill: none; stroke: #1f77b4; stroke-width: 1.5"/>
    <path d="M 317.105056 175.659365 
L 317.105056 175.43353 
" clip-path="url(#pd0aef118e4)" style="fill: none; stroke: #1f77b4; stroke-width: 1.5"/>
    <path d="M 320.148072 175.750873 
L 320.148072 175.525226 
" clip-path="url(#pd0aef118e4)" style="fill: none; stroke: #1f77b4; stroke-width: 1.5"/>
    <path d="M 323.191088 176.914757 
L 323.191088 176.691517 
" clip-path="url(#pd0aef118e4)" style="fill: none; stroke: #1f77b4; stroke-width: 1.5"/>
    <path d="M 326.234105 178.693916 
L 326.234105 178.474407 
" clip-path="url(#pd0aef118e4)" style="fill: none; stroke: #1f77b4; stroke-width: 1.5"/>
    <path d="M 329.277121 178.952216 
L 329.277121 178.733254 
" clip-path="url(#pd0aef118e4)" style="fill: none; stroke: #1f77b4; stroke-width: 1.5"/>
    <path d="M 332.320137 179.291595 
L 332.320137 179.073354 
" clip-path="url(#pd0aef118e4)" style="fill: none; stroke: #1f77b4; stroke-width: 1.5"/>
    <path d="M 335.363153 179.191055 
L 335.363153 178.972601 
" clip-path="url(#pd0aef118e4)" style="fill: none; stroke: #1f77b4; stroke-width: 1.5"/>
    <path d="M 338.406169 178.855846 
L 338.406169 178.63668 
" clip-path="url(#pd0aef118e4)" style="fill: none; stroke: #1f77b4; stroke-width: 1.5"/>
    <path d="M 341.449185 178.081407 
L 341.449185 177.860607 
" clip-path="url(#pd0aef118e4)" style="fill: none; stroke: #1f77b4; stroke-width: 1.5"/>
    <path d="M 344.492201 178.032758 
L 344.492201 177.811856 
" clip-path="url(#pd0aef118e4)" style="fill: none; stroke: #1f77b4; stroke-width: 1.5"/>
    <path d="M 347.535217 179.018007 
L 347.535217 178.799185 
" clip-path="url(#pd0aef118e4)" style="fill: none; stroke: #1f77b4; stroke-width: 1.5"/>
    <path d="M 350.578233 179.336073 
L 350.578233 179.117927 
" clip-path="url(#pd0aef118e4)" style="fill: none; stroke: #1f77b4; stroke-width: 1.5"/>
    <path d="M 353.62125 179.86402 
L 353.62125 179.647001 
" clip-path="url(#pd0aef118e4)" style="fill: none; stroke: #1f77b4; stroke-width: 1.5"/>
    <path d="M 356.664266 180.607171 
L 356.664266 180.391747 
" clip-path="url(#pd0aef118e4)" style="fill: none; stroke: #1f77b4; stroke-width: 1.5"/>
    <path d="M 359.707282 181.383674 
L 359.707282 181.169931 
" clip-path="url(#pd0aef118e4)" style="fill: none; stroke: #1f77b4; stroke-width: 1.5"/>
    <path d="M 362.750298 182.782845 
L 362.750298 182.572163 
" clip-path="url(#pd0aef118e4)" style="fill: none; stroke: #1f77b4; stroke-width: 1.5"/>
    <path d="M 365.793314 183.871589 
L 365.793314 183.66332 
" clip-path="url(#pd0aef118e4)" style="fill: none; stroke: #1f77b4; stroke-width: 1.5"/>
    <path d="M 368.83633 184.532935 
L 368.83633 184.326146 
" clip-path="url(#pd0aef118e4)" style="fill: none; stroke: #1f77b4; stroke-width: 1.5"/>
    <path d="M 371.879346 184.8028 
L 371.879346 184.596618 
" clip-path="url(#pd0aef118e4)" style="fill: none; stroke: #1f77b4; stroke-width: 1.5"/>
    <path d="M 374.922362 191.306836 
L 374.922362 191.115863 
" clip-path="url(#pd0aef118e4)" style="fill: none; stroke: #1f77b4; stroke-width: 1.5"/>
    <path d="M 377.965379 208.391158 
L 377.965379 208.247627 
" clip-path="url(#pd0aef118e4)" style="fill: none; stroke: #1f77b4; stroke-width: 1.5"/>
    <path d="M 381.008395 221.754536 
L 381.008395 221.664091 
" clip-path="url(#pd0aef118e4)" style="fill: none; stroke: #1f77b4; stroke-width: 1.5"/>
    <path d="M 384.051411 225.307202 
L 384.051411 225.237379 
" clip-path="url(#pd0aef118e4)" style="fill: none; stroke: #1f77b4; stroke-width: 1.5"/>
   </g>
   <g id="line2d_14">
    <path d="M 81.271307 213.708384 
L 84.314943 213.708384 
L 84.314943 216.966407 
L 87.35858 216.966407 
L 87.35858 217.622232 
L 90.402216 217.622232 
L 90.402216 211.343424 
L 93.445852 211.343424 
L 93.445852 207.036266 
L 96.489489 207.036266 
L 96.489489 203.621243 
L 99.533125 203.621243 
L 99.533125 199.229672 
L 102.576761 199.229672 
L 102.576761 193.517638 
L 105.620398 193.517638 
L 105.620398 186.531058 
L 108.664034 186.531058 
L 108.664034 179.736494 
L 111.70767 179.736494 
L 111.70767 172.748059 
L 114.751307 172.748059 
L 114.751307 164.947494 
L 117.794943 164.947494 
L 117.794943 158.536732 
L 120.83858 158.536732 
L 120.83858 154.087881 
L 123.882216 154.087881 
L 123.882216 151.840033 
L 126.925852 151.840033 
L 126.925852 150.75588 
L 129.969489 150.75588 
L 129.969489 153.458956 
L 133.013125 153.458956 
L 133.013125 151.970827 
L 136.056761 151.970827 
L 136.056761 147.54818 
L 139.100398 147.54818 
L 139.100398 145.75069 
L 142.144034 145.75069 
L 142.144034 141.015205 
L 145.18767 141.015205 
L 145.18767 136.885685 
L 148.231307 136.885685 
L 148.231307 133.231106 
L 151.274943 133.231106 
L 151.274943 129.317489 
L 154.31858 129.317489 
L 154.31858 124.989459 
L 157.362216 124.989459 
L 157.362216 119.781121 
L 160.405852 119.781121 
L 160.405852 114.511096 
L 163.449489 114.511096 
L 163.449489 109.165935 
L 166.493125 109.165935 
L 166.493125 102.720619 
L 169.536761 102.720619 
L 169.536761 95.884545 
L 172.580398 95.884545 
L 172.580398 89.821175 
L 175.624034 89.821175 
L 175.624034 83.977419 
L 178.66767 83.977419 
L 178.66767 78.709482 
L 181.711307 78.709482 
L 181.711307 72.641011 
L 184.754943 72.641011 
L 184.754943 66.913903 
L 187.79858 66.913903 
L 187.79858 61.556914 
L 190.842216 61.556914 
L 190.842216 56.309616 
L 193.885852 56.309616 
L 193.885852 50.670167 
L 196.929489 50.670167 
L 196.929489 46.228505 
L 199.973125 46.228505 
L 199.973125 41.586477 
L 203.016761 41.586477 
L 203.016761 37.283725 
L 206.060398 37.283725 
L 206.060398 33.484205 
L 209.104034 33.484205 
L 209.104034 30.574734 
L 212.14767 30.574734 
L 212.14767 27.787013 
L 215.191307 27.787013 
L 215.191307 25.430401 
L 218.234943 25.430401 
L 218.234943 23.646362 
L 221.27858 23.646362 
L 221.27858 21.747529 
L 224.322216 21.747529 
L 224.322216 20.590791 
L 227.365852 20.590791 
L 227.365852 19.722309 
L 230.409489 19.722309 
L 230.409489 18.421094 
L 233.453125 18.421094 
L 233.453125 17.946386 
L 239.540398 17.965171 
L 239.540398 17.567455 
L 242.584034 17.567455 
L 242.584034 17.445009 
L 245.62767 17.445009 
L 245.62767 17.644447 
L 248.671307 17.644447 
L 248.671307 17.887483 
L 254.75858 17.886787 
L 254.75858 18.019668 
L 257.802216 18.019668 
L 257.802216 17.588326 
L 263.889489 17.667637 
L 263.889489 18.198234 
L 269.976761 18.121474 
L 269.976761 18.646042 
L 273.020398 18.646042 
L 273.020398 18.957489 
L 276.064034 18.957489 
L 276.064034 19.218613 
L 279.10767 19.218613 
L 279.10767 19.922443 
L 282.151307 19.922443 
L 282.151307 20.54812 
L 285.194943 20.54812 
L 285.194943 20.179625 
L 288.23858 20.179625 
L 288.23858 21.609083 
L 291.282216 21.609083 
L 291.282216 21.831943 
L 294.325852 21.831943 
L 294.325852 22.396398 
L 297.369489 22.396398 
L 297.369489 23.487971 
L 300.413125 23.487971 
L 300.413125 24.720078 
L 303.456761 24.720078 
L 303.456761 25.943605 
L 306.500398 25.943605 
L 306.500398 26.977667 
L 309.544034 26.977667 
L 309.544034 28.46139 
L 312.58767 28.46139 
L 312.58767 29.358164 
L 315.631307 29.358164 
L 315.631307 30.250764 
L 318.674943 30.250764 
L 318.674943 31.603693 
L 321.71858 31.603693 
L 321.71858 32.698049 
L 324.762216 32.698049 
L 324.762216 34.346889 
L 327.805852 34.346889 
L 327.805852 35.364485 
L 330.849489 35.364485 
L 330.849489 37.051125 
L 333.893125 37.051125 
L 333.893125 38.50099 
L 336.936761 38.50099 
L 336.936761 40.081418 
L 339.980398 40.081418 
L 339.980398 41.573026 
L 343.024034 41.573026 
L 343.024034 43.601029 
L 346.06767 43.601029 
L 346.06767 46.574738 
L 349.111307 46.574738 
L 349.111307 48.761595 
L 352.154943 48.761595 
L 352.154943 50.036605 
L 355.19858 50.036605 
L 355.19858 51.940771 
L 358.242216 51.940771 
L 358.242216 53.641557 
L 361.285852 53.641557 
L 361.285852 55.645674 
L 364.329489 55.645674 
L 364.329489 57.628455 
L 367.373125 57.628455 
L 367.373125 59.151139 
L 370.416761 59.151139 
L 370.416761 63.42699 
L 373.460398 63.42699 
L 373.460398 95.741924 
L 376.504034 95.741924 
L 376.504034 161.57978 
L 379.54767 161.57978 
L 379.54767 206.789056 
L 382.591307 206.789056 
L 382.591307 217.193905 
L 385.634943 217.193905 
L 385.634943 217.193905 
" clip-path="url(#pd0aef118e4)" style="fill: none; stroke: #ff7f0e; stroke-width: 1.5; stroke-linecap: square"/>
   </g>
   <g id="LineCollection_2">
    <path d="M 82.793125 213.770838 
L 82.793125 213.64593 
" clip-path="url(#pd0aef118e4)" style="fill: none; stroke: #ff7f0e; stroke-width: 1.5"/>
    <path d="M 85.836761 217.022487 
L 85.836761 216.910327 
" clip-path="url(#pd0aef118e4)" style="fill: none; stroke: #ff7f0e; stroke-width: 1.5"/>
    <path d="M 88.880398 217.67694 
L 88.880398 217.567525 
" clip-path="url(#pd0aef118e4)" style="fill: none; stroke: #ff7f0e; stroke-width: 1.5"/>
    <path d="M 91.924034 211.410125 
L 91.924034 211.276723 
" clip-path="url(#pd0aef118e4)" style="fill: none; stroke: #ff7f0e; stroke-width: 1.5"/>
    <path d="M 94.96767 207.110075 
L 94.96767 206.962456 
" clip-path="url(#pd0aef118e4)" style="fill: none; stroke: #ff7f0e; stroke-width: 1.5"/>
    <path d="M 98.011307 203.700236 
L 98.011307 203.542251 
" clip-path="url(#pd0aef118e4)" style="fill: none; stroke: #ff7f0e; stroke-width: 1.5"/>
    <path d="M 101.054943 199.314867 
L 101.054943 199.144477 
" clip-path="url(#pd0aef118e4)" style="fill: none; stroke: #ff7f0e; stroke-width: 1.5"/>
    <path d="M 104.09858 193.610281 
L 104.09858 193.424994 
" clip-path="url(#pd0aef118e4)" style="fill: none; stroke: #ff7f0e; stroke-width: 1.5"/>
    <path d="M 107.142216 186.632068 
L 107.142216 186.430047 
" clip-path="url(#pd0aef118e4)" style="fill: none; stroke: #ff7f0e; stroke-width: 1.5"/>
    <path d="M 110.185852 179.845024 
L 110.185852 179.627964 
" clip-path="url(#pd0aef118e4)" style="fill: none; stroke: #ff7f0e; stroke-width: 1.5"/>
    <path d="M 113.229489 172.863814 
L 113.229489 172.632303 
" clip-path="url(#pd0aef118e4)" style="fill: none; stroke: #ff7f0e; stroke-width: 1.5"/>
    <path d="M 116.273125 165.070817 
L 116.273125 164.824172 
" clip-path="url(#pd0aef118e4)" style="fill: none; stroke: #ff7f0e; stroke-width: 1.5"/>
    <path d="M 119.316761 158.665942 
L 119.316761 158.407523 
" clip-path="url(#pd0aef118e4)" style="fill: none; stroke: #ff7f0e; stroke-width: 1.5"/>
    <path d="M 122.360398 154.221023 
L 122.360398 153.954739 
" clip-path="url(#pd0aef118e4)" style="fill: none; stroke: #ff7f0e; stroke-width: 1.5"/>
    <path d="M 125.404034 151.975118 
L 125.404034 151.704947 
" clip-path="url(#pd0aef118e4)" style="fill: none; stroke: #ff7f0e; stroke-width: 1.5"/>
    <path d="M 128.44767 150.891893 
L 128.44767 150.619867 
" clip-path="url(#pd0aef118e4)" style="fill: none; stroke: #ff7f0e; stroke-width: 1.5"/>
    <path d="M 131.491307 153.592645 
L 131.491307 153.325268 
" clip-path="url(#pd0aef118e4)" style="fill: none; stroke: #ff7f0e; stroke-width: 1.5"/>
    <path d="M 134.534943 152.1058 
L 134.534943 151.835854 
" clip-path="url(#pd0aef118e4)" style="fill: none; stroke: #ff7f0e; stroke-width: 1.5"/>
    <path d="M 137.57858 147.686901 
L 137.57858 147.40946 
" clip-path="url(#pd0aef118e4)" style="fill: none; stroke: #ff7f0e; stroke-width: 1.5"/>
    <path d="M 140.622216 145.890905 
L 140.622216 145.610475 
" clip-path="url(#pd0aef118e4)" style="fill: none; stroke: #ff7f0e; stroke-width: 1.5"/>
    <path d="M 143.665852 141.159282 
L 143.665852 140.871127 
" clip-path="url(#pd0aef118e4)" style="fill: none; stroke: #ff7f0e; stroke-width: 1.5"/>
    <path d="M 146.709489 137.033049 
L 146.709489 136.738321 
" clip-path="url(#pd0aef118e4)" style="fill: none; stroke: #ff7f0e; stroke-width: 1.5"/>
    <path d="M 149.753125 133.381317 
L 149.753125 133.080894 
" clip-path="url(#pd0aef118e4)" style="fill: none; stroke: #ff7f0e; stroke-width: 1.5"/>
    <path d="M 152.796761 129.470692 
L 152.796761 129.164286 
" clip-path="url(#pd0aef118e4)" style="fill: none; stroke: #ff7f0e; stroke-width: 1.5"/>
    <path d="M 155.840398 125.145904 
L 155.840398 124.833015 
" clip-path="url(#pd0aef118e4)" style="fill: none; stroke: #ff7f0e; stroke-width: 1.5"/>
    <path d="M 158.884034 119.941379 
L 158.884034 119.620863 
" clip-path="url(#pd0aef118e4)" style="fill: none; stroke: #ff7f0e; stroke-width: 1.5"/>
    <path d="M 161.92767 114.675123 
L 161.92767 114.34707 
" clip-path="url(#pd0aef118e4)" style="fill: none; stroke: #ff7f0e; stroke-width: 1.5"/>
    <path d="M 164.971307 109.333698 
L 164.971307 108.998172 
" clip-path="url(#pd0aef118e4)" style="fill: none; stroke: #ff7f0e; stroke-width: 1.5"/>
    <path d="M 168.014943 102.892779 
L 168.014943 102.548459 
" clip-path="url(#pd0aef118e4)" style="fill: none; stroke: #ff7f0e; stroke-width: 1.5"/>
    <path d="M 171.05858 96.061249 
L 171.05858 95.70784 
" clip-path="url(#pd0aef118e4)" style="fill: none; stroke: #ff7f0e; stroke-width: 1.5"/>
    <path d="M 174.102216 90.001815 
L 174.102216 89.640536 
" clip-path="url(#pd0aef118e4)" style="fill: none; stroke: #ff7f0e; stroke-width: 1.5"/>
    <path d="M 177.145852 84.161772 
L 177.145852 83.793067 
" clip-path="url(#pd0aef118e4)" style="fill: none; stroke: #ff7f0e; stroke-width: 1.5"/>
    <path d="M 180.189489 78.897118 
L 180.189489 78.521846 
" clip-path="url(#pd0aef118e4)" style="fill: none; stroke: #ff7f0e; stroke-width: 1.5"/>
    <path d="M 183.233125 72.83236 
L 183.233125 72.449661 
" clip-path="url(#pd0aef118e4)" style="fill: none; stroke: #ff7f0e; stroke-width: 1.5"/>
    <path d="M 186.276761 67.108692 
L 186.276761 66.719113 
" clip-path="url(#pd0aef118e4)" style="fill: none; stroke: #ff7f0e; stroke-width: 1.5"/>
    <path d="M 189.320398 61.754866 
L 189.320398 61.358961 
" clip-path="url(#pd0aef118e4)" style="fill: none; stroke: #ff7f0e; stroke-width: 1.5"/>
    <path d="M 192.364034 56.510618 
L 192.364034 56.108613 
" clip-path="url(#pd0aef118e4)" style="fill: none; stroke: #ff7f0e; stroke-width: 1.5"/>
    <path d="M 195.40767 50.874397 
L 195.40767 50.465938 
" clip-path="url(#pd0aef118e4)" style="fill: none; stroke: #ff7f0e; stroke-width: 1.5"/>
    <path d="M 198.451307 46.435241 
L 198.451307 46.021769 
" clip-path="url(#pd0aef118e4)" style="fill: none; stroke: #ff7f0e; stroke-width: 1.5"/>
    <path d="M 201.494943 41.7958 
L 201.494943 41.377153 
" clip-path="url(#pd0aef118e4)" style="fill: none; stroke: #ff7f0e; stroke-width: 1.5"/>
    <path d="M 204.53858 37.495418 
L 204.53858 37.072031 
" clip-path="url(#pd0aef118e4)" style="fill: none; stroke: #ff7f0e; stroke-width: 1.5"/>
    <path d="M 207.582216 33.69797 
L 207.582216 33.27044 
" clip-path="url(#pd0aef118e4)" style="fill: none; stroke: #ff7f0e; stroke-width: 1.5"/>
    <path d="M 210.625852 30.790071 
L 210.625852 30.359397 
" clip-path="url(#pd0aef118e4)" style="fill: none; stroke: #ff7f0e; stroke-width: 1.5"/>
    <path d="M 213.669489 28.003845 
L 213.669489 27.57018 
" clip-path="url(#pd0aef118e4)" style="fill: none; stroke: #ff7f0e; stroke-width: 1.5"/>
    <path d="M 216.713125 25.648491 
L 216.713125 25.212312 
" clip-path="url(#pd0aef118e4)" style="fill: none; stroke: #ff7f0e; stroke-width: 1.5"/>
    <path d="M 219.756761 23.865398 
L 219.756761 23.427326 
" clip-path="url(#pd0aef118e4)" style="fill: none; stroke: #ff7f0e; stroke-width: 1.5"/>
    <path d="M 222.800398 21.967568 
L 222.800398 21.527491 
" clip-path="url(#pd0aef118e4)" style="fill: none; stroke: #ff7f0e; stroke-width: 1.5"/>
    <path d="M 225.844034 20.811438 
L 225.844034 20.370143 
" clip-path="url(#pd0aef118e4)" style="fill: none; stroke: #ff7f0e; stroke-width: 1.5"/>
    <path d="M 228.88767 19.943413 
L 228.88767 19.501206 
" clip-path="url(#pd0aef118e4)" style="fill: none; stroke: #ff7f0e; stroke-width: 1.5"/>
    <path d="M 231.931307 18.642879 
L 231.931307 18.19931 
" clip-path="url(#pd0aef118e4)" style="fill: none; stroke: #ff7f0e; stroke-width: 1.5"/>
    <path d="M 234.974943 18.168419 
L 234.974943 17.724354 
" clip-path="url(#pd0aef118e4)" style="fill: none; stroke: #ff7f0e; stroke-width: 1.5"/>
    <path d="M 238.01858 18.187194 
L 238.01858 17.743148 
" clip-path="url(#pd0aef118e4)" style="fill: none; stroke: #ff7f0e; stroke-width: 1.5"/>
    <path d="M 241.062216 17.789685 
L 241.062216 17.345224 
" clip-path="url(#pd0aef118e4)" style="fill: none; stroke: #ff7f0e; stroke-width: 1.5"/>
    <path d="M 244.105852 17.667304 
L 244.105852 17.222715 
" clip-path="url(#pd0aef118e4)" style="fill: none; stroke: #ff7f0e; stroke-width: 1.5"/>
    <path d="M 247.149489 17.866637 
L 247.149489 17.422257 
" clip-path="url(#pd0aef118e4)" style="fill: none; stroke: #ff7f0e; stroke-width: 1.5"/>
    <path d="M 250.193125 18.109546 
L 250.193125 17.665419 
" clip-path="url(#pd0aef118e4)" style="fill: none; stroke: #ff7f0e; stroke-width: 1.5"/>
    <path d="M 253.236761 18.108851 
L 253.236761 17.664723 
" clip-path="url(#pd0aef118e4)" style="fill: none; stroke: #ff7f0e; stroke-width: 1.5"/>
    <path d="M 256.280398 18.241663 
L 256.280398 17.797674 
" clip-path="url(#pd0aef118e4)" style="fill: none; stroke: #ff7f0e; stroke-width: 1.5"/>
    <path d="M 259.324034 17.810546 
L 259.324034 17.366106 
" clip-path="url(#pd0aef118e4)" style="fill: none; stroke: #ff7f0e; stroke-width: 1.5"/>
    <path d="M 262.36767 17.889816 
L 262.36767 17.445459 
" clip-path="url(#pd0aef118e4)" style="fill: none; stroke: #ff7f0e; stroke-width: 1.5"/>
    <path d="M 265.411307 18.420136 
L 265.411307 17.976333 
" clip-path="url(#pd0aef118e4)" style="fill: none; stroke: #ff7f0e; stroke-width: 1.5"/>
    <path d="M 268.454943 18.343415 
L 268.454943 17.899533 
" clip-path="url(#pd0aef118e4)" style="fill: none; stroke: #ff7f0e; stroke-width: 1.5"/>
    <path d="M 271.49858 18.867709 
L 271.49858 18.424374 
" clip-path="url(#pd0aef118e4)" style="fill: none; stroke: #ff7f0e; stroke-width: 1.5"/>
    <path d="M 274.542216 19.178993 
L 274.542216 18.735985 
" clip-path="url(#pd0aef118e4)" style="fill: none; stroke: #ff7f0e; stroke-width: 1.5"/>
    <path d="M 277.585852 19.439981 
L 277.585852 18.997246 
" clip-path="url(#pd0aef118e4)" style="fill: none; stroke: #ff7f0e; stroke-width: 1.5"/>
    <path d="M 280.629489 20.143441 
L 280.629489 19.701444 
" clip-path="url(#pd0aef118e4)" style="fill: none; stroke: #ff7f0e; stroke-width: 1.5"/>
    <path d="M 283.673125 20.76879 
L 283.673125 20.327451 
" clip-path="url(#pd0aef118e4)" style="fill: none; stroke: #ff7f0e; stroke-width: 1.5"/>
    <path d="M 286.716761 20.400488 
L 286.716761 19.958761 
" clip-path="url(#pd0aef118e4)" style="fill: none; stroke: #ff7f0e; stroke-width: 1.5"/>
    <path d="M 289.760398 21.829194 
L 289.760398 21.388971 
" clip-path="url(#pd0aef118e4)" style="fill: none; stroke: #ff7f0e; stroke-width: 1.5"/>
    <path d="M 292.804034 22.051937 
L 292.804034 21.611948 
" clip-path="url(#pd0aef118e4)" style="fill: none; stroke: #ff7f0e; stroke-width: 1.5"/>
    <path d="M 295.84767 22.616094 
L 295.84767 22.176701 
" clip-path="url(#pd0aef118e4)" style="fill: none; stroke: #ff7f0e; stroke-width: 1.5"/>
    <path d="M 298.891307 23.707091 
L 298.891307 23.268851 
" clip-path="url(#pd0aef118e4)" style="fill: none; stroke: #ff7f0e; stroke-width: 1.5"/>
    <path d="M 301.934943 24.938545 
L 301.934943 24.501612 
" clip-path="url(#pd0aef118e4)" style="fill: none; stroke: #ff7f0e; stroke-width: 1.5"/>
    <path d="M 304.97858 26.161422 
L 304.97858 25.725789 
" clip-path="url(#pd0aef118e4)" style="fill: none; stroke: #ff7f0e; stroke-width: 1.5"/>
    <path d="M 308.022216 27.194932 
L 308.022216 26.760401 
" clip-path="url(#pd0aef118e4)" style="fill: none; stroke: #ff7f0e; stroke-width: 1.5"/>
    <path d="M 311.065852 28.677862 
L 311.065852 28.244918 
" clip-path="url(#pd0aef118e4)" style="fill: none; stroke: #ff7f0e; stroke-width: 1.5"/>
    <path d="M 314.109489 29.574155 
L 314.109489 29.142173 
" clip-path="url(#pd0aef118e4)" style="fill: none; stroke: #ff7f0e; stroke-width: 1.5"/>
    <path d="M 317.153125 30.466275 
L 317.153125 30.035252 
" clip-path="url(#pd0aef118e4)" style="fill: none; stroke: #ff7f0e; stroke-width: 1.5"/>
    <path d="M 320.196761 31.818475 
L 320.196761 31.388911 
" clip-path="url(#pd0aef118e4)" style="fill: none; stroke: #ff7f0e; stroke-width: 1.5"/>
    <path d="M 323.240398 32.91224 
L 323.240398 32.483859 
" clip-path="url(#pd0aef118e4)" style="fill: none; stroke: #ff7f0e; stroke-width: 1.5"/>
    <path d="M 326.284034 34.560185 
L 326.284034 34.133593 
" clip-path="url(#pd0aef118e4)" style="fill: none; stroke: #ff7f0e; stroke-width: 1.5"/>
    <path d="M 329.32767 35.577227 
L 329.32767 35.151743 
" clip-path="url(#pd0aef118e4)" style="fill: none; stroke: #ff7f0e; stroke-width: 1.5"/>
    <path d="M 332.371307 37.262946 
L 332.371307 36.839304 
" clip-path="url(#pd0aef118e4)" style="fill: none; stroke: #ff7f0e; stroke-width: 1.5"/>
    <path d="M 335.414943 38.712016 
L 335.414943 38.289964 
" clip-path="url(#pd0aef118e4)" style="fill: none; stroke: #ff7f0e; stroke-width: 1.5"/>
    <path d="M 338.45858 40.291573 
L 338.45858 39.871262 
" clip-path="url(#pd0aef118e4)" style="fill: none; stroke: #ff7f0e; stroke-width: 1.5"/>
    <path d="M 341.502216 41.782357 
L 341.502216 41.363695 
" clip-path="url(#pd0aef118e4)" style="fill: none; stroke: #ff7f0e; stroke-width: 1.5"/>
    <path d="M 344.545852 43.809234 
L 344.545852 43.392825 
" clip-path="url(#pd0aef118e4)" style="fill: none; stroke: #ff7f0e; stroke-width: 1.5"/>
    <path d="M 347.589489 46.78128 
L 347.589489 46.368196 
" clip-path="url(#pd0aef118e4)" style="fill: none; stroke: #ff7f0e; stroke-width: 1.5"/>
    <path d="M 350.633125 48.966906 
L 350.633125 48.556285 
" clip-path="url(#pd0aef118e4)" style="fill: none; stroke: #ff7f0e; stroke-width: 1.5"/>
    <path d="M 353.676761 50.241194 
L 353.676761 49.832016 
" clip-path="url(#pd0aef118e4)" style="fill: none; stroke: #ff7f0e; stroke-width: 1.5"/>
    <path d="M 356.720398 52.144278 
L 356.720398 51.737264 
" clip-path="url(#pd0aef118e4)" style="fill: none; stroke: #ff7f0e; stroke-width: 1.5"/>
    <path d="M 359.764034 53.844093 
L 359.764034 53.439021 
" clip-path="url(#pd0aef118e4)" style="fill: none; stroke: #ff7f0e; stroke-width: 1.5"/>
    <path d="M 362.80767 55.847059 
L 362.80767 55.444289 
" clip-path="url(#pd0aef118e4)" style="fill: none; stroke: #ff7f0e; stroke-width: 1.5"/>
    <path d="M 365.851307 57.828695 
L 365.851307 57.428215 
" clip-path="url(#pd0aef118e4)" style="fill: none; stroke: #ff7f0e; stroke-width: 1.5"/>
    <path d="M 368.894943 59.350495 
L 368.894943 58.951782 
" clip-path="url(#pd0aef118e4)" style="fill: none; stroke: #ff7f0e; stroke-width: 1.5"/>
    <path d="M 371.93858 63.623844 
L 371.93858 63.230136 
" clip-path="url(#pd0aef118e4)" style="fill: none; stroke: #ff7f0e; stroke-width: 1.5"/>
    <path d="M 374.982216 95.918721 
L 374.982216 95.565126 
" clip-path="url(#pd0aef118e4)" style="fill: none; stroke: #ff7f0e; stroke-width: 1.5"/>
    <path d="M 378.025852 161.706229 
L 378.025852 161.453331 
" clip-path="url(#pd0aef118e4)" style="fill: none; stroke: #ff7f0e; stroke-width: 1.5"/>
    <path d="M 381.069489 206.863253 
L 381.069489 206.714859 
" clip-path="url(#pd0aef118e4)" style="fill: none; stroke: #ff7f0e; stroke-width: 1.5"/>
    <path d="M 384.113125 217.249513 
L 384.113125 217.138297 
" clip-path="url(#pd0aef118e4)" style="fill: none; stroke: #ff7f0e; stroke-width: 1.5"/>
   </g>
   <g id="patch_3">
    <path d="M 66.053125 228.96 
L 66.053125 7.2 
" style="fill: none; stroke: #000000; stroke-width: 0.8; stroke-linejoin: miter; stroke-linecap: square"/>
   </g>
   <g id="patch_4">
    <path d="M 400.853125 228.96 
L 400.853125 7.2 
" style="fill: none; stroke: #000000; stroke-width: 0.8; stroke-linejoin: miter; stroke-linecap: square"/>
   </g>
   <g id="patch_5">
    <path d="M 66.053125 228.96 
L 400.853125 228.96 
" style="fill: none; stroke: #000000; stroke-width: 0.8; stroke-linejoin: miter; stroke-linecap: square"/>
   </g>
   <g id="patch_6">
    <path d="M 66.053125 7.2 
L 400.853125 7.2 
" style="fill: none; stroke: #000000; stroke-width: 0.8; stroke-linejoin: miter; stroke-linecap: square"/>
   </g>
   <g id="legend_1">
    <g id="patch_7">
     <path d="M 73.053125 44.55625 
L 154.770312 44.55625 
Q 156.770312 44.55625 156.770312 42.55625 
L 156.770312 14.2 
Q 156.770312 12.2 154.770312 12.2 
L 73.053125 12.2 
Q 71.053125 12.2 71.053125 14.2 
L 71.053125 42.55625 
Q 71.053125 44.55625 73.053125 44.55625 
z
" style="fill: #ffffff; opacity: 0.8; stroke: #cccccc; stroke-linejoin: miter"/>
    </g>
    <g id="line2d_15">
     <path d="M 75.053125 20.298437 
L 75.053125 20.298437 
L 85.053125 20.298437 
L 85.053125 20.298437 
L 95.053125 20.298437 
" style="fill: none; stroke: #1f77b4; stroke-width: 1.5; stroke-linecap: square"/>
    </g>
    <g id="text_15">
     <!-- sample -->
     <g transform="translate(103.053125 23.798437) scale(0.1 -0.1)">
      <defs>
       <path id="DejaVuSans-61" d="M 2194 1759 
Q 1497 1759 1228 1600 
Q 959 1441 959 1056 
Q 959 750 1161 570 
Q 1363 391 1709 391 
Q 2188 391 2477 730 
Q 2766 1069 2766 1631 
L 2766 1759 
L 2194 1759 
z
M 3341 1997 
L 3341 0 
L 2766 0 
L 2766 531 
Q 2569 213 2275 61 
Q 1981 -91 1556 -91 
Q 1019 -91 701 211 
Q 384 513 384 1019 
Q 384 1609 779 1909 
Q 1175 2209 1959 2209 
L 2766 2209 
L 2766 2266 
Q 2766 2663 2505 2880 
Q 2244 3097 1772 3097 
Q 1472 3097 1187 3025 
Q 903 2953 641 2809 
L 641 3341 
Q 956 3463 1253 3523 
Q 1550 3584 1831 3584 
Q 2591 3584 2966 3190 
Q 3341 2797 3341 1997 
z
" transform="scale(0.015625)"/>
       <path id="DejaVuSans-6d" d="M 3328 2828 
Q 3544 3216 3844 3400 
Q 4144 3584 4550 3584 
Q 5097 3584 5394 3201 
Q 5691 2819 5691 2113 
L 5691 0 
L 5113 0 
L 5113 2094 
Q 5113 2597 4934 2840 
Q 4756 3084 4391 3084 
Q 3944 3084 3684 2787 
Q 3425 2491 3425 1978 
L 3425 0 
L 2847 0 
L 2847 2094 
Q 2847 2600 2669 2842 
Q 2491 3084 2119 3084 
Q 1678 3084 1418 2786 
Q 1159 2488 1159 1978 
L 1159 0 
L 581 0 
L 581 3500 
L 1159 3500 
L 1159 2956 
Q 1356 3278 1631 3431 
Q 1906 3584 2284 3584 
Q 2666 3584 2933 3390 
Q 3200 3197 3328 2828 
z
" transform="scale(0.015625)"/>
       <path id="DejaVuSans-70" d="M 1159 525 
L 1159 -1331 
L 581 -1331 
L 581 3500 
L 1159 3500 
L 1159 2969 
Q 1341 3281 1617 3432 
Q 1894 3584 2278 3584 
Q 2916 3584 3314 3078 
Q 3713 2572 3713 1747 
Q 3713 922 3314 415 
Q 2916 -91 2278 -91 
Q 1894 -91 1617 61 
Q 1341 213 1159 525 
z
M 3116 1747 
Q 3116 2381 2855 2742 
Q 2594 3103 2138 3103 
Q 1681 3103 1420 2742 
Q 1159 2381 1159 1747 
Q 1159 1113 1420 752 
Q 1681 391 2138 391 
Q 2594 391 2855 752 
Q 3116 1113 3116 1747 
z
" transform="scale(0.015625)"/>
       <path id="DejaVuSans-6c" d="M 603 4863 
L 1178 4863 
L 1178 0 
L 603 0 
L 603 4863 
z
" transform="scale(0.015625)"/>
       <path id="DejaVuSans-65" d="M 3597 1894 
L 3597 1613 
L 953 1613 
Q 991 1019 1311 708 
Q 1631 397 2203 397 
Q 2534 397 2845 478 
Q 3156 559 3463 722 
L 3463 178 
Q 3153 47 2828 -22 
Q 2503 -91 2169 -91 
Q 1331 -91 842 396 
Q 353 884 353 1716 
Q 353 2575 817 3079 
Q 1281 3584 2069 3584 
Q 2775 3584 3186 3129 
Q 3597 2675 3597 1894 
z
M 3022 2063 
Q 3016 2534 2758 2815 
Q 2500 3097 2075 3097 
Q 1594 3097 1305 2825 
Q 1016 2553 972 2059 
L 3022 2063 
z
" transform="scale(0.015625)"/>
      </defs>
      <use xlink:href="#DejaVuSans-73"/>
      <use xlink:href="#DejaVuSans-61" transform="translate(52.099609 0)"/>
      <use xlink:href="#DejaVuSans-6d" transform="translate(113.378906 0)"/>
      <use xlink:href="#DejaVuSans-70" transform="translate(210.791016 0)"/>
      <use xlink:href="#DejaVuSans-6c" transform="translate(274.267578 0)"/>
      <use xlink:href="#DejaVuSans-65" transform="translate(302.050781 0)"/>
     </g>
    </g>
    <g id="line2d_16">
     <path d="M 75.053125 34.976562 
L 75.053125 34.976562 
L 85.053125 34.976562 
L 85.053125 34.976562 
L 95.053125 34.976562 
" style="fill: none; stroke: #ff7f0e; stroke-width: 1.5; stroke-linecap: square"/>
    </g>
    <g id="text_16">
     <!-- vanadium -->
     <g transform="translate(103.053125 38.476562) scale(0.1 -0.1)">
      <defs>
       <path id="DejaVuSans-76" d="M 191 3500 
L 800 3500 
L 1894 563 
L 2988 3500 
L 3597 3500 
L 2284 0 
L 1503 0 
L 191 3500 
z
" transform="scale(0.015625)"/>
       <path id="DejaVuSans-64" d="M 2906 2969 
L 2906 4863 
L 3481 4863 
L 3481 0 
L 2906 0 
L 2906 525 
Q 2725 213 2448 61 
Q 2172 -91 1784 -91 
Q 1150 -91 751 415 
Q 353 922 353 1747 
Q 353 2572 751 3078 
Q 1150 3584 1784 3584 
Q 2172 3584 2448 3432 
Q 2725 3281 2906 2969 
z
M 947 1747 
Q 947 1113 1208 752 
Q 1469 391 1925 391 
Q 2381 391 2643 752 
Q 2906 1113 2906 1747 
Q 2906 2381 2643 2742 
Q 2381 3103 1925 3103 
Q 1469 3103 1208 2742 
Q 947 2381 947 1747 
z
" transform="scale(0.015625)"/>
       <path id="DejaVuSans-69" d="M 603 3500 
L 1178 3500 
L 1178 0 
L 603 0 
L 603 3500 
z
M 603 4863 
L 1178 4863 
L 1178 4134 
L 603 4134 
L 603 4863 
z
" transform="scale(0.015625)"/>
      </defs>
      <use xlink:href="#DejaVuSans-76"/>
      <use xlink:href="#DejaVuSans-61" transform="translate(59.179688 0)"/>
      <use xlink:href="#DejaVuSans-6e" transform="translate(120.458984 0)"/>
      <use xlink:href="#DejaVuSans-61" transform="translate(183.837891 0)"/>
      <use xlink:href="#DejaVuSans-64" transform="translate(245.117188 0)"/>
      <use xlink:href="#DejaVuSans-69" transform="translate(308.59375 0)"/>
      <use xlink:href="#DejaVuSans-75" transform="translate(336.376953 0)"/>
      <use xlink:href="#DejaVuSans-6d" transform="translate(399.755859 0)"/>
     </g>
    </g>
   </g>
  </g>
 </g>
 <defs>
  <clipPath id="pd0aef118e4">
   <rect x="66.053125" y="7.2" width="334.8" height="221.76"/>
  </clipPath>
 </defs>
</svg>
