<?xml version="1.0" encoding="UTF-8" standalone="no"?>
<!DOCTYPE svg PUBLIC "-//W3C//DTD SVG 1.1//EN"
 "http://www.w3.org/Graphics/SVG/1.1/DTD/svg11.dtd">
<!-- Generated by graphviz version 2.43.0 (0)
 -->
<!-- Title: %3 Pages: 1 -->
<svg width="2891pt" height="364pt"
 viewBox="0.00 0.00 2891.00 364.00" xmlns="http://www.w3.org/2000/svg" xmlns:xlink="http://www.w3.org/1999/xlink">
<g id="graph0" class="graph" transform="scale(1 1) rotate(0) translate(4 360)">
<title>%3</title>
<polygon fill="white" stroke="transparent" points="-4,4 -4,-360 2887,-360 2887,4 -4,4"/>
<g id="clust1" class="cluster">
<title>cluster_AccumulatedProtonCharge</title>
<polygon fill="#f0f0ff" stroke="#f0f0ff" points="1683,-31.5 1683,-127.5 1922,-127.5 1922,-31.5 1683,-31.5"/>
<text text-anchor="start" x="1706" y="-113.3" font-family="Times,serif" font-size="14.00">AccumulatedProtonCharge</text>
<text text-anchor="start" x="1691" y="-101.7" font-family="Times,serif" font-size="11.00">via:</text>
<text text-anchor="start" x="1712" y="-101.7" font-family="Times,serif" font-style="italic" font-size="11.00">extract_accumulated_proton_charge</text>
</g>
<g id="clust4" class="cluster">
<title>cluster_CorrectedDetector</title>
<polygon fill="#f0f0ff" stroke="#f0f0ff" points="1431,-134.5 1431,-230.5 1625,-230.5 1625,-134.5 1431,-134.5"/>
<text text-anchor="start" x="1461" y="-216.3" font-family="Times,serif" font-size="14.00">CorrectedDetector</text>
<text text-anchor="start" x="1439" y="-204.7" font-family="Times,serif" font-size="11.00">via:</text>
<text text-anchor="start" x="1460" y="-204.7" font-family="Times,serif" font-style="italic" font-size="11.00">add_masks_and_corrections</text>
</g>
<g id="clust5" class="cluster">
<title>cluster_CorrectedDspacing</title>
<polygon fill="#f0f0ff" stroke="#f0f0ff" points="1683,-135.5 1683,-231.5 1921,-231.5 1921,-135.5 1683,-135.5"/>
<text text-anchor="start" x="1733" y="-217.3" font-family="Times,serif" font-size="14.00">CorrectedDspacing</text>
<text text-anchor="start" x="1691" y="-205.7" font-family="Times,serif" font-size="11.00">via:</text>
<text text-anchor="start" x="1712" y="-205.7" font-family="Times,serif" font-style="italic" font-size="11.00">focus_data_dspacing_and_two_theta</text>
</g>
<g id="clust8" class="cluster">
<title>cluster_ElasticCoordTransformGraph</title>
<polygon fill="#f0f0ff" stroke="#f0f0ff" points="742,-177.5 742,-273.5 1014,-273.5 1014,-177.5 742,-177.5"/>
<text text-anchor="start" x="772.5" y="-259.3" font-family="Times,serif" font-size="14.00">ElasticCoordTransformGraph</text>
<text text-anchor="start" x="750" y="-247.7" font-family="Times,serif" font-size="11.00">via:</text>
<text text-anchor="start" x="771" y="-247.7" font-family="Times,serif" font-style="italic" font-size="11.00">powder_coordinate_transformation_graph</text>
</g>
<g id="clust9" class="cluster">
<title>cluster_Filename</title>
<polygon fill="#f0f0ff" stroke="#f0f0ff" points="8,-183.5 8,-269.5 134,-269.5 134,-183.5 8,-183.5"/>
<text text-anchor="middle" x="71" y="-254.3" font-family="Times,serif" font-size="14.00">Filename</text>
</g>
<g id="clust10" class="cluster">
<title>cluster_FocussedDataDspacingTwoTheta</title>
<polygon fill="#f0f0ff" stroke="#f0f0ff" points="2247,-31.5 2247,-127.5 2499,-127.5 2499,-31.5 2247,-31.5"/>
<text text-anchor="start" x="2255" y="-113.3" font-family="Times,serif" font-size="14.00">FocussedDataDspacingTwoTheta</text>
<text text-anchor="start" x="2315.5" y="-101.7" font-family="Times,serif" font-size="11.00">via:</text>
<text text-anchor="start" x="2336.5" y="-101.7" font-family="Times,serif" font-style="italic" font-size="11.00">group_two_theta</text>
</g>
<g id="clust13" class="cluster">
<title>cluster_KeepEvents</title>
<polygon fill="#f0f0ff" stroke="#f0f0ff" points="1465,-238.5 1465,-324.5 1591,-324.5 1591,-238.5 1465,-238.5"/>
<text text-anchor="middle" x="1528" y="-309.3" font-family="Times,serif" font-size="14.00">KeepEvents</text>
</g>
<g id="clust16" class="cluster">
<title>cluster_NormalizedDspacing</title>
<polygon fill="#f0f0ff" stroke="#f0f0ff" points="1982,-31.5 1982,-127.5 2179,-127.5 2179,-31.5 1982,-31.5"/>
<text text-anchor="start" x="2006" y="-113.3" font-family="Times,serif" font-size="14.00">NormalizedDspacing</text>
<text text-anchor="start" x="1990" y="-101.7" font-family="Times,serif" font-size="11.00">via:</text>
<text text-anchor="start" x="2011" y="-101.7" font-family="Times,serif" font-style="italic" font-size="11.00">normalize_by_proton_charge</text>
</g>
<g id="clust17" class="cluster">
<title>cluster_Position</title>
<polygon fill="#f0f0ff" stroke="#f0f0ff" points="471,-161.5 471,-337.5 666,-337.5 666,-161.5 471,-161.5"/>
<text text-anchor="middle" x="568.5" y="-322.3" font-family="Times,serif" font-size="14.00">Position</text>
</g>
<g id="clust18" class="cluster">
<title>cluster_RawDataAndMetadata</title>
<polygon fill="#f0f0ff" stroke="#f0f0ff" points="208.5,-183.5 208.5,-279.5 385.5,-279.5 385.5,-183.5 208.5,-183.5"/>
<text text-anchor="start" x="216.5" y="-265.3" font-family="Times,serif" font-size="14.00">RawDataAndMetadata</text>
<text text-anchor="start" x="255" y="-253.7" font-family="Times,serif" font-size="11.00">via:</text>
<text text-anchor="start" x="276" y="-253.7" font-family="Times,serif" font-style="italic" font-size="11.00">pooch_load</text>
</g>
<g id="clust19" class="cluster">
<title>cluster_TofDetector</title>
<polygon fill="#f0f0ff" stroke="#f0f0ff" points="811,-31.5 811,-127.5 945,-127.5 945,-31.5 811,-31.5"/>
<text text-anchor="start" x="835.5" y="-113.3" font-family="Times,serif" font-size="14.00">TofDetector</text>
<text text-anchor="start" x="819" y="-101.7" font-family="Times,serif" font-size="11.00">via:</text>
<text text-anchor="start" x="840" y="-101.7" font-family="Times,serif" font-style="italic" font-size="11.00">extract_raw_data</text>
</g>
<g id="clust24" class="cluster">
<title>cluster_WavelengthDetector</title>
<polygon fill="#f0f0ff" stroke="#f0f0ff" points="1086,-134.5 1086,-230.5 1365,-230.5 1365,-134.5 1086,-134.5"/>
<text text-anchor="start" x="1152" y="-216.3" font-family="Times,serif" font-size="14.00">WavelengthDetector</text>
<text text-anchor="start" x="1094" y="-204.7" font-family="Times,serif" font-size="11.00">via:</text>
<text text-anchor="start" x="1115" y="-204.7" font-family="Times,serif" font-style="italic" font-size="11.00">add_scattering_coordinates_from_positions</text>
</g>
<!-- TofDetector[SampleRun] -->
<g id="node1" class="node">
<title>TofDetector[SampleRun]</title>
<polygon fill="none" stroke="black" points="925.5,-61 830.5,-61 830.5,-40 925.5,-40 925.5,-61"/>
<text text-anchor="start" x="838.5" y="-47.4" font-family="Times,serif" font-size="12.00">[SampleRun]</text>
</g>
<!-- AccumulatedProtonCharge[SampleRun] -->
<g id="node2" class="node">
<title>AccumulatedProtonCharge[SampleRun]</title>
<polygon fill="none" stroke="black" points="1849.5,-61 1754.5,-61 1754.5,-40 1849.5,-40 1849.5,-61"/>
<text text-anchor="start" x="1762.5" y="-47.4" font-family="Times,serif" font-size="12.00">[SampleRun]</text>
</g>
<!-- TofDetector[SampleRun]&#45;&gt;AccumulatedProtonCharge[SampleRun] -->
<g id="edge1" class="edge">
<title>TofDetector[SampleRun]:e&#45;&gt;AccumulatedProtonCharge[SampleRun]:w</title>
<path fill="none" stroke="black" d="M927,-50.5C1290.71,-50.5 1384.16,-50.5 1742.85,-50.5"/>
<polygon fill="black" stroke="black" points="1743,-54 1753,-50.5 1743,-47 1743,-54"/>
</g>
<!-- WavelengthDetector[SampleRun] -->
<g id="node8" class="node">
<title>WavelengthDetector[SampleRun]</title>
<polygon fill="none" stroke="black" points="1272.5,-164 1177.5,-164 1177.5,-143 1272.5,-143 1272.5,-164"/>
<text text-anchor="start" x="1185.5" y="-150.4" font-family="Times,serif" font-size="12.00">[SampleRun]</text>
</g>
<!-- TofDetector[SampleRun]&#45;&gt;WavelengthDetector[SampleRun] -->
<g id="edge41" class="edge">
<title>TofDetector[SampleRun]:e&#45;&gt;WavelengthDetector[SampleRun]:w</title>
<path fill="none" stroke="black" d="M927,-50.5C966.24,-50.5 978.58,-48.62 1014,-65.5 1052.38,-83.79 1048.58,-108.31 1086,-128.5 1119.39,-146.52 1132.25,-152.49 1165.92,-153.38"/>
<polygon fill="black" stroke="black" points="1165.96,-156.88 1176,-153.5 1166.04,-149.88 1165.96,-156.88"/>
</g>
<!-- NormalizedDspacing[SampleRun] -->
<g id="node31" class="node">
<title>NormalizedDspacing[SampleRun]</title>
<polygon fill="none" stroke="black" points="2127.5,-61 2032.5,-61 2032.5,-40 2127.5,-40 2127.5,-61"/>
<text text-anchor="start" x="2040.5" y="-47.4" font-family="Times,serif" font-size="12.00">[SampleRun]</text>
</g>
<!-- AccumulatedProtonCharge[SampleRun]&#45;&gt;NormalizedDspacing[SampleRun] -->
<g id="edge29" class="edge">
<title>AccumulatedProtonCharge[SampleRun]:e&#45;&gt;NormalizedDspacing[SampleRun]:w</title>
<path fill="none" stroke="black" d="M1851,-50.5C1927.41,-50.5 1949.08,-50.5 2020.57,-50.5"/>
<polygon fill="black" stroke="black" points="2021,-54 2031,-50.5 2021,-47 2021,-54"/>
</g>
<!-- TofDetector[VanadiumRun] -->
<g id="node3" class="node">
<title>TofDetector[VanadiumRun]</title>
<polygon fill="none" stroke="black" points="933,-86 823,-86 823,-65 933,-65 933,-86"/>
<text text-anchor="start" x="831" y="-72.4" font-family="Times,serif" font-size="12.00">[VanadiumRun]</text>
</g>
<!-- AccumulatedProtonCharge[VanadiumRun] -->
<g id="node4" class="node">
<title>AccumulatedProtonCharge[VanadiumRun]</title>
<polygon fill="none" stroke="black" points="1857,-86 1747,-86 1747,-65 1857,-65 1857,-86"/>
<text text-anchor="start" x="1755" y="-72.4" font-family="Times,serif" font-size="12.00">[VanadiumRun]</text>
</g>
<!-- TofDetector[VanadiumRun]&#45;&gt;AccumulatedProtonCharge[VanadiumRun] -->
<g id="edge2" class="edge">
<title>TofDetector[VanadiumRun]:e&#45;&gt;AccumulatedProtonCharge[VanadiumRun]:w</title>
<path fill="none" stroke="black" d="M934,-75.5C1291.45,-75.5 1383.37,-75.5 1735.76,-75.5"/>
<polygon fill="black" stroke="black" points="1736,-79 1746,-75.5 1736,-72 1736,-79"/>
</g>
<!-- WavelengthDetector[VanadiumRun] -->
<g id="node14" class="node">
<title>WavelengthDetector[VanadiumRun]</title>
<polygon fill="none" stroke="black" points="1280,-189 1170,-189 1170,-168 1280,-168 1280,-189"/>
<text text-anchor="start" x="1178" y="-175.4" font-family="Times,serif" font-size="12.00">[VanadiumRun]</text>
</g>
<!-- TofDetector[VanadiumRun]&#45;&gt;WavelengthDetector[VanadiumRun] -->
<g id="edge44" class="edge">
<title>TofDetector[VanadiumRun]:e&#45;&gt;WavelengthDetector[VanadiumRun]:w</title>
<path fill="none" stroke="black" d="M934,-75.5C1012.28,-75.5 1012.42,-137.77 1086,-164.5 1117.73,-176.02 1129.32,-178.15 1158.76,-178.46"/>
<polygon fill="black" stroke="black" points="1158.98,-181.96 1169,-178.5 1159.02,-174.96 1158.98,-181.96"/>
</g>
<!-- NormalizedDspacing[VanadiumRun] -->
<g id="node34" class="node">
<title>NormalizedDspacing[VanadiumRun]</title>
<polygon fill="none" stroke="black" points="2135,-86 2025,-86 2025,-65 2135,-65 2135,-86"/>
<text text-anchor="start" x="2033" y="-72.4" font-family="Times,serif" font-size="12.00">[VanadiumRun]</text>
</g>
<!-- AccumulatedProtonCharge[VanadiumRun]&#45;&gt;NormalizedDspacing[VanadiumRun] -->
<g id="edge31" class="edge">
<title>AccumulatedProtonCharge[VanadiumRun]:e&#45;&gt;NormalizedDspacing[VanadiumRun]:w</title>
<path fill="none" stroke="black" d="M1858,-75.5C1928.32,-75.5 1948.37,-75.5 2013.98,-75.5"/>
<polygon fill="black" stroke="black" points="2014,-79 2024,-75.5 2014,-72 2014,-79"/>
</g>
<!-- CalibrationFilename -->
<g id="node5" class="node">
<title>CalibrationFilename</title>
<polygon fill="none" stroke="black" points="649.5,-116 487.5,-116 487.5,-93 649.5,-93 649.5,-116"/>
<text text-anchor="middle" x="568.5" y="-100.8" font-family="Times,serif" font-size="14.00">CalibrationFilename</text>
</g>
<!-- CalibrationData -->
<g id="node6" class="node">
<title>CalibrationData</title>
<polygon fill="none" stroke="black" points="961,-169 795,-169 795,-136 961,-136 961,-169"/>
<text text-anchor="start" x="821" y="-154.8" font-family="Times,serif" font-size="14.00">CalibrationData</text>
<text text-anchor="start" x="803" y="-143.2" font-family="Times,serif" font-size="11.00">via:</text>
<text text-anchor="start" x="824" y="-143.2" font-family="Times,serif" font-style="italic" font-size="11.00">pooch_load_calibration</text>
</g>
<!-- CalibrationFilename&#45;&gt;CalibrationData -->
<g id="edge3" class="edge">
<title>CalibrationFilename:e&#45;&gt;CalibrationData:w</title>
<path fill="none" stroke="black" d="M650.5,-104.5C714.2,-104.5 725.64,-147.57 783.83,-152.11"/>
<polygon fill="black" stroke="black" points="783.87,-155.62 794,-152.5 784.14,-148.62 783.87,-155.62"/>
</g>
<!-- CalibrationData&#45;&gt;WavelengthDetector[SampleRun] -->
<g id="edge43" class="edge">
<title>CalibrationData:e&#45;&gt;WavelengthDetector[SampleRun]:w</title>
<path fill="none" stroke="black" stroke-width="2" d="M962,-152.5C1013.26,-152.5 1043.8,-152.79 1075.95,-153.06"/>
<polygon fill="black" stroke="black" stroke-width="2" points="1075.97,-156.56 1086,-153.14 1076.03,-149.56 1075.97,-156.56"/>
</g>
<!-- DetectorBankSizes -->
<g id="node7" class="node">
<title>DetectorBankSizes</title>
<polygon fill="none" stroke="black" points="670,-78 467,-78 467,-45 670,-45 670,-78"/>
<text text-anchor="start" x="500.5" y="-63.8" font-family="Times,serif" font-size="14.00">DetectorBankSizes</text>
<text text-anchor="start" x="475" y="-52.2" font-family="Times,serif" font-size="11.00">via:</text>
<text text-anchor="start" x="496" y="-52.2" font-family="Times,serif" font-style="italic" font-size="11.00">powgen_detector_dimensions</text>
</g>
<!-- DetectorBankSizes&#45;&gt;TofDetector[SampleRun] -->
<g id="edge39" class="edge">
<title>DetectorBankSizes:e&#45;&gt;TofDetector[SampleRun]:w</title>
<path fill="none" stroke="black" stroke-width="2" d="M670,-61.5C730.4,-61.5 751.9,-53.5 800.83,-51.15"/>
<polygon fill="black" stroke="black" stroke-width="2" points="801.14,-54.64 811,-50.75 800.87,-47.64 801.14,-54.64"/>
</g>
<!-- DetectorBankSizes&#45;&gt;CalibrationData -->
<g id="edge4" class="edge">
<title>DetectorBankSizes:e&#45;&gt;CalibrationData:w</title>
<path fill="none" stroke="black" d="M670,-61.5C713.71,-61.5 705.7,-104.15 742,-128.5 760,-140.58 766.59,-149.49 783.87,-151.87"/>
<polygon fill="black" stroke="black" points="783.8,-155.37 794,-152.5 784.24,-148.38 783.8,-155.37"/>
</g>
<!-- CorrectedDetector[SampleRun] -->
<g id="node9" class="node">
<title>CorrectedDetector[SampleRun]</title>
<polygon fill="none" stroke="black" points="1575.5,-164 1480.5,-164 1480.5,-143 1575.5,-143 1575.5,-164"/>
<text text-anchor="start" x="1488.5" y="-150.4" font-family="Times,serif" font-size="12.00">[SampleRun]</text>
</g>
<!-- WavelengthDetector[SampleRun]&#45;&gt;CorrectedDetector[SampleRun] -->
<g id="edge5" class="edge">
<title>WavelengthDetector[SampleRun]:e&#45;&gt;CorrectedDetector[SampleRun]:w</title>
<path fill="none" stroke="black" d="M1274,-153.5C1361.64,-153.5 1386.05,-153.5 1468.88,-153.5"/>
<polygon fill="black" stroke="black" points="1469,-157 1479,-153.5 1469,-150 1469,-157"/>
</g>
<!-- CorrectedDspacing[SampleRun] -->
<g id="node16" class="node">
<title>CorrectedDspacing[SampleRun]</title>
<polygon fill="none" stroke="black" points="1849.5,-165 1754.5,-165 1754.5,-144 1849.5,-144 1849.5,-165"/>
<text text-anchor="start" x="1762.5" y="-151.4" font-family="Times,serif" font-size="12.00">[SampleRun]</text>
</g>
<!-- CorrectedDetector[SampleRun]&#45;&gt;CorrectedDspacing[SampleRun] -->
<g id="edge11" class="edge">
<title>CorrectedDetector[SampleRun]:e&#45;&gt;CorrectedDspacing[SampleRun]:w</title>
<path fill="none" stroke="black" d="M1577,-153.5C1651.71,-153.5 1672.9,-154.41 1742.8,-154.49"/>
<polygon fill="black" stroke="black" points="1743,-157.99 1753,-154.5 1743,-150.99 1743,-157.99"/>
</g>
<!-- MaskedDetectorIDs -->
<g id="node10" class="node">
<title>MaskedDetectorIDs</title>
<polygon fill="none" stroke="black" points="1304,-289 1146,-289 1146,-266 1304,-266 1304,-289"/>
<text text-anchor="middle" x="1225" y="-273.8" font-family="Times,serif" font-size="14.00">MaskedDetectorIDs</text>
</g>
<!-- MaskedDetectorIDs&#45;&gt;CorrectedDetector[SampleRun] -->
<g id="edge6" class="edge">
<title>MaskedDetectorIDs:e&#45;&gt;CorrectedDetector[SampleRun]:w</title>
<path fill="none" stroke="black" stroke-width="2" d="M1305,-277.5C1332.49,-277.5 1342.34,-278.06 1365,-262.5 1404.12,-235.63 1391.92,-203.5 1423.13,-174.92"/>
<polygon fill="black" stroke="black" stroke-width="2" points="1425.46,-177.53 1431,-168.5 1421.04,-172.11 1425.46,-177.53"/>
</g>
<!-- TofMask -->
<g id="node11" class="node">
<title>TofMask</title>
<polygon fill="none" stroke="black" points="1263.5,-262 1186.5,-262 1186.5,-239 1263.5,-239 1263.5,-262"/>
<text text-anchor="middle" x="1225" y="-246.8" font-family="Times,serif" font-size="14.00">TofMask</text>
</g>
<!-- TofMask&#45;&gt;CorrectedDetector[SampleRun] -->
<g id="edge7" class="edge">
<title>TofMask:e&#45;&gt;CorrectedDetector[SampleRun]:w</title>
<path fill="none" stroke="black" stroke-width="2" d="M1265,-250.5C1310.24,-250.5 1324.77,-252.19 1365,-231.5 1397.82,-214.62 1396.63,-193.33 1422.49,-174.12"/>
<polygon fill="black" stroke="black" stroke-width="2" points="1424.59,-176.93 1431,-168.5 1420.73,-171.09 1424.59,-176.93"/>
</g>
<!-- WavelengthMask -->
<g id="node12" class="node">
<title>WavelengthMask</title>
<polygon fill="none" stroke="black" points="1294.5,-126 1155.5,-126 1155.5,-103 1294.5,-103 1294.5,-126"/>
<text text-anchor="middle" x="1225" y="-110.8" font-family="Times,serif" font-size="14.00">WavelengthMask</text>
</g>
<!-- WavelengthMask&#45;&gt;CorrectedDetector[SampleRun] -->
<g id="edge8" class="edge">
<title>WavelengthMask:e&#45;&gt;CorrectedDetector[SampleRun]:w</title>
<path fill="none" stroke="black" stroke-width="2" d="M1296,-114.5C1355.6,-114.5 1381.05,-134.53 1421.3,-145.88"/>
<polygon fill="black" stroke="black" stroke-width="2" points="1420.45,-149.28 1431,-148.36 1422.18,-142.49 1420.45,-149.28"/>
</g>
<!-- TwoThetaMask -->
<g id="node13" class="node">
<title>TwoThetaMask</title>
<polygon fill="none" stroke="black" points="1287.5,-99 1162.5,-99 1162.5,-76 1287.5,-76 1287.5,-99"/>
<text text-anchor="middle" x="1225" y="-83.8" font-family="Times,serif" font-size="14.00">TwoThetaMask</text>
</g>
<!-- TwoThetaMask&#45;&gt;CorrectedDetector[SampleRun] -->
<g id="edge9" class="edge">
<title>TwoThetaMask:e&#45;&gt;CorrectedDetector[SampleRun]:w</title>
<path fill="none" stroke="black" stroke-width="2" d="M1288,-87.5C1322.95,-87.5 1331.7,-92.87 1365,-103.5 1392.09,-112.15 1406.83,-125.11 1422.27,-135.68"/>
<polygon fill="black" stroke="black" stroke-width="2" points="1420.69,-138.82 1431,-141.25 1424.46,-132.92 1420.69,-138.82"/>
</g>
<!-- CorrectedDetector[VanadiumRun] -->
<g id="node15" class="node">
<title>CorrectedDetector[VanadiumRun]</title>
<polygon fill="none" stroke="black" points="1583,-189 1473,-189 1473,-168 1583,-168 1583,-189"/>
<text text-anchor="start" x="1481" y="-175.4" font-family="Times,serif" font-size="12.00">[VanadiumRun]</text>
</g>
<!-- WavelengthDetector[VanadiumRun]&#45;&gt;CorrectedDetector[VanadiumRun] -->
<g id="edge10" class="edge">
<title>WavelengthDetector[VanadiumRun]:e&#45;&gt;CorrectedDetector[VanadiumRun]:w</title>
<path fill="none" stroke="black" d="M1281,-178.5C1362.41,-178.5 1385.26,-178.5 1461.87,-178.5"/>
<polygon fill="black" stroke="black" points="1462,-182 1472,-178.5 1462,-175 1462,-182"/>
</g>
<!-- CorrectedDspacing[VanadiumRun] -->
<g id="node19" class="node">
<title>CorrectedDspacing[VanadiumRun]</title>
<polygon fill="none" stroke="black" points="1857,-190 1747,-190 1747,-169 1857,-169 1857,-190"/>
<text text-anchor="start" x="1755" y="-176.4" font-family="Times,serif" font-size="12.00">[VanadiumRun]</text>
</g>
<!-- CorrectedDetector[VanadiumRun]&#45;&gt;CorrectedDspacing[VanadiumRun] -->
<g id="edge14" class="edge">
<title>CorrectedDetector[VanadiumRun]:e&#45;&gt;CorrectedDspacing[VanadiumRun]:w</title>
<path fill="none" stroke="black" d="M1584,-178.5C1652.49,-178.5 1672.11,-179.4 1735.83,-179.49"/>
<polygon fill="black" stroke="black" points="1736,-182.99 1746,-179.5 1736,-175.99 1736,-182.99"/>
</g>
<!-- CorrectedDspacing[SampleRun]&#45;&gt;NormalizedDspacing[SampleRun] -->
<g id="edge28" class="edge">
<title>CorrectedDspacing[SampleRun]:e&#45;&gt;NormalizedDspacing[SampleRun]:w</title>
<path fill="none" stroke="black" d="M1851,-154.5C1884.6,-154.5 1893.9,-146.93 1922,-128.5 1954.33,-107.3 1949.11,-85.82 1982,-65.5 1998.2,-55.49 2005.64,-51.73 2020.95,-50.77"/>
<polygon fill="black" stroke="black" points="2021.1,-54.27 2031,-50.5 2020.91,-47.27 2021.1,-54.27"/>
</g>
<!-- DspacingBins -->
<g id="node17" class="node">
<title>DspacingBins</title>
<polygon fill="none" stroke="black" points="1585,-356 1471,-356 1471,-333 1585,-333 1585,-356"/>
<text text-anchor="middle" x="1528" y="-340.8" font-family="Times,serif" font-size="14.00">DspacingBins</text>
</g>
<!-- DspacingBins&#45;&gt;CorrectedDspacing[SampleRun] -->
<g id="edge12" class="edge">
<title>DspacingBins:e&#45;&gt;CorrectedDspacing[SampleRun]:w</title>
<path fill="none" stroke="black" stroke-width="2" d="M1586,-344.5C1671.45,-344.5 1620.13,-236.61 1675.68,-176.57"/>
<polygon fill="black" stroke="black" stroke-width="2" points="1678.24,-178.97 1683,-169.5 1673.38,-173.93 1678.24,-178.97"/>
</g>
<!-- KeepEvents[SampleRun] -->
<g id="node18" class="node">
<title>KeepEvents[SampleRun]</title>
<polygon fill="none" stroke="black" points="1575.5,-268 1480.5,-268 1480.5,-247 1575.5,-247 1575.5,-268"/>
<text text-anchor="start" x="1488.5" y="-254.4" font-family="Times,serif" font-size="12.00">[SampleRun]</text>
</g>
<!-- KeepEvents[SampleRun]&#45;&gt;CorrectedDspacing[SampleRun] -->
<g id="edge13" class="edge">
<title>KeepEvents[SampleRun]:e&#45;&gt;CorrectedDspacing[SampleRun]:w</title>
<path fill="none" stroke="black" d="M1577,-257.5C1638.23,-257.5 1629.71,-199.65 1683,-169.5 1707.55,-155.61 1718.59,-154.56 1742.95,-154.5"/>
<polygon fill="black" stroke="black" points="1743,-158 1753,-154.5 1743,-151 1743,-158"/>
</g>
<!-- CorrectedDspacing[VanadiumRun]&#45;&gt;NormalizedDspacing[VanadiumRun] -->
<g id="edge30" class="edge">
<title>CorrectedDspacing[VanadiumRun]:e&#45;&gt;NormalizedDspacing[VanadiumRun]:w</title>
<path fill="none" stroke="black" d="M1858,-179.5C1887.12,-179.5 1896.03,-178.67 1922,-165.5 1972.66,-139.82 1964.8,-82.96 2013.79,-76.17"/>
<polygon fill="black" stroke="black" points="2014.25,-79.64 2024,-75.5 2013.79,-72.66 2014.25,-79.64"/>
</g>
<!-- KeepEvents[VanadiumRun] -->
<g id="node20" class="node">
<title>KeepEvents[VanadiumRun]</title>
<polygon fill="none" stroke="black" points="1583,-293 1473,-293 1473,-272 1583,-272 1583,-293"/>
<text text-anchor="start" x="1481" y="-279.4" font-family="Times,serif" font-size="12.00">[VanadiumRun]</text>
</g>
<!-- KeepEvents[VanadiumRun]&#45;&gt;CorrectedDspacing[VanadiumRun] -->
<g id="edge15" class="edge">
<title>KeepEvents[VanadiumRun]:e&#45;&gt;CorrectedDspacing[VanadiumRun]:w</title>
<path fill="none" stroke="black" d="M1584,-282.5C1665.82,-282.5 1661.23,-187.78 1735.96,-180.01"/>
<polygon fill="black" stroke="black" points="1736.19,-183.5 1746,-179.5 1735.84,-176.51 1736.19,-183.5"/>
</g>
<!-- NeXusName[NXdetector] -->
<g id="node21" class="node">
<title>NeXusName[NXdetector]</title>
<polygon fill="none" stroke="black" points="395,-73 198,-73 198,-50 395,-50 395,-73"/>
<text text-anchor="middle" x="296.5" y="-57.8" font-family="Times,serif" font-size="14.00">NeXusName[NXdetector]</text>
</g>
<!-- NeXusName[NXdetector]&#45;&gt;DetectorBankSizes -->
<g id="edge16" class="edge">
<title>NeXusName[NXdetector]:e&#45;&gt;DetectorBankSizes:w</title>
<path fill="none" stroke="black" d="M395,-61.5C423.38,-61.5 432.88,-61.5 456.98,-61.5"/>
<polygon fill="black" stroke="black" points="457,-65 467,-61.5 457,-58 457,-65"/>
</g>
<!-- Position[NXsource, SampleRun] -->
<g id="node22" class="node">
<title>Position[NXsource, SampleRun]</title>
<polygon fill="none" stroke="black" points="649,-201 488,-201 488,-170 649,-170 649,-201"/>
<text text-anchor="start" x="496" y="-188.4" font-family="Times,serif" font-size="12.00">[NXsource, SampleRun]</text>
<text text-anchor="start" x="514" y="-177.2" font-family="Times,serif" font-size="11.00">via:</text>
<text text-anchor="start" x="535" y="-177.2" font-family="Times,serif" font-style="italic" font-size="11.00">source_position</text>
</g>
<!-- ElasticCoordTransformGraph[SampleRun] -->
<g id="node23" class="node">
<title>ElasticCoordTransformGraph[SampleRun]</title>
<polygon fill="none" stroke="black" points="925.5,-207 830.5,-207 830.5,-186 925.5,-186 925.5,-207"/>
<text text-anchor="start" x="838.5" y="-193.4" font-family="Times,serif" font-size="12.00">[SampleRun]</text>
</g>
<!-- Position[NXsource, SampleRun]&#45;&gt;ElasticCoordTransformGraph[SampleRun] -->
<g id="edge17" class="edge">
<title>Position[NXsource, SampleRun]:e&#45;&gt;ElasticCoordTransformGraph[SampleRun]:w</title>
<path fill="none" stroke="black" d="M650.5,-185.5C726.41,-185.5 747.64,-195.53 818.64,-196.44"/>
<polygon fill="black" stroke="black" points="818.98,-199.94 829,-196.5 819.02,-192.94 818.98,-199.94"/>
</g>
<!-- ElasticCoordTransformGraph[SampleRun]&#45;&gt;WavelengthDetector[SampleRun] -->
<g id="edge42" class="edge">
<title>ElasticCoordTransformGraph[SampleRun]:e&#45;&gt;WavelengthDetector[SampleRun]:w</title>
<path fill="none" stroke="black" d="M927,-196.5C1035.8,-196.5 1062.09,-156.15 1165.72,-153.62"/>
<polygon fill="black" stroke="black" points="1166.04,-157.12 1176,-153.5 1165.96,-150.12 1166.04,-157.12"/>
</g>
<!-- Position[NXsample, SampleRun] -->
<g id="node24" class="node">
<title>Position[NXsample, SampleRun]</title>
<polygon fill="none" stroke="black" points="650.5,-236 486.5,-236 486.5,-205 650.5,-205 650.5,-236"/>
<text text-anchor="start" x="494.5" y="-223.4" font-family="Times,serif" font-size="12.00">[NXsample, SampleRun]</text>
<text text-anchor="start" x="512.5" y="-212.2" font-family="Times,serif" font-size="11.00">via:</text>
<text text-anchor="start" x="533.5" y="-212.2" font-family="Times,serif" font-style="italic" font-size="11.00">sample_position</text>
</g>
<!-- Position[NXsample, SampleRun]&#45;&gt;ElasticCoordTransformGraph[SampleRun] -->
<g id="edge18" class="edge">
<title>Position[NXsample, SampleRun]:e&#45;&gt;ElasticCoordTransformGraph[SampleRun]:w</title>
<path fill="none" stroke="black" d="M651.5,-220.5C727.53,-220.5 747.63,-198.61 818.63,-196.64"/>
<polygon fill="black" stroke="black" points="819.05,-200.14 829,-196.5 818.95,-193.14 819.05,-200.14"/>
</g>
<!-- GravityVector -->
<g id="node25" class="node">
<title>GravityVector</title>
<polygon fill="none" stroke="black" points="645.5,-153 491.5,-153 491.5,-120 645.5,-120 645.5,-153"/>
<text text-anchor="start" x="518.5" y="-138.8" font-family="Times,serif" font-size="14.00">GravityVector</text>
<text text-anchor="start" x="499.5" y="-127.2" font-family="Times,serif" font-size="11.00">via:</text>
<text text-anchor="start" x="520.5" y="-127.2" font-family="Times,serif" font-style="italic" font-size="11.00">gravity_vector_neg_y</text>
</g>
<!-- GravityVector&#45;&gt;ElasticCoordTransformGraph[SampleRun] -->
<g id="edge19" class="edge">
<title>GravityVector:e&#45;&gt;ElasticCoordTransformGraph[SampleRun]:w</title>
<path fill="none" stroke="black" stroke-width="2" d="M646.5,-136.5C691.71,-136.5 699.03,-157.47 742,-171.5 744.41,-172.29 746.71,-173.08 748.9,-173.86"/>
<polygon fill="black" stroke="black" stroke-width="2" points="747.88,-177.22 758.47,-177.5 750.36,-170.67 747.88,-177.22"/>
</g>
<!-- Position[NXsource, VanadiumRun] -->
<g id="node26" class="node">
<title>Position[NXsource, VanadiumRun]</title>
<polygon fill="none" stroke="black" points="656.5,-271 480.5,-271 480.5,-240 656.5,-240 656.5,-271"/>
<text text-anchor="start" x="488.5" y="-258.4" font-family="Times,serif" font-size="12.00">[NXsource, VanadiumRun]</text>
<text text-anchor="start" x="514" y="-247.2" font-family="Times,serif" font-size="11.00">via:</text>
<text text-anchor="start" x="535" y="-247.2" font-family="Times,serif" font-style="italic" font-size="11.00">source_position</text>
</g>
<!-- ElasticCoordTransformGraph[VanadiumRun] -->
<g id="node27" class="node">
<title>ElasticCoordTransformGraph[VanadiumRun]</title>
<polygon fill="none" stroke="black" points="933,-232 823,-232 823,-211 933,-211 933,-232"/>
<text text-anchor="start" x="831" y="-218.4" font-family="Times,serif" font-size="12.00">[VanadiumRun]</text>
</g>
<!-- Position[NXsource, VanadiumRun]&#45;&gt;ElasticCoordTransformGraph[VanadiumRun] -->
<g id="edge20" class="edge">
<title>Position[NXsource, VanadiumRun]:e&#45;&gt;ElasticCoordTransformGraph[VanadiumRun]:w</title>
<path fill="none" stroke="black" d="M657.5,-255.5C728.66,-255.5 745.79,-224.61 811.88,-221.72"/>
<polygon fill="black" stroke="black" points="812.08,-225.21 822,-221.5 811.93,-218.22 812.08,-225.21"/>
</g>
<!-- ElasticCoordTransformGraph[VanadiumRun]&#45;&gt;WavelengthDetector[VanadiumRun] -->
<g id="edge45" class="edge">
<title>ElasticCoordTransformGraph[VanadiumRun]:e&#45;&gt;WavelengthDetector[VanadiumRun]:w</title>
<path fill="none" stroke="black" d="M934,-221.5C1036.76,-221.5 1061.28,-181.23 1158.99,-178.63"/>
<polygon fill="black" stroke="black" points="1159.05,-182.13 1169,-178.5 1158.95,-175.13 1159.05,-182.13"/>
</g>
<!-- Position[NXsample, VanadiumRun] -->
<g id="node28" class="node">
<title>Position[NXsample, VanadiumRun]</title>
<polygon fill="none" stroke="black" points="658,-306 479,-306 479,-275 658,-275 658,-306"/>
<text text-anchor="start" x="487" y="-293.4" font-family="Times,serif" font-size="12.00">[NXsample, VanadiumRun]</text>
<text text-anchor="start" x="512.5" y="-282.2" font-family="Times,serif" font-size="11.00">via:</text>
<text text-anchor="start" x="533.5" y="-282.2" font-family="Times,serif" font-style="italic" font-size="11.00">sample_position</text>
</g>
<!-- Position[NXsample, VanadiumRun]&#45;&gt;ElasticCoordTransformGraph[VanadiumRun] -->
<g id="edge21" class="edge">
<title>Position[NXsample, VanadiumRun]:e&#45;&gt;ElasticCoordTransformGraph[VanadiumRun]:w</title>
<path fill="none" stroke="black" d="M659.5,-290.5C734.44,-290.5 742.89,-227.56 811.85,-221.91"/>
<polygon fill="black" stroke="black" points="812.15,-225.4 822,-221.5 811.87,-218.4 812.15,-225.4"/>
</g>
<!-- Filename[SampleRun] -->
<g id="node29" class="node">
<title>Filename[SampleRun]</title>
<polygon fill="none" stroke="black" points="118.5,-213 23.5,-213 23.5,-192 118.5,-192 118.5,-213"/>
<text text-anchor="start" x="31.5" y="-199.4" font-family="Times,serif" font-size="12.00">[SampleRun]</text>
</g>
<!-- RawDataAndMetadata[SampleRun] -->
<g id="node38" class="node">
<title>RawDataAndMetadata[SampleRun]</title>
<polygon fill="none" stroke="black" points="344,-213 249,-213 249,-192 344,-192 344,-213"/>
<text text-anchor="start" x="257" y="-199.4" font-family="Times,serif" font-size="12.00">[SampleRun]</text>
</g>
<!-- Filename[SampleRun]&#45;&gt;RawDataAndMetadata[SampleRun] -->
<g id="edge36" class="edge">
<title>Filename[SampleRun]:e&#45;&gt;RawDataAndMetadata[SampleRun]:w</title>
<path fill="none" stroke="black" d="M120,-202.5C173.12,-202.5 188.9,-202.5 237.35,-202.5"/>
<polygon fill="black" stroke="black" points="237.5,-206 247.5,-202.5 237.5,-199 237.5,-206"/>
</g>
<!-- Filename[VanadiumRun] -->
<g id="node30" class="node">
<title>Filename[VanadiumRun]</title>
<polygon fill="none" stroke="black" points="126,-238 16,-238 16,-217 126,-217 126,-238"/>
<text text-anchor="start" x="24" y="-224.4" font-family="Times,serif" font-size="12.00">[VanadiumRun]</text>
</g>
<!-- RawDataAndMetadata[VanadiumRun] -->
<g id="node39" class="node">
<title>RawDataAndMetadata[VanadiumRun]</title>
<polygon fill="none" stroke="black" points="351.5,-238 241.5,-238 241.5,-217 351.5,-217 351.5,-238"/>
<text text-anchor="start" x="249.5" y="-224.4" font-family="Times,serif" font-size="12.00">[VanadiumRun]</text>
</g>
<!-- Filename[VanadiumRun]&#45;&gt;RawDataAndMetadata[VanadiumRun] -->
<g id="edge37" class="edge">
<title>Filename[VanadiumRun]:e&#45;&gt;RawDataAndMetadata[VanadiumRun]:w</title>
<path fill="none" stroke="black" d="M127,-227.5C173.9,-227.5 188.1,-227.5 230.39,-227.5"/>
<polygon fill="black" stroke="black" points="230.5,-231 240.5,-227.5 230.5,-224 230.5,-231"/>
</g>
<!-- FocussedDataDspacingTwoTheta[SampleRun] -->
<g id="node32" class="node">
<title>FocussedDataDspacingTwoTheta[SampleRun]</title>
<polygon fill="none" stroke="black" points="2420.5,-61 2325.5,-61 2325.5,-40 2420.5,-40 2420.5,-61"/>
<text text-anchor="start" x="2333.5" y="-47.4" font-family="Times,serif" font-size="12.00">[SampleRun]</text>
</g>
<!-- NormalizedDspacing[SampleRun]&#45;&gt;FocussedDataDspacingTwoTheta[SampleRun] -->
<g id="edge22" class="edge">
<title>NormalizedDspacing[SampleRun]:e&#45;&gt;FocussedDataDspacingTwoTheta[SampleRun]:w</title>
<path fill="none" stroke="black" d="M2129,-50.5C2212.11,-50.5 2235.45,-50.5 2313.66,-50.5"/>
<polygon fill="black" stroke="black" points="2314,-54 2324,-50.5 2314,-47 2314,-54"/>
</g>
<!-- IntensityDspacingTwoTheta[SampleRun] -->
<g id="node36" class="node">
<title>IntensityDspacingTwoTheta[SampleRun]</title>
<polygon fill="none" stroke="black" points="2883,-67 2571,-67 2571,-34 2883,-34 2883,-67"/>
<text text-anchor="start" x="2581" y="-52.8" font-family="Times,serif" font-size="14.00">IntensityDspacingTwoTheta[SampleRun]</text>
<text text-anchor="start" x="2579" y="-41.2" font-family="Times,serif" font-size="11.00">via:</text>
<text text-anchor="start" x="2600" y="-41.2" font-family="Times,serif" font-style="italic" font-size="11.00">normalize_by_vanadium_dspacing_and_two_theta</text>
</g>
<!-- FocussedDataDspacingTwoTheta[SampleRun]&#45;&gt;IntensityDspacingTwoTheta[SampleRun] -->
<g id="edge25" class="edge">
<title>FocussedDataDspacingTwoTheta[SampleRun]:e&#45;&gt;IntensityDspacingTwoTheta[SampleRun]:w</title>
<path fill="none" stroke="black" d="M2422,-50.5C2484.73,-50.5 2502.89,-50.5 2560.92,-50.5"/>
<polygon fill="black" stroke="black" points="2561,-54 2571,-50.5 2561,-47 2561,-54"/>
</g>
<!-- TwoThetaBins -->
<g id="node33" class="node">
<title>TwoThetaBins</title>
<polygon fill="none" stroke="black" points="2139,-23 2021,-23 2021,0 2139,0 2139,-23"/>
<text text-anchor="middle" x="2080" y="-7.8" font-family="Times,serif" font-size="14.00">TwoThetaBins</text>
</g>
<!-- TwoThetaBins&#45;&gt;FocussedDataDspacingTwoTheta[SampleRun] -->
<g id="edge23" class="edge">
<title>TwoThetaBins:e&#45;&gt;FocussedDataDspacingTwoTheta[SampleRun]:w</title>
<path fill="none" stroke="black" stroke-width="2" d="M2140,-11.5C2184.77,-11.5 2210.39,-22.69 2237.37,-33.08"/>
<polygon fill="black" stroke="black" stroke-width="2" points="2236.41,-36.46 2247,-36.7 2238.87,-29.91 2236.41,-36.46"/>
</g>
<!-- FocussedDataDspacingTwoTheta[VanadiumRun] -->
<g id="node35" class="node">
<title>FocussedDataDspacingTwoTheta[VanadiumRun]</title>
<polygon fill="none" stroke="black" points="2428,-86 2318,-86 2318,-65 2428,-65 2428,-86"/>
<text text-anchor="start" x="2326" y="-72.4" font-family="Times,serif" font-size="12.00">[VanadiumRun]</text>
</g>
<!-- NormalizedDspacing[VanadiumRun]&#45;&gt;FocussedDataDspacingTwoTheta[VanadiumRun] -->
<g id="edge24" class="edge">
<title>NormalizedDspacing[VanadiumRun]:e&#45;&gt;FocussedDataDspacingTwoTheta[VanadiumRun]:w</title>
<path fill="none" stroke="black" d="M2136,-75.5C2212.99,-75.5 2234.72,-75.5 2306.95,-75.5"/>
<polygon fill="black" stroke="black" points="2307,-79 2317,-75.5 2307,-72 2307,-79"/>
</g>
<!-- FocussedDataDspacingTwoTheta[VanadiumRun]&#45;&gt;IntensityDspacingTwoTheta[SampleRun] -->
<g id="edge26" class="edge">
<title>FocussedDataDspacingTwoTheta[VanadiumRun]:e&#45;&gt;IntensityDspacingTwoTheta[SampleRun]:w</title>
<path fill="none" stroke="black" d="M2429,-75.5C2489.58,-75.5 2505.25,-53.16 2560.92,-50.72"/>
<polygon fill="black" stroke="black" points="2561.08,-54.21 2571,-50.5 2560.93,-47.22 2561.08,-54.21"/>
</g>
<!-- UncertaintyBroadcastMode -->
<g id="node37" class="node">
<title>UncertaintyBroadcastMode</title>
<polygon fill="none" stroke="black" points="2480,-23 2266,-23 2266,0 2480,0 2480,-23"/>
<text text-anchor="middle" x="2373" y="-7.8" font-family="Times,serif" font-size="14.00">UncertaintyBroadcastMode</text>
</g>
<!-- UncertaintyBroadcastMode&#45;&gt;IntensityDspacingTwoTheta[SampleRun] -->
<g id="edge27" class="edge">
<title>UncertaintyBroadcastMode:e&#45;&gt;IntensityDspacingTwoTheta[SampleRun]:w</title>
<path fill="none" stroke="black" d="M2481,-11.5C2520.85,-11.5 2526.62,-44.08 2560.61,-49.69"/>
<polygon fill="black" stroke="black" points="2560.76,-53.21 2571,-50.5 2561.3,-46.23 2560.76,-53.21"/>
</g>
<!-- RawDataAndMetadata[SampleRun]&#45;&gt;TofDetector[SampleRun] -->
<g id="edge38" class="edge">
<title>RawDataAndMetadata[SampleRun]:e&#45;&gt;TofDetector[SampleRun]:w</title>
<path fill="none" stroke="black" d="M345.5,-202.5C434.08,-202.5 387.53,-83.64 467,-44.5 608.25,25.07 665.61,-47.26 818.77,-50.4"/>
<polygon fill="black" stroke="black" points="818.96,-53.9 829,-50.5 819.04,-46.9 818.96,-53.9"/>
</g>
<!-- RawDataAndMetadata[SampleRun]&#45;&gt;Position[NXsource, SampleRun] -->
<g id="edge34" class="edge">
<title>RawDataAndMetadata[SampleRun]:e&#45;&gt;Position[NXsource, SampleRun]:w</title>
<path fill="none" stroke="black" d="M345.5,-202.5C405.05,-202.5 421.55,-187.37 476.22,-185.66"/>
<polygon fill="black" stroke="black" points="476.55,-189.15 486.5,-185.5 476.45,-182.15 476.55,-189.15"/>
</g>
<!-- RawDataAndMetadata[SampleRun]&#45;&gt;Position[NXsample, SampleRun] -->
<g id="edge32" class="edge">
<title>RawDataAndMetadata[SampleRun]:e&#45;&gt;Position[NXsample, SampleRun]:w</title>
<path fill="none" stroke="black" d="M345.5,-202.5C404.68,-202.5 420.96,-218.52 475.29,-220.33"/>
<polygon fill="black" stroke="black" points="475.44,-223.84 485.5,-220.5 475.56,-216.84 475.44,-223.84"/>
</g>
<!-- RawDataAndMetadata[VanadiumRun]&#45;&gt;TofDetector[VanadiumRun] -->
<g id="edge40" class="edge">
<title>RawDataAndMetadata[VanadiumRun]:e&#45;&gt;TofDetector[VanadiumRun]:w</title>
<path fill="none" stroke="black" d="M352.5,-227.5C372.39,-227.5 379.49,-225.94 395,-213.5 443.81,-174.34 413.36,-124.72 467,-92.5 482.57,-83.15 753.21,-76.62 811.82,-75.63"/>
<polygon fill="black" stroke="black" points="812.05,-79.13 822,-75.5 811.96,-72.13 812.05,-79.13"/>
</g>
<!-- RawDataAndMetadata[VanadiumRun]&#45;&gt;Position[NXsource, VanadiumRun] -->
<g id="edge35" class="edge">
<title>RawDataAndMetadata[VanadiumRun]:e&#45;&gt;Position[NXsource, VanadiumRun]:w</title>
<path fill="none" stroke="black" d="M352.5,-227.5C406.8,-227.5 420.15,-252.21 469.49,-255.2"/>
<polygon fill="black" stroke="black" points="469.4,-258.7 479.5,-255.5 469.61,-251.71 469.4,-258.7"/>
</g>
<!-- RawDataAndMetadata[VanadiumRun]&#45;&gt;Position[NXsample, VanadiumRun] -->
<g id="edge33" class="edge">
<title>RawDataAndMetadata[VanadiumRun]:e&#45;&gt;Position[NXsample, VanadiumRun]:w</title>
<path fill="none" stroke="black" d="M352.5,-227.5C411.19,-227.5 415.02,-283.57 467.5,-289.92"/>
<polygon fill="black" stroke="black" points="467.31,-293.41 477.5,-290.5 467.72,-286.42 467.31,-293.41"/>
</g>
</g>
</svg>
