<?xml version="1.0" encoding="utf-8" standalone="no"?>
<!DOCTYPE svg PUBLIC "-//W3C//DTD SVG 1.1//EN"
  "http://www.w3.org/Graphics/SVG/1.1/DTD/svg11.dtd">
<svg xmlns:xlink="http://www.w3.org/1999/xlink" width="382.603125pt" height="283.31875pt" viewBox="0 0 382.603125 283.31875" xmlns="http://www.w3.org/2000/svg" version="1.1">
 <metadata>
  <rdf:RDF xmlns:dc="http://purl.org/dc/elements/1.1/" xmlns:cc="http://creativecommons.org/ns#" xmlns:rdf="http://www.w3.org/1999/02/22-rdf-syntax-ns#">
   <cc:Work>
    <dc:type rdf:resource="http://purl.org/dc/dcmitype/StillImage"/>
    <dc:date>2026-03-02T09:55:38.073625</dc:date>
    <dc:format>image/svg+xml</dc:format>
    <dc:creator>
     <cc:Agent>
      <dc:title>Matplotlib v3.10.8, https://matplotlib.org/</dc:title>
     </cc:Agent>
    </dc:creator>
   </cc:Work>
  </rdf:RDF>
 </metadata>
 <defs>
  <style type="text/css">*{stroke-linejoin: round; stroke-linecap: butt}</style>
 </defs>
 <g id="figure_1">
  <g id="patch_1">
   <path d="M 0 283.31875 
L 382.603125 283.31875 
L 382.603125 0 
L 0 0 
z
" style="fill: #ffffff"/>
  </g>
  <g id="axes_1">
   <g id="patch_2">
    <path d="M 40.603125 244.078125 
L 375.403125 244.078125 
L 375.403125 22.318125 
L 40.603125 22.318125 
z
" style="fill: #ffffff"/>
   </g>
   <g id="matplotlib.axis_1">
    <g id="xtick_1">
     <g id="line2d_1">
      <defs>
       <path id="meca903f575" d="M 0 0 
L 0 3.5 
" style="stroke: #000000; stroke-width: 0.8"/>
      </defs>
      <g>
       <use xlink:href="#meca903f575" x="48.373826" y="244.078125" style="stroke: #000000; stroke-width: 0.8"/>
      </g>
     </g>
     <g id="text_1">
      <!-- 0.25 -->
      <g transform="translate(37.241014 258.676563) scale(0.1 -0.1)">
       <defs>
        <path id="DejaVuSans-30" d="M 2034 4250 
Q 1547 4250 1301 3770 
Q 1056 3291 1056 2328 
Q 1056 1369 1301 889 
Q 1547 409 2034 409 
Q 2525 409 2770 889 
Q 3016 1369 3016 2328 
Q 3016 3291 2770 3770 
Q 2525 4250 2034 4250 
z
M 2034 4750 
Q 2819 4750 3233 4129 
Q 3647 3509 3647 2328 
Q 3647 1150 3233 529 
Q 2819 -91 2034 -91 
Q 1250 -91 836 529 
Q 422 1150 422 2328 
Q 422 3509 836 4129 
Q 1250 4750 2034 4750 
z
" transform="scale(0.015625)"/>
        <path id="DejaVuSans-2e" d="M 684 794 
L 1344 794 
L 1344 0 
L 684 0 
L 684 794 
z
" transform="scale(0.015625)"/>
        <path id="DejaVuSans-32" d="M 1228 531 
L 3431 531 
L 3431 0 
L 469 0 
L 469 531 
Q 828 903 1448 1529 
Q 2069 2156 2228 2338 
Q 2531 2678 2651 2914 
Q 2772 3150 2772 3378 
Q 2772 3750 2511 3984 
Q 2250 4219 1831 4219 
Q 1534 4219 1204 4116 
Q 875 4013 500 3803 
L 500 4441 
Q 881 4594 1212 4672 
Q 1544 4750 1819 4750 
Q 2544 4750 2975 4387 
Q 3406 4025 3406 3419 
Q 3406 3131 3298 2873 
Q 3191 2616 2906 2266 
Q 2828 2175 2409 1742 
Q 1991 1309 1228 531 
z
" transform="scale(0.015625)"/>
        <path id="DejaVuSans-35" d="M 691 4666 
L 3169 4666 
L 3169 4134 
L 1269 4134 
L 1269 2991 
Q 1406 3038 1543 3061 
Q 1681 3084 1819 3084 
Q 2600 3084 3056 2656 
Q 3513 2228 3513 1497 
Q 3513 744 3044 326 
Q 2575 -91 1722 -91 
Q 1428 -91 1123 -41 
Q 819 9 494 109 
L 494 744 
Q 775 591 1075 516 
Q 1375 441 1709 441 
Q 2250 441 2565 725 
Q 2881 1009 2881 1497 
Q 2881 1984 2565 2268 
Q 2250 2553 1709 2553 
Q 1456 2553 1204 2497 
Q 953 2441 691 2322 
L 691 4666 
z
" transform="scale(0.015625)"/>
       </defs>
       <use xlink:href="#DejaVuSans-30"/>
       <use xlink:href="#DejaVuSans-2e" transform="translate(63.623047 0)"/>
       <use xlink:href="#DejaVuSans-32" transform="translate(95.410156 0)"/>
       <use xlink:href="#DejaVuSans-35" transform="translate(159.033203 0)"/>
      </g>
     </g>
    </g>
    <g id="xtick_2">
     <g id="line2d_2">
      <g>
       <use xlink:href="#meca903f575" x="85.611229" y="244.078125" style="stroke: #000000; stroke-width: 0.8"/>
      </g>
     </g>
     <g id="text_2">
      <!-- 0.50 -->
      <g transform="translate(74.478417 258.676563) scale(0.1 -0.1)">
       <use xlink:href="#DejaVuSans-30"/>
       <use xlink:href="#DejaVuSans-2e" transform="translate(63.623047 0)"/>
       <use xlink:href="#DejaVuSans-35" transform="translate(95.410156 0)"/>
       <use xlink:href="#DejaVuSans-30" transform="translate(159.033203 0)"/>
      </g>
     </g>
    </g>
    <g id="xtick_3">
     <g id="line2d_3">
      <g>
       <use xlink:href="#meca903f575" x="122.848632" y="244.078125" style="stroke: #000000; stroke-width: 0.8"/>
      </g>
     </g>
     <g id="text_3">
      <!-- 0.75 -->
      <g transform="translate(111.71582 258.676563) scale(0.1 -0.1)">
       <defs>
        <path id="DejaVuSans-37" d="M 525 4666 
L 3525 4666 
L 3525 4397 
L 1831 0 
L 1172 0 
L 2766 4134 
L 525 4134 
L 525 4666 
z
" transform="scale(0.015625)"/>
       </defs>
       <use xlink:href="#DejaVuSans-30"/>
       <use xlink:href="#DejaVuSans-2e" transform="translate(63.623047 0)"/>
       <use xlink:href="#DejaVuSans-37" transform="translate(95.410156 0)"/>
       <use xlink:href="#DejaVuSans-35" transform="translate(159.033203 0)"/>
      </g>
     </g>
    </g>
    <g id="xtick_4">
     <g id="line2d_4">
      <g>
       <use xlink:href="#meca903f575" x="160.086035" y="244.078125" style="stroke: #000000; stroke-width: 0.8"/>
      </g>
     </g>
     <g id="text_4">
      <!-- 1.00 -->
      <g transform="translate(148.953222 258.676563) scale(0.1 -0.1)">
       <defs>
        <path id="DejaVuSans-31" d="M 794 531 
L 1825 531 
L 1825 4091 
L 703 3866 
L 703 4441 
L 1819 4666 
L 2450 4666 
L 2450 531 
L 3481 531 
L 3481 0 
L 794 0 
L 794 531 
z
" transform="scale(0.015625)"/>
       </defs>
       <use xlink:href="#DejaVuSans-31"/>
       <use xlink:href="#DejaVuSans-2e" transform="translate(63.623047 0)"/>
       <use xlink:href="#DejaVuSans-30" transform="translate(95.410156 0)"/>
       <use xlink:href="#DejaVuSans-30" transform="translate(159.033203 0)"/>
      </g>
     </g>
    </g>
    <g id="xtick_5">
     <g id="line2d_5">
      <g>
       <use xlink:href="#meca903f575" x="197.323438" y="244.078125" style="stroke: #000000; stroke-width: 0.8"/>
      </g>
     </g>
     <g id="text_5">
      <!-- 1.25 -->
      <g transform="translate(186.190625 258.676563) scale(0.1 -0.1)">
       <use xlink:href="#DejaVuSans-31"/>
       <use xlink:href="#DejaVuSans-2e" transform="translate(63.623047 0)"/>
       <use xlink:href="#DejaVuSans-32" transform="translate(95.410156 0)"/>
       <use xlink:href="#DejaVuSans-35" transform="translate(159.033203 0)"/>
      </g>
     </g>
    </g>
    <g id="xtick_6">
     <g id="line2d_6">
      <g>
       <use xlink:href="#meca903f575" x="234.560841" y="244.078125" style="stroke: #000000; stroke-width: 0.8"/>
      </g>
     </g>
     <g id="text_6">
      <!-- 1.50 -->
      <g transform="translate(223.428028 258.676563) scale(0.1 -0.1)">
       <use xlink:href="#DejaVuSans-31"/>
       <use xlink:href="#DejaVuSans-2e" transform="translate(63.623047 0)"/>
       <use xlink:href="#DejaVuSans-35" transform="translate(95.410156 0)"/>
       <use xlink:href="#DejaVuSans-30" transform="translate(159.033203 0)"/>
      </g>
     </g>
    </g>
    <g id="xtick_7">
     <g id="line2d_7">
      <g>
       <use xlink:href="#meca903f575" x="271.798244" y="244.078125" style="stroke: #000000; stroke-width: 0.8"/>
      </g>
     </g>
     <g id="text_7">
      <!-- 1.75 -->
      <g transform="translate(260.665431 258.676563) scale(0.1 -0.1)">
       <use xlink:href="#DejaVuSans-31"/>
       <use xlink:href="#DejaVuSans-2e" transform="translate(63.623047 0)"/>
       <use xlink:href="#DejaVuSans-37" transform="translate(95.410156 0)"/>
       <use xlink:href="#DejaVuSans-35" transform="translate(159.033203 0)"/>
      </g>
     </g>
    </g>
    <g id="xtick_8">
     <g id="line2d_8">
      <g>
       <use xlink:href="#meca903f575" x="309.035647" y="244.078125" style="stroke: #000000; stroke-width: 0.8"/>
      </g>
     </g>
     <g id="text_8">
      <!-- 2.00 -->
      <g transform="translate(297.902834 258.676563) scale(0.1 -0.1)">
       <use xlink:href="#DejaVuSans-32"/>
       <use xlink:href="#DejaVuSans-2e" transform="translate(63.623047 0)"/>
       <use xlink:href="#DejaVuSans-30" transform="translate(95.410156 0)"/>
       <use xlink:href="#DejaVuSans-30" transform="translate(159.033203 0)"/>
      </g>
     </g>
    </g>
    <g id="xtick_9">
     <g id="line2d_9">
      <g>
       <use xlink:href="#meca903f575" x="346.273049" y="244.078125" style="stroke: #000000; stroke-width: 0.8"/>
      </g>
     </g>
     <g id="text_9">
      <!-- 2.25 -->
      <g transform="translate(335.140237 258.676563) scale(0.1 -0.1)">
       <use xlink:href="#DejaVuSans-32"/>
       <use xlink:href="#DejaVuSans-2e" transform="translate(63.623047 0)"/>
       <use xlink:href="#DejaVuSans-32" transform="translate(95.410156 0)"/>
       <use xlink:href="#DejaVuSans-35" transform="translate(159.033203 0)"/>
      </g>
     </g>
    </g>
    <g id="text_10">
     <!-- dspacing [Å] -->
     <g transform="translate(176.59375 274.039062) scale(0.1 -0.1)">
      <defs>
       <path id="DejaVuSans-64" d="M 2906 2969 
L 2906 4863 
L 3481 4863 
L 3481 0 
L 2906 0 
L 2906 525 
Q 2725 213 2448 61 
Q 2172 -91 1784 -91 
Q 1150 -91 751 415 
Q 353 922 353 1747 
Q 353 2572 751 3078 
Q 1150 3584 1784 3584 
Q 2172 3584 2448 3432 
Q 2725 3281 2906 2969 
z
M 947 1747 
Q 947 1113 1208 752 
Q 1469 391 1925 391 
Q 2381 391 2643 752 
Q 2906 1113 2906 1747 
Q 2906 2381 2643 2742 
Q 2381 3103 1925 3103 
Q 1469 3103 1208 2742 
Q 947 2381 947 1747 
z
" transform="scale(0.015625)"/>
       <path id="DejaVuSans-73" d="M 2834 3397 
L 2834 2853 
Q 2591 2978 2328 3040 
Q 2066 3103 1784 3103 
Q 1356 3103 1142 2972 
Q 928 2841 928 2578 
Q 928 2378 1081 2264 
Q 1234 2150 1697 2047 
L 1894 2003 
Q 2506 1872 2764 1633 
Q 3022 1394 3022 966 
Q 3022 478 2636 193 
Q 2250 -91 1575 -91 
Q 1294 -91 989 -36 
Q 684 19 347 128 
L 347 722 
Q 666 556 975 473 
Q 1284 391 1588 391 
Q 1994 391 2212 530 
Q 2431 669 2431 922 
Q 2431 1156 2273 1281 
Q 2116 1406 1581 1522 
L 1381 1569 
Q 847 1681 609 1914 
Q 372 2147 372 2553 
Q 372 3047 722 3315 
Q 1072 3584 1716 3584 
Q 2034 3584 2315 3537 
Q 2597 3491 2834 3397 
z
" transform="scale(0.015625)"/>
       <path id="DejaVuSans-70" d="M 1159 525 
L 1159 -1331 
L 581 -1331 
L 581 3500 
L 1159 3500 
L 1159 2969 
Q 1341 3281 1617 3432 
Q 1894 3584 2278 3584 
Q 2916 3584 3314 3078 
Q 3713 2572 3713 1747 
Q 3713 922 3314 415 
Q 2916 -91 2278 -91 
Q 1894 -91 1617 61 
Q 1341 213 1159 525 
z
M 3116 1747 
Q 3116 2381 2855 2742 
Q 2594 3103 2138 3103 
Q 1681 3103 1420 2742 
Q 1159 2381 1159 1747 
Q 1159 1113 1420 752 
Q 1681 391 2138 391 
Q 2594 391 2855 752 
Q 3116 1113 3116 1747 
z
" transform="scale(0.015625)"/>
       <path id="DejaVuSans-61" d="M 2194 1759 
Q 1497 1759 1228 1600 
Q 959 1441 959 1056 
Q 959 750 1161 570 
Q 1363 391 1709 391 
Q 2188 391 2477 730 
Q 2766 1069 2766 1631 
L 2766 1759 
L 2194 1759 
z
M 3341 1997 
L 3341 0 
L 2766 0 
L 2766 531 
Q 2569 213 2275 61 
Q 1981 -91 1556 -91 
Q 1019 -91 701 211 
Q 384 513 384 1019 
Q 384 1609 779 1909 
Q 1175 2209 1959 2209 
L 2766 2209 
L 2766 2266 
Q 2766 2663 2505 2880 
Q 2244 3097 1772 3097 
Q 1472 3097 1187 3025 
Q 903 2953 641 2809 
L 641 3341 
Q 956 3463 1253 3523 
Q 1550 3584 1831 3584 
Q 2591 3584 2966 3190 
Q 3341 2797 3341 1997 
z
" transform="scale(0.015625)"/>
       <path id="DejaVuSans-63" d="M 3122 3366 
L 3122 2828 
Q 2878 2963 2633 3030 
Q 2388 3097 2138 3097 
Q 1578 3097 1268 2742 
Q 959 2388 959 1747 
Q 959 1106 1268 751 
Q 1578 397 2138 397 
Q 2388 397 2633 464 
Q 2878 531 3122 666 
L 3122 134 
Q 2881 22 2623 -34 
Q 2366 -91 2075 -91 
Q 1284 -91 818 406 
Q 353 903 353 1747 
Q 353 2603 823 3093 
Q 1294 3584 2113 3584 
Q 2378 3584 2631 3529 
Q 2884 3475 3122 3366 
z
" transform="scale(0.015625)"/>
       <path id="DejaVuSans-69" d="M 603 3500 
L 1178 3500 
L 1178 0 
L 603 0 
L 603 3500 
z
M 603 4863 
L 1178 4863 
L 1178 4134 
L 603 4134 
L 603 4863 
z
" transform="scale(0.015625)"/>
       <path id="DejaVuSans-6e" d="M 3513 2113 
L 3513 0 
L 2938 0 
L 2938 2094 
Q 2938 2591 2744 2837 
Q 2550 3084 2163 3084 
Q 1697 3084 1428 2787 
Q 1159 2491 1159 1978 
L 1159 0 
L 581 0 
L 581 3500 
L 1159 3500 
L 1159 2956 
Q 1366 3272 1645 3428 
Q 1925 3584 2291 3584 
Q 2894 3584 3203 3211 
Q 3513 2838 3513 2113 
z
" transform="scale(0.015625)"/>
       <path id="DejaVuSans-67" d="M 2906 1791 
Q 2906 2416 2648 2759 
Q 2391 3103 1925 3103 
Q 1463 3103 1205 2759 
Q 947 2416 947 1791 
Q 947 1169 1205 825 
Q 1463 481 1925 481 
Q 2391 481 2648 825 
Q 2906 1169 2906 1791 
z
M 3481 434 
Q 3481 -459 3084 -895 
Q 2688 -1331 1869 -1331 
Q 1566 -1331 1297 -1286 
Q 1028 -1241 775 -1147 
L 775 -588 
Q 1028 -725 1275 -790 
Q 1522 -856 1778 -856 
Q 2344 -856 2625 -561 
Q 2906 -266 2906 331 
L 2906 616 
Q 2728 306 2450 153 
Q 2172 0 1784 0 
Q 1141 0 747 490 
Q 353 981 353 1791 
Q 353 2603 747 3093 
Q 1141 3584 1784 3584 
Q 2172 3584 2450 3431 
Q 2728 3278 2906 2969 
L 2906 3500 
L 3481 3500 
L 3481 434 
z
" transform="scale(0.015625)"/>
       <path id="DejaVuSans-20" transform="scale(0.015625)"/>
       <path id="DejaVuSans-5b" d="M 550 4863 
L 1875 4863 
L 1875 4416 
L 1125 4416 
L 1125 -397 
L 1875 -397 
L 1875 -844 
L 550 -844 
L 550 4863 
z
" transform="scale(0.015625)"/>
       <path id="DejaVuSans-c5" d="M 2663 5081 
Q 2663 5278 2523 5417 
Q 2384 5556 2188 5556 
Q 1988 5556 1852 5420 
Q 1716 5284 1716 5081 
Q 1716 4884 1853 4746 
Q 1991 4609 2188 4609 
Q 2384 4609 2523 4746 
Q 2663 4884 2663 5081 
z
M 2188 4044 
L 1338 1722 
L 3041 1722 
L 2188 4044 
z
M 1716 4366 
Q 1525 4494 1428 4673 
Q 1331 4853 1331 5081 
Q 1331 5441 1579 5691 
Q 1828 5941 2188 5941 
Q 2544 5941 2795 5689 
Q 3047 5438 3047 5081 
Q 3047 4863 2948 4678 
Q 2850 4494 2663 4366 
L 4325 0 
L 3669 0 
L 3244 1197 
L 1141 1197 
L 716 0 
L 50 0 
L 1716 4366 
z
" transform="scale(0.015625)"/>
       <path id="DejaVuSans-5d" d="M 1947 4863 
L 1947 -844 
L 622 -844 
L 622 -397 
L 1369 -397 
L 1369 4416 
L 622 4416 
L 622 4863 
L 1947 4863 
z
" transform="scale(0.015625)"/>
      </defs>
      <use xlink:href="#DejaVuSans-64"/>
      <use xlink:href="#DejaVuSans-73" transform="translate(63.476562 0)"/>
      <use xlink:href="#DejaVuSans-70" transform="translate(115.576172 0)"/>
      <use xlink:href="#DejaVuSans-61" transform="translate(179.052734 0)"/>
      <use xlink:href="#DejaVuSans-63" transform="translate(240.332031 0)"/>
      <use xlink:href="#DejaVuSans-69" transform="translate(295.3125 0)"/>
      <use xlink:href="#DejaVuSans-6e" transform="translate(323.095703 0)"/>
      <use xlink:href="#DejaVuSans-67" transform="translate(386.474609 0)"/>
      <use xlink:href="#DejaVuSans-20" transform="translate(449.951172 0)"/>
      <use xlink:href="#DejaVuSans-5b" transform="translate(481.738281 0)"/>
      <use xlink:href="#DejaVuSans-c5" transform="translate(520.751953 0)"/>
      <use xlink:href="#DejaVuSans-5d" transform="translate(589.160156 0)"/>
     </g>
    </g>
   </g>
   <g id="matplotlib.axis_2">
    <g id="ytick_1">
     <g id="line2d_10">
      <defs>
       <path id="m1b54b77357" d="M 0 0 
L -3.5 0 
" style="stroke: #000000; stroke-width: 0.8"/>
      </defs>
      <g>
       <use xlink:href="#m1b54b77357" x="40.603125" y="229.951911" style="stroke: #000000; stroke-width: 0.8"/>
      </g>
     </g>
     <g id="text_11">
      <!-- 0 -->
      <g transform="translate(27.240625 233.75113) scale(0.1 -0.1)">
       <use xlink:href="#DejaVuSans-30"/>
      </g>
     </g>
    </g>
    <g id="ytick_2">
     <g id="line2d_11">
      <g>
       <use xlink:href="#m1b54b77357" x="40.603125" y="189.531607" style="stroke: #000000; stroke-width: 0.8"/>
      </g>
     </g>
     <g id="text_12">
      <!-- 10 -->
      <g transform="translate(20.878125 193.330825) scale(0.1 -0.1)">
       <use xlink:href="#DejaVuSans-31"/>
       <use xlink:href="#DejaVuSans-30" transform="translate(63.623047 0)"/>
      </g>
     </g>
    </g>
    <g id="ytick_3">
     <g id="line2d_12">
      <g>
       <use xlink:href="#m1b54b77357" x="40.603125" y="149.111302" style="stroke: #000000; stroke-width: 0.8"/>
      </g>
     </g>
     <g id="text_13">
      <!-- 20 -->
      <g transform="translate(20.878125 152.910521) scale(0.1 -0.1)">
       <use xlink:href="#DejaVuSans-32"/>
       <use xlink:href="#DejaVuSans-30" transform="translate(63.623047 0)"/>
      </g>
     </g>
    </g>
    <g id="ytick_4">
     <g id="line2d_13">
      <g>
       <use xlink:href="#m1b54b77357" x="40.603125" y="108.690998" style="stroke: #000000; stroke-width: 0.8"/>
      </g>
     </g>
     <g id="text_14">
      <!-- 30 -->
      <g transform="translate(20.878125 112.490216) scale(0.1 -0.1)">
       <defs>
        <path id="DejaVuSans-33" d="M 2597 2516 
Q 3050 2419 3304 2112 
Q 3559 1806 3559 1356 
Q 3559 666 3084 287 
Q 2609 -91 1734 -91 
Q 1441 -91 1130 -33 
Q 819 25 488 141 
L 488 750 
Q 750 597 1062 519 
Q 1375 441 1716 441 
Q 2309 441 2620 675 
Q 2931 909 2931 1356 
Q 2931 1769 2642 2001 
Q 2353 2234 1838 2234 
L 1294 2234 
L 1294 2753 
L 1863 2753 
Q 2328 2753 2575 2939 
Q 2822 3125 2822 3475 
Q 2822 3834 2567 4026 
Q 2313 4219 1838 4219 
Q 1578 4219 1281 4162 
Q 984 4106 628 3988 
L 628 4550 
Q 988 4650 1302 4700 
Q 1616 4750 1894 4750 
Q 2613 4750 3031 4423 
Q 3450 4097 3450 3541 
Q 3450 3153 3228 2886 
Q 3006 2619 2597 2516 
z
" transform="scale(0.015625)"/>
       </defs>
       <use xlink:href="#DejaVuSans-33"/>
       <use xlink:href="#DejaVuSans-30" transform="translate(63.623047 0)"/>
      </g>
     </g>
    </g>
    <g id="ytick_5">
     <g id="line2d_14">
      <g>
       <use xlink:href="#m1b54b77357" x="40.603125" y="68.270693" style="stroke: #000000; stroke-width: 0.8"/>
      </g>
     </g>
     <g id="text_15">
      <!-- 40 -->
      <g transform="translate(20.878125 72.069912) scale(0.1 -0.1)">
       <defs>
        <path id="DejaVuSans-34" d="M 2419 4116 
L 825 1625 
L 2419 1625 
L 2419 4116 
z
M 2253 4666 
L 3047 4666 
L 3047 1625 
L 3713 1625 
L 3713 1100 
L 3047 1100 
L 3047 0 
L 2419 0 
L 2419 1100 
L 313 1100 
L 313 1709 
L 2253 4666 
z
" transform="scale(0.015625)"/>
       </defs>
       <use xlink:href="#DejaVuSans-34"/>
       <use xlink:href="#DejaVuSans-30" transform="translate(63.623047 0)"/>
      </g>
     </g>
    </g>
    <g id="ytick_6">
     <g id="line2d_15">
      <g>
       <use xlink:href="#m1b54b77357" x="40.603125" y="27.850389" style="stroke: #000000; stroke-width: 0.8"/>
      </g>
     </g>
     <g id="text_16">
      <!-- 50 -->
      <g transform="translate(20.878125 31.649607) scale(0.1 -0.1)">
       <use xlink:href="#DejaVuSans-35"/>
       <use xlink:href="#DejaVuSans-30" transform="translate(63.623047 0)"/>
      </g>
     </g>
    </g>
    <g id="text_17">
     <!-- I(d) [dimensionless] -->
     <g transform="translate(14.798438 182.815313) rotate(-90) scale(0.1 -0.1)">
      <defs>
       <path id="DejaVuSans-49" d="M 628 4666 
L 1259 4666 
L 1259 0 
L 628 0 
L 628 4666 
z
" transform="scale(0.015625)"/>
       <path id="DejaVuSans-28" d="M 1984 4856 
Q 1566 4138 1362 3434 
Q 1159 2731 1159 2009 
Q 1159 1288 1364 580 
Q 1569 -128 1984 -844 
L 1484 -844 
Q 1016 -109 783 600 
Q 550 1309 550 2009 
Q 550 2706 781 3412 
Q 1013 4119 1484 4856 
L 1984 4856 
z
" transform="scale(0.015625)"/>
       <path id="DejaVuSans-29" d="M 513 4856 
L 1013 4856 
Q 1481 4119 1714 3412 
Q 1947 2706 1947 2009 
Q 1947 1309 1714 600 
Q 1481 -109 1013 -844 
L 513 -844 
Q 928 -128 1133 580 
Q 1338 1288 1338 2009 
Q 1338 2731 1133 3434 
Q 928 4138 513 4856 
z
" transform="scale(0.015625)"/>
       <path id="DejaVuSans-6d" d="M 3328 2828 
Q 3544 3216 3844 3400 
Q 4144 3584 4550 3584 
Q 5097 3584 5394 3201 
Q 5691 2819 5691 2113 
L 5691 0 
L 5113 0 
L 5113 2094 
Q 5113 2597 4934 2840 
Q 4756 3084 4391 3084 
Q 3944 3084 3684 2787 
Q 3425 2491 3425 1978 
L 3425 0 
L 2847 0 
L 2847 2094 
Q 2847 2600 2669 2842 
Q 2491 3084 2119 3084 
Q 1678 3084 1418 2786 
Q 1159 2488 1159 1978 
L 1159 0 
L 581 0 
L 581 3500 
L 1159 3500 
L 1159 2956 
Q 1356 3278 1631 3431 
Q 1906 3584 2284 3584 
Q 2666 3584 2933 3390 
Q 3200 3197 3328 2828 
z
" transform="scale(0.015625)"/>
       <path id="DejaVuSans-65" d="M 3597 1894 
L 3597 1613 
L 953 1613 
Q 991 1019 1311 708 
Q 1631 397 2203 397 
Q 2534 397 2845 478 
Q 3156 559 3463 722 
L 3463 178 
Q 3153 47 2828 -22 
Q 2503 -91 2169 -91 
Q 1331 -91 842 396 
Q 353 884 353 1716 
Q 353 2575 817 3079 
Q 1281 3584 2069 3584 
Q 2775 3584 3186 3129 
Q 3597 2675 3597 1894 
z
M 3022 2063 
Q 3016 2534 2758 2815 
Q 2500 3097 2075 3097 
Q 1594 3097 1305 2825 
Q 1016 2553 972 2059 
L 3022 2063 
z
" transform="scale(0.015625)"/>
       <path id="DejaVuSans-6f" d="M 1959 3097 
Q 1497 3097 1228 2736 
Q 959 2375 959 1747 
Q 959 1119 1226 758 
Q 1494 397 1959 397 
Q 2419 397 2687 759 
Q 2956 1122 2956 1747 
Q 2956 2369 2687 2733 
Q 2419 3097 1959 3097 
z
M 1959 3584 
Q 2709 3584 3137 3096 
Q 3566 2609 3566 1747 
Q 3566 888 3137 398 
Q 2709 -91 1959 -91 
Q 1206 -91 779 398 
Q 353 888 353 1747 
Q 353 2609 779 3096 
Q 1206 3584 1959 3584 
z
" transform="scale(0.015625)"/>
       <path id="DejaVuSans-6c" d="M 603 4863 
L 1178 4863 
L 1178 0 
L 603 0 
L 603 4863 
z
" transform="scale(0.015625)"/>
      </defs>
      <use xlink:href="#DejaVuSans-49"/>
      <use xlink:href="#DejaVuSans-28" transform="translate(29.492188 0)"/>
      <use xlink:href="#DejaVuSans-64" transform="translate(68.505859 0)"/>
      <use xlink:href="#DejaVuSans-29" transform="translate(131.982422 0)"/>
      <use xlink:href="#DejaVuSans-20" transform="translate(170.996094 0)"/>
      <use xlink:href="#DejaVuSans-5b" transform="translate(202.783203 0)"/>
      <use xlink:href="#DejaVuSans-64" transform="translate(241.796875 0)"/>
      <use xlink:href="#DejaVuSans-69" transform="translate(305.273438 0)"/>
      <use xlink:href="#DejaVuSans-6d" transform="translate(333.056641 0)"/>
      <use xlink:href="#DejaVuSans-65" transform="translate(430.46875 0)"/>
      <use xlink:href="#DejaVuSans-6e" transform="translate(491.992188 0)"/>
      <use xlink:href="#DejaVuSans-73" transform="translate(555.371094 0)"/>
      <use xlink:href="#DejaVuSans-69" transform="translate(607.470703 0)"/>
      <use xlink:href="#DejaVuSans-6f" transform="translate(635.253906 0)"/>
      <use xlink:href="#DejaVuSans-6e" transform="translate(696.435547 0)"/>
      <use xlink:href="#DejaVuSans-6c" transform="translate(759.814453 0)"/>
      <use xlink:href="#DejaVuSans-65" transform="translate(787.597656 0)"/>
      <use xlink:href="#DejaVuSans-73" transform="translate(849.121094 0)"/>
      <use xlink:href="#DejaVuSans-73" transform="translate(901.220703 0)"/>
      <use xlink:href="#DejaVuSans-5d" transform="translate(953.320312 0)"/>
     </g>
    </g>
   </g>
   <g id="line2d_16">
    <path d="M 55.821307 229.889308 
L 57.343125 229.889308 
L 57.343125 230.830882 
L 58.864943 230.830882 
L 58.864943 230.666989 
L 63.430398 230.581656 
L 63.430398 230.830562 
L 64.952216 230.830562 
L 64.952216 231.041115 
L 67.995852 231.083532 
L 67.995852 230.547118 
L 69.51767 230.547118 
L 69.51767 230.974337 
L 71.039489 230.974337 
L 71.039489 230.551205 
L 72.561307 230.551205 
L 72.561307 230.811872 
L 74.083125 230.811872 
L 74.083125 232.78659 
L 75.604943 232.78659 
L 75.604943 231.301343 
L 77.126761 231.301343 
L 77.126761 230.848827 
L 78.64858 230.848827 
L 78.64858 230.407338 
L 80.170398 230.407338 
L 80.170398 231.182411 
L 81.692216 231.182411 
L 81.692216 230.904759 
L 83.214034 230.904759 
L 83.214034 232.514964 
L 84.735852 232.514964 
L 84.735852 229.589727 
L 86.25767 229.589727 
L 86.25767 223.225368 
L 87.779489 223.225368 
L 87.779489 223.6509 
L 89.301307 223.6509 
L 89.301307 224.754478 
L 90.823125 224.754478 
L 90.823125 209.365482 
L 92.344943 209.365482 
L 92.344943 215.903183 
L 93.866761 215.903183 
L 93.866761 224.181449 
L 95.38858 224.181449 
L 95.38858 230.301857 
L 96.910398 230.301857 
L 96.910398 228.071708 
L 99.954034 228.024918 
L 99.954034 220.255824 
L 104.519489 220.312763 
L 104.519489 221.942325 
L 106.041307 221.942325 
L 106.041307 220.570534 
L 107.563125 220.570534 
L 107.563125 228.32586 
L 109.084943 228.32586 
L 109.084943 229.051306 
L 110.606761 229.051306 
L 110.606761 223.1925 
L 112.12858 223.1925 
L 112.12858 203.860952 
L 113.650398 203.860952 
L 113.650398 214.509227 
L 115.172216 214.509227 
L 115.172216 219.07937 
L 116.694034 219.07937 
L 116.694034 226.837041 
L 118.215852 226.837041 
L 118.215852 230.605949 
L 119.73767 230.605949 
L 119.73767 229.958572 
L 121.259489 229.958572 
L 121.259489 230.184946 
L 122.781307 230.184946 
L 122.781307 229.706439 
L 124.303125 229.706439 
L 124.303125 229.83952 
L 125.824943 229.83952 
L 125.824943 230.080064 
L 127.346761 230.080064 
L 127.346761 229.565453 
L 128.86858 229.565453 
L 128.86858 229.112637 
L 130.390398 229.112637 
L 130.390398 223.080375 
L 131.912216 223.080375 
L 131.912216 212.593632 
L 133.434034 212.593632 
L 133.434034 215.96247 
L 134.955852 215.96247 
L 134.955852 225.765067 
L 136.47767 225.765067 
L 136.47767 228.474888 
L 137.999489 228.474888 
L 137.999489 228.924108 
L 141.043125 228.938777 
L 141.043125 224.468192 
L 142.564943 224.468192 
L 142.564943 211.189635 
L 144.086761 211.189635 
L 144.086761 211.417061 
L 145.60858 211.417061 
L 145.60858 224.957544 
L 147.130398 224.957544 
L 147.130398 228.736665 
L 148.652216 228.736665 
L 148.652216 229.231923 
L 151.695852 229.271809 
L 151.695852 229.516448 
L 154.739489 229.477515 
L 154.739489 229.286963 
L 160.826761 229.373973 
L 160.826761 227.146294 
L 162.34858 227.146294 
L 162.34858 210.608581 
L 163.870398 210.608581 
L 163.870398 197.971832 
L 165.392216 197.971832 
L 165.392216 213.302865 
L 166.914034 213.302865 
L 166.914034 227.099129 
L 168.435852 227.099129 
L 168.435852 221.4145 
L 169.95767 221.4145 
L 169.95767 198.641389 
L 171.479489 198.641389 
L 171.479489 200.529032 
L 173.001307 200.529032 
L 173.001307 223.215193 
L 174.523125 223.215193 
L 174.523125 229.111714 
L 176.044943 229.111714 
L 176.044943 229.719016 
L 177.566761 229.719016 
L 177.566761 229.36689 
L 180.610398 229.317253 
L 180.610398 229.758876 
L 185.175852 229.821438 
L 185.175852 228.629219 
L 186.69767 228.629219 
L 186.69767 229.598442 
L 188.219489 229.598442 
L 188.219489 229.907346 
L 191.263125 229.87651 
L 191.263125 230.250607 
L 194.306761 230.173559 
L 194.306761 230.383969 
L 200.394034 230.491943 
L 200.394034 230.576756 
L 204.959489 230.548092 
L 204.959489 230.791345 
L 206.481307 230.791345 
L 206.481307 230.386602 
L 208.003125 230.386602 
L 208.003125 230.892826 
L 209.524943 230.892826 
L 209.524943 230.630885 
L 211.046761 230.630885 
L 211.046761 231.147361 
L 212.56858 231.147361 
L 212.56858 230.890456 
L 217.134034 230.890728 
L 217.134034 230.626426 
L 218.655852 230.626426 
L 218.655852 230.836585 
L 221.699489 230.773752 
L 221.699489 230.516328 
L 223.221307 230.516328 
L 223.221307 230.90142 
L 224.743125 230.90142 
L 224.743125 230.528005 
L 226.264943 230.528005 
L 226.264943 230.699775 
L 229.30858 230.599753 
L 229.30858 230.477117 
L 235.395852 230.495935 
L 235.395852 230.60634 
L 236.91767 230.60634 
L 236.91767 230.81411 
L 238.439489 230.81411 
L 238.439489 230.659451 
L 239.961307 230.659451 
L 239.961307 230.359305 
L 243.004943 230.402887 
L 243.004943 230.474112 
L 246.04858 230.378474 
L 246.04858 230.322994 
L 252.135852 230.3345 
L 252.135852 230.19118 
L 253.65767 230.19118 
L 253.65767 230.418354 
L 255.179489 230.418354 
L 255.179489 230.202654 
L 262.78858 230.205186 
L 262.78858 230.011493 
L 268.875852 229.906836 
L 268.875852 229.889278 
L 271.919489 229.866608 
L 271.919489 229.698038 
L 273.441307 229.698038 
L 273.441307 229.909517 
L 274.963125 229.909517 
L 274.963125 229.721537 
L 281.050398 229.746111 
L 281.050398 229.558386 
L 282.572216 229.558386 
L 282.572216 229.337341 
L 284.094034 229.337341 
L 284.094034 229.511191 
L 285.615852 229.511191 
L 285.615852 229.330407 
L 287.13767 229.330407 
L 287.13767 229.134387 
L 290.181307 229.151511 
L 290.181307 229.265103 
L 291.703125 229.265103 
L 291.703125 228.981312 
L 293.224943 228.981312 
L 293.224943 229.153306 
L 296.26858 229.181496 
L 296.26858 228.912158 
L 297.790398 228.912158 
L 297.790398 229.057838 
L 308.443125 229.063895 
L 308.443125 228.91555 
L 309.964943 228.91555 
L 309.964943 228.567371 
L 311.486761 228.567371 
L 311.486761 227.747906 
L 313.00858 227.747906 
L 313.00858 221.972272 
L 314.530398 221.972272 
L 314.530398 177.614167 
L 316.052216 177.614167 
L 316.052216 56.58511 
L 317.574034 56.58511 
L 317.574034 32.847361 
L 319.095852 32.847361 
L 319.095852 152.062424 
L 320.61767 152.062424 
L 320.61767 216.291935 
L 322.139489 216.291935 
L 322.139489 227.104822 
L 323.661307 227.104822 
L 323.661307 228.469049 
L 325.183125 228.469049 
L 325.183125 228.995136 
L 326.704943 228.995136 
L 326.704943 229.479972 
L 328.226761 229.479972 
L 328.226761 230.111586 
L 331.270398 230.049075 
L 331.270398 229.36767 
L 334.314034 229.259526 
L 334.314034 229.224323 
L 335.835852 229.224323 
L 335.835852 229.098057 
L 337.35767 229.098057 
L 337.35767 228.639822 
L 338.879489 228.639822 
L 338.879489 228.41692 
L 343.444943 228.483875 
L 343.444943 228.938906 
L 344.966761 228.938906 
L 344.966761 229.173956 
L 349.532216 229.15615 
L 349.532216 229.469128 
L 360.184943 229.445848 
L 360.184943 229.445848 
" clip-path="url(#p33fd0944b8)" style="fill: none; stroke: #1f77b4; stroke-width: 1.5; stroke-linecap: square"/>
   </g>
   <g id="LineCollection_1">
    <path d="M 56.582216 230.259133 
L 56.582216 229.519483 
" clip-path="url(#p33fd0944b8)" style="fill: none; stroke: #1f77b4; stroke-width: 1.5"/>
    <path d="M 58.104034 231.259276 
L 58.104034 230.402488 
" clip-path="url(#p33fd0944b8)" style="fill: none; stroke: #1f77b4; stroke-width: 1.5"/>
    <path d="M 59.625852 230.88808 
L 59.625852 230.445897 
" clip-path="url(#p33fd0944b8)" style="fill: none; stroke: #1f77b4; stroke-width: 1.5"/>
    <path d="M 61.14767 230.879063 
L 61.14767 230.557113 
" clip-path="url(#p33fd0944b8)" style="fill: none; stroke: #1f77b4; stroke-width: 1.5"/>
    <path d="M 62.669489 230.780789 
L 62.669489 230.382524 
" clip-path="url(#p33fd0944b8)" style="fill: none; stroke: #1f77b4; stroke-width: 1.5"/>
    <path d="M 64.191307 231.125356 
L 64.191307 230.535768 
" clip-path="url(#p33fd0944b8)" style="fill: none; stroke: #1f77b4; stroke-width: 1.5"/>
    <path d="M 65.713125 231.321061 
L 65.713125 230.76117 
" clip-path="url(#p33fd0944b8)" style="fill: none; stroke: #1f77b4; stroke-width: 1.5"/>
    <path d="M 67.234943 231.418264 
L 67.234943 230.7488 
" clip-path="url(#p33fd0944b8)" style="fill: none; stroke: #1f77b4; stroke-width: 1.5"/>
    <path d="M 68.756761 230.711763 
L 68.756761 230.382473 
" clip-path="url(#p33fd0944b8)" style="fill: none; stroke: #1f77b4; stroke-width: 1.5"/>
    <path d="M 70.27858 231.322566 
L 70.27858 230.626108 
" clip-path="url(#p33fd0944b8)" style="fill: none; stroke: #1f77b4; stroke-width: 1.5"/>
    <path d="M 71.800398 230.798238 
L 71.800398 230.304172 
" clip-path="url(#p33fd0944b8)" style="fill: none; stroke: #1f77b4; stroke-width: 1.5"/>
    <path d="M 73.322216 231.067955 
L 73.322216 230.555788 
" clip-path="url(#p33fd0944b8)" style="fill: none; stroke: #1f77b4; stroke-width: 1.5"/>
    <path d="M 74.844034 233.998125 
L 74.844034 231.575056 
" clip-path="url(#p33fd0944b8)" style="fill: none; stroke: #1f77b4; stroke-width: 1.5"/>
    <path d="M 76.365852 231.855303 
L 76.365852 230.747384 
" clip-path="url(#p33fd0944b8)" style="fill: none; stroke: #1f77b4; stroke-width: 1.5"/>
    <path d="M 77.88767 231.221626 
L 77.88767 230.476027 
" clip-path="url(#p33fd0944b8)" style="fill: none; stroke: #1f77b4; stroke-width: 1.5"/>
    <path d="M 79.409489 230.7691 
L 79.409489 230.045576 
" clip-path="url(#p33fd0944b8)" style="fill: none; stroke: #1f77b4; stroke-width: 1.5"/>
    <path d="M 80.931307 231.732822 
L 80.931307 230.632001 
" clip-path="url(#p33fd0944b8)" style="fill: none; stroke: #1f77b4; stroke-width: 1.5"/>
    <path d="M 82.453125 231.311775 
L 82.453125 230.497743 
" clip-path="url(#p33fd0944b8)" style="fill: none; stroke: #1f77b4; stroke-width: 1.5"/>
    <path d="M 83.974943 233.576617 
L 83.974943 231.453312 
" clip-path="url(#p33fd0944b8)" style="fill: none; stroke: #1f77b4; stroke-width: 1.5"/>
    <path d="M 85.496761 230.515758 
L 85.496761 228.663696 
" clip-path="url(#p33fd0944b8)" style="fill: none; stroke: #1f77b4; stroke-width: 1.5"/>
    <path d="M 87.01858 224.304082 
L 87.01858 222.146654 
" clip-path="url(#p33fd0944b8)" style="fill: none; stroke: #1f77b4; stroke-width: 1.5"/>
    <path d="M 88.540398 224.662703 
L 88.540398 222.639097 
" clip-path="url(#p33fd0944b8)" style="fill: none; stroke: #1f77b4; stroke-width: 1.5"/>
    <path d="M 90.062216 225.515532 
L 90.062216 223.993423 
" clip-path="url(#p33fd0944b8)" style="fill: none; stroke: #1f77b4; stroke-width: 1.5"/>
    <path d="M 91.584034 211.537184 
L 91.584034 207.19378 
" clip-path="url(#p33fd0944b8)" style="fill: none; stroke: #1f77b4; stroke-width: 1.5"/>
    <path d="M 93.105852 217.650253 
L 93.105852 214.156114 
" clip-path="url(#p33fd0944b8)" style="fill: none; stroke: #1f77b4; stroke-width: 1.5"/>
    <path d="M 94.62767 225.506161 
L 94.62767 222.856736 
" clip-path="url(#p33fd0944b8)" style="fill: none; stroke: #1f77b4; stroke-width: 1.5"/>
    <path d="M 96.149489 230.699826 
L 96.149489 229.903887 
" clip-path="url(#p33fd0944b8)" style="fill: none; stroke: #1f77b4; stroke-width: 1.5"/>
    <path d="M 97.671307 229.010195 
L 97.671307 227.133221 
" clip-path="url(#p33fd0944b8)" style="fill: none; stroke: #1f77b4; stroke-width: 1.5"/>
    <path d="M 99.193125 228.834928 
L 99.193125 227.214908 
" clip-path="url(#p33fd0944b8)" style="fill: none; stroke: #1f77b4; stroke-width: 1.5"/>
    <path d="M 100.714943 221.460986 
L 100.714943 219.050663 
" clip-path="url(#p33fd0944b8)" style="fill: none; stroke: #1f77b4; stroke-width: 1.5"/>
    <path d="M 102.236761 221.823714 
L 102.236761 218.840961 
" clip-path="url(#p33fd0944b8)" style="fill: none; stroke: #1f77b4; stroke-width: 1.5"/>
    <path d="M 103.75858 221.710463 
L 103.75858 218.915064 
" clip-path="url(#p33fd0944b8)" style="fill: none; stroke: #1f77b4; stroke-width: 1.5"/>
    <path d="M 105.280398 223.055213 
L 105.280398 220.829437 
" clip-path="url(#p33fd0944b8)" style="fill: none; stroke: #1f77b4; stroke-width: 1.5"/>
    <path d="M 106.802216 222.078806 
L 106.802216 219.062263 
" clip-path="url(#p33fd0944b8)" style="fill: none; stroke: #1f77b4; stroke-width: 1.5"/>
    <path d="M 108.324034 228.878679 
L 108.324034 227.773041 
" clip-path="url(#p33fd0944b8)" style="fill: none; stroke: #1f77b4; stroke-width: 1.5"/>
    <path d="M 109.845852 229.672177 
L 109.845852 228.430435 
" clip-path="url(#p33fd0944b8)" style="fill: none; stroke: #1f77b4; stroke-width: 1.5"/>
    <path d="M 111.36767 224.219127 
L 111.36767 222.165874 
" clip-path="url(#p33fd0944b8)" style="fill: none; stroke: #1f77b4; stroke-width: 1.5"/>
    <path d="M 112.889489 206.246569 
L 112.889489 201.475334 
" clip-path="url(#p33fd0944b8)" style="fill: none; stroke: #1f77b4; stroke-width: 1.5"/>
    <path d="M 114.411307 215.846811 
L 114.411307 213.171643 
" clip-path="url(#p33fd0944b8)" style="fill: none; stroke: #1f77b4; stroke-width: 1.5"/>
    <path d="M 115.933125 220.516651 
L 115.933125 217.642088 
" clip-path="url(#p33fd0944b8)" style="fill: none; stroke: #1f77b4; stroke-width: 1.5"/>
    <path d="M 117.454943 227.435893 
L 117.454943 226.23819 
" clip-path="url(#p33fd0944b8)" style="fill: none; stroke: #1f77b4; stroke-width: 1.5"/>
    <path d="M 118.976761 231.353621 
L 118.976761 229.858276 
" clip-path="url(#p33fd0944b8)" style="fill: none; stroke: #1f77b4; stroke-width: 1.5"/>
    <path d="M 120.49858 230.18009 
L 120.49858 229.737055 
" clip-path="url(#p33fd0944b8)" style="fill: none; stroke: #1f77b4; stroke-width: 1.5"/>
    <path d="M 122.020398 230.491259 
L 122.020398 229.878633 
" clip-path="url(#p33fd0944b8)" style="fill: none; stroke: #1f77b4; stroke-width: 1.5"/>
    <path d="M 123.542216 229.902122 
L 123.542216 229.510756 
" clip-path="url(#p33fd0944b8)" style="fill: none; stroke: #1f77b4; stroke-width: 1.5"/>
    <path d="M 125.064034 230.055464 
L 125.064034 229.623576 
" clip-path="url(#p33fd0944b8)" style="fill: none; stroke: #1f77b4; stroke-width: 1.5"/>
    <path d="M 126.585852 230.228265 
L 126.585852 229.931863 
" clip-path="url(#p33fd0944b8)" style="fill: none; stroke: #1f77b4; stroke-width: 1.5"/>
    <path d="M 128.10767 229.764571 
L 128.10767 229.366335 
" clip-path="url(#p33fd0944b8)" style="fill: none; stroke: #1f77b4; stroke-width: 1.5"/>
    <path d="M 129.629489 229.271407 
L 129.629489 228.953866 
" clip-path="url(#p33fd0944b8)" style="fill: none; stroke: #1f77b4; stroke-width: 1.5"/>
    <path d="M 131.151307 223.307142 
L 131.151307 222.853609 
" clip-path="url(#p33fd0944b8)" style="fill: none; stroke: #1f77b4; stroke-width: 1.5"/>
    <path d="M 132.673125 212.888068 
L 132.673125 212.299195 
" clip-path="url(#p33fd0944b8)" style="fill: none; stroke: #1f77b4; stroke-width: 1.5"/>
    <path d="M 134.194943 216.216395 
L 134.194943 215.708546 
" clip-path="url(#p33fd0944b8)" style="fill: none; stroke: #1f77b4; stroke-width: 1.5"/>
    <path d="M 135.716761 225.929525 
L 135.716761 225.600609 
" clip-path="url(#p33fd0944b8)" style="fill: none; stroke: #1f77b4; stroke-width: 1.5"/>
    <path d="M 137.23858 228.602719 
L 137.23858 228.347057 
" clip-path="url(#p33fd0944b8)" style="fill: none; stroke: #1f77b4; stroke-width: 1.5"/>
    <path d="M 138.760398 229.031606 
L 138.760398 228.816609 
" clip-path="url(#p33fd0944b8)" style="fill: none; stroke: #1f77b4; stroke-width: 1.5"/>
    <path d="M 140.282216 229.04246 
L 140.282216 228.835095 
" clip-path="url(#p33fd0944b8)" style="fill: none; stroke: #1f77b4; stroke-width: 1.5"/>
    <path d="M 141.804034 224.605901 
L 141.804034 224.330483 
" clip-path="url(#p33fd0944b8)" style="fill: none; stroke: #1f77b4; stroke-width: 1.5"/>
    <path d="M 143.325852 211.401172 
L 143.325852 210.978098 
" clip-path="url(#p33fd0944b8)" style="fill: none; stroke: #1f77b4; stroke-width: 1.5"/>
    <path d="M 144.84767 211.625062 
L 144.84767 211.20906 
" clip-path="url(#p33fd0944b8)" style="fill: none; stroke: #1f77b4; stroke-width: 1.5"/>
    <path d="M 146.369489 225.078979 
L 146.369489 224.83611 
" clip-path="url(#p33fd0944b8)" style="fill: none; stroke: #1f77b4; stroke-width: 1.5"/>
    <path d="M 147.891307 228.831512 
L 147.891307 228.641819 
" clip-path="url(#p33fd0944b8)" style="fill: none; stroke: #1f77b4; stroke-width: 1.5"/>
    <path d="M 149.413125 229.324505 
L 149.413125 229.139342 
" clip-path="url(#p33fd0944b8)" style="fill: none; stroke: #1f77b4; stroke-width: 1.5"/>
    <path d="M 150.934943 229.362325 
L 150.934943 229.181293 
" clip-path="url(#p33fd0944b8)" style="fill: none; stroke: #1f77b4; stroke-width: 1.5"/>
    <path d="M 152.456761 229.600349 
L 152.456761 229.432547 
" clip-path="url(#p33fd0944b8)" style="fill: none; stroke: #1f77b4; stroke-width: 1.5"/>
    <path d="M 153.97858 229.561789 
L 153.97858 229.393242 
" clip-path="url(#p33fd0944b8)" style="fill: none; stroke: #1f77b4; stroke-width: 1.5"/>
    <path d="M 155.500398 229.369273 
L 155.500398 229.204652 
" clip-path="url(#p33fd0944b8)" style="fill: none; stroke: #1f77b4; stroke-width: 1.5"/>
    <path d="M 157.022216 229.419219 
L 157.022216 229.2319 
" clip-path="url(#p33fd0944b8)" style="fill: none; stroke: #1f77b4; stroke-width: 1.5"/>
    <path d="M 158.544034 229.453171 
L 158.544034 229.288954 
" clip-path="url(#p33fd0944b8)" style="fill: none; stroke: #1f77b4; stroke-width: 1.5"/>
    <path d="M 160.065852 229.458034 
L 160.065852 229.289912 
" clip-path="url(#p33fd0944b8)" style="fill: none; stroke: #1f77b4; stroke-width: 1.5"/>
    <path d="M 161.58767 227.250142 
L 161.58767 227.042446 
" clip-path="url(#p33fd0944b8)" style="fill: none; stroke: #1f77b4; stroke-width: 1.5"/>
    <path d="M 163.109489 210.812311 
L 163.109489 210.404851 
" clip-path="url(#p33fd0944b8)" style="fill: none; stroke: #1f77b4; stroke-width: 1.5"/>
    <path d="M 164.631307 198.226075 
L 164.631307 197.71759 
" clip-path="url(#p33fd0944b8)" style="fill: none; stroke: #1f77b4; stroke-width: 1.5"/>
    <path d="M 166.153125 213.488113 
L 166.153125 213.117617 
" clip-path="url(#p33fd0944b8)" style="fill: none; stroke: #1f77b4; stroke-width: 1.5"/>
    <path d="M 167.674943 227.199425 
L 167.674943 226.998832 
" clip-path="url(#p33fd0944b8)" style="fill: none; stroke: #1f77b4; stroke-width: 1.5"/>
    <path d="M 169.196761 221.550724 
L 169.196761 221.278277 
" clip-path="url(#p33fd0944b8)" style="fill: none; stroke: #1f77b4; stroke-width: 1.5"/>
    <path d="M 170.71858 198.885047 
L 170.71858 198.397731 
" clip-path="url(#p33fd0944b8)" style="fill: none; stroke: #1f77b4; stroke-width: 1.5"/>
    <path d="M 172.240398 200.768152 
L 172.240398 200.289912 
" clip-path="url(#p33fd0944b8)" style="fill: none; stroke: #1f77b4; stroke-width: 1.5"/>
    <path d="M 173.762216 223.341901 
L 173.762216 223.088486 
" clip-path="url(#p33fd0944b8)" style="fill: none; stroke: #1f77b4; stroke-width: 1.5"/>
    <path d="M 175.284034 229.193413 
L 175.284034 229.030015 
" clip-path="url(#p33fd0944b8)" style="fill: none; stroke: #1f77b4; stroke-width: 1.5"/>
    <path d="M 176.805852 229.796638 
L 176.805852 229.641394 
" clip-path="url(#p33fd0944b8)" style="fill: none; stroke: #1f77b4; stroke-width: 1.5"/>
    <path d="M 178.32767 229.449782 
L 178.32767 229.283998 
" clip-path="url(#p33fd0944b8)" style="fill: none; stroke: #1f77b4; stroke-width: 1.5"/>
    <path d="M 179.849489 229.399131 
L 179.849489 229.235375 
" clip-path="url(#p33fd0944b8)" style="fill: none; stroke: #1f77b4; stroke-width: 1.5"/>
    <path d="M 181.371307 229.835854 
L 181.371307 229.681898 
" clip-path="url(#p33fd0944b8)" style="fill: none; stroke: #1f77b4; stroke-width: 1.5"/>
    <path d="M 182.893125 229.797635 
L 182.893125 229.647352 
" clip-path="url(#p33fd0944b8)" style="fill: none; stroke: #1f77b4; stroke-width: 1.5"/>
    <path d="M 184.414943 229.895565 
L 184.414943 229.747311 
" clip-path="url(#p33fd0944b8)" style="fill: none; stroke: #1f77b4; stroke-width: 1.5"/>
    <path d="M 185.936761 228.717002 
L 185.936761 228.541437 
" clip-path="url(#p33fd0944b8)" style="fill: none; stroke: #1f77b4; stroke-width: 1.5"/>
    <path d="M 187.45858 229.679619 
L 187.45858 229.517264 
" clip-path="url(#p33fd0944b8)" style="fill: none; stroke: #1f77b4; stroke-width: 1.5"/>
    <path d="M 188.980398 229.98159 
L 188.980398 229.833103 
" clip-path="url(#p33fd0944b8)" style="fill: none; stroke: #1f77b4; stroke-width: 1.5"/>
    <path d="M 190.502216 229.948372 
L 190.502216 229.804649 
" clip-path="url(#p33fd0944b8)" style="fill: none; stroke: #1f77b4; stroke-width: 1.5"/>
    <path d="M 192.024034 230.322223 
L 192.024034 230.17899 
" clip-path="url(#p33fd0944b8)" style="fill: none; stroke: #1f77b4; stroke-width: 1.5"/>
    <path d="M 193.545852 230.245996 
L 193.545852 230.101123 
" clip-path="url(#p33fd0944b8)" style="fill: none; stroke: #1f77b4; stroke-width: 1.5"/>
    <path d="M 195.06767 230.451778 
L 195.06767 230.31616 
" clip-path="url(#p33fd0944b8)" style="fill: none; stroke: #1f77b4; stroke-width: 1.5"/>
    <path d="M 196.589489 230.395695 
L 196.589489 230.259084 
" clip-path="url(#p33fd0944b8)" style="fill: none; stroke: #1f77b4; stroke-width: 1.5"/>
    <path d="M 198.111307 230.410759 
L 198.111307 230.273115 
" clip-path="url(#p33fd0944b8)" style="fill: none; stroke: #1f77b4; stroke-width: 1.5"/>
    <path d="M 199.633125 230.556516 
L 199.633125 230.427369 
" clip-path="url(#p33fd0944b8)" style="fill: none; stroke: #1f77b4; stroke-width: 1.5"/>
    <path d="M 201.154943 230.646631 
L 201.154943 230.506882 
" clip-path="url(#p33fd0944b8)" style="fill: none; stroke: #1f77b4; stroke-width: 1.5"/>
    <path d="M 202.676761 230.545468 
L 202.676761 230.413365 
" clip-path="url(#p33fd0944b8)" style="fill: none; stroke: #1f77b4; stroke-width: 1.5"/>
    <path d="M 204.19858 230.694095 
L 204.19858 230.402089 
" clip-path="url(#p33fd0944b8)" style="fill: none; stroke: #1f77b4; stroke-width: 1.5"/>
    <path d="M 205.720398 231.081061 
L 205.720398 230.50163 
" clip-path="url(#p33fd0944b8)" style="fill: none; stroke: #1f77b4; stroke-width: 1.5"/>
    <path d="M 207.242216 230.513657 
L 207.242216 230.259547 
" clip-path="url(#p33fd0944b8)" style="fill: none; stroke: #1f77b4; stroke-width: 1.5"/>
    <path d="M 208.764034 231.067719 
L 208.764034 230.717933 
" clip-path="url(#p33fd0944b8)" style="fill: none; stroke: #1f77b4; stroke-width: 1.5"/>
    <path d="M 210.285852 230.684923 
L 210.285852 230.576848 
" clip-path="url(#p33fd0944b8)" style="fill: none; stroke: #1f77b4; stroke-width: 1.5"/>
    <path d="M 211.80767 231.383812 
L 211.80767 230.910911 
" clip-path="url(#p33fd0944b8)" style="fill: none; stroke: #1f77b4; stroke-width: 1.5"/>
    <path d="M 213.329489 231.023836 
L 213.329489 230.757077 
" clip-path="url(#p33fd0944b8)" style="fill: none; stroke: #1f77b4; stroke-width: 1.5"/>
    <path d="M 214.851307 230.98585 
L 214.851307 230.722952 
" clip-path="url(#p33fd0944b8)" style="fill: none; stroke: #1f77b4; stroke-width: 1.5"/>
    <path d="M 216.373125 231.016225 
L 216.373125 230.765231 
" clip-path="url(#p33fd0944b8)" style="fill: none; stroke: #1f77b4; stroke-width: 1.5"/>
    <path d="M 217.894943 230.687543 
L 217.894943 230.565309 
" clip-path="url(#p33fd0944b8)" style="fill: none; stroke: #1f77b4; stroke-width: 1.5"/>
    <path d="M 219.416761 231.016836 
L 219.416761 230.656335 
" clip-path="url(#p33fd0944b8)" style="fill: none; stroke: #1f77b4; stroke-width: 1.5"/>
    <path d="M 220.93858 230.879446 
L 220.93858 230.668058 
" clip-path="url(#p33fd0944b8)" style="fill: none; stroke: #1f77b4; stroke-width: 1.5"/>
    <path d="M 222.460398 230.625472 
L 222.460398 230.407184 
" clip-path="url(#p33fd0944b8)" style="fill: none; stroke: #1f77b4; stroke-width: 1.5"/>
    <path d="M 223.982216 231.05727 
L 223.982216 230.74557 
" clip-path="url(#p33fd0944b8)" style="fill: none; stroke: #1f77b4; stroke-width: 1.5"/>
    <path d="M 225.504034 230.586923 
L 225.504034 230.469088 
" clip-path="url(#p33fd0944b8)" style="fill: none; stroke: #1f77b4; stroke-width: 1.5"/>
    <path d="M 227.025852 230.764025 
L 227.025852 230.635526 
" clip-path="url(#p33fd0944b8)" style="fill: none; stroke: #1f77b4; stroke-width: 1.5"/>
    <path d="M 228.54767 230.664919 
L 228.54767 230.534588 
" clip-path="url(#p33fd0944b8)" style="fill: none; stroke: #1f77b4; stroke-width: 1.5"/>
    <path d="M 230.069489 230.651906 
L 230.069489 230.302328 
" clip-path="url(#p33fd0944b8)" style="fill: none; stroke: #1f77b4; stroke-width: 1.5"/>
    <path d="M 231.591307 230.492349 
L 231.591307 230.374174 
" clip-path="url(#p33fd0944b8)" style="fill: none; stroke: #1f77b4; stroke-width: 1.5"/>
    <path d="M 233.113125 230.592906 
L 233.113125 230.464432 
" clip-path="url(#p33fd0944b8)" style="fill: none; stroke: #1f77b4; stroke-width: 1.5"/>
    <path d="M 234.634943 230.553258 
L 234.634943 230.438613 
" clip-path="url(#p33fd0944b8)" style="fill: none; stroke: #1f77b4; stroke-width: 1.5"/>
    <path d="M 236.156761 230.659382 
L 236.156761 230.553299 
" clip-path="url(#p33fd0944b8)" style="fill: none; stroke: #1f77b4; stroke-width: 1.5"/>
    <path d="M 237.67858 230.875853 
L 237.67858 230.752366 
" clip-path="url(#p33fd0944b8)" style="fill: none; stroke: #1f77b4; stroke-width: 1.5"/>
    <path d="M 239.200398 230.724753 
L 239.200398 230.594148 
" clip-path="url(#p33fd0944b8)" style="fill: none; stroke: #1f77b4; stroke-width: 1.5"/>
    <path d="M 240.722216 230.413968 
L 240.722216 230.304641 
" clip-path="url(#p33fd0944b8)" style="fill: none; stroke: #1f77b4; stroke-width: 1.5"/>
    <path d="M 242.244034 230.54859 
L 242.244034 230.257185 
" clip-path="url(#p33fd0944b8)" style="fill: none; stroke: #1f77b4; stroke-width: 1.5"/>
    <path d="M 243.765852 230.538542 
L 243.765852 230.409682 
" clip-path="url(#p33fd0944b8)" style="fill: none; stroke: #1f77b4; stroke-width: 1.5"/>
    <path d="M 245.28767 230.489996 
L 245.28767 230.266951 
" clip-path="url(#p33fd0944b8)" style="fill: none; stroke: #1f77b4; stroke-width: 1.5"/>
    <path d="M 246.809489 230.387932 
L 246.809489 230.258055 
" clip-path="url(#p33fd0944b8)" style="fill: none; stroke: #1f77b4; stroke-width: 1.5"/>
    <path d="M 248.331307 230.415289 
L 248.331307 230.291675 
" clip-path="url(#p33fd0944b8)" style="fill: none; stroke: #1f77b4; stroke-width: 1.5"/>
    <path d="M 249.853125 230.36609 
L 249.853125 230.239826 
" clip-path="url(#p33fd0944b8)" style="fill: none; stroke: #1f77b4; stroke-width: 1.5"/>
    <path d="M 251.374943 230.399841 
L 251.374943 230.269158 
" clip-path="url(#p33fd0944b8)" style="fill: none; stroke: #1f77b4; stroke-width: 1.5"/>
    <path d="M 252.896761 230.252823 
L 252.896761 230.129537 
" clip-path="url(#p33fd0944b8)" style="fill: none; stroke: #1f77b4; stroke-width: 1.5"/>
    <path d="M 254.41858 230.554213 
L 254.41858 230.282494 
" clip-path="url(#p33fd0944b8)" style="fill: none; stroke: #1f77b4; stroke-width: 1.5"/>
    <path d="M 255.940398 230.310689 
L 255.940398 230.094619 
" clip-path="url(#p33fd0944b8)" style="fill: none; stroke: #1f77b4; stroke-width: 1.5"/>
    <path d="M 257.462216 230.470648 
L 257.462216 230.150432 
" clip-path="url(#p33fd0944b8)" style="fill: none; stroke: #1f77b4; stroke-width: 1.5"/>
    <path d="M 258.984034 230.160981 
L 258.984034 230.04081 
" clip-path="url(#p33fd0944b8)" style="fill: none; stroke: #1f77b4; stroke-width: 1.5"/>
    <path d="M 260.505852 230.368668 
L 260.505852 230.241662 
" clip-path="url(#p33fd0944b8)" style="fill: none; stroke: #1f77b4; stroke-width: 1.5"/>
    <path d="M 262.02767 230.264035 
L 262.02767 230.146336 
" clip-path="url(#p33fd0944b8)" style="fill: none; stroke: #1f77b4; stroke-width: 1.5"/>
    <path d="M 263.549489 230.073476 
L 263.549489 229.94951 
" clip-path="url(#p33fd0944b8)" style="fill: none; stroke: #1f77b4; stroke-width: 1.5"/>
    <path d="M 265.071307 229.976191 
L 265.071307 229.853399 
" clip-path="url(#p33fd0944b8)" style="fill: none; stroke: #1f77b4; stroke-width: 1.5"/>
    <path d="M 266.593125 230.056636 
L 266.593125 229.927221 
" clip-path="url(#p33fd0944b8)" style="fill: none; stroke: #1f77b4; stroke-width: 1.5"/>
    <path d="M 268.114943 229.968968 
L 268.114943 229.844704 
" clip-path="url(#p33fd0944b8)" style="fill: none; stroke: #1f77b4; stroke-width: 1.5"/>
    <path d="M 269.636761 229.950648 
L 269.636761 229.827908 
" clip-path="url(#p33fd0944b8)" style="fill: none; stroke: #1f77b4; stroke-width: 1.5"/>
    <path d="M 271.15858 229.927813 
L 271.15858 229.805404 
" clip-path="url(#p33fd0944b8)" style="fill: none; stroke: #1f77b4; stroke-width: 1.5"/>
    <path d="M 272.680398 229.75973 
L 272.680398 229.636345 
" clip-path="url(#p33fd0944b8)" style="fill: none; stroke: #1f77b4; stroke-width: 1.5"/>
    <path d="M 274.202216 229.971804 
L 274.202216 229.84723 
" clip-path="url(#p33fd0944b8)" style="fill: none; stroke: #1f77b4; stroke-width: 1.5"/>
    <path d="M 275.724034 229.782214 
L 275.724034 229.660861 
" clip-path="url(#p33fd0944b8)" style="fill: none; stroke: #1f77b4; stroke-width: 1.5"/>
    <path d="M 277.245852 229.755321 
L 277.245852 229.630705 
" clip-path="url(#p33fd0944b8)" style="fill: none; stroke: #1f77b4; stroke-width: 1.5"/>
    <path d="M 278.76767 229.676391 
L 278.76767 229.554035 
" clip-path="url(#p33fd0944b8)" style="fill: none; stroke: #1f77b4; stroke-width: 1.5"/>
    <path d="M 280.289489 229.812035 
L 280.289489 229.680187 
" clip-path="url(#p33fd0944b8)" style="fill: none; stroke: #1f77b4; stroke-width: 1.5"/>
    <path d="M 281.811307 229.621708 
L 281.811307 229.495064 
" clip-path="url(#p33fd0944b8)" style="fill: none; stroke: #1f77b4; stroke-width: 1.5"/>
    <path d="M 283.333125 229.402412 
L 283.333125 229.27227 
" clip-path="url(#p33fd0944b8)" style="fill: none; stroke: #1f77b4; stroke-width: 1.5"/>
    <path d="M 284.854943 229.56975 
L 284.854943 229.452632 
" clip-path="url(#p33fd0944b8)" style="fill: none; stroke: #1f77b4; stroke-width: 1.5"/>
    <path d="M 286.376761 229.395839 
L 286.376761 229.264975 
" clip-path="url(#p33fd0944b8)" style="fill: none; stroke: #1f77b4; stroke-width: 1.5"/>
    <path d="M 287.89858 229.200577 
L 287.89858 229.068198 
" clip-path="url(#p33fd0944b8)" style="fill: none; stroke: #1f77b4; stroke-width: 1.5"/>
    <path d="M 289.420398 229.215359 
L 289.420398 229.087663 
" clip-path="url(#p33fd0944b8)" style="fill: none; stroke: #1f77b4; stroke-width: 1.5"/>
    <path d="M 290.942216 229.330324 
L 290.942216 229.199883 
" clip-path="url(#p33fd0944b8)" style="fill: none; stroke: #1f77b4; stroke-width: 1.5"/>
    <path d="M 292.464034 229.04957 
L 292.464034 228.913055 
" clip-path="url(#p33fd0944b8)" style="fill: none; stroke: #1f77b4; stroke-width: 1.5"/>
    <path d="M 293.985852 229.220249 
L 293.985852 229.086363 
" clip-path="url(#p33fd0944b8)" style="fill: none; stroke: #1f77b4; stroke-width: 1.5"/>
    <path d="M 295.50767 229.24567 
L 295.50767 229.117321 
" clip-path="url(#p33fd0944b8)" style="fill: none; stroke: #1f77b4; stroke-width: 1.5"/>
    <path d="M 297.029489 228.980704 
L 297.029489 228.843612 
" clip-path="url(#p33fd0944b8)" style="fill: none; stroke: #1f77b4; stroke-width: 1.5"/>
    <path d="M 298.551307 229.124677 
L 298.551307 228.990999 
" clip-path="url(#p33fd0944b8)" style="fill: none; stroke: #1f77b4; stroke-width: 1.5"/>
    <path d="M 300.073125 229.139437 
L 300.073125 228.996921 
" clip-path="url(#p33fd0944b8)" style="fill: none; stroke: #1f77b4; stroke-width: 1.5"/>
    <path d="M 301.594943 229.192663 
L 301.594943 229.061612 
" clip-path="url(#p33fd0944b8)" style="fill: none; stroke: #1f77b4; stroke-width: 1.5"/>
    <path d="M 303.116761 229.107775 
L 303.116761 228.977166 
" clip-path="url(#p33fd0944b8)" style="fill: none; stroke: #1f77b4; stroke-width: 1.5"/>
    <path d="M 304.63858 229.069681 
L 304.63858 228.935975 
" clip-path="url(#p33fd0944b8)" style="fill: none; stroke: #1f77b4; stroke-width: 1.5"/>
    <path d="M 306.160398 229.098607 
L 306.160398 228.962315 
" clip-path="url(#p33fd0944b8)" style="fill: none; stroke: #1f77b4; stroke-width: 1.5"/>
    <path d="M 307.682216 229.127182 
L 307.682216 229.000607 
" clip-path="url(#p33fd0944b8)" style="fill: none; stroke: #1f77b4; stroke-width: 1.5"/>
    <path d="M 309.204034 228.980486 
L 309.204034 228.850614 
" clip-path="url(#p33fd0944b8)" style="fill: none; stroke: #1f77b4; stroke-width: 1.5"/>
    <path d="M 310.725852 228.635766 
L 310.725852 228.498975 
" clip-path="url(#p33fd0944b8)" style="fill: none; stroke: #1f77b4; stroke-width: 1.5"/>
    <path d="M 312.24767 227.830212 
L 312.24767 227.6656 
" clip-path="url(#p33fd0944b8)" style="fill: none; stroke: #1f77b4; stroke-width: 1.5"/>
    <path d="M 313.769489 222.089484 
L 313.769489 221.85506 
" clip-path="url(#p33fd0944b8)" style="fill: none; stroke: #1f77b4; stroke-width: 1.5"/>
    <path d="M 315.291307 177.863747 
L 315.291307 177.364588 
" clip-path="url(#p33fd0944b8)" style="fill: none; stroke: #1f77b4; stroke-width: 1.5"/>
    <path d="M 316.813125 57.005977 
L 316.813125 56.164244 
" clip-path="url(#p33fd0944b8)" style="fill: none; stroke: #1f77b4; stroke-width: 1.5"/>
    <path d="M 318.334943 33.296596 
L 318.334943 32.398125 
" clip-path="url(#p33fd0944b8)" style="fill: none; stroke: #1f77b4; stroke-width: 1.5"/>
    <path d="M 319.856761 152.32114 
L 319.856761 151.803709 
" clip-path="url(#p33fd0944b8)" style="fill: none; stroke: #1f77b4; stroke-width: 1.5"/>
    <path d="M 321.37858 216.426008 
L 321.37858 216.157862 
" clip-path="url(#p33fd0944b8)" style="fill: none; stroke: #1f77b4; stroke-width: 1.5"/>
    <path d="M 322.900398 227.177222 
L 322.900398 227.032422 
" clip-path="url(#p33fd0944b8)" style="fill: none; stroke: #1f77b4; stroke-width: 1.5"/>
    <path d="M 324.422216 228.538911 
L 324.422216 228.399187 
" clip-path="url(#p33fd0944b8)" style="fill: none; stroke: #1f77b4; stroke-width: 1.5"/>
    <path d="M 325.944034 229.060847 
L 325.944034 228.929426 
" clip-path="url(#p33fd0944b8)" style="fill: none; stroke: #1f77b4; stroke-width: 1.5"/>
    <path d="M 327.465852 229.562739 
L 327.465852 229.397204 
" clip-path="url(#p33fd0944b8)" style="fill: none; stroke: #1f77b4; stroke-width: 1.5"/>
    <path d="M 328.98767 230.172484 
L 328.98767 230.050689 
" clip-path="url(#p33fd0944b8)" style="fill: none; stroke: #1f77b4; stroke-width: 1.5"/>
    <path d="M 330.509489 230.099732 
L 330.509489 229.998418 
" clip-path="url(#p33fd0944b8)" style="fill: none; stroke: #1f77b4; stroke-width: 1.5"/>
    <path d="M 332.031307 229.428251 
L 332.031307 229.30709 
" clip-path="url(#p33fd0944b8)" style="fill: none; stroke: #1f77b4; stroke-width: 1.5"/>
    <path d="M 333.553125 229.323474 
L 333.553125 229.195578 
" clip-path="url(#p33fd0944b8)" style="fill: none; stroke: #1f77b4; stroke-width: 1.5"/>
    <path d="M 335.074943 229.289426 
L 335.074943 229.15922 
" clip-path="url(#p33fd0944b8)" style="fill: none; stroke: #1f77b4; stroke-width: 1.5"/>
    <path d="M 336.596761 229.185132 
L 336.596761 229.010981 
" clip-path="url(#p33fd0944b8)" style="fill: none; stroke: #1f77b4; stroke-width: 1.5"/>
    <path d="M 338.11858 228.811086 
L 338.11858 228.468558 
" clip-path="url(#p33fd0944b8)" style="fill: none; stroke: #1f77b4; stroke-width: 1.5"/>
    <path d="M 339.640398 228.560895 
L 339.640398 228.272946 
" clip-path="url(#p33fd0944b8)" style="fill: none; stroke: #1f77b4; stroke-width: 1.5"/>
    <path d="M 341.162216 228.587822 
L 341.162216 228.400083 
" clip-path="url(#p33fd0944b8)" style="fill: none; stroke: #1f77b4; stroke-width: 1.5"/>
    <path d="M 342.684034 228.557224 
L 342.684034 228.410526 
" clip-path="url(#p33fd0944b8)" style="fill: none; stroke: #1f77b4; stroke-width: 1.5"/>
    <path d="M 344.205852 229.023465 
L 344.205852 228.854348 
" clip-path="url(#p33fd0944b8)" style="fill: none; stroke: #1f77b4; stroke-width: 1.5"/>
    <path d="M 345.72767 229.239097 
L 345.72767 229.108815 
" clip-path="url(#p33fd0944b8)" style="fill: none; stroke: #1f77b4; stroke-width: 1.5"/>
    <path d="M 347.249489 229.343416 
L 347.249489 229.205841 
" clip-path="url(#p33fd0944b8)" style="fill: none; stroke: #1f77b4; stroke-width: 1.5"/>
    <path d="M 348.771307 229.223754 
L 348.771307 229.088547 
" clip-path="url(#p33fd0944b8)" style="fill: none; stroke: #1f77b4; stroke-width: 1.5"/>
    <path d="M 350.293125 229.53726 
L 350.293125 229.400996 
" clip-path="url(#p33fd0944b8)" style="fill: none; stroke: #1f77b4; stroke-width: 1.5"/>
    <path d="M 351.814943 229.601444 
L 351.814943 229.46371 
" clip-path="url(#p33fd0944b8)" style="fill: none; stroke: #1f77b4; stroke-width: 1.5"/>
    <path d="M 353.336761 229.576267 
L 353.336761 229.438948 
" clip-path="url(#p33fd0944b8)" style="fill: none; stroke: #1f77b4; stroke-width: 1.5"/>
    <path d="M 354.85858 229.561794 
L 354.85858 229.422601 
" clip-path="url(#p33fd0944b8)" style="fill: none; stroke: #1f77b4; stroke-width: 1.5"/>
    <path d="M 356.380398 229.525369 
L 356.380398 229.384368 
" clip-path="url(#p33fd0944b8)" style="fill: none; stroke: #1f77b4; stroke-width: 1.5"/>
    <path d="M 357.902216 229.550138 
L 357.902216 229.403296 
" clip-path="url(#p33fd0944b8)" style="fill: none; stroke: #1f77b4; stroke-width: 1.5"/>
    <path d="M 359.424034 229.51564 
L 359.424034 229.376056 
" clip-path="url(#p33fd0944b8)" style="fill: none; stroke: #1f77b4; stroke-width: 1.5"/>
   </g>
   <g id="patch_3">
    <path d="M 40.603125 244.078125 
L 40.603125 22.318125 
" style="fill: none; stroke: #000000; stroke-width: 0.8; stroke-linejoin: miter; stroke-linecap: square"/>
   </g>
   <g id="patch_4">
    <path d="M 375.403125 244.078125 
L 375.403125 22.318125 
" style="fill: none; stroke: #000000; stroke-width: 0.8; stroke-linejoin: miter; stroke-linecap: square"/>
   </g>
   <g id="patch_5">
    <path d="M 40.603125 244.078125 
L 375.403125 244.078125 
" style="fill: none; stroke: #000000; stroke-width: 0.8; stroke-linejoin: miter; stroke-linecap: square"/>
   </g>
   <g id="patch_6">
    <path d="M 40.603125 22.318125 
L 375.403125 22.318125 
" style="fill: none; stroke: #000000; stroke-width: 0.8; stroke-linejoin: miter; stroke-linecap: square"/>
   </g>
   <g id="text_18">
    <!-- Mantle -->
    <g transform="translate(187.635938 16.318125) scale(0.12 -0.12)">
     <defs>
      <path id="DejaVuSans-4d" d="M 628 4666 
L 1569 4666 
L 2759 1491 
L 3956 4666 
L 4897 4666 
L 4897 0 
L 4281 0 
L 4281 4097 
L 3078 897 
L 2444 897 
L 1241 4097 
L 1241 0 
L 628 0 
L 628 4666 
z
" transform="scale(0.015625)"/>
      <path id="DejaVuSans-74" d="M 1172 4494 
L 1172 3500 
L 2356 3500 
L 2356 3053 
L 1172 3053 
L 1172 1153 
Q 1172 725 1289 603 
Q 1406 481 1766 481 
L 2356 481 
L 2356 0 
L 1766 0 
Q 1100 0 847 248 
Q 594 497 594 1153 
L 594 3053 
L 172 3053 
L 172 3500 
L 594 3500 
L 594 4494 
L 1172 4494 
z
" transform="scale(0.015625)"/>
     </defs>
     <use xlink:href="#DejaVuSans-4d"/>
     <use xlink:href="#DejaVuSans-61" transform="translate(86.279297 0)"/>
     <use xlink:href="#DejaVuSans-6e" transform="translate(147.558594 0)"/>
     <use xlink:href="#DejaVuSans-74" transform="translate(210.9375 0)"/>
     <use xlink:href="#DejaVuSans-6c" transform="translate(250.146484 0)"/>
     <use xlink:href="#DejaVuSans-65" transform="translate(277.929688 0)"/>
    </g>
   </g>
  </g>
 </g>
 <defs>
  <clipPath id="p33fd0944b8">
   <rect x="40.603125" y="22.318125" width="334.8" height="221.76"/>
  </clipPath>
 </defs>
</svg>
