<?xml version="1.0" encoding="utf-8" standalone="no"?>
<!DOCTYPE svg PUBLIC "-//W3C//DTD SVG 1.1//EN"
  "http://www.w3.org/Graphics/SVG/1.1/DTD/svg11.dtd">
<svg xmlns:xlink="http://www.w3.org/1999/xlink" width="382.603125pt" height="283.31875pt" viewBox="0 0 382.603125 283.31875" xmlns="http://www.w3.org/2000/svg" version="1.1">
 <metadata>
  <rdf:RDF xmlns:dc="http://purl.org/dc/elements/1.1/" xmlns:cc="http://creativecommons.org/ns#" xmlns:rdf="http://www.w3.org/1999/02/22-rdf-syntax-ns#">
   <cc:Work>
    <dc:type rdf:resource="http://purl.org/dc/dcmitype/StillImage"/>
    <dc:date>2025-05-15T13:02:24.381165</dc:date>
    <dc:format>image/svg+xml</dc:format>
    <dc:creator>
     <cc:Agent>
      <dc:title>Matplotlib v3.10.3, https://matplotlib.org/</dc:title>
     </cc:Agent>
    </dc:creator>
   </cc:Work>
  </rdf:RDF>
 </metadata>
 <defs>
  <style type="text/css">*{stroke-linejoin: round; stroke-linecap: butt}</style>
 </defs>
 <g id="figure_1">
  <g id="patch_1">
   <path d="M 0 283.31875 
L 382.603125 283.31875 
L 382.603125 0 
L 0 0 
z
" style="fill: #ffffff"/>
  </g>
  <g id="axes_1">
   <g id="patch_2">
    <path d="M 40.603125 244.078125 
L 375.403125 244.078125 
L 375.403125 22.318125 
L 40.603125 22.318125 
z
" style="fill: #ffffff"/>
   </g>
   <g id="matplotlib.axis_1">
    <g id="xtick_1">
     <g id="line2d_1">
      <defs>
       <path id="m22cf6c1c66" d="M 0 0 
L 0 3.5 
" style="stroke: #000000; stroke-width: 0.8"/>
      </defs>
      <g>
       <use xlink:href="#m22cf6c1c66" x="48.373826" y="244.078125" style="stroke: #000000; stroke-width: 0.8"/>
      </g>
     </g>
     <g id="text_1">
      <!-- 0.25 -->
      <g transform="translate(37.241014 258.676563) scale(0.1 -0.1)">
       <defs>
        <path id="DejaVuSans-30" d="M 2034 4250 
Q 1547 4250 1301 3770 
Q 1056 3291 1056 2328 
Q 1056 1369 1301 889 
Q 1547 409 2034 409 
Q 2525 409 2770 889 
Q 3016 1369 3016 2328 
Q 3016 3291 2770 3770 
Q 2525 4250 2034 4250 
z
M 2034 4750 
Q 2819 4750 3233 4129 
Q 3647 3509 3647 2328 
Q 3647 1150 3233 529 
Q 2819 -91 2034 -91 
Q 1250 -91 836 529 
Q 422 1150 422 2328 
Q 422 3509 836 4129 
Q 1250 4750 2034 4750 
z
" transform="scale(0.015625)"/>
        <path id="DejaVuSans-2e" d="M 684 794 
L 1344 794 
L 1344 0 
L 684 0 
L 684 794 
z
" transform="scale(0.015625)"/>
        <path id="DejaVuSans-32" d="M 1228 531 
L 3431 531 
L 3431 0 
L 469 0 
L 469 531 
Q 828 903 1448 1529 
Q 2069 2156 2228 2338 
Q 2531 2678 2651 2914 
Q 2772 3150 2772 3378 
Q 2772 3750 2511 3984 
Q 2250 4219 1831 4219 
Q 1534 4219 1204 4116 
Q 875 4013 500 3803 
L 500 4441 
Q 881 4594 1212 4672 
Q 1544 4750 1819 4750 
Q 2544 4750 2975 4387 
Q 3406 4025 3406 3419 
Q 3406 3131 3298 2873 
Q 3191 2616 2906 2266 
Q 2828 2175 2409 1742 
Q 1991 1309 1228 531 
z
" transform="scale(0.015625)"/>
        <path id="DejaVuSans-35" d="M 691 4666 
L 3169 4666 
L 3169 4134 
L 1269 4134 
L 1269 2991 
Q 1406 3038 1543 3061 
Q 1681 3084 1819 3084 
Q 2600 3084 3056 2656 
Q 3513 2228 3513 1497 
Q 3513 744 3044 326 
Q 2575 -91 1722 -91 
Q 1428 -91 1123 -41 
Q 819 9 494 109 
L 494 744 
Q 775 591 1075 516 
Q 1375 441 1709 441 
Q 2250 441 2565 725 
Q 2881 1009 2881 1497 
Q 2881 1984 2565 2268 
Q 2250 2553 1709 2553 
Q 1456 2553 1204 2497 
Q 953 2441 691 2322 
L 691 4666 
z
" transform="scale(0.015625)"/>
       </defs>
       <use xlink:href="#DejaVuSans-30"/>
       <use xlink:href="#DejaVuSans-2e" transform="translate(63.623047 0)"/>
       <use xlink:href="#DejaVuSans-32" transform="translate(95.410156 0)"/>
       <use xlink:href="#DejaVuSans-35" transform="translate(159.033203 0)"/>
      </g>
     </g>
    </g>
    <g id="xtick_2">
     <g id="line2d_2">
      <g>
       <use xlink:href="#m22cf6c1c66" x="85.611229" y="244.078125" style="stroke: #000000; stroke-width: 0.8"/>
      </g>
     </g>
     <g id="text_2">
      <!-- 0.50 -->
      <g transform="translate(74.478417 258.676563) scale(0.1 -0.1)">
       <use xlink:href="#DejaVuSans-30"/>
       <use xlink:href="#DejaVuSans-2e" transform="translate(63.623047 0)"/>
       <use xlink:href="#DejaVuSans-35" transform="translate(95.410156 0)"/>
       <use xlink:href="#DejaVuSans-30" transform="translate(159.033203 0)"/>
      </g>
     </g>
    </g>
    <g id="xtick_3">
     <g id="line2d_3">
      <g>
       <use xlink:href="#m22cf6c1c66" x="122.848632" y="244.078125" style="stroke: #000000; stroke-width: 0.8"/>
      </g>
     </g>
     <g id="text_3">
      <!-- 0.75 -->
      <g transform="translate(111.71582 258.676563) scale(0.1 -0.1)">
       <defs>
        <path id="DejaVuSans-37" d="M 525 4666 
L 3525 4666 
L 3525 4397 
L 1831 0 
L 1172 0 
L 2766 4134 
L 525 4134 
L 525 4666 
z
" transform="scale(0.015625)"/>
       </defs>
       <use xlink:href="#DejaVuSans-30"/>
       <use xlink:href="#DejaVuSans-2e" transform="translate(63.623047 0)"/>
       <use xlink:href="#DejaVuSans-37" transform="translate(95.410156 0)"/>
       <use xlink:href="#DejaVuSans-35" transform="translate(159.033203 0)"/>
      </g>
     </g>
    </g>
    <g id="xtick_4">
     <g id="line2d_4">
      <g>
       <use xlink:href="#m22cf6c1c66" x="160.086035" y="244.078125" style="stroke: #000000; stroke-width: 0.8"/>
      </g>
     </g>
     <g id="text_4">
      <!-- 1.00 -->
      <g transform="translate(148.953222 258.676563) scale(0.1 -0.1)">
       <defs>
        <path id="DejaVuSans-31" d="M 794 531 
L 1825 531 
L 1825 4091 
L 703 3866 
L 703 4441 
L 1819 4666 
L 2450 4666 
L 2450 531 
L 3481 531 
L 3481 0 
L 794 0 
L 794 531 
z
" transform="scale(0.015625)"/>
       </defs>
       <use xlink:href="#DejaVuSans-31"/>
       <use xlink:href="#DejaVuSans-2e" transform="translate(63.623047 0)"/>
       <use xlink:href="#DejaVuSans-30" transform="translate(95.410156 0)"/>
       <use xlink:href="#DejaVuSans-30" transform="translate(159.033203 0)"/>
      </g>
     </g>
    </g>
    <g id="xtick_5">
     <g id="line2d_5">
      <g>
       <use xlink:href="#m22cf6c1c66" x="197.323438" y="244.078125" style="stroke: #000000; stroke-width: 0.8"/>
      </g>
     </g>
     <g id="text_5">
      <!-- 1.25 -->
      <g transform="translate(186.190625 258.676563) scale(0.1 -0.1)">
       <use xlink:href="#DejaVuSans-31"/>
       <use xlink:href="#DejaVuSans-2e" transform="translate(63.623047 0)"/>
       <use xlink:href="#DejaVuSans-32" transform="translate(95.410156 0)"/>
       <use xlink:href="#DejaVuSans-35" transform="translate(159.033203 0)"/>
      </g>
     </g>
    </g>
    <g id="xtick_6">
     <g id="line2d_6">
      <g>
       <use xlink:href="#m22cf6c1c66" x="234.560841" y="244.078125" style="stroke: #000000; stroke-width: 0.8"/>
      </g>
     </g>
     <g id="text_6">
      <!-- 1.50 -->
      <g transform="translate(223.428028 258.676563) scale(0.1 -0.1)">
       <use xlink:href="#DejaVuSans-31"/>
       <use xlink:href="#DejaVuSans-2e" transform="translate(63.623047 0)"/>
       <use xlink:href="#DejaVuSans-35" transform="translate(95.410156 0)"/>
       <use xlink:href="#DejaVuSans-30" transform="translate(159.033203 0)"/>
      </g>
     </g>
    </g>
    <g id="xtick_7">
     <g id="line2d_7">
      <g>
       <use xlink:href="#m22cf6c1c66" x="271.798244" y="244.078125" style="stroke: #000000; stroke-width: 0.8"/>
      </g>
     </g>
     <g id="text_7">
      <!-- 1.75 -->
      <g transform="translate(260.665431 258.676563) scale(0.1 -0.1)">
       <use xlink:href="#DejaVuSans-31"/>
       <use xlink:href="#DejaVuSans-2e" transform="translate(63.623047 0)"/>
       <use xlink:href="#DejaVuSans-37" transform="translate(95.410156 0)"/>
       <use xlink:href="#DejaVuSans-35" transform="translate(159.033203 0)"/>
      </g>
     </g>
    </g>
    <g id="xtick_8">
     <g id="line2d_8">
      <g>
       <use xlink:href="#m22cf6c1c66" x="309.035647" y="244.078125" style="stroke: #000000; stroke-width: 0.8"/>
      </g>
     </g>
     <g id="text_8">
      <!-- 2.00 -->
      <g transform="translate(297.902834 258.676563) scale(0.1 -0.1)">
       <use xlink:href="#DejaVuSans-32"/>
       <use xlink:href="#DejaVuSans-2e" transform="translate(63.623047 0)"/>
       <use xlink:href="#DejaVuSans-30" transform="translate(95.410156 0)"/>
       <use xlink:href="#DejaVuSans-30" transform="translate(159.033203 0)"/>
      </g>
     </g>
    </g>
    <g id="xtick_9">
     <g id="line2d_9">
      <g>
       <use xlink:href="#m22cf6c1c66" x="346.273049" y="244.078125" style="stroke: #000000; stroke-width: 0.8"/>
      </g>
     </g>
     <g id="text_9">
      <!-- 2.25 -->
      <g transform="translate(335.140237 258.676563) scale(0.1 -0.1)">
       <use xlink:href="#DejaVuSans-32"/>
       <use xlink:href="#DejaVuSans-2e" transform="translate(63.623047 0)"/>
       <use xlink:href="#DejaVuSans-32" transform="translate(95.410156 0)"/>
       <use xlink:href="#DejaVuSans-35" transform="translate(159.033203 0)"/>
      </g>
     </g>
    </g>
    <g id="text_10">
     <!-- dspacing [Å] -->
     <g transform="translate(176.59375 274.039062) scale(0.1 -0.1)">
      <defs>
       <path id="DejaVuSans-64" d="M 2906 2969 
L 2906 4863 
L 3481 4863 
L 3481 0 
L 2906 0 
L 2906 525 
Q 2725 213 2448 61 
Q 2172 -91 1784 -91 
Q 1150 -91 751 415 
Q 353 922 353 1747 
Q 353 2572 751 3078 
Q 1150 3584 1784 3584 
Q 2172 3584 2448 3432 
Q 2725 3281 2906 2969 
z
M 947 1747 
Q 947 1113 1208 752 
Q 1469 391 1925 391 
Q 2381 391 2643 752 
Q 2906 1113 2906 1747 
Q 2906 2381 2643 2742 
Q 2381 3103 1925 3103 
Q 1469 3103 1208 2742 
Q 947 2381 947 1747 
z
" transform="scale(0.015625)"/>
       <path id="DejaVuSans-73" d="M 2834 3397 
L 2834 2853 
Q 2591 2978 2328 3040 
Q 2066 3103 1784 3103 
Q 1356 3103 1142 2972 
Q 928 2841 928 2578 
Q 928 2378 1081 2264 
Q 1234 2150 1697 2047 
L 1894 2003 
Q 2506 1872 2764 1633 
Q 3022 1394 3022 966 
Q 3022 478 2636 193 
Q 2250 -91 1575 -91 
Q 1294 -91 989 -36 
Q 684 19 347 128 
L 347 722 
Q 666 556 975 473 
Q 1284 391 1588 391 
Q 1994 391 2212 530 
Q 2431 669 2431 922 
Q 2431 1156 2273 1281 
Q 2116 1406 1581 1522 
L 1381 1569 
Q 847 1681 609 1914 
Q 372 2147 372 2553 
Q 372 3047 722 3315 
Q 1072 3584 1716 3584 
Q 2034 3584 2315 3537 
Q 2597 3491 2834 3397 
z
" transform="scale(0.015625)"/>
       <path id="DejaVuSans-70" d="M 1159 525 
L 1159 -1331 
L 581 -1331 
L 581 3500 
L 1159 3500 
L 1159 2969 
Q 1341 3281 1617 3432 
Q 1894 3584 2278 3584 
Q 2916 3584 3314 3078 
Q 3713 2572 3713 1747 
Q 3713 922 3314 415 
Q 2916 -91 2278 -91 
Q 1894 -91 1617 61 
Q 1341 213 1159 525 
z
M 3116 1747 
Q 3116 2381 2855 2742 
Q 2594 3103 2138 3103 
Q 1681 3103 1420 2742 
Q 1159 2381 1159 1747 
Q 1159 1113 1420 752 
Q 1681 391 2138 391 
Q 2594 391 2855 752 
Q 3116 1113 3116 1747 
z
" transform="scale(0.015625)"/>
       <path id="DejaVuSans-61" d="M 2194 1759 
Q 1497 1759 1228 1600 
Q 959 1441 959 1056 
Q 959 750 1161 570 
Q 1363 391 1709 391 
Q 2188 391 2477 730 
Q 2766 1069 2766 1631 
L 2766 1759 
L 2194 1759 
z
M 3341 1997 
L 3341 0 
L 2766 0 
L 2766 531 
Q 2569 213 2275 61 
Q 1981 -91 1556 -91 
Q 1019 -91 701 211 
Q 384 513 384 1019 
Q 384 1609 779 1909 
Q 1175 2209 1959 2209 
L 2766 2209 
L 2766 2266 
Q 2766 2663 2505 2880 
Q 2244 3097 1772 3097 
Q 1472 3097 1187 3025 
Q 903 2953 641 2809 
L 641 3341 
Q 956 3463 1253 3523 
Q 1550 3584 1831 3584 
Q 2591 3584 2966 3190 
Q 3341 2797 3341 1997 
z
" transform="scale(0.015625)"/>
       <path id="DejaVuSans-63" d="M 3122 3366 
L 3122 2828 
Q 2878 2963 2633 3030 
Q 2388 3097 2138 3097 
Q 1578 3097 1268 2742 
Q 959 2388 959 1747 
Q 959 1106 1268 751 
Q 1578 397 2138 397 
Q 2388 397 2633 464 
Q 2878 531 3122 666 
L 3122 134 
Q 2881 22 2623 -34 
Q 2366 -91 2075 -91 
Q 1284 -91 818 406 
Q 353 903 353 1747 
Q 353 2603 823 3093 
Q 1294 3584 2113 3584 
Q 2378 3584 2631 3529 
Q 2884 3475 3122 3366 
z
" transform="scale(0.015625)"/>
       <path id="DejaVuSans-69" d="M 603 3500 
L 1178 3500 
L 1178 0 
L 603 0 
L 603 3500 
z
M 603 4863 
L 1178 4863 
L 1178 4134 
L 603 4134 
L 603 4863 
z
" transform="scale(0.015625)"/>
       <path id="DejaVuSans-6e" d="M 3513 2113 
L 3513 0 
L 2938 0 
L 2938 2094 
Q 2938 2591 2744 2837 
Q 2550 3084 2163 3084 
Q 1697 3084 1428 2787 
Q 1159 2491 1159 1978 
L 1159 0 
L 581 0 
L 581 3500 
L 1159 3500 
L 1159 2956 
Q 1366 3272 1645 3428 
Q 1925 3584 2291 3584 
Q 2894 3584 3203 3211 
Q 3513 2838 3513 2113 
z
" transform="scale(0.015625)"/>
       <path id="DejaVuSans-67" d="M 2906 1791 
Q 2906 2416 2648 2759 
Q 2391 3103 1925 3103 
Q 1463 3103 1205 2759 
Q 947 2416 947 1791 
Q 947 1169 1205 825 
Q 1463 481 1925 481 
Q 2391 481 2648 825 
Q 2906 1169 2906 1791 
z
M 3481 434 
Q 3481 -459 3084 -895 
Q 2688 -1331 1869 -1331 
Q 1566 -1331 1297 -1286 
Q 1028 -1241 775 -1147 
L 775 -588 
Q 1028 -725 1275 -790 
Q 1522 -856 1778 -856 
Q 2344 -856 2625 -561 
Q 2906 -266 2906 331 
L 2906 616 
Q 2728 306 2450 153 
Q 2172 0 1784 0 
Q 1141 0 747 490 
Q 353 981 353 1791 
Q 353 2603 747 3093 
Q 1141 3584 1784 3584 
Q 2172 3584 2450 3431 
Q 2728 3278 2906 2969 
L 2906 3500 
L 3481 3500 
L 3481 434 
z
" transform="scale(0.015625)"/>
       <path id="DejaVuSans-20" transform="scale(0.015625)"/>
       <path id="DejaVuSans-5b" d="M 550 4863 
L 1875 4863 
L 1875 4416 
L 1125 4416 
L 1125 -397 
L 1875 -397 
L 1875 -844 
L 550 -844 
L 550 4863 
z
" transform="scale(0.015625)"/>
       <path id="DejaVuSans-c5" d="M 2663 5081 
Q 2663 5278 2523 5417 
Q 2384 5556 2188 5556 
Q 1988 5556 1852 5420 
Q 1716 5284 1716 5081 
Q 1716 4884 1853 4746 
Q 1991 4609 2188 4609 
Q 2384 4609 2523 4746 
Q 2663 4884 2663 5081 
z
M 2188 4044 
L 1338 1722 
L 3041 1722 
L 2188 4044 
z
M 1716 4366 
Q 1525 4494 1428 4673 
Q 1331 4853 1331 5081 
Q 1331 5441 1579 5691 
Q 1828 5941 2188 5941 
Q 2544 5941 2795 5689 
Q 3047 5438 3047 5081 
Q 3047 4863 2948 4678 
Q 2850 4494 2663 4366 
L 4325 0 
L 3669 0 
L 3244 1197 
L 1141 1197 
L 716 0 
L 50 0 
L 1716 4366 
z
" transform="scale(0.015625)"/>
       <path id="DejaVuSans-5d" d="M 1947 4863 
L 1947 -844 
L 622 -844 
L 622 -397 
L 1369 -397 
L 1369 4416 
L 622 4416 
L 622 4863 
L 1947 4863 
z
" transform="scale(0.015625)"/>
      </defs>
      <use xlink:href="#DejaVuSans-64"/>
      <use xlink:href="#DejaVuSans-73" transform="translate(63.476562 0)"/>
      <use xlink:href="#DejaVuSans-70" transform="translate(115.576172 0)"/>
      <use xlink:href="#DejaVuSans-61" transform="translate(179.052734 0)"/>
      <use xlink:href="#DejaVuSans-63" transform="translate(240.332031 0)"/>
      <use xlink:href="#DejaVuSans-69" transform="translate(295.3125 0)"/>
      <use xlink:href="#DejaVuSans-6e" transform="translate(323.095703 0)"/>
      <use xlink:href="#DejaVuSans-67" transform="translate(386.474609 0)"/>
      <use xlink:href="#DejaVuSans-20" transform="translate(449.951172 0)"/>
      <use xlink:href="#DejaVuSans-5b" transform="translate(481.738281 0)"/>
      <use xlink:href="#DejaVuSans-c5" transform="translate(520.751953 0)"/>
      <use xlink:href="#DejaVuSans-5d" transform="translate(589.160156 0)"/>
     </g>
    </g>
   </g>
   <g id="matplotlib.axis_2">
    <g id="ytick_1">
     <g id="line2d_10">
      <defs>
       <path id="m4986d2d365" d="M 0 0 
L -3.5 0 
" style="stroke: #000000; stroke-width: 0.8"/>
      </defs>
      <g>
       <use xlink:href="#m4986d2d365" x="40.603125" y="234.02688" style="stroke: #000000; stroke-width: 0.8"/>
      </g>
     </g>
     <g id="text_11">
      <!-- 0 -->
      <g transform="translate(27.240625 237.826099) scale(0.1 -0.1)">
       <use xlink:href="#DejaVuSans-30"/>
      </g>
     </g>
    </g>
    <g id="ytick_2">
     <g id="line2d_11">
      <g>
       <use xlink:href="#m4986d2d365" x="40.603125" y="192.492396" style="stroke: #000000; stroke-width: 0.8"/>
      </g>
     </g>
     <g id="text_12">
      <!-- 5 -->
      <g transform="translate(27.240625 196.291614) scale(0.1 -0.1)">
       <use xlink:href="#DejaVuSans-35"/>
      </g>
     </g>
    </g>
    <g id="ytick_3">
     <g id="line2d_12">
      <g>
       <use xlink:href="#m4986d2d365" x="40.603125" y="150.957911" style="stroke: #000000; stroke-width: 0.8"/>
      </g>
     </g>
     <g id="text_13">
      <!-- 10 -->
      <g transform="translate(20.878125 154.75713) scale(0.1 -0.1)">
       <use xlink:href="#DejaVuSans-31"/>
       <use xlink:href="#DejaVuSans-30" transform="translate(63.623047 0)"/>
      </g>
     </g>
    </g>
    <g id="ytick_4">
     <g id="line2d_13">
      <g>
       <use xlink:href="#m4986d2d365" x="40.603125" y="109.423426" style="stroke: #000000; stroke-width: 0.8"/>
      </g>
     </g>
     <g id="text_14">
      <!-- 15 -->
      <g transform="translate(20.878125 113.222645) scale(0.1 -0.1)">
       <use xlink:href="#DejaVuSans-31"/>
       <use xlink:href="#DejaVuSans-35" transform="translate(63.623047 0)"/>
      </g>
     </g>
    </g>
    <g id="ytick_5">
     <g id="line2d_14">
      <g>
       <use xlink:href="#m4986d2d365" x="40.603125" y="67.888942" style="stroke: #000000; stroke-width: 0.8"/>
      </g>
     </g>
     <g id="text_15">
      <!-- 20 -->
      <g transform="translate(20.878125 71.68816) scale(0.1 -0.1)">
       <use xlink:href="#DejaVuSans-32"/>
       <use xlink:href="#DejaVuSans-30" transform="translate(63.623047 0)"/>
      </g>
     </g>
    </g>
    <g id="ytick_6">
     <g id="line2d_15">
      <g>
       <use xlink:href="#m4986d2d365" x="40.603125" y="26.354457" style="stroke: #000000; stroke-width: 0.8"/>
      </g>
     </g>
     <g id="text_16">
      <!-- 25 -->
      <g transform="translate(20.878125 30.153676) scale(0.1 -0.1)">
       <use xlink:href="#DejaVuSans-32"/>
       <use xlink:href="#DejaVuSans-35" transform="translate(63.623047 0)"/>
      </g>
     </g>
    </g>
    <g id="text_17">
     <!-- I(d) [dimensionless] -->
     <g transform="translate(14.798438 182.815313) rotate(-90) scale(0.1 -0.1)">
      <defs>
       <path id="DejaVuSans-49" d="M 628 4666 
L 1259 4666 
L 1259 0 
L 628 0 
L 628 4666 
z
" transform="scale(0.015625)"/>
       <path id="DejaVuSans-28" d="M 1984 4856 
Q 1566 4138 1362 3434 
Q 1159 2731 1159 2009 
Q 1159 1288 1364 580 
Q 1569 -128 1984 -844 
L 1484 -844 
Q 1016 -109 783 600 
Q 550 1309 550 2009 
Q 550 2706 781 3412 
Q 1013 4119 1484 4856 
L 1984 4856 
z
" transform="scale(0.015625)"/>
       <path id="DejaVuSans-29" d="M 513 4856 
L 1013 4856 
Q 1481 4119 1714 3412 
Q 1947 2706 1947 2009 
Q 1947 1309 1714 600 
Q 1481 -109 1013 -844 
L 513 -844 
Q 928 -128 1133 580 
Q 1338 1288 1338 2009 
Q 1338 2731 1133 3434 
Q 928 4138 513 4856 
z
" transform="scale(0.015625)"/>
       <path id="DejaVuSans-6d" d="M 3328 2828 
Q 3544 3216 3844 3400 
Q 4144 3584 4550 3584 
Q 5097 3584 5394 3201 
Q 5691 2819 5691 2113 
L 5691 0 
L 5113 0 
L 5113 2094 
Q 5113 2597 4934 2840 
Q 4756 3084 4391 3084 
Q 3944 3084 3684 2787 
Q 3425 2491 3425 1978 
L 3425 0 
L 2847 0 
L 2847 2094 
Q 2847 2600 2669 2842 
Q 2491 3084 2119 3084 
Q 1678 3084 1418 2786 
Q 1159 2488 1159 1978 
L 1159 0 
L 581 0 
L 581 3500 
L 1159 3500 
L 1159 2956 
Q 1356 3278 1631 3431 
Q 1906 3584 2284 3584 
Q 2666 3584 2933 3390 
Q 3200 3197 3328 2828 
z
" transform="scale(0.015625)"/>
       <path id="DejaVuSans-65" d="M 3597 1894 
L 3597 1613 
L 953 1613 
Q 991 1019 1311 708 
Q 1631 397 2203 397 
Q 2534 397 2845 478 
Q 3156 559 3463 722 
L 3463 178 
Q 3153 47 2828 -22 
Q 2503 -91 2169 -91 
Q 1331 -91 842 396 
Q 353 884 353 1716 
Q 353 2575 817 3079 
Q 1281 3584 2069 3584 
Q 2775 3584 3186 3129 
Q 3597 2675 3597 1894 
z
M 3022 2063 
Q 3016 2534 2758 2815 
Q 2500 3097 2075 3097 
Q 1594 3097 1305 2825 
Q 1016 2553 972 2059 
L 3022 2063 
z
" transform="scale(0.015625)"/>
       <path id="DejaVuSans-6f" d="M 1959 3097 
Q 1497 3097 1228 2736 
Q 959 2375 959 1747 
Q 959 1119 1226 758 
Q 1494 397 1959 397 
Q 2419 397 2687 759 
Q 2956 1122 2956 1747 
Q 2956 2369 2687 2733 
Q 2419 3097 1959 3097 
z
M 1959 3584 
Q 2709 3584 3137 3096 
Q 3566 2609 3566 1747 
Q 3566 888 3137 398 
Q 2709 -91 1959 -91 
Q 1206 -91 779 398 
Q 353 888 353 1747 
Q 353 2609 779 3096 
Q 1206 3584 1959 3584 
z
" transform="scale(0.015625)"/>
       <path id="DejaVuSans-6c" d="M 603 4863 
L 1178 4863 
L 1178 0 
L 603 0 
L 603 4863 
z
" transform="scale(0.015625)"/>
      </defs>
      <use xlink:href="#DejaVuSans-49"/>
      <use xlink:href="#DejaVuSans-28" transform="translate(29.492188 0)"/>
      <use xlink:href="#DejaVuSans-64" transform="translate(68.505859 0)"/>
      <use xlink:href="#DejaVuSans-29" transform="translate(131.982422 0)"/>
      <use xlink:href="#DejaVuSans-20" transform="translate(170.996094 0)"/>
      <use xlink:href="#DejaVuSans-5b" transform="translate(202.783203 0)"/>
      <use xlink:href="#DejaVuSans-64" transform="translate(241.796875 0)"/>
      <use xlink:href="#DejaVuSans-69" transform="translate(305.273438 0)"/>
      <use xlink:href="#DejaVuSans-6d" transform="translate(333.056641 0)"/>
      <use xlink:href="#DejaVuSans-65" transform="translate(430.46875 0)"/>
      <use xlink:href="#DejaVuSans-6e" transform="translate(491.992188 0)"/>
      <use xlink:href="#DejaVuSans-73" transform="translate(555.371094 0)"/>
      <use xlink:href="#DejaVuSans-69" transform="translate(607.470703 0)"/>
      <use xlink:href="#DejaVuSans-6f" transform="translate(635.253906 0)"/>
      <use xlink:href="#DejaVuSans-6e" transform="translate(696.435547 0)"/>
      <use xlink:href="#DejaVuSans-6c" transform="translate(759.814453 0)"/>
      <use xlink:href="#DejaVuSans-65" transform="translate(787.597656 0)"/>
      <use xlink:href="#DejaVuSans-73" transform="translate(849.121094 0)"/>
      <use xlink:href="#DejaVuSans-73" transform="translate(901.220703 0)"/>
      <use xlink:href="#DejaVuSans-5d" transform="translate(953.320312 0)"/>
     </g>
    </g>
   </g>
   <g id="line2d_16">
    <path d="M 55.821307 233.80476 
L 57.343125 233.80476 
L 57.343125 233.584211 
L 58.864943 233.584211 
L 58.864943 233.958877 
L 64.952216 233.952318 
L 64.952216 233.763206 
L 66.474034 233.763206 
L 66.474034 233.9761 
L 69.51767 233.884965 
L 69.51767 233.852948 
L 75.604943 233.766803 
L 75.604943 233.725306 
L 77.126761 233.725306 
L 77.126761 233.894592 
L 78.64858 233.894592 
L 78.64858 233.546648 
L 80.170398 233.546648 
L 80.170398 233.755428 
L 84.735852 233.747518 
L 84.735852 233.40693 
L 86.25767 233.40693 
L 86.25767 230.674836 
L 87.779489 230.674836 
L 87.779489 228.529075 
L 89.301307 228.529075 
L 89.301307 229.423557 
L 90.823125 229.423557 
L 90.823125 225.092053 
L 92.344943 225.092053 
L 92.344943 227.435356 
L 93.866761 227.435356 
L 93.866761 230.766961 
L 95.38858 230.766961 
L 95.38858 233.422041 
L 96.910398 233.422041 
L 96.910398 232.682092 
L 98.432216 232.682092 
L 98.432216 232.075301 
L 99.954034 232.075301 
L 99.954034 227.673121 
L 101.475852 227.673121 
L 101.475852 229.824211 
L 104.519489 229.935036 
L 104.519489 225.219076 
L 106.041307 225.219076 
L 106.041307 228.444 
L 107.563125 228.444 
L 107.563125 232.567645 
L 109.084943 232.567645 
L 109.084943 232.419612 
L 110.606761 232.419612 
L 110.606761 229.018813 
L 112.12858 229.018813 
L 112.12858 221.205554 
L 113.650398 221.205554 
L 113.650398 219.848709 
L 115.172216 219.848709 
L 115.172216 225.596536 
L 116.694034 225.596536 
L 116.694034 231.115155 
L 118.215852 231.115155 
L 118.215852 233.245324 
L 122.781307 233.200681 
L 122.781307 233.014326 
L 127.346761 233.121591 
L 127.346761 232.593552 
L 130.390398 232.492787 
L 130.390398 228.85514 
L 131.912216 228.85514 
L 131.912216 223.846274 
L 133.434034 223.846274 
L 133.434034 223.168506 
L 134.955852 223.168506 
L 134.955852 229.981351 
L 136.47767 229.981351 
L 136.47767 231.668179 
L 137.999489 231.668179 
L 137.999489 232.087779 
L 141.043125 232.084138 
L 141.043125 228.53186 
L 142.564943 228.53186 
L 142.564943 219.656469 
L 144.086761 219.656469 
L 144.086761 219.813356 
L 145.60858 219.813356 
L 145.60858 228.568822 
L 147.130398 228.568822 
L 147.130398 231.76852 
L 148.652216 231.76852 
L 148.652216 232.167563 
L 150.174034 232.167563 
L 150.174034 232.361532 
L 154.739489 232.303268 
L 154.739489 232.217861 
L 160.826761 232.202667 
L 160.826761 230.305528 
L 162.34858 230.305528 
L 162.34858 218.233699 
L 163.870398 218.233699 
L 163.870398 209.723045 
L 165.392216 209.723045 
L 165.392216 219.801351 
L 166.914034 219.801351 
L 166.914034 229.922547 
L 168.435852 229.922547 
L 168.435852 225.486172 
L 169.95767 225.486172 
L 169.95767 208.027736 
L 171.479489 208.027736 
L 171.479489 209.920406 
L 173.001307 209.920406 
L 173.001307 226.850797 
L 174.523125 226.850797 
L 174.523125 231.68563 
L 176.044943 231.68563 
L 176.044943 232.22035 
L 177.566761 232.22035 
L 177.566761 232.085629 
L 179.08858 232.085629 
L 179.08858 231.856185 
L 180.610398 231.856185 
L 180.610398 232.174292 
L 183.654034 232.284788 
L 183.654034 232.40874 
L 185.175852 232.40874 
L 185.175852 231.466088 
L 186.69767 231.466088 
L 186.69767 232.09936 
L 188.219489 232.09936 
L 188.219489 232.33577 
L 191.263125 232.368773 
L 191.263125 232.479407 
L 195.82858 232.560238 
L 195.82858 232.637131 
L 198.872216 232.628405 
L 198.872216 232.808548 
L 206.481307 232.864128 
L 206.481307 233.004784 
L 211.046761 233.112719 
L 211.046761 233.116805 
L 218.655852 233.016285 
L 218.655852 232.999311 
L 227.786761 232.9027 
L 227.786761 232.827734 
L 235.395852 232.882457 
L 235.395852 232.707693 
L 236.91767 232.707693 
L 236.91767 232.882216 
L 239.961307 232.845608 
L 239.961307 232.73159 
L 247.570398 232.658029 
L 247.570398 232.607375 
L 255.179489 232.564996 
L 255.179489 232.452649 
L 262.78858 232.410885 
L 262.78858 232.311198 
L 268.875852 232.291122 
L 268.875852 232.188002 
L 273.441307 232.093647 
L 273.441307 232.076037 
L 274.963125 232.076037 
L 274.963125 231.962527 
L 279.52858 231.987454 
L 279.52858 231.839643 
L 285.615852 231.749478 
L 285.615852 231.606697 
L 287.13767 231.606697 
L 287.13767 231.428028 
L 294.746761 231.440375 
L 294.746761 231.304788 
L 296.26858 231.304788 
L 296.26858 231.129047 
L 305.399489 231.051913 
L 305.399489 230.939437 
L 309.964943 230.916651 
L 309.964943 230.346842 
L 311.486761 230.346842 
L 311.486761 228.909863 
L 313.00858 228.909863 
L 313.00858 220.936034 
L 314.530398 220.936034 
L 314.530398 172.785972 
L 316.052216 172.785972 
L 316.052216 52.65191 
L 317.574034 52.65191 
L 317.574034 32.820038 
L 319.095852 32.820038 
L 319.095852 142.090084 
L 320.61767 142.090084 
L 320.61767 213.944577 
L 322.139489 213.944577 
L 322.139489 213.944577 
" clip-path="url(#pdaefe27ba0)" style="fill: none; stroke: #1f77b4; stroke-width: 1.5; stroke-linecap: square"/>
   </g>
   <g id="LineCollection_1">
    <path d="M 56.582216 233.940211 
L 56.582216 233.669308 
" clip-path="url(#pdaefe27ba0)" style="fill: none; stroke: #1f77b4; stroke-width: 1.5"/>
    <path d="M 58.104034 233.761675 
L 58.104034 233.406747 
" clip-path="url(#pdaefe27ba0)" style="fill: none; stroke: #1f77b4; stroke-width: 1.5"/>
    <path d="M 59.625852 233.998125 
L 59.625852 233.91963 
" clip-path="url(#pdaefe27ba0)" style="fill: none; stroke: #1f77b4; stroke-width: 1.5"/>
    <path d="M 61.14767 233.942467 
L 61.14767 233.829359 
" clip-path="url(#pdaefe27ba0)" style="fill: none; stroke: #1f77b4; stroke-width: 1.5"/>
    <path d="M 62.669489 233.949511 
L 62.669489 233.805705 
" clip-path="url(#pdaefe27ba0)" style="fill: none; stroke: #1f77b4; stroke-width: 1.5"/>
    <path d="M 64.191307 233.988623 
L 64.191307 233.916013 
" clip-path="url(#pdaefe27ba0)" style="fill: none; stroke: #1f77b4; stroke-width: 1.5"/>
    <path d="M 65.713125 233.873864 
L 65.713125 233.652548 
" clip-path="url(#pdaefe27ba0)" style="fill: none; stroke: #1f77b4; stroke-width: 1.5"/>
    <path d="M 67.234943 233.988269 
L 67.234943 233.963931 
" clip-path="url(#pdaefe27ba0)" style="fill: none; stroke: #1f77b4; stroke-width: 1.5"/>
    <path d="M 68.756761 233.95797 
L 68.756761 233.81196 
" clip-path="url(#pdaefe27ba0)" style="fill: none; stroke: #1f77b4; stroke-width: 1.5"/>
    <path d="M 70.27858 233.948828 
L 70.27858 233.757069 
" clip-path="url(#pdaefe27ba0)" style="fill: none; stroke: #1f77b4; stroke-width: 1.5"/>
    <path d="M 71.800398 233.844839 
L 71.800398 233.719827 
" clip-path="url(#pdaefe27ba0)" style="fill: none; stroke: #1f77b4; stroke-width: 1.5"/>
    <path d="M 73.322216 233.937917 
L 73.322216 233.891767 
" clip-path="url(#pdaefe27ba0)" style="fill: none; stroke: #1f77b4; stroke-width: 1.5"/>
    <path d="M 74.844034 233.864008 
L 74.844034 233.669598 
" clip-path="url(#pdaefe27ba0)" style="fill: none; stroke: #1f77b4; stroke-width: 1.5"/>
    <path d="M 76.365852 233.860294 
L 76.365852 233.590318 
" clip-path="url(#pdaefe27ba0)" style="fill: none; stroke: #1f77b4; stroke-width: 1.5"/>
    <path d="M 77.88767 233.923297 
L 77.88767 233.865888 
" clip-path="url(#pdaefe27ba0)" style="fill: none; stroke: #1f77b4; stroke-width: 1.5"/>
    <path d="M 79.409489 233.719438 
L 79.409489 233.373859 
" clip-path="url(#pdaefe27ba0)" style="fill: none; stroke: #1f77b4; stroke-width: 1.5"/>
    <path d="M 80.931307 233.838703 
L 80.931307 233.672153 
" clip-path="url(#pdaefe27ba0)" style="fill: none; stroke: #1f77b4; stroke-width: 1.5"/>
    <path d="M 82.453125 233.861734 
L 82.453125 233.769819 
" clip-path="url(#pdaefe27ba0)" style="fill: none; stroke: #1f77b4; stroke-width: 1.5"/>
    <path d="M 83.974943 233.849117 
L 83.974943 233.64592 
" clip-path="url(#pdaefe27ba0)" style="fill: none; stroke: #1f77b4; stroke-width: 1.5"/>
    <path d="M 85.496761 233.655446 
L 85.496761 233.158414 
" clip-path="url(#pdaefe27ba0)" style="fill: none; stroke: #1f77b4; stroke-width: 1.5"/>
    <path d="M 87.01858 231.143537 
L 87.01858 230.206135 
" clip-path="url(#pdaefe27ba0)" style="fill: none; stroke: #1f77b4; stroke-width: 1.5"/>
    <path d="M 88.540398 229.202701 
L 88.540398 227.855448 
" clip-path="url(#pdaefe27ba0)" style="fill: none; stroke: #1f77b4; stroke-width: 1.5"/>
    <path d="M 90.062216 229.967833 
L 90.062216 228.87928 
" clip-path="url(#pdaefe27ba0)" style="fill: none; stroke: #1f77b4; stroke-width: 1.5"/>
    <path d="M 91.584034 226.034701 
L 91.584034 224.149404 
" clip-path="url(#pdaefe27ba0)" style="fill: none; stroke: #1f77b4; stroke-width: 1.5"/>
    <path d="M 93.105852 228.23845 
L 93.105852 226.632262 
" clip-path="url(#pdaefe27ba0)" style="fill: none; stroke: #1f77b4; stroke-width: 1.5"/>
    <path d="M 94.62767 231.297656 
L 94.62767 230.236266 
" clip-path="url(#pdaefe27ba0)" style="fill: none; stroke: #1f77b4; stroke-width: 1.5"/>
    <path d="M 96.149489 233.550281 
L 96.149489 233.293801 
" clip-path="url(#pdaefe27ba0)" style="fill: none; stroke: #1f77b4; stroke-width: 1.5"/>
    <path d="M 97.671307 233.085941 
L 97.671307 232.278242 
" clip-path="url(#pdaefe27ba0)" style="fill: none; stroke: #1f77b4; stroke-width: 1.5"/>
    <path d="M 99.193125 232.491422 
L 99.193125 231.65918 
" clip-path="url(#pdaefe27ba0)" style="fill: none; stroke: #1f77b4; stroke-width: 1.5"/>
    <path d="M 100.714943 228.407185 
L 100.714943 226.939058 
" clip-path="url(#pdaefe27ba0)" style="fill: none; stroke: #1f77b4; stroke-width: 1.5"/>
    <path d="M 102.236761 230.408421 
L 102.236761 229.24 
" clip-path="url(#pdaefe27ba0)" style="fill: none; stroke: #1f77b4; stroke-width: 1.5"/>
    <path d="M 103.75858 230.486161 
L 103.75858 229.38391 
" clip-path="url(#pdaefe27ba0)" style="fill: none; stroke: #1f77b4; stroke-width: 1.5"/>
    <path d="M 105.280398 226.319199 
L 105.280398 224.118953 
" clip-path="url(#pdaefe27ba0)" style="fill: none; stroke: #1f77b4; stroke-width: 1.5"/>
    <path d="M 106.802216 229.181314 
L 106.802216 227.706686 
" clip-path="url(#pdaefe27ba0)" style="fill: none; stroke: #1f77b4; stroke-width: 1.5"/>
    <path d="M 108.324034 232.792877 
L 108.324034 232.342413 
" clip-path="url(#pdaefe27ba0)" style="fill: none; stroke: #1f77b4; stroke-width: 1.5"/>
    <path d="M 109.845852 232.876644 
L 109.845852 231.96258 
" clip-path="url(#pdaefe27ba0)" style="fill: none; stroke: #1f77b4; stroke-width: 1.5"/>
    <path d="M 111.36767 229.729129 
L 111.36767 228.308497 
" clip-path="url(#pdaefe27ba0)" style="fill: none; stroke: #1f77b4; stroke-width: 1.5"/>
    <path d="M 112.889489 222.287283 
L 112.889489 220.123824 
" clip-path="url(#pdaefe27ba0)" style="fill: none; stroke: #1f77b4; stroke-width: 1.5"/>
    <path d="M 114.411307 221.068556 
L 114.411307 218.628863 
" clip-path="url(#pdaefe27ba0)" style="fill: none; stroke: #1f77b4; stroke-width: 1.5"/>
    <path d="M 115.933125 226.737917 
L 115.933125 224.455155 
" clip-path="url(#pdaefe27ba0)" style="fill: none; stroke: #1f77b4; stroke-width: 1.5"/>
    <path d="M 117.454943 231.590223 
L 117.454943 230.640087 
" clip-path="url(#pdaefe27ba0)" style="fill: none; stroke: #1f77b4; stroke-width: 1.5"/>
    <path d="M 118.976761 233.403686 
L 118.976761 233.086962 
" clip-path="url(#pdaefe27ba0)" style="fill: none; stroke: #1f77b4; stroke-width: 1.5"/>
    <path d="M 120.49858 233.372818 
L 120.49858 233.162221 
" clip-path="url(#pdaefe27ba0)" style="fill: none; stroke: #1f77b4; stroke-width: 1.5"/>
    <path d="M 122.020398 233.345681 
L 122.020398 233.05568 
" clip-path="url(#pdaefe27ba0)" style="fill: none; stroke: #1f77b4; stroke-width: 1.5"/>
    <path d="M 123.542216 233.156798 
L 123.542216 232.871853 
" clip-path="url(#pdaefe27ba0)" style="fill: none; stroke: #1f77b4; stroke-width: 1.5"/>
    <path d="M 125.064034 233.143932 
L 125.064034 232.898582 
" clip-path="url(#pdaefe27ba0)" style="fill: none; stroke: #1f77b4; stroke-width: 1.5"/>
    <path d="M 126.585852 233.203829 
L 126.585852 233.039354 
" clip-path="url(#pdaefe27ba0)" style="fill: none; stroke: #1f77b4; stroke-width: 1.5"/>
    <path d="M 128.10767 232.773244 
L 128.10767 232.413859 
" clip-path="url(#pdaefe27ba0)" style="fill: none; stroke: #1f77b4; stroke-width: 1.5"/>
    <path d="M 129.629489 232.623885 
L 129.629489 232.361689 
" clip-path="url(#pdaefe27ba0)" style="fill: none; stroke: #1f77b4; stroke-width: 1.5"/>
    <path d="M 131.151307 229.038307 
L 131.151307 228.671973 
" clip-path="url(#pdaefe27ba0)" style="fill: none; stroke: #1f77b4; stroke-width: 1.5"/>
    <path d="M 132.673125 224.062701 
L 132.673125 223.629848 
" clip-path="url(#pdaefe27ba0)" style="fill: none; stroke: #1f77b4; stroke-width: 1.5"/>
    <path d="M 134.194943 223.411343 
L 134.194943 222.92567 
" clip-path="url(#pdaefe27ba0)" style="fill: none; stroke: #1f77b4; stroke-width: 1.5"/>
    <path d="M 135.716761 230.129276 
L 135.716761 229.833426 
" clip-path="url(#pdaefe27ba0)" style="fill: none; stroke: #1f77b4; stroke-width: 1.5"/>
    <path d="M 137.23858 231.780417 
L 137.23858 231.55594 
" clip-path="url(#pdaefe27ba0)" style="fill: none; stroke: #1f77b4; stroke-width: 1.5"/>
    <path d="M 138.760398 232.175413 
L 138.760398 232.000145 
" clip-path="url(#pdaefe27ba0)" style="fill: none; stroke: #1f77b4; stroke-width: 1.5"/>
    <path d="M 140.282216 232.155129 
L 140.282216 232.013146 
" clip-path="url(#pdaefe27ba0)" style="fill: none; stroke: #1f77b4; stroke-width: 1.5"/>
    <path d="M 141.804034 228.646785 
L 141.804034 228.416935 
" clip-path="url(#pdaefe27ba0)" style="fill: none; stroke: #1f77b4; stroke-width: 1.5"/>
    <path d="M 143.325852 219.818346 
L 143.325852 219.494592 
" clip-path="url(#pdaefe27ba0)" style="fill: none; stroke: #1f77b4; stroke-width: 1.5"/>
    <path d="M 144.84767 219.965746 
L 144.84767 219.660966 
" clip-path="url(#pdaefe27ba0)" style="fill: none; stroke: #1f77b4; stroke-width: 1.5"/>
    <path d="M 146.369489 228.671499 
L 146.369489 228.466145 
" clip-path="url(#pdaefe27ba0)" style="fill: none; stroke: #1f77b4; stroke-width: 1.5"/>
    <path d="M 147.891307 231.832819 
L 147.891307 231.704221 
" clip-path="url(#pdaefe27ba0)" style="fill: none; stroke: #1f77b4; stroke-width: 1.5"/>
    <path d="M 149.413125 232.218984 
L 149.413125 232.116142 
" clip-path="url(#pdaefe27ba0)" style="fill: none; stroke: #1f77b4; stroke-width: 1.5"/>
    <path d="M 150.934943 232.407917 
L 150.934943 232.315148 
" clip-path="url(#pdaefe27ba0)" style="fill: none; stroke: #1f77b4; stroke-width: 1.5"/>
    <path d="M 152.456761 232.392298 
L 152.456761 232.299641 
" clip-path="url(#pdaefe27ba0)" style="fill: none; stroke: #1f77b4; stroke-width: 1.5"/>
    <path d="M 153.97858 232.350513 
L 153.97858 232.256023 
" clip-path="url(#pdaefe27ba0)" style="fill: none; stroke: #1f77b4; stroke-width: 1.5"/>
    <path d="M 155.500398 232.266862 
L 155.500398 232.16886 
" clip-path="url(#pdaefe27ba0)" style="fill: none; stroke: #1f77b4; stroke-width: 1.5"/>
    <path d="M 157.022216 232.329447 
L 157.022216 232.237115 
" clip-path="url(#pdaefe27ba0)" style="fill: none; stroke: #1f77b4; stroke-width: 1.5"/>
    <path d="M 158.544034 232.211518 
L 158.544034 232.113789 
" clip-path="url(#pdaefe27ba0)" style="fill: none; stroke: #1f77b4; stroke-width: 1.5"/>
    <path d="M 160.065852 232.25006 
L 160.065852 232.155274 
" clip-path="url(#pdaefe27ba0)" style="fill: none; stroke: #1f77b4; stroke-width: 1.5"/>
    <path d="M 161.58767 230.37173 
L 161.58767 230.239327 
" clip-path="url(#pdaefe27ba0)" style="fill: none; stroke: #1f77b4; stroke-width: 1.5"/>
    <path d="M 163.109489 218.374145 
L 163.109489 218.093252 
" clip-path="url(#pdaefe27ba0)" style="fill: none; stroke: #1f77b4; stroke-width: 1.5"/>
    <path d="M 164.631307 209.895675 
L 164.631307 209.550414 
" clip-path="url(#pdaefe27ba0)" style="fill: none; stroke: #1f77b4; stroke-width: 1.5"/>
    <path d="M 166.153125 219.931086 
L 166.153125 219.671616 
" clip-path="url(#pdaefe27ba0)" style="fill: none; stroke: #1f77b4; stroke-width: 1.5"/>
    <path d="M 167.674943 229.990125 
L 167.674943 229.854968 
" clip-path="url(#pdaefe27ba0)" style="fill: none; stroke: #1f77b4; stroke-width: 1.5"/>
    <path d="M 169.196761 225.583974 
L 169.196761 225.388371 
" clip-path="url(#pdaefe27ba0)" style="fill: none; stroke: #1f77b4; stroke-width: 1.5"/>
    <path d="M 170.71858 208.207198 
L 170.71858 207.848275 
" clip-path="url(#pdaefe27ba0)" style="fill: none; stroke: #1f77b4; stroke-width: 1.5"/>
    <path d="M 172.240398 210.092855 
L 172.240398 209.747957 
" clip-path="url(#pdaefe27ba0)" style="fill: none; stroke: #1f77b4; stroke-width: 1.5"/>
    <path d="M 173.762216 226.94031 
L 173.762216 226.761285 
" clip-path="url(#pdaefe27ba0)" style="fill: none; stroke: #1f77b4; stroke-width: 1.5"/>
    <path d="M 175.284034 231.736629 
L 175.284034 231.634632 
" clip-path="url(#pdaefe27ba0)" style="fill: none; stroke: #1f77b4; stroke-width: 1.5"/>
    <path d="M 176.805852 232.266593 
L 176.805852 232.174107 
" clip-path="url(#pdaefe27ba0)" style="fill: none; stroke: #1f77b4; stroke-width: 1.5"/>
    <path d="M 178.32767 232.133714 
L 178.32767 232.037544 
" clip-path="url(#pdaefe27ba0)" style="fill: none; stroke: #1f77b4; stroke-width: 1.5"/>
    <path d="M 179.849489 231.908616 
L 179.849489 231.803754 
" clip-path="url(#pdaefe27ba0)" style="fill: none; stroke: #1f77b4; stroke-width: 1.5"/>
    <path d="M 181.371307 232.221471 
L 181.371307 232.127113 
" clip-path="url(#pdaefe27ba0)" style="fill: none; stroke: #1f77b4; stroke-width: 1.5"/>
    <path d="M 182.893125 232.329555 
L 182.893125 232.240021 
" clip-path="url(#pdaefe27ba0)" style="fill: none; stroke: #1f77b4; stroke-width: 1.5"/>
    <path d="M 184.414943 232.451601 
L 184.414943 232.365879 
" clip-path="url(#pdaefe27ba0)" style="fill: none; stroke: #1f77b4; stroke-width: 1.5"/>
    <path d="M 185.936761 231.522556 
L 185.936761 231.409619 
" clip-path="url(#pdaefe27ba0)" style="fill: none; stroke: #1f77b4; stroke-width: 1.5"/>
    <path d="M 187.45858 232.146577 
L 187.45858 232.052143 
" clip-path="url(#pdaefe27ba0)" style="fill: none; stroke: #1f77b4; stroke-width: 1.5"/>
    <path d="M 188.980398 232.379152 
L 188.980398 232.292389 
" clip-path="url(#pdaefe27ba0)" style="fill: none; stroke: #1f77b4; stroke-width: 1.5"/>
    <path d="M 190.502216 232.411952 
L 190.502216 232.325594 
" clip-path="url(#pdaefe27ba0)" style="fill: none; stroke: #1f77b4; stroke-width: 1.5"/>
    <path d="M 192.024034 232.521094 
L 192.024034 232.437719 
" clip-path="url(#pdaefe27ba0)" style="fill: none; stroke: #1f77b4; stroke-width: 1.5"/>
    <path d="M 193.545852 232.538295 
L 193.545852 232.454853 
" clip-path="url(#pdaefe27ba0)" style="fill: none; stroke: #1f77b4; stroke-width: 1.5"/>
    <path d="M 195.06767 232.600297 
L 195.06767 232.520179 
" clip-path="url(#pdaefe27ba0)" style="fill: none; stroke: #1f77b4; stroke-width: 1.5"/>
    <path d="M 196.589489 232.676355 
L 196.589489 232.597906 
" clip-path="url(#pdaefe27ba0)" style="fill: none; stroke: #1f77b4; stroke-width: 1.5"/>
    <path d="M 198.111307 232.667023 
L 198.111307 232.589787 
" clip-path="url(#pdaefe27ba0)" style="fill: none; stroke: #1f77b4; stroke-width: 1.5"/>
    <path d="M 199.633125 232.846174 
L 199.633125 232.770922 
" clip-path="url(#pdaefe27ba0)" style="fill: none; stroke: #1f77b4; stroke-width: 1.5"/>
    <path d="M 201.154943 232.875627 
L 201.154943 232.800093 
" clip-path="url(#pdaefe27ba0)" style="fill: none; stroke: #1f77b4; stroke-width: 1.5"/>
    <path d="M 202.676761 232.892281 
L 202.676761 232.817828 
" clip-path="url(#pdaefe27ba0)" style="fill: none; stroke: #1f77b4; stroke-width: 1.5"/>
    <path d="M 204.19858 232.950346 
L 204.19858 232.881233 
" clip-path="url(#pdaefe27ba0)" style="fill: none; stroke: #1f77b4; stroke-width: 1.5"/>
    <path d="M 205.720398 232.905812 
L 205.720398 232.822444 
" clip-path="url(#pdaefe27ba0)" style="fill: none; stroke: #1f77b4; stroke-width: 1.5"/>
    <path d="M 207.242216 233.039631 
L 207.242216 232.969937 
" clip-path="url(#pdaefe27ba0)" style="fill: none; stroke: #1f77b4; stroke-width: 1.5"/>
    <path d="M 208.764034 232.978366 
L 208.764034 232.903509 
" clip-path="url(#pdaefe27ba0)" style="fill: none; stroke: #1f77b4; stroke-width: 1.5"/>
    <path d="M 210.285852 233.144188 
L 210.285852 233.081251 
" clip-path="url(#pdaefe27ba0)" style="fill: none; stroke: #1f77b4; stroke-width: 1.5"/>
    <path d="M 211.80767 233.150496 
L 211.80767 233.083114 
" clip-path="url(#pdaefe27ba0)" style="fill: none; stroke: #1f77b4; stroke-width: 1.5"/>
    <path d="M 213.329489 233.078776 
L 213.329489 233.014853 
" clip-path="url(#pdaefe27ba0)" style="fill: none; stroke: #1f77b4; stroke-width: 1.5"/>
    <path d="M 214.851307 233.111666 
L 214.851307 233.035876 
" clip-path="url(#pdaefe27ba0)" style="fill: none; stroke: #1f77b4; stroke-width: 1.5"/>
    <path d="M 216.373125 233.11621 
L 216.373125 233.050086 
" clip-path="url(#pdaefe27ba0)" style="fill: none; stroke: #1f77b4; stroke-width: 1.5"/>
    <path d="M 217.894943 233.054103 
L 217.894943 232.978467 
" clip-path="url(#pdaefe27ba0)" style="fill: none; stroke: #1f77b4; stroke-width: 1.5"/>
    <path d="M 219.416761 233.035365 
L 219.416761 232.963256 
" clip-path="url(#pdaefe27ba0)" style="fill: none; stroke: #1f77b4; stroke-width: 1.5"/>
    <path d="M 220.93858 233.119206 
L 220.93858 233.0522 
" clip-path="url(#pdaefe27ba0)" style="fill: none; stroke: #1f77b4; stroke-width: 1.5"/>
    <path d="M 222.460398 232.984134 
L 222.460398 232.913296 
" clip-path="url(#pdaefe27ba0)" style="fill: none; stroke: #1f77b4; stroke-width: 1.5"/>
    <path d="M 223.982216 232.958094 
L 223.982216 232.887588 
" clip-path="url(#pdaefe27ba0)" style="fill: none; stroke: #1f77b4; stroke-width: 1.5"/>
    <path d="M 225.504034 233.016665 
L 225.504034 232.942907 
" clip-path="url(#pdaefe27ba0)" style="fill: none; stroke: #1f77b4; stroke-width: 1.5"/>
    <path d="M 227.025852 232.939343 
L 227.025852 232.866057 
" clip-path="url(#pdaefe27ba0)" style="fill: none; stroke: #1f77b4; stroke-width: 1.5"/>
    <path d="M 228.54767 232.865478 
L 228.54767 232.789989 
" clip-path="url(#pdaefe27ba0)" style="fill: none; stroke: #1f77b4; stroke-width: 1.5"/>
    <path d="M 230.069489 232.930338 
L 230.069489 232.853494 
" clip-path="url(#pdaefe27ba0)" style="fill: none; stroke: #1f77b4; stroke-width: 1.5"/>
    <path d="M 231.591307 232.845548 
L 231.591307 232.768121 
" clip-path="url(#pdaefe27ba0)" style="fill: none; stroke: #1f77b4; stroke-width: 1.5"/>
    <path d="M 233.113125 232.830408 
L 233.113125 232.753878 
" clip-path="url(#pdaefe27ba0)" style="fill: none; stroke: #1f77b4; stroke-width: 1.5"/>
    <path d="M 234.634943 232.915698 
L 234.634943 232.849217 
" clip-path="url(#pdaefe27ba0)" style="fill: none; stroke: #1f77b4; stroke-width: 1.5"/>
    <path d="M 236.156761 232.748249 
L 236.156761 232.667137 
" clip-path="url(#pdaefe27ba0)" style="fill: none; stroke: #1f77b4; stroke-width: 1.5"/>
    <path d="M 237.67858 232.913943 
L 237.67858 232.850488 
" clip-path="url(#pdaefe27ba0)" style="fill: none; stroke: #1f77b4; stroke-width: 1.5"/>
    <path d="M 239.200398 232.878962 
L 239.200398 232.812254 
" clip-path="url(#pdaefe27ba0)" style="fill: none; stroke: #1f77b4; stroke-width: 1.5"/>
    <path d="M 240.722216 232.767273 
L 240.722216 232.695907 
" clip-path="url(#pdaefe27ba0)" style="fill: none; stroke: #1f77b4; stroke-width: 1.5"/>
    <path d="M 242.244034 232.810525 
L 242.244034 232.73271 
" clip-path="url(#pdaefe27ba0)" style="fill: none; stroke: #1f77b4; stroke-width: 1.5"/>
    <path d="M 243.765852 232.795955 
L 243.765852 232.726638 
" clip-path="url(#pdaefe27ba0)" style="fill: none; stroke: #1f77b4; stroke-width: 1.5"/>
    <path d="M 245.28767 232.666359 
L 245.28767 232.590637 
" clip-path="url(#pdaefe27ba0)" style="fill: none; stroke: #1f77b4; stroke-width: 1.5"/>
    <path d="M 246.809489 232.695544 
L 246.809489 232.620514 
" clip-path="url(#pdaefe27ba0)" style="fill: none; stroke: #1f77b4; stroke-width: 1.5"/>
    <path d="M 248.331307 232.644586 
L 248.331307 232.570163 
" clip-path="url(#pdaefe27ba0)" style="fill: none; stroke: #1f77b4; stroke-width: 1.5"/>
    <path d="M 249.853125 232.619895 
L 249.853125 232.546502 
" clip-path="url(#pdaefe27ba0)" style="fill: none; stroke: #1f77b4; stroke-width: 1.5"/>
    <path d="M 251.374943 232.562162 
L 251.374943 232.487248 
" clip-path="url(#pdaefe27ba0)" style="fill: none; stroke: #1f77b4; stroke-width: 1.5"/>
    <path d="M 252.896761 232.57689 
L 252.896761 232.503951 
" clip-path="url(#pdaefe27ba0)" style="fill: none; stroke: #1f77b4; stroke-width: 1.5"/>
    <path d="M 254.41858 232.602176 
L 254.41858 232.527816 
" clip-path="url(#pdaefe27ba0)" style="fill: none; stroke: #1f77b4; stroke-width: 1.5"/>
    <path d="M 255.940398 232.490393 
L 255.940398 232.414904 
" clip-path="url(#pdaefe27ba0)" style="fill: none; stroke: #1f77b4; stroke-width: 1.5"/>
    <path d="M 257.462216 232.412617 
L 257.462216 232.333467 
" clip-path="url(#pdaefe27ba0)" style="fill: none; stroke: #1f77b4; stroke-width: 1.5"/>
    <path d="M 258.984034 232.440047 
L 258.984034 232.363999 
" clip-path="url(#pdaefe27ba0)" style="fill: none; stroke: #1f77b4; stroke-width: 1.5"/>
    <path d="M 260.505852 232.517552 
L 260.505852 232.440942 
" clip-path="url(#pdaefe27ba0)" style="fill: none; stroke: #1f77b4; stroke-width: 1.5"/>
    <path d="M 262.02767 232.447684 
L 262.02767 232.374086 
" clip-path="url(#pdaefe27ba0)" style="fill: none; stroke: #1f77b4; stroke-width: 1.5"/>
    <path d="M 263.549489 232.350951 
L 263.549489 232.271445 
" clip-path="url(#pdaefe27ba0)" style="fill: none; stroke: #1f77b4; stroke-width: 1.5"/>
    <path d="M 265.071307 232.293966 
L 265.071307 232.212708 
" clip-path="url(#pdaefe27ba0)" style="fill: none; stroke: #1f77b4; stroke-width: 1.5"/>
    <path d="M 266.593125 232.322805 
L 266.593125 232.24693 
" clip-path="url(#pdaefe27ba0)" style="fill: none; stroke: #1f77b4; stroke-width: 1.5"/>
    <path d="M 268.114943 232.328247 
L 268.114943 232.253997 
" clip-path="url(#pdaefe27ba0)" style="fill: none; stroke: #1f77b4; stroke-width: 1.5"/>
    <path d="M 269.636761 232.228029 
L 269.636761 232.147975 
" clip-path="url(#pdaefe27ba0)" style="fill: none; stroke: #1f77b4; stroke-width: 1.5"/>
    <path d="M 271.15858 232.212641 
L 271.15858 232.132536 
" clip-path="url(#pdaefe27ba0)" style="fill: none; stroke: #1f77b4; stroke-width: 1.5"/>
    <path d="M 272.680398 232.133848 
L 272.680398 232.053446 
" clip-path="url(#pdaefe27ba0)" style="fill: none; stroke: #1f77b4; stroke-width: 1.5"/>
    <path d="M 274.202216 232.11715 
L 274.202216 232.034924 
" clip-path="url(#pdaefe27ba0)" style="fill: none; stroke: #1f77b4; stroke-width: 1.5"/>
    <path d="M 275.724034 232.005087 
L 275.724034 231.919968 
" clip-path="url(#pdaefe27ba0)" style="fill: none; stroke: #1f77b4; stroke-width: 1.5"/>
    <path d="M 277.245852 232.026485 
L 277.245852 231.944898 
" clip-path="url(#pdaefe27ba0)" style="fill: none; stroke: #1f77b4; stroke-width: 1.5"/>
    <path d="M 278.76767 232.02806 
L 278.76767 231.946848 
" clip-path="url(#pdaefe27ba0)" style="fill: none; stroke: #1f77b4; stroke-width: 1.5"/>
    <path d="M 280.289489 231.882713 
L 280.289489 231.796574 
" clip-path="url(#pdaefe27ba0)" style="fill: none; stroke: #1f77b4; stroke-width: 1.5"/>
    <path d="M 281.811307 231.846163 
L 281.811307 231.757088 
" clip-path="url(#pdaefe27ba0)" style="fill: none; stroke: #1f77b4; stroke-width: 1.5"/>
    <path d="M 283.333125 231.792211 
L 283.333125 231.704652 
" clip-path="url(#pdaefe27ba0)" style="fill: none; stroke: #1f77b4; stroke-width: 1.5"/>
    <path d="M 284.854943 231.794495 
L 284.854943 231.704461 
" clip-path="url(#pdaefe27ba0)" style="fill: none; stroke: #1f77b4; stroke-width: 1.5"/>
    <path d="M 286.376761 231.652146 
L 286.376761 231.561249 
" clip-path="url(#pdaefe27ba0)" style="fill: none; stroke: #1f77b4; stroke-width: 1.5"/>
    <path d="M 287.89858 231.475529 
L 287.89858 231.380527 
" clip-path="url(#pdaefe27ba0)" style="fill: none; stroke: #1f77b4; stroke-width: 1.5"/>
    <path d="M 289.420398 231.38361 
L 289.420398 231.286257 
" clip-path="url(#pdaefe27ba0)" style="fill: none; stroke: #1f77b4; stroke-width: 1.5"/>
    <path d="M 290.942216 231.416658 
L 290.942216 231.320208 
" clip-path="url(#pdaefe27ba0)" style="fill: none; stroke: #1f77b4; stroke-width: 1.5"/>
    <path d="M 292.464034 231.376843 
L 292.464034 231.281302 
" clip-path="url(#pdaefe27ba0)" style="fill: none; stroke: #1f77b4; stroke-width: 1.5"/>
    <path d="M 293.985852 231.486951 
L 293.985852 231.393799 
" clip-path="url(#pdaefe27ba0)" style="fill: none; stroke: #1f77b4; stroke-width: 1.5"/>
    <path d="M 295.50767 231.353873 
L 295.50767 231.255704 
" clip-path="url(#pdaefe27ba0)" style="fill: none; stroke: #1f77b4; stroke-width: 1.5"/>
    <path d="M 297.029489 231.183303 
L 297.029489 231.074792 
" clip-path="url(#pdaefe27ba0)" style="fill: none; stroke: #1f77b4; stroke-width: 1.5"/>
    <path d="M 298.551307 231.220258 
L 298.551307 231.109732 
" clip-path="url(#pdaefe27ba0)" style="fill: none; stroke: #1f77b4; stroke-width: 1.5"/>
    <path d="M 300.073125 231.19616 
L 300.073125 231.088383 
" clip-path="url(#pdaefe27ba0)" style="fill: none; stroke: #1f77b4; stroke-width: 1.5"/>
    <path d="M 301.594943 231.285293 
L 301.594943 231.185528 
" clip-path="url(#pdaefe27ba0)" style="fill: none; stroke: #1f77b4; stroke-width: 1.5"/>
    <path d="M 303.116761 231.225018 
L 303.116761 231.125202 
" clip-path="url(#pdaefe27ba0)" style="fill: none; stroke: #1f77b4; stroke-width: 1.5"/>
    <path d="M 304.63858 231.10292 
L 304.63858 231.000906 
" clip-path="url(#pdaefe27ba0)" style="fill: none; stroke: #1f77b4; stroke-width: 1.5"/>
    <path d="M 306.160398 230.995204 
L 306.160398 230.883669 
" clip-path="url(#pdaefe27ba0)" style="fill: none; stroke: #1f77b4; stroke-width: 1.5"/>
    <path d="M 307.682216 231.032162 
L 307.682216 230.924622 
" clip-path="url(#pdaefe27ba0)" style="fill: none; stroke: #1f77b4; stroke-width: 1.5"/>
    <path d="M 309.204034 230.967756 
L 309.204034 230.865547 
" clip-path="url(#pdaefe27ba0)" style="fill: none; stroke: #1f77b4; stroke-width: 1.5"/>
    <path d="M 310.725852 230.405996 
L 310.725852 230.287687 
" clip-path="url(#pdaefe27ba0)" style="fill: none; stroke: #1f77b4; stroke-width: 1.5"/>
    <path d="M 312.24767 228.985759 
L 312.24767 228.833967 
" clip-path="url(#pdaefe27ba0)" style="fill: none; stroke: #1f77b4; stroke-width: 1.5"/>
    <path d="M 313.769489 221.065765 
L 313.769489 220.806303 
" clip-path="url(#pdaefe27ba0)" style="fill: none; stroke: #1f77b4; stroke-width: 1.5"/>
    <path d="M 315.291307 173.034151 
L 315.291307 172.537793 
" clip-path="url(#pdaefe27ba0)" style="fill: none; stroke: #1f77b4; stroke-width: 1.5"/>
    <path d="M 316.813125 53.054271 
L 316.813125 52.249549 
" clip-path="url(#pdaefe27ba0)" style="fill: none; stroke: #1f77b4; stroke-width: 1.5"/>
    <path d="M 318.334943 33.241952 
L 318.334943 32.398125 
" clip-path="url(#pdaefe27ba0)" style="fill: none; stroke: #1f77b4; stroke-width: 1.5"/>
    <path d="M 319.856761 142.374152 
L 319.856761 141.806017 
" clip-path="url(#pdaefe27ba0)" style="fill: none; stroke: #1f77b4; stroke-width: 1.5"/>
    <path d="M 321.37858 214.077733 
L 321.37858 213.81142 
" clip-path="url(#pdaefe27ba0)" style="fill: none; stroke: #1f77b4; stroke-width: 1.5"/>
    <path clip-path="url(#pdaefe27ba0)" style="fill: none; stroke: #1f77b4; stroke-width: 1.5"/>
    <path clip-path="url(#pdaefe27ba0)" style="fill: none; stroke: #1f77b4; stroke-width: 1.5"/>
    <path clip-path="url(#pdaefe27ba0)" style="fill: none; stroke: #1f77b4; stroke-width: 1.5"/>
    <path clip-path="url(#pdaefe27ba0)" style="fill: none; stroke: #1f77b4; stroke-width: 1.5"/>
    <path clip-path="url(#pdaefe27ba0)" style="fill: none; stroke: #1f77b4; stroke-width: 1.5"/>
    <path clip-path="url(#pdaefe27ba0)" style="fill: none; stroke: #1f77b4; stroke-width: 1.5"/>
    <path clip-path="url(#pdaefe27ba0)" style="fill: none; stroke: #1f77b4; stroke-width: 1.5"/>
    <path clip-path="url(#pdaefe27ba0)" style="fill: none; stroke: #1f77b4; stroke-width: 1.5"/>
    <path clip-path="url(#pdaefe27ba0)" style="fill: none; stroke: #1f77b4; stroke-width: 1.5"/>
    <path clip-path="url(#pdaefe27ba0)" style="fill: none; stroke: #1f77b4; stroke-width: 1.5"/>
    <path clip-path="url(#pdaefe27ba0)" style="fill: none; stroke: #1f77b4; stroke-width: 1.5"/>
    <path clip-path="url(#pdaefe27ba0)" style="fill: none; stroke: #1f77b4; stroke-width: 1.5"/>
    <path clip-path="url(#pdaefe27ba0)" style="fill: none; stroke: #1f77b4; stroke-width: 1.5"/>
    <path clip-path="url(#pdaefe27ba0)" style="fill: none; stroke: #1f77b4; stroke-width: 1.5"/>
    <path clip-path="url(#pdaefe27ba0)" style="fill: none; stroke: #1f77b4; stroke-width: 1.5"/>
    <path clip-path="url(#pdaefe27ba0)" style="fill: none; stroke: #1f77b4; stroke-width: 1.5"/>
    <path clip-path="url(#pdaefe27ba0)" style="fill: none; stroke: #1f77b4; stroke-width: 1.5"/>
    <path clip-path="url(#pdaefe27ba0)" style="fill: none; stroke: #1f77b4; stroke-width: 1.5"/>
    <path clip-path="url(#pdaefe27ba0)" style="fill: none; stroke: #1f77b4; stroke-width: 1.5"/>
    <path clip-path="url(#pdaefe27ba0)" style="fill: none; stroke: #1f77b4; stroke-width: 1.5"/>
    <path clip-path="url(#pdaefe27ba0)" style="fill: none; stroke: #1f77b4; stroke-width: 1.5"/>
    <path clip-path="url(#pdaefe27ba0)" style="fill: none; stroke: #1f77b4; stroke-width: 1.5"/>
    <path clip-path="url(#pdaefe27ba0)" style="fill: none; stroke: #1f77b4; stroke-width: 1.5"/>
    <path clip-path="url(#pdaefe27ba0)" style="fill: none; stroke: #1f77b4; stroke-width: 1.5"/>
    <path clip-path="url(#pdaefe27ba0)" style="fill: none; stroke: #1f77b4; stroke-width: 1.5"/>
   </g>
   <g id="patch_3">
    <path d="M 40.603125 244.078125 
L 40.603125 22.318125 
" style="fill: none; stroke: #000000; stroke-width: 0.8; stroke-linejoin: miter; stroke-linecap: square"/>
   </g>
   <g id="patch_4">
    <path d="M 375.403125 244.078125 
L 375.403125 22.318125 
" style="fill: none; stroke: #000000; stroke-width: 0.8; stroke-linejoin: miter; stroke-linecap: square"/>
   </g>
   <g id="patch_5">
    <path d="M 40.603125 244.078125 
L 375.403125 244.078125 
" style="fill: none; stroke: #000000; stroke-width: 0.8; stroke-linejoin: miter; stroke-linecap: square"/>
   </g>
   <g id="patch_6">
    <path d="M 40.603125 22.318125 
L 375.403125 22.318125 
" style="fill: none; stroke: #000000; stroke-width: 0.8; stroke-linejoin: miter; stroke-linecap: square"/>
   </g>
   <g id="text_18">
    <!-- Mantle -->
    <g transform="translate(187.635938 16.318125) scale(0.12 -0.12)">
     <defs>
      <path id="DejaVuSans-4d" d="M 628 4666 
L 1569 4666 
L 2759 1491 
L 3956 4666 
L 4897 4666 
L 4897 0 
L 4281 0 
L 4281 4097 
L 3078 897 
L 2444 897 
L 1241 4097 
L 1241 0 
L 628 0 
L 628 4666 
z
" transform="scale(0.015625)"/>
      <path id="DejaVuSans-74" d="M 1172 4494 
L 1172 3500 
L 2356 3500 
L 2356 3053 
L 1172 3053 
L 1172 1153 
Q 1172 725 1289 603 
Q 1406 481 1766 481 
L 2356 481 
L 2356 0 
L 1766 0 
Q 1100 0 847 248 
Q 594 497 594 1153 
L 594 3053 
L 172 3053 
L 172 3500 
L 594 3500 
L 594 4494 
L 1172 4494 
z
" transform="scale(0.015625)"/>
     </defs>
     <use xlink:href="#DejaVuSans-4d"/>
     <use xlink:href="#DejaVuSans-61" transform="translate(86.279297 0)"/>
     <use xlink:href="#DejaVuSans-6e" transform="translate(147.558594 0)"/>
     <use xlink:href="#DejaVuSans-74" transform="translate(210.9375 0)"/>
     <use xlink:href="#DejaVuSans-6c" transform="translate(250.146484 0)"/>
     <use xlink:href="#DejaVuSans-65" transform="translate(277.929688 0)"/>
    </g>
   </g>
  </g>
 </g>
 <defs>
  <clipPath id="pdaefe27ba0">
   <rect x="40.603125" y="22.318125" width="334.8" height="221.76"/>
  </clipPath>
 </defs>
</svg>
