<?xml version="1.0" encoding="UTF-8" standalone="no"?>
<!DOCTYPE svg PUBLIC "-//W3C//DTD SVG 1.1//EN"
 "http://www.w3.org/Graphics/SVG/1.1/DTD/svg11.dtd">
<!-- Generated by graphviz version 2.43.0 (0)
 -->
<!-- Title: %3 Pages: 1 -->
<svg width="3070pt" height="341pt"
 viewBox="0.00 0.00 3070.00 340.50" xmlns="http://www.w3.org/2000/svg" xmlns:xlink="http://www.w3.org/1999/xlink">
<g id="graph0" class="graph" transform="scale(1 1) rotate(0) translate(4 336.5)">
<title>%3</title>
<polygon fill="white" stroke="transparent" points="-4,4 -4,-336.5 3066,-336.5 3066,4 -4,4"/>
<g id="clust1" class="cluster">
<title>cluster_AccumulatedProtonCharge</title>
<polygon fill="#f0f0ff" stroke="#f0f0ff" points="1862,-228.5 1862,-324.5 2101,-324.5 2101,-228.5 1862,-228.5"/>
<text text-anchor="start" x="1885" y="-310.3" font-family="Times,serif" font-size="14.00">AccumulatedProtonCharge</text>
<text text-anchor="start" x="1870" y="-298.7" font-family="Times,serif" font-size="11.00">via:</text>
<text text-anchor="start" x="1891" y="-298.7" font-family="Times,serif" font-style="italic" font-size="11.00">extract_accumulated_proton_charge</text>
</g>
<g id="clust4" class="cluster">
<title>cluster_CountsDspacing</title>
<polygon fill="#f0f0ff" stroke="#f0f0ff" points="1653,-20.5 1653,-116.5 1804,-116.5 1804,-20.5 1653,-20.5"/>
<text text-anchor="start" x="1670" y="-102.3" font-family="Times,serif" font-size="14.00">CountsDspacing</text>
<text text-anchor="start" x="1661" y="-90.7" font-family="Times,serif" font-size="11.00">via:</text>
<text text-anchor="start" x="1682" y="-90.7" font-family="Times,serif" font-style="italic" font-size="11.00">convert_to_dspacing</text>
</g>
<g id="clust5" class="cluster">
<title>cluster_CountsWavelength</title>
<polygon fill="#f0f0ff" stroke="#f0f0ff" points="1126,-37.5 1126,-133.5 1405,-133.5 1405,-37.5 1126,-37.5"/>
<text text-anchor="start" x="1198" y="-119.3" font-family="Times,serif" font-size="14.00">CountsWavelength</text>
<text text-anchor="start" x="1134" y="-107.7" font-family="Times,serif" font-size="11.00">via:</text>
<text text-anchor="start" x="1155" y="-107.7" font-family="Times,serif" font-style="italic" font-size="11.00">add_scattering_coordinates_from_positions</text>
</g>
<g id="clust7" class="cluster">
<title>cluster_DetectorTofData</title>
<polygon fill="#f0f0ff" stroke="#f0f0ff" points="560,-72.5 560,-168.5 694,-168.5 694,-72.5 560,-72.5"/>
<text text-anchor="start" x="568" y="-154.3" font-family="Times,serif" font-size="14.00">DetectorTofData</text>
<text text-anchor="start" x="568" y="-142.7" font-family="Times,serif" font-size="11.00">via:</text>
<text text-anchor="start" x="589" y="-142.7" font-family="Times,serif" font-style="italic" font-size="11.00">extract_raw_data</text>
</g>
<g id="clust10" class="cluster">
<title>cluster_Filename</title>
<polygon fill="#f0f0ff" stroke="#f0f0ff" points="35.5,-72.5 35.5,-158.5 161.5,-158.5 161.5,-72.5 35.5,-72.5"/>
<text text-anchor="middle" x="98.5" y="-143.3" font-family="Times,serif" font-size="14.00">Filename</text>
</g>
<g id="clust11" class="cluster">
<title>cluster_FilteredData</title>
<polygon fill="#f0f0ff" stroke="#f0f0ff" points="855,-71.5 855,-167.5 981,-167.5 981,-71.5 855,-71.5"/>
<text text-anchor="start" x="872.5" y="-153.3" font-family="Times,serif" font-size="14.00">FilteredData</text>
<text text-anchor="start" x="872.5" y="-141.7" font-family="Times,serif" font-size="11.00">via:</text>
<text text-anchor="start" x="893.5" y="-141.7" font-family="Times,serif" font-style="italic" font-size="11.00">filter_events</text>
</g>
<g id="clust12" class="cluster">
<title>cluster_FocussedDataDspacingTwoTheta</title>
<polygon fill="#f0f0ff" stroke="#f0f0ff" points="2426,-176.5 2426,-272.5 2678,-272.5 2678,-176.5 2426,-176.5"/>
<text text-anchor="start" x="2434" y="-258.3" font-family="Times,serif" font-size="14.00">FocussedDataDspacingTwoTheta</text>
<text text-anchor="start" x="2494.5" y="-246.7" font-family="Times,serif" font-size="11.00">via:</text>
<text text-anchor="start" x="2515.5" y="-246.7" font-family="Times,serif" font-style="italic" font-size="11.00">group_two_theta</text>
</g>
<g id="clust14" class="cluster">
<title>cluster_KeepEvents</title>
<polygon fill="#f0f0ff" stroke="#f0f0ff" points="1665,-124.5 1665,-210.5 1791,-210.5 1791,-124.5 1665,-124.5"/>
<text text-anchor="middle" x="1728" y="-195.3" font-family="Times,serif" font-size="14.00">KeepEvents</text>
</g>
<g id="clust15" class="cluster">
<title>cluster_MaskedData</title>
<polygon fill="#f0f0ff" stroke="#f0f0ff" points="1469,-85.5 1469,-181.5 1595,-181.5 1595,-85.5 1469,-85.5"/>
<text text-anchor="start" x="1487" y="-167.3" font-family="Times,serif" font-size="14.00">MaskedData</text>
<text text-anchor="start" x="1485.5" y="-155.7" font-family="Times,serif" font-size="11.00">via:</text>
<text text-anchor="start" x="1506.5" y="-155.7" font-family="Times,serif" font-style="italic" font-size="11.00">apply_masks</text>
</g>
<g id="clust18" class="cluster">
<title>cluster_RawDataAndMetadata</title>
<polygon fill="#f0f0ff" stroke="#f0f0ff" points="282.5,-72.5 282.5,-168.5 459.5,-168.5 459.5,-72.5 282.5,-72.5"/>
<text text-anchor="start" x="290.5" y="-154.3" font-family="Times,serif" font-size="14.00">RawDataAndMetadata</text>
<text text-anchor="start" x="329" y="-142.7" font-family="Times,serif" font-size="11.00">via:</text>
<text text-anchor="start" x="350" y="-142.7" font-family="Times,serif" font-style="italic" font-size="11.00">pooch_load</text>
</g>
<g id="clust19" class="cluster">
<title>cluster_ReducedCountsDspacing</title>
<polygon fill="#f0f0ff" stroke="#f0f0ff" points="1862,-124.5 1862,-220.5 2100,-220.5 2100,-124.5 1862,-124.5"/>
<text text-anchor="start" x="1892" y="-206.3" font-family="Times,serif" font-size="14.00">ReducedCountsDspacing</text>
<text text-anchor="start" x="1870" y="-194.7" font-family="Times,serif" font-size="11.00">via:</text>
<text text-anchor="start" x="1891" y="-194.7" font-family="Times,serif" font-style="italic" font-size="11.00">focus_data_dspacing_and_two_theta</text>
</g>
<g id="clust20" class="cluster">
<title>cluster_ScaledCountsDspacing</title>
<polygon fill="#f0f0ff" stroke="#f0f0ff" points="2161,-176.5 2161,-272.5 2358,-272.5 2358,-176.5 2161,-176.5"/>
<text text-anchor="start" x="2177.5" y="-258.3" font-family="Times,serif" font-size="14.00">ScaledCountsDspacing</text>
<text text-anchor="start" x="2169" y="-246.7" font-family="Times,serif" font-size="11.00">via:</text>
<text text-anchor="start" x="2190" y="-246.7" font-family="Times,serif" font-style="italic" font-size="11.00">normalize_by_proton_charge</text>
</g>
<!-- DetectorTofData[SampleRun] -->
<g id="node1" class="node">
<title>DetectorTofData[SampleRun]</title>
<polygon fill="none" stroke="black" points="674.5,-102 579.5,-102 579.5,-81 674.5,-81 674.5,-102"/>
<text text-anchor="start" x="587.5" y="-88.4" font-family="Times,serif" font-size="12.00">[SampleRun]</text>
</g>
<!-- AccumulatedProtonCharge[SampleRun] -->
<g id="node2" class="node">
<title>AccumulatedProtonCharge[SampleRun]</title>
<polygon fill="none" stroke="black" points="2028.5,-258 1933.5,-258 1933.5,-237 2028.5,-237 2028.5,-258"/>
<text text-anchor="start" x="1941.5" y="-244.4" font-family="Times,serif" font-size="12.00">[SampleRun]</text>
</g>
<!-- DetectorTofData[SampleRun]&#45;&gt;AccumulatedProtonCharge[SampleRun] -->
<g id="edge1" class="edge">
<title>DetectorTofData[SampleRun]:e&#45;&gt;AccumulatedProtonCharge[SampleRun]:w</title>
<path fill="none" stroke="black" d="M676,-91.5C734.23,-91.5 730.11,-142.08 782,-168.5 975.85,-267.19 1046.47,-253.5 1264,-253.5 1264,-253.5 1264,-253.5 1533,-253.5 1706.89,-253.5 1752.87,-247.73 1921.76,-247.51"/>
<polygon fill="black" stroke="black" points="1922,-251.01 1932,-247.5 1922,-244.01 1922,-251.01"/>
</g>
<!-- FilteredData[SampleRun] -->
<g id="node13" class="node">
<title>FilteredData[SampleRun]</title>
<polygon fill="none" stroke="black" points="965.5,-101 870.5,-101 870.5,-80 965.5,-80 965.5,-101"/>
<text text-anchor="start" x="878.5" y="-87.4" font-family="Times,serif" font-size="12.00">[SampleRun]</text>
</g>
<!-- DetectorTofData[SampleRun]&#45;&gt;FilteredData[SampleRun] -->
<g id="edge16" class="edge">
<title>DetectorTofData[SampleRun]:e&#45;&gt;FilteredData[SampleRun]:w</title>
<path fill="none" stroke="black" d="M676,-91.5C758.26,-91.5 781.35,-90.58 858.76,-90.5"/>
<polygon fill="black" stroke="black" points="859,-94 869,-90.5 859,-87 859,-94"/>
</g>
<!-- ScaledCountsDspacing[SampleRun] -->
<g id="node23" class="node">
<title>ScaledCountsDspacing[SampleRun]</title>
<polygon fill="none" stroke="black" points="2306.5,-206 2211.5,-206 2211.5,-185 2306.5,-185 2306.5,-206"/>
<text text-anchor="start" x="2219.5" y="-192.4" font-family="Times,serif" font-size="12.00">[SampleRun]</text>
</g>
<!-- AccumulatedProtonCharge[SampleRun]&#45;&gt;ScaledCountsDspacing[SampleRun] -->
<g id="edge38" class="edge">
<title>AccumulatedProtonCharge[SampleRun]:e&#45;&gt;ScaledCountsDspacing[SampleRun]:w</title>
<path fill="none" stroke="black" d="M2030,-247.5C2109.69,-247.5 2125.44,-199.87 2199.64,-195.78"/>
<polygon fill="black" stroke="black" points="2200.1,-199.27 2210,-195.5 2199.91,-192.27 2200.1,-199.27"/>
</g>
<!-- DetectorTofData[VanadiumRun] -->
<g id="node3" class="node">
<title>DetectorTofData[VanadiumRun]</title>
<polygon fill="none" stroke="black" points="682,-127 572,-127 572,-106 682,-106 682,-127"/>
<text text-anchor="start" x="580" y="-113.4" font-family="Times,serif" font-size="12.00">[VanadiumRun]</text>
</g>
<!-- AccumulatedProtonCharge[VanadiumRun] -->
<g id="node4" class="node">
<title>AccumulatedProtonCharge[VanadiumRun]</title>
<polygon fill="none" stroke="black" points="2036,-283 1926,-283 1926,-262 2036,-262 2036,-283"/>
<text text-anchor="start" x="1934" y="-269.4" font-family="Times,serif" font-size="12.00">[VanadiumRun]</text>
</g>
<!-- DetectorTofData[VanadiumRun]&#45;&gt;AccumulatedProtonCharge[VanadiumRun] -->
<g id="edge2" class="edge">
<title>DetectorTofData[VanadiumRun]:e&#45;&gt;AccumulatedProtonCharge[VanadiumRun]:w</title>
<path fill="none" stroke="black" d="M683,-116.5C744.6,-116.5 726.56,-186.64 782,-213.5 976.08,-307.54 1048.34,-269.5 1264,-269.5 1264,-269.5 1264,-269.5 1533,-269.5 1703.82,-269.5 1749.02,-272.38 1914.94,-272.5"/>
<polygon fill="black" stroke="black" points="1915,-276 1925,-272.5 1915,-269 1915,-276"/>
</g>
<!-- FilteredData[VanadiumRun] -->
<g id="node15" class="node">
<title>FilteredData[VanadiumRun]</title>
<polygon fill="none" stroke="black" points="973,-126 863,-126 863,-105 973,-105 973,-126"/>
<text text-anchor="start" x="871" y="-112.4" font-family="Times,serif" font-size="12.00">[VanadiumRun]</text>
</g>
<!-- DetectorTofData[VanadiumRun]&#45;&gt;FilteredData[VanadiumRun] -->
<g id="edge17" class="edge">
<title>DetectorTofData[VanadiumRun]:e&#45;&gt;FilteredData[VanadiumRun]:w</title>
<path fill="none" stroke="black" d="M683,-116.5C758.98,-116.5 780.54,-115.59 851.63,-115.51"/>
<polygon fill="black" stroke="black" points="852,-119.01 862,-115.5 852,-112.01 852,-119.01"/>
</g>
<!-- ScaledCountsDspacing[VanadiumRun] -->
<g id="node26" class="node">
<title>ScaledCountsDspacing[VanadiumRun]</title>
<polygon fill="none" stroke="black" points="2314,-231 2204,-231 2204,-210 2314,-210 2314,-231"/>
<text text-anchor="start" x="2212" y="-217.4" font-family="Times,serif" font-size="12.00">[VanadiumRun]</text>
</g>
<!-- AccumulatedProtonCharge[VanadiumRun]&#45;&gt;ScaledCountsDspacing[VanadiumRun] -->
<g id="edge40" class="edge">
<title>AccumulatedProtonCharge[VanadiumRun]:e&#45;&gt;ScaledCountsDspacing[VanadiumRun]:w</title>
<path fill="none" stroke="black" d="M2037,-272.5C2066.12,-272.5 2073.07,-266.71 2101,-258.5 2143.97,-245.87 2153.34,-224.06 2192.88,-220.89"/>
<polygon fill="black" stroke="black" points="2193.14,-224.38 2203,-220.5 2192.87,-217.39 2193.14,-224.38"/>
</g>
<!-- CalibrationFilename -->
<g id="node5" class="node">
<title>CalibrationFilename</title>
<polygon fill="none" stroke="black" points="451.5,-27 289.5,-27 289.5,-4 451.5,-4 451.5,-27"/>
<text text-anchor="middle" x="370.5" y="-11.8" font-family="Times,serif" font-size="14.00">CalibrationFilename</text>
</g>
<!-- CalibrationData -->
<g id="node6" class="node">
<title>CalibrationData</title>
<polygon fill="none" stroke="black" points="710,-33 544,-33 544,0 710,0 710,-33"/>
<text text-anchor="start" x="570" y="-18.8" font-family="Times,serif" font-size="14.00">CalibrationData</text>
<text text-anchor="start" x="552" y="-7.2" font-family="Times,serif" font-size="11.00">via:</text>
<text text-anchor="start" x="573" y="-7.2" font-family="Times,serif" font-style="italic" font-size="11.00">pooch_load_calibration</text>
</g>
<!-- CalibrationFilename&#45;&gt;CalibrationData -->
<g id="edge3" class="edge">
<title>CalibrationFilename:e&#45;&gt;CalibrationData:w</title>
<path fill="none" stroke="black" d="M452.5,-15.5C489.52,-15.5 501.26,-16.33 533.73,-16.48"/>
<polygon fill="black" stroke="black" points="533.99,-19.98 544,-16.5 534.01,-12.98 533.99,-19.98"/>
</g>
<!-- CountsDspacing[SampleRun] -->
<g id="node9" class="node">
<title>CountsDspacing[SampleRun]</title>
<polygon fill="none" stroke="black" points="1775.5,-50 1680.5,-50 1680.5,-29 1775.5,-29 1775.5,-50"/>
<text text-anchor="start" x="1688.5" y="-36.4" font-family="Times,serif" font-size="12.00">[SampleRun]</text>
</g>
<!-- CalibrationData&#45;&gt;CountsDspacing[SampleRun] -->
<g id="edge7" class="edge">
<title>CalibrationData:e&#45;&gt;CountsDspacing[SampleRun]:w</title>
<path fill="none" stroke="black" stroke-width="2" d="M710,-16.5C1018.95,-16.5 1096.11,-24.14 1405,-30.5 1489.45,-32.24 1510.61,-31.1 1595,-34.5 1616.87,-35.38 1629.11,-36.94 1642.99,-38.09"/>
<polygon fill="black" stroke="black" stroke-width="2" points="1642.78,-41.58 1653,-38.8 1643.28,-34.6 1642.78,-41.58"/>
</g>
<!-- DetectorBankSizes -->
<g id="node7" class="node">
<title>DetectorBankSizes</title>
<polygon fill="none" stroke="black" points="472,-64 269,-64 269,-31 472,-31 472,-64"/>
<text text-anchor="start" x="302.5" y="-49.8" font-family="Times,serif" font-size="14.00">DetectorBankSizes</text>
<text text-anchor="start" x="277" y="-38.2" font-family="Times,serif" font-size="11.00">via:</text>
<text text-anchor="start" x="298" y="-38.2" font-family="Times,serif" font-style="italic" font-size="11.00">powgen_detector_dimensions</text>
</g>
<!-- DetectorBankSizes&#45;&gt;DetectorTofData[SampleRun] -->
<g id="edge14" class="edge">
<title>DetectorBankSizes:e&#45;&gt;DetectorTofData[SampleRun]:w</title>
<path fill="none" stroke="black" stroke-width="2" d="M472,-47.5C511.94,-47.5 523.05,-74.47 550.47,-86.18"/>
<polygon fill="black" stroke="black" stroke-width="2" points="549.41,-89.52 560,-89.39 551.64,-82.88 549.41,-89.52"/>
</g>
<!-- DetectorBankSizes&#45;&gt;CalibrationData -->
<g id="edge4" class="edge">
<title>DetectorBankSizes:e&#45;&gt;CalibrationData:w</title>
<path fill="none" stroke="black" d="M472,-47.5C503.17,-47.5 508.31,-22.69 533.99,-17.46"/>
<polygon fill="black" stroke="black" points="534.38,-20.94 544,-16.5 533.71,-13.97 534.38,-20.94"/>
</g>
<!-- MaskedData[SampleRun] -->
<g id="node8" class="node">
<title>MaskedData[SampleRun]</title>
<polygon fill="none" stroke="black" points="1579.5,-140 1484.5,-140 1484.5,-119 1579.5,-119 1579.5,-140"/>
<text text-anchor="start" x="1492.5" y="-126.4" font-family="Times,serif" font-size="12.00">[SampleRun]</text>
</g>
<!-- MaskedData[SampleRun]&#45;&gt;CountsDspacing[SampleRun] -->
<g id="edge5" class="edge">
<title>MaskedData[SampleRun]:e&#45;&gt;CountsDspacing[SampleRun]:w</title>
<path fill="none" stroke="black" d="M1581,-129.5C1636.44,-129.5 1622.09,-50.4 1668.8,-40.51"/>
<polygon fill="black" stroke="black" points="1669.39,-43.97 1679,-39.5 1668.7,-37 1669.39,-43.97"/>
</g>
<!-- ReducedCountsDspacing[SampleRun] -->
<g id="node36" class="node">
<title>ReducedCountsDspacing[SampleRun]</title>
<polygon fill="none" stroke="black" points="2028.5,-154 1933.5,-154 1933.5,-133 2028.5,-133 2028.5,-154"/>
<text text-anchor="start" x="1941.5" y="-140.4" font-family="Times,serif" font-size="12.00">[SampleRun]</text>
</g>
<!-- CountsDspacing[SampleRun]&#45;&gt;ReducedCountsDspacing[SampleRun] -->
<g id="edge32" class="edge">
<title>CountsDspacing[SampleRun]:e&#45;&gt;ReducedCountsDspacing[SampleRun]:w</title>
<path fill="none" stroke="black" d="M1777,-39.5C1856.39,-39.5 1849.81,-134.75 1921.81,-142.94"/>
<polygon fill="black" stroke="black" points="1921.82,-146.45 1932,-143.5 1922.21,-139.46 1921.82,-146.45"/>
</g>
<!-- ElasticCoordTransformGraph -->
<g id="node10" class="node">
<title>ElasticCoordTransformGraph</title>
<polygon fill="none" stroke="black" points="1054,-61 782,-61 782,-28 1054,-28 1054,-61"/>
<text text-anchor="start" x="812.5" y="-46.8" font-family="Times,serif" font-size="14.00">ElasticCoordTransformGraph</text>
<text text-anchor="start" x="790" y="-35.2" font-family="Times,serif" font-size="11.00">via:</text>
<text text-anchor="start" x="811" y="-35.2" font-family="Times,serif" font-style="italic" font-size="11.00">powder_coordinate_transformation_graph</text>
</g>
<!-- ElasticCoordTransformGraph&#45;&gt;CountsDspacing[SampleRun] -->
<g id="edge6" class="edge">
<title>ElasticCoordTransformGraph:e&#45;&gt;CountsDspacing[SampleRun]:w</title>
<path fill="none" stroke="black" stroke-width="2" d="M1054,-44.5C1086.2,-44.5 1093.85,-38.28 1126,-36.5 1358.94,-23.6 1426.46,-37.89 1642.92,-39.38"/>
<polygon fill="black" stroke="black" stroke-width="2" points="1642.98,-42.88 1653,-39.44 1643.02,-35.88 1642.98,-42.88"/>
</g>
<!-- CountsWavelength[SampleRun] -->
<g id="node14" class="node">
<title>CountsWavelength[SampleRun]</title>
<polygon fill="none" stroke="black" points="1312.5,-67 1217.5,-67 1217.5,-46 1312.5,-46 1312.5,-67"/>
<text text-anchor="start" x="1225.5" y="-53.4" font-family="Times,serif" font-size="12.00">[SampleRun]</text>
</g>
<!-- ElasticCoordTransformGraph&#45;&gt;CountsWavelength[SampleRun] -->
<g id="edge10" class="edge">
<title>ElasticCoordTransformGraph:e&#45;&gt;CountsWavelength[SampleRun]:w</title>
<path fill="none" stroke="black" stroke-width="2" d="M1054,-44.5C1079.91,-44.5 1098.8,-46.05 1115.69,-48.03"/>
<polygon fill="black" stroke="black" stroke-width="2" points="1115.65,-51.55 1126,-49.31 1116.51,-44.6 1115.65,-51.55"/>
</g>
<!-- MaskedData[VanadiumRun] -->
<g id="node11" class="node">
<title>MaskedData[VanadiumRun]</title>
<polygon fill="none" stroke="black" points="1587,-115 1477,-115 1477,-94 1587,-94 1587,-115"/>
<text text-anchor="start" x="1485" y="-101.4" font-family="Times,serif" font-size="12.00">[VanadiumRun]</text>
</g>
<!-- CountsDspacing[VanadiumRun] -->
<g id="node12" class="node">
<title>CountsDspacing[VanadiumRun]</title>
<polygon fill="none" stroke="black" points="1783,-75 1673,-75 1673,-54 1783,-54 1783,-75"/>
<text text-anchor="start" x="1681" y="-61.4" font-family="Times,serif" font-size="12.00">[VanadiumRun]</text>
</g>
<!-- MaskedData[VanadiumRun]&#45;&gt;CountsDspacing[VanadiumRun] -->
<g id="edge8" class="edge">
<title>MaskedData[VanadiumRun]:e&#45;&gt;CountsDspacing[VanadiumRun]:w</title>
<path fill="none" stroke="black" d="M1588,-104.5C1625.64,-104.5 1630.09,-71.36 1661.77,-65.41"/>
<polygon fill="black" stroke="black" points="1662.35,-68.87 1672,-64.5 1661.73,-61.9 1662.35,-68.87"/>
</g>
<!-- ReducedCountsDspacing[VanadiumRun] -->
<g id="node37" class="node">
<title>ReducedCountsDspacing[VanadiumRun]</title>
<polygon fill="none" stroke="black" points="2036,-179 1926,-179 1926,-158 2036,-158 2036,-179"/>
<text text-anchor="start" x="1934" y="-165.4" font-family="Times,serif" font-size="12.00">[VanadiumRun]</text>
</g>
<!-- CountsDspacing[VanadiumRun]&#45;&gt;ReducedCountsDspacing[VanadiumRun] -->
<g id="edge35" class="edge">
<title>CountsDspacing[VanadiumRun]:e&#45;&gt;ReducedCountsDspacing[VanadiumRun]:w</title>
<path fill="none" stroke="black" d="M1784,-64.5C1836.93,-64.5 1816.54,-127.39 1862,-154.5 1883.46,-167.3 1893.57,-168.42 1914.78,-168.5"/>
<polygon fill="black" stroke="black" points="1915,-172 1925,-168.5 1915,-165 1915,-172"/>
</g>
<!-- FilteredData[SampleRun]&#45;&gt;CountsWavelength[SampleRun] -->
<g id="edge9" class="edge">
<title>FilteredData[SampleRun]:e&#45;&gt;CountsWavelength[SampleRun]:w</title>
<path fill="none" stroke="black" d="M967,-90.5C1075.2,-90.5 1102.62,-58.59 1205.78,-56.6"/>
<polygon fill="black" stroke="black" points="1206.03,-60.1 1216,-56.5 1205.97,-53.1 1206.03,-60.1"/>
</g>
<!-- CountsWavelength[SampleRun]&#45;&gt;MaskedData[SampleRun] -->
<g id="edge24" class="edge">
<title>CountsWavelength[SampleRun]:e&#45;&gt;MaskedData[SampleRun]:w</title>
<path fill="none" stroke="black" d="M1314,-56.5C1354.92,-56.5 1367.31,-54.56 1405,-70.5 1441.59,-85.98 1440.14,-122.46 1472.82,-128.61"/>
<polygon fill="black" stroke="black" points="1472.73,-132.12 1483,-129.5 1473.34,-125.14 1472.73,-132.12"/>
</g>
<!-- CountsWavelength[VanadiumRun] -->
<g id="node16" class="node">
<title>CountsWavelength[VanadiumRun]</title>
<polygon fill="none" stroke="black" points="1320,-92 1210,-92 1210,-71 1320,-71 1320,-92"/>
<text text-anchor="start" x="1218" y="-78.4" font-family="Times,serif" font-size="12.00">[VanadiumRun]</text>
</g>
<!-- FilteredData[VanadiumRun]&#45;&gt;CountsWavelength[VanadiumRun] -->
<g id="edge11" class="edge">
<title>FilteredData[VanadiumRun]:e&#45;&gt;CountsWavelength[VanadiumRun]:w</title>
<path fill="none" stroke="black" d="M974,-115.5C1076.03,-115.5 1101.79,-83.72 1198.75,-81.61"/>
<polygon fill="black" stroke="black" points="1199.04,-85.11 1209,-81.5 1198.96,-78.11 1199.04,-85.11"/>
</g>
<!-- CountsWavelength[VanadiumRun]&#45;&gt;MaskedData[VanadiumRun] -->
<g id="edge29" class="edge">
<title>CountsWavelength[VanadiumRun]:e&#45;&gt;MaskedData[VanadiumRun]:w</title>
<path fill="none" stroke="black" d="M1321,-81.5C1387.11,-81.5 1404.62,-102.22 1465.79,-104.33"/>
<polygon fill="black" stroke="black" points="1465.94,-107.83 1476,-104.5 1466.06,-100.83 1465.94,-107.83"/>
</g>
<!-- NeXusName[NXdetector] -->
<g id="node17" class="node">
<title>NeXusName[NXdetector]</title>
<polygon fill="none" stroke="black" points="197,-59 0,-59 0,-36 197,-36 197,-59"/>
<text text-anchor="middle" x="98.5" y="-43.8" font-family="Times,serif" font-size="14.00">NeXusName[NXdetector]</text>
</g>
<!-- NeXusName[NXdetector]&#45;&gt;DetectorBankSizes -->
<g id="edge12" class="edge">
<title>NeXusName[NXdetector]:e&#45;&gt;DetectorBankSizes:w</title>
<path fill="none" stroke="black" d="M197,-47.5C225.38,-47.5 234.88,-47.5 258.98,-47.5"/>
<polygon fill="black" stroke="black" points="259,-51 269,-47.5 259,-44 259,-51"/>
</g>
<!-- RawDataAndMetadata[SampleRun] -->
<g id="node18" class="node">
<title>RawDataAndMetadata[SampleRun]</title>
<polygon fill="none" stroke="black" points="418,-102 323,-102 323,-81 418,-81 418,-102"/>
<text text-anchor="start" x="331" y="-88.4" font-family="Times,serif" font-size="12.00">[SampleRun]</text>
</g>
<!-- RawDataAndMetadata[SampleRun]&#45;&gt;DetectorTofData[SampleRun] -->
<g id="edge13" class="edge">
<title>RawDataAndMetadata[SampleRun]:e&#45;&gt;DetectorTofData[SampleRun]:w</title>
<path fill="none" stroke="black" d="M419.5,-91.5C486.37,-91.5 505.63,-91.5 567.66,-91.5"/>
<polygon fill="black" stroke="black" points="568,-95 578,-91.5 568,-88 568,-95"/>
</g>
<!-- RawDataAndMetadata[VanadiumRun] -->
<g id="node19" class="node">
<title>RawDataAndMetadata[VanadiumRun]</title>
<polygon fill="none" stroke="black" points="425.5,-127 315.5,-127 315.5,-106 425.5,-106 425.5,-127"/>
<text text-anchor="start" x="323.5" y="-113.4" font-family="Times,serif" font-size="12.00">[VanadiumRun]</text>
</g>
<!-- RawDataAndMetadata[VanadiumRun]&#45;&gt;DetectorTofData[VanadiumRun] -->
<g id="edge15" class="edge">
<title>RawDataAndMetadata[VanadiumRun]:e&#45;&gt;DetectorTofData[VanadiumRun]:w</title>
<path fill="none" stroke="black" d="M426.5,-116.5C487.21,-116.5 504.88,-116.5 560.88,-116.5"/>
<polygon fill="black" stroke="black" points="561,-120 571,-116.5 561,-113 561,-120"/>
</g>
<!-- DspacingBins -->
<g id="node20" class="node">
<title>DspacingBins</title>
<polygon fill="none" stroke="black" points="1785,-242 1671,-242 1671,-219 1785,-219 1785,-242"/>
<text text-anchor="middle" x="1728" y="-226.8" font-family="Times,serif" font-size="14.00">DspacingBins</text>
</g>
<!-- DspacingBins&#45;&gt;ReducedCountsDspacing[SampleRun] -->
<g id="edge33" class="edge">
<title>DspacingBins:e&#45;&gt;ReducedCountsDspacing[SampleRun]:w</title>
<path fill="none" stroke="black" stroke-width="2" d="M1786,-230.5C1828.89,-230.5 1822.3,-187.74 1853.27,-164.07"/>
<polygon fill="black" stroke="black" stroke-width="2" points="1855.45,-166.83 1862,-158.5 1851.69,-160.92 1855.45,-166.83"/>
</g>
<!-- Filename[SampleRun] -->
<g id="node21" class="node">
<title>Filename[SampleRun]</title>
<polygon fill="none" stroke="black" points="146,-102 51,-102 51,-81 146,-81 146,-102"/>
<text text-anchor="start" x="59" y="-88.4" font-family="Times,serif" font-size="12.00">[SampleRun]</text>
</g>
<!-- Filename[SampleRun]&#45;&gt;RawDataAndMetadata[SampleRun] -->
<g id="edge30" class="edge">
<title>Filename[SampleRun]:e&#45;&gt;RawDataAndMetadata[SampleRun]:w</title>
<path fill="none" stroke="black" d="M147.5,-91.5C221.36,-91.5 242.31,-91.5 311.42,-91.5"/>
<polygon fill="black" stroke="black" points="311.5,-95 321.5,-91.5 311.5,-88 311.5,-95"/>
</g>
<!-- Filename[VanadiumRun] -->
<g id="node22" class="node">
<title>Filename[VanadiumRun]</title>
<polygon fill="none" stroke="black" points="153.5,-127 43.5,-127 43.5,-106 153.5,-106 153.5,-127"/>
<text text-anchor="start" x="51.5" y="-113.4" font-family="Times,serif" font-size="12.00">[VanadiumRun]</text>
</g>
<!-- Filename[VanadiumRun]&#45;&gt;RawDataAndMetadata[VanadiumRun] -->
<g id="edge31" class="edge">
<title>Filename[VanadiumRun]:e&#45;&gt;RawDataAndMetadata[VanadiumRun]:w</title>
<path fill="none" stroke="black" d="M154.5,-116.5C222.14,-116.5 241.53,-116.5 304.45,-116.5"/>
<polygon fill="black" stroke="black" points="304.5,-120 314.5,-116.5 304.5,-113 304.5,-120"/>
</g>
<!-- FocussedDataDspacingTwoTheta[SampleRun] -->
<g id="node24" class="node">
<title>FocussedDataDspacingTwoTheta[SampleRun]</title>
<polygon fill="none" stroke="black" points="2599.5,-206 2504.5,-206 2504.5,-185 2599.5,-185 2599.5,-206"/>
<text text-anchor="start" x="2512.5" y="-192.4" font-family="Times,serif" font-size="12.00">[SampleRun]</text>
</g>
<!-- ScaledCountsDspacing[SampleRun]&#45;&gt;FocussedDataDspacingTwoTheta[SampleRun] -->
<g id="edge18" class="edge">
<title>ScaledCountsDspacing[SampleRun]:e&#45;&gt;FocussedDataDspacingTwoTheta[SampleRun]:w</title>
<path fill="none" stroke="black" d="M2308,-195.5C2391.11,-195.5 2414.45,-195.5 2492.66,-195.5"/>
<polygon fill="black" stroke="black" points="2493,-199 2503,-195.5 2493,-192 2493,-199"/>
</g>
<!-- IofDspacingTwoTheta[SampleRun] -->
<g id="node28" class="node">
<title>IofDspacingTwoTheta[SampleRun]</title>
<polygon fill="none" stroke="black" points="3062,-212 2750,-212 2750,-179 3062,-179 3062,-212"/>
<text text-anchor="start" x="2782.5" y="-197.8" font-family="Times,serif" font-size="14.00">IofDspacingTwoTheta[SampleRun]</text>
<text text-anchor="start" x="2758" y="-186.2" font-family="Times,serif" font-size="11.00">via:</text>
<text text-anchor="start" x="2779" y="-186.2" font-family="Times,serif" font-style="italic" font-size="11.00">normalize_by_vanadium_dspacing_and_two_theta</text>
</g>
<!-- FocussedDataDspacingTwoTheta[SampleRun]&#45;&gt;IofDspacingTwoTheta[SampleRun] -->
<g id="edge21" class="edge">
<title>FocussedDataDspacingTwoTheta[SampleRun]:e&#45;&gt;IofDspacingTwoTheta[SampleRun]:w</title>
<path fill="none" stroke="black" d="M2601,-195.5C2663.73,-195.5 2681.89,-195.5 2739.92,-195.5"/>
<polygon fill="black" stroke="black" points="2740,-199 2750,-195.5 2740,-192 2740,-199"/>
</g>
<!-- TwoThetaBins -->
<g id="node25" class="node">
<title>TwoThetaBins</title>
<polygon fill="none" stroke="black" points="2318,-168 2200,-168 2200,-145 2318,-145 2318,-168"/>
<text text-anchor="middle" x="2259" y="-152.8" font-family="Times,serif" font-size="14.00">TwoThetaBins</text>
</g>
<!-- TwoThetaBins&#45;&gt;FocussedDataDspacingTwoTheta[SampleRun] -->
<g id="edge19" class="edge">
<title>TwoThetaBins:e&#45;&gt;FocussedDataDspacingTwoTheta[SampleRun]:w</title>
<path fill="none" stroke="black" stroke-width="2" d="M2319,-156.5C2363.77,-156.5 2389.39,-167.69 2416.37,-178.08"/>
<polygon fill="black" stroke="black" stroke-width="2" points="2415.41,-181.46 2426,-181.7 2417.87,-174.91 2415.41,-181.46"/>
</g>
<!-- FocussedDataDspacingTwoTheta[VanadiumRun] -->
<g id="node27" class="node">
<title>FocussedDataDspacingTwoTheta[VanadiumRun]</title>
<polygon fill="none" stroke="black" points="2607,-231 2497,-231 2497,-210 2607,-210 2607,-231"/>
<text text-anchor="start" x="2505" y="-217.4" font-family="Times,serif" font-size="12.00">[VanadiumRun]</text>
</g>
<!-- ScaledCountsDspacing[VanadiumRun]&#45;&gt;FocussedDataDspacingTwoTheta[VanadiumRun] -->
<g id="edge20" class="edge">
<title>ScaledCountsDspacing[VanadiumRun]:e&#45;&gt;FocussedDataDspacingTwoTheta[VanadiumRun]:w</title>
<path fill="none" stroke="black" d="M2315,-220.5C2391.99,-220.5 2413.72,-220.5 2485.95,-220.5"/>
<polygon fill="black" stroke="black" points="2486,-224 2496,-220.5 2486,-217 2486,-224"/>
</g>
<!-- FocussedDataDspacingTwoTheta[VanadiumRun]&#45;&gt;IofDspacingTwoTheta[SampleRun] -->
<g id="edge22" class="edge">
<title>FocussedDataDspacingTwoTheta[VanadiumRun]:e&#45;&gt;IofDspacingTwoTheta[SampleRun]:w</title>
<path fill="none" stroke="black" d="M2608,-220.5C2668.58,-220.5 2684.25,-198.16 2739.92,-195.72"/>
<polygon fill="black" stroke="black" points="2740.08,-199.21 2750,-195.5 2739.93,-192.22 2740.08,-199.21"/>
</g>
<!-- UncertaintyBroadcastMode -->
<g id="node29" class="node">
<title>UncertaintyBroadcastMode</title>
<polygon fill="none" stroke="black" points="2659,-168 2445,-168 2445,-145 2659,-145 2659,-168"/>
<text text-anchor="middle" x="2552" y="-152.8" font-family="Times,serif" font-size="14.00">UncertaintyBroadcastMode</text>
</g>
<!-- UncertaintyBroadcastMode&#45;&gt;IofDspacingTwoTheta[SampleRun] -->
<g id="edge23" class="edge">
<title>UncertaintyBroadcastMode:e&#45;&gt;IofDspacingTwoTheta[SampleRun]:w</title>
<path fill="none" stroke="black" d="M2660,-156.5C2699.85,-156.5 2705.62,-189.08 2739.61,-194.69"/>
<polygon fill="black" stroke="black" points="2739.76,-198.21 2750,-195.5 2740.3,-191.23 2739.76,-198.21"/>
</g>
<!-- KeepEvents[SampleRun] -->
<g id="node30" class="node">
<title>KeepEvents[SampleRun]</title>
<polygon fill="none" stroke="black" points="1775.5,-154 1680.5,-154 1680.5,-133 1775.5,-133 1775.5,-154"/>
<text text-anchor="start" x="1688.5" y="-140.4" font-family="Times,serif" font-size="12.00">[SampleRun]</text>
</g>
<!-- KeepEvents[SampleRun]&#45;&gt;ReducedCountsDspacing[SampleRun] -->
<g id="edge34" class="edge">
<title>KeepEvents[SampleRun]:e&#45;&gt;ReducedCountsDspacing[SampleRun]:w</title>
<path fill="none" stroke="black" d="M1777,-143.5C1842.39,-143.5 1861.23,-143.5 1921.89,-143.5"/>
<polygon fill="black" stroke="black" points="1922,-147 1932,-143.5 1922,-140 1922,-147"/>
</g>
<!-- KeepEvents[VanadiumRun] -->
<g id="node31" class="node">
<title>KeepEvents[VanadiumRun]</title>
<polygon fill="none" stroke="black" points="1783,-179 1673,-179 1673,-158 1783,-158 1783,-179"/>
<text text-anchor="start" x="1681" y="-165.4" font-family="Times,serif" font-size="12.00">[VanadiumRun]</text>
</g>
<!-- KeepEvents[VanadiumRun]&#45;&gt;ReducedCountsDspacing[VanadiumRun] -->
<g id="edge36" class="edge">
<title>KeepEvents[VanadiumRun]:e&#45;&gt;ReducedCountsDspacing[VanadiumRun]:w</title>
<path fill="none" stroke="black" d="M1784,-168.5C1843.12,-168.5 1860.41,-168.5 1914.79,-168.5"/>
<polygon fill="black" stroke="black" points="1915,-172 1925,-168.5 1915,-165 1915,-172"/>
</g>
<!-- MaskedDetectorIDs -->
<g id="node32" class="node">
<title>MaskedDetectorIDs</title>
<polygon fill="none" stroke="black" points="1344,-246 1186,-246 1186,-223 1344,-223 1344,-246"/>
<text text-anchor="middle" x="1265" y="-230.8" font-family="Times,serif" font-size="14.00">MaskedDetectorIDs</text>
</g>
<!-- MaskedDetectorIDs&#45;&gt;MaskedData[SampleRun] -->
<g id="edge25" class="edge">
<title>MaskedDetectorIDs:e&#45;&gt;MaskedData[SampleRun]:w</title>
<path fill="none" stroke="black" stroke-width="2" d="M1345,-234.5C1372.49,-234.5 1381.58,-233.89 1405,-219.5 1441.57,-197.04 1435.32,-151.83 1459.86,-135.53"/>
<polygon fill="black" stroke="black" stroke-width="2" points="1461.38,-138.68 1469,-131.32 1458.46,-132.32 1461.38,-138.68"/>
</g>
<!-- TofMask -->
<g id="node33" class="node">
<title>TofMask</title>
<polygon fill="none" stroke="black" points="1303.5,-219 1226.5,-219 1226.5,-196 1303.5,-196 1303.5,-219"/>
<text text-anchor="middle" x="1265" y="-203.8" font-family="Times,serif" font-size="14.00">TofMask</text>
</g>
<!-- TofMask&#45;&gt;MaskedData[SampleRun] -->
<g id="edge26" class="edge">
<title>TofMask:e&#45;&gt;MaskedData[SampleRun]:w</title>
<path fill="none" stroke="black" stroke-width="2" d="M1305,-207.5C1349.94,-207.5 1363.86,-210.59 1405,-192.5 1436.68,-178.57 1439.32,-148.28 1459.8,-135.44"/>
<polygon fill="black" stroke="black" stroke-width="2" points="1461.3,-138.6 1469,-131.33 1458.45,-132.21 1461.3,-138.6"/>
</g>
<!-- WavelengthMask -->
<g id="node34" class="node">
<title>WavelengthMask</title>
<polygon fill="none" stroke="black" points="1334.5,-192 1195.5,-192 1195.5,-169 1334.5,-169 1334.5,-192"/>
<text text-anchor="middle" x="1265" y="-176.8" font-family="Times,serif" font-size="14.00">WavelengthMask</text>
</g>
<!-- WavelengthMask&#45;&gt;MaskedData[SampleRun] -->
<g id="edge27" class="edge">
<title>WavelengthMask:e&#45;&gt;MaskedData[SampleRun]:w</title>
<path fill="none" stroke="black" stroke-width="2" d="M1336,-180.5C1367.38,-180.5 1375.24,-175.47 1405,-165.5 1431.95,-156.47 1440.84,-140.94 1459.37,-133.59"/>
<polygon fill="black" stroke="black" stroke-width="2" points="1460.39,-136.94 1469,-130.77 1458.42,-130.22 1460.39,-136.94"/>
</g>
<!-- TwoThetaMask -->
<g id="node35" class="node">
<title>TwoThetaMask</title>
<polygon fill="none" stroke="black" points="1327.5,-165 1202.5,-165 1202.5,-142 1327.5,-142 1327.5,-165"/>
<text text-anchor="middle" x="1265" y="-149.8" font-family="Times,serif" font-size="14.00">TwoThetaMask</text>
</g>
<!-- TwoThetaMask&#45;&gt;MaskedData[SampleRun] -->
<g id="edge28" class="edge">
<title>TwoThetaMask:e&#45;&gt;MaskedData[SampleRun]:w</title>
<path fill="none" stroke="black" stroke-width="2" d="M1328,-153.5C1388.86,-153.5 1408.46,-135.2 1458.86,-130.56"/>
<polygon fill="black" stroke="black" stroke-width="2" points="1459.27,-134.04 1469,-129.84 1458.78,-127.06 1459.27,-134.04"/>
</g>
<!-- ReducedCountsDspacing[SampleRun]&#45;&gt;ScaledCountsDspacing[SampleRun] -->
<g id="edge37" class="edge">
<title>ReducedCountsDspacing[SampleRun]:e&#45;&gt;ScaledCountsDspacing[SampleRun]:w</title>
<path fill="none" stroke="black" d="M2030,-143.5C2062.25,-143.5 2069.9,-149.97 2101,-158.5 2146.87,-171.08 2157.44,-192.25 2199.81,-195.16"/>
<polygon fill="black" stroke="black" points="2199.89,-198.67 2210,-195.5 2200.12,-191.67 2199.89,-198.67"/>
</g>
<!-- ReducedCountsDspacing[VanadiumRun]&#45;&gt;ScaledCountsDspacing[VanadiumRun] -->
<g id="edge39" class="edge">
<title>ReducedCountsDspacing[VanadiumRun]:e&#45;&gt;ScaledCountsDspacing[VanadiumRun]:w</title>
<path fill="none" stroke="black" d="M2037,-168.5C2110.84,-168.5 2124.53,-215.93 2192.97,-220.19"/>
<polygon fill="black" stroke="black" points="2192.9,-223.69 2203,-220.5 2193.11,-216.7 2192.9,-223.69"/>
</g>
</g>
</svg>
